<svg xmlns="http://www.w3.org/2000/svg" viewBox="0 0 20 20">    
  <g>
    <rect x="1.33333" y="1.33333" width="17.33333" height="17.33333" style="fill: #ffd400"/>
    <path d="M18.66667,15.55192v.78825a.92418.92418,0,0,0,.11458-.40658A.72223.72223,0,0,0,18.66667,15.55192Z" style="fill: none"/>
    <path d="M13.21875,18.832V20h1.16406V18.66667H13.21875Z" style="fill: #333"/>
    <path d="M13.22266,14.35156q-.4414.3047-.72852.50586t-.72852.50977v1.07812q.418-.28906.69141-.47656t.69141-.47656h.07031v3.17448h1.16406V14.35156Z" style="fill: #333"/>
    <polygon points="15.945 19.188 15.945 19.969 20 19.969 20 19.031 17.527 19.031 17.527 18.961 17.833 18.667 16.472 18.667 15.945 19.188" style="fill: #333"/>
    <path d="M18.78125,15.93359a.92418.92418,0,0,1-.11458.40658v1.51961a6.29843,6.29843,0,0,0,.96224-1.0883,1.70522,1.70522,0,0,0,.28515-.9121,1.47157,1.47157,0,0,0-.55273-1.1836,1.90065,1.90065,0,0,0-.69466-.35441v1.23055A.72223.72223,0,0,1,18.78125,15.93359Z" style="fill: #333"/>
    <path d="M18.582,16.502a6.86749,6.86749,0,0,1-.793.86133l-1.3173,1.30339H17.8326l.78068-.75261c.021-.01977.033-.03483.05339-.05428V16.34017A1.197,1.197,0,0,1,18.582,16.502Z" style="fill: #333"/>
    <path d="M16.45117,14.72266a1.68773,1.68773,0,0,0-.56836,1.32031v.01953h1.07813v-.02344a.8519.8519,0,0,1,.25781-.64258.92337.92337,0,0,1,.668-.248.93961.93961,0,0,1,.64258.2207.72472.72472,0,0,1,.13737.18278V14.32137a2.59316,2.59316,0,0,0-.737-.10653A2.13549,2.13549,0,0,0,16.45117,14.72266Z" style="fill: #333"/>
    <polygon points="7.172 10.828 12.828 10.828 10 8 7.172 10.828" style="fill: #333"/>
    <polygon points="1.333 1.333 18.667 1.333 18.667 11.25 20 11.25 20 0 0 0 0 20 9.333 20 9.333 18.667 1.333 18.667 1.333 1.333" style="fill: #333"/>
  </g>
</svg>
