<svg xmlns="http://www.w3.org/2000/svg" viewBox="0 0 24 24" width="24" height="24"><path d="M17.055 18H18v-1.056c-.084.086-.164.17-.256.261zM18 2H2v16h7.494v-4.305l-1.945.569v-1.5l3.744-1.295h.182V18h3.248l2.066-2.172a3.273 3.273 0 0 0 1.014-1.834 1.276 1.276 0 0 0-.24-.838.858.858 0 0 0-.698-.287.868.868 0 0 0-.732.384 1.577 1.577 0 0 0-.281.958h-1.98a2.802 2.802 0 0 1 .392-1.45 2.753 2.753 0 0 1 1.09-1.04 3.237 3.237 0 0 1 1.558-.375 4.362 4.362 0 0 1 1.088.13V2zM6.757 8L9.88 4.879 13 8z" fill="#ffd400"/><path fill="#333" d="M6.757 8L13 8 9.879 4.879 6.757 8z"/><path fill="#333" d="M11.293 11.469L7.549 12.764 7.549 14.264 9.494 13.695 9.494 18 9.494 20 11.475 20 11.475 18 11.475 11.469 11.293 11.469z"/><path d="M15.354 11.72a2.753 2.753 0 0 0-1.09 1.04 2.802 2.802 0 0 0-.393 1.45h1.98a1.577 1.577 0 0 1 .282-.957.868.868 0 0 1 .732-.384.858.858 0 0 1 .698.287 1.276 1.276 0 0 1 .24.838 3.273 3.273 0 0 1-1.014 1.834L14.723 18l-.676.71V20H20v-1.523h-3.357l.412-.477.69-.795.255-.26a12.952 12.952 0 0 0 1.019-1.143 4.304 4.304 0 0 0 .583-1.002 2.663 2.663 0 0 0 .187-.982 2.28 2.28 0 0 0-.747-1.834A2.548 2.548 0 0 0 18 11.477a4.362 4.362 0 0 0-1.088-.131 3.237 3.237 0 0 0-1.558.375z" fill="#333"/><path fill="#333" d="M2 2L18 2 18 8 20 8 20 0 0 0 0 20 6.125 20 6.125 18 2 18 2 2z"/></svg>