<svg xmlns="http://www.w3.org/2000/svg" viewBox="0 0 24 24" width="24" height="24"><path d="M10 16a45.652 45.652 0 0 1-4.48-6H2v8h16v-8h-3.52A45.652 45.652 0 0 1 10 16z" fill="#fff"/><path d="M15.505 8A5.5 5.5 0 0 0 16 6 6 6 0 0 0 4 6a5.5 5.5 0 0 0 .495 2H0v12h20V8zM6 6a4 4 0 0 1 8 0c0 1.275-1.88 4.252-4 6.903C7.88 10.252 6 7.275 6 6zm12 12H2v-8h3.52A45.652 45.652 0 0 0 10 16a45.652 45.652 0 0 0 4.48-6H18z" fill="#333"/><path d="M10 12.903c2.12-2.651 4-5.628 4-6.903a4 4 0 0 0-8 0c0 1.275 1.88 4.252 4 6.903zM8 6a2 2 0 1 1 2 2 2 2 0 0 1-2-2z" fill="#ffd400"/><path d="M10 4.667A1.333 1.333 0 1 0 11.333 6 1.335 1.335 0 0 0 10 4.667z" fill="#fff"/><path d="M12 6a2 2 0 1 0-2 2 2 2 0 0 0 2-2zm-2 1.333A1.333 1.333 0 1 1 11.333 6 1.335 1.335 0 0 1 10 7.333z" fill="#333"/></svg>