<svg xmlns="http://www.w3.org/2000/svg" width="24.03186" height="22" viewBox="0 0 24.03186 22">
  <title>google_maps</title>
  <g id="Layer_2" data-name="Layer 2">
    <g id="V2_-_MAPS" data-name="V2 - MAPS">
      <g>
        <g>
          <rect x="2" y="12" width="20.03186" height="8" style="fill: #fff"/>
          <path d="M0,10V22H24.03186V10ZM22.03186,20H2V12H22.03186Z" style="fill: #333"/>
        </g>
        <g>
          <path d="M12.01593,12.90326c2.12048-2.65131,4-5.62848,4-6.90326a4,4,0,0,0-8,0C8.01593,7.27478,9.89551,10.252,12.01593,12.90326Z" style="fill: #ffd400"/>
          <path d="M12.01593,0a6,6,0,0,0-6,6c0,3.31372,6,10,6,10s6-6.68628,6-10A6,6,0,0,0,12.01593,0Zm0,2a4.0045,4.0045,0,0,1,4,4c0,1.27478-1.87952,4.252-4,6.90326-2.12042-2.65131-4-5.62848-4-6.90326A4.00454,4.00454,0,0,1,12.01593,2Z" style="fill: #333"/>
        </g>
        <circle cx="12.01593" cy="6" r="2" style="fill: #333"/>
      </g>
    </g>
  </g>
</svg>
