<svg xmlns="http://www.w3.org/2000/svg" width="24" height="24" viewBox="0 0 24 24">
  <path d="M1,1V23H23V1ZM2,2H21.35L11.97,13.26,9.96,11.25,2,21.2ZM22,22H2.64l7.4-9.25L12.03,14.74,22,2.78Z" style="fill: #ffd400"/>
  <polygon points="22 2.78 22 22 2.64 22 10.04 12.75 12.03 14.74 22 2.78" style="fill: #ffd400"/>
  <polygon points="21.35 2 11.97 13.26 9.96 11.25 2 21.2 2 2 21.35 2" style="fill: #fff"/>
  <path d="M0,0V24H24V0ZM2,2H21.35L11.97,13.26,9.96,11.25,2,21.2ZM22,22H2.64l7.4-9.25L12.03,14.74,22,2.78Z" style="fill: #333"/>
  <circle cx="6" cy="6" r="2" style="fill: #333"/>
</svg>
