<svg xmlns="http://www.w3.org/2000/svg" viewBox="0 0 20 20">    
  <g>
    <path d="M20,17.4V20H0V0H20V17.4Zm-1.33333,1.26667v-2.6l-1.36-1.34667-2.64,2.64V15.48l2.64-2.65333,1.36,1.36V1.33333H13.33333V6.66667h1.33334v6.66666H13.33333v5.33334h5.33334ZM13.33333,12V8H12v4ZM12,18.66667V13.33333H10.66667V6.66667H12V1.33333H1.33333V18.66667H4.24l3.17333-3.16,1.74667-1.76L10.66667,15.24v1.89333L9.16,15.62667l-3.02667,3.04Z" style="fill: #333"/>
    <path d="M12,13.33333v5.33334H6.13333l3.02667-3.04,1.50667,1.50666V15.24L9.16,13.74667l-1.74667,1.76L5.08,13.17333A1.15927,1.15927,0,0,0,5.41333,12.36a1.15335,1.15335,0,0,0-2.30666,0H1.33333V1.33333H12V6.66667H10.66667v6.66666Z" style="fill: #ffd400"/>
    <path d="M7.41333,15.50667,4.24,18.66667H1.33333V12.36H3.10667a1.16083,1.16083,0,0,0,1.16,1.16A1.13891,1.13891,0,0,0,5.08,13.17333Z" style="fill: #ffd400"/>
    <path d="M5.41333,12.36a1.15927,1.15927,0,0,1-.33333.81333,1.13891,1.13891,0,0,1-.81333.34667,1.15335,1.15335,0,1,1,0-2.30667A1.1466,1.1466,0,0,1,5.41333,12.36Z" style="fill: #333"/>
  </g>      
</svg>
