<svg xmlns="http://www.w3.org/2000/svg" viewBox="0 0 20 20">
  <g>
    <g>
      <g>
        <g>
          <g>
            <path d="M20,9.4v1.26667H0V0H20V9.4Zm-1.33333-.06667V8.06667l-2.69334-2.68L12.12,9.24,9.16,6.29333l-3.02667,3.04H18.66667Zm0-3.14666V1.33333H1.33333v8H4.24l4.92-4.92L12.12,7.36l3.85333-3.86667Z" style="fill: #333"/>
            <polygon points="18.667 1.333 18.667 6.187 15.973 3.493 12.12 7.36 9.16 4.413 4.24 9.333 1.333 9.333 1.333 1.333 18.667 1.333" style="fill: #ffd400"/>
          </g>
        </g>
        <circle cx="4.26041" cy="4.36458" r="1.15625" style="fill: #333"/>
        <g>
          <g>
            <path d="M9.33333,13.33333V20H0V13.33333ZM8,18.66667v-4H1.33333v4Z" style="fill: #333"/>
            <rect x="1.33333" y="14.66667" width="6.66667" height="4" style="fill: #ffd400"/>
          </g>
        </g>
        <path d="M18.66667,14.66667v4H12v-4h6.66667M20,13.33333H10.66667V20H20V13.33333Z" style="fill: #333"/>
      </g>
    </g>
  </g>
</svg>
