<svg xmlns="http://www.w3.org/2000/svg" viewBox="0 0 20 20">
  <g>
    <g>
      <g>
        <polygon points="2.667 14.667 0 14.667 0 13.333 1.333 13.333 1.333 1.333 0 1.333 0 0 2.667 0 2.667 14.667" style="fill: #333"/>
        <g>
          <g>
            <path d="M20,0V14H4V0ZM18.66667,12.66667v-.6l-2.69334-2.68-3.28,3.28Zm0-2.48V1.33333H5.33333V12.24L9.16,8.41333,12.12,11.36l3.85333-3.86667ZM6.8,12.66667h4.73333L9.16,10.29333Z" style="fill: #333"/>
            <path d="M18.66667,1.33333v8.85334L15.97333,7.49333,12.12,11.36,9.16,8.41333,5.33333,12.24V1.33333ZM9.41333,4.36a1.15335,1.15335,0,0,0-2.30666,0,1.15335,1.15335,0,1,0,2.30666,0Z" style="fill: #ffd400"/>
            <path d="M8.26667,3.21333a1.15335,1.15335,0,0,1,0,2.30667,1.15335,1.15335,0,1,1,0-2.30667Z" style="fill: #333"/>
          </g>
        </g>
        <polygon points="8 20 4 20 4 16 8 20" style="fill: #333"/>
        <polygon points="20 16 20 20 16 20 20 16" style="fill: #333"/>
      </g>
    </g>
  </g>
</svg>
