<svg xmlns="http://www.w3.org/2000/svg" viewBox="0 0 24 24"><path fill="#5c6671" d="M22 0c-1.103 0-2 .897-2 2v2.006l-1.092-.005c-.207-.582-.757-1.002-1.408-1.002-.656 0-1.209.426-1.412 1.015h-4.175c-.203-.588-.756-1.015-1.412-1.015s-1.209.426-1.412 1.015H7.914c-.203-.588-.756-1.015-1.412-1.015s-1.209.426-1.412 1.015H4.002V1.999c0-1.103-.897-2-2-2s-2 .897-2 2v20c0 1.103.897 2 2 2s2-.897 2-2v-1.998l1.094.005c.209.577.757.993 1.406.993.651 0 1.201-.419 1.408-1h4.184c.207.581.757 1 1.408 1s1.201-.419 1.408-1h1.184c.207.581.757 1 1.408 1s1.201-.419 1.408-1h1.092v2c0 1.103.897 2 2 2s2-.897 2-2v-20c0-1.103-.897-2-2-2zM11.912 14.015C11.709 13.427 11.156 13 10.5 13s-1.209.426-1.412 1.015H7.913C7.71 13.427 7.157 13 6.501 13s-1.209.426-1.412 1.015H4.001v-4h6.097c.211.573.758.985 1.403.985s1.192-.412 1.403-.985h3.193c.211.573.758.985 1.403.985.65 0 1.2-.418 1.407-.998l1.093.005v4.008h-8.088zM10.5 15c-.275 0-.5-.224-.5-.5s.225-.5.5-.5.5.224.5.5-.225.5-.5.5zM7 14.5c0 .276-.225.5-.5.5s-.5-.224-.5-.5.225-.5.5-.5.5.224.5.5zm4.5-4.5c-.275 0-.5-.224-.5-.5s.225-.5.5-.5.5.224.5.5-.225.5-.5.5zm5.5-.5c0-.276.225-.5.5-.5s.5.224.5.5-.225.5-.5.5-.5-.224-.5-.5zm.5-5.5c.275 0 .5.224.5.5s-.225.5-.5.5-.5-.224-.5-.5.225-.5.5-.5zm-7 0c.275 0 .5.224.5.5s-.225.5-.5.5-.5-.224-.5-.5.225-.5.5-.5zm-4 0c.275 0 .5.224.5.5s-.225.5-.5.5-.5-.224-.5-.5.225-.5.5-.5zM5.097 5.015C5.308 5.588 5.855 6 6.5 6s1.192-.412 1.403-.985h1.193c.211.573.758.985 1.403.985s1.192-.412 1.403-.985h4.193c.211.573.758.985 1.403.985.65 0 1.2-.418 1.407-.998l1.093.005v4l-1.092-.005C18.699 8.42 18.149 8 17.498 8c-.656 0-1.209.426-1.412 1.015h-3.175C12.708 8.427 12.155 8 11.499 8s-1.209.426-1.412 1.015H3.999v-4h1.097zM3 22c0 .551-.448 1-1 1s-1-.449-1-1V2c0-.551.448-1 1-1s1 .449 1 1v20zm3.5-2c-.275 0-.5-.224-.5-.5s.225-.5.5-.5.5.224.5.5-.225.5-.5.5zm7 0c-.275 0-.5-.224-.5-.5s.225-.5.5-.5.5.224.5.5-.225.5-.5.5zm4 0c-.275 0-.5-.224-.5-.5s.225-.5.5-.5.5.224.5.5-.225.5-.5.5zm1.408-1c-.207-.581-.757-1-1.408-1s-1.201.419-1.408 1h-1.184c-.207-.581-.757-1-1.408-1s-1.201.419-1.408 1H7.908c-.207-.581-.757-1-1.408-1-.653 0-1.205.423-1.41 1.007L4 19.002v-3.987h1.097c.211.573.758.985 1.403.985s1.192-.412 1.403-.985h1.193c.211.573.758.985 1.403.985s1.192-.412 1.403-.985h8.097V19h-1.092zM23 22c0 .551-.448 1-1 1s-1-.449-1-1V2c0-.551.448-1 1-1s1 .449 1 1v20z"/></svg>