<svg xmlns="http://www.w3.org/2000/svg" viewBox="0 0 24 24"><path fill="#5c6671" d="M23.846 11.138l-11.5-11c-.193-.185-.498-.185-.691 0l-11.5 11c-.147.141-.194.358-.118.547s.26.314.464.314h1.5v10c0 1.103.897 2 2 2h16c1.103 0 2-.897 2-2v-10h1.5c.204 0 .388-.124.464-.314s.029-.406-.118-.547zM21.5 11c-.276 0-.5.224-.5.5V22c0 .551-.448 1-1 1H4c-.552 0-1-.449-1-1V11.5c0-.276-.224-.5-.5-.5h-.754L12 1.192 22.254 11H21.5zM9 11.5v.062l-1.314-.526c-.128-.052-.271-.047-.396.011s-.221.165-.265.295l-1 3c-.083.251.043.524.289.623l.089.036-.089.036c-.246.099-.372.371-.289.623l1 3c.045.132.14.237.262.294.065.031.137.048.213.048.062 0 .126-.012.186-.036L9 18.44v.061c0 .276.224.5.5.5h5c.276 0 .5-.224.5-.5v-.061l1.314.526c.06.024.123.036.186.036.076 0 .148-.017.213-.048.121-.058.216-.162.261-.291l1.001-3.004c.083-.251-.043-.524-.289-.623L17.597 15l.089-.036c.246-.099.372-.371.289-.623l-1-3c-.045-.132-.14-.237-.262-.294-.127-.058-.27-.064-.399-.012L15 11.561V11.5c0-.276-.224-.5-.5-.5h-5c-.276 0-.5.224-.5.5zm-1.877 2.711l.684-2.05 2.846 1.139-2.903 1.161-.627-.251zM10.096 18l1.903-.761 1.904.761h-3.807zm6.781-2.211l-.684 2.05-2.847-1.139 2.903-1.162.627.251zm0-1.578l-.811.324h-.001l-8.258 3.303-.684-2.05.811-.324h.001l4.25-1.7.001-.001 4.007-1.603.684 2.05zM12 12.761l-1.904-.762h3.807l-1.904.762z"/></svg>