<svg xmlns="http://www.w3.org/2000/svg" viewBox="0 0 18 24"><path fill="#5c6671" d="M5 16v-2.5c0-.276.224-.5.5-.5s.5.224.5.5V16c0 1.403.956 2.604 2.324 2.918.269.062.437.33.375.6-.054.231-.259.388-.487.388h-.001c-.04 0-.078-.005-.115-.013C6.274 19.474 5 17.873 5 16.001zm13-7c0 1.103-.897 2-2 2v5c0 3.181-2.102 5.915-5.146 6.746C10.555 23.498 9.832 24 9 24s-1.556-.502-1.854-1.254C4.102 21.915 2 19.182 2 16v-5c-1.103 0-2-.897-2-2 0-3.291 2.678-5.969 5.97-5.969H7V2c0-1.103.897-2 2-2s2 .897 2 2v1.031h1.03C15.322 3.031 18 5.709 18 9zM8 3h2V2c0-.551-.448-1-1-1s-1 .449-1 1v1zm7 8H3v5c0 2.81 1.913 5.211 4.651 5.842.188.043.333.19.376.378.103.459.503.78.973.78s.87-.321.973-.78c.043-.188.188-.335.376-.378C13.087 21.212 15 18.81 15 16v-5zm2-2c0-2.74-2.229-4.969-4.97-4.969H5.969C3.229 4.031.999 6.26.999 9c0 .551.448 1 1 1h14c.552 0 1-.449 1-1z"/></svg>