<svg xmlns="http://www.w3.org/2000/svg" viewBox="0 0 24 24"><path fill="#5c6671" d="M18.5 13c-.169 0-.335.01-.5.025V6.5c0-.276-.224-.5-.5-.5H15V3.914c0-1.03-.418-2.039-1.146-2.768S12.117 0 11.086 0H6.914c-1.03 0-2.039.418-2.768 1.146S3 2.883 3 3.914V6H.5c-.276 0-.5.224-.5.5V22c0 1.103.897 2 2 2h16.5c3.033 0 5.5-2.467 5.5-5.5S21.533 13 18.5 13zM14 3.914V6h-1V1.734c.048.042.102.075.146.12.542.542.854 1.293.854 2.061zM6 6V3h6v3H6zm5.086-5c.313 0 .619.064.914.162V2H6v-.838c.295-.098.601-.162.914-.162h4.172zM4 3.914c0-.767.311-1.518.854-2.061.045-.045.099-.078.146-.12v4.266H4V3.913zM2 23c-.551 0-1-.449-1-1V7h16v6.213c-2.305.655-4 2.775-4 5.287 0 1.86.93 3.504 2.348 4.5H2zm16.5 0c-2.481 0-4.5-2.019-4.5-4.5s2.019-4.5 4.5-4.5 4.5 2.019 4.5 4.5-2.019 4.5-4.5 4.5zm3.5-4.5c0 .276-.224.5-.5.5H19v2.5c0 .276-.224.5-.5.5s-.5-.224-.5-.5V19h-2.5c-.276 0-.5-.224-.5-.5s.224-.5.5-.5H18v-2.5c0-.276.224-.5.5-.5s.5.224.5.5V18h2.5c.276 0 .5.224.5.5z"/></svg>