<svg xmlns="http://www.w3.org/2000/svg" viewBox="0 0 24 24"><path fill="#5c6671" d="M22 5h-4V2c0-1.103-.897-2-2-2H8C6.897 0 6 .897 6 2v3H2C.897 5 0 5.897 0 7v15c0 1.103.897 2 2 2h20c1.103 0 2-.897 2-2V7c0-1.103-.897-2-2-2zM7 2c0-.551.449-1 1-1h8c.551 0 1 .449 1 1v3h-1V2.5c0-.276-.224-.5-.5-.5h-7c-.276 0-.5.224-.5.5V5H7V2zm8 3H9V3h6v2zM2 6h20c.551 0 1 .449 1 1v3h-3v-.5c0-.276-.224-.5-.5-.5h-4c-.276 0-.5.224-.5.5v.5H9v-.5c0-.276-.224-.5-.5-.5h-4c-.276 0-.5.224-.5.5v.5H1V7c0-.551.449-1 1-1zm14 4h3v1h-3v-1zM5 10h3v1H5v-1zm17 13H2c-.551 0-1-.449-1-1V11h3v.5c0 .276.224.5.5.5h4c.276 0 .5-.224.5-.5V11h6v.5c0 .276.224.5.5.5h4c.276 0 .5-.224.5-.5V11h3v11c0 .551-.449 1-1 1zm-5.5-8H14v-2.5c0-.276-.224-.5-.5-.5h-3c-.276 0-.5.224-.5.5V15H7.5c-.276 0-.5.224-.5.5v3c0 .276.224.5.5.5H10v2.5c0 .276.224.5.5.5h3c.276 0 .5-.224.5-.5V19h2.5c.276 0 .5-.224.5-.5v-3c0-.276-.224-.5-.5-.5zm-.5 3h-2.5c-.276 0-.5.224-.5.5V21h-2v-2.5c0-.276-.224-.5-.5-.5H8v-2h2.5c.276 0 .5-.224.5-.5V13h2v2.5c0 .276.224.5.5.5H16v2z"/></svg>