<svg xmlns="http://www.w3.org/2000/svg" viewBox="0 0 18 24"><path fill="#5c6671" d="M9 0C4.038 0 0 3.364 0 7.5c0 1.973.912 3.834 2.568 5.244l.001.001c1.482 1.482 2.575 3.286 3.094 4.229.348.632 1.017 1.025 1.746 1.025h.109v1H6.499c-.16 0-.302.075-.393.191-.067.085-.107.192-.107.308 0 .043.005.085.016.125l.715 2.86c.223.892 1.021 1.515 1.94 1.515h.657c.919 0 1.718-.623 1.94-1.515l.716-2.864c.01-.036.015-.078.015-.122 0-.116-.04-.223-.107-.308-.091-.116-.234-.191-.393-.191h-1v-1h.09c.729 0 1.398-.393 1.746-1.025.52-.943 1.612-2.747 3.094-4.229l.001-.001c1.656-1.41 2.568-3.271 2.568-5.244 0-4.136-4.038-7.5-9-7.5zm1.671 1.145c3.143 3.285 1.584 7.469.2 11.167-.63 1.682-1.224 3.28-1.345 4.688H8.494c-.121-1.408-.716-3.006-1.345-4.688-1.385-3.7-2.945-7.886.205-11.172A9.769 9.769 0 0 1 9.001 1c.573 0 1.131.051 1.671.145zM6.54 16.493c-.541-.982-1.677-2.857-3.229-4.419-.019-.023-.04-.044-.062-.063C1.799 10.79 1 9.188 1 7.501c0-2.636 1.945-4.907 4.728-5.925-2.337 3.524-.794 7.677.483 11.087.592 1.581 1.154 3.084 1.281 4.338H7.41c-.364 0-.698-.194-.87-.507zm3.759 5.75c-.112.438-.504.757-.97.757h-.658-.001c-.466 0-.857-.319-.968-.75L7.14 20h3.72l-.561 2.243zM9.5 19h-.981v-1H9.5v1zm5.252-6.99c-.023.019-.043.041-.063.063-1.552 1.563-2.688 3.438-3.229 4.42-.172.313-.506.507-.87.507h-.063c.127-1.253.689-2.757 1.281-4.338 1.275-3.407 2.817-7.555.49-11.077C15.067 2.608 17 4.872 17 7.5c0 1.688-.798 3.289-2.248 4.51z"/></svg>