<svg xmlns="http://www.w3.org/2000/svg" viewBox="0 0 24 24"><path fill="#5c6671" d="M20.961 12.535c-.929-.533-3.091-1.26-5.104-1.579-.186-.68-.532-1.294-1.017-1.779.726-1.894 1.173-4.113 1.173-5.177 0-2.206-1.8-4-4.014-4S7.985 1.794 7.985 4c0 1.065.447 3.284 1.173 5.177-.485.485-.831 1.099-1.017 1.779-2.013.319-4.175 1.045-5.104 1.579-.93.535-1.595 1.399-1.872 2.434-.276 1.031-.133 2.108.402 3.032.743 1.281 2.095 1.998 3.483 1.998.68 0 1.369-.172 1.999-.534.928-.534 2.64-2.035 3.925-3.613.329.087.668.149 1.025.149s.695-.061 1.025-.149c1.285 1.578 2.997 3.08 3.925 3.613.63.362 1.319.534 1.999.534 1.388 0 2.74-.717 3.483-1.998.536-.924.678-2.001.402-3.032-.277-1.034-.942-1.898-1.872-2.434zM12 1c1.662 0 3.014 1.346 3.014 3 0 .927-.394 2.873-1.002 4.552-.062-.037-.128-.064-.191-.097-.133-.068-.266-.133-.407-.186-.137-.055-.306-.109-.479-.151-.094-.021-.161-.035-.23-.047C12.474 8.029 12.24 8 12 8s-.473.029-.705.071c-.069.012-.136.026-.203.042-.2.048-.369.101-.532.166-.115.044-.248.109-.38.177-.063.033-.129.06-.191.097-.608-1.68-1.002-3.625-1.002-4.552 0-1.654 1.352-3 3.014-3zm-1.992 14.459c-1.157 1.364-2.65 2.675-3.456 3.139-1.437.828-3.287.335-4.118-1.099-.401-.692-.508-1.499-.302-2.271.208-.775.707-1.424 1.404-1.825.806-.463 2.689-1.094 4.45-1.41 0 .003-.001.005-.001.008 0 .088.02.171.026.257.007.134.02.267.04.399.015.087.029.173.049.258.049.214.111.424.196.627.009.022.022.043.032.065.059.134.12.266.195.395.019.033.049.057.069.089.165.267.351.519.573.74.001.001.003.002.005.004.237.235.511.428.801.599.013.008.023.019.036.027zm.981-.645c-.006-.002-.01-.008-.016-.01-.166-.06-.324-.133-.473-.217-.007-.004-.015-.008-.022-.012-.119-.067-.227-.147-.334-.229-.055-.043-.11-.086-.162-.133-.068-.06-.132-.125-.195-.192-.068-.074-.134-.153-.196-.235-.049-.066-.093-.125-.132-.187-.06-.094-.112-.194-.161-.295-.033-.068-.069-.136-.096-.206-.035-.089-.059-.182-.086-.275-.026-.095-.058-.188-.075-.285-.002-.013-.002-.028-.004-.041-.052-.328-.05-.668.011-1.012.003-.018-.004-.035-.003-.053.133-.687.508-1.281 1.026-1.715.001-.001.002-.001.002-.001 1.118-.934 2.736-.934 3.854 0 .001.001.002.001.003.002.517.434.892 1.028 1.025 1.715.001.018-.006.035-.003.053.061.344.062.684.011 1.012-.002.014-.002.028-.004.041-.017.097-.049.19-.075.285-.027.093-.051.186-.086.275-.027.07-.063.138-.096.206-.049.101-.101.201-.161.295-.039.062-.083.121-.126.179-.068.091-.134.17-.204.246-.06.064-.124.129-.193.189-.052.047-.107.09-.162.133-.107.081-.215.161-.333.228-.007.004-.015.008-.023.012-.149.083-.307.157-.473.217-.006.002-.01.008-.016.01-.318.114-.655.186-1.011.186s-.693-.073-1.011-.186zm10.577 2.685c-.831 1.434-2.679 1.927-4.118 1.099-.806-.463-2.299-1.775-3.456-3.139.013-.007.023-.019.036-.027.29-.171.564-.364.801-.599.001-.001.003-.002.005-.004.222-.22.407-.473.573-.74.02-.032.05-.056.069-.089.074-.128.136-.261.195-.395.01-.022.023-.042.032-.065.085-.203.147-.414.196-.627.02-.085.035-.171.049-.258.021-.132.033-.265.04-.399.006-.087.026-.169.026-.257 0-.003-.001-.005-.001-.008 1.761.316 3.645.948 4.45 1.41.698.401 1.197 1.05 1.405 1.825.207.772.1 1.58-.302 2.271zM14.006 12c0-1.103-.9-2-2.006-2s-2.006.897-2.006 2 .9 2 2.006 2 2.006-.897 2.006-2zm-3.012 0c0-.551.451-1 1.006-1s1.006.449 1.006 1-.451 1-1.006 1-1.006-.449-1.006-1zm-.864 8.825c-.27-.059-.441-.325-.383-.594s.324-.442.594-.383c1.106.239 2.212.239 3.319 0 .27-.059.536.113.594.383s-.113.536-.383.594c-.622.134-1.251.203-1.871.203s-1.248-.068-1.87-.203zm7.643-13.799c-.187-.204-.172-.52.032-.706s.52-.172.706.032c.864.946 1.496 2.031 1.878 3.224.084.263-.061.544-.323.629-.051.016-.103.024-.153.024-.211 0-.408-.135-.476-.347-.339-1.056-.899-2.017-1.665-2.856zM6.195 6.32c.204.186.218.502.032.707-.767.839-1.327 1.8-1.665 2.855-.068.212-.265.348-.476.348-.054 0-.107-.009-.156-.025-.26-.083-.405-.365-.32-.627.382-1.193 1.014-2.278 1.878-3.225.186-.205.503-.218.707-.032zm17.804 4.752c.021.275-.185.516-.46.537-.012.001-.025.001-.039.001-.259 0-.478-.199-.498-.461-.257-3.33-1.99-6.325-4.756-8.218-.228-.156-.286-.467-.13-.695s.467-.287.695-.13C21.829 4.171 23.72 7.439 24 11.072zm-23 .077c-.02.262-.239.461-.498.461-.014 0-.027-.001-.041-.002-.274-.021-.479-.262-.458-.537.28-3.633 2.171-6.901 5.189-8.966.229-.156.54-.097.695.13s.098.539-.13.695C2.99 4.823 1.256 7.818 1 11.148zm16.429 11c.119.249.013.547-.236.666-1.646.786-3.393 1.184-5.192 1.184s-3.546-.398-5.192-1.184c-.249-.119-.355-.417-.236-.666s.417-.355.666-.236c3.021 1.441 6.502 1.441 9.522 0 .247-.12.547-.014.666.236z"/></svg>