<svg xmlns="http://www.w3.org/2000/svg" viewBox="0 0 24 24"><path fill="#5c6671" d="M4.5 14C6.981 14 9 11.981 9 9.5v-2c0-.276-.224-.5-.5-.5h-8c-.276 0-.5.224-.5.5v2C0 11.981 2.019 14 4.5 14zM1 8h7v1.5C8 11.43 6.43 13 4.5 13S1 11.43 1 9.5V8zm22.268-3.732c.472-.472.732-1.1.732-1.768C24 1.122 22.878 0 21.5 0c-.668 0-1.296.26-1.768.732l-.345.341C2.649 17.654 2.649 18.026 2.649 18.353c0 .667-.196 1.313-.503 1.792l-2 2c-.195.195-.195.512 0 .707l1 1c.098.098.226.146.354.146s.256-.049.354-.146l1.924-1.938c.498-.332 1.077-.507 1.675-.507.436 0 4.575-3.965 8.754-8.081l4.232 4.232c.283.284.66.44 1.061.44.827 0 1.5-.673 1.5-1.5 0-.4-.156-.777-.439-1.061l-4.221-4.221c3.668-3.643 6.863-6.881 6.928-6.95zM5.325 20.411c-.751.024-1.479.259-2.178.736l-1.646 1.646-.294-.294 1.71-1.722c.456-.684.708-1.474.732-2.292.674-.926 6.771-7.119 16.444-16.701l.348-.345c.283-.284.659-.439 1.06-.439.827 0 1.5.673 1.5 1.5 0 .401-.156.777-.45 1.072-.406.431-3.675 3.712-7.267 7.269-.004.004-.01.005-.014.009l-1.422 1.406c-.004.004-.006.011-.01.015-3.9 3.849-7.784 7.622-8.511 8.14zm14.529-4.265c.094.095.146.22.146.354 0 .41-.564.644-.854.354l-4.228-4.228c.238-.235.475-.469.711-.703l4.224 4.224z"/></svg>