<svg xmlns="http://www.w3.org/2000/svg" viewBox="0 0 24 24"><path fill="#5c6671" d="M15 20.5c0 .276-.224.5-.5.5h-12c-.276 0-.5-.224-.5-.5s.224-.5.5-.5h12c.276 0 .5.224.5.5zm8.993-15.666c.068.867-.393 1.672-1.174 2.052L6.855 14.653c-.471.229-.982.341-1.492.341-.751 0-1.499-.244-2.107-.718L.193 11.894c-.169-.131-.235-.355-.166-.557s.259-.338.473-.338h4.379l2.686-1.386L2.216 5.91c-.145-.101-.228-.271-.215-.447.013-.18.121-.333.273-.41l2.003-1.001c.065-.034.142-.054.223-.054.06 0 .117.011.17.03l8.145 2.875 6.123-3.161c.897-.463 1.906-.72 2.917-.742 1.107-.009 2.056.781 2.139 1.833zm-.996.078c-.041-.516-.521-.948-1.121-.912-.859.019-1.717.237-2.479.631l-6.315 3.26c-.123.063-.266.073-.396.027L4.535 5.041l-1.056.527 5.339 3.696c.145.1.227.268.215.443s-.113.332-.27.412L5.23 11.943c-.067.035-.146.056-.229.056H1.958l1.912 1.488c.726.564 1.727.667 2.549.266l15.964-7.767c.409-.199.65-.621.615-1.075z"/></svg>