<svg xmlns="http://www.w3.org/2000/svg" viewBox="0 0 24 24"><path fill="#5c6671" d="M22.967 11.994l-7.956-5.746c.022-.96-.013-4.115-1.346-5.524-.914-.966-2.413-.966-3.328 0-1.333 1.409-1.368 4.564-1.346 5.524l-7.956 5.746c-.649.469-1.036 1.226-1.036 2.027v.478c0 .151.068.294.185.388s.271.134.418.101l8.94-1.882.443 6.202-2.839 2.839c-.091.09-.147.215-.147.354v1c0 .164.081.317.215.411s.305.115.461.057l3.515-1.318.336 1.008c.136.408.813.408.948 0l.336-1.008 3.515 1.318c.052.02.112.032.175.032h.001c.001 0 0 0 0 0 .106 0 .205-.033.286-.09.133-.093.214-.246.214-.41v-1c0-.138-.056-.263-.147-.353l-2.839-2.839.443-6.202 8.94 1.882c.149.033.302-.006.418-.101s.185-.237.185-.388v-.478c0-.8-.387-1.558-1.036-2.027zm-8.862.015c-.142-.031-.289.002-.404.09s-.188.22-.198.364l-.5 7.001c-.011.145.042.287.145.389l2.854 2.854v.071l-3.325-1.247c-.057-.021-.116-.032-.176-.032-.074 0-.147.016-.215.049-.122.059-.215.163-.258.29l-.027.081-.026-.077c-.044-.13-.137-.234-.256-.292-.126-.061-.267-.066-.394-.018L8 22.779v-.071l2.854-2.854c.103-.103.156-.245.145-.389l-.5-7.001c-.01-.144-.082-.277-.198-.364s-.262-.122-.404-.09l-8.891 1.872c.04-.427.264-.822.615-1.076l8.172-5.902c.138-.1.216-.263.206-.433-.057-1.033.022-3.956 1.064-5.057.529-.559 1.345-.56 1.874 0 1.04 1.099 1.121 4.024 1.065 5.058-.01.17.068.333.206.433l8.172 5.902c.352.254.575.649.615 1.076l-8.891-1.872zm-.618-7.633c.067.268-.096.539-.364.606-.036.01-.078.015-.122.015-.224 0-.428-.151-.484-.379-.001-.003-.178-.621-.515-.621s-.514.618-.516.624c-.07.266-.344.428-.608.359-.267-.068-.428-.337-.361-.604.128-.512.585-1.379 1.485-1.379s1.357.867 1.485 1.379z"/></svg>