<svg xmlns="http://www.w3.org/2000/svg" viewBox="0 0 24 24"><path fill="#5c6671" d="M22 20.999c0 .276-.224.5-.5.5h-12c-.276 0-.5-.224-.5-.5s.224-.5.5-.5h12c.276 0 .5.224.5.5zm2-4.5c0 1.103-.897 2-2 2h-.001c-1.1 0-2.159-.174-3.152-.495L3.294 13.089C1.93 12.659.919 11.466.717 10.05L.005 5.069c-.03-.213.079-.422.271-.518s.425-.059.577.094l3.914 3.914 2.945.93-1.696-6.361c-.044-.164-.001-.339.113-.465s.286-.181.452-.157l3 .5c.173.029.314.145.379.299l3.263 7.925 8.996 2.841c1.064.336 1.78 1.312 1.78 2.428zm-1 0c0-.678-.435-1.27-1.081-1.475L12.7 12.113a.49517.49517 0 0 1-.312-.286l-3.245-7.88-1.961-.327 1.731 6.492c.047.176-.006.364-.138.49s-.326.169-.496.115L4.348 9.476c-.077-.024-.146-.066-.203-.123L1.206 6.414l.5 3.497c.147 1.037.889 1.911 1.888 2.226l15.625 4.935c.9.284 1.836.428 2.78.428.552 0 1-.449 1-1z"/></svg>