<svg xmlns="http://www.w3.org/2000/svg" viewBox="0 0 24 24"><path fill="#5c6671" d="M21.998 11.928c0-5.547-4.492-10.06-10.013-10.06S1.972 6.381 1.972 11.928c0 3.363 1.657 6.337 4.187 8.165l-3.04 3.055c-.195.196-.194.512.002.707.098.097.225.146.353.146s.257-.049.354-.147l3.188-3.204c1.466.847 3.16 1.338 4.969 1.338s3.503-.492 4.969-1.338l3.188 3.204c.098.098.226.147.354.147s.255-.048.353-.146c.196-.195.197-.511.002-.707l-3.04-3.055c2.53-1.828 4.187-4.802 4.187-8.165zm-10.013 9.059c-4.97 0-9.013-4.064-9.013-9.06s4.043-9.06 9.013-9.06 9.013 4.064 9.013 9.06-4.043 9.06-9.013 9.06zM2.184 6.892c1.039-2.038 2.647-3.68 4.652-4.749.133-.072.228-.198.256-.348.028-.153-.015-.307-.115-.422C6.214.5 5.124 0 3.989 0 1.789 0 0 1.797 0 4.006c0 1.162.515 2.27 1.413 3.038.087.075.201.12.325.12.032 0 .065-.003.097-.01.15-.03.279-.126.348-.263zm-.558-1.066C1.223 5.305 1 4.667 1 4.007c0-1.658 1.341-3.006 2.989-3.006.641 0 1.262.215 1.775.603C4.053 2.645 2.64 4.087 1.626 5.827zM20.011 0c-1.142 0-2.234.505-2.997 1.385-.1.115-.142.269-.114.418s.122.278.255.35c2 1.071 3.605 2.716 4.64 4.756.069.135.194.232.343.263.033.007.068.011.103.011.117 0 .231-.041.322-.118C23.477 6.295 24 5.181 24 4.006 24 1.797 22.21 0 20.011 0zm2.345 5.849c-1.011-1.745-2.423-3.191-4.133-4.236.515-.395 1.142-.613 1.788-.613C21.659 1 23 2.349 23 4.006c0 .671-.23 1.317-.644 1.842zm-6.512 10.255c.195.196.194.512-.002.707-.098.097-.225.146-.353.146s-.257-.049-.354-.147l-4.005-4.025c-.09-.09-.146-.215-.146-.353 0-.025.002-.049.005-.073l1.001-7.041c.04-.273.294-.463.565-.425.273.039.463.292.425.565l-.966 6.797 3.83 3.849z"/></svg>