<svg xmlns="http://www.w3.org/2000/svg" viewBox="0 0 20 24"><path fill="#5c6671" d="M10 0C4.368 0 0 5.645 0 10.5 0 15.121 4.223 24 10 24s10-8.879 10-13.5C20 5.645 15.632 0 10 0zm0 23c-4.794 0-9-7.791-9-12.5C1 6.107 4.932 1 10 1s9 5.107 9 9.5c0 4.709-4.206 12.5-9 12.5zM8.814 12.719c.127-.45.186-.837.186-1.219C9 9.019 6.981 7 4.5 7c-.382 0-.769.059-1.219.186-.167.047-.298.178-.346.346-.127.45-.186.837-.186 1.219 0 2.481 2.019 4.5 4.5 4.5.382 0 .769-.059 1.219-.186.167-.047.298-.178.346-.346zm-.893-.548c-.242.053-.46.079-.671.079-1.93 0-3.5-1.57-3.5-3.5 0-.21.025-.429.079-.671.242-.053.46-.079.671-.079C6.43 8 8 9.57 8 11.5c0 .21-.025.429-.079.671zm9.143-4.64a.5058.5058 0 0 0-.346-.346c-.45-.126-.837-.186-1.219-.186-2.481 0-4.5 2.019-4.5 4.5 0 .381.059.769.186 1.219.048.167.179.298.346.346.45.126.837.186 1.219.186 2.481 0 4.5-2.019 4.5-4.5 0-.381-.059-.769-.186-1.219zM12.75 12.25c-.211 0-.429-.025-.671-.079-.054-.243-.079-.461-.079-.671C12 9.57 13.57 8 15.5 8c.211 0 .429.025.671.079.054.243.079.461.079.671 0 1.93-1.57 3.5-3.5 3.5zm-2.803 5.026c.123.247.023.547-.224.671-.072.036-.148.053-.224.053-.183 0-.359-.101-.447-.276l-.5-1c-.123-.247-.023-.547.224-.671s.547-.024.671.224l.5 1zm1.5-.552l-.5 1c-.088.175-.265.276-.447.276-.075 0-.151-.017-.224-.053-.247-.124-.347-.424-.224-.671l.5-1c.124-.247.425-.346.671-.224.247.124.347.424.224.671z"/></svg>