<svg xmlns="http://www.w3.org/2000/svg" viewBox="0 0 24 24"><path fill="#5c6671" d="M22.331 11.155c-.485-.166-.962-.493-1.5-1.031l-3.806-3.807c-.851-.85-1.98-1.318-3.182-1.318H13v-1.5c0-.276-.224-.5-.5-.5H2c-1.103 0-2 .897-2 2v12.5c0 .827.673 1.5 1.5 1.5h1.184c.414 1.161 1.514 2 2.816 2s2.402-.838 2.816-2h7.369c.414 1.161 1.514 2 2.816 2s2.402-.838 2.816-2h.684c1.103 0 2-.897 2-2v-3.496c0-1.064-.671-2.008-1.669-2.349zM5.5 20c-1.103 0-2-.897-2-2s.897-2 2-2 2 .897 2 2-.897 2-2 2zm13 0c-1.103 0-2-.897-2-2s.897-2 2-2 2 .897 2 2-.897 2-2 2zm4.5-3c0 .551-.449 1-1 1h-.5c0-1.654-1.346-3-3-3s-3 1.346-3 3h-7c0-1.654-1.346-3-3-3s-3 1.346-3 3h-1c-.276 0-.5-.224-.5-.5V5c0-.551.449-1 1-1h10v1.5c0 .276.224.5.5.5h1.343c.935 0 1.814.364 2.475 1.025l3.806 3.807c.649.649 1.248 1.053 1.883 1.27.593.203.992.767.992 1.403v3.496zm-4-5.5c0 .276-.224.5-.5.5h-6c-.276 0-.5-.224-.5-.5v-4c0-.276.224-.5.5-.5s.5.224.5.5V11h5.5c.276 0 .5.224.5.5zM10.5 8H8V5.5c0-.276-.224-.5-.5-.5h-2c-.276 0-.5.224-.5.5V8H2.5c-.276 0-.5.224-.5.5v2c0 .276.224.5.5.5H5v2.5c0 .276.224.5.5.5h2c.276 0 .5-.224.5-.5V11h2.5c.276 0 .5-.224.5-.5v-2c0-.276-.224-.5-.5-.5zm-.5 2H7.5c-.276 0-.5.224-.5.5V13H6v-2.5c0-.276-.224-.5-.5-.5H3V9h2.5c.276 0 .5-.224.5-.5V6h1v2.5c0 .276.224.5.5.5H10v1z"/></svg>