<svg xmlns="http://www.w3.org/2000/svg" viewBox="0 0 24 24"><path fill="#5c6671" d="M12 2.004c-.552 0-1 .448-1 1s.448.999 1 .999 1-.448 1-.999c0-.552-.448-1-1-1zm0 1zm11.466 8.317a.50385.50385 0 0 0-.322-.299c-.147-.043-.308-.017-.435.072C19 13.744 19 14.255 19 14.501c0 .372.205.623.498.78-.999.901-3.083 2.497-5.498 2.698V10h1v.5c0 .19.106.354.261.439.166.089.362.079.516-.023l3-1.999c.139-.093.223-.249.223-.416s-.084-.323-.223-.416l-3-2c-.154-.103-.351-.112-.514-.024-.158.086-.264.251-.264.44v.5h-1V5.262c.655-.568 1.039-1.396 1.039-2.262 0-1.655-1.347-3.002-3.002-3.002S9.034 1.345 9.034 3c0 .836.349 1.621.965 2.19v1.811h-1v-.5c0-.19-.106-.354-.261-.439-.166-.089-.362-.079-.516.023l-3 2c-.139.093-.223.249-.223.416s.084.323.223.416l3 1.999c.154.103.351.112.514.024.158-.086.264-.251.264-.44V10h1v7.979c-2.415-.201-4.499-1.797-5.498-2.698.293-.157.498-.408.498-.78 0-.246 0-.757-3.709-3.407-.126-.089-.287-.115-.435-.072-.147.045-.267.155-.322.299C.512 11.378 0 12.714 0 14.002c0 .901.098 2.999 1 2.999.18 0 .433-.089.757-.266.393.859 1.318 2.442 3.053 3.229 1.956.886 6.026 2.729 6.779 3.82.093.135.247.216.411.216s.318-.081.411-.216c.753-1.091 4.823-2.935 6.795-3.828 1.723-.779 2.646-2.361 3.038-3.221.323.177.576.266.756.266.902 0 1-2.098 1-2.999 0-1.288-.512-2.624-.534-2.681zm-.678 4.57c-.151-.08-.341-.192-.511-.306-.13-.088-.296-.106-.443-.056s-.264.171-.311.32c-.008.023-.748 2.298-2.745 3.203-2.787 1.262-5.569 2.576-6.778 3.701-1.209-1.125-3.993-2.44-6.794-3.708-1.971-.893-2.723-3.174-2.729-3.197-.048-.148-.163-.268-.312-.319-.054-.019-.11-.028-.166-.028-.103 0-.199.031-.278.085-.171.114-.363.228-.508.307-.1-.368-.213-1.079-.213-1.892 0-.602.139-1.236.265-1.69 1.106.815 2.22 1.707 2.621 2.141-.113.027-.261.048-.387.049-.197.001-.375.117-.455.297s-.048.39.083.536c.134.149 3.32 3.667 7.373 3.667.276 0 .5-.224.5-.5V9.502c0-.276-.224-.5-.5-.5h-2c-.276 0-.5.224-.5.5v.066L6.401 8.503 8 7.438v.065c0 .276.224.5.5.5h2c.276 0 .5-.224.5-.5V4.962c0-.153-.07-.299-.191-.394-.491-.386-.773-.957-.773-1.566 0-1.104.898-2.002 2.002-2.002s2.002.898 2.002 2.002c0 .644-.304 1.232-.833 1.617-.129.094-.206.244-.206.404v2.479c0 .276.224.5.5.5h2c.276 0 .5-.224.5-.5v-.065L17.6 8.502l-1.599 1.065v-.066c0-.276-.224-.5-.5-.5h-2c-.276 0-.5.224-.5.5V18.5c0 .276.224.5.5.5 4.053 0 7.239-3.518 7.373-3.667.131-.146.163-.356.083-.536s-.258-.296-.455-.297c-.126-.001-.273-.021-.387-.049.401-.434 1.515-1.325 2.621-2.141.126.452.265 1.087.265 1.69 0 .811-.112 1.52-.212 1.889z"/></svg>