<svg xmlns="http://www.w3.org/2000/svg" viewBox="0 0 24 24"><path fill="#5c6671" d="M19 0c-2.919 0-4.949 1.92-6.741 3.613C10.904 4.894 9.735 6 8.5 6H3.75C1.683 6 0 8.243 0 11c0 2.568 1.465 4.665 3.336 4.944l1.418 6.483C4.953 23.339 5.775 24 6.707 24h1.872c.62 0 1.194-.28 1.575-.769.383-.489.516-1.114.365-1.717l-1.35-5.399c.997.304 1.982 1.224 3.089 2.271 1.792 1.693 3.822 3.613 6.741 3.613 2.804 0 5-4.832 5-11s-2.196-11-5-11zM9.367 22.616c-.191.244-.479.384-.788.384H6.707c-.466 0-.877-.331-.977-.786L4.371 16h3.738l1.439 5.757c.075.301.009.614-.182.859zm-.787-7.608c-.004-.001-.009-.001-.013-.001-.023 0-.044-.007-.067-.007H3.75C2.233 15 1 13.206 1 11s1.233-4 2.75-4H8.5c1.633 0 2.999-1.292 4.446-2.66 1.048-.99 2.12-1.995 3.357-2.641-1.393 1.932-2.304 5.337-2.304 9.302s.91 7.37 2.304 9.302c-1.237-.646-2.31-1.651-3.357-2.641-1.423-1.345-2.769-2.61-4.366-2.652zM19 21c-1.932 0-4-4.019-4-10s2.068-10 4-10 4 4.019 4 10-2.068 10-4 10zm1-10c0 1.654-1.346 3-3 3-.276 0-.5-.224-.5-.5s.224-.5.5-.5c1.103 0 2-.897 2-2s-.897-2-2-2c-.276 0-.5-.224-.5-.5s.224-.5.5-.5c1.654 0 3 1.346 3 3z"/></svg>