<svg xmlns="http://www.w3.org/2000/svg" viewBox="0 0 20 24"><path fill="#5c6671" d="M19.603 2.011l-9.5-2c-.066-.015-.139-.015-.205 0l-9.5 2c-.231.049-.397.253-.397.489v2c0 .151.068.293.185.388.117.096.272.134.418.101l.397-.084v17.094c0 1.103.897 2 2 2h14c1.103 0 2-.897 2-2V4.905l.397.084c.031.007.066.011.102.011h.001c.113 0 .226-.039.315-.112.116-.095.185-.237.185-.388v-2c0-.236-.166-.44-.397-.489zM5 23v-5h3v5H5zm13-1c0 .551-.448 1-1 1H9v-5.5c0-.276-.224-.5-.5-.5h-4c-.276 0-.5.224-.5.5V23H3c-.552 0-1-.449-1-1V4.695l8-1.684 8 1.684V22zm1-18.116l-8.897-1.873C10.07 2.004 10.035 2 10 2s-.069.003-.103.011L1 3.884v-.978l9-1.895 9 1.895v.978zM8.5 5h-4c-.276 0-.5.224-.5.5v4c0 .276.224.5.5.5h4c.276 0 .5-.224.5-.5v-4c0-.276-.224-.5-.5-.5zM8 9H5V6h3v3zm3.5 1h4c.276 0 .5-.224.5-.5v-4c0-.276-.224-.5-.5-.5h-4c-.276 0-.5.224-.5.5v4c0 .276.224.5.5.5zm.5-4h3v3h-3V6zm-3.5 5h-4c-.276 0-.5.224-.5.5v4c0 .276.224.5.5.5h4c.276 0 .5-.224.5-.5v-4c0-.276-.224-.5-.5-.5zM8 15H5v-3h3v3zm3.5 1h4c.276 0 .5-.224.5-.5v-4c0-.276-.224-.5-.5-.5h-4c-.276 0-.5.224-.5.5v4c0 .276.224.5.5.5zm.5-4h3v3h-3v-3zm-.5 10h4c.276 0 .5-.224.5-.5v-4c0-.276-.224-.5-.5-.5h-4c-.276 0-.5.224-.5.5v4c0 .276.224.5.5.5zm.5-4h3v3h-3v-3z"/></svg>