<svg xmlns="http://www.w3.org/2000/svg" viewBox="0 0 24 24"><path fill="#5c6671" d="M22.291 18.139C23.368 16.34 24 14.245 24 12c0-2.055-.521-3.99-1.435-5.682-.004-.011-.01-.02-.015-.03C20.575 2.655 16.776.164 12.393.021c-.05-.011-.098-.012-.147-.007-.083-.002-.163-.012-.246-.012-4.289 0-8.049 2.269-10.171 5.663-.055.058-.098.123-.12.198C.632 7.662.001 9.757.001 12.002c0 2.055.521 3.99 1.435 5.682.004.011.01.02.015.03 1.981 3.645 5.8 6.142 10.202 6.27.021.003.04.016.06.016.015 0 .027-.01.042-.011.083.002.163.012.246.012 4.289 0 8.049-2.269 10.171-5.663.055-.058.098-.123.12-.198zm-.492-1.167L17.196 9c-.007-.012-.018-.018-.026-.029-.464-.789-1.1-1.465-1.861-1.971h6.476c.771 1.502 1.214 3.199 1.214 5 0 1.79-.439 3.477-1.201 4.972zM12 17c-2.757 0-5-2.243-5-5s2.243-5 5-5 5 2.243 5 5-2.243 5-5 5zm9.208-11H12c-.963 0-1.871.234-2.678.639l3.239-5.61c3.618.184 6.778 2.113 8.647 4.972zm-9.803-4.97L6.804 9c-.005.009-.005.02-.01.03-.446.778-.719 1.664-.775 2.61L2.778 6.026c1.861-2.863 5.014-4.8 8.628-4.995zM2.201 7.028L6.804 15c.005.009.015.012.02.02.465.793 1.102 1.473 1.866 1.98H2.214C1.443 15.498 1 13.801 1 12c0-1.79.439-3.477 1.201-4.972zM2.792 18H12c.963 0 1.871-.234 2.678-.639l-3.239 5.61c-3.618-.184-6.778-2.113-8.647-4.972zm9.803 4.97L17.196 15c.005-.009.005-.02.01-.03.446-.778.719-1.664.775-2.61l3.241 5.614c-1.861 2.863-5.014 4.8-8.628 4.995z"/></svg>