<svg xmlns="http://www.w3.org/2000/svg" viewBox="0 0 24 24"><path fill="#5c6671" d="M17 5c-1.694 0-3.301.61-4.573 1.712-.615-1.495-.748-4.207 1.375-5.813.22-.167.264-.48.097-.701-.165-.22-.481-.263-.7-.097-2.294 1.736-2.432 4.516-1.914 6.368C10.062 5.519 8.567 5 7.001 5c-3.859 0-7 3.14-7 7 0 4.184 2.199 12 7.499 12 .662 0 1.354-.14 2.056-.416.155-.06.266-.108.375-.159 1.301-.594 2.839-.592 4.179.016.071.035.182.083.294.128.745.291 1.436.431 2.098.431 5.3 0 7.499-7.816 7.499-12 0-3.86-3.141-7-7-7zm-.499 18c-.536 0-1.104-.117-1.69-.347-.092-.036-.188-.077-.287-.123-.741-.345-1.608-.546-2.523-.546H12c-.915 0-1.783.202-2.562.563-.061.029-.157.07-.248.106-.586.23-1.154.347-1.69.347-4.536 0-6.499-7.284-6.499-11 0-3.309 2.691-6 6-6 1.56 0 3.038.597 4.163 1.681.439.421 1.233.422 1.675-.001C13.963 6.597 15.442 6 17.001 6c3.309 0 6 2.691 6 6 0 3.716-1.963 11-6.499 11zM10.5 5c.276 0 .5-.224.5-.5C11 2.019 8.981 0 6.5 0c-.276 0-.5.224-.5.5C6 2.981 8.019 5 10.5 5zm-.542-1.042c-1.497-.233-2.683-1.419-2.916-2.916 1.497.233 2.683 1.419 2.916 2.916z"/></svg>