<svg xmlns="http://www.w3.org/2000/svg" viewBox="0 0 22 24"><path fill="#5c6671" d="M20.234 12c.773-1.022 1.328-2.05 1.591-3.029.301-1.124.205-2.152-.277-2.974-.934-1.593-3.15-2.201-5.931-1.88C14.509 1.585 12.866 0 10.998 0S7.487 1.585 6.379 4.117c-2.781-.321-4.997.287-5.931 1.88-.482.821-.578 1.85-.276 2.974.262.98.818 2.008 1.591 3.029C.99 13.022.435 14.05.172 15.029c-.301 1.124-.206 2.152.276 2.974.775 1.321 2.427 1.969 4.555 1.969.437 0 .901-.037 1.374-.092C7.485 22.414 9.129 24 10.997 24s3.512-1.586 4.62-4.12c.474.055.937.092 1.375.092 2.127 0 3.78-.648 4.555-1.969.482-.821.578-1.85.277-2.974-.262-.98-.818-2.008-1.591-3.029zm-3.191-6.964c1.734 0 3.063.478 3.643 1.467.348.594.407 1.337.173 2.209-.212.791-.669 1.635-1.288 2.486-.764-.872-1.669-1.729-2.719-2.536-.184-1.298-.472-2.5-.849-3.57.359-.035.709-.056 1.04-.056zm-3.497 11.293c-.847.481-1.701.891-2.547 1.243-.846-.352-1.701-.762-2.547-1.243-.84-.478-1.626-1.001-2.363-1.548-.112-.893-.178-1.823-.178-2.781s.066-1.888.178-2.781c.736-.546 1.522-1.07 2.363-1.548.847-.481 1.701-.892 2.547-1.244.846.352 1.701.762 2.547 1.244.84.478 1.626 1.001 2.363 1.548.112.893.178 1.823.178 2.781s-.066 1.888-.178 2.781c-.736.546-1.522 1.07-2.363 1.548zm2.145-.163c-.184.937-.428 1.809-.719 2.6-.841-.147-1.731-.375-2.647-.687.57-.269 1.142-.556 1.714-.881.576-.327 1.123-.675 1.652-1.032zm-6.02 1.913c-.916.312-1.805.539-2.647.686-.291-.791-.535-1.663-.719-2.6.529.358 1.076.705 1.652 1.032.573.325 1.144.612 1.714.881zm-4.68-4.171C4.26 13.287 3.614 12.647 3.059 12c.554-.647 1.201-1.287 1.932-1.908-.049.622-.081 1.255-.081 1.908s.032 1.286.081 1.908zm1.315-6.074c.184-.937.428-1.809.719-2.6.837.147 1.725.381 2.636.69-.566.268-1.135.554-1.704.878-.576.327-1.123.675-1.652 1.032zm6.03-1.909c.912-.31 1.799-.544 2.637-.69.291.791.536 1.663.719 2.6-.529-.357-1.076-.705-1.652-1.032-.569-.323-1.138-.61-1.704-.878zm4.67 4.167c.731.621 1.377 1.261 1.931 1.908-.554.647-1.201 1.287-1.931 1.908.049-.622.081-1.255.081-1.908s-.032-1.286-.081-1.908zM10.998 1c1.381 0 2.655 1.264 3.583 3.274-1.135.214-2.343.571-3.583 1.066-1.24-.495-2.447-.851-3.582-1.065.928-2.01 2.201-3.274 3.582-3.274zm-9.86 7.712c-.233-.872-.175-1.615.173-2.209.581-.989 1.908-1.467 3.643-1.467.332 0 .682.022 1.041.056-.377 1.07-.665 2.272-.849 3.57-1.05.806-1.954 1.664-2.719 2.536-.619-.851-1.077-1.695-1.289-2.487zm.173 8.785c-.348-.594-.406-1.337-.173-2.209.212-.791.67-1.635 1.289-2.487.764.872 1.669 1.729 2.719 2.536.184 1.299.473 2.502.85 3.573-2.239.217-3.993-.235-4.685-1.414zM10.998 23c-1.382 0-2.656-1.266-3.584-3.278 1.136-.214 2.343-.57 3.584-1.065 1.241.495 2.448.852 3.584 1.065C13.654 21.734 12.38 23 10.998 23zm9.688-5.503c-.692 1.179-2.446 1.631-4.684 1.414.377-1.071.666-2.274.85-3.573 1.05-.806 1.955-1.664 2.719-2.536.619.851 1.076 1.695 1.288 2.486.234.872.175 1.615-.173 2.209zM10.998 8c-2.236 0-4.056 1.794-4.056 4s1.819 4 4.056 4 4.056-1.794 4.056-4-1.82-4-4.056-4zm0 7c-1.685 0-3.056-1.346-3.056-3s1.371-3 3.056-3 3.056 1.346 3.056 3-1.371 3-3.056 3z"/></svg>