<svg xmlns="http://www.w3.org/2000/svg" viewBox="0 0 24 24"><path fill="#5c6671" d="M22 0H2C.897 0 0 .897 0 2v20c0 1.103.897 2 2 2h20c1.103 0 2-.897 2-2V2c0-1.103-.897-2-2-2zm1 22c0 .551-.448 1-1 1H2c-.552 0-1-.449-1-1V2c0-.551.448-1 1-1h20c.552 0 1 .449 1 1v20zM12.447 3.276c-.17-.339-.725-.339-.895 0l-8.5 17c-.077.155-.069.339.021.486s.253.237.426.237h3c.189 0 .362-.107.447-.276l1.361-2.724h7.383l1.361 2.724c.085.169.258.276.447.276h3c.173 0 .334-.09.426-.237s.099-.332.021-.486l-8.5-17zM17.809 20l-1.361-2.724c-.085-.169-.258-.276-.447-.276h-8c-.189 0-.362.107-.447.276L6.193 20H4.31l7.691-15.382L19.692 20h-1.883zM11.553 9.276l-2.5 5c-.077.155-.069.339.021.486s.253.237.426.237h5c.173 0 .334-.09.426-.237s.099-.332.021-.486l-2.5-5c-.17-.339-.725-.339-.895 0zM13.691 14h-3.383l1.691-3.382L13.69 14z"/></svg>