<svg xmlns="http://www.w3.org/2000/svg" viewBox="0 0 22 24"><path fill="#5c6671" d="M22 6.5c0-.179-.096-.345-.252-.434l-10.5-6c-.007-.004-.016-.002-.023-.006C11.157.025 11.082 0 11 0s-.157.025-.225.06c-.007.004-.016.002-.023.006l-10.5 6C.096 6.155 0 6.321 0 6.5v11c0 .006.004.01.004.016.002.073.016.147.053.216.002.003.006.005.007.008.031.057.081.098.132.14.019.015.031.039.052.052l.003.003 10.5 6c.077.044.163.066.248.066s.171-.022.248-.066l10.5-6 .003-.003c.021-.012.033-.036.052-.052.051-.041.101-.083.132-.14.002-.003.006-.005.007-.008.036-.069.051-.143.053-.216 0-.006.004-.01.004-.016v-11zm-1 10.174L12.077 12l2.672-1.4-.233.869c-.071.267.087.541.354.612.039.011.083.017.129.017H15c.221 0 .423-.147.482-.371l.549-2.049c.071-.267-.087-.541-.354-.612l-2.049-.549c-.264-.071-.541.087-.612.354s.087.541.354.612l.898.241-2.769 1.45V1.362l9.5 5.429v9.884zM10.5 1.361v9.812L7.748 9.731l.93-.249c.267-.071.425-.346.354-.612s-.344-.425-.612-.354l-2.049.549c-.267.071-.425.346-.354.612l.549 2.049c.06.223.262.371.482.371h.001c.046 0 .09-.006.133-.018.263-.07.421-.345.35-.611l-.225-.839 2.615 1.37-8.923 4.674V6.789l9.5-5.429zm.5 21.563l-9.459-5.405 8.959-4.693v2.967l-.646-.646c-.195-.195-.512-.195-.707 0s-.195.512 0 .707l1.499 1.499c.046.046.102.083.163.109s.126.038.191.038.13-.013.191-.038a.4766.4766 0 0 0 .163-.109l1.499-1.499c.195-.195.195-.512 0-.707s-.512-.195-.707 0l-.646.646v-2.967l8.959 4.693L11 22.924z"/></svg>