<svg xmlns="http://www.w3.org/2000/svg" viewBox="0 0 16 24"><path fill="#5c6671" d="M11 8H5c-1.103 0-2 .897-2 2v2c0 1.103.897 2 2 2h6c1.103 0 2-.897 2-2v-2c0-1.103-.897-2-2-2zm1 4c0 .551-.449 1-1 1H5c-.551 0-1-.449-1-1v-2c0-.551.449-1 1-1h6c.551 0 1 .449 1 1v2zm1.003-6.574C13.01 4.663 13.024 2.813 13 2c0-1.103-.897-2-2-2S9 .897 9 2v3H5c-2.757 0-5 2.243-5 5v12c0 1.103.897 2 2 2h12c1.103 0 2-.897 2-2V10c0-2.044-1.236-3.8-2.997-4.574zM10 2c0-.551.449-1 1-1s1 .449 1 1.015c.021.701.013 2.217.006 3.087C11.681 5.035 11.344 5 11 5h-1V2zm5 20c0 .551-.449 1-1 1H2c-.551 0-1-.449-1-1V10c0-2.206 1.794-4 4-4h6c2.206 0 4 1.794 4 4v12zm-8.5-5c-.276 0-.5-.224-.5-.5s.224-.5.5-.5h3c.276 0 .5.224.5.5s-.224.5-.5.5h-3zm4.5 1.5c0 .276-.224.5-.5.5h-5c-.276 0-.5-.224-.5-.5s.224-.5.5-.5h5c.276 0 .5.224.5.5zm-1 2c0 .276-.224.5-.5.5h-3c-.276 0-.5-.224-.5-.5s.224-.5.5-.5h3c.276 0 .5.224.5.5z"/></svg>