<svg xmlns="http://www.w3.org/2000/svg" viewBox="0 0 24 24"><path fill="#5c6671" d="M23.949 17.351c-.305-.867-1.85-.947-2.973-.878-.272-.781-.778-1.919-1.477-2.317V2.772C22.034 1.948 23.639 1 23.756.93c.237-.142.313-.449.172-.686s-.449-.315-.686-.172c-.049.029-4.968 2.929-11.243 2.929S.805.102.756.072C.519-.072.212.008.07.244S.005.787.242.93c.109.065 1.516.892 3.757 1.672v12.566c-.349.22-.661.621-.89.985-.675-.15-1.427-.2-1.792.166-.367.367-.315 1.118-.167 1.792-.53.334-1.151.842-1.151 1.39s.621 1.056 1.151 1.39c-.148.674-.2 1.425.167 1.792s1.118.315 1.792.166c.334.53.842 1.152 1.39 1.152s1.056-.622 1.39-1.152c.675.151 1.427.201 1.792-.166.367-.367.315-1.118.167-1.792.53-.334 1.151-.842 1.151-1.39s-.621-1.056-1.151-1.39c.148-.674.2-1.425-.167-1.792s-1.118-.315-1.792-.166c-.229-.363-.54-.765-.89-.985V2.926c1.435.436 3.13.812 5.002.979l.03 5.19c-1.708.53-2.998 2.147-2.998 3.872 0 2.206 1.794 4 4 4 1.904 0 3.554-1.355 3.922-3.222.006-.029.01-.063.01-.097 0-.138-.056-.263-.146-.353-.117-.118-.284-.168-.45-.137-.189.038-.385.06-.585.06-1.654 0-3-1.346-3-2.994.005-.045.06-.17.093-.245.043-.096.076-.199.108-.302.007-.016.012-.032.018-.049.006-.022.018-.041.023-.064.003-.014-.004-.028-.002-.042.002-.02.011-.037.011-.057l-.031-5.49c.329.015.66.027.997.027 2.44 0 4.661-.408 6.5-.926v11.08c-.698.398-1.204 1.536-1.477 2.317-1.119-.066-2.668.011-2.973.879-.3.856.839 1.972 1.726 2.682-.27.784-.627 2.235.178 2.777.771.521 2.24-.154 3.046-.602.6.332 1.565.79 2.338.79.267 0 .51-.055.708-.188.805-.542.447-1.993.178-2.777.887-.71 2.025-1.825 1.726-2.682zm-18.167-.142c.431-.12.947-.192 1.172-.163.027.218-.041.731-.163 1.171-.063.223.038.46.24.572.403.222.819.538.945.71-.126.172-.542.488-.945.71-.202.112-.303.349-.24.572.122.44.19.953.163 1.172-.218.028-.732-.042-1.172-.164-.218-.06-.46.038-.572.241-.222.403-.537.819-.71.945-.173-.125-.488-.542-.71-.945-.09-.163-.26-.259-.438-.259-.045 0-.09.006-.134.019-.432.12-.95.188-1.172.163-.027-.218.041-.731.163-1.171.063-.223-.038-.46-.24-.572-.403-.222-.819-.538-.945-.71.126-.172.542-.488.945-.71.202-.112.303-.349.24-.572-.122-.44-.19-.953-.163-1.172.217-.031.731.041 1.172.164.22.061.46-.038.572-.241.222-.403.537-.819.71-.945.173.125.488.541.71.945.112.204.354.304.572.241zm7.978-2.993c-.479 1.045-1.536 1.75-2.726 1.75-1.654 0-3-1.346-3-3 0-1.114.722-2.178 1.75-2.711.021 2.18 1.794 3.949 3.976 3.961zm7.566 5.247c-.181.136-.247.376-.163.586.355.885.466 1.781.324 1.931-.235.139-1.32-.239-2.232-.778-.158-.093-.354-.093-.51 0-.896.531-2.002.91-2.229.781-.145-.152-.034-1.048.321-1.933.084-.209.018-.45-.163-.586-.862-.65-1.676-1.528-1.693-1.754.133-.151.801-.246 1.559-.246.26 0 .529.011.792.035.254.028.455-.125.523-.351.317-1.031.869-2.064 1.146-2.145.275.081.827 1.114 1.146 2.145.069.226.282.379.523.351 1.032-.093 2.174.009 2.331.159.003.283-.796 1.144-1.674 1.806z"/></svg>