<svg xmlns="http://www.w3.org/2000/svg" viewBox="0 0 10 24"><path fill="#5c6671" d="M9 7.278V5.5c0-.276-.224-.5-.5-.5h-.039C8.322 4.049 7.792 3.191 7 2.636L6.999 2c0-1.103-.897-2-2-2s-2 .897-2 2v.636C2.207 3.191 1.676 4.049 1.538 5h-.039c-.276 0-.5.224-.5.5v1.778c-.595.347-1 .985-1 1.722v13c0 1.103.897 2 2 2h6c1.103 0 2-.897 2-2V9c0-.737-.405-1.375-1-1.722zM3.751 3.334c.017-.01.026-.026.042-.037.03-.022.058-.045.083-.073.02-.023.034-.047.049-.073.017-.029.032-.057.043-.089s.015-.065.02-.098c.003-.021.012-.039.012-.061v-.902c0-.551.448-1 1-1s1 .449 1 1l.001.902c0 .022.01.04.012.061.004.034.009.066.02.099s.026.06.043.088c.015.026.03.051.05.075.024.027.051.049.08.071.016.012.026.029.044.039.623.361 1.04.975 1.183 1.666H2.566c.143-.69.561-1.305 1.184-1.666zM2 6h6v1H2V6zm7 16c0 .551-.448 1-1 1H2c-.552 0-1-.449-1-1v-2h2.5c.276 0 .5-.224.5-.5s-.224-.5-.5-.5H1v-3h1.5c.276 0 .5-.224.5-.5s-.224-.5-.5-.5H1v-3h2.5c.276 0 .5-.224.5-.5s-.224-.5-.5-.5H1V9c0-.551.448-1 1-1h6c.552 0 1 .449 1 1v13z"/></svg>
