<svg xmlns="http://www.w3.org/2000/svg" viewBox="0 0 18 24"><path fill="#5c6671" d="M17.951 5c0-1.103-.895-2-1.996-2l-.996.001V2c0-1.269-1.182-2.268-2.498-1.936L1.473 3.086c-.018.005-.031.018-.048.024C.61 3.362.012 4.114.011 5.011l-.013 16.987c0 .534.207 1.037.584 1.415S1.46 24 1.994 24h13.96c1.089 0 2.044-.975 2.044-2.087L17.95 5.001zm-5.234-3.969c.622-.156 1.243.335 1.243.969v1.002l-8.438.008 7.196-1.979zM15.955 23H1.995c-.266 0-.516-.104-.704-.292S.999 22.267.999 22l.013-16.987c0-.551.447-.999.995-.999l13.949-.013c.549 0 .996.449.996 1.001L17 21.914c0 .558-.508 1.086-1.044 1.086zm-3.588-9.809c-1.902.379-3.464-1.019-3.464-2.902 0-.111.046-.311.084-.471l.049-.221c.032-.164-.02-.333-.137-.451s-.288-.17-.451-.136c-1.903.377-3.394 2.13-3.394 3.99 0 2.206 1.79 4 3.99 4 1.899 0 3.545-1.355 3.913-3.222.006-.029.009-.062.009-.097 0-.138-.056-.264-.147-.354-.119-.118-.288-.169-.451-.136zM9.043 16c-1.649 0-2.99-1.346-2.99-3 0-1.152.77-2.25 1.851-2.764 0 .018-.001.035-.001.053 0 2.213 1.692 3.948 3.858 3.961-.478 1.045-1.532 1.75-2.717 1.75z"/></svg>