<svg xmlns="http://www.w3.org/2000/svg" viewBox="0 0 24 24"><path fill="#5c6671" d="M12 5c-.552 0-1 .449-1 1s.448 1 1 1 1-.449 1-1-.448-1-1-1zm0 1zm-1.005 5.455C10.971 10.649 10.311 10 9.5 10h-2c-.812 0-1.471.649-1.495 1.455-.001.008-.002.015-.002.022s-.002.015-.002.022v3c0 .827.673 1.5 1.5 1.5h2c.827 0 1.5-.673 1.5-1.5v-3c0-.008-.002-.015-.002-.022s-.002-.015-.002-.022zM7.5 11h2c.176 0 .324.097.413.235l-1.413.706-1.413-.706c.089-.138.237-.235.413-.235zm2 4h-2c-.275 0-.5-.224-.5-.5v-2.191l1.276.638c.07.035.147.053.224.053s.153-.018.224-.053L10 12.309V14.5c0 .276-.225.5-.5.5zm8.495-3.545C17.971 10.649 17.311 10 16.5 10h-2c-.812 0-1.471.649-1.495 1.455-.001.008-.002.015-.002.022s-.002.015-.002.022v3c0 .827.673 1.5 1.5 1.5h2c.827 0 1.5-.673 1.5-1.5v-3c0-.008-.002-.015-.002-.022s-.002-.015-.002-.022zM14.5 11h2c.176 0 .324.097.413.235l-1.413.706-1.413-.706c.089-.138.237-.235.413-.235zm2 4h-2c-.275 0-.5-.224-.5-.5v-2.191l1.276.638c.07.035.147.053.224.053s.153-.018.224-.053L17 12.309V14.5c0 .276-.225.5-.5.5zM8 2.5c0-.276.224-.5.5-.5h7c.276 0 .5.224.5.5s-.224.5-.5.5h-7c-.276 0-.5-.224-.5-.5zm13 4.587V2c0-1.103-.897-2-2-2H5C3.897 0 3 .897 3 2v5.087c-1.229.294-3 1.259-3 3.413 0 .276.224.5.5.5H1v3.5c0 .827.673 1.5 1.5 1.5H3v1c0 .6.271 1.133.691 1.5-.42.367-.691.9-.691 1.5v2c0 1.103.897 2 2 2h14c1.103 0 2-.897 2-2v-2c0-.6-.271-1.133-.691-1.5.42-.367.691-.9.691-1.5v-1h.5c.827 0 1.5-.673 1.5-1.5V11h.5c.276 0 .5-.224.5-.5 0-2.154-1.771-3.119-3-3.413zM22.952 10H21V8.128c.667.201 1.715.693 1.952 1.872zM5 1h14c.552 0 1 .449 1 1v2.268C19.172 4.956 15.323 8 12 8 8.682 8 4.828 4.956 4 4.268V2c0-.551.448-1 1-1zM3 8.13V10H1.049C1.286 8.829 2.333 8.334 3 8.13zM2.5 15c-.275 0-.5-.224-.5-.5V11h1v4h-.5zM4 22v-2c0-.551.448-1 1-1h2v4H5c-.552 0-1-.449-1-1zm4 1v-4h1v4H8zm6-4v4h-4v-4h4zm1 4v-4h1v4h-1zm5-3v2c0 .551-.448 1-1 1h-2v-4h2c.552 0 1 .449 1 1zm-3.5-2H5c-.552 0-1-.449-1-1V5.549C5.523 6.72 8.886 9 12 9s6.477-2.28 8-3.451V17c0 .551-.448 1-1 1h-2.5zm5.5-3.5c0 .276-.225.5-.5.5H21v-4h1v3.5z"/></svg>