<svg xmlns="http://www.w3.org/2000/svg" viewBox="0 0 24 24"><path fill="#5c6671" d="M23.731 16.906l-2.455-9.411C21.046 6.615 20.25 6 19.34 6h-1.064c-.924-1.794-2.78-3-4.875-3h-2.803C8.503 3 6.647 4.206 5.723 6H4.659c-.909 0-1.705.615-1.936 1.495L.267 16.906c-.178.685-.268 1.389-.268 2.094 0 1.103.897 2 2 2h20c1.103 0 2-.897 2-2 0-.705-.09-1.409-.269-2.094zM10.599 4h2.803c1.532 0 2.91.79 3.727 2.005-.515.012-.99.207-1.34.558C15.255 7.1 14.053 8 12.001 8s-3.254-.9-3.789-1.437c-.35-.351-.825-.545-1.339-.558C7.69 4.79 9.068 4 10.6 4zM3.69 7.748c.115-.44.514-.748.969-.748h.67c-.04.141-.094.276-.124.421l-.196.98c-.055.271.121.534.392.588.266.056.534-.121.589-.392l.196-.98c.043-.214.11-.417.181-.618h.454c.267 0 .509.095.682.268.644.647 2.084 1.732 4.497 1.732s3.854-1.085 4.496-1.731c.174-.173.416-.269.683-.269h.454c.071.201.138.404.181.618l.196.98c.048.238.256.402.489.402.033 0 .066-.003.1-.01.271-.054.446-.317.392-.588l-.196-.98c-.029-.146-.083-.28-.124-.421h.67c.455 0 .854.308.969.748L21.158 11H2.842l.848-3.252zM22 20H2c-.552 0-1-.449-1-1 0-.62.079-1.24.235-1.842L2.581 12h18.837l1.345 5.158c.157.602.236 1.222.236 1.842 0 .551-.448 1-1 1z"/></svg>