<svg xmlns="http://www.w3.org/2000/svg" viewBox="0 0 24 24"><path fill="#5c6671" d="M23.995 13.552c0-.018.005-.034.005-.052 0-.049-.015-.093-.028-.137-.004-.013 0-.026-.005-.038l-.007-.018-2.694-7.186c.139-.172.234-.381.234-.619 0-.483-.35-.867-.805-.961-.069-.087-.141-.162-.211-.215-.808-.622-2.293-.225-3.863.192-1.088.29-2.577.689-2.997.366-.03-.023-.124-.096-.124-.383 0-.045-.23-4.5-1.5-4.5s-1.5 4.455-1.5 4.5c0 .287-.094.359-.124.383-.417.323-1.909-.075-2.997-.366-1.569-.417-3.055-.814-3.863-.192-.07.053-.142.129-.211.215-.455.094-.805.478-.805.961 0 .238.095.447.234.619L.033 13.326c-.005.012-.001.026-.005.038-.013.045-.028.089-.028.137 0 .018.005.034.005.052.001.006.001.011.002.017.038 1.897 1.587 3.431 3.493 3.431s3.455-1.534 3.493-3.431c.001-.006.001-.011.002-.017 0-.018.005-.034.005-.052 0-.049-.015-.093-.028-.137-.004-.013 0-.026-.005-.038l-.007-.018-2.694-7.186c.139-.172.234-.381.234-.619 0-.175-.057-.332-.137-.475.594-.118 1.822.209 2.758.459 1.294.345 2.524.666 3.371.422-.03 2.837-.148 5.126-.312 6.971C9.449 12.321 9 11.451 9 10.503c0-.276-.224-.5-.5-.5s-.5.224-.5.5c0 1.466.805 2.794 2.071 3.494-.497 4.555-1.265 5.908-1.408 6.126l-2.42 1.452c-.151.09-.243.253-.243.429 0 1.103.897 2 2 2h8c1.103 0 2-.897 2-2 0-.176-.092-.339-.243-.429l-2.415-1.449c-.16-.245-.92-1.617-1.413-6.129 1.266-.7 2.071-2.027 2.071-3.493 0-.276-.224-.5-.5-.5s-.5.224-.5.5c0 .947-.449 1.817-1.18 2.376-.164-1.845-.282-4.134-.312-6.971.847.243 2.077-.078 3.371-.422.935-.25 2.164-.578 2.758-.459-.08.144-.137.3-.137.476 0 .238.095.447.234.619l-2.702 7.205c-.005.012-.001.026-.005.038-.013.045-.028.089-.028.137 0 .018.005.034.005.052.001.006.001.011.002.017.038 1.897 1.587 3.431 3.493 3.431s3.455-1.534 3.493-3.431c.001-.006.001-.011.002-.017zM3.5 16c-1.208 0-2.217-.86-2.449-2H5.95c-.232 1.14-1.242 2-2.449 2zm-2.278-3L3.5 6.924 5.778 13H1.221zM12 1.457c.255.895.5 2.564.5 3.043 0 10.008 1.021 13.988 1.659 15.5H9.841c.638-1.512 1.659-5.492 1.659-15.5 0-.479.245-2.147.5-3.043zM16 23H8c-.461 0-.85-.313-.965-.738L9.139 21h5.723l2.104 1.262c-.115.425-.504.738-.965.738zm4.5-16.076L22.778 13h-4.557l2.278-6.076zm0 9.076c-1.208 0-2.217-.86-2.449-2h4.899c-.232 1.14-1.242 2-2.449 2z"/></svg>