<svg xmlns="http://www.w3.org/2000/svg" viewBox="0 0 24 24"><path fill="#5c6671" d="M9 5c0-1.654 1.346-3 3-3 .276 0 .5.224.5.5s-.224.5-.5.5c-1.103 0-2 .897-2 2 0 .276-.224.5-.5.5S9 5.276 9 5zm-4.921.646c-1.574.508-2.441 2.202-1.933 3.776.068.212.265.347.476.347.055 0 .108-.009.157-.025.26-.084.404-.366.319-.628-.339-1.05.239-2.18 1.289-2.518.263-.085.407-.367.322-.63-.084-.262-.364-.407-.63-.322zm15.842 0c-.264-.085-.545.06-.63.322-.084.263.06.545.322.63 1.049.338 1.627 1.468 1.289 2.518-.084.263.06.544.323.629.046.015.099.024.153.024.211 0 .408-.135.476-.347.508-1.574-.359-3.269-1.933-3.776zM24 8.5c0 .52-.082 1.037-.243 1.537-.417 1.292-1.498 2.873-2.753 4.027-.926.852-1.847 1.388-2.705 1.597.193.346.252.737.145 1.068-.061.189-.204.635-.76.667-.022.001-.044.002-.067.002-.206 0-.473-.055-.932-.191-.282.535-.797 1.03-1.377 1.581-1.155 1.1-2.593 2.467-2.81 4.76-.001.011-.007.02-.009.031-.005.031-.015.059-.025.088-.011.031-.022.061-.039.089-.015.025-.033.046-.051.067-.022.026-.045.049-.072.07-.022.017-.045.031-.071.044-.032.017-.064.029-.099.039-.015.004-.027.014-.043.017-.029.005-.058.008-.087.008H11.982c-.017-.001-.032-.009-.049-.011-.042-.006-.083-.013-.121-.028-.022-.009-.041-.023-.061-.035-.031-.018-.061-.036-.087-.061-.018-.017-.032-.037-.048-.056-.021-.027-.041-.054-.057-.085-.012-.024-.02-.049-.028-.075-.006-.02-.018-.037-.022-.058-.017-.096-.05-.286-.092-.542-.257-.849-1.11-1.756-1.946-2.639-.951-1.004-1.923-2.039-2.245-3.176-.404.117-.65.165-.842.165-.023 0-.045 0-.067-.002-.556-.032-.699-.478-.76-.667-.107-.33-.047-.721.146-1.067-.858-.209-1.78-.746-2.705-1.597C1.743 12.912.662 11.332.245 10.04.083 9.541.002 9.023.002 8.502c0-2.176 1.393-4.088 3.465-4.757 1.209-.391 2.496-.292 3.638.248C7.573 1.718 9.591.002 12.002.002c2.402 0 4.399 1.702 4.867 3.992 1.154-.547 2.446-.645 3.668-.249 2.072.669 3.465 2.581 3.465 4.757zM8.019 4.812c0 .002.001.003.001.005 0 .017-.012.126-.015.142L8 5.001c0 .168.012.351.033.544.002.017.005.034.007.051.028.236.06.433.1.628-.007-.042-.006-.035-.004-.029.043.214.096.435.159.661 0 .002.001.003.001.005.118.422.273.858.455 1.289.056.13.115.259.176.387.026.055.052.109.079.163.075.151.153.301.234.446.001.002.002.004.004.006.172.304.358.59.553.854.02.027.039.056.059.082.641.841 1.389 1.414 2.144 1.414.767 0 1.45-.583 1.921-1.128-.003-.037-.001-.074-.003-.111-.014-.211-.022-.457-.022-.706 0-.062-.001-.122-.001-.183.004-.271.017-.536.04-.795.005-.051.012-.098.017-.148.022-.209.051-.411.085-.607.012-.067.024-.134.037-.199.046-.225.098-.441.161-.64.002-.006.003-.013.005-.018.09-.278.21-.541.345-.795.058-.111.126-.213.192-.319.078-.122.159-.242.247-.357.105-.139.215-.273.334-.4.038-.039.079-.075.118-.114.154-.153.305-.307.479-.44-.23-2.006-1.917-3.54-3.957-3.54-2.141 0-3.88 1.695-3.981 3.812zM12 12.5c-.702 0-.959.31-.995.463.178.024.511.037.995.037.466 0 .792-.011.975-.034-.075-.218-.346-.466-.975-.466zm-8.327.829c1.244 1.144 2.458 1.639 3.325 1.358h.001c1.242-.402 1.866-2.294 2.048-4-.222-.292-.428-.62-.624-.963l-.012-.021c-.622-1.091-1.092-2.375-1.295-3.542-.005-.019-.017-.088-.028-.158-.023-.163-.04-.279-.051-.393-.016-.151-.025-.294-.029-.434C7.007 5.138 7 5.096 7 5.058c-.626-.366-1.322-.554-2.022-.554-.405 0-.811.063-1.206.19C2.114 5.23 1 6.759 1 8.5c0 .417.065.831.194 1.23.362 1.122 1.358 2.568 2.479 3.599zm2.828 3.056c.177-.032.498-.123.958-.271.443-.143.75-.254.917-.332-.139-.185-.473-.338-1.071-.144-.43.139-.628.336-.719.478-.074.115-.089.213-.085.269zm4.598 4.317c-.237-2.16-.382-4.988.162-6.714C10.465 13.951 10 13.782 10 13c0-.344.162-.695.465-.973-.187-.117-.367-.258-.542-.411-.238 1.319-.694 2.375-1.311 3.095.379.171.644.458.751.788.27.837-.252 1.117-1.188 1.433.244.91 1.145 1.863 2.022 2.789.306.323.615.65.903.981zm4.61-3.811c-.859-.3-1.329-.591-1.072-1.391.106-.328.368-.613.742-.784-.573-.671-1.007-1.643-1.26-2.874-.015-.074-.025-.151-.039-.225-.181.156-.364.29-.55.405.306.279.47.632.47.978 0 .911-.63.991-1.683.999-.636 1.465-.443 4.73-.151 7.172.654-1.352 1.643-2.337 2.453-3.107.456-.434.86-.824 1.09-1.173zm1.78-.507c.007-.086-.013-.17-.075-.268-.091-.141-.289-.339-.719-.478-.667-.215-1.008.001-1.09.135.162.078.476.192.936.341.452.146.769.236.948.269zM23 8.5c0-1.741-1.114-3.27-2.772-3.806-.407-.131-.82-.194-1.226-.194-.798 0-1.566.248-2.216.68-.01.008-.014.021-.025.029-.755.512-1.298 1.225-1.568 2.063-.06.187-.109.398-.152.619-.003.006-.012.055-.02.105-.082.49-.122.991-.125 1.513 0 .064 0 .128.001.193.004.261.013.525.036.789.034.391.089.779.165 1.151.34 1.654 1.033 2.764 1.902 3.046h.001c.867.28 2.081-.214 3.325-1.358 1.121-1.031 2.117-2.477 2.479-3.599.129-.401.194-.814.194-1.23z"/></svg>