<svg xmlns="http://www.w3.org/2000/svg" viewBox="0 0 14 24"><path fill="#5c6671" d="M14 7c0-3.86-3.14-7-7-7S0 3.14 0 7c0 3.373 2.291 8.268 5.367 9.627-.238.26-.367.569-.367.873 0 .8.488.958 1.321.99-.213 1.07.107 2.309.382 3.346.173.654.337 1.272.301 1.611-.029.274.169.521.444.55.016.002.035.003.054.003.252 0 .469-.19.497-.447.056-.523-.122-1.195-.328-1.974-.266-1.003-.585-2.224-.325-3.081 1.038-.008 1.656-.095 1.656-.998 0-.304-.13-.613-.367-.873 3.076-1.359 5.367-6.254 5.367-9.627zM7.975 17.466c-.183.022-.509.034-.975.034-.484 0-.817-.012-.995-.037C6.042 17.31 6.298 17 7 17c.628 0 .9.249.975.466zM7 16c-3.196 0-6-5.609-6-9 0-3.309 2.691-6 6-6s6 2.691 6 6c0 3.391-2.804 9-6 9zm.5-13.5c0 .276-.224.5-.5.5-2.206 0-4 1.794-4 4 0 .276-.224.5-.5.5S2 7.276 2 7c0-2.757 2.243-5 5-5 .276 0 .5.224.5.5z"/></svg>