<svg xmlns="http://www.w3.org/2000/svg" viewBox="0 0 24 24"><path fill="#5c6671" d="M22 7H2C.897 7 0 7.897 0 9v6c0 1.103.897 2 2 2h20c1.103 0 2-.897 2-2V9c0-1.103-.897-2-2-2zm-6 1v8H8V8h8zM1 15V9c0-.551.449-1 1-1h5v8H2c-.551 0-1-.449-1-1zm22 0c0 .551-.449 1-1 1h-5V8h5c.551 0 1 .449 1 1v6zm-13-4c.551 0 1-.449 1-1s-.449-1-1-1-1 .449-1 1 .449 1 1 1zm.5-1H10v-.001l.5.001zm3.5 1c.551 0 1-.449 1-1s-.449-1-1-1-1 .449-1 1 .449 1 1 1zm.5-1H14v-.001l.5.001zM10 13c-.551 0-1 .449-1 1s.449 1 1 1 1-.449 1-1-.449-1-1-1zm0 1v-.001l.5.001H10zm4-1c-.551 0-1 .449-1 1s.449 1 1 1 1-.449 1-1-.449-1-1-1zm0 1v-.001l.5.001h-.499zm-2-1c.551 0 1-.449 1-1s-.449-1-1-1-1 .449-1 1 .449 1 1 1zm.5-1h-.499v-.001l.5.001z"/></svg>