<svg xmlns="http://www.w3.org/2000/svg" viewBox="0 0 18 24"><path fill="#5c6671" d="M11.758 16.4C14.089 15.069 18 12.273 18 8.5 18 3.664 16.011.375 15.926.238A.49959.49959 0 0 0 15.5 0h-13c-.174 0-.335.09-.426.238C1.989.376 0 3.664 0 8.5c0 3.772 3.911 6.569 6.242 7.9.468.267.758.767.758 1.303v2.561c0 .571-.318 1.085-.829 1.341l-2.895 1.447c-.208.104-.316.336-.263.562s.255.385.487.385h11c.232 0 .434-.16.487-.385s-.056-.459-.263-.562l-2.895-1.447c-.511-.256-.829-.77-.829-1.341v-2.561c0-.537.291-1.036.758-1.303zm-.376 6.1l1 .5H5.618l1-.5C7.471 22.073 8 21.217 8 20.264v-2.561c0-.895-.484-1.727-1.262-2.171C5.013 14.547 1 11.889 1 8.5 1 4.671 2.357 1.818 2.793 1h12.415C15.645 1.815 17 4.658 17 8.5c0 3.389-4.013 6.046-5.738 7.032-.778.444-1.262 1.277-1.262 2.171v2.561c0 .953.529 1.809 1.382 2.236zM16 8.483c0-.271-.216-.493-.487-.5-3.031-.08-4.659-.511-6.382-.967-1.679-.444-3.416-.904-6.481-.997-.258.015-.477.181-.511.434C2.047 7.144 2 7.832 2 8.5c0 2.864 3.66 5.264 5.25 6.173.546.315 1.144.474 1.745.474.605 0 1.213-.161 1.771-.484 1.574-.899 5.233-3.299 5.233-6.18zm-8.271 5.312c-2.287-1.306-4.73-3.383-4.73-5.295 0-.479.026-.969.077-1.464 2.664.117 4.188.521 5.798.947 1.604.425 3.261.863 6.079.982-.346 1.777-2.583 3.63-4.705 4.843-.783.453-1.717.452-2.52-.012z"/></svg>