<svg xmlns="http://www.w3.org/2000/svg" viewBox="0 0 24 24"><path fill="#5c6671" d="M12.182.009c-.002 0-.003-.001-.005-.001h-.008-.001c-.057-.001-.112-.009-.169-.009-6.617 0-12 5.383-12 12 0 6.555 5.285 11.892 11.818 11.991.002 0 .003.001.005.001H11.831c.057.001.112.009.169.009 6.617 0 12-5.383 12-12C24 5.445 18.715.108 12.182.009zm-.521 1.008c-.028.964-.167 1.908-.433 2.81l-.465-.161c-.256-.088-.545.048-.636.309s.048.546.31.636l.464.161c-.283.711-.642 1.391-1.072 2.032l-.394-.291c-.22-.163-.535-.116-.699.105s-.117.535.105.699l.394.291c-.24.296-.496.582-.77.855s-.56.53-.856.771l-.291-.394c-.163-.222-.479-.269-.699-.105-.223.164-.27.477-.105.699l.292.395c-.64.431-1.319.792-2.03 1.076l-.163-.47c-.09-.26-.375-.399-.636-.309s-.399.375-.31.636l.163.472c-.902.266-1.847.404-2.813.428.177-5.795 4.849-10.467 10.644-10.645zM1.034 12.663c1.072-.03 2.12-.188 3.122-.488l.165.478c.071.207.266.336.473.336.058 0 .114-.01.167-.028.258-.089.396-.374.306-.635l-.167-.484c.806-.317 1.577-.719 2.3-1.208l.303.41c.098.133.249.203.402.203.104 0 .208-.032.297-.098.223-.164.27-.477.105-.699l-.305-.413c.336-.271.661-.557.971-.866s.596-.634.866-.969l.412.304c.089.066.193.098.297.098.153 0 .305-.07.402-.203.164-.222.117-.535-.105-.699l-.412-.304c.49-.723.896-1.492 1.213-2.298l.481.167c.048.017.104.027.163.027.207 0 .401-.13.473-.336.09-.261-.048-.546-.31-.636l-.48-.166c.3-1.001.457-2.049.487-3.121 5.538.331 9.975 4.767 10.307 10.305-1.076.026-2.124.181-3.124.48l-.163-.472c-.09-.26-.376-.398-.636-.309-.262.09-.399.375-.31.636l.164.473c-.806.319-1.575.726-2.297 1.218l-.302-.409c-.163-.223-.479-.27-.699-.105-.223.164-.27.477-.105.699l.303.411c-.335.271-.66.558-.969.868s-.596.634-.866.969l-.412-.304c-.22-.163-.535-.117-.699.105s-.117.535.105.699l.412.304c-.49.723-.896 1.492-1.213 2.298l-.482-.167c-.258-.088-.545.048-.636.309s.048.546.31.636l.48.166c-.3 1.001-.457 2.049-.487 3.121-5.537-.331-9.975-4.767-10.307-10.304zm11.305 10.32c.028-.964.167-1.908.433-2.81l.465.161c.048.017.104.027.163.027.207 0 .401-.13.473-.336.09-.261-.048-.546-.31-.636l-.464-.161c.283-.711.642-1.391 1.072-2.032l.394.291c.089.066.193.098.297.098.153 0 .305-.07.402-.203.164-.222.117-.535-.105-.699l-.394-.291c.24-.296.496-.582.77-.855s.56-.529.857-.77l.29.393c.098.133.249.203.402.203.104 0 .208-.032.297-.098.223-.164.27-.477.105-.699l-.289-.392c.64-.429 1.32-.787 2.031-1.069l.159.461c.071.207.266.336.473.336.058 0 .114-.01.167-.028.258-.089.396-.374.306-.635l-.159-.461c.902-.265 1.845-.405 2.809-.435-.179 5.793-4.85 10.464-10.643 10.642z"/></svg>