<svg xmlns="http://www.w3.org/2000/svg" viewBox="0 0 24 24"><path fill="#5c6671" d="M23.5 10h-1.096l-1.161-5.419C21.047 3.665 20.225 3 19.288 3H17v-.5c0-.276-.224-.5-.5-.5h-9c-.276 0-.5.224-.5.5V3H4.712c-.937 0-1.759.665-1.955 1.581L1.596 10H.5c-.276 0-.5.224-.5.5s.224.5.5.5h1.101l2.146 9.443C3.955 21.36 4.757 22 5.697 22h12.605c.94 0 1.742-.64 1.95-1.557L22.398 11h1.101c.276 0 .5-.224.5-.5s-.224-.5-.5-.5zM8 3h8v1H8V3zM3.735 4.79c.098-.458.509-.79.978-.79h2.288v.5c0 .276.224.5.5.5h9c.276 0 .5-.224.5-.5V4h2.288c.468 0 .879.333.978.791L21.383 10H2.62l1.116-5.21zm15.542 15.432c-.104.458-.504.778-.975.778H5.697c-.47 0-.871-.32-.975-.778L2.626 11h18.747l-2.096 9.222zM5 13.5c0-.276.224-.5.5-.5h13c.276 0 .5.224.5.5s-.224.5-.5.5h-13c-.276 0-.5-.224-.5-.5zM18.5 16c0 .276-.224.5-.5.5H6c-.276 0-.5-.224-.5-.5s.224-.5.5-.5h12c.276 0 .5.224.5.5zm-.5 2.5c0 .276-.224.5-.5.5h-11c-.276 0-.5-.224-.5-.5s.224-.5.5-.5h11c.276 0 .5.224.5.5z"/></svg>