<svg xmlns="http://www.w3.org/2000/svg" viewBox="0 0 24 24"><path fill="#5c6671" d="M20.507 20.453C22.664 18.282 24 15.294 24 12c0-.057-.008-.112-.009-.169v-.001-.002c-.046-3.226-1.366-6.149-3.485-8.281-.008-.01-.012-.022-.021-.032s-.022-.013-.032-.021C18.321 1.375 15.398.055 12.172.009h-.004C12.111.008 12.056 0 11.999 0 8.704 0 5.716 1.336 3.546 3.493c-.01.008-.022.012-.032.021s-.013.022-.021.032C1.336 5.717 0 8.705 0 11.999c0 .057.008.112.009.169v.003c.046 3.226 1.366 6.149 3.485 8.281.008.01.012.022.021.032s.022.013.032.021c2.13 2.117 5.049 3.435 8.271 3.484.002 0 .003.001.005.001H11.832c.057.001.112.009.169.009 3.295 0 6.283-1.336 8.453-3.493.01-.008.022-.012.032-.021s.013-.022.021-.032zm-19.473-7.79c2.912-.081 5.632-1.187 7.767-3.155L11.293 12l-7.404 7.404c-1.648-1.803-2.7-4.15-2.855-6.741zm2.855-8.067l4.205 4.205c-1.949 1.783-4.426 2.787-7.077 2.863.083-2.72 1.155-5.189 2.872-7.068zm19.078 6.744c-2.925.079-5.633 1.184-7.767 3.152L12.708 12l7.404-7.404c1.648 1.804 2.7 4.152 2.855 6.744zM12 11.293L9.507 8.8c1.968-2.135 3.072-4.856 3.152-7.767 2.592.155 4.94 1.207 6.744 2.855l-7.404 7.404zm-3.2-3.2L4.595 3.888C6.473 2.172 8.941 1.1 11.66 1.016c-.076 2.65-1.077 5.127-2.86 7.076zm3.2 4.614l2.493 2.493c-1.968 2.135-3.072 4.856-3.152 7.767-2.592-.155-4.94-1.207-6.744-2.855l7.404-7.404zm3.2 3.2l4.205 4.205c-1.878 1.716-4.346 2.788-7.065 2.872.076-2.65 1.077-5.127 2.86-7.076zm.707-.707c1.949-1.783 4.425-2.785 7.076-2.861-.084 2.719-1.156 5.187-2.872 7.065l-4.205-4.205z"/></svg>