<svg xmlns="http://www.w3.org/2000/svg" viewBox="0 0 18 24"><path fill="#5c6671" d="M16.185 2.856c-.143-1.071-.951-1.925-2.01-2.126C12.41.397 10.079-.001 9-.001h-.001-.001c-1.08 0-3.409.398-5.173.731-1.06.2-1.868 1.055-2.01 2.126L.004 16.434c-.019.143.024.287.12.396S.356 17 .5 17H2v6c0 .236.166.44.397.489C2.496 23.51 4.871 24 9 24c4.178 0 6.593-.997 6.694-1.039.186-.078.306-.26.306-.461V17h1.5c.144 0 .281-.062.376-.17s.139-.253.12-.396L16.185 2.856zm-7.186 5.89c-.91-2.139-2-4.957-2-5.746 0-1.103.897-2 2-2H9c1.103 0 2 .897 2 2 0 .79-1.09 3.607-2 5.746zM2.806 2.988c.085-.643.57-1.155 1.205-1.275.96-.181 1.812-.329 2.546-.443C6.209 1.76 6 2.355 6 3c0 1.346 1.978 5.92 2.46 7.016l-1.427 3.809c-.02.052-.032.112-.032.175H4.925l1.07-6.418c.045-.272-.139-.53-.411-.575-.272-.048-.53.139-.575.411L3.579 16H1.074L2.809 2.988zM3 17h1c.245 0 .453-.177.493-.418L4.757 15h1.638C5.773 15.804 5 17.084 5 18.5c0 .276.224.5.5.5s.5-.224.5-.5c0-.998.515-1.955 1-2.637v7.095c-1.983-.084-3.365-.272-4-.376V17zm12 5.151c-.75.253-2.851.849-6 .849-.347 0-.678-.005-1-.011v-6.974c.506.78 1 1.742 1 2.485 0 .276.224.5.5.5s.5-.224.5-.5c0-1.206-.858-2.623-1.484-3.5h4.727l.264 1.582c.04.241.249.418.493.418h1v5.151zM14.423 16l-1.43-8.582c-.045-.272-.301-.459-.575-.411-.272.045-.457.303-.411.575L13.077 14H8.035l1.427-3.809C9.739 9.567 12 4.438 12 3c0-.646-.209-1.24-.558-1.73.734.114 1.587.262 2.548.444.635.12 1.119.632 1.205 1.275l1.735 13.012h-2.505z"/></svg>