<svg xmlns="http://www.w3.org/2000/svg" viewBox="0 0 24 24"><path fill="#5c6671" d="M4.5 5C5.878 5 7 3.878 7 2.5S5.878 0 4.5 0 2 1.122 2 2.5 3.122 5 4.5 5zm0-4C5.327 1 6 1.673 6 2.5S5.327 4 4.5 4 3 3.327 3 2.5 3.673 1 4.5 1zM7 6H2C.897 6 0 6.897 0 8v5c0 1.103.897 2 2 2h.074l.426 8.525c.014.266.233.475.499.475h3c.267 0 .486-.209.5-.475L6.925 15h.074c1.103 0 2-.897 2-2V8c0-1.103-.897-2-2-2zm1 7c0 .551-.449 1-1 1h-.55c-.267 0-.486.209-.5.475L5.524 23H3.475l-.426-8.525c-.014-.266-.233-.475-.5-.475h-.55c-.551 0-1-.449-1-1V8c0-.551.449-1 1-1h5c.551 0 1 .449 1 1v5zm11.5-8C20.878 5 22 3.878 22 2.5S20.878 0 19.5 0 17 1.122 17 2.5 18.122 5 19.5 5zm0-4c.827 0 1.5.673 1.5 1.5S20.327 4 19.5 4 18 3.327 18 2.5 18.673 1 19.5 1zm3.309 13.88c.696-.265 1.191-.939 1.191-1.727 0-.139-.016-.279-.047-.415L22.756 7.55C22.546 6.637 21.744 6 20.807 6h-2.613c-.937 0-1.738.637-1.949 1.55l-1.197 5.187c-.031.136-.047.276-.047.416 0 .788.496 1.461 1.191 1.727l-1.165 3.46c-.052.153-.026.321.067.452s.245.208.406.208h1.749l.252 4.528c.015.265.234.472.499.472h3c.265 0 .484-.208.499-.472L21.751 19H23.5c.161 0 .312-.078.406-.208s.119-.299.067-.452l-1.165-3.46zM21.278 18c-.265 0-.484.208-.499.472L20.527 23h-2.054l-.252-4.528c-.015-.265-.234-.472-.499-.472h-1.526l1.125-3.34c.052-.153.026-.321-.067-.452S17.009 14 16.848 14c-.467 0-.847-.38-.847-.847 0-.068.008-.133.023-.196l1.196-5.182c.105-.456.506-.775.975-.775h2.613c.469 0 .869.319.974.775l1.197 5.188c.014.057.022.123.022.19 0 .467-.38.847-.847.847-.161 0-.312.078-.406.208s-.119.299-.067.452L22.806 18H21.28zM12 21c-.551 0-1 .449-1 1s.449 1 1 1 1-.449 1-1-.449-1-1-1zm0 1v-.001l.5.001h-.499zm0-5c-.551 0-1 .449-1 1s.449 1 1 1 1-.449 1-1-.449-1-1-1zm0 1v-.001l.5.001h-.499zm0-5c-.551 0-1 .449-1 1s.449 1 1 1 1-.449 1-1-.449-1-1-1zm0 1v-.001l.5.001h-.499zm0-5c-.551 0-1 .449-1 1s.449 1 1 1 1-.449 1-1-.449-1-1-1zm0 1v-.001l.5.001h-.499zm0-5c-.551 0-1 .449-1 1s.449 1 1 1 1-.449 1-1-.449-1-1-1zm0 1v-.001l.5.001h-.499zm0-5c-.551 0-1 .449-1 1s.449 1 1 1 1-.449 1-1-.449-1-1-1zm0 1v-.001l.5.001h-.499z"/></svg>