<svg xmlns="http://www.w3.org/2000/svg" viewBox="0 0 24 24"><path fill="#5c6671" d="M22 8h-1V7c0-1.103-.897-2-2-2H2C.897 5 0 5.897 0 7v10c0 1.103.897 2 2 2h17c1.103 0 2-.897 2-2v-1h1c1.103 0 2-.897 2-2v-4c0-1.103-.897-2-2-2zm-2 9c0 .552-.449 1-1 1H2c-.551 0-1-.448-1-1V7c0-.552.449-1 1-1h17c.551 0 1 .448 1 1v10zm3-3c0 .552-.449 1-1 1h-1V9h1c.551 0 1 .448 1 1v4zm-4.5-7h-16c-.276 0-.5.224-.5.5v9c0 .276.224.5.5.5h16c.276 0 .5-.224.5-.5v-9c0-.276-.224-.5-.5-.5zM5.35 16l4.444-8h5.856l-4.444 8H5.35zM3 8h5.65l-4.444 8H3V8zm15 8h-5.65l4.444-8H18v8z"/></svg>