<svg xmlns="http://www.w3.org/2000/svg" viewBox="0 0 18 24"><path fill="#5c6671" d="M17.711 20.974L11 9.366V2.908c.581-.207 1-.757 1-1.408 0-.827-.673-1.5-1.5-1.5h-3C6.673 0 6 .673 6 1.5c0 .651.419 1.201 1 1.408v6.458L.292 20.97c-.191.316-.292.673-.292 1.031 0 1.103.897 2 2 2h14c1.103 0 2-.897 2-2 0-.357-.1-.711-.289-1.026zM7.5 1h3c.276 0 .5.224.5.5s-.224.5-.5.5h-3c-.276 0-.5-.224-.5-.5s.224-.5.5-.5zM16 23H2c-.551 0-1-.449-1-1 0-.178.05-.351.153-.522L7.933 9.75C7.977 9.674 8 9.588 8 9.5V3h2v6.5c0 .092.025.178.068.253l6.779 11.726c.002.002.003.005.005.008.098.162.147.334.147.513 0 .551-.449 1-1 1zm-3.091-6.337c-.075-.129-.203-.218-.35-.243-.146-.024-.297.017-.41.115l-.103.09c-.255.226-.423.375-.799.375-.373 0-.541-.149-.794-.374-.297-.264-.705-.626-1.458-.626s-1.159.362-1.457.626c-.252.225-.42.374-.792.374-.374 0-.542-.149-.796-.375l-.101-.089c-.113-.098-.262-.138-.41-.115-.147.025-.275.114-.35.243L2.438 21.25c-.09.155-.09.346 0 .5s.254.25.433.25h12.256c.179 0 .344-.095.433-.25s.089-.346 0-.5l-2.652-4.587zM3.739 21l1.923-3.326c.262.177.603.326 1.086.326.752 0 1.159-.362 1.457-.626.252-.225.42-.374.792-.374.373 0 .541.149.794.374.297.264.705.626 1.458.626.485 0 .828-.15 1.09-.327L14.262 21H3.74z"/></svg>