<svg xmlns="http://www.w3.org/2000/svg" viewBox="0 0 24 24"><path fill="#5c6671" d="M24 4.5C24 2.019 21.981 0 19.5 0c-1.002 0-1.962.357-2.756.982C15.288.352 13.685 0 12 0S8.712.352 7.256.982C6.462.357 5.502 0 4.5 0 2.019 0 0 2.019 0 4.5c0 1.002.357 1.962.982 2.756C.352 8.712 0 10.315 0 12c0 6.617 5.383 12 12 12s12-5.383 12-12c0-1.685-.352-3.288-.982-4.744.625-.794.982-1.754.982-2.756zM19.5 1C21.43 1 23 2.57 23 4.5c0 .614-.166 1.213-.476 1.742-.258-.47-.555-.914-.872-1.343-.065-.089-.106-.144-.148-.198-.637-.826-1.379-1.568-2.207-2.206-.053-.04-.107-.082-.163-.123-.463-.341-.907-.638-1.377-.896.529-.31 1.128-.476 1.742-.476zM1 4.5C1 2.57 2.57 1 4.5 1c.614 0 1.213.166 1.742.476-.47.258-.914.556-1.343.872-.056.042-.112.083-.168.125-.856.659-1.599 1.402-2.237 2.229-.041.054-.083.108-.123.163-.34.462-.637.906-.895 1.376C1.166 5.712 1 5.113 1 4.499zM12 23C5.935 23 1 18.065 1 12c0-1.676.388-3.258 1.061-4.681.123-.26.252-.515.394-.763.018-.031.038-.061.056-.092.956-1.635 2.318-2.997 3.953-3.953.031-.018.061-.038.092-.056.248-.142.503-.271.763-.394C8.742 1.388 10.325 1 12 1s3.258.388 4.681 1.061c.26.123.515.252.763.394.031.018.061.038.092.056 1.635.956 2.997 2.318 3.953 3.953.018.031.038.061.056.092.142.248.271.503.394.763C22.612 8.742 23 10.325 23 12c0 6.065-4.935 11-11 11zm3.764-4.935c-.241-.132-.543-.043-.677.195-.017.03-.433.74-1.562.74-.254 0-.442-.079-.593-.248-.277-.31-.385-.853-.418-1.34.011-.201.016-.39.011-.542 1.782-.538 2.416-2.122 2.443-2.194.02-.052.032-.113.032-.176s-.012-.124-.033-.179C14.917 14.189 14.402 13 12 13s-2.917 1.189-2.968 1.324c-.02.052-.032.113-.032.176s.012.124.033.179c.027.07.667 1.667 2.468 2.198-.004.152 0 .337.011.535-.034.487-.141 1.03-.418 1.34-.151.169-.339.248-.593.248-1.129 0-1.544-.71-1.559-.734-.13-.244-.434-.339-.676-.207-.244.129-.337.432-.207.676.027.052.692 1.266 2.441 1.266.537 0 1-.202 1.34-.583.067-.075.117-.163.172-.248.055.084.105.172.172.248.34.381.804.583 1.34.583 1.749 0 2.414-1.214 2.441-1.266.128-.241.037-.538-.203-.669zm-5.688-3.517C10.28 14.344 10.803 14 12 14c1.205 0 1.727.349 1.925.545-.218.398-.791 1.209-1.925 1.445-1.133-.236-1.706-1.045-1.924-1.443zM7 9c-.551 0-1 .449-1 1s.449 1 1 1 1-.449 1-1-.449-1-1-1zm0 1v-.001l.5.001H7zm10-1c-.551 0-1 .449-1 1s.449 1 1 1 1-.449 1-1-.449-1-1-1zm0 1v-.001l.5.001H17z"/></svg>