<svg xmlns="http://www.w3.org/2000/svg" viewBox="0 0 18 24"><path fill="#5c6671" d="M18 19.5c0-.686-.313-1.153-.645-1.647C16.783 16.999 16 15.829 16 12.5V10c0-3.309-2.312-6.084-5.403-6.809.25-.334.403-.743.403-1.191 0-1.103-.897-2-2-2S7 .897 7 2c0 .448.153.857.403 1.191C4.312 3.917 2 6.691 2 10v2.5c0 3.328-.783 4.498-1.355 5.353C.314 18.347 0 18.815 0 19.5c0 1.63 3.398 2.202 6.153 2.399C6.539 23.135 7.673 24 9 24s2.46-.865 2.847-2.101C14.602 21.702 18 21.13 18 19.5zM8 2c0-.552.448-1 1-1s1 .448 1 1-.448 1-1 1-1-.448-1-1zm1 21c-.747 0-1.404-.412-1.745-1.038.708.03 1.324.038 1.745.038s1.036-.008 1.745-.038C10.404 22.588 9.748 23 9 23zm0-2c-4.579 0-8-.792-8-1.5 0-.365.154-.612.476-1.092C2.082 17.502 3 16.133 3 12.5V10c0-3.309 2.691-6 6-6s6 2.691 6 6v2.5c0 3.633.918 5.002 1.524 5.908.321.48.476.727.476 1.092 0 .708-3.421 1.5-8 1.5z"/></svg>