<svg xmlns="http://www.w3.org/2000/svg" viewBox="0 0 24 24"><path fill="#5c6671" d="M23.174 17.432l-4.466-4.466c.168-.297.265-.629.265-.979 0-.535-.208-1.038-.587-1.416L13.43 5.615c-.648-.649-1.631-.75-2.394-.321L6.569.827C5.466-.275 3.546-.275 2.443.827L.855 2.415C.304 2.965 0 3.698 0 4.478s.303 1.513.855 2.063l4.466 4.466c-.168.297-.265.629-.265.979 0 .535.208 1.038.587 1.416l4.956 4.956c.39.391.903.586 1.416.586.339 0 .675-.094.979-.265l4.467 4.467c.551.551 1.285.855 2.063.855s1.512-.304 2.063-.855l1.588-1.588c.551-.55.854-1.283.854-2.063s-.303-1.513-.855-2.063zM12.014 6.029c.267 0 .518.104.708.293l4.956 4.956c.189.189.293.44.293.708 0 .071-.026.135-.04.203l-6.12-6.12c.068-.014.132-.04.203-.04zm3.54 8.789l-1.587-1.587c.021-.08.049-.157.049-.244 0-.552-.449-1.001-1.001-1.001s-1.001.449-1.001 1.001.449 1.001 1.001 1.001c.086 0 .164-.029.244-.049l1.587 1.587-1.795 1.795L6.68 10.95l4.298-4.298 6.371 6.371-1.795 1.795zM1.001 4.477c0-.512.199-.993.561-1.355L3.15 1.534c.363-.362.844-.561 1.355-.561s.992.199 1.355.561l4.409 4.409-4.298 4.298-4.409-4.409c-.362-.362-.561-.843-.561-1.355zm10.305 13.172L6.35 12.693c-.189-.189-.293-.44-.293-.708 0-.071.026-.135.04-.203l6.114 6.114c-.32.062-.666-.009-.905-.247zm11.16 3.201l-1.588 1.588c-.725.724-1.985.724-2.71 0l-4.409-4.409 4.298-4.298 4.409 4.409c.362.362.561.843.561 1.355s-.199.993-.561 1.355zM4.005 2.975c-.552 0-1.001.449-1.001 1.001s.449 1.001 1.001 1.001 1.001-.449 1.001-1.001-.449-1.001-1.001-1.001zm0 1.002zm3.003 4.004c.552 0 1.001-.449 1.001-1.001S7.56 5.979 7.008 5.979s-1.001.449-1.001 1.001.449 1.001 1.001 1.001zm0-1.002zm3.004 2.003c-.552 0-1.001.449-1.001 1.001s.449 1.001 1.001 1.001 1.001-.449 1.001-1.001-.449-1.001-1.001-1.001zm0 1.002z"/></svg>