<svg xmlns="http://www.w3.org/2000/svg" viewBox="0 0 24 24"><path fill="#5c6671" d="M19 10c-.457 0-.891.081-1.312.197l-.711-1.847-.629-2.516c-.27-1.079-1.234-1.833-2.348-1.833-.276 0-.5.224-.5.5s.224.5.5.5c.653 0 1.22.442 1.377 1.075l.487 1.947c-1.346.013-4.781-.003-7.15-.021l-.445-1.001h1.23c.276 0 .5-.224.5-.5s-.224-.5-.5-.5h-3c-.276 0-.5.224-.5.5s.224.5.5.5h.675l.708 1.592-.966 1.793c-.591-.246-1.238-.385-1.917-.385-2.757 0-5 2.243-5 5s2.243 5 5 5c2.456 0 4.493-1.783 4.911-4.121l1.551.119c.011.001.025.001.038.001.078 0 .156-.019.227-.055.042-.022.073-.06.108-.093.023-.022.053-.035.072-.062l4.46-6.243.388 1.01c-1.627.826-2.755 2.497-2.755 4.443 0 2.757 2.243 5 5 5s5-2.243 5-5-2.243-5-5-5zm-3.484-.983l-3.915 5.48L9.16 9.005c3.42.027 5.297.039 6.356.013zM5 19c-2.206 0-4-1.794-4-4s1.794-4 4-4c.508 0 .989.105 1.436.278l-1.877 3.485c-.08.149-.079.328.002.477s.231.246.4.259l3.957.304C8.545 17.625 6.93 19 4.999 19zm2.317-7.248c.964.69 1.601 1.795 1.663 3.053l-3.176-.244 1.513-2.809zm2.671 3.13c-.04-1.671-.894-3.144-2.19-4.023l.598-1.111 2.307 5.189-.715-.055zM19 19c-2.206 0-4-1.794-4-4 0-1.521.863-2.83 2.115-3.506l1.418 3.686c.099.257.386.386.646.287.258-.099.386-.389.287-.646l-1.42-3.693c.307-.076.623-.128.953-.128 2.206 0 4 1.794 4 4s-1.794 4-4 4z"/></svg>