<svg xmlns="http://www.w3.org/2000/svg" viewBox="0 0 24 24"><path fill="#5c6671" d="M23.988 18.439c-.003-.02.002-.04-.003-.06L23 14.439v-2.438c0-2.026-1.016-4.529-1.621-5.84-.326-.705-1.038-1.16-1.815-1.16h-.063V3.93c.86-.224 1.5-1 1.5-1.929 0-1.103-.897-2-2-2h-3c-1.103 0-2 .897-2 2 0 .929.64 1.705 1.5 1.929v1.071h-1c-.276 0-.5-.224-.5-.5 0-.827-.673-1.5-1.5-1.5h-1c-.827 0-1.5.673-1.5 1.5 0 .276-.224.5-.5.5h-1V3.93c.86-.224 1.5-1 1.5-1.929 0-1.103-.897-2-2-2h-3c-1.103 0-2 .897-2 2 0 .929.64 1.705 1.5 1.929v1.071h-.063c-.777 0-1.49.455-1.816 1.16-.605 1.311-1.621 3.813-1.621 5.84v2.438l-.985 3.94c-.005.02 0 .04-.003.06s-.012.039-.012.061V22c0 1.103.897 2 2 2h6c1.103 0 2-.897 2-2v-3.5c0-.022-.01-.04-.012-.061s.002-.04-.003-.06l-.985-3.94v-.438h.5c.276 0 .5.224.5.5 0 .827.673 1.5 1.5 1.5h1c.827 0 1.5-.673 1.5-1.5 0-.276.224-.5.5-.5h.5v.438l-.985 3.94c-.005.02 0 .04-.003.06s-.012.039-.012.061V22c0 1.103.897 2 2 2h6c1.103 0 2-.897 2-2v-3.5c0-.022-.01-.04-.012-.061zM15.89 15h6.219l.75 3h-7.72l.75-3zM15 2c0-.551.449-1 1-1h3c.551 0 1 .449 1 1s-.449 1-1 1h-3c-.551 0-1-.449-1-1zm1.5 2h2v1h-2V4zM4 2c0-.551.449-1 1-1h3c.551 0 1 .449 1 1s-.449 1-1 1H5c-.551 0-1-.449-1-1zm1.5 2h2v1h-2V4zm2.61 11l.75 3H1.14l.75-3h6.219zM9 22c0 .551-.449 1-1 1H2c-.551 0-1-.449-1-1v-3h8v3zm5.5-9c-.827 0-1.5.673-1.5 1.5 0 .276-.224.5-.5.5h-1c-.276 0-.5-.224-.5-.5 0-.827-.673-1.5-1.5-1.5h-1c-.276 0-.5.224-.5.5v.5H2v-2c0-1.835.958-4.184 1.528-5.42.166-.357.513-.58.908-.58h5.063c.827 0 1.5-.673 1.5-1.5 0-.276.224-.5.5-.5h1c.276 0 .5.224.5.5 0 .827.673 1.5 1.5 1.5h5.063c.395 0 .743.222.908.579.571 1.237 1.529 3.586 1.529 5.421v2h-6v-.5c0-.276-.224-.5-.5-.5h-1zm8.5 9c0 .551-.449 1-1 1h-6c-.551 0-1-.449-1-1v-3h8v3zM8.985 7.621l-1 4c-.057.228-.26.379-.484.379-.043 0-.085-.006-.125-.016-.265-.066-.428-.338-.36-.605l1-4c.066-.269.338-.434.606-.364.268.067.431.338.364.606zm6.636 4.364c-.036.01-.078.015-.122.015-.224 0-.428-.151-.484-.379l-1-4c-.067-.268.096-.539.364-.606.267-.069.539.096.606.364l1 4c.067.268-.096.539-.364.606z"/></svg>