<svg xmlns="http://www.w3.org/2000/svg" viewBox="0 0 24 24"><path fill="#5c6671" d="M23.067 5.67c-.052-.924-.606-1.738-1.446-2.126-.001 0-.003-.001-.004-.002l-5.32-2.456C15.834.418 15.095 0 14.264 0H9.736c-.83 0-1.569.418-2.033 1.086l-5.32 2.456c-.001 0-.002.001-.003.002C1.54 3.932.985 4.747.933 5.67L0 22c0 1.103.897 2 2 2h2c.6 0 1.133-.271 1.5-.691.367.42.9.691 1.5.691h10c.6 0 1.133-.271 1.5-.691.367.42.9.691 1.5.691h2c1.103 0 2-.897 1.999-2.028l-.932-16.301zM7.284 4.051l.605-1.211 2.624 8.528-3.06-4.589c-.541-.811-.605-1.856-.17-2.728zm8.827-1.211l.595 1.189c.442.885.376 1.946-.172 2.77l-3.046 4.57 2.624-8.528zM9.736 1h4.528c.476 0 .902.229 1.182.598L11.999 12.8 8.552 1.598C8.832 1.229 9.259 1 9.734 1zM4 23H2c-.551 0-1-.449-1.001-.972l.932-16.301c.022-.393.196-.752.474-1.011L5 9.624V22c0 .551-.449 1-1 1zm2-1V9.5c0-.082-.02-.162-.058-.234L3.279 4.23l3.636-1.678-.526 1.052c-.596 1.192-.507 2.622.232 3.73l4.878 7.318v8.349h-4.5c-.551 0-1-.449-1-1zm11 1h-4.5v-8.349l4.865-7.298c.748-1.121.837-2.566.235-3.771l-.515-1.031 3.636 1.678-2.663 5.036c-.038.072-.058.152-.058.234v12.5c0 .551-.449 1-1 1zm5 0h-2c-.551 0-1-.449-1-1V9.624l2.595-4.908c.278.259.452.619.474 1.011L23 22c0 .551-.449 1-1 1zm-11.5-4.5c0 .276-.224.5-.5.5H7.5c-.276 0-.5-.224-.5-.5s.224-.5.5-.5H10c.276 0 .5.224.5.5zm6.5 0c0 .276-.224.5-.5.5H14c-.276 0-.5-.224-.5-.5s.224-.5.5-.5h2.5c.276 0 .5.224.5.5z"/></svg>