<svg xmlns="http://www.w3.org/2000/svg" viewBox="0 0 24 24"><path fill="#5c6671" d="M24.001 2.16c0-.577-.225-1.12-.633-1.528-.843-.843-2.213-.843-3.061.004L6.193 15.099c-.261-.06-.531-.099-.81-.099-1.995 0-3.618 1.62-3.618 3.612 0 1.174-.635 2.229-1.145 3.077-.371.616-.639 1.062-.618 1.482.014.295.177.795 1.106.828.039.001.079.002.12.002.588 0 1.502-.143 2.926-.455 2.537-.556 4.847-2.907 4.847-4.934 0-.278-.038-.546-.098-.805L23.369 3.69c.408-.408.633-.95.633-1.528zM3.939 22.568c-1.323.29-2.212.432-2.711.432-.075 0-.141-.004-.188-.009.084-.201.282-.531.437-.788.543-.903 1.288-2.141 1.288-3.592 0-1.44 1.174-2.611 2.618-2.611s2.618 1.172 2.618 2.611c0 1.389-1.812 3.464-4.061 3.957zM22.665 2.977L8.497 16.804c-.315-.539-.762-.986-1.302-1.301L21.018 1.338c.453-.453 1.189-.453 1.643 0 .219.22.34.512.34.821s-.121.602-.336.817z"/></svg>