<svg xmlns="http://www.w3.org/2000/svg" viewBox="0 0 24 24"><path fill="#5c6671" d="M21 5.5v1c0 .276-.224.5-.5.5s-.5-.224-.5-.5v-1c0-.276.224-.5.5-.5s.5.224.5.5zM20.5 0c-.276 0-.5.224-.5.5v1c0 .276.224.5.5.5s.5-.224.5-.5v-1c0-.276-.224-.5-.5-.5zm1.768 4.561c-.195-.195-.512-.195-.707 0s-.195.512 0 .707l.707.707c.098.098.226.146.354.146s.256-.049.354-.146c.195-.195.195-.512 0-.707l-.707-.707zM23.5 3h-1c-.276 0-.5.224-.5.5s.224.5.5.5h1c.276 0 .5-.224.5-.5s-.224-.5-.5-.5zm-1.586-.414c.128 0 .256-.049.354-.146l.707-.707c.195-.195.195-.512 0-.707s-.512-.195-.707 0l-.707.707c-.195.195-.195.512 0 .707.098.098.226.146.354.146zm-3.182 1.975l-.707.707c-.195.195-.195.512 0 .707.098.098.226.146.354.146s.256-.049.354-.146l.707-.707c.195-.195.195-.512 0-.707s-.512-.195-.707 0zM18 15c0 4.963-4.038 9-9 9s-9-4.037-9-9c0-4.725 3.662-8.602 8.295-8.964l.731-2.194c.068-.204.259-.342.474-.342.872 0 1.731.105 2.565.305.466-.91 1.338-2.19 2.745-2.768 2.71-1.108 5.905 1.974 6.04 2.105.197.193.2.51.007.707s-.509.201-.707.008c-.028-.027-2.856-2.762-4.96-1.895-1.044.428-1.736 1.38-2.145 2.13.942.322 1.843.766 2.678 1.34.19.131.267.376.184.592l-.886 2.305C16.845 9.977 18 12.353 18 15zM9.354 6.018c1.802.071 3.468.669 4.848 1.651l.626-1.628c-1.496-.946-3.2-1.472-4.97-1.535l-.504 1.512zM17 15c0-4.411-3.589-8-8-8-.098 0-.193.011-.291.015-.006.001-.013.001-.019.001C4.423 7.18 1 10.694 1 15c0 4.411 3.589 8 8 8s8-3.589 8-8zM9 9c-3.309 0-6 2.691-6 6 0 .276.224.5.5.5s.5-.224.5-.5c0-2.757 2.243-5 5-5 .276 0 .5-.224.5-.5S9.276 9 9 9z"/></svg>