<svg xmlns="http://www.w3.org/2000/svg" viewBox="0 0 24 24"><path fill="#5c6671" d="M22.546 18.443c-.014-.01-.024-.025-.039-.034l-4.002-2.25c.115-.2.22-.406.316-.618l1.637-.92c.031-.017.057-.036.081-.058.231-.136.417-.277.581-.441.567-.566.879-1.32.879-2.121s-.312-1.555-.879-2.121c-.6-.601-1.424-.887-2.264-.841-.612-1.572-1.573-2.781-2.464-3.882-1.205-1.491-2.246-2.778-2.246-4.655 0-.188-.105-.359-.271-.445s-.368-.072-.52.038C11.698 1.281 10.55 3.1 9.942 5.502c-.303 1.199-.47 2.555-.497 4.036-.281-.21-.851-.866-1.674-2.511-.156-.32-.251-.541-.253-.546-.06-.137-.176-.241-.319-.283-.148-.041-.302-.016-.427.07-.062.043-1.118.813-1.767 2.764-.797-.007-1.555.278-2.126.849-.567.566-.879 1.32-.879 2.121s.312 1.555.879 2.121c.164.164.35.305.58.441.025.021.053.041.083.058l1.637.92c.096.211.201.417.316.618l-4.002 2.25c-.016.009-.025.024-.039.034-.867.526-1.453 1.471-1.453 2.557 0 1.654 1.346 3 3 3 .479 0 .926-.123 1.328-.324.015-.007.031-.004.046-.012l6.726-3.782c.296.036.595.059.9.059s.604-.024.9-.059l6.726 3.782c.015.008.031.005.046.012.402.201.849.324 1.328.324 1.654 0 3-1.346 3-3 0-1.087-.586-2.031-1.453-2.557zm-3.368-8.425c.463.037.901.234 1.235.568.378.378.586.88.586 1.414s-.208 1.036-.586 1.414c-.117.117-.259.22-.448.325-.031.017-.057.035-.081.056l-.574.323c.006-.027.008-.054.014-.081.037-.17.063-.343.088-.516.013-.091.032-.181.042-.273.028-.265.045-.533.045-.805 0-.208-.014-.401-.029-.595l-.013-.187v-.005c-.024-.315-.068-.624-.124-.931-.03-.168-.069-.328-.107-.489-.017-.072-.028-.144-.047-.216zm-14.49 4.1l-.573-.322a.5557.5557 0 0 0-.079-.055c-.192-.106-.334-.209-.45-.326-.378-.378-.586-.88-.586-1.414s.208-1.036.586-1.414c.316-.316.718-.509 1.151-.561l-.003.021c-.055.264-.099.547-.135.844-.008.063-.016.125-.023.189-.031.298-.057.606-.066.937-.009.142-.009.285-.009.426 0 .272.016.541.045.805.01.092.029.182.042.273.025.174.051.347.088.516.006.027.008.054.014.081zM1 21c0-1.103.897-2 2-2s2 .897 2 2-.897 2-2 2-2-.897-2-2zm4.926.644c.046-.208.073-.422.073-.643 0-1.318-.86-2.427-2.043-2.829l2.088-1.175c.019.025.043.045.062.07.205.26.424.508.661.739.031.03.063.057.094.086.234.221.482.426.743.616.026.019.051.039.077.057.292.207.6.392.921.556.006.003.013.006.019.009.327.166.666.309 1.017.426l-3.714 2.088zm5.152-2.776c-.001 0-.002-.001-.003-.002-.674-.096-1.323-.299-1.924-.592-.011-.005-.022-.01-.033-.016-.181-.09-.357-.189-.529-.295-.024-.015-.048-.029-.072-.044-.154-.098-.303-.204-.448-.315-.036-.028-.074-.053-.109-.082-.131-.104-.255-.215-.378-.328-.042-.039-.086-.075-.127-.115-.119-.116-.23-.239-.339-.364-.036-.042-.076-.08-.112-.123-.141-.169-.274-.345-.397-.528-.214-.312-.412-.67-.575-1.046-.101-.241-.175-.443-.239-.647-.033-.106-.056-.216-.084-.325-.025-.1-.056-.198-.077-.299-.034-.165-.056-.334-.077-.503-.006-.048-.017-.095-.022-.143-.021-.209-.031-.422-.032-.636 0-.008-.001-.017-.001-.025 0-.121 0-.242.008-.381.011-.385.046-.753.093-1.111.013-.095.027-.186.041-.277.053-.329.116-.65.199-.952.3-1.08.74-1.781 1.066-2.185 1.307 2.595 2.074 2.997 2.538 3.072.317.051.615-.049.849-.283.09-.09.146-.215.146-.353 0-1.569.158-2.99.471-4.225.455-1.797 1.233-3.224 2.318-4.253.292 1.703 1.313 2.966 2.385 4.292.937 1.159 1.89 2.353 2.429 3.93.001.003 0 .006.001.009.227.667.363 1.324.415 2.006l.01.143.004.05c.006.084.008.174.013.26s.013.169.013.26c0 .008-.001.017-.001.025-.001.215-.011.427-.032.636-.005.048-.016.095-.022.143-.021.169-.043.338-.077.503-.021.101-.051.199-.077.299-.028.108-.051.219-.084.325-.064.205-.138.407-.223.606-.179.418-.377.775-.605 1.11-.109.161-.242.337-.383.506-.035.042-.075.081-.112.123-.11.125-.221.248-.339.364-.041.04-.085.076-.127.115-.123.114-.247.225-.378.328-.036.028-.073.054-.109.082-.145.11-.294.217-.448.315-.024.015-.048.029-.072.044-.172.106-.348.205-.529.295-.011.005-.021.01-.032.016-.601.293-1.25.496-1.924.592-.001 0-.002.001-.003.002-.302.043-.608.073-.921.073s-.62-.03-.921-.073zm4.298.261c.007-.003.013-.006.02-.01.321-.164.629-.349.921-.556.026-.018.051-.039.077-.057.261-.189.509-.394.743-.615.031-.029.064-.057.095-.087.237-.231.456-.479.661-.739.019-.025.043-.045.062-.07l2.088 1.175C18.859 18.572 18 19.681 18 20.999c0 .221.028.436.073.643l-3.714-2.088c.352-.117.691-.261 1.017-.426zM20.999 23c-1.103 0-2-.897-2-2s.897-2 2-2 2 .897 2 2-.897 2-2 2z"/></svg>