<svg xmlns="http://www.w3.org/2000/svg" viewBox="0 0 18 24"><path fill="#5c6671" d="M17.41 20.654c-.382-.38-.884-.597-1.431-.582-1.606.013-2.412-.212-2.626-.426-.92-.92-3.316-3.819-3.354-6.154-.031-1.941-.564-8.146-.878-11.672C9.028.782 8.172 0 7.129 0H2C.897 0 0 .897 0 2v.5c0 1.41.751 3.518 1.547 5.75C2.261 10.254 3 12.326 3 13.5c0 1.036-.169 1.484-.383 2.051C2.328 16.316 2 17.183 2 19.5c0 1.071.486 3.961.507 4.083.041.24.249.417.493.417h1.5c.276 0 .5-.224.5-.5v-2.228c.166.119.334.24.504.363 1.531 1.109 3.267 2.366 4.996 2.366 2.901 0 6.947-.973 7.118-1.014.225-.054.382-.255.382-.486v-.428c0-.537-.209-1.04-.59-1.417zM4 23h-.575c-.107-.668-.309-1.988-.389-2.89.294.103.618.273.964.487V23zm13-.898c-1.08.242-4.22.898-6.5.898-1.406 0-3.001-1.156-4.41-2.176-1.143-.827-2.153-1.56-3.086-1.766.038-1.804.308-2.519.548-3.154.23-.61.448-1.186.448-2.404 0-1.347-.734-3.406-1.511-5.585C1.757 5.861 1 3.737 1 2.5V2c0-.551.449-1 1-1h5.129c.521 0 .95.391.996.909.252 2.828.843 9.619.874 11.599.052 3.214 3.61 6.81 3.646 6.846.183.183.707.761 3.341.719.264.008.527.102.718.291.19.188.294.44.294.708v.03z"/></svg>