<svg xmlns="http://www.w3.org/2000/svg" viewBox="0 0 18 24"><path fill="#5c6671" d="M16.308 19.887c-1.192-.179-3.422-.708-4.954-2.241-.791-.791-1.897-3.742-.42-14.615l.063-.47c.016-.128.03-.249.04-.361.055-.564-.131-1.128-.51-1.545C10.15.239 9.61 0 9.046 0H2.001c-1.103 0-2 .897-2 2v.5c0 .627.318 2.199.838 4.711.544 2.634 1.162 5.62 1.162 6.789 0 1.11-.273 2.351-.537 3.551-.237 1.078-.461 2.097-.463 2.938V22c0 1.103.897 2 2 2h1c.788 0 1.486-.461 1.81-1.148C7.504 23.47 9.305 24 10.501 24h5.5c1.103 0 2-.897 2-2v-.138c0-.997-.712-1.828-1.692-1.975zM4 23H3c-.551 0-1-.449-1-1v-.717c.658.299 1.701.757 2.869 1.213C4.695 22.8 4.367 23 4 23zm13-1c0 .551-.449 1-1 1h-5.5c-2.257 0-7.227-2.229-8.489-2.813.047-.687.233-1.533.429-2.421C2.715 16.514 3 15.219 3 14c0-1.271-.628-4.311-1.183-6.992C1.416 5.065 1 3.057 1 2.5V2c0-.551.449-1 1-1h7.045c.287 0 .55.116.741.327.193.212.283.488.255.778l-.098.792c-1.188 8.74-.958 13.796.704 15.457 1.648 1.648 3.907 2.282 5.513 2.523.487.073.841.488.841.986v.138z"/></svg>