<svg xmlns="http://www.w3.org/2000/svg" viewBox="0 0 24 24"><path fill="#5c6671" d="M12 0C5.383 0 0 5.383 0 12s5.383 12 12 12 12-5.383 12-12S18.617 0 12 0zm0 23C5.935 23 1 18.065 1 12S5.935 1 12 1s11 4.935 11 11-4.935 11-11 11zm3-17c-1.103 0-2 .897-2 2s.897 2 2 2 2-.897 2-2-.897-2-2-2zm0 3c-.552 0-1-.449-1-1s.448-1 1-1 1 .449 1 1-.448 1-1 1zm-1 3c-1.103 0-2 .897-2 2s.897 2 2 2 2-.897 2-2-.897-2-2-2zm0 3c-.552 0-1-.449-1-1s.448-1 1-1 1 .449 1 1-.448 1-1 1zm6-5c-1.103 0-2 .897-2 2s.897 2 2 2 2-.897 2-2-.897-2-2-2zm0 3c-.552 0-1-.449-1-1s.448-1 1-1 1 .449 1 1-.448 1-1 1z"/></svg>