<svg xmlns="http://www.w3.org/2000/svg" viewBox="0 0 24 24"><path fill="#5c6671" d="M24 5c0-1.103-.897-2-2-2-2.923 0-6.869 3.292-7.99 4.283C13.713 7.107 13.37 7 13 7h-2c-.37 0-.712.108-1.01.283C8.868 6.292 4.922 3 2 3 .897 3 0 3.897.008 5.091.018 5.144 1 10.439 1 12s-.981 6.855-1 7c0 1.103.897 2 2 2 2.923 0 6.869-3.292 7.99-4.283.297.176.64.283 1.01.283h2c.37 0 .712-.108 1.01-.283C15.132 17.708 19.078 21 22 21c1.103 0 2-.897 1.992-2.091C23.982 18.856 23 13.561 23 12s.981-6.855 1-7zM.992 19.091C1.033 18.87 2 13.652 2 12s-.967-6.87-1-7c0-.551.449-1 1-1 2.515 0 6.181 3.031 7.282 3.994C9.108 8.291 9 8.632 9 9v1.454c-1.386-.957-3.793-1.358-4.429-1.449-.274-.038-.527.151-.566.424s.15.527.423.566c1.844.266 4.571 1.087 4.571 2.005s-2.728 1.739-4.571 2.005c-.273.04-.463.293-.423.566.036.249.25.429.494.429H4.5c.025 0 .05-.002.074-.005.632-.091 3.04-.492 4.426-1.449V15c0 .369.107.71.282 1.006C8.181 16.969 4.516 20 2 20c-.551 0-1-.449-1.008-.909zM11 16c-.551 0-1-.449-1-1V9c0-.551.449-1 1-1h2c.551 0 1 .449 1 1v6c0 .551-.449 1-1 1h-2zm11 4c-2.515 0-6.181-3.031-7.282-3.994.174-.297.282-.638.282-1.006v-1.454c1.386.957 3.793 1.358 4.429 1.449.021.003.046.005.071.005h.001c.245 0 .458-.18.494-.429.04-.273-.15-.527-.423-.566-1.844-.266-4.571-1.087-4.571-2.005s2.728-1.739 4.571-2.005c.273-.04.463-.293.423-.566s-.288-.466-.566-.424c-.635.091-3.043.493-4.429 1.449V9c0-.369-.107-.71-.282-1.006C15.819 7.031 19.484 4 22 4c.551 0 1 .449 1.008.909C22.967 5.13 22 10.348 22 12s.967 6.87 1 7c0 .551-.449 1-1 1z"/></svg>