<svg xmlns="http://www.w3.org/2000/svg" viewBox="0 0 24 24"><path fill="#5c6671" d="M23.691.038c-.188-.078-.401-.034-.545.108L18.5 4.792l-.646-.646c-.195-.195-.512-.195-.707 0l-7.939 7.939c-.589.589-1.374.914-2.207.914-1.101 0-2.136.429-2.914 1.207L.855 17.438c-.542.542-.854 1.293-.854 2.061s.311 1.518.854 2.061l1.017 1.017c.917.917 2.137 1.422 3.434 1.422h.618c1.796 0 3.484-.699 4.754-1.969L22.855 9.853c.195-.195.195-.512 0-.707l-.646-.646 1.646-1.646c.09-.09.146-.215.146-.353v-6c0-.202-.122-.385-.309-.462zM9.969 21.324C8.888 22.405 7.451 23 5.922 23h-.618c-1.03 0-1.998-.401-2.727-1.129L1.56 20.854c-.356-.356-.561-.85-.561-1.354s.204-.997.561-1.354l3.232-3.232C5.381 14.325 6.166 14 6.999 14c1.101 0 2.136-.429 2.914-1.207l7.586-7.586L19.292 7l-2.043 2.043-.396-.396c-.195-.195-.512-.195-.707 0l-3 3c-.195.195-.195.512 0 .707l.396.396-4.396 4.396c-.195.195-.195.512 0 .707.098.098.226.146.354.146s.256-.049.354-.146l4.396-4.396.396.396c.098.098.226.146.354.146s.256-.049.354-.146l3-3c.195-.195.195-.512 0-.707l-.396-.396 2.043-2.043L21.794 9.5 9.97 21.324zM14.207 12L16.5 9.707l.793.793L15 12.793 14.207 12zM23 6.293l-1.5 1.5L19.207 5.5 23 1.707v4.586zM3.5 18.5c-.551 0-1 .449-1 1s.449 1 1 1 1-.449 1-1-.449-1-1-1zm-.5 1h.5v.001L3 19.5z"/></svg>