<svg xmlns="http://www.w3.org/2000/svg" viewBox="0 0 24 24"><path fill="#5c6671" d="M13.5 0C7.188 0 3.998 8.728 3.998 10.501c0 .202.05.436.121.682-.005.005-.011.008-.015.013l-3.249 4.24C.304 15.988 0 16.721 0 17.5s.304 1.513.855 2.065l3.578 3.579c.552.551 1.285.855 2.064.855h.002c.78 0 1.512-.304 2.04-.834l4.188-3.698c.09.01.185.033.27.033 2.906 0 9.824-1.684 9.997-5.841.259-.407 1.006-1.705 1.006-3.16C24 8.691 19.781-.002 13.5-.002zM7.855 22.438c-.362.362-.843.562-1.356.562h-.001c-.513 0-.995-.2-1.357-.562l-3.578-3.579c-.362-.363-.562-.845-.562-1.358s.2-.995.605-1.407l2.953-3.848c1.29 2.456 4.554 5.813 7.028 6.895l-3.731 3.296zm14.844-10.426c-.568-1.508-1.91-3.011-3.702-3.011-1.1 0-2.088.738-2.581 1.925-.278.671-.349 1.382-.235 2.052-1.908-.239-5.185-2.523-5.185-5.477 0-1.527 1.144-3.184 1.767-3.578.233-.147.303-.457.156-.69s-.456-.302-.69-.156c-.538.34-1.193 1.146-1.656 2.121-.759-1.164-.789-1.171-1.022-1.195l-.052.498-.38.323c.072.093.545.81.96 1.449.021.032.053.047.079.073-.096.381-.162.77-.162 1.155 0 3.755 4.275 6.5 6.5 6.5.008 0 .014-.004.022-.004.161.312.369.602.625.858.195.195.512.195.707 0s.195-.512 0-.707c-.88-.88-.825-2.08-.51-2.839.262-.632.834-1.308 1.657-1.308 1.712 0 3 2.124 3 3.5 0 3.463-6.521 5-9 5-2.616 0-8-6.165-8-8.001 0-1.546 2.959-9.501 8.502-9.501 5.654 0 9.5 8.318 9.5 9.501 0 .541-.135 1.068-.301 1.511zM3.146 16.148c-.746.747-.746 1.961 0 2.708l2 2c.373.373.863.56 1.354.56s.98-.187 1.354-.56c.747-.746.747-1.961 0-2.707l-2-2c-.746-.746-1.961-.746-2.707 0zm4 4c-.356.356-.937.356-1.293 0l-2-2c-.356-.356-.356-.937 0-1.293.178-.178.413-.267.646-.267s.468.089.646.267l2 2c.356.356.356.937 0 1.293z"/></svg>