<svg xmlns="http://www.w3.org/2000/svg" viewBox="0 0 24 24"><path fill="#5c6671" d="M23.5 17h-.728c-.577-.902-2.713-4.376-2.769-6.472l.972-5.342c.016-.085.025-.183.025-.283v-.31C21 3.715 20.286 3 19.407 3c-.767 0-1.425.546-1.565 1.299l-1.333 7.108c-.01.052-.004.102.002.152C14.849 12.56 13.253 13.91 13.03 16h-2.06c-.223-2.09-1.819-3.439-3.481-4.441.006-.05.012-.1.002-.152L6.158 4.299c-.141-.753-.799-1.3-1.566-1.3-.878 0-1.593.714-1.593 1.593v.309c0 .095.008.19.026.285l.971 5.341c-.056 2.096-2.191 5.57-2.769 6.472H.499c-.276 0-.5.224-.5.5v2c0 .276.224.5.5.5h2.203c.683.56 1.599 1 2.797 1 1.442 0 2.689-.403 3.64-1.069.046-.02.093-.041.133-.077.002-.002.06-.05.158-.117.005-.004.012-.008.017-.012.353-.238 1.234-.725 2.553-.725 1.32 0 2.201.488 2.553.726.006.005.013.008.018.013.094.065.152.112.157.115.048.043.103.075.16.096.948.654 2.183 1.05 3.612 1.05 1.198 0 2.115-.44 2.797-1H23.5c.276 0 .5-.224.5-.5v-2c0-.276-.224-.5-.5-.5zM18.825 4.483c.052-.28.297-.483.583-.483.327 0 .593.266.593.593v.309c0 .036-.003.071-.009.106l-.939 5.166c-.037.031-.308.178-.58.323-.881.436-1.081.544-1.281.652l1.634-6.665zM4 4.593C4 4.266 4.266 4 4.593 4c.285 0 .53.203.583.484l1.21 6.455c.242.11.042.003-.159-.103-.971-.483-1.242-.631-1.511-.781l-.707-5.046c-.006-.036-.01-.071-.01-.107v-.309zM1 18h.171c.117.249.313.611.597 1H1v-1zm1.064-.449c.552-.858 2.438-3.913 2.854-6.255.128.067.26.136.394.206C7.401 12.594 10 13.952 10 16.5c0 2.298-2.264 3.5-4.5 3.5-2.116 0-3.138-1.804-3.436-2.449zM12 18c-.508 0-.959.063-1.359.155.159-.36.254-.748.303-1.155h2.112c.049.407.143.795.303 1.155-.4-.092-.851-.155-1.359-.155zm2-1.5c0-2.547 2.599-3.906 4.688-4.998.133-.07.265-.139.394-.206.416 2.34 2.3 5.393 2.854 6.253-.3.639-1.335 2.45-3.435 2.45-2.236 0-4.5-1.202-4.5-3.5zm9 2.5h-.768c.284-.389.479-.751.597-1H23v1z"/></svg>