<svg xmlns="http://www.w3.org/2000/svg" viewBox="0 0 24 24"><path fill="#5c6671" d="M14 9.021c0 2.189-.509 3.13-.567 3.23-.093.16-.261.249-.433.249-.092 0-.178-.025-.252-.069-.235-.136-.317-.439-.182-.677.011-.021.435-.831.435-2.733 0-1.266-1.309-2.021-3.5-2.021-.268 0-.488-.211-.5-.479-.003-.076-.066-1.861.891-2.859.421-.439.962-.662 1.608-.662.276 0 .5.224.5.5s-.224.5-.5.5c-.368 0-.658.116-.887.354-.402.418-.552 1.144-.599 1.66 2.473.136 3.985 1.262 3.985 3.007zM24 8.5c0 1.425-.859 2.685-2.167 3.222-.456 2.058-1.836 3.706-3.645 4.584-.055.04-.113.066-.177.081-.849.382-1.777.614-2.76.614-.511 0-1.018-.058-1.515-.172-.306.639-.865 1.231-1.603 1.731-.001.001-.002.002-.003.002-1.393 2.243-2.138 5.038-2.146 5.066-.058.219-.256.373-.483.373h-2c-.157 0-.297-.072-.389-.186-.095-.119-.132-.273-.099-.421.022-.103.471-2.148.822-3.414-.127.009-.249.005-.373.008-.068.002-.141.016-.208.016-.059 0-.115-.006-.174-.008-.051-.001-.101-.005-.151-.007-.198-.008-.391-.022-.579-.045-.064-.008-.125-.017-.188-.026-.168-.025-.332-.055-.491-.092-.069-.016-.137-.032-.204-.05-.145-.039-.283-.083-.418-.132-.068-.025-.137-.048-.202-.075-.125-.052-.243-.11-.358-.17-.062-.033-.126-.063-.185-.098-.109-.065-.208-.137-.305-.211-.052-.039-.107-.075-.155-.116-.096-.083-.178-.173-.26-.265-.035-.04-.077-.076-.11-.118-.106-.137-.198-.281-.27-.435-.064-.137-.111-.279-.143-.423-.023-.098-.029-.198-.038-.298-.003-.041-.012-.082-.012-.123-.008-.282.044-.569.147-.858-1.786-.286-3.156-1.837-3.156-3.703 0-1.178.568-2.285 1.508-2.988-.337-.727-.508-1.486-.508-2.262 0-3.033 2.467-5.5 5.5-5.5.128 0 .253.011.376.026C7.77.753 9.195.001 10.752.001c1.681 0 3.232.902 4.081 2.337.542-.224 1.101-.337 1.669-.337 1.917 0 3.604 1.218 4.231 3.008 1.823.119 3.269 1.64 3.269 3.492zM7.413 14.35c-.472.142-.873.302-1.257.493.152-.016.258-.012.362 0 1.27.152 2.306.839 2.918 1.935.135.241.048.545-.193.68-.077.043-.161.063-.243.063-.175 0-.346-.092-.437-.256-.579-1.037-1.496-1.349-2.164-1.429-.972-.116-1.779.206-2.039.468-.188.274-.366.635-.351 1.015 0 .008.001.016.002.025.008.129.036.259.096.388.062.132.152.258.266.375.018.019.043.034.063.052.1.094.212.184.343.265.043.027.095.049.141.074.115.062.235.121.368.173.085.033.177.061.269.089.102.032.207.061.316.087.098.024.234.051.371.072.112.016.195.026.28.036.164.018.331.032.504.038.073.002.149 0 .223 0 .184 0 .37-.001.561-.015.099-.007.202-.024.303-.036.164-.018.326-.033.493-.062.005-.001.01.001.015 0 .385-.069.709-.148 1.026-.244.657-.198 1.301-.498 1.836-.846.001-.001.001-.002.002-.003.574-.375 1.001-.798 1.252-1.223.007-.01.019-.031.03-.052.079-.146.139-.28.175-.413.001-.005.006-.009.007-.014.076-.289.057-.563-.061-.814-.348-.745-1.557-1.274-3.141-1.274-.717 0-1.511.109-2.338.354zm3.12 5.034c-.214.082-.434.157-.661.225-.319.095-.634.151-.95.211l-.001.001c-.241.768-.603 2.32-.797 3.179h.998c.198-.665.67-2.119 1.411-3.616zM23 8.5c0-1.376-1.116-2.495-2.491-2.5-.024.003-.113.013-.12.014-.004 0-.007-.001-.011-.001C19.057 6.078 18 7.164 18 8.501c0 .276-.224.5-.5.5s-.5-.224-.5-.5c0-.201.027-.394.059-.586-.182.051-.366.086-.538.086-.666 0-2.44-.634-2.849-1.862-.087-.262.054-.545.316-.632.263-.088.545.054.632.316.219.656 1.476 1.179 1.901 1.179.253 0 .727-.21 1.038-.382.482-.751 1.242-1.302 2.135-1.515-.548-1.261-1.791-2.103-3.193-2.103-.562 0-1.118.146-1.651.435-.122.065-.266.078-.397.034s-.238-.141-.296-.267c-.609-1.338-1.947-2.202-3.406-2.202-1.313 0-2.509.681-3.199 1.822-.014.022-.039.031-.055.05-.005.011-.005.022-.011.033-.317.56-.485 1.198-.485 1.845 0 .8.248 1.563.718 2.208.163.223.114.536-.109.698-.089.065-.192.096-.294.096-.154 0-.307-.071-.404-.206-.168-.23-.307-.474-.429-.725-.308.088-.701.245-.943.513-.099.11-.235.166-.372.166-.119 0-.239-.042-.334-.128-.205-.185-.222-.501-.037-.706.394-.438.941-.67 1.353-.793-.089-.365-.148-.739-.148-1.123 0-.595.115-1.183.33-1.733-2.401.092-4.33 2.059-4.33 4.483 0 .608.137 1.205.395 1.782.433-.169.888-.282 1.355-.282.498 0 .975.102 1.417.281.009.004.019.006.028.01.815.339 1.498.958 1.911 1.782.124.247.023.547-.224.671-.072.036-.148.053-.223.053-.184 0-.36-.101-.448-.276-.207-.414-.518-.744-.878-1-.373 1.081-1.329 2.169-1.463 2.316-.099.108-.234.164-.37.164-.129 0-.247-.049-.336-.13-.204-.185-.219-.501-.034-.706.444-.49 1.102-1.396 1.298-2.07-.219-.055-.444-.094-.678-.094-.451 0-.88.105-1.277.314-.003.002-.006.001-.009.003-.021.017-.036.038-.06.052-.866.491-1.404 1.403-1.404 2.381 0 1.499 1.207 2.717 2.699 2.745.719-.899 1.933-1.658 3.428-2.103.588-.175 1.171-.274 1.741-.332-.093-.519-.063-1.004.08-1.44-.19-.62-.535-1.498-.803-1.766-.195-.195-.195-.512 0-.707s.512-.195.707 0c.315.315.588.9.786 1.414.194-.181.411-.347.67-.482.243-.127.547-.033.675.212s.033.547-.212.675c-.98.512-1.058 1.346-.894 2.051 1.848.032 3.382.68 3.919 1.83.148.318.209.655.194.999.414.093.833.155 1.258.155.834 0 1.622-.196 2.343-.52.136-.215.407-.728.407-1.418 0-.438-.154-1.088-.484-1.624-.501.856-1.259 1.566-2.047 1.566-.276 0-.5-.224-.5-.5s.224-.5.5-.5c.345 0 .928-.534 1.309-1.294-.221-.125-.467-.211-.754-.211-.276 0-.5-.224-.5-.5s.224-.5.5-.5c.661 0 1.208.251 1.653.626.03.02.061.039.085.064.811.734 1.238 1.918 1.238 2.872 0 .212-.023.407-.054.593 1.001-.841 1.716-2.024 1.959-3.394.032-.183.164-.333.342-.39C22.295 10.543 23 9.591 23 8.503zm-2.131-.482C20.223 8.193 19 8.937 19 10.5c0 .276.224.5.5.5s.5-.224.5-.5c0-1.16 1.018-1.485 1.131-1.518.267-.072.424-.347.352-.613s-.347-.426-.613-.352z"/></svg>