<svg xmlns="http://www.w3.org/2000/svg" viewBox="0 0 24 24"><path fill="#5c6671" d="M20.82 10.585c-.052-.037-.108-.063-.17-.078-.992-.427-2.171-.775-3.485-1.03a.44623.44623 0 0 0-.071-.014c-1.542-.294-3.261-.462-5.094-.462-6.729 0-12 2.196-12 5v5c0 1.103.897 2 2 2h20c1.103 0 2-.897 2-2v-5c0-1.334-1.204-2.527-3.18-3.415zM23 19c0 .551-.448 1-1 1H2c-.552 0-1-.449-1-1v-5c0-1.087 1.496-2.243 3.993-3.032-.865 1.161-.985 2.413-.991 2.49-.023.275.182.517.457.54.014.001.027.002.042.002.257 0 .476-.197.497-.459.002-.022.208-2.196 2.218-3.119.998-.186 2.091-.317 3.265-.379-1.575 1.585-1.486 3.396-1.48 3.488.017.264.236.466.498.466.011 0 .021 0 .032-.001.273-.016.483-.252.468-.527-.005-.086-.071-2.092 2.153-3.468 1.12.006 2.181.074 3.168.193-1.237.929-1.734 2.406-1.818 3.254-.026.275.174.52.449.547.015.001.032.002.05.002.254 0 .471-.193.497-.451.002-.026.279-2.518 2.536-3.078.891.177 1.7.395 2.416.647-.931.862-1.398 2.148-1.422 2.217-.092.261.046.546.307.637.049.018.106.028.165.028.207 0 .4-.129.472-.335.159-.454.733-1.644 1.563-2.114 1.566.723 2.465 1.607 2.465 2.449v5zM7 6.5c0-.901.324-1.387.584-1.777C7.816 4.374 8 4.099 8 3.5c0-.276.224-.5.5-.5s.5.224.5.5c0 .901-.324 1.387-.584 1.777C8.184 5.626 8 5.901 8 6.5c0 .276-.224.5-.5.5S7 6.776 7 6.5zm4 0c0-.901.324-1.387.584-1.777.232-.349.416-.624.416-1.223 0-.276.224-.5.5-.5s.5.224.5.5c0 .901-.324 1.387-.584 1.777-.232.349-.416.624-.416 1.223 0 .276-.224.5-.5.5s-.5-.224-.5-.5zm4 0c0-.901.324-1.387.584-1.777.232-.349.416-.624.416-1.223 0-.276.224-.5.5-.5s.5.224.5.5c0 .901-.324 1.387-.584 1.777-.232.349-.416.624-.416 1.223 0 .276-.224.5-.5.5s-.5-.224-.5-.5z"/></svg>