<svg xmlns="http://www.w3.org/2000/svg" viewBox="0 0 24 24"><path fill="#5c6671" d="M22 4h-4v-.187c0-.999-.746-1.851-1.735-1.982L2.665.018C2.586.007 2.494 0 2.401 0H2C.897 0 0 .897 0 2c0 .429.142.855.399 1.2l2.393 3.19C.995 8.335 0 10.837 0 13.5c0 4.271 2.567 7.947 6.236 9.586-.139.089-.236.237-.236.414 0 .276.224.5.5.5h8c.276 0 .5-.224.5-.5 0-.177-.097-.325-.236-.414C18.433 21.447 21 17.771 21 13.5c0-2.765-1.068-5.356-3-7.331V5h4c.552 0 1 .449 1 1v7.5c0 .276.224.5.5.5s.5-.224.5-.5V6c0-1.103-.897-2-2-2zM1 2c0-.551.448-1 1-1h.4c.046 0 .092.003.137.009l13.594 1.813c.495.066.868.492.868.991V6H3.749l-2.55-3.399c-.129-.173-.2-.386-.2-.601zm9.5 21C5.262 23 1 18.738 1 13.5c0-2.437.911-4.732 2.573-6.5h13.85C19.088 8.769 20 11.062 20 13.5c0 5.238-4.262 9.5-9.5 9.5zm-7.457-7.043c-.16.009-.307.095-.393.231s-.103.304-.042.454c1.3 3.255 4.397 5.359 7.892 5.359 4.687 0 8.5-3.813 8.5-8.5 0-.348-.027-.69-.069-1.03-.031-.258-.226-.473-.516-.439-3.887.151-6.032 1.099-8.107 2.017-1.99.879-3.871 1.71-7.265 1.909zm14.94-2.904c.011.148.017.297.017.447 0 4.136-3.364 7.5-7.5 7.5-2.851 0-5.402-1.587-6.678-4.099 3.138-.281 5.043-1.123 6.89-1.939 1.99-.88 3.876-1.713 7.271-1.909z"/></svg>