<svg xmlns="http://www.w3.org/2000/svg" viewBox="0 0 24 24"><path fill="#5c6671" d="M10.5 0C4.612 0 0 2.416 0 5.5c0 1.192.69 2.313 2 3.253V22c0 1.103.897 2 2 2h16c1.103 0 2-.897 2-2V8.753c1.31-.94 2-2.061 2-3.253C24 3.446 22.246 0 10.5 0zm-5 23H4c-.551 0-1-.449-1-1V8.491c0-.173-.088-.325-.221-.415C1.967 7.534 1 6.648 1 5.5 1 3.061 5.351 1 10.5 1S20 3.061 20 5.5c0 1.148-.967 2.034-1.777 2.575-.135.091-.223.243-.223.416V22c0 .551-.449 1-1 1H5.5zM21.223 8.075c-.135.091-.223.243-.223.416V22c0 .551-.449 1-1 1h-1.278c.172-.295.278-.634.278-1V8.753c1.31-.94 2-2.061 2-3.253 0-1.472-1.059-2.788-2.798-3.766C21.307 2.477 23 3.761 23 5.5c0 1.148-.967 2.034-1.777 2.575z"/></svg>