<svg xmlns="http://www.w3.org/2000/svg" viewBox="0 0 24 24"><path fill="#5c6671" d="M22 5h-4V2c0-1.103-.897-2-2-2H8C6.897 0 6 .897 6 2v3H2C.897 5 0 5.897 0 7v15c0 1.103.897 2 2 2h20c1.103 0 2-.897 2-2V7c0-1.103-.897-2-2-2zM7 2c0-.551.448-1 1-1h8c.552 0 1 .449 1 1v3h-1V2.5c0-.276-.224-.5-.5-.5h-7c-.276 0-.5.224-.5.5V5H7V2zm8 3H9V3h6v2zM2 6h20c.552 0 1 .449 1 1v5.11l-3 .75v-.36c0-.276-.224-.5-.5-.5h-4c-.276 0-.5.224-.5.5v.5H9v-.5c0-.276-.224-.5-.5-.5h-4c-.276 0-.5.224-.5.5v.36l-3-.75V7c0-.551.448-1 1-1zm14 7h3v1h-3v-1zm-8 1H5v-1h3v1zm14 9H2c-.552 0-1-.449-1-1v-8.86l3 .75v.61c0 .276.224.5.5.5h4c.276 0 .5-.224.5-.5V14h6v.5c0 .276.224.5.5.5h4c.276 0 .5-.224.5-.5v-.61l3-.75V22c0 .551-.448 1-1 1z"/></svg>