<svg xmlns="http://www.w3.org/2000/svg" viewBox="0 0 24 24"><path fill="#5c6671" d="M23.5 3H21V2c0-1.103-.897-2-2-2H5C3.897 0 3 .897 3 2v1H2C.897 3 0 3.897 0 5v3.229c0 .98.703 1.811 1.671 1.973l9.075 1.513c.66.11 1.135.641 1.219 1.289-1.087.019-1.966.906-1.966 1.997v7c0 1.103.897 2 2 2h1c1.103 0 2-.897 2-2v-7c0-1.103-.897-2-2-2h-.017c-.088-1.14-.927-2.081-2.072-2.271L1.835 9.217c-.484-.081-.836-.496-.836-.986v-3.23c0-.552.449-1 1-1h1v1c0 1.103.897 2 2 2h14c1.103 0 2-.897 2-2v-1h2.5c.276 0 .5-.224.5-.5s-.224-.5-.5-.5zM14 15v7c0 .552-.449 1-1 1h-1c-.551 0-1-.448-1-1v-7c0-.552.449-1 1-1h1c.551 0 1 .448 1 1zm6-10c0 .552-.449 1-1 1H5c-.551 0-1-.448-1-1V2c0-.552.449-1 1-1h14c.551 0 1 .448 1 1v3z"/></svg>