<svg xmlns="http://www.w3.org/2000/svg" viewBox="0 0 24 24"><path fill="#5c6671" d="M23.433 6.573L17.428.568c-.757-.757-2.074-.757-2.831 0L6.59 8.575c-.378.378-.586.881-.586 1.415s.208 1.037.586 1.415l.454.454c.297.297.461.693.461 1.114 0 .485-.229.951-.613 1.247l-5.82 4.483c-.032.025-.06.053-.084.084-.867.788-1.195 1.97-.856 3.11.279.938 1.035 1.694 1.973 1.973.297.088.596.13.89.13.829 0 1.62-.339 2.2-.966.038-.028.071-.061.099-.097l4.487-5.828c.553-.717 1.721-.792 2.36-.153l.454.454c.757.757 2.074.757 2.831 0l8.007-8.007c.378-.378.586-.881.586-1.415s-.208-1.037-.586-1.415zm-8.715 10.13c-.378.378-1.037.378-1.415 0l-.454-.454c-1.047-1.046-2.958-.924-3.861.25l-4.423 5.745c-.02.016-.037.034-.054.053-.534.62-1.328.848-2.122.613-.608-.18-1.118-.69-1.299-1.298-.237-.798-.006-1.593.618-2.126.016-.014.031-.029.045-.044l5.749-4.428c.628-.484 1.003-1.247 1.003-2.04 0-.688-.268-1.335-.754-1.821l-.454-.454c-.189-.189-.293-.44-.293-.708s.104-.519.293-.708l1.648-1.648 7.421 7.421-1.648 1.648zm8.007-8.007l-5.651 5.651-7.421-7.421 5.651-5.651c.378-.378 1.037-.378 1.415 0l.647.647-5.212 5.212c-.195.195-.195.512 0 .708.098.098.226.147.354.147s.256-.049.354-.147l5.212-5.212 1.294 1.294-5.212 5.212c-.195.195-.195.512 0 .708.098.098.226.147.354.147s.256-.049.354-.147l5.212-5.212 1.294 1.294-5.212 5.212c-.195.195-.195.512 0 .708.098.098.226.147.354.147s.256-.049.354-.147l5.212-5.212.647.647c.189.189.293.44.293.708s-.104.519-.293.708zM3.001 19.998c-.552 0-1.001.449-1.001 1.001S2.449 22 3.001 22s1.001-.449 1.001-1.001-.449-1.001-1.001-1.001zm.001 1.001v-.001l.5.001h-.5z"/></svg>