<svg xmlns="http://www.w3.org/2000/svg" viewBox="0 0 24 24"><path fill="#5c6671" d="M22 11.5c0-.401-.156-.778-.44-1.062L14 2.878v-.879c0-1.103-.897-2-2-2h-2c-1.103 0-2 .897-2 2v3.879l-7.56 7.56c-.284.283-.44.66-.44 1.062s.156.778.439 1.061l8 8c.283.283.66.439 1.061.439s.777-.156 1.061-.439L21.56 12.562c.284-.283.44-.66.44-1.062zM9 2c0-.552.449-1 1-1h2c.551 0 1 .448 1 1v.108c-.53-.179-1.153-.076-1.561.332L9 4.879V2zm11.854 9.854l-11 11c-.189.189-.518.189-.707 0l-8-8.001c-.094-.094-.146-.219-.146-.353s.052-.259.146-.354l11-11c.095-.095.22-.146.354-.146s.259.052.354.146l.146.146v6.207c0 .276.224.5.5.5s.5-.224.5-.5V4.292l6.854 6.854v.001c.094.094.146.219.146.353s-.052.259-.146.354zm1.058 2.362c-.188-.27-.636-.27-.823 0-.349.505-2.088 3.085-2.088 4.284 0 1.379 1.122 2.5 2.5 2.5s2.5-1.121 2.5-2.5c0-1.199-1.74-3.779-2.088-4.284zM21.5 20c-.827 0-1.5-.673-1.5-1.5 0-.546.78-1.972 1.5-3.096.72 1.124 1.5 2.549 1.5 3.096 0 .827-.673 1.5-1.5 1.5z"/></svg>