<svg xmlns="http://www.w3.org/2000/svg" viewBox="0 0 18 24"><path fill="#5c6671" d="M17.854 16.146l-1.432-1.432-1.462-3.412c-.05-.118-.145-.212-.263-.263l-3.236-1.387c-.017-.09-.046-.182-.075-.275l3.311-1.419c.131-.057.232-.166.277-.302l.935-2.804 1.815-.907c.247-.124.347-.424.224-.671s-.424-.348-.671-.224l-2 1c-.119.06-.209.163-.25.289l-.929 2.787-3.183 1.364c-.113-.145-.239-.28-.381-.402.175-.299.467-.899.467-1.591 0-.441-.095-.89-.276-1.286.436-.345.828-.97 1.281-1.703.692-1.119 1.553-2.512 2.495-2.512.276 0 .5-.224.5-.5s-.224-.5-.5-.5c-1.5 0-2.523 1.655-3.346 2.985-.289.467-.74 1.194-1.023 1.433-.303-.255-.679-.419-1.131-.419s-.828.163-1.131.418c-.283-.239-.735-.966-1.023-1.433C6.024 1.65 5.001-.005 3.501-.005c-.276 0-.5.224-.5.5s.224.5.5.5c.942 0 1.803 1.393 2.495 2.512.453.733.845 1.358 1.281 1.703-.181.395-.276.845-.276 1.286 0 .691.292 1.291.467 1.591-.142.122-.268.257-.381.402L3.904 7.125l-.929-2.787c-.042-.126-.132-.229-.25-.289l-2-1c-.247-.124-.547-.022-.671.224s-.023.547.224.671l1.815.907.935 2.804c.045.136.146.245.277.302l3.311 1.419c-.029.093-.058.184-.075.275l-3.236 1.387c-.118.051-.212.145-.263.263L1.58 14.713.148 16.145c-.195.195-.195.512 0 .707.098.098.226.146.354.146s.256-.049.354-.146l1.5-1.5c.045-.045.081-.098.106-.156l1.421-3.316 2.704-1.159c.028.137.061.272.097.404-.032.027-.066.051-.091.087l-3.5 5c-.056.08-.09.18-.09.287v3.849l-1.916 2.874c-.153.229-.091.54.139.693.085.057.182.084.277.084.162 0 .32-.078.417-.223l2-3c.053-.078.084-.174.084-.277v-3.843l3.086-4.408c.002.003.005.005.006.008-.666 1.001-1.093 2.507-1.093 4.243 0 3.084 1.318 5.5 3 5.5s3-2.416 3-5.5c0-1.732-.425-3.234-1.088-4.235l.006-.009 3.082 4.402V20.5c0 .099.029.195.084.277l2 3c.096.145.255.223.417.223.095 0 .191-.027.277-.084.23-.153.292-.464.139-.693l-1.916-2.874V16.5c0-.107-.034-.207-.091-.289l-3.499-4.998c-.025-.036-.059-.06-.091-.087.036-.132.069-.267.097-.404l2.704 1.159 1.421 3.316c.025.059.061.111.106.156l1.5 1.5c.098.098.226.146.354.146s.256-.049.354-.146c.195-.195.195-.512 0-.707zM9 11c-.421 0-.819.152-1.18.427-.145-.421-.32-1.022-.32-1.427 0-.515.584-1.5 1.5-1.5s1.5.985 1.5 1.5c0 .404-.175 1.005-.321 1.427C9.819 11.152 9.421 11 9 11zM8 6.5c0-.242.072-.766.323-1.125.028-.024.049-.051.071-.079.147-.172.34-.295.606-.295.269 0 .464.126.612.302.02.026.04.05.065.072.252.36.324.884.324 1.126 0 .482-.229.92-.342 1.107-.207-.063-.423-.107-.658-.107s-.451.044-.658.107c-.113-.188-.342-.628-.342-1.107zM9 21c-.946 0-2-1.848-2-4.5S8.054 12 9 12s2 1.848 2 4.5S9.946 21 9 21z"/></svg>