<svg xmlns="http://www.w3.org/2000/svg" viewBox="0 0 24 24"><path fill="#5c6671" d="M22 14H2c-1.103 0-2 .897-2 2s.897 2 2 2h4.53l.917 1H1.5c-.173 0-.334.09-.426.237s-.099.332-.021.486L2.5 22.618C2.927 23.471 3.783 24 4.736 24h14.527c.953 0 1.81-.529 2.236-1.382l1.447-2.895c.077-.155.069-.339-.021-.486S22.672 19 22.499 19H11.4l.833-1h9.766c1.103 0 2-.897 2-2s-.897-2-2-2zM9.482 19.741L5.136 15h8.296l-3.95 4.741zM2 17c-.552 0-1-.449-1-1s.448-1 1-1h1.78l1.833 2H1.999zm19.691 3l-1.086 2.171c-.256.511-.77.829-1.342.829H4.736c-.572 0-1.086-.318-1.342-.829L2.308 20h6.055l.768.838c.092.1.223.162.368.162h.012c.145-.003.28-.069.372-.18l.684-.82h11.124zM22 17h-8.933l1.667-2H22c.552 0 1 .449 1 1s-.448 1-1 1zM0 11.5c0-.276.224-.5.5-.5 1.081 0 1.647.296 2.147.557.455.238.849.443 1.684.443s1.229-.206 1.684-.443c.5-.261 1.066-.557 2.146-.557s1.647.296 2.147.557c.455.238.849.443 1.684.443s1.229-.206 1.685-.443c.5-.261 1.066-.557 2.147-.557s1.649.296 2.15.557c.456.238.851.443 1.688.443s1.231-.206 1.688-.443c.501-.261 1.068-.557 2.15-.557.276 0 .5.224.5.5s-.224.5-.5.5c-.837 0-1.231.206-1.688.443-.501.261-1.068.557-2.15.557s-1.649-.296-2.15-.557c-.456-.238-.851-.443-1.688-.443-.835 0-1.229.206-1.685.443-.5.261-1.066.557-2.147.557s-1.646-.296-2.146-.557C9.391 12.205 8.997 12 8.161 12s-1.229.206-1.684.443c-.5.261-1.066.557-2.147.557s-1.646-.296-2.146-.557C1.729 12.205 1.335 12 .499 12c-.276 0-.5-.224-.5-.5zM.786 10h22.428c.157 0 .297-.073.389-.186.096-.119.132-.274.099-.422C22.494 3.95 17.572 0 12 0S1.506 3.95.298 9.392c-.032.148.003.303.099.421.092.114.233.187.39.187zM12 1c4.897 0 9.246 3.329 10.572 8H1.427c1.326-4.671 5.675-8 10.572-8z"/></svg>