<svg xmlns="http://www.w3.org/2000/svg" viewBox="0 0 24 24"><path fill="#5c6671" d="M21.5 4H21V2c0-1.103-.897-2-2-2H5C3.897 0 3 .897 3 2v2h-.5C1.122 4 0 5.122 0 6.5v1C0 8.327.673 9 1.5 9H3v11c0 .737.405 1.375 1 1.722V22c0 1.103.897 2 2 2s2-.897 2-2h8c0 1.103.897 2 2 2s2-.897 2-2v-.278c.595-.347 1-.985 1-1.722V9h1.5c.827 0 1.5-.673 1.5-1.5v-1C24 5.122 22.878 4 21.5 4zm-20 4c-.276 0-.5-.224-.5-.5v-1C1 5.673 1.673 5 2.5 5H3v3H1.5zM6 23c-.551 0-1-.449-1-1h2c0 .551-.449 1-1 1zm12 0c-.551 0-1-.449-1-1h2c0 .551-.449 1-1 1zm2-3c0 .551-.449 1-1 1H5c-.551 0-1-.449-1-1V2c0-.551.449-1 1-1h14c.551 0 1 .449 1 1v18zm3-12.5c0 .276-.224.5-.5.5H21V5h.5c.827 0 1.5.673 1.5 1.5v1zM10.5 18c-.276 0-.5-.224-.5-.5s.224-.5.5-.5h3c.276 0 .5.224.5.5s-.224.5-.5.5h-3zm4 1.5c0 .276-.224.5-.5.5h-4c-.276 0-.5-.224-.5-.5s.224-.5.5-.5h4c.276 0 .5.224.5.5zM7 16c-1.103 0-2 .897-2 2s.897 2 2 2 2-.897 2-2-.897-2-2-2zm0 3c-.551 0-1-.449-1-1s.449-1 1-1 1 .449 1 1-.449 1-1 1zm10-3c-1.103 0-2 .897-2 2s.897 2 2 2 2-.897 2-2-.897-2-2-2zm0 3c-.551 0-1-.449-1-1s.449-1 1-1 1 .449 1 1-.449 1-1 1zm1.5-15h-13c-.276 0-.5.224-.5.5v9c0 1.305 4.386 1.5 7 1.5s7-.195 7-1.5v-9c0-.276-.224-.5-.5-.5zm-.5 9.346c-.467.252-2.5.654-6 .654s-5.533-.402-6-.654V5h12v8.346z"/></svg>