<svg xmlns="http://www.w3.org/2000/svg" viewBox="0 0 24 24"><path fill="#5c6671" d="M23.415.008L16.29 1.247C16.029.803 15.552.5 15.001.5c-.734 0-1.343.53-1.472 1.227l-3.188.554c-.256-.463-.743-.781-1.308-.781-.747 0-1.363.55-1.476 1.266L.417 4.008c-.272.047-.455.306-.407.578.042.243.253.415.492.415.03 0 .06-.003.089-.008l7.151-1.244c.26.447.739.751 1.292.751.118 0 .231-.017.341-.043l1.813 2.72c-.697.313-1.185 1.01-1.185 1.822h-5c-1.103 0-2 .897-2 2v11c0 1.103.897 2 2 2h14c1.103 0 2-.897 2-2v-11c0-1.103-.897-2-2-2h-5c0-.835-.515-1.55-1.244-1.849l1.982-3.677c.085.015.172.026.262.026.749 0 1.366-.553 1.477-1.271L23.589.992c.272-.047.455-.306.407-.578s-.309-.455-.578-.407zm-12.911 3.26l3.185-.554c.052.094.112.182.181.262L11.954 6.53l-1.743-2.616c.145-.187.249-.405.292-.647zM8.531 3c0-.276.224-.5.5-.5s.5.224.5.5-.224.5-.5.5-.5-.224-.5-.5zM4 13h2v5H4v-5zm6 10V13h4v10h-4zm10-5h-2v-5h2v5zm-1-8c.551 0 1 .449 1 1v1h-2.5c-.276 0-.5.224-.5.5v6c0 .276.224.5.5.5H20v3c0 .551-.449 1-1 1h-4V12.5c0-.276-.224-.5-.5-.5h-5c-.276 0-.5.224-.5.5V23H5c-.551 0-1-.449-1-1v-3h2.5c.276 0 .5-.224.5-.5v-6c0-.276-.224-.5-.5-.5H4v-1c0-.551.449-1 1-1h14zm-8-1c0-.551.449-1 1-1s1 .449 1 1h-2zm4-6.5c-.276 0-.5-.224-.5-.5s.224-.5.5-.5.5.224.5.5-.224.5-.5.5z"/></svg>