<svg xmlns="http://www.w3.org/2000/svg" viewBox="0 0 18 24"><path fill="#5c6671" d="M16 0H2C.897 0 0 .897 0 2v20c0 1.103.897 2 2 2h14c1.103 0 2-.897 2-2V2c0-1.103-.897-2-2-2zm1 22c0 .551-.449 1-1 1H2c-.551 0-1-.449-1-1V2c0-.551.449-1 1-1h14c.551 0 1 .449 1 1v20zM15.5 2h-13c-.276 0-.5.224-.5.5v9c0 .276.224.5.5.5h13c.276 0 .5-.224.5-.5v-9c0-.276-.224-.5-.5-.5zm-.5 9H3V3h12v8zM4.5 13h-1c-.827 0-1.5.673-1.5 1.5v1c0 .827.673 1.5 1.5 1.5h1c.827 0 1.5-.673 1.5-1.5v-1c0-.827-.673-1.5-1.5-1.5zm.5 2.5c0 .276-.224.5-.5.5h-1c-.276 0-.5-.224-.5-.5v-1c0-.276.224-.5.5-.5h1c.276 0 .5.224.5.5v1zM9.5 13h-1c-.827 0-1.5.673-1.5 1.5v1c0 .827.673 1.5 1.5 1.5h1c.827 0 1.5-.673 1.5-1.5v-1c0-.827-.673-1.5-1.5-1.5zm.5 2.5c0 .276-.224.5-.5.5h-1c-.276 0-.5-.224-.5-.5v-1c0-.276.224-.5.5-.5h1c.276 0 .5.224.5.5v1zm4.5-2.5h-1c-.827 0-1.5.673-1.5 1.5v1c0 .827.673 1.5 1.5 1.5h1c.827 0 1.5-.673 1.5-1.5v-1c0-.827-.673-1.5-1.5-1.5zm.5 2.5c0 .276-.224.5-.5.5h-1c-.276 0-.5-.224-.5-.5v-1c0-.276.224-.5.5-.5h1c.276 0 .5.224.5.5v1zM4.5 18h-1c-.827 0-1.5.673-1.5 1.5v1c0 .827.673 1.5 1.5 1.5h1c.827 0 1.5-.673 1.5-1.5v-1c0-.827-.673-1.5-1.5-1.5zm.5 2.5c0 .276-.224.5-.5.5h-1c-.276 0-.5-.224-.5-.5v-1c0-.276.224-.5.5-.5h1c.276 0 .5.224.5.5v1zM9.5 18h-1c-.827 0-1.5.673-1.5 1.5v1c0 .827.673 1.5 1.5 1.5h1c.827 0 1.5-.673 1.5-1.5v-1c0-.827-.673-1.5-1.5-1.5zm.5 2.5c0 .276-.224.5-.5.5h-1c-.276 0-.5-.224-.5-.5v-1c0-.276.224-.5.5-.5h1c.276 0 .5.224.5.5v1zm4.5-2.5h-1c-.827 0-1.5.673-1.5 1.5v1c0 .827.673 1.5 1.5 1.5h1c.827 0 1.5-.673 1.5-1.5v-1c0-.827-.673-1.5-1.5-1.5zm.5 2.5c0 .276-.224.5-.5.5h-1c-.276 0-.5-.224-.5-.5v-1c0-.276.224-.5.5-.5h1c.276 0 .5.224.5.5v1z"/></svg>