<svg xmlns="http://www.w3.org/2000/svg" viewBox="0 0 24 24"><path fill="#5c6671" d="M23.854 4.854c.195-.195.195-.51.001-.706 0 0-.224-.226-.605-.57l.164-.164c.195-.195.195-.512 0-.707L21.293.586c-.195-.195-.512-.195-.707 0l-.574.574C18.69.39 17.511 0 16.5 0h-2c-.202 0-.385.122-.462.309s-.035.402.108.545l3.086 3.086-1.293 1.293-3.086-3.086c-.143-.142-.358-.185-.545-.108s-.309.26-.309.462v2c0 1.143.506 2.379 1.162 3.509L.585 20.587c-.378.378-.586.88-.586 1.414 0 1.103.897 2 2 2 .534 0 1.036-.208 1.414-.586l12.163-12.163c.314.346.535.568.571.604.097.096.225.145.352.145s.256-.049.354-.146l.67-.67c.433.341 1.18.816 1.977.816h2c.202 0 .385-.122.462-.309s.035-.402-.108-.545l-3.086-3.086 1.293-1.293 3.086 3.086c.09.09.215.146.354.146.064 0 .129-.012.191-.038.187-.077.309-.26.309-.462v-2c0-.797-.475-1.543-.816-1.977l.67-.67zM2.707 22.707c-.189.189-.44.293-.707.293-.551 0-1-.449-1-1 0-.267.104-.518.293-.707L13.707 8.879c.001.002.002.003.003.005.407.604.83 1.151 1.211 1.609L2.707 22.707zM19.5 11c-.645 0-1.408-.617-1.647-.854-.098-.097-.226-.146-.354-.146s-.256.048-.353.146l-.639.639c-.161-.173-.37-.407-.604-.68-.056-.065-.136-.16-.215-.255-.059-.072-.087-.105-.117-.142-.129-.158-.265-.33-.404-.512l-.048-.063c-.301-.397-.615-.84-.905-1.308-.001-.001-.002-.001-.002-.002C13.539 6.741 13 5.55 13 4.5v-.793L20.293 11H19.5zm-2.854-5.061l1.293-1.293 1.414 1.414-1.293 1.293-1.414-1.414zM23 8.293L15.707 1h.793c.907 0 2.026.409 3.325 1.215.198.123.454.093.617-.071l.497-.497 1.414 1.414-.186.186c-.098.098-.151.233-.146.372.005.144.071.272.172.36.237.205.437.386.592.53l-.639.639c-.195.195-.195.511 0 .707.237.239.854 1.002.854 1.647v.793z"/></svg>