<svg xmlns="http://www.w3.org/2000/svg" viewBox="0 0 24 24"><path fill="#5c6671" d="M19.592 5.508c-.729-.136-.925-.582-1.186-1.299-.132-.364-.269-.741-.531-1.039C17.025 2.203 15.299 2 14 2s-3.025.203-3.875 1.17c-.262.298-.399.675-.531 1.04-.26.717-.457 1.163-1.093 1.291-.116 0-.29.001-.5.006v-.006c0-.827-.673-1.5-1.5-1.5h-1c-.827 0-1.5.673-1.5 1.5v.391c-1.265.248-2.42.651-2.903 1.315C-.01 8.726-.006 9.468.001 10.697l.001 8.805c0 1.378 1.122 2.5 2.5 2.5H5c.638 0 1.537-.384 1.87-1h15.131c1.103 0 2-.897 2-2v-9.5c0-1.905-2.653-3.664-4.408-3.992zM5.002 5.5c0-.276.224-.5.5-.5h1c.276 0 .5.224.5.5v.043c-.595.032-1.291.088-2 .183V5.5zM23 19c0 .551-.449 1-1 1h-4.414c2.04-1.225 3.413-3.452 3.413-6 0-3.86-3.14-7-6.999-7s-7 3.14-7 7c0 2.548 1.373 4.775 3.413 6H6.5c-.276 0-.5.223-.5.499-.022.162-.59.501-1 .501H2.502c-.827 0-1.5-.673-1.5-1.5l-.001-8.81c-.006-1.162-.009-1.642.905-2.896.687-.942 4.41-1.294 6.687-1.303 1.327-.248 1.682-1.227 1.941-1.941.105-.29.205-.564.342-.72.464-.527 1.603-.83 3.125-.83s2.661.303 3.124.83c.137.156.237.43.342.72.26.715.615 1.694 1.942 1.941C20.794 6.749 23 8.231 23 9.499v9.5zm-9.001 1c-3.308 0-6-2.691-6-6s2.691-6 6-6 5.999 2.691 5.999 6-2.691 6-5.999 6zM4 9c-.551 0-1 .449-1 1s.448 1 1 1 1-.449 1-1-.449-1-1-1zm0 1v-.001l.5.001H4zm13.001-4.5c0 .276-.224.5-.5.5h-4.999c-.276 0-.5-.224-.5-.5s.224-.5.5-.5h4.999c.276 0 .5.224.5.5zM13.999 9c-2.757 0-5 2.243-5 5s2.243 5 5 5 5-2.243 5-5-2.243-5-5-5zm0 9c-2.206 0-4-1.794-4-4s1.794-4 4-4 4 1.794 4 4-1.794 4-4 4zm.5-6.5c0 .276-.224.5-.5.5-1.103 0-2 .897-2 2 0 .276-.224.5-.5.5s-.5-.224-.5-.5c0-1.654 1.346-3 3-3 .276 0 .5.224.5.5z"/></svg>