<svg xmlns="http://www.w3.org/2000/svg" viewBox="0 0 24 24"><path fill="#5c6671" d="M22 5h-5.191l-.862-1.724C15.862 3.107 15.689 3 15.5 3h-7c-.189 0-.362.107-.447.276L7.191 5H2C.897 5 0 5.897 0 7v12c0 1.103.897 2 2 2h20c1.103 0 2-.897 2-2V7c0-1.103-.897-2-2-2zm1 14c0 .551-.449 1-1 1H2c-.551 0-1-.449-1-1V7c0-.551.449-1 1-1h5.5c.189 0 .362-.107.447-.276L8.809 4h6.382l.862 1.724c.085.169.258.276.447.276H22c.551 0 1 .449 1 1v12zM12 7c-3.309 0-6 2.691-6 6s2.691 6 6 6 6-2.691 6-6-2.691-6-6-6zm0 11c-2.757 0-5-2.243-5-5s2.243-5 5-5 5 2.243 5 5-2.243 5-5 5zm0-9c-2.206 0-4 1.794-4 4s1.794 4 4 4 4-1.794 4-4-1.794-4-4-4zm0 7c-1.654 0-3-1.346-3-3s1.346-3 3-3 3 1.346 3 3-1.346 3-3 3z"/></svg>