<svg xmlns="http://www.w3.org/2000/svg" viewBox="0 0 24 24"><path fill="#5c6671" d="M21.916 12.034c-1.053-.169-2.102.338-2.61 1.268-.236.431-.72.698-1.265.698h-2.133c-.154-.425-.483-.753-.897-.905l-.01-1.188c.581-.207 1-.757 1-1.408v-.592c.581-.207 1-.757 1-1.408v-1.5c1.103 0 2-.897 2-2v-3c0-1.103-.897-2-2-2h-10c-1.103 0-2 .897-2 2v3c0 1.103.897 2 2 2v1.5c0 .651.419 1.201 1 1.408v.592c0 .651.419 1.201 1 1.408v1.184c-.425.154-.753.483-.905.897l-4.595.01c-1.93 0-3.5 1.57-3.5 3.5v2c0 1.93 1.57 3.5 3.5 3.5h4.592c.207.581.757 1 1.408 1h5c.651 0 1.201-.419 1.408-1h4.592c1.93 0 3.5-1.57 3.5-3.5v-4.893c0-1.273-.896-2.379-2.084-2.573zM10 13v-1h4v1h-4zm5-2.5c0 .276-.224.5-.5.5h-5c-.276 0-.5-.224-.5-.5V10h6v.5zm1-2c0 .276-.224.5-.5.5h-7c-.276 0-.5-.224-.5-.5V7h8v1.5zM16 6h-2V1h2v5zm-3 0h-2V1h2v5zm-3 0H8V1h2v5zm8-4v3c0 .551-.449 1-1 1V1c.551 0 1 .449 1 1zM6 5V2c0-.551.449-1 1-1v5c-.551 0-1-.449-1-1zM1 19.5v-2C1 16.122 2.122 15 3.5 15H8v7H3.5C2.122 22 1 20.878 1 19.5zM14.5 23h-5c-.276 0-.5-.224-.5-.5v-8c0-.276.224-.5.5-.5h5c.276 0 .5.224.5.5v8c0 .276-.224.5-.5.5zm8.5-3.5c0 1.378-1.122 2.5-2.5 2.5H16v-7h2.041c.91 0 1.731-.467 2.142-1.218.31-.567.927-.867 1.573-.761.709.115 1.244.797 1.244 1.586V19.5zM5.5 17h-2c-.276 0-.5.224-.5.5v2c0 .276.224.5.5.5h2c.276 0 .5-.224.5-.5v-2c0-.276-.224-.5-.5-.5zM5 19H4v-1h1v1zm8.493-2.582l.5 3c.045.272-.139.53-.411.575-.028.005-.055.007-.083.007-.24 0-.452-.173-.493-.418L12.576 17h-1.153l-.43 2.582c-.045.272-.306.459-.575.411-.272-.045-.457-.303-.411-.575l.5-3c.04-.241.249-.418.493-.418h2c.245 0 .453.177.493.418zM21 15c-.551 0-1 .449-1 1s.449 1 1 1 1-.449 1-1-.449-1-1-1zm0 1v-.001l.5.001h-.499z"/></svg>