<svg xmlns="http://www.w3.org/2000/svg" viewBox="0 0 18 24"><path fill="#5c6671" d="M17.5 2c-.92 0-1.791.709-2.559 1.334-.269.219-.656.534-.857.635-.098-.131-.242-.388-.362-.604C13.064 2.189 11.841 0 9 0S4.936 2.189 4.278 3.365c-.12.214-.263.471-.361.602-.209-.104-.592-.416-.859-.633C2.29 2.709 1.419 2 .499 2c-.276 0-.5.224-.5.5 0 .676.437 3.541.803 5.825C.957 9.296 1.787 10 2.775 10h.264l.847 10.166c.059.714.504 1.313 1.113 1.617v.216c0 1.103.897 2 2 2h4c1.103 0 2-.897 2-2v-.216c.609-.304 1.053-.904 1.113-1.617L14.959 10h.264c.988 0 1.818-.705 1.973-1.675.366-2.284.803-5.148.803-5.825 0-.276-.224-.5-.5-.5zM11 23H7c-.551 0-1-.449-1-1h6c0 .551-.449 1-1 1zm1.12-2H5.881c-.516 0-.954-.403-.997-.917L4.544 16h8.914l-.34 4.083c-.043.514-.481.917-.997.917zm1.42-6H4.46l-.416-5h9.913l-.416 5zm2.67-6.834c-.077.483-.492.834-.986.834H2.776c-.494 0-.909-.351-.986-.834-.376-2.345-.632-4.092-.737-5.019.453.212.95.617 1.374.962C3.038 4.607 3.52 5 4 5c.51 0 .779-.481 1.151-1.147C5.786 2.717 6.747 1 9 1s3.214 1.717 3.849 2.853C13.221 4.519 13.49 5 14 5c.479 0 .962-.393 1.573-.891.424-.345.921-.75 1.374-.962-.105.927-.361 2.674-.737 5.019zM6 13.5v-2c0-.276.224-.5.5-.5s.5.224.5.5v2c0 .276-.224.5-.5.5s-.5-.224-.5-.5zm2.5 0v-2c0-.276.224-.5.5-.5s.5.224.5.5v2c0 .276-.224.5-.5.5s-.5-.224-.5-.5zm2.5 0v-2c0-.276.224-.5.5-.5s.5.224.5.5v2c0 .276-.224.5-.5.5s-.5-.224-.5-.5z"/></svg>