<svg xmlns="http://www.w3.org/2000/svg" viewBox="0 0 24 24"><path fill="#5c6671" d="M22 1H9V.5c0-.276-.224-.5-.5-.5h-5c-.276 0-.5.224-.5.5V1H2C.897 1 0 1.897 0 3v19c0 1.103.897 2 2 2h20c1.103 0 2-.897 2-2V3c0-1.103-.897-2-2-2zM1 11h3.263C4.097 11.641 4 12.308 4 13s.097 1.359.263 2H1v-4zm11-5c3.86 0 7 3.14 7 7s-3.14 7-7 7-7-3.14-7-7 3.14-7 7-7zm7.737 5H23v4h-3.263c.166-.641.263-1.308.263-2s-.097-1.359-.263-2zM2 2h1.5c.276 0 .5-.224.5-.5V1h4v.5c0 .276.224.5.5.5H22c.551 0 1 .449 1 1v7h-3.5c-.029 0-.055.012-.083.017C18.231 7.08 15.356 5 12 5s-6.232 2.08-7.417 5.017C4.555 10.012 4.53 10 4.5 10H1V3c0-.551.449-1 1-1zm20 21H2c-.551 0-1-.449-1-1v-6h3.5c.029 0 .055-.012.083-.017C5.769 18.92 8.644 21 12 21s6.232-2.08 7.417-5.017c.028.005.053.017.083.017H23v6c0 .551-.449 1-1 1zM18.5 6h2c.276 0 .5-.224.5-.5v-2c0-.276-.224-.5-.5-.5h-2c-.276 0-.5.224-.5.5v2c0 .276.224.5.5.5zm.5-2h1v1h-1V4zM8.5 13.5c-.276 0-.5-.224-.5-.5 0-2.206 1.794-4 4-4 .276 0 .5.224.5.5s-.224.5-.5.5c-1.654 0-3 1.346-3 3 0 .276-.224.5-.5.5zM12 19c3.309 0 6-2.691 6-6s-2.691-6-6-6-6 2.691-6 6 2.691 6 6 6zm0-11c2.757 0 5 2.243 5 5s-2.243 5-5 5-5-2.243-5-5 2.243-5 5-5z"/></svg>