<svg xmlns="http://www.w3.org/2000/svg" viewBox="0 0 24 24"><path fill="#5c6671" d="M23.914 21.22l-11.3-16.705L13.9 2.8c.166-.221.121-.534-.1-.7s-.533-.122-.7.1L12 3.666 10.9 2.2c-.167-.222-.479-.266-.7-.1s-.266.479-.1.7l1.286 1.715L.086 21.22c-.104.153-.114.351-.027.515s.256.266.441.266h23c.185 0 .355-.102.441-.266s.076-.361-.027-.515zM11.5 13.043V21H8.245l3.255-7.957zM8 18.957v-4.232l2.721-2.419L8 18.957zm3.5-12.825v4.144l-4.332 3.851c-.103.092-.168.225-.168.374v6.5H1.442L11.5 6.133zM12.5 21V6.132L22.558 21H12.5z"/></svg>