<svg xmlns="http://www.w3.org/2000/svg" viewBox="0 0 12 24"><path fill="#5c6671" d="M11.99 5.776l-.001-.002c0-.001.001-.002.001-.003C11.876 2.767 9.536.298 6.547.027h-.002C6.366.01 6.184 0 5.999 0 3.36 0 1.06 1.691.271 4.208v.001C.09 4.788-.001 5.391-.001 6v1.5c0 1.378 1.121 2.5 2.5 2.5s2.5-1.122 2.5-2.5V6c0-.656.588-1.206 1.332-.937h.001c.398.142.667.518.667.937v15.5c0 1.378 1.121 2.5 2.5 2.5s2.5-1.122 2.5-2.5V6l-.01-.224zM11 11.653l-3 1.125V7.829l3-1.285v5.109zm-3 2.194l3-1.125v4.932l-3 1.125v-4.932zm2.966-8.376L8 6.741v-.742c0-.718-.39-1.374-1-1.726V1.102c2.115.431 3.736 2.202 3.966 4.368zM2.5 9C1.673 9 1 8.327 1 7.5V6c0-.296.026-.59.077-.88L4 6.79v.71C4 8.327 3.327 9 2.5 9zm1.529-3.345L1.361 4.13C2.118 2.242 3.935 1 6 1v3c-.985 0-1.807.716-1.971 1.655zM11 21.5c0 .827-.673 1.5-1.5 1.5S8 22.327 8 21.5v-1.653l3-1.125V21.5z"/></svg>