<svg xmlns="http://www.w3.org/2000/svg" viewBox="0 0 24 24"><path fill="#5c6671" d="M17.995 3.614c-.045-.177-.179-.324-.369-.368l-1.031-.234c-.198-.044-.393.036-.507.188-.479-.072-.988-.122-1.526-.152-.341-.03-.693-.048-1.061-.048-5.255 0-6.507 1.975-7.95 8.717l-4.355 3.387C.456 15.672.001 16.883.001 17.5v.5c0 1.103.897 2 2 2 1.843 0 4.187-2.037 4.728-2.53.19.144.375.284.576.439C9.269 19.429 11.299 21 13.501 21c4.094 0 6.621-3.107 7.264-4h1.385c.749 0 1.373-.536 1.483-1.273.168-1.125.368-2.772.368-4.227 0-1.165-.352-6.14-6.005-7.886zM13.5 4c.322 0 .611.023.912.038 1.909.156 3.328.82 4.221 1.982 1.347 1.754 1.523 4.673.551 8.657-2.759-1.621-8.084-3.045-12.566-3.168C8.014 5.141 9.131 4 13.501 4zM2 19c-.552 0-1-.449-1-1v-.5c0-.336.338-1.24.803-1.601 1.105-.819 2.368-.269 4.102.966C5.053 17.619 3.24 19 2 19zm11.5 1c-1.86 0-3.754-1.465-5.584-2.881-1.466-1.135-2.964-2.288-4.405-2.55l2.655-2.065c6.215.044 12.618 2.546 13.739 3.971C19.281 17.31 16.999 20 13.5 20zm9.144-4.421c-.037.244-.245.421-.495.421h-1.357c-.166-.242-.415-.486-.721-.729 1.148-4.479.938-7.801-.644-9.861-.059-.076-.127-.142-.189-.215 3.398 1.778 3.764 5.05 3.764 6.304 0 1.393-.194 2.987-.356 4.079z"/></svg>