<svg xmlns="http://www.w3.org/2000/svg" viewBox="0 0 18 24"><path fill="#5c6671" d="M4 8c1.318 0 2.527-.646 3.27-1.719l.953.635c.154.102.351.112.514.025s.264-.256.264-.441V6h1.293l.854.854c.195.195.512.195.707 0l.646-.647.646.646c.195.195.512.195.707 0l.646-.646.646.646c.195.195.512.195.707 0l2-2c.195-.195.195-.512 0-.707l-2-2c-.09-.09-.215-.146-.353-.146H7.452C6.736.758 5.441 0 4 0 1.794 0 0 1.794 0 4s1.794 4 4 4zm0-7c1.159 0 2.193.657 2.699 1.716.083.173.259.284.451.284h8.143l1.5 1.5L15.5 5.793l-.646-.646c-.195-.195-.512-.195-.707 0l-.646.646-.646-.646c-.195-.195-.512-.195-.707 0l-.646.646-.646-.646c-.09-.091-.215-.146-.353-.146h-2c-.276 0-.5.224-.5.5v.066l-.612-.408c-.118-.079-.265-.105-.404-.067-.139.036-.254.13-.319.257-.517 1.019-1.537 1.652-2.664 1.652-1.654 0-3-1.346-3-3s1.346-3 3-3zM3 5c.552 0 1-.449 1-1s-.448-1-1-1-1 .449-1 1 .448 1 1 1zm0-1.001zm13.437 11.187l-1.168-4.671C15.045 9.623 14.248 9 13.329 9H4.671c-.919 0-1.717.623-1.94 1.515l-1.168 4.671C.648 15.558 0 16.453 0 17.5v2c0 .815.397 1.532 1.002 1.989 0 .004-.002.007-.002.011v.5c0 1.103.897 2 2 2s2-.897 2-2h8c0 1.103.897 2 2 2s2-.897 2-2v-.5c0-.004-.002-.007-.002-.011C17.603 21.032 18 20.314 18 19.5v-2c0-1.047-.648-1.942-1.563-2.314zM3.701 10.757c.112-.438.503-.757.968-.757H13.329c.466 0 .857.319.967.75L15.358 15H2.639L3.7 10.757zM3 23c-.552 0-1-.449-1-1h2c0 .551-.448 1-1 1zm13-1c0 .551-.448 1-1 1s-1-.449-1-1h2zm1-2.5c0 .827-.673 1.5-1.5 1.5h-13c-.827 0-1.5-.673-1.5-1.5v-2c0-.827.673-1.5 1.5-1.5h13c.827 0 1.5.673 1.5 1.5v2zM3.5 17c-.827 0-1.5.673-1.5 1.5S2.673 20 3.5 20 5 19.327 5 18.5 4.327 17 3.5 17zm0 2c-.275 0-.5-.224-.5-.5s.225-.5.5-.5.5.224.5.5-.225.5-.5.5zm11-2c-.827 0-1.5.673-1.5 1.5s.673 1.5 1.5 1.5 1.5-.673 1.5-1.5-.673-1.5-1.5-1.5zm0 2c-.275 0-.5-.224-.5-.5s.225-.5.5-.5.5.224.5.5-.225.5-.5.5zM12 17.5c0 .276-.224.5-.5.5h-5c-.276 0-.5-.224-.5-.5s.224-.5.5-.5h5c.276 0 .5.224.5.5zm0 2c0 .276-.224.5-.5.5h-5c-.276 0-.5-.224-.5-.5s.224-.5.5-.5h5c.276 0 .5.224.5.5z"/></svg>