<svg xmlns="http://www.w3.org/2000/svg" viewBox="0 0 24 24"><path fill="#5c6671" d="M22 10h-.114l-1.375-5.26C20.152 3.127 18.746 2 17.094 2H6.906C5.254 2 3.848 3.127 3.494 4.723L2.114 10H2c-1.103 0-2 .897-2 2v5c0 1.103.897 2 2 2v1c0 1.103.897 2 2 2h1c1.103 0 2-.897 2-2v-1h10v1c0 1.103.897 2 2 2h1c1.103 0 2-.897 2-2v-1c1.103 0 2-.897 2-2v-5c0-1.103-.897-2-2-2zM4.466 4.958C4.723 3.805 5.726 3 6.906 3h10.188c1.181 0 2.184.805 2.445 1.976L20.853 10H3.147l1.319-5.042zM6 20c0 .551-.448 1-1 1H4c-.552 0-1-.449-1-1v-1h3v1zm15 0c0 .551-.448 1-1 1h-1c-.552 0-1-.449-1-1v-1h3v1zm2-3c0 .551-.448 1-1 1H2c-.552 0-1-.449-1-1v-5c0-.551.448-1 1-1h20c.552 0 1 .449 1 1v5zM4.5 12C3.121 12 2 13.122 2 14.5S3.121 17 4.5 17 7 15.878 7 14.5 5.879 12 4.5 12zm0 4c-.827 0-1.5-.673-1.5-1.5S3.673 13 4.5 13s1.5.673 1.5 1.5S5.327 16 4.5 16zm15-4c-1.379 0-2.5 1.122-2.5 2.5s1.121 2.5 2.5 2.5 2.5-1.122 2.5-2.5-1.121-2.5-2.5-2.5zm0 4c-.827 0-1.5-.673-1.5-1.5s.673-1.5 1.5-1.5 1.5.673 1.5 1.5-.673 1.5-1.5 1.5zM16 13.5c0 .276-.224.5-.5.5h-7c-.276 0-.5-.224-.5-.5s.224-.5.5-.5h7c.276 0 .5.224.5.5zm0 2c0 .276-.224.5-.5.5h-7c-.276 0-.5-.224-.5-.5s.224-.5.5-.5h7c.276 0 .5.224.5.5z"/></svg>