<svg xmlns="http://www.w3.org/2000/svg" viewBox="0 0 16 24"><path fill="#5c6671" d="M9.5 0h-5C2.019 0 0 2.019 0 4.5V19c0 2.757 2.243 5 5 5 1.896 0 3.606-1.065 4.463-2.784l5.454-11.146C15.498 8.884 16 7.861 16 6.501c0-3.584-2.916-6.5-6.5-6.5zM2 19c-.551 0-1-.449-1-1v-1.278c.295.172.634.278 1 .278s.705-.106 1-.278V18c0 .551-.449 1-1 1zM4 4.5c0-.276.224-.5.5-.5h5C10.878 4 12 5.122 12 6.5c0 .413-.219.877-.674 1.807L5.871 19.455c-.125.251-.429.545-.872.545-.551 0-1-.449-1-1V4.5zM3 15c0 .551-.449 1-1 1s-1-.449-1-1V7.707l.459-.459 1.542 1.927v5.824zm10.998-5.327l-5.431 11.1C7.882 22.147 6.516 23 5.001 23c-1.944 0-3.565-1.395-3.923-3.236.277.146.588.236.923.236.415 0 .8-.127 1.12-.344.273.78 1.008 1.344 1.88 1.344.899 0 1.513-.592 1.768-1.103l5.457-11.151c.523-1.069.775-1.612.775-2.246 0-1.93-1.57-3.5-3.5-3.5h-5c-.827 0-1.5.673-1.5 1.5v3.074L1.892 6.187c-.087-.108-.216-.178-.361-.186-.138-.002-.282.045-.383.145l-.146.146V4.499c0-1.93 1.57-3.5 3.5-3.5h5c3.033 0 5.5 2.467 5.5 5.5 0 1.128-.433 2.011-1.002 3.173z"/></svg>