<svg xmlns="http://www.w3.org/2000/svg" viewBox="0 0 24 24"><path fill="#5c6671" d="M23.499 4c-1.511 0-3.101.745-4.142 1.349L23.852.854c.195-.195.195-.512 0-.707s-.512-.195-.707 0L18.65 4.642c.604-1.041 1.349-2.631 1.349-4.142 0-.276-.224-.5-.5-.5s-.5.224-.5.5c0 1.674-1.141 3.575-1.653 4.345-1.06-.665-2.316-.964-3.59-.834-1.707.174-3.226 1.097-4.168 2.531L.383 20.55c-.597.875-.486 2.055.263 2.804.427.427.994.647 1.563.647.429 0 .86-.125 1.233-.379l14.015-9.209c1.434-.942 2.357-2.461 2.531-4.168.13-1.274-.169-2.53-.834-3.59.769-.512 2.667-1.653 4.345-1.653.276 0 .5-.224.5-.5s-.224-.5-.5-.5zm-4.505 6.141c-.144 1.407-.904 2.658-2.085 3.435L2.887 22.79c-.479.326-1.124.265-1.533-.144s-.47-1.055-.139-1.541l2.684-4.085c1.347.102 2.24.949 2.248.958.098.097.226.146.354.146s.256-.049.354-.146c.195-.196.195-.512 0-.708-.044-.043-.931-.899-2.346-1.177l1.938-2.95c1.885.099 3.223 1.212 3.237 1.224.087.075.201.121.326.121.14 0 .28-.059.378-.173.18-.208.158-.523-.05-.704-.061-.053-1.341-1.144-3.265-1.422l1.948-2.964c1.832.101 3.698 1.219 3.718 1.231.082.05.171.074.261.074.168 0 .333-.085.427-.239.144-.235.07-.543-.165-.687-.081-.049-1.747-1.057-3.617-1.328l.779-1.186c.776-1.181 2.028-1.941 3.435-2.085.144-.016.312-.025.482-.025 1.236 0 2.419.486 3.304 1.372l.003.003c1 .999 1.491 2.379 1.347 3.786z"/></svg>