<svg xmlns="http://www.w3.org/2000/svg" viewBox="0 0 24 24"><path fill="#5c6671" d="M8.707 15h9.898c1.042 0 1.985-.657 2.346-1.636l2.94-7.979c.072-.196.109-.402.109-.615C24 3.794 23.206 3 22.23 3H5.734l-.339-1.187C5.089.746 4.101 0 2.991 0H.5C.224 0 0 .224 0 .5s.224.5.5.5h2.491c.666 0 1.259.447 1.442 1.088l3.505 12.267-2.379 2.379c-.361.361-.56.84-.56 1.356 0 1.053.857 1.91 1.91 1.91h15.59c.276 0 .5-.224.5-.5s-.224-.5-.5-.5H6.909c-.502 0-.91-.408-.91-.916 0-.243.095-.472.267-.644L8.706 15zM22.23 4c.425 0 .77.345.77.773 0 .091-.016.181-.047.266l-2.94 7.979c-.216.587-.782.981-1.407.981H8.877l-2.857-10h16.21zM19 22c0 1.103.897 2 2 2s2-.897 2-2-.897-2-2-2-2 .897-2 2zm2-1c.551 0 1 .449 1 1s-.449 1-1 1-1-.449-1-1 .449-1 1-1zM6 22c0 1.103.897 2 2 2s2-.897 2-2-.897-2-2-2-2 .897-2 2zm2-1c.551 0 1 .449 1 1s-.449 1-1 1-1-.449-1-1 .449-1 1-1zM9 6.5c0-.276.224-.5.5-.5H20c.276 0 .5.224.5.5s-.224.5-.5.5H9.5c-.276 0-.5-.224-.5-.5zM19 9c0 .276-.224.5-.5.5H10c-.276 0-.5-.224-.5-.5s.224-.5.5-.5h8.5c.276 0 .5.224.5.5zm-.5 2.5c0 .276-.224.5-.5.5h-7.5c-.276 0-.5-.224-.5-.5s.224-.5.5-.5H18c.276 0 .5.224.5.5z"/></svg>