<svg xmlns="http://www.w3.org/2000/svg" viewBox="0 0 24 24"><path fill="#5c6671" d="M21.5 3.5c.552 0 1-.449 1-1s-.448-1-1-1-1 .449-1 1 .448 1 1 1zm0-1.001zm2.138 1.432c.23-.395.362-.841.362-1.311C24 1.175 22.824 0 21.378 0c-.469 0-.914.132-1.309.362l-.215-.215c-.195-.195-.512-.195-.707 0s-.195.512 0 .707l.146.146-.793.793-.146-.146c-.195-.195-.512-.195-.707 0s-.195.512 0 .707l.146.146-.793.793-.146-.146c-.195-.195-.512-.195-.707 0s-.195.512 0 .707l.146.146-.793.793-.146-.146c-.195-.195-.512-.195-.707 0s-.195.512 0 .707l.146.146-.793.793-.146-.146c-.195-.195-.512-.195-.707 0s-.195.512 0 .707l.146.146-.793.793-.146-.146c-.195-.195-.512-.195-.707 0s-.195.512 0 .707l.146.146-.293.293-.646-.646c-.147-.146-.371-.187-.561-.102l-1.089.495-1.654-.992c-.664-.4-1.51-.295-2.057.253-.318.318-.493.741-.493 1.19 0 .48.039.953.074 1.427l-.281.128c-.006.002-.011.005-.017.008l-.865.433c-.852.426-1.486 1.157-1.787 2.06-.334 1.002-.203 2.068.321 2.946L.217 20.448c-.143.286-.218.605-.218.924 0 .892.568 1.68 1.414 1.961l1.928.643c.052.018.105.026.158.026.131 0 .258-.051.354-.146l3.146-3.146.146.146c.098.098.226.146.354.146s.256-.049.354-.146l7.5-7.5c.195-.195.195-.512 0-.707l-.146-.146.293-.293.146.146c.098.098.226.146.354.146s.256-.049.354-.146c.195-.195.195-.512 0-.707l-.146-.146.793-.793.146.146c.098.098.226.146.354.146s.256-.049.354-.146c.195-.195.195-.512 0-.707l-.146-.146.793-.793.146.146c.098.098.226.146.354.146s.256-.049.354-.146c.195-.195.195-.512 0-.707l-.146-.146.793-.793.146.146c.098.098.226.146.354.146s.256-.049.354-.146c.195-.195.195-.512 0-.707l-.146-.146.793-.793.146.146c.098.098.226.146.354.146s.256-.049.354-.146c.195-.195.195-.512 0-.707l-.146-.146.793-.793.146.146c.098.098.226.146.354.146s.256-.049.354-.146c.195-.195.195-.512 0-.707l-.216-.216zM6 8.99c0-.182.071-.354.2-.483.223-.222.567-.264.835-.103l1.064.638-2.048.931C6.034 9.645 6 9.32 6 8.99zM3.365 22.928l-1.635-.545c-.436-.145-.73-.552-.73-1.013 0-.165.039-.33.112-.478L3 17.117v1.382c0 .276.224.5.5.5s.5-.224.5-.5v-.793l2.293 2.293-2.928 2.928zM7.5 19.793l-3.808-3.808c-.691-.691-.929-1.697-.619-2.624.213-.64.682-1.18 1.285-1.482l.817-.409c.238 1.856.726 3.665 1.496 5.396l.371.836c.083.187.266.297.457.297.068 0 .137-.014.203-.043.252-.112.366-.408.254-.66l-.371-.836c-.773-1.736-1.259-3.553-1.467-5.421l4.273-1.942 3.901 3.901-6.793 6.793zM12.207 9.5l8.025-8.025c.306-.306.713-.475 1.147-.475.894 0 1.62.728 1.62 1.622 0 .432-.169.839-.475 1.146l-8.025 8.025L12.206 9.5zm-1.853 1.854l-1.5 1.5c-.098.098-.226.146-.354.146s-.256-.049-.354-.146c-.195-.195-.195-.512 0-.707l1.5-1.5c.195-.195.512-.195.707 0s.195.512 0 .707zm1.5.792c.195.195.195.512 0 .707l-1.5 1.5c-.098.098-.226.146-.354.146s-.256-.049-.354-.146c-.195-.195-.195-.512 0-.707l1.5-1.5c.195-.195.512-.195.707 0z"/></svg>