<svg xmlns="http://www.w3.org/2000/svg" viewBox="0 0 24 24"><path fill="#5c6671" d="M24 23.5c0 .276-.224.5-.5.5H2c-1.103 0-2-.897-2-2V.5C0 .224.224 0 .5 0s.5.224.5.5V22c0 .551.448 1 1 1h21.5c.276 0 .5.224.5.5zm-21-3v-10c0-.276.224-.5.5-.5h4c.276 0 .5.224.5.5v10c0 .276-.224.5-.5.5h-4c-.276 0-.5-.224-.5-.5zm1-.5h3v-9H4v9zm6 .5V.5c0-.276.224-.5.5-.5h4c.276 0 .5.224.5.5v20c0 .276-.224.5-.5.5h-4c-.276 0-.5-.224-.5-.5zm1-.5h3V1h-3v19zm6 .5v-14c0-.276.224-.5.5-.5h4c.276 0 .5.224.5.5v14c0 .276-.224.5-.5.5h-4c-.276 0-.5-.224-.5-.5zm1-.5h3V7h-3v13z"/></svg>