<svg xmlns="http://www.w3.org/2000/svg" viewBox="0 0 24 24"><path fill="#5c6671" d="M24 23.5c0 .276-.224.5-.5.5H2c-1.103 0-2-.897-2-2V.5C0 .224.224 0 .5 0s.5.224.5.5V22c0 .551.448 1 1 1h21.5c.276 0 .5.224.5.5zm-.854-13.354L20.5 12.792l-1.646-1.646c-.195-.195-.512-.195-.707 0l-4.646 4.646-2.646-2.646c-.195-.195-.512-.195-.707 0l-7 7c-.195.195-.195.512 0 .707.098.098.226.146.354.146s.256-.049.354-.146l6.646-6.646 2.646 2.646c.195.195.512.195.707 0l4.646-4.646 1.646 1.646c.195.195.512.195.707 0l3-3c.195-.195.195-.512 0-.707s-.512-.195-.707 0zM3.5 13c.128 0 .256-.049.354-.146L7.5 9.207l1.646 1.646c.195.195.512.195.707 0l4.646-4.646 1.646 1.646c.195.195.512.195.707 0l4.646-4.646 1.646 1.646c.195.195.512.195.707 0s.195-.512 0-.707l-2-2c-.195-.195-.512-.195-.707 0l-4.646 4.646-1.646-1.646c-.195-.195-.512-.195-.707 0L9.499 9.792 7.853 8.146c-.195-.195-.512-.195-.707 0l-4 4c-.195.195-.195.512 0 .707.098.098.226.146.354.146z"/></svg>