<svg xmlns="http://www.w3.org/2000/svg" viewBox="0 0 24 24"><path fill="#5c6671" d="M6.5 15C5.121 15 4 16.122 4 17.5S5.121 20 6.5 20 9 18.878 9 17.5 7.879 15 6.5 15zm0 4c-.827 0-1.5-.673-1.5-1.5S5.673 16 6.5 16s1.5.673 1.5 1.5S7.327 19 6.5 19zM22.429 3.532L19.447 2.34c-.224-.089-.478-.008-.607.196-.185.291-.499.464-.84.464-.552 0-1-.449-1-1 0-.065.008-.129.02-.191.046-.232-.076-.464-.294-.557L14.151.153a.6538.6538 0 0 0-.053-.019c-.533-.241-1.1-.146-1.529.201-.015.009-.029.019-.043.029-.39.292-.85.686-1.413 1.169-.764.655-1.715 1.47-2.947 2.42-.145.111-.217.292-.189.471.006.039.015.076.023.076h.001c0 .341-.336.619-.702.453-.168-.075-.363-.053-.511.06C3.8 7.316 1.354 9.018.816 9.39c-.029.02-.056.043-.08.069C.267 9.842.001 10.4.001 11v3.5c0 .276.224.5.5.5.827 0 1.5.673 1.5 1.5S1.328 18 .501 18c-.276 0-.5.224-.5.5V22c0 1.103.897 2 2 2 .139 0 .282-.016.457-.055l19.721-5.553c1.073-.303 1.822-1.293 1.822-2.407V5.853c0-1.028-.616-1.939-1.571-2.321zM7.19 5.965c.893.202 1.767-.497 1.809-1.394 1.146-.891 2.039-1.657 2.766-2.279.519-.445.945-.812 1.31-1.089.038-.02.071-.043.1-.07.097-.088.277-.206.545-.073.027.014.058.026.091.034l2.192.934c.016 1.089.907 1.971 2 1.971.541 0 1.048-.216 1.419-.594l2.639 1.055c.062.025.112.067.169.099L2.136 9.688c.99-.698 2.867-2.043 5.056-3.724zm15.811 10.02c0 .668-.45 1.263-1.094 1.444L2.215 22.975C1.522 23.123 1 22.62 1 22v-3.05c1.14-.232 2-1.242 2-2.45s-.86-2.217-2-2.45v-3.039l21.934-5.599c.043.141.066.289.066.442v10.132zM18 12c-1.103 0-2 .897-2 2s.897 2 2 2 2-.897 2-2-.897-2-2-2zm0 3c-.552 0-1-.449-1-1s.448-1 1-1 1 .449 1 1-.448 1-1 1zM7.5 10c-.827 0-1.5.673-1.5 1.5S6.673 13 7.5 13 9 12.327 9 11.5 8.327 10 7.5 10zm0 2c-.275 0-.5-.224-.5-.5s.225-.5.5-.5.5.224.5.5-.225.5-.5.5zm6-3c-.827 0-1.5.673-1.5 1.5s.673 1.5 1.5 1.5 1.5-.673 1.5-1.5S14.327 9 13.5 9zm0 2c-.275 0-.5-.224-.5-.5s.225-.5.5-.5.5.224.5.5-.225.5-.5.5z"/></svg>