<svg xmlns="http://www.w3.org/2000/svg" viewBox="0 0 24 24"><path fill="#5c6671" d="M18.5 3c-.385 0-.79.067-1.212.17C16.275 1.285 14.285 0 12 0S7.725 1.285 6.712 3.17C6.29 3.067 5.885 3 5.5 3 2.467 3 0 5.467 0 8.5c0 2.071 1.167 3.958 3 4.894V22c0 1.103.897 2 2 2h14c1.103 0 2-.897 2-2v-8.606c1.833-.937 3-2.823 3-4.894C24 5.467 21.533 3 18.5 3zm.5 20H5c-.551 0-1-.449-1-1v-3h16v3c0 .551-.449 1-1 1zm1.3-10.38c-.182.08-.3.259-.3.458V18H4v-4.922c0-.199-.118-.378-.3-.458C2.06 11.902 1 10.285 1 8.5 1 6.019 3.019 4 5.5 4c.26 0 .532.039.814.099C6.113 4.697 6 5.335 6 6c0 .276.224.5.5.5S7 6.276 7 6c0-2.757 2.243-5 5-5s5 2.243 5 5c0 .276.224.5.5.5s.5-.224.5-.5c0-.665-.113-1.303-.314-1.901.282-.059.554-.099.814-.099C20.981 4 23 6.019 23 8.5c0 1.785-1.06 3.402-2.7 4.12zM8.426 15.238c.145.235.071.543-.164.687-.074.047-.164.074-.261.074-.168 0-.332-.084-.426-.238-.064-.105-1.574-2.578-1.574-4.262 0-.276.224-.5.5-.5s.5.224.5.5c0 1.163 1.029 3.093 1.426 3.738zM18 11.5c0 1.685-1.51 4.158-1.574 4.262-.094.153-.258.238-.426.238-.097 0-.187-.028-.263-.075-.233-.143-.307-.451-.162-.686.396-.646 1.426-2.575 1.426-3.738 0-.276.224-.5.5-.5s.5.224.5.5zm-5.5 0v4c0 .276-.224.5-.5.5s-.5-.224-.5-.5v-4c0-.276.224-.5.5-.5s.5.224.5.5z"/></svg>