<svg xmlns="http://www.w3.org/2000/svg" viewBox="0 0 18 24"><path fill="#5c6671" d="M12.017 10.001c-.313-.88-.742-1.61-1.187-2.357-.76-1.279-1.54-2.608-1.804-4.963l.327-.327c.091-.09.146-.215.146-.353v-1.5c0-.276-.224-.5-.5-.5h-1c-.276 0-.5.224-.5.5v1.5c0 .138.056.263.146.353l.341.341c-.035 1.941-.551 3.415-1.108 4.962-.471 1.307-.948 2.654-1.198 4.36-3.16.167-5.681 2.783-5.681 5.984 0 3.309 2.691 6 6 6 1.857 0 3.519-.848 4.621-2.177.454.108.915.177 1.379.177 3.309 0 6-2.691 6-6 0-3.303-2.682-5.99-5.983-5.999zM7.82 7.995c.3-.834.593-1.646.812-2.523.387 1.08.881 1.911 1.339 2.682.383.644.738 1.25 1.011 1.941-1.4.238-2.656.962-3.581 2.076-.232-.056-.469-.101-.711-.129.244-1.566.689-2.825 1.13-4.048zM6 23c-2.757 0-5-2.243-5-5 0-2.608 2.014-4.731 4.565-4.956-.038.46-.065.938-.065 1.456 0 .276.224.5.5.5s.5-.224.5-.5c0-.514.028-.987.068-1.443.404.047.794.133 1.164.27.11.041.222.08.328.129.18.082.35.179.517.281.088.054.182.1.267.159.23.16.447.339.647.534.093.092.171.196.257.295.104.119.209.237.302.366.087.121.161.249.237.377.075.126.146.254.21.387.049.098.106.228.158.361.072.195.122.361.166.529.031.116.065.23.087.348.054.295.092.596.092.907 0 .313-.037.617-.092.914-.018.099-.047.195-.071.292-.048.193-.106.383-.176.567-.043.112-.089.223-.14.332-.073.157-.158.306-.247.454-.068.112-.132.226-.209.333C9.157 22.163 7.678 23 6.001 23zm6-2c-.259 0-.518-.021-.774-.061.002-.003.003-.006.004-.008.12-.213.228-.434.321-.662.013-.032.023-.066.036-.098.058-.14.121-.324.175-.512.03-.111.047-.181.064-.251.039-.163.071-.328.097-.496.011-.069.024-.138.032-.208.027-.232.045-.466.045-.705 0-.273-.025-.54-.06-.804-.011-.084-.019-.136-.029-.189-.273-1.684-1.279-3.158-2.689-4.06-.029-.019-.059-.036-.089-.054-.21-.13-.428-.247-.654-.35-.019-.009-.036-.021-.056-.03.771-.796 1.772-1.286 2.863-1.442.125.531.203 1.124.21 1.822-.371-.171-.502-.496-.52-.548-.084-.26-.364-.404-.625-.323-.264.082-.411.363-.328.626.146.467.747 1.351 1.977 1.351s1.831-.884 1.977-1.351c.082-.261-.063-.536-.323-.621s-.541.058-.629.316c-.017.05-.147.384-.529.555-.006-.707-.078-1.318-.194-1.869 2.614.159 4.698 2.316 4.698 4.969 0 2.757-2.243 5-5 5zm-6-6c.687 0 1.045-.709 1.049-.716.119-.25.418-.355.667-.235s.354.418.235.667C7.926 14.769 7.321 16 6 16s-1.926-1.231-1.951-1.284c-.119-.249-.014-.547.235-.667.249-.117.546-.015.666.232.018.037.369.719 1.05.719z"/></svg>