<svg xmlns="http://www.w3.org/2000/svg" viewBox="0 0 24 24"><path fill="#5c6671" d="M22.096 1.904C20.868.676 19.237 0 17.5 0s-3.368.676-4.596 1.904C10.837 3.97 7.812 9.838 8.635 13.158L2.793 19H1.75C.785 19 0 19.785 0 20.75c0 .886.661 1.62 1.516 1.734.115.854.849 1.516 1.734 1.516.965 0 1.75-.785 1.75-1.75v-1.043l5.843-5.843c.377.094.782.155 1.239.155 1.081 0 2.375-.265 3.835-.795 2.36-.858 4.901-2.35 6.179-3.627C23.324 9.869 24 8.237 24 6.501s-.677-3.369-1.904-4.596zM9.839 14.955l-5.692 5.692c-.091.09-.146.215-.146.353v1.25c0 .414-.337.75-.75.75s-.75-.336-.75-.75c0-.02.016-.073.047-.185.046-.174-.034-.351-.163-.477-.093-.091-.23-.137-.365-.137-.052 0-.104.007-.152.021-.043.012-.097.027-.116.027-.413 0-.75-.336-.75-.75s.337-.75.75-.75h1.25c.138 0 .263-.056.353-.146l5.692-5.692c.099.159.214.3.34.428.004.004.007.01.011.014.01.01.023.016.033.025.123.119.257.229.41.326zm11.55-4.566c-1.186 1.186-3.576 2.582-5.813 3.395-2.013.732-3.654.916-4.703.56-.006-.002-.009-.008-.015-.01-.16-.055-.301-.119-.424-.19-.121-.073-.235-.153-.33-.248-.102-.102-.182-.226-.258-.352-.067-.119-.127-.25-.179-.401-.001-.002-.003-.004-.004-.006-.918-2.617 1.871-8.449 3.949-10.527 1.039-1.039 2.42-1.611 3.889-1.611s2.85.572 3.889 1.611 1.611 2.42 1.611 3.889-.572 2.85-1.611 3.889z"/></svg>