<svg xmlns="http://www.w3.org/2000/svg" viewBox="0 0 24 24"><path fill="#5c6671" d="M23.853 4.146l-4-4c-.195-.195-.512-.195-.707 0L11.56 7.732c-.473.472-.732 1.1-.732 1.768 0 .367.085.718.234 1.042l-.96.993c-.536-.252-1.183-.181-1.641.239L.816 18.612c-.687.782-.958 1.811-.744 2.824.26 1.23 1.262 2.231 2.491 2.491.225.047.45.071.675.071.785 0 1.551-.29 2.192-.858l6.792-7.597c.423-.462.495-1.11.243-1.646l.995-.962c.33.151.683.234 1.04.234.64 0 1.28-.243 1.768-.73l7.586-7.586c.195-.195.195-.512 0-.707zm-1.36.055l.299.299-.293.293-.304-.304.298-.288zm-1.005-.419l-1.271-1.271.288-.298 1.281 1.281-.298.288zm-8.134 7.865l-1.002-1.002 7.17-7.416 1.248 1.248-7.416 7.17zm-2.477.524l.779-.806.978.978-.806.78-.951-.951zm8.921-10.665l-.288.298-.304-.304.293-.293.299.299zM11.827 9.5c0-.401.156-.777.439-1.061l6.232-6.232.316.316-6.965 7.204c-.011-.075-.022-.15-.022-.227zm-.347 5.373l-6.753 7.56c-.55.483-1.244.667-1.957.517-.85-.18-1.54-.871-1.72-1.719-.15-.712.033-1.407.475-1.915l7.606-6.8c.096-.088.217-.131.338-.131.128 0 .256.049.354.146l1.646 1.647c.189.189.196.493.011.695zm4.08-3.141c-.345.345-.816.461-1.267.398l7.184-6.946.316.316-6.232 6.232z"/></svg>