<svg xmlns="http://www.w3.org/2000/svg" viewBox="0 0 20 24"><path fill="#5c6671" d="M18.5 20c-.651 0-1.201.419-1.408 1H15v-2.904c.965-.341 1.608-.6 1.688-.632.185-.076.313-.255.313-.463v-.5c0-.276-.224-.5-.5-.5h-1.5v-.11l.379.095c.041.01.081.015.121.015.225 0 .429-.151.485-.379.066-.268-.096-.539-.364-.606l-.621-.155v-.97l.379.095c.041.01.081.015.121.015.225 0 .429-.151.485-.379.066-.268-.096-.539-.364-.606l-.621-.155v-.97l.379.095c.041.01.081.015.121.015.225 0 .429-.151.485-.379.066-.268-.096-.539-.364-.606l-.621-.155v-1.86h.5c.189 0 .362-.107.447-.276l1-2c.077-.155.069-.339-.021-.486s-.253-.237-.426-.237h-6c-.173 0-.334.09-.426.237s-.099.332-.021.486l1 2c.085.169.258.276.447.276h.5v1.11l-.379-.095c-.271-.069-.54.096-.606.364s.096.539.364.606l.621.155v.97l-.379-.095c-.271-.068-.54.095-.606.364s.096.539.364.606l.621.155v.97l-.379-.095c-.271-.067-.54.095-.606.364s.096.539.364.606l.621.155v.86h-5c-1.103 0-2-.897-2-2v-8c0-1.103.897-2 2-2h3v.5c0 .276.224.5.5.5h6c.276 0 .5-.224.5-.5v-1.5c0-.208-.128-.387-.309-.462C16.434 2.434 10.387.001 6.501.001c-3.584 0-6.5 2.916-6.5 6.5v7c0 3.584 2.916 6.5 6.5 6.5 1.648 0 3.682-.438 5.5-.95v1.95H9.909c-.207-.581-.757-1-1.408-1-.827 0-1.5.673-1.5 1.5s.673 1.5 1.5 1.5c.651 0 1.201-.419 1.408-1h2.092v1.5c0 .276.224.5.5.5h2c.276 0 .5-.224.5-.5v-1.5h2.092c.207.581.757 1 1.408 1 .827 0 1.5-.673 1.5-1.5s-.673-1.5-1.5-1.5zm-10 2c-.275 0-.5-.224-.5-.5s.225-.5.5-.5.5.224.5.5-.225.5-.5.5zm2.809-15h4.383l-.5 1h-3.383l-.5-1zM13 9h1v1.61l-1-.25V9zm0 2.39l1 .25v.97l-1-.25v-.97zm0 2l1 .25v.97l-1-.25v-.97zm0 2l1 .25V16h-1v-.61zM1 13.5v-7C1 3.467 3.468 1 6.5 1c3.208 0 8.209 1.843 9.5 2.341V4h-5v-.5c0-.276-.224-.5-.5-.5H7C5.346 3 4 4.346 4 6v8c0 1.654 1.346 3 3 3h8.085c-1.975.714-5.905 2-8.585 2C3.468 19 1 16.533 1 13.5zM14 23h-1v-4.244c.351-.108.682-.215 1-.32V23zm4.5-1c-.275 0-.5-.224-.5-.5s.225-.5.5-.5.5.224.5.5-.225.5-.5.5z"/></svg>