<svg xmlns="http://www.w3.org/2000/svg" viewBox="0 0 18 24"><path fill="#5c6671" d="M17.5 4c.276 0 .5-.224.5-.5V2c0-1.103-.897-2-2-2l-5.598.01-10 2C.168 2.057 0 2.262 0 2.5v1c0 .276.224.5.5.5H12v8H7V8.151l.916-1.374c.103-.153.112-.351.024-.513C7.854 6.106 7.689 6 7.5 6h-5c-.19 0-.355.106-.439.262-.089.165-.079.362.023.516L3 8.152v3.849H.5c-.276 0-.5.224-.5.5v1c0 .238.168.443.402.49L3 14.508v6.993c0 .276.224.5.5.5h3c.276 0 .5-.224.5-.5v-6.197l3.5.697H12v6c0 1.103.897 2 2 2s2-.897 2-2v-6c1.103 0 2-.897 2-2v-1.5c0-.276-.224-.5-.5-.5H16v-8h1.5zM1 2.91L10.5 1H16c.552 0 1 .449 1 1v1H1v-.09zm2.916 4.813L3.435 7h3.131l-.481.723c-.053.078-.084.174-.084.277h-.5c-.276 0-.5.224-.5.5s.224.5.5.5h.5v1h-.5c-.276 0-.5.224-.5.5s.224.5.5.5h.5v1h-2V8c0-.103-.031-.199-.085-.279zM6 16h-.5c-.276 0-.5.224-.5.5s.224.5.5.5H6v1h-.5c-.276 0-.5.224-.5.5s.224.5.5.5H6v2H4v-6.294l2 .398V16zm9 6c0 .551-.448 1-1 1s-1-.449-1-1v-6h2v6zm2-8c0 .551-.448 1-1 1l-.496.001c-.002 0-.003-.001-.004-.001h-3c-.011 0-.021.006-.032.006l-1.871.003L.999 13.09V13h16v1zm-2-2h-2V4h2v8z"/></svg>