<svg xmlns="http://www.w3.org/2000/svg" viewBox="0 0 24 24"><path fill="#5c6671" d="M23.5 10H4.443l17.222-6.028c.258-.09.396-.371.31-.63l-1-3c-.043-.127-.134-.231-.254-.291s-.259-.066-.386-.023l-20 7c-.258.09-.396.371-.31.63L1 10.582V22c0 1.103.897 2 2 2h19c1.103 0 2-.897 2-2V10.5c0-.276-.224-.5-.5-.5zm-.5 3h-3.293l2-2H23v2zm-7.293 0l2-2h2.586l-2 2h-2.586zm-4 0l2-2h2.586l-2 2h-2.586zm-4 0l2-2h2.586l-2 2H7.707zm-4 0l2-2h2.586l-2 2H3.707zM2 13v-2h2.293l-2 2H2zm3.877-6.853c.031.032.059.065.099.089l2.297 1.363-2.876 1.007-2.253-1.502 2.733-.957zm3.609-1.262l2.428 1.441-2.414.845c-.007-.005-.011-.013-.019-.017L7.078 5.728l2.408-.843zm7.128-2.495l2.431 1.44-2.294.803-2.428-1.441 2.29-.802zm-3.32 1.353l2.225 1.32-2.419.846c-.038-.049-.084-.093-.14-.127l-2.242-1.33 2.426-.849c.039.055.089.103.15.139zm7.576-.552l-.592.207-2.431-1.44 2.339-.819.684 2.051zM1.962 7.518L4.215 9.02l-2.401.84-.684-2.051.832-.291zM23 22c0 .551-.448 1-1 1H3c-.552 0-1-.449-1-1v-8h21v8z"/></svg>