<svg xmlns="http://www.w3.org/2000/svg" viewBox="0 0 24 24"><path fill="#5c6671" d="M24 6.328c0 2.179-.849 4.228-2.389 5.768l-8.758 8.758c-.195.195-.512.195-.707 0s-.195-.512 0-.707l8.758-8.758C22.256 10.037 23 8.241 23 6.328 23 3.941 21.059 2 18.672 2c-1.912 0-3.709.744-5.061 2.096L1.914 15.793C1.333 16.374 1 17.179 1 18s.333 1.626.914 2.207l.879.879c1.162 1.162 3.252 1.162 4.414 0L19.025 9.268c.629-.629.975-1.465.975-2.354C20 5.858 19.142 5 18.086 5c-.889 0-1.725.346-2.354.975l-8.879 8.879c-.195.195-.512.195-.707 0s-.195-.512 0-.707l8.879-8.879C15.842 4.451 16.929 4 18.086 4 19.692 4 21 5.308 21 6.914c0 1.156-.45 2.243-1.268 3.061L7.914 21.793C7.147 22.561 6.085 23 5 23s-2.147-.439-2.914-1.207l-.879-.879C.439 20.147 0 19.085 0 18s.439-2.147 1.207-2.914L12.904 3.389C14.444 1.849 16.493 1 18.672 1 21.609 1 24 3.391 24 6.328z"/></svg>