<svg xmlns="http://www.w3.org/2000/svg" viewBox="0 0 18 24"><path fill="#5c6671" d="M15.5 2h-1.778c-.347-.595-.985-1-1.722-1h-1.274C10.372.39 9.717 0 9 0S7.628.39 7.274 1H6c-.737 0-1.375.405-1.722 1H2.5C1.121 2 0 3.122 0 4.5v17C0 22.878 1.121 24 2.5 24h13c1.379 0 2.5-1.122 2.5-2.5v-17C18 3.122 16.879 2 15.5 2zM6 2h1.592c.212 0 .4-.133.471-.332.143-.399.52-.668.938-.668s.795.269.938.668c.07.199.259.332.471.332h1.592c.552 0 1 .449 1 1v1c0 .551-.448 1-1 1h-6c-.552 0-1-.449-1-1V3c0-.551.448-1 1-1zm11 19.5c0 .827-.673 1.5-1.5 1.5h-13c-.827 0-1.5-.673-1.5-1.5v-17C1 3.673 1.673 3 2.5 3H4v1c0 1.103.897 2 2 2h6c1.103 0 2-.897 2-2V3h1.5c.827 0 1.5.673 1.5 1.5v17zM3 8.5c0-.276.224-.5.5-.5h6c.276 0 .5.224.5.5s-.224.5-.5.5h-6c-.276 0-.5-.224-.5-.5zm12 3c0 .276-.224.5-.5.5h-11c-.276 0-.5-.224-.5-.5s.224-.5.5-.5h11c.276 0 .5.224.5.5zm0 3c0 .276-.224.5-.5.5h-11c-.276 0-.5-.224-.5-.5s.224-.5.5-.5h11c.276 0 .5.224.5.5zm0 3c0 .276-.224.5-.5.5h-11c-.276 0-.5-.224-.5-.5s.224-.5.5-.5h11c.276 0 .5.224.5.5zm-5 3c0 .276-.224.5-.5.5h-6c-.276 0-.5-.224-.5-.5s.224-.5.5-.5h6c.276 0 .5.224.5.5z"/></svg>