<svg xmlns="http://www.w3.org/2000/svg" viewBox="0 0 24 24"><path fill="#5c6671" d="M17.192 12l6.092-6.092c.953-.953.953-2.503 0-3.456L21.547.715c-.953-.954-2.506-.953-3.456 0l-6.092 6.092L5.907.715c-.95-.953-2.503-.955-3.456 0L.714 2.452c-.953.953-.953 2.503 0 3.456L6.806 12 .714 18.092c-.953.953-.953 2.503 0 3.456l1.737 1.737c.954.955 2.507.953 3.456 0l6.092-6.092 6.092 6.092c.476.477 1.102.715 1.729.715.626 0 1.252-.238 1.727-.715l1.737-1.737c.953-.953.953-2.503 0-3.456L17.192 12zm5.243 8.699l-1.737 1.737c-.47.47-1.287.472-1.759 0l-6.516-6.516c-.117-.117-.271-.176-.424-.176s-.307.059-.424.176l-6.516 6.516c-.472.472-1.288.47-1.759 0l-1.737-1.737c-.236-.236-.364-.547-.364-.88 0-.332.129-.643.364-.879l6.516-6.516c.234-.234.234-.614 0-.848L1.563 5.06c-.236-.236-.364-.547-.364-.879 0-.333.129-.645.364-.88L3.3 1.564c.471-.47 1.287-.472 1.759 0l6.516 6.516c.234.234.614.234.848 0l6.516-6.516c.472-.472 1.289-.47 1.759 0l1.737 1.737c.236.236.364.547.364.88 0 .332-.129.643-.364.879l-6.516 6.516c-.234.234-.234.614 0 .848l6.516 6.516c.236.236.364.547.364.879 0 .333-.129.645-.364.88z"/></svg>