<svg xmlns="http://www.w3.org/2000/svg" viewBox="0 0 18 24"><path fill="#5c6671" d="M17.866 12.944l-1.227-9.406c-.115-.879-.779-1.568-1.654-1.713l-1.666-.278-.027-.096c-.096-.337-.295-.616-.533-.852-.035-.056-.08-.103-.136-.142C12.274.174 11.839 0 11.37 0H6.633c-.471 0-.907.175-1.256.46-.054.038-.097.083-.132.137-.24.236-.439.516-.536.854l-.027.096-1.666.278c-.875.146-1.54.834-1.655 1.714L.134 12.944C.045 13.622 0 14.314 0 15.001c0 1.103.897 2 2 2h1.299l-.265 3.968c-.022.344-.034.688-.034 1.032 0 1.103.897 2 2 2h8c1.103 0 2-.897 2-2 0-.344-.012-.688-.034-1.032l-.265-3.968H16c1.103 0 2-.897 2-2 0-.683-.045-1.375-.134-2.056zM5.599 1.973l1.881 4.3-2.419-2.419.537-1.881zm6.802.001l.537 1.881-2.419 2.419L12.4 1.975zM11.369 1c.119 0 .232.024.339.063L9 7.252 6.292 1.063c.107-.039.221-.063.339-.063h4.737zM4 22c0-.322.011-.645.032-.966l.967-14.501c.018-.275-.19-.514-.466-.532-.27-.012-.514.19-.532.466L3.365 16H2c-.551 0-1-.449-1-1 0-.644.042-1.292.125-1.927l1.227-9.405c.058-.44.39-.784.828-.857l1.197-.2-.358 1.252c-.05.174-.001.362.127.491l4.245 4.245-.339.678c-.033.065-.053.142-.053.224v13.5h-3c-.551 0-1-.449-1-1zm12-6h-1.365l-.636-9.533c-.019-.276-.258-.48-.532-.466-.275.019-.484.257-.466.532l.967 14.501c.021.321.032.644.032.966 0 .551-.449 1-1 1H9V9.618l.411-.822 4.442-4.442c.128-.128.177-.316.127-.491l-.358-1.252 1.197.2c.438.073.77.417.827.856l1.227 9.406c.083.639.125 1.287.125 1.927 0 .551-.449 1-1 1z"/></svg>