<svg xmlns="http://www.w3.org/2000/svg" viewBox="0 0 24 24"><path fill="#5c6671" d="M6.908 3.791l-5.796 8.212 5.796 8.212c.159.226.105.537-.12.696-.087.063-.188.092-.288.092-.156 0-.312-.073-.408-.212l-6-8.5c-.057-.08-.092-.18-.092-.288s.034-.208.093-.29l5.999-8.498c.159-.228.474-.28.696-.12.226.159.279.471.12.696zm17 7.923l-6-8.5c-.158-.228-.473-.28-.696-.12-.226.159-.279.471-.12.696l5.796 8.212-5.796 8.212c-.159.226-.105.537.12.696.087.063.188.092.288.092.156 0 .312-.073.408-.212l6-8.5c.057-.08.092-.18.092-.288s-.034-.208-.093-.29zM14.637 1.022c-.27-.083-.543.077-.618.343l-6 21c-.076.266.077.543.343.618.046.014.093.02.138.02.218 0 .418-.143.48-.362l6-21c.076-.266-.077-.543-.343-.618z"/></svg>