<svg xmlns="http://www.w3.org/2000/svg" viewBox="0 0 24 24"><path fill="#5c6671" d="M23.584 14.032c-.772-.132-1.355-1.006-1.355-2.032s.582-1.9 1.355-2.032c.135-.023.254-.101.331-.214.053-.078.085-.175.085-.278 0-.038-.004-.075-.012-.111-.308-1.409-.865-2.748-1.653-3.977-.073-.115-.19-.194-.324-.221s-.271.003-.384.081c-.643.45-1.669.242-2.394-.481s-.932-1.753-.481-2.394c.078-.111.107-.25.081-.384s-.105-.251-.221-.324C17.383.877 16.044.32 14.632.012c-.132-.029-.272-.003-.386.073s-.19.196-.214.331C13.9 1.188 13.026 1.771 12 1.771S10.1 1.189 9.968.416C9.945.281 9.867.162 9.754.085S9.5-.017 9.368.012c-1.412.309-2.751.865-3.98 1.653-.115.073-.194.19-.221.324s.003.272.081.384c.45.641.243 1.669-.481 2.394s-1.751.932-2.394.481c-.111-.078-.25-.108-.384-.081s-.251.105-.324.221C.877 6.617.32 7.956.012 9.368.005 9.4 0 9.437 0 9.475c0 .104.032.2.086.28.076.112.195.189.33.212.772.132 1.355 1.006 1.355 2.032s-.582 1.9-1.355 2.032c-.135.023-.254.101-.331.214-.053.078-.085.175-.085.278 0 .038.004.075.012.111.308 1.409.865 2.748 1.653 3.977.073.115.19.194.324.221.135.028.272-.003.384-.081.642-.451 1.668-.243 2.394.481s.932 1.753.481 2.394c-.078.111-.107.25-.081.384s.105.251.221.324c1.229.788 2.568 1.345 3.98 1.653.131.028.272.002.386-.073.113-.077.19-.196.214-.331.132-.772 1.006-1.355 2.032-1.355s1.9.582 2.032 1.355c.023.135.101.254.214.331.078.053.175.085.279.085.038 0 .074-.004.11-.012 1.409-.308 2.748-.865 3.977-1.653.115-.073.194-.19.221-.324s-.003-.272-.081-.384c-.45-.641-.243-1.669.481-2.394s1.752-.932 2.394-.481c.111.078.25.108.384.081s.251-.105.324-.221c.788-1.229 1.345-2.568 1.653-3.98.007-.032.012-.069.012-.107 0-.104-.032-.2-.086-.28-.076-.112-.195-.189-.33-.212zm-1.851 3.65c-1.004-.401-2.278-.085-3.207.845s-1.243 2.201-.845 3.207c-.887.52-1.83.912-2.815 1.17-.427-.995-1.55-1.674-2.866-1.674s-2.439.679-2.866 1.674c-.985-.258-1.929-.65-2.815-1.17.398-1.006.084-2.278-.845-3.207s-2.205-1.245-3.207-.845c-.52-.887-.912-1.83-1.17-2.815.995-.427 1.674-1.55 1.674-2.866s-.679-2.439-1.674-2.866c.258-.985.65-1.929 1.17-2.815 1.001.399 2.277.085 3.207-.845s1.243-2.201.845-3.207c.887-.52 1.83-.912 2.815-1.17.427.995 1.55 1.674 2.866 1.674s2.439-.679 2.866-1.674c.985.258 1.929.65 2.815 1.17-.398 1.006-.084 2.278.845 3.207s2.204 1.245 3.207.845c.52.887.912 1.83 1.17 2.815-.995.427-1.674 1.55-1.674 2.866s.679 2.439 1.674 2.866c-.258.985-.65 1.929-1.17 2.815zM12 5c-3.859 0-7 3.141-7 7s3.141 7 7 7 7-3.141 7-7-3.141-7-7-7zm0 13c-3.309 0-6-2.691-6-6s2.691-6 6-6 6 2.691 6 6-2.691 6-6 6z"/></svg>