<svg xmlns="http://www.w3.org/2000/svg" viewBox="0 0 24 24"><path fill="#5c6671" d="M24 3.682C24 1.652 22.348 0 20.318 0c-.984 0-1.908.383-2.604 1.078L13.25 5.543l-.396-.396c-.195-.195-.512-.195-.707 0l-2 2c-.195.195-.195.512 0 .707l.647.646-8.061 8.061c-.472.473-.732 1.1-.732 1.768s-.196 1.313-.566 1.869l-1.35 2.025c-.132.198-.106.462.063.631l1 1c.09.09.215.146.353.146.096 0 .193-.027.277-.084l2.113-1.409C4.39 22.176 4.969 22 5.567 22c.687 0 1.348-.284 1.814-.78 1.513-1.608 6.716-6.663 8.115-8.018l.652.652c.098.098.226.146.354.146s.256-.049.354-.146l2-2c.195-.195.195-.512 0-.707l-.396-.396 4.464-4.465c.696-.695 1.079-1.62 1.079-2.604zM6.651 20.534c-.278.296-.674.466-1.085.466-.795 0-1.566.233-2.23.675l-1.772 1.182-.42-.42 1.123-1.685c.48-.72.734-1.559.734-2.424 0-.395.16-.781.439-1.061l8.061-8.061 3.287 3.287c-1.437 1.393-6.593 6.4-8.136 8.04zm9.849-7.741L11.207 7.5 12.5 6.207l5.293 5.293-1.293 1.293zm1.25-2.75L13.957 6.25l4.464-4.465c.506-.506 1.18-.785 1.896-.785 1.479 0 2.682 1.203 2.682 2.682 0 .716-.279 1.39-.786 1.896l-4.464 4.465z"/></svg>