<svg xmlns="http://www.w3.org/2000/svg" viewBox="0 0 24 24"><path fill="#5c6671" d="M20 0h-5.714c-.134 0-.263.017-.391.04-.093-.032-.191-.049-.294-.028l-5.19 1.056c-.483.037-.924.23-1.285.532-.003.002-.006.002-.009.004L2.923 4.331c-.757.472-1.209 1.288-1.209 2.181 0 .509.15 1.002.44 1.439l9.867 13.977c.109 1.16 1.076 2.074 2.264 2.074h5.714c1.261 0 2.286-1.026 2.286-2.286V2.287c0-1.26-1.025-2.286-2.286-2.286zM8.568 2.196l3.589-.727c-.098.254-.157.528-.157.816v14.794L7.499 3.696c-.108-.335-.058-.694.138-.988.196-.292.51-.475.931-.512zM2.857 6.51c0-.497.251-.95.68-1.218L6.31 3.489c.012.189.043.379.103.565l5.104 15.175-8.42-11.928c-.157-.236-.24-.51-.24-.792zm18.286 15.204c0 .631-.513 1.143-1.143 1.143h-5.714c-.63 0-1.143-.512-1.143-1.143V2.285c0-.631.513-1.143 1.143-1.143H20c.63 0 1.143.512 1.143 1.143v19.429zm-4-4.571c-.945 0-1.714.769-1.714 1.714s.769 1.714 1.714 1.714 1.714-.769 1.714-1.714-.769-1.714-1.714-1.714zm0 2.286c-.315 0-.571-.257-.571-.571s.256-.571.571-.571.571.257.571.571-.256.571-.571.571z"/></svg>