<svg xmlns="http://www.w3.org/2000/svg" viewBox="0 0 24 24"><path fill="#5c6671" d="M23.854 18.146c-.195-.195-.512-.195-.707 0l-1.793 1.793c-.431.431-1.069.597-1.664.507l2.878-2.878c.195-.195.195-.512 0-.707s-.512-.195-.707 0l-3 3c-.048.048-.084.104-.109.163-.035-.029-.073-.053-.106-.085l-.544-.544c.066-.024.128-.06.18-.113l3-3c.195-.195.195-.512 0-.707s-.512-.195-.707 0l-3 3c-.053.053-.088.115-.113.18l-.646-.646c.066-.024.128-.06.18-.113l3-3c.195-.195.195-.512 0-.707s-.512-.195-.707 0l-3 3c-.053.053-.088.115-.113.18l-.647-.647c.066-.024.128-.06.18-.113l3-3c.195-.195.195-.512 0-.707s-.512-.195-.707 0l-3 3c-.053.053-.088.115-.113.18l-.646-.646c.066-.024.128-.06.18-.113l3-3c.195-.195.195-.512 0-.707s-.512-.195-.707 0l-3 3c-.053.053-.088.115-.113.18l-.646-.646c.066-.024.128-.06.18-.113l3-3c.195-.195.195-.512 0-.707s-.512-.195-.707 0l-3 3c-.053.053-.088.115-.113.18l-.646-.646c.066-.024.128-.06.18-.113l3-3c.195-.195.195-.512 0-.707s-.512-.195-.707 0l-3 3c-.053.053-.088.115-.113.18l-.646-.646c.066-.024.128-.06.18-.113l3-3c.195-.195.195-.512 0-.707s-.512-.195-.707 0l-3 3c-.053.053-.088.115-.113.18l-.646-.646c.066-.024.128-.06.18-.113l3-3c.195-.195.195-.512 0-.707s-.512-.195-.707 0l-3 3c-.053.053-.089.115-.113.18l-.646-.646c.066-.024.128-.06.18-.113l3-3c.195-.195.195-.512 0-.707s-.512-.195-.707 0l-3 3c-.053.053-.088.115-.113.18l-.647-.647c.066-.024.128-.06.18-.113l3-3c.195-.195.195-.512 0-.707s-.512-.195-.707 0l-3 3c-.053.053-.088.115-.113.18l-.646-.646c.066-.024.128-.06.18-.113l3-3c.195-.195.195-.512 0-.707s-.512-.195-.707 0l-3 3c-.053.053-.088.115-.113.18l-.545-.544c-.032-.032-.056-.071-.086-.105.064-.027.119-.063.165-.109l3-3c.195-.195.195-.512 0-.707s-.512-.195-.707 0L3.528 4.327c-.019-.109-.033-.22-.033-.331 0-.504.204-.997.561-1.354L5.849.849c.195-.195.195-.512 0-.707s-.512-.195-.707 0L.849 4.435c-.542.542-.854 1.293-.854 2.061s.311 1.518.854 2.061l14.586 14.586c.542.542 1.293.854 2.061.854s1.518-.311 2.061-.854l4.293-4.293c.195-.195.195-.512 0-.707zm-5 4.293c-.713.713-1.994.713-2.707 0L1.561 7.853C1.205 7.497 1 7.003 1 6.499s.204-.997.561-1.354l.958-.958c.047.7.337 1.375.835 1.872L17.94 20.645c.498.498 1.172.788 1.872.835l-.958.958z"/></svg>