<svg xmlns="http://www.w3.org/2000/svg" viewBox="0 0 24 24"><path fill="#5c6671" d="M21.286 17.479C22.923 16.427 24 14.668 24 13c0-3.018-3.355-5.599-7.521-5.954C15.258 4.654 12.049 3 8.5 3 3.893 3 0 5.748 0 9c0 1.668 1.077 3.426 2.713 4.478-.186.491-.747 1.307-1.481 2.132-.001.001-.003.003-.004.005-.146.154-.227.353-.227.559 0 .455.38.825.848.825.032 0 3.571-.452 5.423-2.066.071.005.143.008.215.011 1.174 2.332 4.366 4.058 8.014 4.058.399 0 .806-.021 1.234-.063 1.854 1.61 5.386 2.062 5.418 2.062.467 0 .848-.37.848-.825 0-.208-.082-.408-.224-.558-.537-.59-1.269-1.551-1.49-2.137zM7.11 13.915c-.141-.006-.266.046-.364.142-1.119 1.086-3.442 1.672-4.466 1.869.532-.631 1.457-1.842 1.498-2.667a.49939.49939 0 0 0-.255-.46C2.014 11.951 1 10.424 1 9c0-2.663 3.505-5 7.5-5 2.876 0 5.583 1.226 6.815 3.002-.107.002-.212.012-.318.017-.149.006-.297.011-.444.023-.132.011-.261.028-.392.044-.145.017-.29.032-.433.054-.128.02-.253.046-.378.071-.141.027-.282.052-.42.084-.124.029-.243.064-.365.096-.135.036-.271.071-.402.112-.12.038-.236.081-.354.122-.127.044-.255.087-.378.136-.117.046-.229.099-.343.149-.117.051-.235.1-.348.156s-.22.116-.33.175c-.107.058-.216.113-.319.174-.107.063-.207.132-.309.199-.097.063-.197.124-.29.19-.102.072-.195.15-.292.226-.085.067-.173.131-.254.2-.094.081-.18.167-.268.251-.073.07-.151.138-.22.21-.085.089-.161.182-.239.274-.062.073-.129.143-.187.218-.075.097-.139.197-.206.297-.051.075-.106.147-.153.223-.063.104-.114.212-.169.319-.039.075-.084.149-.118.226-.052.115-.09.234-.132.352-.025.072-.058.142-.079.215-.04.135-.065.272-.091.409-.011.059-.03.116-.039.175-.029.198-.045.398-.045.6 0 .295.043.585.104.87.003.015.002.03.005.045zm10.144 4.142a.49697.49697 0 0 0-.348-.142c-.02 0-.04.001-.06.003-.474.055-.915.082-1.346.082-3.341 0-6.331-1.637-7.223-3.729-.001-.003 0-.006-.001-.009-.087-.203-.15-.404-.195-.605-.004-.018-.009-.035-.013-.053-.043-.204-.067-.406-.067-.604 0-2.663 3.505-5 7.5-5 .219 0 .434.012.648.024.001 0 .003-.001.004-.001 3.716.237 6.848 2.459 6.848 4.976 0 1.424-1.014 2.951-2.523 3.799-.166.093-.264.271-.255.46.039.782.849 1.894 1.495 2.663-1.064-.204-3.355-.79-4.463-1.865z"/></svg>