<svg xmlns="http://www.w3.org/2000/svg" viewBox="0 0 24 24"><path fill="#5c6671" d="M12 0C5.383 0 0 5.383 0 12s5.383 12 12 12 12-5.383 12-12S18.617 0 12 0zm0 23C5.935 23 1 18.065 1 12S5.935 1 12 1s11 4.935 11 11-4.935 11-11 11zm0-21C6.486 2 2 6.486 2 12s4.486 10 10 10 10-4.486 10-10S17.514 2 12 2zm0 19c-4.962 0-9-4.038-9-9s4.038-9 9-9 9 4.038 9 9-4.038 9-9 9zm5.252-14.934l-7 4c-.008.005-.013.014-.02.019-.04.026-.073.06-.105.097-.016.019-.035.034-.048.055-.004.006-.01.009-.013.015l-4 7c-.112.196-.079.442.081.602.09.09.215.146.353.146.091 0 .177-.024.25-.067l6.998-3.999c.006-.003.009-.009.015-.013.021-.013.036-.032.055-.048.037-.032.071-.064.096-.104.005-.008.015-.012.019-.021l4-7c.112-.196.079-.442-.081-.602s-.407-.194-.602-.081zm-6.643 5.25l2.074 2.074-4.84 2.766 2.766-4.84zm2.782 1.368l-2.074-2.074 4.84-2.766-2.766 4.84zM12 6c.551 0 1-.449 1-1s-.449-1-1-1-1 .449-1 1 .449 1 1 1zm.5-1h-.499v-.001l.5.001zM5 11c-.551 0-1 .449-1 1s.449 1 1 1 1-.449 1-1-.449-1-1-1zm0 1v-.001l.5.001H5zm14-1c-.551 0-1 .449-1 1s.449 1 1 1 1-.449 1-1-.449-1-1-1zm0 1v-.001l.5.001H19zm-7 6c-.551 0-1 .449-1 1s.449 1 1 1 1-.449 1-1-.449-1-1-1zm0 1v-.001l.5.001h-.499z"/></svg>