<svg xmlns="http://www.w3.org/2000/svg" viewBox="0 0 24 24"><path fill="#5c6671" d="M12.5 9.291c0 .276-.224.5-.5.5-2.315 0-4.305 1.573-4.839 3.825-.055.23-.26.385-.486.385-.041 0-.081-.005-.119-.014-.265-.063-.431-.332-.368-.601.641-2.705 3.03-4.594 5.812-4.594.276 0 .5.224.5.5zM24 18.743V19c0 1.103-.897 2-2 2H2c-1.103 0-2-.897-2-2v-.257c0-.935.364-1.813 1.025-2.475l.535-.535c.394-.393.897-.629 1.439-.7v-.032c0-4.274 2.998-7.855 7-8.768V4.501c0-.827.673-1.5 1.5-1.5h1c.827 0 1.5.673 1.5 1.5v1.732c4.002.913 7 4.494 7 8.768v.032c.542.071 1.046.307 1.439.7l.535.535c.661.662 1.025 1.541 1.025 2.475zM11 6.059c.329-.037.662-.059 1-.059s.671.022 1 .059V4.5c0-.276-.225-.5-.5-.5h-1c-.275 0-.5.224-.5.5v1.559zM4 15h16c0-4.411-3.589-8-8-8s-8 3.589-8 8zm19 3.743c0-.667-.26-1.295-.732-1.768l-.535-.535c-.279-.279-.666-.439-1.061-.439H3.328c-.395 0-.781.16-1.061.439l-.535.535C1.259 17.448 1 18.076 1 18.743V19c0 .551.448 1 1 1h20c.552 0 1-.449 1-1v-.257zM12 18H2.5c-.276 0-.5.224-.5.5s.224.5.5.5H12c.276 0 .5-.224.5-.5s-.224-.5-.5-.5z"/></svg>