<svg xmlns="http://www.w3.org/2000/svg" viewBox="0 0 24 24"><path fill="#5c6671" d="M19.5 0c-1.202 0-2.332.468-3.182 1.318l-10 10C5.468 12.169 5 13.298 5 14.5c0 .499.101.971.251 1.42L.585 20.586c-.378.378-.586.88-.586 1.414 0 1.103.897 2 2 2 .534 0 1.036-.208 1.414-.586l4.666-4.666c.449.151.921.251 1.42.251 1.202 0 2.332-.468 3.182-1.318l10-10c.85-.851 1.318-1.98 1.318-3.182 0-2.481-2.019-4.5-4.5-4.5zM7.104 18.31l-4.397 4.397c-.189.189-.44.293-.707.293-.551 0-1-.449-1-1 0-.267.104-.518.293-.707l4.397-4.397c.014.022.034.039.048.06.133.203.289.389.452.568.092.101.185.194.282.283.182.166.368.322.571.455.022.014.038.034.06.048zM21.975 6.975l-10 10C11.313 17.636 10.434 18 9.5 18c-.673 0-1.297-.2-1.832-.531-.464-.291-.845-.673-1.128-1.122-.34-.549-.54-1.173-.54-1.846 0-.935.364-1.813 1.025-2.475l10-10c.662-.661 1.541-1.025 2.475-1.025 1.93 0 3.5 1.57 3.5 3.5 0 .935-.364 1.813-1.025 2.475zM20.5 2.793c.195.195.195.512 0 .707-.236.236-.242.436-.252.768-.012.391-.029.927-.545 1.443s-1.052.533-1.444.544c-.331.01-.531.017-.767.252s-.241.435-.251.766c-.012.391-.028.927-.543 1.442s-1.051.53-1.441.542c-.331.009-.53.015-.764.249s-.24.434-.25.765c-.012.391-.027.927-.543 1.442s-1.051.53-1.441.542c-.331.009-.53.015-.764.249s-.239.433-.248.762c-.011.391-.026.927-.541 1.441s-1.051.53-1.442.542c-.331.009-.53.015-.764.25-.098.098-.226.146-.354.146s-.256-.049-.354-.146c-.195-.195-.195-.512 0-.707.515-.515 1.051-.531 1.442-.542.33-.01.529-.016.764-.25s.239-.433.248-.762c.011-.391.026-.927.541-1.441s1.051-.53 1.441-.542c.331-.009.53-.015.764-.249s.24-.434.25-.765c.012-.391.027-.927.543-1.442s1.051-.53 1.441-.542c.331-.009.53-.015.764-.249s.241-.435.251-.765c.012-.392.028-.928.543-1.443s1.052-.532 1.443-.544c.331-.01.531-.016.767-.252s.242-.436.252-.768c.012-.391.029-.927.545-1.443.195-.195.512-.195.707 0z"/></svg>