<svg xmlns="http://www.w3.org/2000/svg" viewBox="0 0 24 24"><path fill="#5c6671" d="M7.936 5.259C7.565 3.742 5.801 2.052 3.86 2.052c-.721 0-1.341.257-1.659.688-.142.192-.204.391-.201.644.001.14.022.291.063.461.371 1.517 2.135 3.207 4.076 3.207.788 0 1.471-.32 1.741-.816.087-.16.188-.436.055-.978zm-1.797.794c-1.412 0-2.828-1.314-3.104-2.444-.028-.116-.035-.192-.03-.274.072-.098.343-.282.855-.282 1.412 0 2.828 1.313 3.104 2.444.045.183.036.261.037.264-.052.093-.339.292-.862.292zm0 10.947c-1.94 0-3.705 1.69-4.076 3.207-.041.167-.062.322-.063.459-.003.254.059.453.2.644.318.432.938.689 1.66.689 1.94 0 3.705-1.69 4.076-3.207.133-.543.032-.819-.056-.978-.27-.496-.953-.815-1.741-.815zm.825 1.556C6.688 19.686 5.272 21 3.86 21c-.512 0-.783-.185-.86-.322 0-.043.007-.118.035-.234C3.311 19.314 4.727 18 6.139 18c.525 0 .813.202.858.28 0 .001.016.076-.033.276zm7.715-6.678l9.149-7.974c.104-.091.17-.224.171-.372.001-.143-.058-.279-.164-.375-1.381-1.255-3.288-1.337-4.744-.206l-8.897 6.755c-.113.034-.512.136-.876-.064-.298-.164-.518-.502-.655-1.008 1.155-.91 1.603-2.419 1.17-4.027C9.149 2.067 6.469 0 3.858 0 2.722 0 1.709.392 1.006 1.104.343 1.775-.015 2.702-.002 3.713c.004.377.06.765.165 1.154.632 2.348 3.091 3.658 5.076 4.09.989 1.092 1.843 2.471 2.172 3.028-.36.547-1.27 1.907-2.175 3.044-2.512.35-4.491 1.943-5.072 4.104-.104.389-.16.777-.165 1.154-.013 1.012.346 1.938 1.008 2.609C1.71 23.607 2.723 24 3.859 24c2.611 0 5.291-2.067 5.975-4.607.431-1.604-.014-3.11-1.163-4.021.115-.36.293-.6.535-.714.51-.241 1.265.051 1.534.193l8.348 6.196c.685.533 1.469.797 2.252.797.882 0 1.762-.336 2.494-1.001.101-.092.164-.223.164-.37v-.002c-.001-.147-.064-.279-.166-.37l-9.155-8.224zM5.596 8.009c-1.865-.366-3.97-1.56-4.465-3.402-.083-.309-.127-.613-.13-.907-.009-.752.24-1.408.72-1.894C2.242 1.279 2.982 1 3.861 1 6.049 1 8.297 2.734 8.87 4.867c.355 1.32-.032 2.49-1.035 3.131-.14.09-.231.245-.231.422 0 .032.003.064.009.095.184.983.596 1.658 1.225 2.004.059.032.117.06.176.085l-.867.658c-.43-.709-1.29-2.041-2.28-3.103-.07-.075-.162-.128-.266-.149zm3.188 5.743c-.61.287-1.004.871-1.169 1.736-.038.201.049.405.222.515 1.001.642 1.388 1.812 1.033 3.13C8.297 21.265 6.05 23 3.861 23c-.879 0-1.619-.279-2.14-.806-.48-.486-.729-1.142-.72-1.895.003-.293.047-.598.13-.906.489-1.82 2.226-3.153 4.424-3.396.135-.016.252-.083.333-.181 1.108-1.366 2.237-3.087 2.485-3.471l11.327-8.6c.001-.001.003-.002.005-.004.924-.717 2.055-.775 3.005-.189L10.918 13.83c-.468-.191-1.35-.446-2.133-.078zm10.911 6.499l-7.898-5.862 2.123-1.85 8.797 7.903c-.952.59-2.088.535-3.022-.191zM19.5 12c.276 0 .5.224.5.5s-.224.5-.5.5h-1c-.276 0-.5-.224-.5-.5s.224-.5.5-.5h1zm4.5.5c0 .276-.224.5-.5.5h-1c-.276 0-.5-.224-.5-.5s.224-.5.5-.5h1c.276 0 .5.224.5.5z"/></svg>