<svg xmlns="http://www.w3.org/2000/svg" viewBox="0 0 24 24"><path fill="#5c6671" d="M18.5 12c-.544 0-1.069.182-1.5.509-.431-.327-.956-.509-1.5-.509-1.379 0-2.5 1.122-2.5 2.5s1.121 2.5 2.5 2.5c.544 0 1.069-.182 1.5-.509.431.327.956.509 1.5.509 1.379 0 2.5-1.122 2.5-2.5S19.879 12 18.5 12zm0 4c-.426 0-.836-.189-1.123-.519-.096-.109-.232-.171-.377-.171s-.281.063-.377.171c-.287.33-.697.519-1.123.519-.827 0-1.5-.673-1.5-1.5s.673-1.5 1.5-1.5c.426 0 .836.189 1.123.519.191.218.563.218.754 0 .287-.33.697-.519 1.123-.519.827 0 1.5.673 1.5 1.5s-.673 1.5-1.5 1.5zM22 3H2C.897 3 0 3.897 0 5v14c0 1.103.897 2 2 2h20c1.103 0 2-.897 2-2V5c0-1.103-.897-2-2-2zM1 7h22v2H1V7zm1-3h20c.552 0 1 .449 1 1v1H1V5c0-.551.448-1 1-1zm20 16H2c-.552 0-1-.449-1-1v-9h22v9c0 .551-.448 1-1 1zm-11-4.5c0 .276-.224.5-.5.5h-7c-.276 0-.5-.224-.5-.5s.224-.5.5-.5h7c.276 0 .5.224.5.5zm-8-2c0-.276.224-.5.5-.5h5c.276 0 .5.224.5.5s-.224.5-.5.5h-5c-.276 0-.5-.224-.5-.5z"/></svg>