<svg xmlns="http://www.w3.org/2000/svg" viewBox="0 0 24 24"><path fill="#5c6671" d="M24 4.5c0-.827-.673-1.5-1.5-1.5S21 3.673 21 4.5c0 .651.419 1.201 1 1.408V9H2V5.908c.581-.207 1-.757 1-1.408C3 3.673 2.327 3 1.5 3S0 3.673 0 4.5c0 .651.419 1.201 1 1.408V23.5c0 .276.224.5.5.5s.5-.224.5-.5V23h20v.5c0 .276.224.5.5.5s.5-.224.5-.5V5.908c.581-.207 1-.757 1-1.408zM22 19h-2v-9h2v9zm-5 0v-9h2v9h-2zm-3 0v-9h2v9h-2zm-3 0v-9h2v9h-2zm-3 0v-9h2v9H8zm-3 0v-9h2v9H5zm-1-9v9H2v-9h2zM1.5 4c.275 0 .5.224.5.5s-.225.5-.5.5-.5-.224-.5-.5.225-.5.5-.5zM2 22v-2h20v2H2zM22.5 5c-.275 0-.5-.224-.5-.5s.225-.5.5-.5.5.224.5.5-.225.5-.5.5zM7 7h3c.18 0 .347-.097.436-.253s.086-.349-.007-.504L9.012 3.882c.057-1.429 1.111-2.598 2.488-2.831v1.542c-.581.207-1 .757-1 1.408 0 .827.673 1.5 1.5 1.5s1.5-.673 1.5-1.5c0-.651-.419-1.201-1-1.408V1.051C13.916 1.291 15 2.517 15 4h-.5c-.276 0-.5.224-.5.5v2c0 .276.224.5.5.5h2c.276 0 .5-.224.5-.5v-2c0-.276-.224-.5-.5-.5H16c0-2.206-1.794-4-4-4-2.149 0-3.894 1.707-3.983 3.833L6.571 6.242c-.093.155-.095.347-.007.504s.256.253.436.253zm9-1h-1V5h1v1zm-4-1.5c-.275 0-.5-.224-.5-.5s.225-.5.5-.5.5.224.5.5-.225.5-.5.5zm-3.5.472L9.117 6H7.883L8.5 4.972z"/></svg>