<svg xmlns="http://www.w3.org/2000/svg" viewBox="0 0 24 24"><path fill="#5c6671" d="M24 6c0-.534-.208-1.036-.586-1.414l-4-4c-.756-.756-2.072-.756-2.828 0L10 7.172V2c0-1.103-.897-2-2-2S6 .897 6 2v9.172l-1.414 1.414C4.208 12.964 4 13.466 4 14c0 .777.446 1.453 1.095 1.784L4 16.879V2c0-1.103-.897-2-2-2S0 .897 0 2v20c0 1.103.897 2 2 2h.5c.046 0 .087-.015.129-.026.339-.03.672-.154.931-.413l2.439-2.439v.879c0 1.103.897 2 2 2s2-.897 2-2v-2c.534 0 1.036-.208 1.414-.586l12-12c.378-.378.586-.88.586-1.414zM7 2c0-.551.449-1 1-1s1 .449 1 1v6.172l-2 2V2zM2 1c.551 0 1 .449 1 1v15.879l-2 2V2c0-.551.449-1 1-1zm.854 21.854c-.195.195-.512.195-.707 0l-1-1c-.195-.195-.195-.512 0-.707l3.146-3.146L6 19.708l-3.146 3.146zM9 22c0 .551-.449 1-1 1s-1-.449-1-1v-1.879l1.216-1.216c.175.344.451.624.784.818V22zM22.707 6.707l-12 12c-.189.189-.44.293-.707.293-.551 0-1-.449-.991-1.065.013-.208-.104-.401-.294-.486s-.412-.044-.559.103l-1.449 1.449L5 17.294l1.449-1.449c.147-.147.155-.365.07-.554-.081-.18-.289-.291-.487-.291-.549.012-1.032-.437-1.032-.999 0-.267.104-.518.293-.707l12-12c.378-.378 1.036-.378 1.414 0l4 4c.189.189.293.44.293.707s-.104.518-.293.707zM20 16c-2.206 0-4 1.794-4 4s1.794 4 4 4 4-1.794 4-4-1.794-4-4-4zm0 7c-1.654 0-3-1.346-3-3s1.346-3 3-3 3 1.346 3 3-1.346 3-3 3z"/></svg>