<svg xmlns="http://www.w3.org/2000/svg" viewBox="0 0 24 24"><path fill="#5c6671" d="M23.623 4.519c-.008-.013-.015-.023-.018-.028-.645-.852-2.914-1.692-4.788-2.268-.66-1.133-1.67-1.222-3.097-1.222h-.219c-1.194 0-2.068.179-2.605.334l-.019-.044c-.019-.049-.04-.097-.083-.192a.44433.44433 0 0 0-.063-.104C12.371.38 11.718 0 11.01 0c-.153 0-.312.021-.423.053-2.508.305-5.052 1.544-6.973 3.39-.19.174-.175.161-.164.152C1.596 5.523.358 8.068.063 10.518.02 10.691 0 10.848 0 11c0 .73.403 1.402 1.052 1.753l.001-.002c.034.021.067.04.095.053.048.023.097.044.124.053l.064.028c-.156.536-.337 1.414-.337 2.614v.166c-.002 1.455.077 2.482 1.223 3.15.575 1.874 1.416 4.144 2.283 4.802.01.008.023.016.036.025.274.23.612.357.958.357.827 0 1.5-.673 1.5-1.478.028-.633.159-2.337.435-3.164.226-.093.438-.202.623-.346.739-.574 1.162-1.533 1.353-3.064.373-.074.724-.255 1.003-.534l5.011-5c.28-.28.458-.631.532-1.004 1.525-.191 2.482-.614 3.055-1.352.146-.188.261-.397.355-.626.829-.273 2.522-.404 3.133-.431.827 0 1.5-.673 1.5-1.5 0-.356-.134-.704-.377-.981zm-11.349-3.12l.088-.038-.117.086.028-.048zM6.33 19.612c-.247 1.144-.32 2.66-.33 2.888 0 .425-.494.646-.906.308-.422-.32-1.054-1.662-1.673-3.523.01.003.022.004.032.007.289.075.606.143.968.202.336.054.642.087.933.108.081.006.157.008.235.011.106.005.22.015.32.015s.186-.012.281-.016c.044-.002.097.003.14 0zm1.114-1.39c-.263.204-.609.326-1.047.377-.07.008-.15.009-.224.014-.153.009-.314.012-.489.005-.081-.003-.162-.006-.249-.012-.264-.02-.542-.049-.856-.099-.754-.122-1.314-.28-1.715-.485-.01-.005-.022-.001-.032-.006-.835-.449-.834-1.139-.833-2.349V15.5c0-1.002.14-1.751.264-2.217l5.87 2.516c.034.015.068.025.104.032.057.023.115.043.176.061-.156 1.196-.468 1.942-.969 2.331zm2.263-3.515c-.19.19-.44.276-.697.273-.01-.001-.018-.007-.028-.007-.078-.003-.146-.012-.21-.024-.068-.017-.136-.031-.201-.063-.035-.017-.075-.029-.117-.037l-6.788-2.91c-.004-.002-.059-.025-.105-.045a.39616.39616 0 0 0-.03-.018c-.328-.178-.53-.513-.53-.875 0-.071.011-.148.045-.302.28-2.298 1.419-4.634 3.107-6.392l.146-.134c1.776-1.708 4.112-2.847 6.471-3.138.093-.023.17-.034.241-.034.363 0 .698.203.874.529.023.042.055.083.091.118l-.026.019.188.439c.005.016.003.033.01.048l2.695 6.289c.009.049.024.092.044.133.051.105.079.236.086.407.001.024.013.046.017.069-.007.242-.093.476-.272.655l-5.011 5zm6.184-6.293c-.005-.018-.012-.035-.018-.053-.015-.042-.015-.087-.033-.129-.008-.037-.018-.07-.032-.101l-2.515-5.869c.466-.123 1.211-.261 2.207-.261h.167c1.204.001 1.898-.001 2.351.843.003.007 0 .014.004.021.205.401.363.962.485 1.715.051.314.08.592.1.856.006.086.009.167.012.248.002.057.004.125.004.192 0 .105-.003.208-.01.311-.004.06-.005.14-.013.21-.051.438-.173.784-.377 1.047-.389.5-1.135.813-2.331.969zm6.587-2.413c-.21.009-1.722.083-2.866.33.011-.144.001-.312.001-.469 0-.111.007-.214.001-.332-.018-.339-.055-.703-.12-1.108-.059-.363-.127-.683-.203-.973-.002-.008-.003-.018-.005-.026 1.771.591 3.078 1.198 3.519 1.667.018.03.039.059.06.082.062.068.136.182.136.331 0 .276-.224.5-.522.5z"/></svg>