<svg xmlns="http://www.w3.org/2000/svg" viewBox="0 0 24 24"><path fill="#5c6671" d="M12 0C5.383 0 0 5.383 0 12s5.383 12 12 12 12-5.383 12-12S18.617 0 12 0zm.5 22.975V19.5c0-.276-.224-.5-.5-.5s-.5.224-.5.5v3.475C5.834 22.718 1.282 18.166 1.025 12.5H4.5c.276 0 .5-.224.5-.5s-.224-.5-.5-.5H1.025C1.282 5.834 5.834 1.282 11.5 1.025V4.5c0 .276.224.5.5.5s.5-.224.5-.5V1.025c5.666.257 10.218 4.809 10.475 10.475H19.5c-.276 0-.5.224-.5.5s.224.5.5.5h3.475c-.257 5.666-4.809 10.218-10.475 10.475zM12 11c-.552 0-1 .448-1 1s.448 1 1 1 1-.448 1-1-.448-1-1-1zm0 1z"/></svg>