<svg xmlns="http://www.w3.org/2000/svg" viewBox="0 0 24 24"><path fill="#5c6671" d="M22 10c0-5.514-4.486-10-10-10S2 4.486 2 10c-1.103 0-2 .897-2 2v1c0 1.103.897 2 2 2h.099l1.652 7.434C3.957 23.356 4.759 24 5.704 24h12.594c.944 0 1.747-.644 1.953-1.566L21.903 15h.099c1.103 0 2-.897 2-2v-1c0-1.103-.897-2-2-2zM12 1c4.962 0 9 4.038 9 9H3c0-4.962 4.038-9 9-9zm7.273 21.216c-.103.461-.504.784-.976.784H5.703c-.472 0-.874-.322-.976-.783L3.123 15h17.753l-1.604 7.216zM23 13c0 .551-.449 1-1 1H2c-.551 0-1-.449-1-1v-1c0-.551.449-1 1-1h20c.551 0 1 .449 1 1v1zM8.447 3.724l-.5 1c-.088.175-.264.276-.448.276-.075 0-.151-.017-.223-.053-.247-.124-.347-.424-.224-.671l.5-1c.124-.247.424-.347.671-.224s.347.424.224.671zM6 6.5v1c0 .276-.224.5-.5.5S5 7.776 5 7.5v-1c0-.276.224-.5.5-.5s.5.224.5.5zm4.447.776c.124.247.023.547-.224.671-.072.036-.148.053-.223.053-.184 0-.36-.101-.448-.276l-.5-1c-.124-.247-.023-.547.224-.671.247-.122.547-.024.671.224l.5 1zm2-4.552l-.5 1c-.088.175-.264.276-.448.276-.075 0-.151-.017-.223-.053-.247-.124-.347-.424-.224-.671l.5-1c.124-.248.424-.347.671-.224s.347.424.224.671zm3 1.552c.124.247.023.547-.224.671-.072.036-.148.053-.223.053-.184 0-.36-.101-.448-.276l-.5-1c-.124-.247-.023-.547.224-.671s.547-.023.671.224l.5 1zm-.5 2.448l-.5 1c-.088.175-.264.276-.448.276-.075 0-.151-.017-.223-.053-.247-.124-.347-.424-.224-.671l.5-1c.124-.248.424-.346.671-.224.247.124.347.424.224.671zm4.277 1.223c-.072.036-.148.053-.223.053-.184 0-.36-.101-.448-.276l-.5-1c-.124-.247-.023-.547.224-.671.247-.122.547-.024.671.224l.5 1c.124.247.023.547-.224.671z"/></svg>