<svg xmlns="http://www.w3.org/2000/svg" viewBox="0 0 18 24"><path fill="#5c6671" d="M9.003 4.994c1.103 0 2.001-.897 2.001-2.001 0-.971-1.356-2.532-1.628-2.835-.19-.211-.555-.211-.744 0-.272.303-1.628 1.864-1.628 2.835 0 1.103.897 2.001 2.001 2.001zm0-3.727c.531.666 1 1.416 1 1.726 0 .551-.449 1-1 1s-1-.449-1-1c0-.319.47-1.063 1-1.726zm7.002 13.73c0-3.166-2.113-5.844-5.002-6.707V6.495c0-.276-.224-.5-.5-.5H7.502c-.276 0-.5.224-.5.5V8.29C4.113 9.153 2 11.832 2 14.997c-1.103 0-2.001.897-2.001 2.001S.896 18.999 2 18.999h.128l1.073 3.576c.256.853 1.026 1.426 1.917 1.426h7.77c.89 0 1.661-.573 1.917-1.426l1.073-3.576h.128c1.103 0 2.001-.897 2.001-2.001s-.897-2.001-2.001-2.001zM8.003 6.994h2.001v1.08c-.328-.047-.66-.08-1-.08s-.673.033-1 .08v-1.08zm1 2.001c3.31 0 6.002 2.692 6.002 6.002H3.001c0-3.31 2.692-6.002 6.002-6.002zm4.843 13.292c-.128.426-.513.713-.958.713h-7.77c-.445 0-.83-.287-.958-.713l-.986-3.289h11.66l-.986 3.289zm2.159-4.289H2c-.551 0-1-.449-1-1s.449-1 1-1h14.005c.551 0 1 .449 1 1s-.449 1-1 1zm-7.279-7.055l-1 .5c-.072.036-.148.053-.223.053-.184 0-.36-.101-.448-.276-.124-.247-.023-.548.224-.671l1-.5c.248-.123.547-.023.671.224s.023.548-.224.671zm2.554.5l-1-.5c-.247-.124-.347-.424-.224-.671s.424-.346.671-.224l1 .5c.247.124.347.424.224.671-.088.175-.264.276-.448.276-.075 0-.151-.017-.223-.053zM5.949 12.72l-.5 1c-.088.175-.264.276-.448.276-.075 0-.151-.017-.223-.053-.247-.124-.347-.424-.224-.671l.5-1c.124-.247.425-.346.671-.224s.347.424.224.671zm3.054-.224v1c0 .276-.224.5-.5.5s-.5-.224-.5-.5v-1c0-.276.224-.5.5-.5s.5.224.5.5zm3.448.777c.124.247.023.548-.224.671-.072.036-.148.053-.223.053-.184 0-.36-.101-.448-.276l-.5-1c-.124-.247-.023-.548.224-.671s.547-.023.671.224l.5 1z"/></svg>