<svg xmlns="http://www.w3.org/2000/svg" viewBox="0 0 24 24"><path fill="#5c6671" d="M22 3H2C.897 3 0 3.897 0 5v14c0 1.103.897 2 2 2h20c1.103 0 2-.897 2-2V5c0-1.103-.897-2-2-2zM1 15.383L3.695 17H1v-1.617zM2.305 15H10v4.617L2.305 15zM5 18v1.617L2.305 18H5zm1 .383L8.695 20H6v-1.617zm5-3L18.695 20H11v-4.617zM1 14V9.383L8.695 14H1zm0 5v-.617L3.695 20H2c-.551 0-1-.449-1-1zm22 0c0 .551-.449 1-1 1h-1.362L1 8.217V5c0-.551.449-1 1-1h20c.551 0 1 .449 1 1v14zm-12.001-8.814h1.324v.657h-2.14V8.352h2.093v.67H11v.276h1.166v.614h-1.167v.275zm4.598.007c0 .22 0 .431.001.649h-1.917V8.35h.805v1.843h1.111zm.761-1.844h2.201v.67h-.699v1.825h-.82c0-.606 0-1.207.001-1.816h-.683v-.679zm4.751.07c-.022-.056-.047-.079-.108-.079h-.003c-.108.002-.216.004-.324.004-.089 0-.177-.001-.266-.005h-.013c-.078 0-.116.036-.142.105-.045.123-.091.246-.138.369-.192.509-.385 1.017-.575 1.526-.062.165-.119.333-.183.511h.349c.137 0 .27-.001.404-.004.029 0 .071-.035.084-.063.039-.093.069-.191.104-.29h.296c.134 0 .266.001.399.003.029 0 .068.036.079.065.03.074.043.154.072.229.01.024.043.057.067.057.143.003.286.003.432.003h.36c-.013-.05-.019-.082-.03-.113-.286-.773-.575-1.545-.861-2.318zm-.639 1.522c.072-.226.142-.442.218-.68.071.236.135.451.204.68h-.422zM8.229 8.453c-.185-.082-.381-.104-.578-.109-.155-.004-.309-.005-.464-.005-.216 0-.432.002-.649.002h-.123v2.51h.132c.21 0 .421.002.632.002.138 0 .276-.001.415-.003.134-.003.272-.016.402-.047.323-.074.58-.248.721-.555.16-.349.171-.714.076-1.082-.082-.32-.249-.574-.564-.713zM7.932 9.97c-.126.201-.315.222-.515.222-.053 0-.106-.001-.159-.001h-.026V9.032c.067-.006.135-.01.2-.01.201 0 .385.044.508.24.144.229.134.48-.009.709z"/></svg>