<svg xmlns="http://www.w3.org/2000/svg" viewBox="0 0 24 24"><path fill="#5c6671" d="M22 1H2C.897 1 0 1.897 0 3v15c0 1.103.897 2 2 2h6.577c.058.502.062 1.261-.265 1.674-.174.219-.439.326-.812.326-.276 0-.5.224-.5.5s.224.5.5.5h9c.276 0 .5-.224.5-.5s-.224-.5-.5-.5c-.373 0-.639-.106-.812-.325-.329-.415-.326-1.167-.265-1.675H22c1.103 0 2-.897 2-2V3c0-1.103-.897-2-2-2zM2 2h20c.552 0 1 .449 1 1v12H1V3c0-.551.448-1 1-1zm12.711 20H9.289c.347-.647.35-1.451.295-2h4.831c-.055.549-.052 1.353.295 2zM22 19H2c-.552 0-1-.449-1-1v-2h22v2c0 .551-.448 1-1 1zm-10-2.5c-.552 0-1 .449-1 1s.448 1 1 1 1-.449 1-1-.448-1-1-1zm0 1z"/></svg>