<svg xmlns="http://www.w3.org/2000/svg" viewBox="0 0 24 24"><path fill="#5c6671" d="M24 10V4c0-1.103-.897-2-2-2H2C.897 2 0 2.897 0 4v6c0 .507.042 1.003.103 1.494-.006.075.008.146.033.213.752 5.245 4.9 9.397 10.144 10.155.058.024.121.037.187.037.014 0 .028-.001.041-.002-.001 0 0-.001 0-.001.491.061.986.103 1.492.103.507 0 1.003-.042 1.494-.103.012.001.026.001.04.001.065 0 .128-.013.186-.036 5.244-.758 9.393-4.91 10.145-10.157.024-.063.035-.131.031-.203.062-.493.105-.993.105-1.503zM1.208 12.113c4.458.643 8.037 4.221 8.68 8.679-4.373-.855-7.825-4.306-8.68-8.679zm9.707 8.832c-.599-5.208-4.651-9.26-9.86-9.859C1.02 10.729 1 10.367 1 10V4c0-.551.449-1 1-1h20c.551 0 1 .449 1 1v6c0 .367-.02.728-.055 1.086-5.208.599-9.26 4.651-9.859 9.859-.358.035-.72.055-1.086.055s-.728-.02-1.085-.055zm3.198-.153c.643-4.457 4.222-8.036 8.679-8.679-.855 4.373-4.306 7.824-8.679 8.679zM16.051 8c.232 1.14 1.242 2 2.449 2 1.378 0 2.5-1.122 2.5-2.5S19.878 5 18.5 5c-1.207 0-2.217.86-2.449 2H7.95c-.232-1.14-1.242-2-2.449-2-1.378 0-2.5 1.122-2.5 2.5s1.122 2.5 2.5 2.5c1.207 0 2.217-.86 2.449-2h8.101zM18.5 6c.827 0 1.5.673 1.5 1.5S19.327 9 18.5 9 17 8.327 17 7.5 17.673 6 18.5 6zm-13 3C4.673 9 4 8.327 4 7.5S4.673 6 5.5 6 7 6.673 7 7.5 6.327 9 5.5 9z"/></svg>