<svg xmlns="http://www.w3.org/2000/svg" viewBox="0 0 18 24"><path fill="#5c6671" d="M17.854 13.146l-3-3c-.09-.09-.215-.146-.353-.146h-3.5V9h4c1.103 0 2-.897 2-2V4c0-1.103-.897-2-2-2h-4c0-1.103-.897-2-2-2s-2 .897-2 2h-3.5c-.138 0-.263.056-.353.146l-3 3c-.195.195-.195.512 0 .707l3 3c.09.091.215.146.353.146h3.5v1h-4c-1.103 0-2 .897-2 2v3c0 1.103.897 2 2 2h4v5c0 1.103.897 2 2 2s2-.897 2-2v-5h3.5c.138 0 .263-.056.353-.146l3-3c.195-.195.195-.512 0-.707zM9 1c.551 0 1 .449 1 1H8c0-.551.449-1 1-1zM1.207 5.5l2.5-2.5H15c.551 0 1 .449 1 1v3c0 .551-.449 1-1 1H3.707l-2.5-2.5zM8 9h2v1H8V9zm2 13c0 .551-.449 1-1 1s-1-.449-1-1v-5h2v5zm4.293-6H3c-.551 0-1-.449-1-1v-3c0-.551.449-1 1-1h11.293l2.5 2.5-2.5 2.5z"/></svg>