<svg xmlns="http://www.w3.org/2000/svg" viewBox="0 0 18 24"><path fill="#5c6671" d="M12.549 21.362c.186.205.169.521-.036.706C11.13 23.314 9.35 24 7.5 24 3.364 24 0 20.636 0 16.5c0-2.068.874-4.068 2.396-5.485.202-.188.519-.177.707.025s.177.519-.025.707C1.738 12.994 1 14.682 1 16.5 1 20.084 3.916 23 7.5 23c1.602 0 3.145-.595 4.343-1.675.205-.186.521-.169.706.037zM3.437 13.58c-.238-.137-.543-.056-.683.183-.5.865-.754 1.786-.754 2.737C2 19.533 4.468 22 7.5 22c1.613 0 3.146-.724 4.203-1.987.177-.211.149-.527-.063-.704s-.525-.149-.705.063c-.866 1.035-2.119 1.629-3.436 1.629-2.481 0-4.5-2.019-4.5-4.5 0-.772.208-1.525.619-2.237.139-.239.057-.545-.183-.683zm14.548 6.568c-.035.137-.125.252-.25.319l-2.54 1.356c-.219.117-.463.177-.707.177-.167 0-.336-.028-.496-.085-.396-.139-.717-.439-.882-.824l-2.16-5.81c-.069-.162-.25-.28-.45-.28H7.947c-1.687 0-3.134-1.204-3.441-2.863l-1.21-5.927C2.482 5.547 2 4.549 2 3.502c0-1.93 1.57-3.5 3.5-3.5S9 1.572 9 3.502c0 1.54-1.031 2.889-2.474 3.333L6.8 8.002h3.699c.827 0 1.5.673 1.5 1.5s-.673 1.5-1.5 1.5H7.401l.116.595c.046.235.252.405.491.405h2.489c1.402 0 2.665.833 3.218 2.122l1.732 4.445c.864-.193 1.781.155 2.289.916l.178.267c.053.078.084.175.084.278 0 .043-.005.085-.016.125zm-1.227-.293c-.353-.352-.903-.451-1.361-.219-.126.064-.278.074-.411.023-.131-.051-.242-.151-.293-.282l-1.901-4.878c-.389-.905-1.29-1.5-2.292-1.5H8.011c-.717 0-1.336-.51-1.473-1.214l-.232-1.19a.49215.49215 0 0 1-.01-.098c0-.121.043-.231.115-.317.092-.111.23-.181.385-.181h3.705c.275 0 .5-.224.5-.5s-.225-.5-.5-.5H6.405c-.232 0-.434-.16-.486-.386L5.44 6.57c-.009-.035-.013-.074-.013-.115 0-.105.032-.203.088-.283.078-.114.202-.191.342-.211 1.223-.175 2.146-1.233 2.146-2.462 0-1.378-1.121-2.5-2.5-2.5s-2.5 1.122-2.5 2.5c0 .806.38 1.543 1.042 2.021.099.073.17.179.197.302l1.249 6.122c.221 1.194 1.255 2.055 2.46 2.055h2.553c.602 0 1.143.357 1.379.909l2.16 5.81c.047.107.15.205.284.252s.275.036.401-.03l2.033-1.085z"/></svg>