<svg xmlns="http://www.w3.org/2000/svg" viewBox="0 0 24 24"><path fill="#5c6671" d="M8.206 11.589c0 .593-.433 1.006-1.051 1.006-.452 0-.781-.179-1.055-.583l.384-.372c.137.266.365.409.649.409.265 0 .461-.184.461-.432 0-.129-.059-.239-.178-.317-.06-.037-.178-.092-.411-.174-.558-.202-.75-.418-.75-.84 0-.501.411-.878.95-.878.334 0 .64.115.895.34l-.311.409c-.155-.174-.301-.248-.479-.248-.256 0-.443.147-.443.34 0 .166.105.253.461.386.676.249.876.469.876.956zm-3.198-.598c0 .451-.206.887-.553 1.176-.293.244-.626.354-1.087.354H2.5V9.458h.873c.964 0 1.636.63 1.636 1.534zm-.612-.004c0-.293-.124-.579-.329-.763-.196-.179-.429-.248-.813-.248h-.159v2.026h.159c.384 0 .627-.074.813-.244.205-.184.329-.478.329-.772zm.885 1.534h.594V9.458h-.594v3.063zM24 5v14c0 1.105-.895 2-2 2H2.003c-1.104 0-2-.895-2-2L0 5.001c0-1.105.895-2 2-2L22 3c1.105 0 2 .895 2 2zm-1 9.563c-1.899 1.409-5.374 3.639-10.315 5.437H22c.551 0 1-.449 1-1v-4.436zM23 5c0-.551-.449-1-1-1L2 4.001c-.267 0-.518.104-.707.293S1 4.734 1 5.001L1.003 19c0 .551.449 1 1 1h7.439c7.042-2.043 11.656-5.213 13.558-6.702V5.001zM8.393 10.991c0 .9.703 1.599 1.608 1.599.256 0 .475-.051.745-.179v-.703c-.238.239-.448.336-.718.336-.599 0-1.023-.436-1.023-1.057 0-.588.438-1.052.996-1.052.284 0 .498.102.745.345v-.703c-.261-.133-.475-.188-.731-.188-.9 0-1.622.712-1.622 1.603zm8.803 1.53h1.686v-.519H17.79v-.827h1.052v-.519H17.79v-.68h1.092v-.519h-1.686v3.063zm3.344-1.291l.959 1.291h-.731l-.823-1.231h-.078v1.231h-.594V9.458h.881c.685 0 1.078.331 1.078.904 0 .469-.246.777-.694.868zm.083-.836c0-.298-.201-.454-.571-.454h-.183v.928h.174c.38 0 .581-.166.581-.474zm-5.164 1.121l-.813-2.058h-.649l1.293 3.142h.32l1.316-3.142h-.644l-.823 2.058zM14.183 11c0 .9-.726 1.63-1.621 1.63s-1.621-.73-1.621-1.63c0-.9.726-1.63 1.621-1.63s1.621.729 1.621 1.63zm-1 0c0-.347-.279-.63-.621-.63s-.621.282-.621.63c0 .347.279.63.621.63s.621-.282.621-.63z"/></svg>