<svg xmlns="http://www.w3.org/2000/svg" viewBox="0 0 24 24"><path fill="#5c6671" d="M23.854 6.146c-.195-.195-.512-.195-.707 0-.06.06-.132.127-.203.194L17.66 1.056c.066-.071.134-.143.194-.203.195-.195.195-.512 0-.707s-.512-.195-.707 0c-.157.157-.338.355-.523.572-.002.001-.004.002-.005.003-.003.003-.004.008-.008.011C15.857 1.622 15 2.964 15 4.499c0 .347.046.817.145 1.48.037.248.251.426.494.426.024 0 .049-.002.074-.005.273-.041.461-.295.421-.568-.09-.604-.134-1.04-.134-1.333 0-.068.014-.133.018-.2L19.7 7.981c-.067.004-.132.018-.2.018-.709 0-2.1-.252-3.444-.496-1.43-.259-2.78-.504-3.556-.504-1.92 0-3.239 1.032-3.854 1.646S7 10.578 7 12.499c0 .648.173 1.702.383 2.88-1.165-.208-2.223-.38-2.883-.38-1.533 0-2.874.855-3.764 1.609-.004.004-.01.005-.014.009-.002.002-.002.004-.004.006-.217.185-.414.365-.572.522-.195.195-.195.512 0 .707.098.098.226.146.354.146s.256-.049.354-.146c.06-.06.133-.128.203-.194l5.284 5.284c-.066.071-.134.143-.194.203-.195.195-.195.512 0 .707.098.098.226.146.354.146s.256-.049.354-.146c.157-.157.337-.355.522-.572.002-.002.004-.002.006-.004.004-.004.005-.01.009-.014.754-.89 1.609-2.231 1.609-3.764 0-.349-.046-.82-.144-1.48-.041-.273-.294-.458-.568-.421-.273.041-.461.295-.421.568.09.602.133 1.038.133 1.333 0 .068-.014.133-.018.2l-3.682-3.682c.067-.004.132-.018.2-.018.709 0 2.1.252 3.444.496 1.43.259 2.78.504 3.556.504 1.92 0 3.239-1.032 3.854-1.646s1.646-1.933 1.646-3.854c0-.648-.173-1.703-.383-2.88 1.165.208 2.223.38 2.883.38 1.532 0 2.873-.854 3.762-1.608.005-.005.011-.006.016-.011.002-.002.003-.005.005-.007.216-.184.414-.364.57-.521.195-.195.195-.512 0-.707zM7.719 20.851c-.191.487-.454.934-.737 1.321l-5.154-5.154c.386-.283.834-.546 1.321-.737l4.57 4.57zm7.26-6.579L9.727 9.02c.427-.348 1.042-.725 1.831-.907l4.328 4.328c-.182.788-.56 1.404-.907 1.831zm-2.537 1.615l-4.329-4.328c.182-.788.56-1.404.907-1.831l5.252 5.252c-.427.348-1.042.725-1.83.907zm-1.32.094c-.675-.055-1.676-.23-2.689-.412-.183-1.013-.358-2.014-.413-2.689l3.102 3.102zm1.757-7.962c.675.055 1.676.229 2.689.412.183 1.013.358 2.014.413 2.689l-3.102-3.102zm3.402-4.87c.191-.487.454-.934.737-1.321l5.154 5.154c-.387.283-.834.546-1.321.737l-4.57-4.57z"/></svg>