<svg xmlns="http://www.w3.org/2000/svg" viewBox="0 0 24 24"><path fill="#5c6671" d="M21.008 17.582c-2.4-.691-4.54-2.041-5.087-2.402l-.366-1.099c.952-1.153 1.597-2.675 1.759-4.128.43-.665.688-1.883.688-2.287 0-.187-.054-.744-.424-1.173l.2-2.35c.158-1.856-1.088-3.512-2.9-3.853-2.042-.386-3.716-.386-5.755-.001C7.312.63 6.066 2.287 6.224 4.142l.2 2.351C6.054 6.922 6 7.478 6 7.665c0 .404.258 1.623.688 2.287.161 1.453.806 2.974 1.759 4.128l-.366 1.099c-.546.361-2.683 1.709-5.087 2.402-1.762.508-2.993 2.127-2.993 3.938v.48c0 1.103.897 2 2 2h20.001c1.103 0 2-.897 2-2v-.48c0-1.811-1.231-3.43-2.993-3.938zM12.001 15c-1.619 0-3.07-1.501-3.818-3.282l3.815-1.67 3.802 1.714c-.753 1.763-2.194 3.239-3.799 3.239zm-2.768-.117c.804.686 1.749 1.117 2.768 1.117s1.963-.431 2.768-1.117l.258.775c.035.104.101.191.186.251.03.021.257.175.611.395l-2.563 1.424c-.79.438-1.732.438-2.522 0l-2.563-1.424c.354-.22.581-.374.61-.394.087-.061.153-.148.187-.248l.259-.779zm.075-13.612c1.918-.362 3.464-.362 5.384.001 1.305.246 2.203 1.444 2.089 2.786l-.148 1.734c-.589-.339-1.517-.77-2.657-1.037-.122-.987-.956-1.757-1.976-1.757s-1.854.77-1.976 1.757c-1.141.267-2.068.697-2.657 1.037l-.148-1.735c-.114-1.342.783-2.54 2.088-2.786zm1.693 3.728c0-.551.449-1 1-1s1 .449 1 1-.449 1-1 1-1-.449-1-1zM7.228 7.075c.004-.003.006-.008.011-.011.003-.002.006-.001.009-.003.013-.01 1.165-.881 2.902-1.311.298.731 1.014 1.249 1.851 1.249s1.553-.518 1.851-1.249c1.736.43 2.889 1.301 2.902 1.311.003.002.006.002.009.004.004.003.006.008.01.011.158.11.228.376.228.59 0 .262-.255 1.399-.567 1.8-.056.072-.094.162-.103.26-.033.36-.103.725-.201 1.086l-3.924-1.769c-.128-.058-.276-.058-.406-.002l-3.941 1.726c-.091-.347-.157-.696-.188-1.039-.009-.1-.047-.189-.104-.263-.311-.401-.566-1.537-.566-1.799 0-.214.071-.48.228-.591zM23.001 22c0 .551-.449 1-1 1H2c-.551 0-1-.449-1-1v-.48c0-1.389.912-2.586 2.27-2.977 1.522-.438 2.911-1.108 3.92-1.663.023.019.04.042.067.057l2.997 1.665c.546.304 1.147.456 1.746.456s1.2-.152 1.746-.456l2.997-1.665c.027-.015.044-.039.067-.057 1.009.556 2.399 1.225 3.92 1.663 1.358.391 2.27 1.587 2.27 2.977V22zm-5-1.5c0 .276-.224.5-.5.5h-.5v.5c0 .276-.224.5-.5.5s-.5-.224-.5-.5V21h-.5c-.276 0-.5-.224-.5-.5s.224-.5.5-.5h.5v-.5c0-.276.224-.5.5-.5s.5.224.5.5v.5h.5c.276 0 .5.224.5.5z"/></svg>