<svg xmlns="http://www.w3.org/2000/svg" viewBox="0 0 18 24"><path fill="#5c6671" d="M7.419 4.14C4.858 4.56 3 5.973 3 7.5c0 1.487 1.437 2.529 4.392 3.186.033.007.07.012.108.012.119 0 .228-.041.314-.111.117-.094.186-.238.186-.389V4.633c0-.152-.068-.289-.176-.381-.113-.095-.261-.14-.405-.112zM7 9.563C5.516 9.172 4 8.523 4 7.5c0-.781 1.132-1.804 3-2.256v4.319zm4 .754V5.242c1.805.434 2.934 1.397 3.01 2.166.013.132.078.253.181.337s.23.12.366.111l2.985-.295c.274-.027.476-.272.448-.546-.284-2.882-3.132-5.248-6.99-5.857V.501c0-.276-.224-.5-.5-.5h-3c-.276 0-.5.224-.5.5v.66c-4.144.649-7 3.212-7 6.34 0 2.182 1.228 5 7 6.182v5.074c-1.805-.434-2.934-1.397-3.01-2.166-.027-.274-.27-.47-.546-.448l-2.985.293c-.137.014-.255.081-.337.179-.072.086-.114.197-.114.318 0 .017.001.035.003.051.284 2.882 3.131 5.247 6.99 5.857v.659c0 .276.224.5.5.5h3c.276 0 .5-.224.5-.5v-.662c4.144-.649 7-3.211 7-6.337 0-2.183-1.228-5.002-7-6.184zm-.56 11.59c-.251.031-.44.244-.44.497v.597H8v-.594c0-.253-.189-.466-.44-.497-3.373-.408-5.946-2.237-6.474-4.531l2.021-.199c.453 1.258 2.131 2.324 4.312 2.68.144.024.293-.018.404-.113s.176-.234.176-.381v-6.097c0-.241-.172-.448-.409-.492C3.216 11.97.999 10.194.999 7.499c0-2.673 2.759-4.947 6.56-5.409.251-.031.44-.244.44-.497V.998h2v.592c0 .253.189.466.44.497 3.372.408 5.946 2.237 6.474 4.529l-2.021.2c-.454-1.258-2.131-2.323-4.312-2.68-.146-.024-.293.017-.404.113S10 4.483 10 4.63v6.097c0 .241.172.448.409.492 4.374.807 6.591 2.583 6.591 5.28 0 2.671-2.759 4.944-6.56 5.406zm.165-8.607c-.146-.031-.302.005-.419.1-.114.092-.186.232-.186.389v5.576c0 .152.068.289.176.381.087.074.201.119.324.119.027 0 .054-.002.081-.007 2.561-.42 4.419-1.832 4.419-3.357 0-1.498-1.479-2.574-4.395-3.201zM11 18.754V14.42c1.325.345 3 .995 3 2.08 0 .78-1.132 1.801-3 2.253z"/></svg>