<svg xmlns="http://www.w3.org/2000/svg" viewBox="0 0 24 24"><path fill="#5c6671" d="M4.996 8.998c0-.551-.449-1-1-1s-1.001.449-1.001 1c0 .552.449 1.001 1.001 1.001s1-.449 1-1.001zm-.5 0h-.5.5zm4.503-4.002c.552 0 1.001-.449 1.001-1.001s-.449-1-1.001-1-1 .449-1 1c0 .552.449 1.001 1 1.001zm.5-1h-.5v-.001h.5zm6.503 0c-.551 0-1 .449-1 1s.449 1 1 1c.552 0 1-.449 1-1s-.449-1-1-1zm.001 1.001v-.001h.5-.5zm3.001 5.002c0 .552.449 1.001 1 1.001s1.001-.449 1.001-1.001c0-.551-.449-1-1.001-1s-1 .449-1 1zm1.501 0h-.5v-.001h.5zM4.997 15.002c-.552 0-1.001.449-1.001 1s.449 1 1 1c.551 0 1-.449 1-1s-.449-1-1-1zm0 1v-.001l.5.001h-.5zm4.002 3.002c-.552 0-1 .449-1 1s.449 1 1 1 1.001-.449 1.001-1c0-.551-.449-1-1.001-1zm.001 1v-.001h.5H9zm3-12.006c-2.207 0-4.002 1.795-4.002 4.001S9.793 16.001 12 16.001s4.002-1.795 4.002-4.002S14.207 7.998 12 7.998zm0 7.004c-1.655 0-3.002-1.347-3.002-3.002S10.345 8.999 12 8.999s3.002 1.347 3.002 3.001c0 1.655-1.347 3.002-3.002 3.002zM20.489 3.51c-4.681-4.681-12.298-4.681-16.979 0s-4.681 12.297 0 16.979c2.285 2.284 5.303 3.512 8.44 3.512.971 0 1.953-.118 2.929-.358.165-.041.298-.162.353-.323s.025-.338-.08-.472c-.427-.543-.652-1.181-.652-1.844 0-.621.194-1.221.562-1.737.058-.081.093-.181.093-.29 0-.05-.007-.098-.021-.144-.091-.31-.133-.575-.133-.831 0-1.655 1.347-3.001 3.001-3.001.254 0 .52.043.835.134.146.043.305.016.43-.073 1.066-.762 2.53-.737 3.581.09.133.105.312.136.472.08s.281-.187.322-.35c1.017-4.131-.162-8.381-3.153-11.373zm2.331 10.438c-1.229-.641-2.75-.576-3.933.166-.315-.077-.601-.113-.885-.113-2.207 0-4.001 1.795-4.001 4.001 0 .285.036.571.113.885-.402.639-.613 1.366-.613 2.116 0 .636.153 1.252.447 1.816-3.564.645-7.156-.463-9.73-3.038-4.291-4.291-4.291-11.273 0-15.564C6.364 2.071 9.181.999 12 .999s5.637 1.073 7.782 3.218c2.574 2.575 3.684 6.168 3.038 9.73z"/></svg>