<svg xmlns="http://www.w3.org/2000/svg" viewBox="0 0 24 24"><path fill="#5c6671" d="M22.5 15c-.651 0-1.201.419-1.408 1h-3.4l-3.288-8.223C14.774 7.278 15 6.667 15 6c0-1.392-.957-2.555-2.245-2.892l.192-.384c.034-.069.053-.146.053-.224V1c0-.138-.056-.263-.146-.353l-.5-.5c-.195-.195-.512-.195-.707 0l-.5.5c-.091.09-.146.215-.146.353v1.5c0 .078.019.154.053.224l.192.384C9.958 3.445 9.001 4.608 9.001 6c0 .67.228 1.282.6 1.782L6.588 16H2.909c-.207-.581-.757-1-1.408-1-.827 0-1.5.673-1.5 1.5s.673 1.5 1.5 1.5c.651 0 1.201-.419 1.408-1h3.313l-.868 2.367c-.22.6-.133 1.271.232 1.795.241.345.588.587.975.72l-.53 1.446c-.095.259.038.547.298.642.257.095.547-.038.642-.297l2.446-6.672h2.084v.5c0 .276.224.5.5.5s.5-.224.5-.5v-.5h2.362l1.877 4.693s0 .001.001.002l.796 1.991c.078.196.266.314.464.314.062 0 .125-.011.186-.036.257-.103.381-.394.278-.65l-.581-1.452c.375-.141.708-.382.939-.723.364-.539.438-1.221.195-1.825l-.926-2.314h3c.207.581.757 1 1.408 1 .827 0 1.5-.673 1.5-1.5s-.673-1.5-1.5-1.5zm-21 2c-.275 0-.5-.224-.5-.5s.225-.5.5-.5.5.224.5.5-.225.5-.5.5zM12 4c1.103 0 2 .897 2 2s-.897 2-2 2-2-.897-2-2 .897-2 2-2zM6.405 20.59c-.182-.26-.223-.58-.113-.878l4.101-11.187c.28.179.59.311.922.389L6.909 20.932c-.198-.062-.38-.164-.504-.342zM12.5 16v-.5c0-.276-.224-.5-.5-.5s-.5.224-.5.5v.5H9.783l2.238-6.103L14.462 16H12.5zm5.494 4.579c-.119.176-.288.297-.479.363l-1.853-4.632-.003-.006-2.958-7.394c.332-.08.643-.212.921-.393l4.467 11.17c.12.3.085.625-.096.893zM22.5 17c-.275 0-.5-.224-.5-.5s.225-.5.5-.5.5.224.5.5-.225.5-.5.5z"/></svg>