<svg xmlns="http://www.w3.org/2000/svg" viewBox="0 0 18 24"><path fill="#5c6671" d="M17.775 4.917c.183-.121.266-.347.205-.557-.094-.322-.75-2.446-1.914-3.605-.021-.023-.04-.046-.065-.065-.434-.411-.934-.69-1.502-.69-1.043 0-2.271.156-3.354.293C10.304.399 9.509.5 8.999.5S7.694.399 6.854.293C5.771.156 4.543 0 3.5 0c-.568 0-1.068.278-1.502.69-.025.019-.044.042-.065.065C.769 1.914.113 4.038.019 4.36c-.062.21.021.437.205.557l3.371 2.226c.511 1.884.905 3.591.905 4.357 0 .843-.273 1.438-.588 2.127C3.485 14.559 3 15.615 3 17.5c0 3.007.486 5.958.507 6.082.04.241.249.418.493.418h10c.245 0 .453-.177.493-.418.021-.124.507-3.075.507-6.082 0-1.885-.484-2.941-.912-3.873-.315-.688-.588-1.284-.588-2.127 0-.766.394-2.473.905-4.357l3.371-2.226zm-2.959.757c.364-1.266.747-2.519 1.076-3.557.423.648.783 1.473 1.018 2.174l-2.094 1.383zM9 1.5c.573 0 1.36-.1 2.271-.215.399-.051.819-.102 1.24-.148C11.907 1.925 10.763 3 9 3S6.092 1.924 5.489 1.137c.42.046.84.097 1.24.148.912.116 1.698.215 2.271.215zM1.091 4.291c.219-.645.584-1.489 1.021-2.163.328 1.036.71 2.284 1.073 3.545L1.092 4.29zM14 17.5c0 2.276-.296 4.579-.43 5.5H4.429c-.133-.92-.43-3.222-.43-5.5 0-1.667.417-2.576.82-3.456.35-.762.68-1.482.68-2.544 0-.903-.45-2.816-.983-4.769 0-.002-.001-.003-.001-.005-.627-2.297-1.364-4.632-1.633-5.471C3.084 1.104 3.291 1 3.5 1c.227 0 .467.01.713.024C4.66 1.801 6.171 4 9 4s4.341-2.199 4.787-2.976c.245-.014.486-.024.713-.024.209 0 .416.1.619.25-.268.835-1.006 3.174-1.634 5.475 0 .002-.001.003-.001.005-.533 1.954-.983 3.866-.983 4.769 0 1.062.33 1.782.68 2.544.403.88.82 1.79.82 3.456z"/></svg>