<svg xmlns="http://www.w3.org/2000/svg" viewBox="0 0 24 24"><path fill="#5c6671" d="M23.5 6h-3.691l-.585-1.171c-.256-.511-.77-.829-1.342-.829h-2.301l-1.691-.563C13.022 3.147 12.118 3 11.202 3H2C.897 3 0 3.897 0 5v3c0 1.103.897 2 2 2h1.89l-.851 4.253-1.892 1.892c-.061.061-.098.141-.121.226-.005.018-.01.04-.013.062-.003.024-.013.043-.013.066v2.5c0 1.103.897 2 2 2h7c1.103 0 2-.897 2-2v-2.5c0-.005-.003-.01-.003-.015-.002-.062-.012-.122-.036-.178-.002-.005-.006-.008-.008-.012-.023-.05-.053-.095-.091-.135-.015-.015-.032-.026-.049-.04-.022-.018-.04-.039-.065-.053l-3.187-1.821.166-.832c.046.03.095.058.152.072.036.01.078.015.122.015.224 0 .428-.151.484-.379l.5-2c.067-.268-.096-.539-.364-.606-.113-.03-.223-.01-.321.034L9.41 10h1.792c.916 0 1.82-.147 2.688-.437L15.581 9h2.301c.572 0 1.086-.318 1.342-.829L19.809 7H23.5c.276 0 .5-.224.5-.5s-.224-.5-.5-.5zM11 19c0 .551-.449 1-1 1H3c-.551 0-1-.449-1-1v-2h9v2zm-3.248-4.066L9.617 16h-6.91l1.146-1.146c.068-.068.116-.155.136-.252l.92-4.601h3.48l-.88 4.402c-.042.211.055.425.242.532zm5.821-6.319c-.766.255-1.564.385-2.372.385H1.999c-.551 0-1-.449-1-1V5c0-.551.449-1 1-1h9.202c.808 0 1.606.129 2.372.385L15 4.861V8.14l-1.427.476zm4.756-.891c-.085.17-.256.276-.447.276H16V5h1.882c.191 0 .362.106.447.276l.612 1.224-.612 1.224z"/></svg>