<svg xmlns="http://www.w3.org/2000/svg" viewBox="0 0 24 24"><path fill="#5c6671" d="M23.853.146c-.195-.195-.512-.195-.707 0l-3.245 3.245c-.244-.07-.57-.082-1.01.077-.485.174-1.001.519-1.452.971-.853.853-1.229 1.796-1.044 2.458l-.188.188c-.391.39-1.023.39-1.414 0l-2.942-2.942c-.644-.644-1.634-.729-2.391-.24-1.056-.36-2.895.825-4.313 2.243-.839.838-1.521 1.742-1.923 2.544-.418.836-.442 1.387-.321 1.754-.492.742-.412 1.754.241 2.407l2.942 2.942c.188.189.293.44.293.707s-.104.518-.293.707L4 19.293l-2.561-2.561c-.188-.188-.52-.188-.707 0-.584.584-.84 1.415-.688 2.227C.282 21.788 2.674 24 5.501 24c.668 0 1.295-.26 1.768-.732.094-.094.146-.221.146-.354s-.053-.26-.146-.354L4.708 20l2.086-2.086c.378-.377.586-.88.586-1.414s-.208-1.037-.586-1.414l-2.942-2.942c-.288-.288-.332-.716-.179-1.036.095.022.177.055.296.055.338 0 .775-.104 1.342-.388.803-.401 1.706-1.083 2.545-1.922 1.361-1.361 2.492-3.102 2.263-4.175.337-.158.748-.106 1.027.173l2.942 2.942c.39.39.902.584 1.414.584s1.024-.195 1.414-.584l.184-.184c.101.029.212.051.345.051.188 0 .408-.036.665-.128.485-.174 1.001-.519 1.452-.971s.797-.967.971-1.452c.159-.44.148-.766.077-1.01L23.855.854c.195-.195.195-.512 0-.707zM5.5 23c-2.319 0-4.279-1.822-4.463-4.148-.001-.02-.004-.039-.008-.058-.019-.089-.029-.19-.029-.295 0-.234.054-.456.149-.654l4.997 5.009c-.199.096-.419.146-.646.146zM7.146 8.146c-1.66 1.659-3.066 2.153-3.291 2.002-.156-.232.335-1.632 1.998-3.295 1.471-1.472 2.736-2.026 3.169-2.026.056 0 .097.009.124.026.15.239-.343 1.636-2 3.292zm11.707-2.292c-.747.746-1.394.858-1.498.795-.066-.105.045-.756.791-1.502.63-.63 1.191-.808 1.415-.808.039 0 .067.005.085.015.063.112-.052.759-.793 1.5z"/></svg>