<svg xmlns="http://www.w3.org/2000/svg" viewBox="0 0 24 24"><path fill="#5c6671" d="M22 7c-.366 0-.705.106-1 .278V5c0-1.103-.897-2-2-2s-2 .897-2 2v5H7V5c0-1.103-.897-2-2-2s-2 .897-2 2v2.278C2.705 7.106 2.366 7 2 7 .897 7 0 7.897 0 9v6c0 1.103.897 2 2 2 .366 0 .705-.106 1-.278V19c0 1.103.897 2 2 2s2-.897 2-2v-5h10v5c0 1.103.897 2 2 2s2-.897 2-2v-2.278c.295.172.634.278 1 .278 1.103 0 2-.897 2-2V9c0-1.103-.897-2-2-2zM2 16c-.551 0-1-.449-1-1V9c0-.551.449-1 1-1s1 .449 1 1v6c0 .551-.449 1-1 1zm4 3c0 .551-.449 1-1 1s-1-.449-1-1V5c0-.551.449-1 1-1s1 .449 1 1v14zm1-6v-2h10v2H7zm13 6c0 .551-.449 1-1 1s-1-.449-1-1V5c0-.551.449-1 1-1s1 .449 1 1v14zm3-4c0 .551-.449 1-1 1s-1-.449-1-1V9c0-.551.449-1 1-1s1 .449 1 1v6z"/></svg>