<svg xmlns="http://www.w3.org/2000/svg" viewBox="0 0 24 24"><path fill="#5c6671" d="M12 0C9.325 0 6.787.872 4.661 2.52 1.699 4.816 0 8.271 0 12c0 6.617 5.383 12 12 12 .573 0 1.185-.052 1.869-.159 3.267-.512 6.206-2.373 8.062-5.104 0 0 0-.001.001-.001 1.354-1.992 2.069-4.321 2.069-6.735 0-6.617-5.383-12-12-12zm-1.012 1.046c-.005.126-.019.278-.033.441-.024.279-.05.576-.05.858 0 .302.03.587.124.814.09.216.708 1.313 1.466 1.313.45 0 .712-.405.922-.731.031-.049.073-.113.113-.171.072.086.153.198.211.277.152.208.295.405.47.531.239.173.591.279.964.391.215.064.577.173.753.244-.086.07-.201.151-.281.208-.214.151-.417.294-.544.47-.304.423-.536 1.075-.782 1.765-.294.828-.661 1.859-1.052 2.105-.098.024-.415-.041-.605-.078-.536-.109-1.272-.259-1.534.375-.059.141-.088.284-.088.428 0 .192.052.386.155.582-.051-.038-.103-.076-.154-.114-.278-.208-.559-.415-.84-.621-1.041-.76-2.024-1.478-2.466-2.09-.492-.681-.835-1.3-.918-1.655-.053-.224.014-.697.072-1.115.111-.797.226-1.62-.153-2.146-.066-.091-.154-.16-.251-.22-.029-.018-.062-.034-.094-.05-.079-.04-.163-.076-.253-.106-.016-.005-.029-.014-.046-.019 1.483-.952 3.146-1.524 4.893-1.683zM1 12c0-3.325 1.474-6.413 4.055-8.517.005.002.011.003.016.004.123.038.252.071.379.102.166.042.444.111.477.119.145.2.038.965-.026 1.423-.078.554-.15 1.077-.055 1.482.156.663.745 1.545 1.081 2.012.535.741 1.581 1.504 2.688 2.313 1.462 1.067 3.271 2.388 3.38 3.462-.071.058-.198.14-.28.194-.331.214-.743.48-.743.934 0 .844.879 1.609 1.729 2.349.125.109.255.222.381.335.378.339.723.679.825.925.07.17.098.494.092.829s-.045.68-.108.89c-.03.099-.087.224-.166.367-.024.044-.063.101-.092.149-.064.107-.128.214-.212.338-.049.073-.113.157-.169.235-.081.113-.16.225-.254.348-.072.094-.155.195-.234.294-.078.097-.155.194-.239.295-.556.08-1.057.119-1.525.119-6.065 0-11-4.935-11-11zm20.019 6.296c-1.442 2.063-3.565 3.566-5.968 4.26.029-.041.056-.081.084-.122.023-.033.045-.064.067-.097.137-.199.262-.394.367-.581.014-.024.024-.046.037-.07.105-.193.193-.378.242-.541.041-.135.076-.314.103-.515s.043-.425.047-.651c.008-.453-.038-.915-.166-1.225-.227-.546-.833-1.073-1.474-1.631-.541-.47-1.267-1.102-1.373-1.501.072-.058.192-.136.272-.188.331-.214.743-.48.743-.934 0-.194-.031-.385-.084-.574-.018-.064-.053-.127-.076-.191-.046-.123-.091-.247-.156-.368-.04-.075-.094-.148-.142-.222-.069-.108-.136-.217-.218-.323-.061-.079-.132-.157-.199-.235-.064-.075-.12-.15-.19-.224.602.342 1.185.596 1.457.709.47.194 1.097.117 1.76.034.458-.057 1.027-.129 1.248-.037.08.042.261.265.369.398.186.228.361.444.57.573.304.188.678.318 1.074.456.499.173 1.065.37 1.26.641.168.232.35 1.104.35 2.807 0 .114-.001.231-.003.353zm.465-3.745c-.38-.527-1.073-.768-1.743-1.001-.342-.119-.666-.231-.877-.362-.066-.042-.219-.23-.32-.354-.226-.278-.46-.565-.756-.688-.217-.09-.468-.122-.74-.122-.317 0-.663.043-1.02.087-.457.058-1.027.13-1.254.034-1.593-.661-2.54-1.389-2.702-1.758.125.016.284.048.396.071.459.094.934.189 1.295-.035.723-.447 1.119-1.56 1.502-2.637.211-.594.43-1.208.649-1.513.04-.049.203-.164.311-.24.356-.251.793-.56.794-1.019v-.001c0-.043-.004-.085-.01-.126-.106-.65-.87-.879-1.544-1.082-.251-.076-.563-.169-.666-.243-.051-.04-.17-.202-.249-.31-.27-.37-.576-.79-1.05-.79-.45 0-.712.405-.922.731-.039.061-.093.145-.142.212-.166-.138-.402-.439-.483-.634-.035-.085-.047-.236-.047-.41 0-.259.027-.569.047-.791.019-.217.036-.417.038-.574h.01c6.065 0 11 4.935 11 11 0 1.614-.349 3.187-1.019 4.627-.072-1.021-.238-1.716-.498-2.076z"/></svg>