<svg xmlns="http://www.w3.org/2000/svg" viewBox="0 0 24 24"><path fill="#5c6671" d="M23.846 11.139l-11.5-11c-.02-.019-.045-.028-.067-.043-.03-.02-.056-.044-.09-.058-.054-.022-.111-.032-.169-.034-.007 0-.012-.004-.019-.004s-.012.004-.019.004c-.058.002-.115.012-.169.034-.034.014-.061.037-.09.058-.022.015-.047.024-.067.043l-11.5 11c-.147.141-.194.358-.118.547s.26.314.464.314h1.5v10c0 1.103.897 2 2 2h16c1.103 0 2-.897 2-2V12h1.5c.204 0 .388-.124.464-.314s.029-.406-.118-.547zM11 11c0-.551.449-1 1-1s1 .449 1 1c0 .741.282 1.166.53 1.541.252.379.47.707.47 1.459 0 1.103-.897 2-2 2s-2-.897-2-2c0-.752.218-1.08.47-1.459.249-.375.53-.799.53-1.541zm1-2c-.174 0-.339.029-.5.071v-.262l.5-.25.5.25v.262C12.339 9.029 12.174 9 12 9zm9.5 2c-.276 0-.5.224-.5.5V22c0 .551-.449 1-1 1H4c-.551 0-1-.449-1-1V11.5c0-.276-.224-.5-.5-.5h-.754L11.5 1.67v6.021l-.724.362c-.169.085-.276.258-.276.447v1c0 .054.015.104.031.153-.327.356-.531.826-.531 1.347 0 .439-.145.658-.364.987C9.353 12.414 9 12.945 9 14c0 1.654 1.346 3 3 3s3-1.346 3-3c0-1.054-.353-1.586-.636-2.013-.219-.33-.364-.548-.364-.987 0-.52-.204-.99-.531-1.347.016-.049.031-.099.031-.153v-1c0-.189-.107-.362-.276-.447l-.724-.362V1.67L22.254 11H21.5zm-5 2.5h1c.276 0 .5.224.5.5s-.224.5-.5.5h-1c-.276 0-.5-.224-.5-.5s.224-.5.5-.5zm-9 1h-1c-.276 0-.5-.224-.5-.5s.224-.5.5-.5h1c.276 0 .5.224.5.5s-.224.5-.5.5zm7.329-3.329c-.195-.195-.195-.512 0-.707l.707-.707c.195-.195.512-.195.707 0s.195.512 0 .707l-.707.707c-.098.098-.226.146-.354.146s-.256-.049-.354-.146zm-5.658 5.658c.195.195.195.512 0 .707l-.707.707c-.098.098-.226.146-.354.146s-.256-.049-.354-.146c-.195-.195-.195-.512 0-.707l.707-.707c.195-.195.512-.195.707 0zM12.5 18.5v1c0 .276-.224.5-.5.5s-.5-.224-.5-.5v-1c0-.276.224-.5.5-.5s.5.224.5.5zm-4.743-8.036c-.195-.195-.195-.512 0-.707s.512-.195.707 0l.707.707c.195.195.195.512 0 .707-.098.098-.226.146-.354.146s-.256-.049-.354-.146l-.707-.707zm8.486 7.072c.195.195.195.512 0 .707-.098.098-.226.146-.354.146s-.256-.049-.354-.146l-.707-.707c-.195-.195-.195-.512 0-.707s.512-.195.707 0l.707.707z"/></svg>