<svg xmlns="http://www.w3.org/2000/svg" viewBox="0 0 18 24"><path fill="#5c6671" d="M17.987 13.435c-.005-.035-.009-.069-.021-.102-.011-.031-.027-.057-.044-.085s-.031-.054-.052-.077c-.024-.027-.052-.047-.081-.068-.018-.013-.03-.031-.05-.042l-5.224-2.849L12.234 6h3.765v1.5c0 .276.224.5.5.5s.5-.224.5-.5v-2c0-.02-.009-.038-.012-.057-.004-.034-.009-.067-.02-.1-.01-.031-.024-.058-.04-.086s-.031-.053-.052-.077c-.023-.027-.048-.048-.076-.07-.015-.012-.025-.029-.043-.039l-4.917-2.95L10.398.2c-.092-.122-.237-.2-.4-.2h-2c-.163 0-.308.078-.399.199L6.157 2.121 1.24 5.071c-.017.01-.027.027-.043.039-.028.021-.053.043-.076.07-.021.024-.037.05-.052.077s-.03.055-.04.086c-.011.033-.016.066-.02.1-.002.02-.012.037-.012.057v2c0 .276.224.5.5.5s.5-.224.5-.5V6h3.765l-.248 3.714-5.286 3.364c-.015.01-.024.025-.038.036-.027.022-.052.044-.074.071-.02.025-.037.05-.052.077s-.028.055-.037.086c-.011.033-.017.066-.02.1-.002.018-.01.033-.01.051v2c0 .276.224.5.5.5s.5-.224.5-.5v-1.5h4.232l-.224 3.366-2.955 5.91c-.078.155-.069.339.022.486s.252.237.425.237h13c.173 0 .334-.09.425-.237s.1-.332.022-.486l-2.955-5.91-.224-3.366h4.232v1.5c0 .276.224.5.5.5s.5-.224.5-.5v-2c0-.023-.01-.043-.013-.065zM6.595 17L9 14.225 11.405 17h-4.81zm5.034 1L9 22.508 6.371 18h5.259zM9.046 5h-.093L7.486 3h3.026L9.045 5zm2.046-1.098L11.165 5h-.878l.805-1.098zM7.713 5h-.878l.073-1.098L7.713 5zm.225 8H6.301l.117-1.754L7.938 13zM6.639 9.974L9 6.755l2.361 3.219L9 12.698 6.639 9.974zm4.943 1.272L11.699 13h-1.637l1.52-1.754zm-.195-2.928L9.687 6h1.545l.155 2.318zm.676-4.897L14.695 5h-2.527l-.105-1.579zM8.25 1h1.5l.75 1h-3l.75-1zM3.305 5l2.632-1.579L5.832 5H3.305zm5.008 1l-1.7 2.318L6.768 6h1.545zm-6.096 7l3.218-2.048L5.298 13H2.216zm5.655 1l-1.773 2.046L6.235 14h1.637zm-2.338 4.551L8.129 23h-4.82l2.225-4.449zM9.871 23l2.595-4.449L14.691 23h-4.82zm2.031-6.954L10.129 14h1.637l.136 2.046zm.692-4.653L15.539 13h-2.838l-.107-1.606z"/></svg>