<svg xmlns="http://www.w3.org/2000/svg" viewBox="0 0 24 24"><path fill="#5c6671" d="M15.5 0h-14C.673 0 0 .673 0 1.5v21c0 .827.673 1.5 1.5 1.5h14c.827 0 1.5-.673 1.5-1.5v-21c0-.827-.673-1.5-1.5-1.5zm.5 22.5c0 .276-.225.5-.5.5h-14c-.275 0-.5-.224-.5-.5v-21c0-.276.225-.5.5-.5h14c.275 0 .5.224.5.5v21zM10.5 7h-4C5.121 7 4 8.122 4 9.5v5c0 .827.673 1.5 1.5 1.5h.001c.179 0 .351-.031.51-.089l-.01 4.589c0 .827.673 1.5 1.5 1.5.384 0 .734-.145 1-.383.266.238.616.383 1 .383.827 0 1.5-.673 1.5-1.5v-4.585c.149.054.32.085.499.085h.001c.827 0 1.5-.673 1.5-1.5v-5c0-1.378-1.121-2.5-2.5-2.5zm1.5 7.5c0 .276-.225.5-.5.5s-.5-.224-.5-.5v-4c0-.276-.224-.5-.5-.5s-.5.224-.5.5v10c0 .276-.225.5-.5.5s-.5-.224-.5-.5v-6c0-.276-.224-.5-.5-.5s-.5.224-.5.5v6c0 .276-.225.5-.5.5s-.5-.224-.5-.5v-10c0-.276-.224-.5-.5-.5s-.5.224-.5.5v4c0 .276-.225.5-.5.5s-.5-.224-.5-.5v-5C5 8.673 5.673 8 6.5 8h4c.827 0 1.5.673 1.5 1.5v5zm-3.5-8c1.24 0 2.25-1.009 2.25-2.25S9.74 2 8.5 2 6.25 3.009 6.25 4.25 7.26 6.5 8.5 6.5zm0-3.5c.689 0 1.25.561 1.25 1.25S9.189 5.5 8.5 5.5s-1.25-.561-1.25-1.25S7.811 3 8.5 3zm9.646 7.354c-.195-.195-.195-.512 0-.707l2.5-2.5c.195-.195.512-.195.707 0l2.5 2.5c.195.195.195.512 0 .707-.098.098-.226.146-.354.146s-.256-.049-.354-.146l-2.146-2.146-2.146 2.146c-.195.195-.512.195-.707 0zm5.708 3.292c.195.195.195.512 0 .707l-2.5 2.5c-.098.098-.226.146-.354.146s-.256-.049-.354-.146l-2.5-2.5c-.195-.195-.195-.512 0-.707s.512-.195.707 0l2.146 2.146 2.146-2.146c.195-.195.512-.195.707 0z"/></svg>