<svg xmlns="http://www.w3.org/2000/svg" viewBox="0 0 18 24"><path fill="#5c6671" d="M15.627 18.721c-.104-.09-.242-.134-.38-.119-.142.016-.265.089-.345.196-.272.363-1.145 1.202-3.401 1.202-3.2 0-4.968-1.964-5.395-6h6.395c.215 0 .406-.138.474-.342l1-3c.051-.152.025-.32-.068-.451-.092-.126-.239-.207-.406-.208H6.106c.427-4.036 2.195-6 5.395-6 2.256 0 3.129.839 3.4 1.201.082.108.204.181.344.197.141.015.279-.028.383-.118l2.2-1.9c.199-.172.231-.468.073-.679C16.556.908 14.403 0 11.501 0 6.076 0 2.666 3.637 2.092 10H.501c-.276 0-.5.224-.5.5v3c0 .276.224.5.5.5h1.591c.574 6.363 3.984 10 9.409 10 2.902 0 5.055-.908 6.4-2.7.158-.21.126-.507-.073-.679l-2.2-1.9zM11.5 23c-5.035 0-8.036-3.386-8.448-9.534-.018-.262-.236-.466-.499-.466H1v-2h1.553c.263 0 .481-.204.499-.466C3.464 4.386 6.465 1 11.5 1c2.36 0 4.142.652 5.304 1.94l-1.465 1.266c-.578-.528-1.73-1.207-3.839-1.207-2.687 0-5.986 1.295-6.44 7.463-.01.139.038.275.132.377s.227.16.366.16h7.248l-.666 2H5.559c-.139 0-.271.058-.366.16s-.143.238-.132.377c.454 6.168 3.753 7.463 6.44 7.463 2.108 0 3.261-.679 3.839-1.207l1.465 1.266c-1.163 1.288-2.944 1.94-5.304 1.94z"/></svg>