<svg xmlns="http://www.w3.org/2000/svg" viewBox="0 0 24 24"><path fill="#5c6671" d="M22 0H2C.897 0 0 .897 0 2v20c0 1.103.897 2 2 2h20c1.103 0 2-.897 2-2V2c0-1.103-.897-2-2-2zM1 2c0-.551.448-1 1-1h20c.086 0 .164.029.244.049L1.05 22.243c-.021-.08-.049-.157-.049-.244v-20zm22 20c0 .551-.448 1-1 1H2c-.086 0-.164-.029-.244-.049L22.95 1.757c.021.08.049.157.049.244v20zM3 6.5c0-.276.224-.5.5-.5H6V3.5c0-.276.224-.5.5-.5s.5.224.5.5V6h2.5c.276 0 .5.224.5.5s-.224.5-.5.5H7v2.5c0 .276-.224.5-.5.5S6 9.776 6 9.5V7H3.5c-.276 0-.5-.224-.5-.5zm18 11c0 .276-.224.5-.5.5h-6c-.276 0-.5-.224-.5-.5s.224-.5.5-.5h6c.276 0 .5.224.5.5z"/></svg>