<svg xmlns="http://www.w3.org/2000/svg" viewBox="0 0 24 24"><path fill="#5c6671" d="M23.717 9.049c-.174-.083-.379-.06-.529.06L19 12.459V9.5c0-.192-.11-.367-.283-.451s-.379-.06-.529.06L14 12.459V9.5c0-.197-.116-.375-.295-.456s-.39-.048-.537.083L9.294 12.57 8.14 1.787C8.031.768 7.176 0 6.151 0H3.857c-1.032 0-1.888.774-1.99 1.801L.01 20.377c-.006.059-.01.128-.01.198V22c0 1.103.897 2 2 2h20c1.103 0 2-.897 2-2V9.5c0-.192-.11-.367-.283-.451zM23 22c0 .551-.449 1-1 1H2c-.551 0-1-.449-1-1l.005-1.524L2.862 1.901c.051-.513.479-.9.995-.9h2.294c.512 0 .94.384.995.894l1.248 11.66c.027.254.242.447.497.447H9c.128 0 .244-.048.332-.127l3.667-3.26v2.887c0 .192.11.367.283.451s.379.06.529-.06l4.188-3.35v2.959c0 .192.11.367.283.451.063.031.138.05.217.05.119 0 .228-.041.313-.11l4.187-3.349v11.459zm-8-5.5c0 .276-.224.5-.5.5h-5c-.276 0-.5-.224-.5-.5s.224-.5.5-.5h5c.276 0 .5.224.5.5zm1.5-.5h5c.276 0 .5.224.5.5s-.224.5-.5.5h-5c-.276 0-.5-.224-.5-.5s.224-.5.5-.5zM14 19.5c0 .276-.224.5-.5.5h-3c-.276 0-.5-.224-.5-.5s.224-.5.5-.5h3c.276 0 .5.224.5.5zm7 0c0 .276-.224.5-.5.5h-3c-.276 0-.5-.224-.5-.5s.224-.5.5-.5h3c.276 0 .5.224.5.5z"/></svg>