<svg xmlns="http://www.w3.org/2000/svg" viewBox="0 0 24 24"><path fill="#5c6671" d="M22 4h-1V.5c0-.276-.224-.5-.5-.5h-7c-.069 0-.136.014-.196.04s-.113.062-.158.107l-1.999 1.999c-.045.045-.082.099-.107.158S11 2.43 11 2.5V4H8.908c-.154-.425-.483-.753-.897-.905L8.001.5c0-.276-.224-.5-.5-.5s-.5.224-.5.5V3h-2.5C3.85 3 3.3 3.419 3.093 4H2.001c-1.103 0-2 .897-2 2v15c0 1.103.897 2 2 2h1.092c.207.581.757 1 1.408 1h3c.651 0 1.201-.419 1.408-1h13.092c1.103 0 2-.897 2-2V6c0-1.103-.897-2-2-2zm-9-2.293V2h-.293L13 1.707zM12 3h1.5c.276 0 .5-.224.5-.5V1h6v3h-8V3zM1 21V6c0-.551.449-1 1-1h1v17H2c-.551 0-1-.449-1-1zm6.5 2h-3c-.276 0-.5-.224-.5-.5v-18c0-.276.224-.5.5-.5h3c.276 0 .5.224.5.5v18c0 .276-.224.5-.5.5zM23 21c0 .551-.449 1-1 1H9V5h13c.551 0 1 .449 1 1v15zM20.5 7h-9c-.276 0-.5.224-.5.5v3c0 .276.224.5.5.5h9c.276 0 .5-.224.5-.5v-3c0-.276-.224-.5-.5-.5zm-.5 3h-8V8h8v2zm-7 3.5c0 .276-.224.5-.5.5h-1c-.276 0-.5-.224-.5-.5s.224-.5.5-.5h1c.276 0 .5.224.5.5zm4 0c0 .276-.224.5-.5.5h-1c-.276 0-.5-.224-.5-.5s.224-.5.5-.5h1c.276 0 .5.224.5.5zm4 0c0 .276-.224.5-.5.5h-1c-.276 0-.5-.224-.5-.5s.224-.5.5-.5h1c.276 0 .5.224.5.5zm-8 3c0 .276-.224.5-.5.5h-1c-.276 0-.5-.224-.5-.5s.224-.5.5-.5h1c.276 0 .5.224.5.5zm4 0c0 .276-.224.5-.5.5h-1c-.276 0-.5-.224-.5-.5s.224-.5.5-.5h1c.276 0 .5.224.5.5zm4 0c0 .276-.224.5-.5.5h-1c-.276 0-.5-.224-.5-.5s.224-.5.5-.5h1c.276 0 .5.224.5.5zm-8 3c0 .276-.224.5-.5.5h-1c-.276 0-.5-.224-.5-.5s.224-.5.5-.5h1c.276 0 .5.224.5.5zm4 0c0 .276-.224.5-.5.5h-1c-.276 0-.5-.224-.5-.5s.224-.5.5-.5h1c.276 0 .5.224.5.5zm4 0c0 .276-.224.5-.5.5h-1c-.276 0-.5-.224-.5-.5s.224-.5.5-.5h1c.276 0 .5.224.5.5z"/></svg>