<svg xmlns="http://www.w3.org/2000/svg" viewBox="0 0 24 24"><path fill="#5c6671" d="M21.007 17.575c-2.532-.73-4.776-2.192-5.163-2.452l-.296-.375c1.354-.181 2.416-.45 3.165-.803.177-.083.301-.258.298-.453s-.108-.368-.289-.446c-.007-.004-.723-.437-.723-2.553 0-.225.006-.487.013-.78.07-2.971.215-9.154-5.285-9.665-.469-.063-.997-.063-1.436-.003C5.77.559 5.916 6.741 5.985 9.713c.007.292.013.556.013.78 0 2.1-.705 2.542-.701 2.542-.18.078-.297.255-.3.451s.11.376.287.459c.749.353 1.811.622 3.165.803l-.297.375c-.386.26-2.625 1.721-5.162 2.452-1.762.507-2.993 2.126-2.993 3.938v.98c0 .827.673 1.5 1.5 1.5h21c.827 0 1.5-.673 1.5-1.5v-.98c0-1.812-1.231-3.431-2.993-3.938zM23 22.493c0 .275-.224.5-.5.5h-21c-.276 0-.5-.225-.5-.5v-.98c0-1.39.912-2.586 2.27-2.977 2.935-.847 5.412-2.561 5.516-2.633.04-.028.076-.062.106-.1l.902-1.14c.114-.144.14-.338.068-.506-.072-.169-.229-.285-.412-.303-1.252-.121-2.298-.312-3.076-.561.318-.501.626-1.358.626-2.802 0-.231-.006-.503-.013-.804-.068-2.873-.194-8.222 4.419-8.651.381-.052.772-.057 1.209.003 4.592.427 4.466 5.775 4.398 8.648-.007.302-.013.572-.013.804 0 1.443.308 2.301.626 2.802-.778.248-1.824.439-3.077.561-.182.018-.34.134-.412.303s-.046.362.068.506l.902 1.14c.03.038.066.071.106.1.104.072 2.582 1.786 5.517 2.633 1.357.391 2.27 1.587 2.27 2.977v.98z"/></svg>