<svg xmlns="http://www.w3.org/2000/svg" viewBox="0 0 24 24"><path fill="#5c6671" d="M4 5.5v15c0 .276-.224.5-.5.5s-.5-.224-.5-.5v-15c0-.276.224-.5.5-.5s.5.224.5.5zM15.5 19h-1c-.276 0-.5.224-.5.5s.224.5.5.5h1c.276 0 .5-.224.5-.5s-.224-.5-.5-.5zm3 0h-1c-.276 0-.5.224-.5.5s.224.5.5.5h1c.276 0 .5-.224.5-.5s-.224-.5-.5-.5zm-3-13h-1c-.276 0-.5.224-.5.5s.224.5.5.5h1c.276 0 .5-.224.5-.5s-.224-.5-.5-.5zm3 0h-1c-.276 0-.5.224-.5.5s.224.5.5.5h1c.276 0 .5-.224.5-.5s-.224-.5-.5-.5zm3 0h-1c-.276 0-.5.224-.5.5s.224.5.5.5h1c.276 0 .5-.224.5-.5s-.224-.5-.5-.5zM24 6v12c0 1.103-.897 2-2 2h-.5c-.275 0-.5.224-.5.5 0 .827-.673 1.5-1.5 1.5H13c0 1.103-.897 2-2 2H2c-1.103 0-2-.897-2-2V4c0-1.103.897-2 2-2h1c0-1.103.897-2 2-2h3c1.103 0 2 .897 2 2h1c1.103 0 2 .897 2 2h9c1.103 0 2 .897 2 2zM4 2h5c0-.551-.448-1-1-1H5c-.552 0-1 .449-1 1zm8 2c0-.551-.448-1-1-1H2c-.552 0-1 .449-1 1v18c0 .551.448 1 1 1h9c.552 0 1-.449 1-1V4zm11 2c0-.551-.448-1-1-1h-9v16h6.5c.275 0 .5-.224.5-.5 0-.827.673-1.5 1.5-1.5h.5c.552 0 1-.449 1-1V6z"/></svg>