<svg xmlns="http://www.w3.org/2000/svg" viewBox="0 0 24 24"><path fill="#5c6671" d="M22 3H2C.897 3 0 3.897 0 5v14c0 1.103.897 2 2 2h20c1.103 0 2-.897 2-2V5c0-1.103-.897-2-2-2zm1 13h-2V8h2v8zM1 8h2v8H1V8zm21 12H2c-.552 0-1-.449-1-1h1.5c.276 0 .5-.224.5-.5s-.224-.5-.5-.5H1v-1h2.5c.276 0 .5-.224.5-.5v-9c0-.276-.224-.5-.5-.5H1V6h1.5c.276 0 .5-.224.5-.5S2.776 5 2.5 5H1c0-.551.448-1 1-1h20c.552 0 1 .449 1 1h-1.5c-.276 0-.5.224-.5.5s.224.5.5.5H23v1h-2.5c-.276 0-.5.224-.5.5v9c0 .276.224.5.5.5H23v1h-1.5c-.276 0-.5.224-.5.5s.224.5.5.5H23c0 .551-.448 1-1 1zM5 5.5c0-.276.224-.5.5-.5h1c.276 0 .5.224.5.5s-.224.5-.5.5h-1c-.276 0-.5-.224-.5-.5zm4 0c0-.276.224-.5.5-.5h1c.276 0 .5.224.5.5s-.224.5-.5.5h-1c-.276 0-.5-.224-.5-.5zm4 0c0-.276.224-.5.5-.5h1c.276 0 .5.224.5.5s-.224.5-.5.5h-1c-.276 0-.5-.224-.5-.5zm6 0c0 .276-.224.5-.5.5h-1c-.276 0-.5-.224-.5-.5s.224-.5.5-.5h1c.276 0 .5.224.5.5zm-12 13c0 .276-.224.5-.5.5h-1c-.276 0-.5-.224-.5-.5s.224-.5.5-.5h1c.276 0 .5.224.5.5zm4 0c0 .276-.224.5-.5.5h-1c-.276 0-.5-.224-.5-.5s.224-.5.5-.5h1c.276 0 .5.224.5.5zm4 0c0 .276-.224.5-.5.5h-1c-.276 0-.5-.224-.5-.5s.224-.5.5-.5h1c.276 0 .5.224.5.5zm4 0c0 .276-.224.5-.5.5h-1c-.276 0-.5-.224-.5-.5s.224-.5.5-.5h1c.276 0 .5.224.5.5zM6 7.5v9c0 .276.224.5.5.5h11c.276 0 .5-.224.5-.5v-9c0-.276-.224-.5-.5-.5h-11c-.276 0-.5.224-.5.5zM7 8h10v8H7V8z"/></svg>