<svg xmlns="http://www.w3.org/2000/svg" viewBox="0 0 18 24"><path fill="#5c6671" d="M16 0H2C.897 0 0 .897 0 2c0 .392.114.771.356 1.139L7 12.537V23.5c0 .202.122.385.309.462.057.024.122.038.191.038.138 0 .263-.056.354-.146l3-3c.09-.09.146-.215.146-.353v-7.963l6.668-9.436C17.885 2.774 18 2.393 18 2c0-1.103-.897-2-2-2zm.827 2.561l-6.735 9.528c-.06.085-.092.186-.092.289v7.915l-2 2v-9.915c0-.104-.032-.204-.092-.289l-6.742-9.54C1.058 2.386 1 2.195 1 2c0-.552.448-1 1-1h14c.552 0 1 .448 1 1 0 .195-.058.386-.173.561z"/></svg>