<svg xmlns="http://www.w3.org/2000/svg" viewBox="0 0 24 24"><path fill="#5c6671" d="M23.846 11.138l-11.5-11c-.193-.185-.498-.185-.691 0l-11.5 11c-.147.141-.194.358-.118.547s.26.314.464.314h1.5v10c0 1.103.897 2 2 2h16c1.103 0 2-.897 2-2v-10h1.5c.204 0 .388-.124.464-.314s.029-.406-.118-.547zM21.5 11c-.276 0-.5.224-.5.5V22c0 .551-.448 1-1 1H4c-.552 0-1-.449-1-1V11.5c0-.276-.224-.5-.5-.5h-.754L12 1.192 22.254 11H21.5zM9.893 12.934c-.22-.212-.591-.676-1.124-1.68-.121-.232-.194-.392-.197-.397-.061-.132-.176-.232-.316-.272-.14-.042-.291-.017-.412.063-.071.046-1.739 1.178-1.835 4.352-.008.109-.008.218-.008.327 0 3.128 2.691 5.674 6 5.674s6-2.545 6-5.674c0-.158-.012-.306-.023-.453l-.011-.142c-.185-2.258-1.383-3.653-2.44-4.884-.93-1.081-1.731-2.015-1.731-3.347 0-.185-.102-.354-.265-.441-.165-.087-.362-.076-.515.027-1.327.894-2.247 2.264-2.733 4.071-.224.831-.354 1.763-.389 2.778zm.99.566c0-1.148.122-2.186.363-3.084.333-1.234.889-2.228 1.658-2.962.286 1.211 1.085 2.141 1.862 3.045 1.005 1.17 2.045 2.38 2.202 4.308l.012.146c.01.121.02.243.02.374 0 2.577-2.243 4.674-5 4.674s-5-2.097-5-4.674c0-.086 0-.171.007-.277.051-1.686.582-2.66.973-3.151 1.003 1.839 1.614 2.138 1.989 2.2.284.047.548-.037.757-.233.101-.094.157-.226.157-.364z"/></svg>