<svg xmlns="http://www.w3.org/2000/svg" viewBox="0 0 24 24"><path fill="#5c6671" d="M15.355 6.033c-1.016-1.136-2.613-2.532-3.143-2.853-.039-.024-.085-.043-.133-.055C11.065 2.683 10 3.478 10 4.499c0 .113.014.331.031.603.032.494.078 1.197.06 1.713-1.603.631-2.961 1.605-3.895 2.788-1.38-1.029-3.872-2.363-3.989-2.425-.032-.017-.069-.032-.108-.041C1.077 6.669 0 7.472 0 8.5c0 .193.041.383.127.577.007.03.018.06.03.089L1.45 12 .157 14.834c-.011.025-.022.053-.029.083-.087.198-.129.388-.129.583 0 1.025 1.069 1.831 2.09 1.366.04-.01.08-.024.117-.044.117-.063 2.609-1.396 3.989-2.425.934 1.184 2.292 2.157 3.895 2.788.019.516-.027 1.219-.06 1.714-.018.271-.031.489-.031.602 0 .827.673 1.5 1.5 1.5.19 0 .377-.04.566-.121.055-.013.104-.034.149-.061.527-.32 2.125-1.716 3.14-2.852 4.183-.283 7.713-2.658 8.625-5.828.013-.041.02-.089.02-.138s-.007-.097-.021-.142c-.911-3.167-4.441-5.542-8.624-5.825zm-.263 10.947c-.137.007-.264.069-.354.173-.907 1.053-2.447 2.407-2.973 2.765-.016.006-.031.013-.047.021-.084.042-.153.062-.219.062-.275 0-.5-.224-.5-.5 0-.101.014-.295.029-.537.044-.672.104-1.593.035-2.191-.022-.189-.149-.349-.328-.414-1.734-.624-3.166-1.674-4.029-2.957-.08-.119-.208-.198-.35-.216-.02-.003-.043-.004-.066-.004-.126 0-.241.047-.328.124-1.008.877-3.616 2.305-4.136 2.586-.034.01-.067.023-.101.041-.088.047-.16.069-.227.069-.275 0-.5-.224-.5-.5 0-.065.021-.137.065-.223.019-.036.031-.074.04-.112l1.35-2.957c.028-.061.045-.132.045-.208s-.016-.147-.046-.211l-1.346-2.95a.48865.48865 0 0 0-.042-.116c-.045-.086-.065-.158-.065-.223 0-.276.225-.5.5-.5.067 0 .139.022.226.069.032.017.064.03.099.039.513.277 3.128 1.709 4.14 2.588.108.095.254.139.394.119.142-.019.27-.098.35-.216.863-1.283 2.295-2.334 4.029-2.958.179-.064.306-.225.328-.414.068-.598.009-1.518-.035-2.19-.016-.242-.029-.436-.029-.537 0-.343.29-.653.718-.439.013.007.028.013.044.019.527.358 2.068 1.714 2.976 2.767.09.104.217.166.354.173 3.793.191 7.009 2.23 7.886 4.98-.877 2.75-4.093 4.789-7.886 4.98zM19 10c-.552 0-1 .449-1 1s.448 1 1 1 1-.449 1-1-.448-1-1-1zm0 1zm-5.7.958c-.217-.095-1.3-.611-1.3-1.458s1.083-1.363 1.3-1.458c.256-.112.547.004.657.257s-.004.547-.256.659c-.359.159-.687.433-.701.544.015.108.342.381.701.541.252.111.367.406.256.659-.082.188-.266.299-.458.299-.072 0-.14-.015-.202-.043zm-3.3.544c.015.108.342.381.701.541.252.111.367.406.256.659-.082.188-.266.299-.458.299-.072 0-.14-.015-.202-.043-.214-.093-1.297-.61-1.297-1.457s1.083-1.363 1.3-1.458c.255-.112.547.005.657.257s-.004.547-.256.659c-.359.159-.687.433-.701.544zm4 2c.015.108.342.381.701.541.252.111.367.406.256.659-.082.188-.266.299-.458.299-.072 0-.14-.015-.202-.043-.214-.093-1.297-.61-1.297-1.457s1.083-1.363 1.3-1.458c.255-.112.547.005.657.257s-.004.547-.256.659c-.359.159-.687.433-.701.544z"/></svg>