<svg xmlns="http://www.w3.org/2000/svg" viewBox="0 0 24 24"><path fill="#5c6671" d="M22 6h-1V5c0-1.103-.897-2-2-2h-1.5c-.276 0-.5.224-.5.5V10H7V3.5c0-.276-.224-.5-.5-.5H5c-1.103 0-2 .897-2 2v1H2C.897 6 0 6.897 0 8v8c0 1.103.897 2 2 2h1v1c0 1.103.897 2 2 2h1.5c.276 0 .5-.224.5-.5V14h10v6.5c0 .276.224.5.5.5H19c1.103 0 2-.897 2-2v-1h1c1.103 0 2-.897 2-2V8c0-1.103-.897-2-2-2zM2 17c-.552 0-1-.449-1-1V8c0-.551.448-1 1-1h1v10H2zm4 3H5c-.552 0-1-.449-1-1V5c0-.551.448-1 1-1h1v16zm1-7v-2h10v2H7zm13 6c0 .551-.448 1-1 1h-1V4h1c.552 0 1 .449 1 1v14zm3-3c0 .551-.448 1-1 1h-1V7h1c.552 0 1 .449 1 1v8z"/></svg>