<svg xmlns="http://www.w3.org/2000/svg" viewBox="0 0 18 24"><path fill="#5c6671" d="M17.673 1.031C17.56.989 14.849 0 12 0c-1.463 0-2.296.264-3.103.518C8.112.766 7.371 1 6 1 3.257 1 .703.042.678.032.664.027.648.031.634.027.591.015.548 0 .501 0 .489 0 .479.006.467.007.442.009.42.016.396.021.344.032.297.049.252.075.241.082.227.081.216.089S.202.108.192.115C.15.149.117.188.087.233.076.251.062.265.053.284.021.35 0 .421 0 .499v23c0 .276.224.5.5.5s.5-.224.5-.5V13.194c.983.305 2.913.805 5 .805 1.525 0 2.376-.269 3.199-.528.768-.243 1.492-.472 2.801-.472 2.665 0 5.301.959 5.327.969.15.059.324.036.459-.059s.214-.247.214-.41v-12c0-.209-.131-.396-.327-.469zM17 12.81c-.997-.304-2.963-.81-5-.81-1.463 0-2.296.264-3.103.518C8.112 12.766 7.371 13 6 13c-2.174 0-4.228-.601-5-.855V1.196c.984.305 2.917.805 5 .805 1.525 0 2.376-.269 3.199-.528.768-.243 1.492-.472 2.801-.472 2.115 0 4.212.605 5 .858V12.81z"/></svg>