<svg xmlns="http://www.w3.org/2000/svg" viewBox="0 0 18 24"><path fill="#5c6671" d="M17.965 14.285l-.017-.233c-.276-3.599-2.094-5.848-3.698-7.831C12.774 4.395 11.5 2.818 11.5.5c0-.188-.105-.359-.271-.444-.166-.087-.368-.072-.52.038-1.991 1.424-3.371 3.611-4.104 6.504-.378 1.497-.581 3.197-.603 5.057-.229-.103-.949-.617-2.233-3.185-.191-.392-.307-.661-.31-.667-.06-.137-.176-.241-.319-.282-.147-.041-.303-.016-.427.069C2.609 7.663.155 9.432.01 14.489c-.01.17-.011.341-.011.511 0 4.963 4.038 9 9 9s9-4.037 9-9c0-.25-.017-.482-.035-.715zM9 23c-4.411 0-8-3.589-8-8 0-.15 0-.3.01-.466.092-3.221 1.195-4.951 1.831-5.686.01.021.021.043.032.065 1.59 3.18 2.498 3.665 3.043 3.754.347.059.679-.055.937-.313.09-.09.146-.215.146-.353 0-1.913.193-3.648.575-5.157.579-2.284 1.584-4.08 2.994-5.354.304 2.143 1.572 3.712 2.904 5.36 1.586 1.963 3.226 3.991 3.478 7.273l.017.238c.016.208.032.416.032.64 0 4.411-3.589 8-8 8z"/></svg>