<svg xmlns="http://www.w3.org/2000/svg" viewBox="0 0 24 24"><path fill="#5c6671" d="M24 7.716c0-.94-.366-1.823-1.03-2.487L18.738.997c-1.33-1.328-3.645-1.328-4.975 0l-1.856 1.855C10.678 4.082 10 5.717 10 7.456c0 .407.042.803.114 1.19l-9.035 9.036C.383 18.377 0 19.302 0 20.286c0 2.03 1.652 3.682 3.682 3.682.984 0 1.908-.383 2.604-1.078l9.035-9.036c.386.072.783.114 1.189.114 1.74 0 3.375-.678 4.604-1.907l.739-.739s.001 0 .001-.001v-.001l1.116-1.116C23.635 9.54 24 8.657 24 7.717zM5.579 22.181c-.506.506-1.18.785-1.896.785-1.479 0-2.682-1.203-2.682-2.682 0-.716.279-1.39.786-1.896l8.639-8.64c.66 1.746 2.047 3.133 3.793 3.793l-8.639 8.64zm10.931-9.215c-3.039 0-5.51-2.472-5.51-5.511 0-1.471.573-2.854 1.614-3.896L13 3.173l7.793 7.793-.386.386c-1.04 1.041-2.424 1.614-3.896 1.614zm4.99-2.707l-7.793-7.793.763-.763c.469-.469 1.118-.737 1.78-.737s1.312.269 1.78.737l4.232 4.232c.476.476.737 1.107.737 1.78s-.262 1.305-.737 1.78l-.763.763zM9.854 14.112c.195.195.195.512 0 .707l-2 2c-.098.098-.226.146-.354.146s-.256-.049-.354-.146c-.195-.195-.195-.512 0-.707l2-2c.195-.195.512-.195.707 0z"/></svg>