<svg xmlns="http://www.w3.org/2000/svg" viewBox="0 0 24 24"><path fill="#5c6671" d="M22 0H2C.897 0 0 .897 0 2v20c0 1.103.897 2 2 2h20c1.103 0 2-.897 2-2V2c0-1.103-.897-2-2-2zm0 23h-7v-9.5c0-.276-.224-.5-.5-.5s-.5.224-.5.5V23H2c-.551 0-1-.449-1-1V9h1.382l3.895 1.947c.072.036.148.053.223.053.184 0 .36-.101.448-.276.124-.247.023-.547-.224-.671l-4-2C2.659 8.02 2.582 8 2.5 8H1V2c0-.551.449-1 1-1h12v7H7.5c-.276 0-.5.224-.5.5s.224.5.5.5h9c.276 0 .5-.224.5-.5s-.224-.5-.5-.5H15V1h7c.551 0 1 .449 1 1v6h-1.5c-.081 0-.158.019-.226.054l-3.997 1.999c-.247.124-.347.424-.224.671.088.175.264.276.448.276.075 0 .151-.017.223-.053L21.619 9h1.382v13c0 .551-.449 1-1 1z"/></svg>