<svg xmlns="http://www.w3.org/2000/svg" viewBox="0 0 24 24"><path fill="#5c6671" d="M23.846 11.138l-11.5-11c-.193-.185-.498-.185-.691 0l-11.5 11c-.147.141-.194.358-.118.547s.26.314.464.314h1.5v10c0 1.103.897 2 2 2h16c1.103 0 2-.897 2-2v-10h1.5c.204 0 .388-.124.464-.314s.029-.406-.118-.547zM21.5 11c-.276 0-.5.224-.5.5V22c0 .551-.448 1-1 1H4c-.552 0-1-.449-1-1V11.5c0-.276-.224-.5-.5-.5h-.754L12 1.192 22.254 11H21.5zM19 19.5c0 .276-.224.5-.5.5-.672 0-.978.188-1.364.426-.438.269-.934.574-1.888.574s-1.45-.305-1.888-.574c-.387-.238-.692-.426-1.364-.426s-.977.188-1.363.426c-.437.269-.933.574-1.886.574s-1.449-.305-1.887-.574C6.474 20.188 6.17 20 5.5 20c-.276 0-.5-.224-.5-.5s.224-.5.5-.5c.953 0 1.448.305 1.885.574.387.238.691.426 1.362.426s.976-.188 1.362-.426c.437-.269.933-.574 1.887-.574s1.45.305 1.888.574c.387.238.692.426 1.364.426s.978-.188 1.364-.426c.438-.269.934-.574 1.888-.574.276 0 .5.224.5.5zm0-3c0 .276-.224.5-.5.5-.672 0-.978.188-1.364.426-.438.269-.934.574-1.888.574s-1.45-.305-1.888-.574c-.387-.238-.692-.426-1.364-.426s-.977.188-1.363.426c-.437.269-.933.574-1.886.574s-1.449-.305-1.887-.574C6.474 17.188 6.17 17 5.5 17c-.276 0-.5-.224-.5-.5s.224-.5.5-.5c.953 0 1.448.305 1.885.574.387.238.691.426 1.362.426s.976-.188 1.362-.426c.437-.269.933-.574 1.887-.574s1.45.305 1.888.574c.387.238.692.426 1.364.426s.978-.188 1.364-.426c.438-.269.934-.574 1.888-.574.276 0 .5.224.5.5zM11.996 13c.954 0 1.45.305 1.888.574.387.238.692.426 1.364.426s.978-.188 1.364-.426c.438-.269.934-.574 1.888-.574.276 0 .5.224.5.5s-.224.5-.5.5c-.672 0-.978.188-1.364.426-.438.269-.934.574-1.888.574s-1.45-.305-1.888-.574c-.387-.238-.692-.426-1.364-.426s-.977.188-1.363.426c-.437.269-.933.574-1.886.574s-1.449-.305-1.887-.574C6.474 14.188 6.17 14 5.5 14c-.276 0-.5-.224-.5-.5s.224-.5.5-.5c.953 0 1.448.305 1.885.574.387.238.691.426 1.362.426s.976-.188 1.362-.426c.437-.269.933-.574 1.887-.574z"/></svg>