<svg xmlns="http://www.w3.org/2000/svg" viewBox="0 0 24 24"><path fill="#5c6671" d="M8 14.5c0 .276.224.5.5.5.827 0 1.5.673 1.5 1.5S9.327 18 8.5 18h-1c-.276 0-.5-.224-.5-.5s.224-.5.5-.5h1c.276 0 .5-.224.5-.5s-.224-.5-.5-.5c-.827 0-1.5-.673-1.5-1.5S7.673 13 8.5 13h1c.276 0 .5.224.5.5s-.224.5-.5.5h-1c-.276 0-.5.224-.5.5zM24 7v11c0 1.103-.897 2-2 2H7c-1.103 0-2-.897-2-2V7c0-1.103.897-2 2-2h1V4H4v19.5c0 .276-.224.5-.5.5h-3c-.276 0-.5-.224-.5-.5V2C0 .897.897 0 2 0h20c1.103 0 2 .897 2 2s-.897 2-2 2h-1v1h1c1.103 0 2 .897 2 2zm-2-4c.551 0 1-.449 1-1s-.449-1-1-1H2c-.551 0-1 .449-1 1v21h2V3.5c0-.276.224-.5.5-.5H22zM9 5h11V4H9v1zm14 2c0-.551-.449-1-1-1H7c-.551 0-1 .449-1 1v11c0 .551.449 1 1 1h15c.551 0 1-.449 1-1V7zm-12 3c.276 0 .5-.224.5-.5S11.276 9 11 9h-1V8h1.5c.276 0 .5-.224.5-.5s-.224-.5-.5-.5h-2c-.276 0-.5.224-.5.5v4c0 .276.224.5.5.5s.5-.224.5-.5V10h1zm3.5 2c-.827 0-1.5-.673-1.5-1.5v-2c0-.827.673-1.5 1.5-1.5s1.5.673 1.5 1.5v2c0 .827-.673 1.5-1.5 1.5zm.5-3.5c0-.276-.224-.5-.5-.5s-.5.224-.5.5v2c0 .276.224.5.5.5s.5-.224.5-.5v-2zm4 2c0-.276-.224-.5-.5-.5H18v1.5c0 .276-.224.5-.5.5s-.5-.224-.5-.5v-4c0-.276.224-.5.5-.5h1c.827 0 1.5.673 1.5 1.5 0 .384-.145.734-.383 1 .238.266.383.616.383 1v1c0 .276-.224.5-.5.5s-.5-.224-.5-.5v-1zm0-2c0-.276-.224-.5-.5-.5H18v1h.5c.276 0 .5-.224.5-.5zm-5 6v3c0 .276-.224.5-.5.5s-.5-.224-.5-.5V17h-1v.5c0 .276-.224.5-.5.5s-.5-.224-.5-.5v-3c0-.827.673-1.5 1.5-1.5s1.5.673 1.5 1.5zM13 16v-1.5c0-.276-.224-.5-.5-.5s-.5.224-.5.5V16h1zm4.5 1H16v-3.5c0-.276-.224-.5-.5-.5s-.5.224-.5.5v4c0 .276.224.5.5.5h2c.276 0 .5-.224.5-.5s-.224-.5-.5-.5zm4-3c.276 0 .5-.224.5-.5s-.224-.5-.5-.5h-2c-.276 0-.5.224-.5.5v4c0 .276.224.5.5.5h2c.276 0 .5-.224.5-.5s-.224-.5-.5-.5H20v-1h1c.276 0 .5-.224.5-.5s-.224-.5-.5-.5h-1v-1h1.5z"/></svg>