<svg xmlns="http://www.w3.org/2000/svg" viewBox="0 0 24 24"><path fill="#5c6671" d="M13.5 19c-1.378 0-2.5 1.122-2.5 2.5s1.122 2.5 2.5 2.5 2.5-1.122 2.5-2.5-1.122-2.5-2.5-2.5zm0 4c-.827 0-1.5-.673-1.5-1.5s.673-1.5 1.5-1.5 1.5.673 1.5 1.5-.673 1.5-1.5 1.5zm8-4c-1.378 0-2.5 1.122-2.5 2.5s1.122 2.5 2.5 2.5 2.5-1.122 2.5-2.5-1.122-2.5-2.5-2.5zm0 4c-.827 0-1.5-.673-1.5-1.5s.673-1.5 1.5-1.5 1.5.673 1.5 1.5-.673 1.5-1.5 1.5zm-.18-5h2.18c.152 0 .295-.069.39-.187s.131-.273.098-.421l-1.681-7.565C22.068 8.751 21.132 8 20.03 8h-5.06c-1.102 0-2.039.751-2.277 1.827l-1.681 7.565c-.033.148.003.303.098.421s.238.187.39.187h2.628c.655 0 1.245.364 1.538.95l.387.773c.085.169.258.276.447.276h2c.189 0 .363-.107.447-.277l.186-.372c.417-.834 1.255-1.351 2.186-1.351zm-6.248-.811L15.91 13h.59c.276 0 .5-.224.5-.5s-.224-.5-.5-.5h-2c-.276 0-.5.224-.5.5s.224.5.5.5h.39l-.8 4h-1.967l1.546-6.957C13.803 9.438 14.35 9 14.97 9h5.06c.62 0 1.167.439 1.301 1.043L22.21 14H18.5c-.189 0-.362.107-.447.276l-1.852 3.703c-.303-.362-.691-.628-1.129-.791zm3.167 1.716l-.048.096h-1.382l-.041-.082c.073-.047.137-.111.179-.194l1.862-3.724h3.623l.444 2h-1.557c-1.313 0-2.494.729-3.081 1.904zM13.621.516l-2-.5c-.134-.035-.274-.01-.391.063-.114.074-.194.189-.221.324L7.467 19H.5c-.25 0-.461.185-.496.433s.121.482.362.549l9 2.5c.04.011.086.018.133.018H9.5c.092 0 .184-.025.264-.075.117-.073.2-.191.227-.328l4.001-21.003c.05-.261-.113-.515-.37-.579zm-4.51 20.857L4.169 20h3.713c.24 0 .446-.17.491-.406l3.52-18.48 1.028.257-3.81 20.002z"/></svg>