<svg xmlns="http://www.w3.org/2000/svg" viewBox="0 0 18 24"><path fill="#5c6671" d="M15 12.299V9.5c0-1.758-1.308-3.204-3-3.449V3.5c0-.276-.224-.5-.5-.5H11V1.5h.5c.276 0 .5-.224.5-.5s-.224-.5-.5-.5H7.619C7.313.353 6.478 0 5.5 0 4.291 0 3.3.539 3.258.562c-.241.133-.329.437-.196.678s.437.332.678.198C3.748 1.434 4.556 1 5.5 1c.651 0 1.229.204 1.533.334C7.014 1.387 7 1.441 7 1.5V3h-.5c-.276 0-.5.224-.5.5v2.551C4.308 6.296 3 7.742 3 9.5v2.799C1.09 14.009 0 16.438 0 19v3c0 1.103.897 2 2 2h14c1.103 0 2-.897 2-2v-3c0-2.562-1.09-4.991-3-6.701zM8 1.5h2V3H8V1.5zM11 4v2H7V4h4zm6 18c0 .551-.449 1-1 1H2c-.551 0-1-.449-1-1v-3c0-2.346 1.029-4.567 2.824-6.093.112-.095.176-.234.176-.381V9.5C4 8.122 5.122 7 6.5 7h5C12.878 7 14 8.122 14 9.5v3.026c0 .146.064.286.176.381C15.97 14.433 17 16.654 17 19v3zM7 9.5v4.413c0 .146-.064.286-.176.381l-1.057.898C4.644 16.147 4 17.535 4 19v1.5c0 .276-.224.5-.5.5s-.5-.224-.5-.5V19c0-1.759.772-3.424 2.12-4.569l.88-.749V9.5c0-.276.224-.5.5-.5s.5.224.5.5z"/></svg>