<svg xmlns="http://www.w3.org/2000/svg" viewBox="0 0 18 24"><path fill="#5c6671" d="M17.285 8.756c-.092-.079-.193-.143-.295-.205.002-.018.01-.033.01-.051v-5c0-.245-.177-.453-.418-.493L14 2.577v-.576c0-.245-.177-.453-.418-.493L11 1.078V.502c0-.276-.224-.5-.5-.5h-3c-.276 0-.5.224-.5.5v.576l-2.582.43c-.241.04-.418.249-.418.493v.576l-2.582.43C1.177 3.047 1 3.256 1 3.5v5c0 .018.008.033.01.051-.102.061-.204.126-.295.205C.261 9.149 0 9.72 0 10.321c0 .155.018.311.053.465l2.691 11.663c.211.913 1.013 1.55 1.949 1.55h8.613c.937 0 1.738-.637 1.949-1.55l2.691-11.665c.033-.139.053-.299.053-.464 0-.602-.261-1.172-.715-1.565zM16 3.923V8.26c-.12-.004-.241-.005-.362.012-.579.084-1.118.158-1.638.228V3.589l2 .333zm-3-1.5v6.208c-.75.095-1.419.172-2 .231V2.09l2 .333zM10 1v7.953C9.591 8.984 9.254 9 9 9s-.591-.016-1-.047V1h2zM7 2.09v6.772c-.581-.059-1.25-.136-2-.231V2.423l2-.333zm-3 1.5v4.911c-.52-.07-1.059-.144-1.638-.228-.121-.018-.242-.018-.362-.014V3.923l2-.333zm12.973 6.972l-2.691 11.663c-.105.456-.506.775-.975.775H4.694c-.469 0-.869-.319-.975-.775L1.028 10.563c-.017-.072-.027-.156-.027-.241v-.001c0-.311.135-.606.369-.81s.543-.295.851-.249c2.33.336 5.398.737 6.78.737s4.45-.401 6.78-.737c.31-.044.617.046.851.249s.369.498.369.81c0 .081-.009.162-.027.241z"/></svg>