<svg xmlns="http://www.w3.org/2000/svg" viewBox="0 0 24 24"><path fill="#5c6671" d="M23.5 9H20V6.5c0-.276-.224-.5-.5-.5H16V3.5c0-.276-.224-.5-.5-.5H.5c-.276 0-.5.224-.5.5v11c0 .276.224.5.5.5H4v2.5c0 .276.224.5.5.5H8v2.5c0 .276.224.5.5.5h15c.276 0 .5-.224.5-.5v-11c0-.276-.224-.5-.5-.5zM15 4v6.293l-2.646-2.646c-.195-.195-.512-.195-.707 0L9.5 9.793 6.354 6.647c-.195-.195-.512-.195-.707 0l-4.646 4.646V4h14zM1 12.707l5-5 4.646 4.646c.195.195.512.195.707 0s.195-.512 0-.707L10.207 10.5 12 8.707l3 3V14H1v-1.293zM5 15h10.5c.276 0 .5-.224.5-.5V7h3v10H5v-2zm18 5H9v-2h10.5c.276 0 .5-.224.5-.5V10h3v10zM9.5 8c.827 0 1.5-.673 1.5-1.5S10.327 5 9.5 5 8 5.673 8 6.5 8.673 8 9.5 8zm0-2c.275 0 .5.225.5.5s-.225.5-.5.5-.5-.225-.5-.5.225-.5.5-.5z"/></svg>