<svg xmlns="http://www.w3.org/2000/svg" viewBox="0 0 24 24"><path fill="#5c6671" d="M18 9h-5.5V5c0-.552.449-1 1-1h.5c.551 0 1 .448 1 1 0 1.103.897 2 2 2s2-.897 2-2V3.5c0-.276-.224-.5-.5-.5s-.5.224-.5.5V5c0 .552-.449 1-1 1s-1-.448-1-1c0-1.103-.897-2-2-2h-.5c-1.103 0-2 .897-2 2v4H6c-3.309 0-6 2.691-6 6s2.691 6 6 6c1.716 0 3.333-.726 4.472-2h3.056c1.139 1.274 2.756 2 4.472 2 3.309 0 6-2.691 6-6s-2.691-6-6-6zm0 11c-1.497 0-2.903-.663-3.857-1.818-.092-.111-.231-.182-.385-.182h-3.515c-.155 0-.293.07-.385.181C8.903 19.337 7.497 20 6 20c-2.757 0-5-2.243-5-5s2.243-5 5-5h12c2.757 0 5 2.243 5 5s-2.243 5-5 5zm-9-5c0 .276-.224.5-.5.5h-2v2c0 .276-.224.5-.5.5s-.5-.224-.5-.5v-2h-2c-.276 0-.5-.224-.5-.5s.224-.5.5-.5h2v-2c0-.276.224-.5.5-.5s.5.224.5.5v2h2c.276 0 .5.224.5.5zm9-1c.551 0 1-.448 1-1s-.449-1-1-1-1 .448-1 1 .449 1 1 1zm.5-1h-.499v-.001l.5.001zm1.5 1c-.551 0-1 .448-1 1s.449 1 1 1 1-.448 1-1-.449-1-1-1zm0 1v-.001l.5.001H20zm-4-1c-.551 0-1 .448-1 1s.449 1 1 1 1-.448 1-1-.449-1-1-1zm0 1v-.001l.5.001H16zm2 1c-.551 0-1 .448-1 1s.449 1 1 1 1-.448 1-1-.449-1-1-1zm0 1v-.001l.5.001h-.499z"/></svg>