<svg xmlns="http://www.w3.org/2000/svg" viewBox="0 0 18 24"><path fill="#5c6671" d="M16 20v-9.5c0-2.864-2.201-5.221-5-5.475V4.5h.5c0 .276.224.5.5.5s.5-.224.5-.5v-1c0-.276-.224-.5-.5-.5s-.5.224-.5.5h-.399L12.916.777c.103-.153.112-.351.024-.513C12.854.106 12.689 0 12.5 0h-1c-.276 0-.5.224-.5.5s.224.5.5.5h.065l-1.333 2H9.5V2h.5c.276 0 .5-.224.5-.5S10.276 1 10 1H8c-.276 0-.5.224-.5.5s.224.5.5.5h.5v1h-.732L6.435 1H6.5c.276 0 .5-.224.5-.5S6.776 0 6.5 0h-1c-.19 0-.355.106-.439.262-.089.165-.079.362.023.516L7 3.652v1.374c-2.799.254-5 2.611-5 5.475v9.5c-1.103 0-2 .897-2 2s.897 2 2 2h14c1.103 0 2-.897 2-2s-.897-2-2-2zM8 4h2v1H8V4zm-5 6.5C3 8.019 5.019 6 7.5 6h3c2.481 0 4.5 2.019 4.5 4.5V20H3v-9.5zM16 23H2c-.552 0-1-.449-1-1s.448-1 1-1h14c.552 0 1 .449 1 1s-.448 1-1 1zM8 7.5c0 .276-.224.5-.5.5C6.121 8 5 9.122 5 10.5v8c0 .276-.224.5-.5.5s-.5-.224-.5-.5v-8C4 8.57 5.57 7 7.5 7c.276 0 .5.224.5.5z"/></svg>