<svg xmlns="http://www.w3.org/2000/svg" viewBox="0 0 16 24"><path fill="#5c6671" d="M8 17.996c-.551 0-1 .449-1 1s.449 1 1 1 1-.449 1-1-.449-1-1-1zm0 1v-.001l.5.001h-.499zm8 0c0-.044-.003-.088-.01-.145.001-.025 0-.05-.002-.075L14.48 4.72c-.004-.035-.011-.066-.02-.096-.176-.946-.99-1.627-1.959-1.627h-.5v-1h.5c.276 0 .5-.309.5-.585 0-.205-.124-.382-.301-.459C9.719-.316 6.283-.316 3.305.952c-.185.079-.304.344-.304.545 0 .276.224.5.5.5h.5v1h-.5c-.968 0-1.781.68-1.959 1.628-.009.028-.016.06-.02.094L.014 18.777c-.002.024-.003.048-.002.072-.006.049-.01.098-.01.148 0 1.103.897 2 2 2v.092c-.581.207-1 .757-1 1.408v1c0 .276.224.5.5.5h13c.276 0 .5-.224.5-.5v-1c0-.651-.419-1.201-1-1.408v-.092c1.103 0 2-.897 2-2zm-3.5-15c.495 0 .908.357.983.85.002.017.005.032.009.046l1.492 13.913c-.002.028-.001.056.002.084 0 .004.013.104.013.107 0 .551-.449 1-1 1 0-.955-.673-1.756-1.57-1.954-.193-.606-.761-1.046-1.43-1.046 1.103 0 2-.897 2-2v-6c0-1.103-.897-2-2-2v-1h.5c.276 0 .5-.224.5-.5v-1.5h.5zm-4.5 17H3v-.476c0-.008.005-.016.005-.024s-.004-.016-.005-.024v-.476c0-.551.449-1 1-1 .276 0 .5-.224.5-.5s.224-.5.5-.5h.5c.276 0 .5-.224.5-.5v-.5h4v.5c0 .276.224.5.5.5h.5c.276 0 .5.224.5.5s.224.5.5.5c.551 0 1 .449 1 1v.476c0 .008-.005.016-.005.024s.004.016.005.024v.476H8zm2-15v1H6v-1h4zm1 2c.551 0 1 .449 1 1v6c0 .551-.449 1-1 1H5c-.551 0-1-.449-1-1v-6c0-.551.449-1 1-1h6zm.007-6.584c-.004.025-.007.054-.007.083v3.5H5v-3.5c0-.03-.003-.058-.007-.087 1.946-.551 4.069-.551 6.014.003zM1 18.997l-.5-.016.513-.093a.4283.4283 0 0 0 .003-.052c0-.01 0-.02-.001-.03L2.508 4.89c.003-.015.007-.03.009-.045.075-.492.489-.85.983-.85H4v1.5c0 .276.224.5.5.5H5v1c-1.103 0-2 .897-2 2v6c0 1.103.897 2 2 2-.669 0-1.237.44-1.43 1.046-.896.197-1.57.999-1.57 1.954-.551 0-1-.449-1-.999zm13 3.999H2v-.5c0-.276.224-.5.5-.5h11c.276 0 .5.224.5.5v.5z"/></svg>