<svg xmlns="http://www.w3.org/2000/svg" viewBox="0 0 24 24"><path fill="#5c6671" d="M20.506 6.546c-.008-.01-.012-.022-.021-.031s-.021-.012-.031-.021C18.283 4.336 15.295 3 12 3S5.717 4.336 3.546 6.494c-.01.008-.022.011-.031.021s-.012.021-.021.031C1.336 8.717 0 11.705 0 15c0 2.004.505 3.988 1.46 5.739.086.156.25.261.439.261H22.1c.188 0 .352-.104.437-.258.957-1.754 1.462-3.738 1.462-5.742 0-3.295-1.336-6.283-3.494-8.454zM9.55 20c.232-1.14 1.242-2 2.45-2s2.217.86 2.45 2H9.551zm12.249 0h-6.35c-.16-1.104-.831-2.033-1.771-2.552l3.29-8.772c.097-.259-.034-.547-.292-.644-.259-.101-.547.033-.644.292l-3.285 8.76c-.241-.053-.49-.084-.747-.084-1.758 0-3.204 1.308-3.449 3h-6.35c-.71-1.391-1.099-2.933-1.171-4.5H2.5c.276 0 .5-.224.5-.5s-.224-.5-.5-.5H1.025c.12-2.655 1.182-5.063 2.864-6.904l1.04 1.04c.098.098.226.146.354.146s.256-.049.354-.146c.195-.195.195-.512 0-.707l-1.04-1.04c1.841-1.682 4.249-2.743 6.904-2.863v1.475c0 .276.224.5.5.5s.5-.224.5-.5V4.026c2.655.12 5.063 1.181 6.904 2.863l-1.04 1.04c-.195.195-.195.512 0 .707.098.098.226.146.354.146s.256-.049.354-.146l1.04-1.04c1.682 1.841 2.743 4.249 2.864 6.904h-1.475c-.276 0-.5.224-.5.5s.224.5.5.5h1.47c-.072 1.567-.461 3.109-1.171 4.5z"/></svg>