<svg xmlns="http://www.w3.org/2000/svg" viewBox="0 0 24 24"><path fill="#5c6671" d="M15.448 13.141c.094.094.221.147.354.147s.261-.053.355-.147c.286-.288.853-.056.853.354 0 .11-.043.217-.129.318-.096.111-.137.259-.114.404s.109.272.235.348c1.153.699 2.65.497 3.571-.424l2.587-2.587c.551-.55.854-1.282.854-2.062 0-.524-.149-1.046-.43-1.51-.076-.126-.204-.211-.349-.234-.147-.026-.293.018-.405.114-.352.299-.818.016-.818-.371 0-.133.052-.259.147-.354.195-.195.195-.512 0-.707l-4.588-4.588c-.094-.094-.221-.147-.354-.147s-.261.053-.355.147c-.287.288-.853.055-.853-.354 0-.11.043-.217.129-.318.096-.111.137-.259.114-.404s-.109-.272-.235-.348c-1.149-.698-2.649-.497-3.571.424L9.859 3.429c-.551.55-.854 1.282-.854 2.062 0 .524.149 1.046.43 1.51.076.126.204.212.349.235.145.025.293-.018.405-.114.352-.299.818-.015.818.371 0 .133-.052.259-.148.354-.194.195-.194.512.001.707l1.347 1.347L.611 20.718C.223 21.075 0 21.583 0 22.11c0 1.043.848 1.891 1.891 1.891.527 0 1.034-.222 1.389-.608L14.1 11.795l1.347 1.347zm-1.726-2.409L2.547 22.711c-.169.183-.408.288-.657.288-.49 0-.89-.4-.89-.891 0-.248.105-.487.29-.658l11.977-11.173c.1-.093.157-.222.159-.357s-.051-.267-.147-.362l-1.421-1.42c.096-.2.147-.42.147-.647 0-.828-.673-1.501-1.501-1.501h-.001c-.146 0-.288.022-.421.063-.049-.186-.079-.375-.079-.564 0-.512.199-.993.561-1.354l2.587-2.587c.496-.495 1.237-.688 1.915-.472-.038.123-.061.265-.061.411v.001c0 .828.673 1.501 1.501 1.501.228 0 .448-.05.648-.146l4 4.001c-.095.199-.146.42-.146.647 0 .828.673 1.501 1.501 1.501.141 0 .278-.021.411-.061.059.183.089.372.089.561 0 .512-.199.993-.561 1.354l-2.587 2.587c-.496.495-1.234.69-1.915.472.038-.123.061-.264.061-.411v-.001c0-.828-.673-1.501-1.501-1.501-.228 0-.448.05-.648.146l-1.42-1.42c-.097-.096-.25-.148-.362-.147-.136.002-.265.06-.357.159zm8.29 9.266h-9.005c-1.103 0-2.001.897-2.001 2.001S11.904 24 13.007 24h9.005c1.103 0 2.001-.897 2.001-2.001s-.898-2.001-2.001-2.001zm0 3.001h-9.005c-.552 0-1.001-.449-1.001-1.001s.448-1.001 1.001-1.001h9.005c.552 0 1.001.449 1.001 1.001s-.448 1.001-1.001 1.001z"/></svg>