<svg xmlns="http://www.w3.org/2000/svg" viewBox="0 0 24 24"><path fill="#5c6671" d="M21.895 10.713c-.505-2.093-2.946-5.03-7.961-5.195C13.717 4.649 12.935 4 11.999 4c-.42 0-.808.131-1.13.352C9.409 3.195 7.232 3 5.999 3c-.699 0-2 0-2 1 0 1.003 2.83 2.519 4.598 2.929C3.599 8.139-.001 11.827-.001 16c0 .575.07 1.171.208 1.773.033.14.121.254.239.322 2.571 1.453 5.726 2.408 8.941 2.753.134.015.266.025.4.038.287.026.573.054.861.07.455.027.906.043 1.352.043s.897-.016 1.351-.043c.288-.016.576-.044.864-.07.132-.013.264-.023.396-.037 3.215-.345 6.37-1.3 8.94-2.752.121-.069.208-.184.241-.32.139-.605.209-1.202.209-1.777 0-1.883-.73-3.707-2.105-5.287zm-.954.305c.001.006-.001.013.001.019.039.186.059.342.059.463 0 .133-.474.5-2 .5-.859 0-1.929-.093-2.943-.436-.002-.001-.002-.002-.004-.003-.305-.103-.584-.23-.849-.369-.055-.029-.11-.058-.165-.089-.259-.147-.502-.306-.717-.486-.456-.383-.966-.98-1.506-1.613-.176-.206-.353-.411-.531-.615-.011-.012-.016-.019-.022-.025-.179-.204-.343-.385-.51-.564-.01-.011-.032-.034-.054-.057-.168-.177-.337-.347-.508-.508-.012-.012-.025-.024-.037-.036-.159-.148-.32-.286-.483-.414.375.149.859.213 1.33.213.695 0 1.418-.139 1.773-.489 4.586.105 6.807 2.776 7.168 4.507zm-5.458 1.401c.588 2.062.931 4.515.998 7.135-.711.137-1.409.236-2.102.309-.116.012-.231.022-.347.033-1.361.124-2.703.124-4.064 0-.116-.01-.232-.021-.349-.033-.693-.074-1.39-.172-2.101-.309.137-5.213 1.404-9.755 3.165-11.415.464.458.924.994 1.371 1.517.568.663 1.105 1.29 1.624 1.726.287.241.613.45.961.64.114.062.239.112.359.169.162.076.313.163.486.228zm-2.495-6.571C12.825 5.917 12.474 6 12 6s-.826-.084-.988-.152c.073-.48.489-.848.988-.848s.915.368.988.848zM6 4c.88 0 2.94.125 4.218 1.112C10.083 5.381 10 5.68 10 6c0 .167.059.306.152.427-.347-.209-.703-.36-1.072-.42-1.581-.257-3.623-1.511-4.022-1.933.133-.034.404-.073.942-.073zM1 16c0-3.947 3.707-7.419 8.717-8.283C7.92 9.74 6.689 14.173 6.528 19.344c-1.946-.458-3.804-1.139-5.392-2.009C1.045 16.88.999 16.432.999 16zm21.863 1.335c-1.59.871-3.451 1.552-5.4 2.011-.074-2.403-.377-4.659-.883-6.627.746.17 1.542.282 2.42.282.292 0 .548-.015.787-.037.055-.005.11-.01.163-.016.222-.026.427-.058.605-.1.021-.005.038-.011.058-.016.16-.04.3-.087.425-.138.031-.013.063-.024.091-.038.127-.057.238-.119.332-.185.018-.013.032-.026.049-.039.078-.059.144-.12.199-.183.013-.015.028-.029.04-.044.006-.008.015-.016.022-.024.807 1.189 1.228 2.493 1.228 3.821 0 .432-.046.88-.137 1.335z"/></svg>