<svg xmlns="http://www.w3.org/2000/svg" viewBox="0 0 18 24"><path fill="#5c6671" d="M9 0C4.037 0 0 4.037 0 9v14.5c0 .276.224.5.5.5.833 0 1.222-.731 1.506-1.265.243-.458.406-.735.623-.735s.38.277.623.734c.284.534.674 1.266 1.507 1.266s1.221-.731 1.504-1.266c.243-.457.406-.734.621-.734s.379.277.622.735C7.789 23.268 8.178 24 9.01 24s1.221-.731 1.504-1.266c.243-.457.406-.734.621-.734s.377.277.619.734c.283.534.671 1.266 1.503 1.266s1.219-.731 1.502-1.267c.242-.456.404-.733.618-.733s.377.277.62.734c.283.534.672 1.266 1.503 1.266.276 0 .5-.224.5-.5V9c0-4.963-4.037-9-9-9zm8 22.487c-.038-.068-.078-.143-.12-.222-.283-.534-.672-1.266-1.503-1.266s-1.218.731-1.501 1.266c-.242.457-.405.734-.619.734-.215 0-.377-.277-.62-.734-.283-.534-.671-1.266-1.502-1.266s-1.221.731-1.504 1.266c-.243.457-.406.734-.621.734s-.378-.277-.621-.734c-.284-.534-.673-1.266-1.505-1.266s-1.221.731-1.504 1.266c-.243.457-.406.734-.621.734-.217 0-.381-.277-.624-.735-.284-.534-.674-1.265-1.506-1.265s-1.222.731-1.506 1.265c-.062.12-.103.194-.145.268L1 8.999c0-4.411 3.589-8 8-8s8 3.589 8 8v13.487zM6 6c-1.103 0-2 .897-2 2s.897 2 2 2 2-.897 2-2-.897-2-2-2zm0 3c-.552 0-1-.448-1-1s.448-1 1-1 1 .448 1 1-.448 1-1 1zm6-3c-1.103 0-2 .897-2 2s.897 2 2 2 2-.897 2-2-.897-2-2-2zm0 3c-.552 0-1-.448-1-1s.448-1 1-1 1 .448 1 1-.448 1-1 1z"/></svg>