<svg xmlns="http://www.w3.org/2000/svg" viewBox="0 0 24 24"><path fill="#5c6671" d="M22.5 4h-4.089c.364-.419.589-.935.589-1.5C19 1.122 17.712 0 16.129 0 14.106 0 12.654 1.324 12 2.58 11.346 1.323 9.894 0 7.871 0 6.288 0 5 1.122 5 2.5c0 .565.224 1.081.589 1.5H1.5C.673 4 0 4.673 0 5.5v2c0 .651.419 1.201 1 1.408V22c0 1.103.897 2 2 2h18c1.103 0 2-.897 2-2V8.908c.581-.207 1-.757 1-1.408v-2c0-.827-.673-1.5-1.5-1.5zm-9.491-1.174C13.273 2.398 14.278 1 16.129 1 17.161 1 18 1.673 18 2.5S17.161 4 16.129 4h-3.514c-.021-.154.031-.585.394-1.174zM11 8V5h2v3h-2zm2 1v14h-2V9h2zM6 2.5C6 1.673 6.839 1 7.871 1c1.851 0 2.856 1.398 3.12 1.826.414.67.424 1.136.447 1.173H7.871C6.839 3.999 6 3.326 6 2.499zm-5 3c0-.276.224-.5.5-.5H10v3H1.5c-.276 0-.5-.224-.5-.5v-2zM2 22V9h8v14H3c-.551 0-1-.449-1-1zm20 0c0 .551-.449 1-1 1h-7V9h8v13zm1-14.5c0 .276-.224.5-.5.5H14V5h8.5c.276 0 .5.224.5.5v2z"/></svg>