<svg xmlns="http://www.w3.org/2000/svg" viewBox="0 0 24 24"><path fill="#5c6671" d="M12.001 16c-.552 0-1 .449-1 1s.448 1 1 1 1-.449 1-1-.448-1-1-1zm0 1.001zm0-4.001c-.552 0-1 .449-1 1s.448 1 1 1 1-.449 1-1-.448-1-1-1zm0 1zm0-4c-.552 0-1 .449-1 1s.448 1 1 1 1-.449 1-1-.448-1-1-1zm0 1zm-1-7.001c0-.551-.448-1-1-1s-1 .449-1 1 .448 1 1 1 1-.449 1-1zm-1 0zm4-1c-.552 0-1 .449-1 1s.448 1 1 1 1-.449 1-1-.448-1-1-1zm0 1zm-.064 2.746C13.909 6.796 13.217 8 12.001 8s-1.907-1.204-1.936-1.255c-.136-.241-.05-.545.19-.681s.544-.051.68.189c.016.025.445.747 1.066.747.628 0 1.062-.74 1.066-.747.138-.238.439-.322.682-.187.238.136.323.439.189.679zM20.859 8h-4.73l-.056-.124c.799-1.114 1.096-2.481.835-3.848-.373-1.946-1.918-3.52-3.844-3.919-1.509-.312-3.046.057-4.218 1.011S7 3.489 7 5c0 1.036.321 2.031.929 2.878l-.056.123H3.142C1.54 8.001.166 9.184.015 10.694c-.085.847.192 1.693.76 2.321s1.379.987 2.225.987h2.896c.444 0 .816.243.994.649s.106.843-.193 1.171l-2.734 2.989c-.021.015-.066.054-.084.071-.04.04-.075.083-.123.148l-.124.135c-.035.038-.063.081-.083.126-.825 1.181-.691 2.812.33 3.833 1.169 1.169 3.072 1.17 4.256-.014l1.052-1.137c.073-.023.144-.059.202-.117.067-.067.102-.15.123-.235l.862-.932c.775-.874 2.262-.897 3.08.022l2.425 2.411c.585.585 1.353.878 2.121.878s1.536-.293 2.121-.878c1.019-1.019 1.155-2.645.335-3.826-.023-.051-.053-.096-.088-.134l-.138-.155c-.033-.044-.068-.087-.147-.155l-2.78-3.033c-.3-.327-.372-.765-.193-1.171s.55-.649.994-.649H21c.846 0 1.656-.36 2.225-.987s.845-1.473.76-2.321c-.151-1.51-1.526-2.693-3.127-2.693zM1.516 12.341c-.384-.424-.564-.975-.507-1.549C1.111 9.787 2.047 9 3.142 9h.728c-.084.183-.198.369-.317.561C3.281 10 3 10.453 3 11c0 .53.272.914.511 1.252.165.233.318.464.407.749H3c-.564 0-1.105-.24-1.484-.659zm5.898 10.074c-.779.779-2.049.779-2.828 0-.695-.695-.772-1.816-.178-2.608.011-.014.02-.029.028-.043l.063-.069c.008-.009.052-.074.059-.084.025-.019.073-.06.095-.084l.769-.839c.155.278.211.562.262.859.069.408.148.871.524 1.246.387.387.906.508 1.408.627.202.047.398.095.575.156l-.776.839zm12.021-2.803c.009.012.063.08.074.091l.055.06c.01.017.02.031.03.045.593.791.517 1.912-.179 2.607-.778.778-2.047.781-2.829-.001l-.814-.809c.195-.076.417-.131.649-.185.502-.118 1.022-.24 1.408-.627.375-.375.454-.838.524-1.246.049-.288.105-.564.249-.833l.746.814c.008.009.077.076.087.084zm-3.238-5.366c-.338.768-.195 1.63.372 2.249l1.338 1.46c-.367.513-.471 1.028-.539 1.424-.061.356-.102.565-.245.708-.186.185-.547.27-.93.36-.381.089-.8.19-1.171.413l-.84-.835c-.577-.65-1.407-1.024-2.278-1.024s-1.7.373-2.271 1.016l-.729.788c-.343-.181-.715-.277-1.06-.358-.383-.09-.744-.175-.93-.36-.143-.143-.185-.351-.245-.707-.069-.401-.176-.925-.556-1.445l1.32-1.44c.567-.619.71-1.481.372-2.249S6.736 13 5.896 13h-.95c-.112-.591-.394-1.009-.619-1.326-.208-.295-.326-.472-.326-.674 0-.262.195-.578.403-.912.201-.324.417-.682.525-1.088h2.945c.404 0 .771-.223.954-.581.186-.361.152-.792-.086-1.125-.485-.676-.741-1.469-.741-2.295 0-1.209.538-2.34 1.477-3.104s2.175-1.059 3.384-.807c1.535.318 2.767 1.575 3.065 3.128.209 1.094-.027 2.187-.665 3.077-.239.334-.272.765-.086 1.127.184.357.55.58.954.58h2.927c.112.591.394 1.009.619 1.326.208.295.326.472.326.674 0 .262-.195.578-.403.912-.201.324-.417.682-.525 1.088h-.967c-.84 0-1.571.478-1.909 1.246zm6.289-1.905c-.379.418-.92.659-1.484.659h-.87c.084-.183.198-.369.317-.561.272-.439.553-.892.553-1.439 0-.53-.272-.914-.511-1.252-.165-.233-.318-.464-.407-.749h.776c1.095 0 2.031.787 2.133 1.792.057.575-.123 1.125-.507 1.55z"/></svg>