<svg xmlns="http://www.w3.org/2000/svg" viewBox="0 0 24 24"><path fill="#5c6671" d="M23.388 14.325c-.003-.009-.002-.019-.006-.028l-4.423-9.94C18.569 3.533 17.801 3 17 3c-.845 0-1.571.604-1.942 1.612l-1.025 2.711c-.098.258.032.547.291.645s.546-.033.645-.291l1.026-2.715c.107-.289.418-.962 1.006-.962.409 0 .833.315 1.05.774l3.062 6.881c-.715-.407-1.578-.655-2.612-.655h-13c-1.034 0-1.897.248-2.612.655l3.057-6.87C6.168 4.316 6.591 4 7.001 4c.588 0 .898.673 1.007.966l1.025 2.711c.099.258.389.389.645.291.259-.098.389-.386.291-.645L8.945 4.616C8.573 3.604 7.846 3 7.002 3c-.801 0-1.569.533-1.964 1.368L.62 14.297c-.004.009-.003.019-.006.028-.422.981-.612 2.03-.612 2.925 0 2.068 1.683 3.75 3.75 3.75 4.665 0 7.12-4.328 7.239-6.345.113-.179.463-.655 1.011-.655.55 0 .901.479 1.011.655.118 2.017 2.573 6.345 7.239 6.345 2.067 0 3.75-1.682 3.75-3.75 0-.895-.19-1.944-.612-2.925zM3.75 20C2.233 20 1 18.767 1 17.25c0-.053.052-5.25 4.5-5.25 4.5 0 4.5 1.214 4.5 2.5 0 1.596-2.19 5.5-6.25 5.5zM12 13c-.454 0-.821.154-1.114.352-.127-.539-.38-.99-.817-1.352h3.863c-.437.361-.69.813-.817 1.352-.293-.198-.66-.352-1.114-.352zm8.25 7C16.19 20 14 16.096 14 14.5c0-1.286 0-2.5 4.5-2.5 4.448 0 4.5 5.197 4.5 5.25 0 1.517-1.233 2.75-2.75 2.75z"/></svg>