<svg xmlns="http://www.w3.org/2000/svg" viewBox="0 0 24 24"><path fill="#5c6671" d="M23.681 9.034C23.572 8.992 20.976 8 18 8c-1.877 0-3.395.402-4.503.695C12.879 8.859 12.345 9 12 9s-.879-.141-1.497-.305C9.395 8.402 7.877 8 6 8 3.024 8 .429 8.992.319 9.034c-.219.085-.35.312-.313.544s.23.408.465.421c.233.014.33.094.382.153.282.321.219 1.177.178 1.743-.016.226-.031.433-.031.604 0 1.3 1.053 3.5 5 3.5 3.1 0 4.243-1.642 4.648-2.621.149-.36.229-.744.278-1.133.043-.074.074-.154.074-.246 0-.153.028-1.5 1-1.5s1 1.347 1 1.5c0 .091.031.172.074.246.049.389.129.774.278 1.133.405.979 1.548 2.621 4.648 2.621 3.947 0 5-2.2 5-3.5 0-.171-.015-.379-.031-.605-.042-.566-.104-1.422.178-1.743.052-.06.148-.14.382-.153.235-.013.429-.189.465-.421s-.094-.459-.313-.544zm-10.369 1.012c-.078-.081-.166-.151-.258-.216.117-.026.222-.042.352-.076-.041.092-.059.196-.094.292zm-2.365-.217c-.092.065-.18.135-.258.216-.034-.096-.053-.2-.094-.292.13.034.234.05.352.076zm-1.223 3.167C9.346 13.91 8.392 15 6 15c-3.888 0-4-2.244-4-2.5 0-.151.014-.333.028-.532.056-.761.124-1.694-.313-2.333C2.708 9.355 4.304 9 6 9c1.23 0 2.281.182 3.184.393.687.728 1.085 2.289.54 3.604zm12.248-1.028c.015.198.028.381.028.532 0 .256-.112 2.5-4 2.5-2.392 0-3.346-1.09-3.724-2.004-.545-1.314-.146-2.876.54-3.604.903-.211 1.954-.393 3.184-.393 1.696 0 3.292.355 4.285.635-.437.639-.369 1.572-.313 2.333z"/></svg>