<svg xmlns="http://www.w3.org/2000/svg" viewBox="0 0 24 24"><path fill="#5c6671" d="M18.001 1.606C12.269-1.703 4.914.267 1.606 5.999S.268 19.086 5.999 22.394C7.884 23.483 9.945 24 11.98 24c4.151 0 8.194-2.153 10.415-5.999 3.309-5.731 1.338-13.087-4.393-16.395zm4.976 10.957l-4.176-2.411c.828-2.665.92-5.034.234-6.596 2.697 2.245 4.11 5.612 3.942 9.007zM6.749 21.095c-1.519-.877-1.619-3.809-.502-7.219l7.009 4.047c-.769.858-1.569 1.6-2.375 2.176-1.663 1.188-3.167 1.552-4.132.996zm-.16-8.177c.401-1.041.902-2.11 1.513-3.168.698-1.209 1.479-2.318 2.303-3.29l7.186 4.149c-.424 1.187-.99 2.422-1.694 3.642-.607 1.05-1.277 2.022-1.983 2.897l-7.326-4.23zm4.497-7.22c.663-.699 1.346-1.306 2.032-1.796 1.153-.824 2.229-1.251 3.103-1.251.387 0 .734.084 1.03.255 1.446.835 1.611 3.532.659 6.732l-6.823-3.939zm4.685-4.013c-.98.112-2.076.576-3.234 1.403-.793.566-1.578 1.28-2.335 2.099L6.038 2.783C7.824 1.632 9.9 1 12.019 1c1.26 0 2.527.236 3.753.685zm-13.3 4.814c.707-1.224 1.625-2.247 2.668-3.079l4.389 2.534c-.821.985-1.598 2.093-2.292 3.296-.613 1.062-1.124 2.123-1.533 3.157L1.224 9.821c.229-1.139.635-2.261 1.247-3.322zm-1.407 4.385l4.288 2.475c-.975 2.864-1.114 5.428-.386 7.086-2.845-2.368-4.261-5.983-3.902-9.561zM8.192 22.31c.991-.104 2.098-.559 3.271-1.398.913-.653 1.818-1.496 2.679-2.479l4.293 2.479c-2.923 2.103-6.767 2.684-10.243 1.398zm13.337-4.809c-.613 1.061-1.382 1.973-2.254 2.741l-4.484-2.589c.703-.885 1.368-1.858 1.972-2.903.708-1.226 1.273-2.45 1.709-3.633l4.394 2.537c-.199 1.319-.632 2.624-1.338 3.847z"/></svg>