<svg xmlns="http://www.w3.org/2000/svg" viewBox="0 0 18 24"><path fill="#5c6671" d="M3.589 15.668c.019.013.034.029.054.042.003.002.007.004.011.006l.001.001c.001.001.002 0 .002.001.043.027.089.047.133.072 1.225.763 2.665 1.211 4.211 1.211 1.117 0 2.18-.232 3.146-.646.007-.003.013-.006.019-.009 1.449-.627 2.674-1.67 3.53-2.978.006-.009.017-.012.023-.021.009-.015.011-.031.018-.047.796-1.243 1.264-2.716 1.264-4.299 0-2.78-1.427-5.232-3.586-6.666-.02-.014-.036-.031-.056-.044-.003-.002-.006-.003-.008-.004l-.003-.003c-.003-.002-.007-.002-.01-.004-.034-.022-.071-.036-.106-.056-1.229-.77-2.676-1.223-4.23-1.223-2.797 0-5.26 1.446-6.691 3.627-.008.01-.019.016-.026.027-.009.014-.01.031-.018.046C.47 5.945.002 7.418.002 9.002c0 2.782 1.429 5.234 3.589 6.668zm-1.72-10.04L4.03 7.026c-.588.977-1.037 1.978-1.338 2.961L1.005 8.896c.018-1.183.327-2.296.864-3.268zM7.604 4.32l1.994 1.29-1.746 2.698L5.413 6.73c.663-.945 1.406-1.766 2.19-2.41zm6.527 8.051l-2.161-1.398c.588-.977 1.038-1.978 1.338-2.962l1.687 1.091c-.017 1.183-.327 2.296-.864 3.269zm-5.729 1.311l-1.999-1.294L8.148 9.69l2.449 1.584c-.671.956-1.427 1.773-2.195 2.407zM3.344 11.6l1.676 1.085-1.189 1.838c-.455-.544-.658-1.413-.552-2.542.012-.123.047-.255.065-.38zm1.321 3.474l1.194-1.845 1.679 1.087c-1.062.681-2.086.973-2.873.759zm4.027-6.223l1.746-2.698 2.002 1.295c-.269.978-.715 1.991-1.308 2.981L8.693 8.851zm4.03-2.833c-.011.123-.047.254-.065.38l-1.676-1.084 1.189-1.837c.455.545.658 1.413.552 2.542zm.846.97c.058-.295.123-.592.149-.877.037-.398.037-.77.011-1.123.588.838.994 1.809 1.169 2.859l-1.329-.86zM11.339 2.92l-1.198 1.851-1.666-1.078c.11-.069.218-.157.328-.219.736-.414 1.416-.623 1.997-.623.191 0 .371.023.539.069zm-4.03 6.228l-1.745 2.698-2.002-1.296c.268-.978.715-1.991 1.308-2.98l2.44 1.578zM2.432 11.01c-.058.295-.123.592-.149.877-.037.398-.037.771-.011 1.124-.589-.838-.994-1.81-1.169-2.861l1.329.86zm4.215 4.856c.593-.208 1.203-.526 1.811-.957l1.319.854c-.568.149-1.162.237-1.776.237-.463 0-.915-.048-1.353-.134zm4.31-.53l-1.672-1.082c.756-.661 1.482-1.488 2.145-2.439l2.152 1.392c-.686.907-1.585 1.641-2.625 2.129zM9.343 2.132c-.335.12-.679.272-1.03.47-.253.142-.502.324-.751.5l-1.337-.865C6.793 2.088 7.386 2 8 2c.46 0 .908.047 1.343.132zm-4.299.532l1.69 1.094c-.776.676-1.508 1.495-2.16 2.43L2.419 4.794c.686-.907 1.585-1.641 2.625-2.129zM18 9c0-3.23-1.557-6.21-4.168-8.093l.088-.136c.15-.232.084-.541-.148-.691s-.542-.084-.691.148l-.341.527-.001.001c-.15.231-.084.541.147.691C15.462 3.118 17 5.941 17 8.999c0 4.962-4.038 9-9 9-1.733 0-3.421-.501-4.882-1.446l-.003-.003c-.227-.146-.527-.084-.68.137-.003.005-.008.007-.012.012v.001l-.343.528c-.15.232-.084.542.148.692.077.05.17.08.271.08.164 0 .324-.081.42-.228l.09-.139c.93.539 1.929.919 2.97 1.135-.266 3.813-4.342 4.219-4.522 4.234-.267.022-.469.252-.457.52s.231.479.499.479h12c.268 0 .488-.211.499-.479s-.19-.497-.458-.52c-.175-.015-4.13-.408-4.508-4.056 5.03-.519 8.966-4.781 8.966-9.946zm-7.473 14H4.472c1.195-.724 2.326-1.973 2.498-4.074.342.036.683.074 1.03.074.012 0 .023-.002.035-.002.192 2.058 1.311 3.286 2.492 4.002z"/></svg>