<svg xmlns="http://www.w3.org/2000/svg" viewBox="0 0 18 24"><path fill="#5c6671" d="M17.574 10.732c-.916-.916-2.349-1.019-3.406-.246-.354.259-.781.792-1.158 1.322V3c0-1.103-.897-2-2.001-2-.412 0-.795.125-1.114.339C9.621.56 8.878 0 8.006 0S6.391.56 6.117 1.339C5.799 1.125 5.415 1 5.004 1 3.9 1 3.003 1.897 3.003 3v.269C2.709 3.098 2.366 3 2.002 3 .898 3 .001 3.897.001 5v11.5c0 1.13.348 2.2.987 3.121V22c0 1.103.898 2 2.001 2h7.006c1.104 0 2.001-.897 2.001-2v-1.143c.065-.058.133-.112.195-.174.026-.025.048-.054.068-.084.039-.06 3.864-5.998 5.347-7.779.541-.651.529-1.529-.031-2.087zm-.738 1.448c-1.467 1.763-4.997 7.223-5.389 7.831-.081.078-.165.151-.252.221-.057.043-.103.096-.137.159-.001.001-.002.003-.003.004-.022.042-.033.087-.042.134-.005.023-.012.044-.013.067 0 .009-.005.017-.005.026V22c0 .551-.449 1-1.001 1H2.988c-.552 0-1.001-.449-1.001-1v-2.413c.024-.133-.001-.274-.088-.39-.588-.783-.898-1.715-.898-2.697V5c0-.551.449-1 1.001-1s1.001.449 1.001 1v5.5c0 .276.224.5.5.5s.5-.224.5-.5V3c0-.551.449-1 1.001-1s1.001.449 1.001 1v7.5c0 .276.224.5.5.5s.5-.224.5-.5V2c0-.551.449-1 1.001-1s1.001.449 1.001 1v8.5c0 .276.224.5.5.5s.5-.224.5-.5V3c0-.551.449-1 1.001-1s1.001.449 1.001 1v10.5c0 .226.151.423.369.482.217.057.447-.035.562-.229.452-.768 1.345-2.114 1.818-2.46.656-.481 1.543-.419 2.109.146.22.219.138.537-.031.74zM3.989 19.5v2c0 .276-.224.5-.5.5s-.5-.224-.5-.5v-2c0-.276.224-.5.5-.5s.5.224.5.5zm2.001 0v2c0 .276-.224.5-.5.5s-.5-.224-.5-.5v-2c0-.276.224-.5.5-.5s.5.224.5.5zm2.002 0v2c0 .276-.224.5-.5.5s-.5-.224-.5-.5v-2c0-.276.224-.5.5-.5s.5.224.5.5zm2.002 0v2c0 .276-.224.5-.5.5s-.5-.224-.5-.5v-2c0-.276.224-.5.5-.5s.5.224.5.5z"/></svg>