<svg xmlns="http://www.w3.org/2000/svg" viewBox="0 0 18 24"><path fill="#5c6671" d="M9 0C4.038 0 0 4.038 0 9s4.038 9 9 9 9-4.038 9-9-4.038-9-9-9zm0 17c-4.411 0-8-3.589-8-8s3.589-8 8-8 8 3.589 8 8-3.589 8-8 8zm3.295 1.544c-.004.002-.007.003-.011.005C12.233 18.572 11.23 19 9 19c-2.218 0-3.223-.424-3.281-.45a.11433.11433 0 0 0-.014-.006c-.249-.111-.542-.002-.659.245-.115.249-.01.543.237.662.001.001.005.002.01.005.102.047 2.207 1.063 2.207 4.044 0 .276.224.5.5.5h2c.276 0 .5-.224.5-.5 0-2.971 2.089-3.99 2.203-4.043.007-.003.011-.005.013-.006.247-.118.353-.413.237-.662s-.41-.358-.659-.245zM9.517 23H8.483c-.097-1.383-.589-2.384-1.133-3.083.929.1 2.371.1 3.3 0-.544.699-1.036 1.7-1.133 3.083zM9 2c-.551 0-1 .449-1 1s.449 1 1 1 1-.449 1-1-.449-1-1-1zm0 1v-.001L9.5 3h-.499zm0 3c-.551 0-1 .449-1 1s.449 1 1 1 1-.449 1-1-.449-1-1-1zm0 1v-.001L9.5 7h-.499zm0 3c-.551 0-1 .449-1 1s.449 1 1 1 1-.449 1-1-.449-1-1-1zm0 1v-.001l.5.001h-.499zm6-3c.551 0 1-.449 1-1s-.449-1-1-1-1 .449-1 1 .449 1 1 1zm.5-1h-.499v-.001l.5.001zm-.5 3c-.551 0-1 .449-1 1s.449 1 1 1 1-.449 1-1-.449-1-1-1zm0 1v-.001l.5.001h-.499zM3 6c-.551 0-1 .449-1 1s.449 1 1 1 1-.449 1-1-.449-1-1-1zm0 1v-.001L3.5 7H3zm0 3c-.551 0-1 .449-1 1s.449 1 1 1 1-.449 1-1-.449-1-1-1zm0 1v-.001l.5.001H3zm3-7c-.551 0-1 .449-1 1s.449 1 1 1 1-.449 1-1-.449-1-1-1zm0 1v-.001L6.5 5H6zm0 3c-.551 0-1 .449-1 1s.449 1 1 1 1-.449 1-1-.449-1-1-1zm0 1v-.001L6.5 9H6zm0 3c-.551 0-1 .449-1 1s.449 1 1 1 1-.449 1-1-.449-1-1-1zm0 1v-.001l.5.001H6zm6-9c-.551 0-1 .449-1 1s.449 1 1 1 1-.449 1-1-.449-1-1-1zm0 1v-.001l.5.001h-.499zm0 3c-.551 0-1 .449-1 1s.449 1 1 1 1-.449 1-1-.449-1-1-1zm0 1v-.001l.5.001h-.499zm0 3c-.551 0-1 .449-1 1s.449 1 1 1 1-.449 1-1-.449-1-1-1zm0 1v-.001l.5.001h-.499zm-3 1c-.551 0-1 .449-1 1s.449 1 1 1 1-.449 1-1-.449-1-1-1zm0 1v-.001l.5.001h-.499z"/></svg>