<svg xmlns="http://www.w3.org/2000/svg" viewBox="0 0 22 24"><path fill="#5c6671" d="M20 2h-3V.5c0-.276-.224-.5-.5-.5h-8c-.276 0-.5.224-.5.5V3H7V.5c0-.276-.224-.5-.5-.5h-2c-.276 0-.5.224-.5.5V3H3V1.5c0-.276-.224-.5-.5-.5s-.5.224-.5.5V3C.897 3 0 3.897 0 5v11c0 1.103.897 2 2 2h.051c.232 1.14 1.242 2 2.449 2H7v3H5.5c-.276 0-.5.224-.5.5s.224.5.5.5h9c.276 0 .5-.224.5-.5s-.224-.5-.5-.5H13v-3h2.5c1.208 0 2.217-.86 2.449-2H18c1.103 0 2-.897 2-2v-4c1.103 0 2-.897 2-2V4c0-1.103-.897-2-2-2zM9 1h7v1h-4c-.737 0-1.375.405-1.722 1H9V1zM5 1h1v2H5V1zm3 19h1.5v3H8v-3zm4 3h-1.5v-3H12v3zm3.5-4h-11c-.651 0-1.201-.419-1.408-1h13.816c-.207.581-.757 1-1.408 1zm3.5-3c0 .551-.448 1-1 1H2c-.552 0-1-.449-1-1V5c0-.551.448-1 1-1h8v6c0 1.103.897 2 2 2h7v4zm2-6c0 .551-.448 1-1 1h-8c-.552 0-1-.449-1-1V4c0-.551.448-1 1-1h8c.552 0 1 .449 1 1v6zm-5-6c-1.654 0-3 1.346-3 3s1.346 3 3 3 3-1.346 3-3-1.346-3-3-3zm0 5c-1.103 0-2-.897-2-2s.897-2 2-2 2 .897 2 2-.897 2-2 2zM8 5.5c0-.276-.224-.5-.5-.5h-4c-.276 0-.5.224-.5.5v4c0 .276.224.5.5.5h4c.276 0 .5-.224.5-.5v-4zM7 9H4V6h3v3zm-1.5 3c-.827 0-1.5.673-1.5 1.5S4.673 15 5.5 15 7 14.327 7 13.5 6.327 12 5.5 12zm0 2c-.275 0-.5-.224-.5-.5s.225-.5.5-.5.5.224.5.5-.225.5-.5.5zM9 13c-.552 0-1 .449-1 1s.448 1 1 1 1-.449 1-1-.448-1-1-1zm0 1z"/></svg>