<svg xmlns="http://www.w3.org/2000/svg" viewBox="0 0 24 24"><path fill="#5c6671" d="M21.665 9.983C22.966 9.896 24 8.822 24 7.5 24 6.122 22.879 5 21.5 5H10c0-1.103-.897-2-2-2H4c-1.103 0-2 .897-2 2v.051C.86 5.283 0 6.293 0 7.5c0 1.322 1.035 2.397 2.335 2.483l8.686 5.157-5.501 3.266c-.268-.25-.625-.407-1.02-.407-.827 0-1.5.673-1.5 1.5s.673 1.5 1.5 1.5 1.5-.673 1.5-1.5c0-.07-.011-.136-.021-.204L12 15.72l6.021 3.575c-.009.067-.021.134-.021.204 0 .827.673 1.5 1.5 1.5s1.5-.673 1.5-1.5-.673-1.5-1.5-1.5c-.395 0-.752.156-1.02.407l-5.501-3.266 8.686-5.157zM4.5 20c-.275 0-.5-.224-.5-.5s.225-.5.5-.5.5.224.5.5-.225.5-.5.5zm15-1c.275 0 .5.224.5.5s-.225.5-.5.5-.5-.224-.5-.5.225-.5.5-.5zM4 4h4c.552 0 1 .449 1 1H3c0-.551.448-1 1-1zM1 7.5C1 6.673 1.673 6 2.5 6h19c.827 0 1.5.673 1.5 1.5S22.327 9 21.5 9h-19C1.673 9 1 8.327 1 7.5zM4.321 10H19.68l-7.679 4.56L4.322 10z"/></svg>