<svg xmlns="http://www.w3.org/2000/svg" viewBox="0 0 24 24"><path fill="#5c6671" d="M24.002 6.499C24.002 2.734 22.321 0 19.961 0h-.002L8.458 1c-.022.002-.04.013-.06.017-.018.004-.036.001-.054.007L2.421 2.998H.502c-.276 0-.5.224-.5.5v6c0 .276.224.5.5.5h1.919l5.923 1.974c.024.008.047.007.071.012.015.003.028.011.044.012l4.509.391-.806 9.422c-.053.56.133 1.119.512 1.535s.917.654 1.479.654h1.286c.849 0 1.608-.538 1.893-1.354l3.047-9.675c2.121-.279 3.625-2.913 3.625-6.473zM2.5 8.999H1v-5h1.5c.057 0 .111-.01.162-.027l5.339-1.78v8.614L2.659 9.025c-.047-.016-.102-.026-.158-.026zM16.381 22.33c-.14.4-.519.669-.944.669h-1.286c-.285 0-.547-.116-.739-.327s-.283-.484-.256-.773l.807-9.425 5.376.467-2.957 9.389zm3.664-10.329L9.001 11.04V1.956L20.002.997c1.711 0 3 2.364 3 5.5s-1.29 5.5-2.957 5.502zm.957-8.503c0 .276-.224.5-.5.5h-4c-.276 0-.5-.224-.5-.5s.224-.5.5-.5h4c.276 0 .5.224.5.5zm0 3.001c0 .276-.224.5-.5.5h-4c-.276 0-.5-.224-.5-.5s.224-.5.5-.5h4c.276 0 .5.224.5.5zm0 3c0 .276-.224.5-.5.5h-4c-.276 0-.5-.224-.5-.5s.224-.5.5-.5h4c.276 0 .5.224.5.5z"/></svg>