<svg xmlns="http://www.w3.org/2000/svg" viewBox="0 0 18 24"><path fill="#5c6671" d="M16.5 17h-2c-.178 0-.343.059-.5.146V4.5c0-.827.673-1.5 1.5-1.5h1c.827 0 1.5-.673 1.5-1.5S17.327 0 16.5 0h-8C6.019 0 4 2.019 4 4.5v12.646c-.095-.053-.195-.081-.298-.102C3.64 17.017 3.572 17 3.5 17h-2C.645 17 0 18.075 0 19.5S.645 22 1.5 22h.349L.223 23.084c-.184.122-.265.35-.201.561S.28 24 .501 24h11c.103 0 .199-.031.279-.085L14.652 22h1.849c.855 0 1.5-1.075 1.5-2.5s-.645-2.5-1.5-2.5zM4 19h10v2H4v-2zm7-10H6.602c-.044-.08-.102-.252-.102-.5s.058-.42.102-.5H11v1zm0 1v2H7v-2h4zm-4.398 4c-.044-.08-.102-.252-.102-.5s.058-.42.102-.5H11v1H6.602zM11 4.5V7H7V4.5C7 3.673 7.673 3 8.5 3h2.776c-.168.471-.276.972-.276 1.5zM7 15h4v3H7v-3zM17 1.5c0 .276-.225.5-.5.5h-1C14.121 2 13 3.122 13 4.5V18h-1V4.5C12 2.57 13.57 1 15.5 1h1c.275 0 .5.224.5.5zM8.5 1h4.206c-.378.303-.714.654-.978 1.062C11.659 2.026 11.583 2 11.5 2h-3C7.121 2 6 3.122 6 4.5v2.69c-.304.248-.5.722-.5 1.31s.196 1.062.5 1.31v2.38c-.304.248-.5.722-.5 1.31s.196 1.062.5 1.31V18H5V4.5C5 2.57 6.57 1 8.5 1zM1 19.5c0-.968.376-1.5.5-1.5h.79c-.181.413-.29.925-.29 1.5s.109 1.087.29 1.5H1.5c-.124 0-.5-.532-.5-1.5zM11.349 23H2.152l1.5-1h9.197l-1.5 1zm3.151-5h.79c-.181.413-.29.925-.29 1.5s.109 1.087.29 1.5H15v-2.5c0-.276-.224-.5-.5-.5zm2 3c-.124 0-.5-.532-.5-1.5s.376-1.5.5-1.5.5.532.5 1.5-.376 1.5-.5 1.5z"/></svg>