<svg xmlns="http://www.w3.org/2000/svg" viewBox="0 0 24 24"><path fill="#5c6671" d="M24 19c0 1.103-.897 2-2 2H2c-1.103 0-2-.897-2-2 0-.679.342-1.307.916-1.678L11.5 10.233V8.959C10.083 8.72 9 7.484 9 6.001c0-1.654 1.346-3 3-3s3 1.346 3 3c0 .276-.224.5-.5.5s-.5-.224-.5-.5c0-1.103-.897-2-2-2s-2 .897-2 2 .897 2 2 2c.276 0 .5.224.5.5v2c0 .167-.083.323-.222.416L1.465 18.158c-.293.19-.465.504-.465.843 0 .551.449 1 1 1h20c.551 0 1-.449 1-1 0-.338-.171-.652-.459-.838l-9.303-6.231c-.229-.154-.291-.464-.137-.694s.464-.291.694-.137l9.297 6.226c.567.37.908.997.908 1.674z"/></svg>