<svg xmlns="http://www.w3.org/2000/svg" viewBox="0 0 24 24"><path fill="#5c6671" d="M23.816 14.174c-.003-.006-.002-.012-.005-.018L18.805 4.14a.42672.42672 0 0 0-.03-.051C18.434 3.425 17.745 3 17 3H7c-.743 0-1.433.424-1.773 1.086-.01.015-.021.033-.031.052L.189 14.157c-.003.006-.002.012-.005.018-.115.253-.184.531-.184.826v4c0 1.103.897 2 2 2h20c1.103 0 2-.897 2-2v-4c0-.295-.068-.574-.184-.826zM6.063 4.639c.014-.021.026-.042.037-.065.168-.354.513-.574.899-.574h10c.387 0 .731.22.899.574.012.024.024.044.037.064l4.185 8.374c-.041-.003-.08-.012-.122-.012h-20c-.042 0-.081.01-.122.012l4.185-8.373zM23 19c0 .551-.448 1-1 1H2c-.552 0-1-.449-1-1v-4c0-.551.448-1 1-1h20c.552 0 1 .449 1 1v4zM4 16c-.552 0-1 .449-1 1s.448 1 1 1 1-.449 1-1-.448-1-1-1zm0 1zm17-.5c0 .276-.224.5-.5.5h-12c-.276 0-.5-.224-.5-.5s.224-.5.5-.5h12c.276 0 .5.224.5.5zm0 2c0 .276-.224.5-.5.5h-3c-.276 0-.5-.224-.5-.5s.224-.5.5-.5h3c.276 0 .5.224.5.5z"/></svg>