<svg xmlns="http://www.w3.org/2000/svg" viewBox="0 0 24 24"><path fill="#5c6671" d="M19.639 8.311C18.718 5.665 17.338 3 15.5 3c-1.021 0-1.574.306-2.063.576C13.008 3.813 12.669 4 12 4s-1.008-.187-1.437-.424C10.074 3.306 9.52 3 8.5 3 6.666 3 5.289 5.654 4.366 8.308 1.711 10.044 0 12.457 0 14.5 0 18.145 5.271 21 12 21s12-2.855 12-6.5c0-2.042-1.709-4.453-4.361-6.189zM20 13.5c0 1.044-3.044 2.5-8 2.5s-8-1.456-8.009-2.408c.023-.124.051-.255.077-.383C5.7 14.301 9.657 15 12 15c2.347 0 6.313-.701 7.94-1.797.02.098.042.201.06.297zM8.5 4c.763 0 1.142.209 1.58.452.466.257.993.548 1.92.548s1.454-.291 1.92-.548C14.358 4.21 14.737 4 15.5 4c1.201 0 2.352 2.184 3.224 4.708.007.042.024.081.042.12.368 1.079.684 2.212.931 3.261-.252.678-4.334 1.911-7.698 1.911-3.356 0-7.424-1.227-7.696-1.885.254-1.086.581-2.252.958-3.353.004-.013.011-.025.013-.038C6.148 6.182 7.298 4 8.499 4zM12 20c-5.963 0-11-2.519-11-5.5 0-1.416 1.112-3.145 2.851-4.572-.186.644-.341 1.246-.467 1.776-.032.049-.058.102-.072.162-.014.064-.02.14-.019.222-.156.683-.254 1.193-.293 1.412 0 2.273 4.637 3.5 9 3.5s9-1.227 8.991-3.592c-.037-.198-.132-.684-.283-1.341-.001-.074-.008-.142-.021-.201-.011-.048-.035-.089-.058-.13-.127-.532-.285-1.144-.475-1.803 1.735 1.426 2.845 3.152 2.845 4.567 0 2.981-5.037 5.5-11 5.5z"/></svg>