<svg xmlns="http://www.w3.org/2000/svg" viewBox="0 0 24 24"><path fill="#5c6671" d="M24 12c0-6.617-5.383-12-12-12S0 5.383 0 12c0 1.532.295 3.019.857 4.43C.329 17.172 0 18.044 0 19c0 2.862 2.904 5 5.5 5 .827 0 1.5-.673 1.5-1.5v-7c0-.827-.673-1.5-1.5-1.5-.714 0-1.449.167-2.143.46C3.124 13.65 3 12.825 3 12c0-4.962 4.038-9 9-9s9 4.038 9 9c0 .826-.124 1.651-.357 2.46-.694-.294-1.429-.46-2.143-.46-.827 0-1.5.673-1.5 1.5v7c0 .827.673 1.5 1.5 1.5 2.596 0 5.5-2.138 5.5-5 0-.956-.329-1.828-.857-2.57.562-1.411.857-2.898.857-4.43zM1 19c0-.826.316-1.572.812-2.195.375-.471.873-.883 1.44-1.195.217-.121.471-.237.736-.331.024.065.012.141.012.221v7c0 .079.012.156.023.232C2.407 22.171 1 20.762 1 19zm5 3.5c0 .276-.224.5-.5.5s-.5-.224-.5-.5v-7c0-.276.224-.5.5-.5s.5.224.5.5v7zm15.556-7.578c.295-.959.444-1.939.444-2.922 0-5.514-4.486-10-10-10S2 6.486 2 12c0 .983.149 1.964.444 2.922-.056.036-.101.083-.156.12-.195.133-.383.276-.561.431-.042.036-.092.064-.132.101C1.2 14.428 1 13.228 1 12 1 5.935 5.935 1 12 1s11 4.935 11 11c0 1.229-.2 2.428-.595 3.574-.04-.037-.091-.065-.132-.101-.178-.155-.366-.298-.561-.431-.055-.037-.1-.084-.156-.12zM18 15.5c0-.276.224-.5.5-.5s.5.224.5.5v7c0 .276-.224.5-.5.5s-.5-.224-.5-.5v-7zm1.977 7.232c.012-.076.023-.152.023-.232v-7c0-.079-.012-.156-.023-.232.3.105.555.22.797.355.541.299 1.04.711 1.414 1.182.495.622.812 1.368.812 2.195 0 1.761-1.408 3.171-3.023 3.732z"/></svg>