<svg xmlns="http://www.w3.org/2000/svg" viewBox="0 0 24 24"><path fill="#5c6671" d="M22 15V5c0-1.103-.897-2-2-2s-2 .897-2 2v1h-1V5c0-1.103-.897-2-2-2s-2 .897-2 2v1h-1V5c0-1.103-.897-2-2-2s-2 .897-2 2v1H7V5c0-1.103-.897-2-2-2s-2 .897-2 2H2C.897 5 0 5.897 0 7v2c0 1.103.897 2 2 2h1v8c0 1.103.897 2 2 2s2-.897 2-2h1c0 1.103.897 2 2 2s2-.897 2-2h1c0 1.103.897 2 2 2s2-.897 2-2h1c0 1.103.897 2 2 2s2-.897 2-2c1.103 0 2-.897 2-2s-.897-2-2-2zm-5-5h1v5h-1v-5zm1-3v2h-1V7h1zm-6 3h1v5h-1v-5zm1-3v2h-1V7h1zm-6 3h1v5H7v-5zm1-3v2H7V7h1zm-6 3c-.551 0-1-.449-1-1V7c0-.551.449-1 1-1h1v4H2zm4 9c0 .551-.449 1-1 1s-1-.449-1-1V5c0-.551.449-1 1-1s1 .449 1 1v14zm1-1v-2h1v2H7zm4 1c0 .551-.449 1-1 1s-1-.449-1-1V5c0-.551.449-1 1-1s1 .449 1 1v14zm1-1v-2h1v2h-1zm4 1c0 .551-.449 1-1 1s-1-.449-1-1V5c0-.551.449-1 1-1s1 .449 1 1v14zm1-1v-2h1v2h-1zm4 1c0 .551-.449 1-1 1s-1-.449-1-1V5c0-.551.449-1 1-1s1 .449 1 1v14zm1-1v-2c.551 0 1 .449 1 1s-.449 1-1 1z"/></svg>