<svg xmlns="http://www.w3.org/2000/svg" viewBox="0 0 24 24"><path fill="#5c6671" d="M24 14.5c0-1.514-3.383-5.316-7.688-5.494l-.865-1.73C15.362 7.107 15.189 7 15 7V6h8.5c.276 0 .5-.224.5-.5s-.224-.5-.5-.5h-18c-.276 0-.5.224-.5.5s.224.5.5.5H14v1c-.138 0-.263.056-.353.146L11.793 9H3.722c-.192-.33-.474-.597-.815-.772l-.944-1.889c-.119-.238-.402-.341-.645-.235l-1.016.438c-.239.103-.359.371-.276.617l.5 1.5v.001C.202 9.016 0 9.484 0 10.001c0 .737.405 1.375 1 1.722v.778c0 .276.224.5.5.5H2c.189 0 .362-.107.447-.276l.482-.963c.324-.172.594-.426.781-.739 1.652.146 4.213.587 4.875 1.265.092.182.187.373.283.569.912 1.847 2.046 4.145 4.132 4.145h3v1h-4.5c-.276 0-.5.224-.5.5s.224.5.5.5L16.488 19c.004 0 .008.002.012.002s.008-.002.012-.002l3.966-.002c.008 0 .014.004.022.004s.014-.004.022-.004h1.048c.185-.026 1.824-.281 2.367-1.251.135-.241.049-.545-.192-.68-.242-.136-.546-.049-.68.192-.237.423-1.203.687-1.564.744h-.5v-1.034c1.738-.165 3-1.164 3-2.466zM1.28 7.209l.411.823c-.102.016-.2.042-.296.072l-.275-.826.16-.069zM2 11c-.551 0-1-.449-1-1s.449-1 1-1 1 .449 1 1-.449 1-1 1zm7.765 1.413c-.109-.222-.216-.437-.32-.641a.49421.49421 0 0 0-.066-.098c-.936-1.093-4.141-1.509-5.383-1.632 0-.014.004-.028.004-.042h8c.138 0 .263-.056.353-.146L14.207 8h.484l.862 1.724c.085.169.258.276.447.276 4.101 0 7 3.752 7 4.5 0 .827-1.122 1.5-2.5 1.5H13c-1.464 0-2.446-1.989-3.235-3.587zM17 18v-1h3v1h-3zm-.407-4.782l-.575-2.085c-.074-.266.083-.542.349-.615s.542.083.615.349l.572 2.075c.189.628.767 1.058 1.434 1.058H21.5c.276 0 .5.224.5.5s-.224.5-.5.5h-2.512c-1.113 0-2.075-.716-2.395-1.782z"/></svg>