<svg xmlns="http://www.w3.org/2000/svg" viewBox="0 0 24 24"><path fill="#5c6671" d="M21.498 14.361c-3.06-.904-5.078-1.362-5.998-1.362-.276 0-.5.224-.5.5 0 .289-.255.648-.681.959-.672.491-1.409.647-1.667.564-2.9-.925-8-8.813-9.72-11.774-.078-.134-.213-.225-.368-.245-.15-.018-.308.033-.418.142C.802 4.489 0 6.414 0 7.499c0 .272.04 1.189.163 1.582C.594 10.462 2 15.366 2 20.499c0 .276.224.5.5.5h2c.276 0 .5-.224.5-.5v-7.004c0-.298.226-.417.294-.445s.308-.107.519.097c.928.9 2.265 2.52 3.366 5.126.701 1.659 2.416 2.736 4.256 2.686 6.537-.188 10.027-.938 10.172-.971.23-.05.393-.253.393-.488v-1.783c0-1.54-1.029-2.919-2.502-3.355zM23 19.087c-1.083.198-4.376.722-9.593.871-1.446.047-2.765-.792-3.307-2.075-1.167-2.761-2.597-4.49-3.591-5.455-.433-.42-1.048-.536-1.604-.301-.558.236-.905.76-.905 1.367v6.504H2.996c-.086-5.089-1.451-9.846-1.878-11.216-.063-.203-.117-.933-.117-1.284 0-.747.531-2.075 1.416-3.161 1.392 2.313 6.547 10.557 9.932 11.638.729.23 1.838-.181 2.561-.709.505-.369.847-.796 1-1.24.979.112 2.826.562 5.305 1.294 1.068.316 1.786 1.279 1.786 2.396v1.371z"/></svg>