<svg xmlns="http://www.w3.org/2000/svg" viewBox="0 0 24 24"><path fill="#5c6671" d="M23.5 18h-2.138l.953-1.667c.227-.396.254-.865.074-1.285s-.536-.725-.98-.835l-.121-.03c-.609-.154-1.244.103-1.577.636l-1.989 3.182h-2.11l2.223-2.501c.339-.381.452-.9.301-1.387s-.536-.853-1.031-.977c-.465-.114-.955.005-1.311.323l-3.643 3.239c-1.246-2.294-3.867-6.448-7.435-8.494.787-1.366 2.226-2.203 3.818-2.203H12.5c.827 0 1.5-.673 1.5-1.5s-.673-1.5-1.5-1.5H7.98c-2.352 0-4.683.777-6.564 2.188C.751 5.688.287 6.409.097 7.206.036 7.289 0 7.391 0 7.501c0 .051.008.1.021.146-.014.11-.021.241-.021.375v.001c0 .358.055.715.163 1.06C.594 10.464 2 15.368 2 20.501c0 .276.224.5.5.5h2c.276 0 .5-.224.5-.5v-7.004c0-.298.226-.417.294-.445s.308-.107.519.097c1.277 1.238 3.043 3.543 4.208 7.494.063.213.258.359.48.359 8.395 0 12.918-.97 13.107-1.012.23-.05.393-.253.393-.488v-1c0-.276-.224-.5-.5-.5zm-2.94-2.652c.103-.165.3-.243.487-.196l.121.03c.136.034.247.128.302.258s.047.274-.023.396L20.211 18h-1.308l1.658-2.652zm-4.101-1.142c.11-.098.261-.134.404-.1.22.055.296.229.318.301s.058.258-.093.428L14.275 18h-1.457c-.05-.104-.116-.24-.191-.39l3.831-3.405zM2.016 5.988C3.725 4.706 5.843 4 7.98 4h4.52c.276 0 .5.224.5.5s-.224.5-.5.5H8.534C6.563 5 4.783 6.046 3.825 7.747c-.831-.374-1.708-.627-2.624-.713.173-.41.452-.773.814-1.045zM23 19.087c-1.25.228-5.445.888-12.129.912-1.226-3.941-3.038-6.287-4.361-7.57-.433-.42-1.047-.536-1.604-.301-.558.236-.905.76-.905 1.367v6.504H2.997c-.086-5.089-1.451-9.846-1.878-11.216-.078-.249-.117-.506-.117-.764 6.415.507 10.997 10.58 11.043 10.685.08.176.254.296.456.296h10.5v.087z"/></svg>