<svg xmlns="http://www.w3.org/2000/svg" viewBox="0 0 24 24"><path fill="#5c6671" d="M23.246 10.676c-.165-2.479-1.692-4.612-3.985-5.567l-1.267-.528c.161-.953-.097-1.863-.747-2.633C16.201.71 14.289 0 12.001 0s-4.2.71-5.246 1.948c-.65.77-.908 1.68-.747 2.633l-1.267.528C2.448 6.064.921 8.197.756 10.676L.002 22c0 1.103.897 2 2 2h2c.6 0 1.133-.271 1.5-.691.367.42.9.691 1.5.691h10c.6 0 1.133-.271 1.5-.691.367.42.9.691 1.5.691h2c1.103 0 2-.897 1.999-2.033l-.753-11.291zM7.518 2.593C8.361 1.596 10.037 1 12 1s3.64.596 4.482 1.593c.398.472.573 1.016.539 1.583l-.329-.137c-.006-.002-.012.001-.017-.001-.009-.004-.016-.011-.026-.014-.08-.025-.16-.023-.238-.008-.018.003-.033.01-.051.015-.081.024-.155.065-.215.126-.005.005-.013.005-.017.01l-1.525 1.696c-.664.736-1.612 1.159-2.603 1.159S10.062 6.6 9.398 5.863L7.872 4.167c-.009-.009-.022-.01-.032-.018-.028-.027-.052-.057-.087-.078-.036-.021-.076-.029-.115-.04-.015-.005-.028-.012-.043-.015-.089-.017-.177-.008-.261.022-.009.003-.018-.001-.027.002l-.329.137c-.034-.567.141-1.111.539-1.583zM22 23h-2c-.552 0-1-.449-1-1V11.5c0-.276-.224-.5-.5-.5s-.5.224-.5.5V22c0 .551-.448 1-1 1H7c-.552 0-1-.449-1-1V11.5c0-.276-.224-.5-.5-.5s-.5.224-.5.5V22c0 .551-.448 1-1 1H2c-.552 0-1-.449-1.001-.967l.753-11.291c.14-2.097 1.432-3.902 3.372-4.711l1.47-.613c-.17.781.009 1.391.18 1.946.116.375.226.729.226 1.135 0 .276.224.5.5.5s.5-.224.5-.5c0-.558-.144-1.021-.271-1.431-.172-.557-.313-1.025-.097-1.675l1.023 1.136c.852.947 2.071 1.49 3.345 1.49s2.493-.543 3.346-1.49l.633-.703c.049.273.11.541.176.793.199.77.298 1.22-.008 1.526-.195.195-.195.512 0 .707.098.098.226.146.354.146s.256-.049.354-.146c.725-.726.482-1.66.269-2.484-.1-.386-.194-.779-.206-1.154l1.96.817c1.94.809 3.232 2.614 3.372 4.711l.752 11.257c0 .551-.448 1-1 1zm-5-2.5c0 .276-.224.5-.5.5-1.76 0-3.221-1.306-3.465-3h-2.07c-.244 1.694-1.705 3-3.465 3-.276 0-.5-.224-.5-.5s.224-.5.5-.5c1.379 0 2.5-1.122 2.5-2.5 0-.276.224-.5.5-.5h3c.276 0 .5.224.5.5 0 1.378 1.121 2.5 2.5 2.5.276 0 .5.224.5.5z"/></svg>