<svg xmlns="http://www.w3.org/2000/svg" viewBox="0 0 24 24"><path fill="#5c6671" d="M22 8h-2V2c0-1.103-.897-2-2-2H6C4.897 0 4 .897 4 2v6H2c-1.103 0-2 .897-2 2v12c0 1.103.897 2 2 2h20c1.103 0 2-.897 2-2V10c0-1.103-.897-2-2-2zM5 2c0-.551.448-1 1-1h12c.552 0 1 .449 1 1v6H5V2zM4 23V13h6v10H4zm19-1c0 .551-.448 1-1 1H11V12.5c0-.276-.224-.5-.5-.5h-7c-.276 0-.5.224-.5.5V23H2c-.552 0-1-.449-1-1V10c0-.551.448-1 1-1h20c.552 0 1 .449 1 1v12zM14 2.5v4c0 .276-.224.5-.5.5s-.5-.224-.5-.5V5h-2v1.5c0 .276-.224.5-.5.5s-.5-.224-.5-.5v-4c0-.276.224-.5.5-.5s.5.224.5.5V4h2V2.5c0-.276.224-.5.5-.5s.5.224.5.5zm6.5 9.5h-7c-.276 0-.5.224-.5.5v7c0 .276.224.5.5.5h7c.276 0 .5-.224.5-.5v-7c0-.276-.224-.5-.5-.5zm-.5 7h-6v-6h6v6z"/></svg>