<svg xmlns="http://www.w3.org/2000/svg" viewBox="0 0 24 24"><path fill="#5c6671" d="M22 7h-5V2c0-1.103-.897-2-2-2H9C7.897 0 7 .897 7 2v5H2C.897 7 0 7.897 0 9v6c0 1.103.897 2 2 2h5v5c0 1.103.897 2 2 2h6c1.103 0 2-.897 2-2v-5h5c1.103 0 2-.897 2-2V9c0-1.103-.897-2-2-2zm1 8c0 .551-.449 1-1 1h-5.5c-.276 0-.5.224-.5.5V22c0 .551-.449 1-1 1H9c-.551 0-1-.449-1-1v-5.5c0-.276-.224-.5-.5-.5H2c-.551 0-1-.449-1-1V9c0-.551.449-1 1-1h5.5c.276 0 .5-.224.5-.5V2c0-.551.449-1 1-1h6c.551 0 1 .449 1 1v5.5c0 .276.224.5.5.5H22c.551 0 1 .449 1 1v6z"/></svg>