<svg xmlns="http://www.w3.org/2000/svg" viewBox="0 0 24 24"><path fill="#5c6671" d="M7.173 17.415c-.092.46-.206 1.032-.843 1.669s-1.21.752-1.67.845c-.411.083-.736.147-1.16.571-.098.098-.226.146-.354.146s-.256-.049-.354-.146c-.195-.195-.195-.512 0-.707.638-.638 1.21-.752 1.67-.845.411-.083.736-.147 1.16-.571s.488-.748.57-1.158c.092-.459.206-1.032.843-1.669s1.21-.752 1.67-.844c.411-.083.736-.147 1.16-.571s.489-.75.572-1.161c.092-.46.207-1.033.845-1.671s1.211-.753 1.671-.846c.412-.083.737-.148 1.161-.572s.49-.75.573-1.162c.093-.46.208-1.033.846-1.671s1.212-.754 1.672-.848c.413-.083.738-.149 1.164-.574s.492-.751.575-1.164c.093-.46.209-1.034.848-1.672.195-.195.512-.195.707 0s.195.512 0 .707c-.425.425-.491.751-.574 1.163-.093.461-.209 1.034-.848 1.673s-1.212.754-1.672.848c-.413.083-.738.149-1.164.574s-.49.75-.573 1.162c-.093.46-.208 1.033-.846 1.671s-1.211.753-1.671.846c-.412.083-.736.148-1.161.572s-.489.75-.572 1.161c-.093.46-.208 1.033-.846 1.671s-1.21.752-1.67.844c-.411.083-.736.147-1.16.571-.422.423-.487.747-.569 1.158zm15.948-9.536C23.688 8.445 24 9.198 24 10s-.312 1.555-.879 2.121l-11 11c-.566.567-1.319.879-2.121.879s-1.555-.312-2.121-.879l-.33-.33C6.714 23.565 5.643 24 4.5 24 2.019 24 0 21.981 0 19.5c0-1.143.435-2.214 1.209-3.049l-.33-.33C.312 15.555 0 14.802 0 14s.312-1.555.879-2.121l11-11c1.132-1.134 3.11-1.134 4.242 0l.33.33C17.286.435 18.357 0 19.5 0 21.981 0 24 2.019 24 4.5c0 1.143-.435 2.214-1.209 3.049l.33.33zM1 14c0 .534.208 1.037.586 1.414l.318.318L15.733 1.903l-.318-.318c-.377-.378-.88-.586-1.414-.586s-1.037.208-1.414.586l-11 11c-.378.377-.586.88-.586 1.414zm5.975 7.975l.231-.231.001-.001L21.975 6.975C22.636 6.313 23 5.434 23 4.5 23 2.57 21.43 1 19.5 1c-.935 0-1.813.364-2.475 1.025l-.231.231-.001.001L2.025 17.025C1.364 17.687 1 18.566 1 19.5 1 21.43 2.57 23 4.5 23c.935 0 1.813-.364 2.475-1.025zM23 10c0-.534-.208-1.037-.586-1.414l-.318-.318L8.267 22.097l.318.318c.755.756 2.073.756 2.828 0l11-11c.378-.377.586-.88.586-1.414z"/></svg>