<svg xmlns="http://www.w3.org/2000/svg" viewBox="0 0 18 24"><path fill="#5c6671" d="M16 20h-.017c-.174-4.271-2.523-5.986-3.952-7.021C11.524 12.612 11 12.232 11 12s.524-.611 1.031-.979C13.46 9.986 15.809 8.27 15.983 4H16c1.103 0 2-.897 2-2s-.897-2-2-2H2C.897 0 0 .897 0 2s.897 2 2 2h.017c.174 4.271 2.523 5.986 3.952 7.021C6.476 11.388 7 11.768 7 12s-.524.611-1.031.979C4.54 14.014 2.191 15.73 2.017 20H2c-1.103 0-2 .897-2 2s.897 2 2 2h14c1.103 0 2-.897 2-2s-.897-2-2-2zM1 2c0-.552.448-1 1-1h14c.552 0 1 .448 1 1s-.448 1-1 1H2c-.552 0-1-.448-1-1zm5.556 11.788C7.363 13.204 8 12.742 8 12s-.638-1.204-1.444-1.788C5.199 9.229 3.176 7.763 3.011 4H14.99c-.165 3.763-2.187 5.229-3.545 6.212-.807.584-1.444 1.046-1.444 1.788s.638 1.204 1.444 1.788c1.357.983 3.38 2.449 3.545 6.212H3.011c.165-3.763 2.187-5.229 3.545-6.212zM16 23H2c-.552 0-1-.448-1-1s.448-1 1-1h14c.552 0 1 .448 1 1s-.448 1-1 1z"/></svg>