<svg xmlns="http://www.w3.org/2000/svg" viewBox="0 0 18 24"><path fill="#5c6671" d="M18 8c0-2.535-1.903-4.642-4.393-4.944-.099-.233-.228-.449-.36-.662l-.001-.002c-.104-.169-.221-.326-.344-.48-.054-.069-.11-.137-.167-.203-.116-.132-.234-.259-.363-.377-.089-.083-.186-.156-.28-.232-.167-.133-.339-.257-.523-.368-.167-.102-.336-.198-.514-.279-.106-.048-.215-.086-.324-.126-.143-.057-.324-.114-.51-.162-.133-.032-.229-.057-.33-.075C9.6.036 9.304 0 9.001 0s-.599.036-.89.09c-.101.018-.198.044-.296.068-.22.055-.401.113-.578.181-.076.029-.185.067-.29.115-.178.081-.347.178-.514.279-.184.111-.355.235-.523.368-.095.076-.191.149-.28.232-.129.119-.247.246-.363.377-.058.066-.113.134-.167.203-.123.155-.24.312-.344.48l-.001.002c-.132.213-.261.429-.36.662C1.905 3.359.002 5.466.002 8.001c0 2.075 1.271 3.857 3.075 4.612l2.641 9.913C5.954 23.394 6.748 24 7.647 24h2.709c.899 0 1.693-.606 1.93-1.477l2.641-9.911c1.804-.756 3.075-2.538 3.075-4.612zm-6.681 14.263c-.118.434-.515.737-.964.737H7.646c-.45 0-.846-.303-.964-.734l-2.491-9.347c.265.044.532.082.809.082h2.5c.107 0 .156.02.164.025.155.195-.203 1.26-.338 1.66C7.151 15.206 7 15.654 7 16c0 1.103.897 2 2 2s2-.897 2-2c0-.347-.151-.795-.326-1.314-.135-.4-.494-1.465-.34-1.659.009-.007.059-.026.166-.026H13c.277 0 .544-.038.809-.082l-2.49 9.345zM13 12h-2.5c-.544 0-.832.24-.977.442-.449.626-.118 1.611.203 2.563.128.381.273.812.273.995 0 .551-.449 1-1 1s-1-.449-1-1c0-.183.146-.614.273-.995.321-.952.652-1.937.203-2.563C8.33 12.24 8.043 12 7.498 12h-2.5c-2.206 0-4-1.794-4-4 0-1.878 1.31-3.458 3.088-3.872-.05.284-.088.573-.088.872 0 .436.069.877.217 1.389.077.265.354.417.62.341.265-.077.418-.354.341-.62-.122-.419-.178-.772-.178-1.111 0-.46.094-.896.238-1.307.001-.002.003-.003.003-.004.068-.195.152-.382.247-.561.015-.029.021-.04.027-.051.086-.157.192-.325.311-.482.005-.007.011-.012.016-.019.324-.426.733-.772 1.191-1.036.091-.052.181-.105.276-.15.101-.048.206-.089.312-.129.13-.048.264-.09.4-.124.087-.023.174-.047.263-.064.234-.043.472-.073.718-.073s.485.03.718.073c.089.017.176.041.263.064.136.035.27.076.4.124.105.04.21.081.312.129.095.045.185.098.276.15.458.264.866.611 1.191 1.036.005.006.011.012.016.019.118.157.225.324.32.5-.003-.007.003.004.009.015.104.197.188.384.256.58.001.002.003.003.003.004.144.412.238.847.238 1.307 0 .339-.057.692-.178 1.111-.077.265.076.542.341.62.042.012.09.019.139.02.217 0 .417-.142.48-.361.148-.512.217-.954.217-1.389 0-.298-.038-.587-.088-.872 1.778.414 3.088 1.993 3.088 3.872 0 2.206-1.794 4-4 4z"/></svg>