<svg xmlns="http://www.w3.org/2000/svg" viewBox="0 0 24 24"><path fill="#5c6671" d="M16.25 0c-2.069 0-4.017.806-5.483 2.273l-8.181 8.313C2.208 10.963 2 11.465 2 12s.208 1.036.586 1.414L5.172 16 .586 20.586C.208 20.964 0 21.466 0 22c0 1.103.897 2 2 2 .534 0 1.036-.208 1.414-.586L8 18.828l2.586 2.586c.386.386.888.581 1.394.581.4 0 .804-.122 1.154-.369.13-.001.254-.054.347-.146l8.25-8.25c1.464-1.464 2.27-3.41 2.27-5.48 0-4.273-3.477-7.75-7.75-7.75zM2.707 22.707c-.189.189-.44.293-.707.293-.552 0-1-.449-1-1 0-.267.104-.518.293-.707l4.586-4.586 1.414 1.414-4.586 4.586zm18.316-10.184l-8.101 8.101c-.104.01-.201.051-.28.119-.401.347-.982.333-1.35-.035l-8-8c-.188-.189-.293-.44-.293-.707s.104-.518.296-.71l8.181-8.313c1.275-1.275 2.971-1.977 4.773-1.977 3.722 0 6.75 3.028 6.75 6.75 0 1.803-.702 3.498-1.977 4.773zM16.75 2.5c0 .276-.224.5-.5.5-1.269 0-2.458.49-3.348 1.379l-7.841 7.969c-.098.1-.228.149-.356.149-.127 0-.253-.048-.351-.144-.197-.194-.199-.51-.006-.707l7.844-7.972c1.082-1.081 2.522-1.675 4.058-1.675.276 0 .5.224.5.5z"/></svg>