<svg xmlns="http://www.w3.org/2000/svg" viewBox="0 0 18 24"><path fill="#5c6671" d="M18 8c0-2.535-1.903-4.642-4.393-4.944-.098-.232-.227-.446-.357-.658-.001-.002-.002-.005-.004-.007-.104-.168-.22-.324-.342-.478-.055-.07-.111-.139-.17-.205-.116-.131-.233-.258-.362-.376-.09-.083-.186-.156-.281-.232-.167-.133-.339-.257-.523-.368-.167-.101-.336-.198-.513-.279-.106-.048-.215-.086-.325-.127-.143-.056-.324-.114-.509-.162-.133-.032-.23-.057-.331-.075-.291-.054-.587-.09-.89-.09s-.599.036-.89.09c-.101.018-.198.044-.297.068-.219.055-.4.113-.577.18-.076.029-.185.067-.291.115-.178.081-.347.178-.513.279-.184.111-.355.235-.523.368-.095.076-.192.149-.281.232-.129.118-.246.245-.362.376-.058.067-.114.135-.169.205-.122.154-.239.31-.343.479-.001.002-.002.004-.004.007-.131.212-.259.426-.357.658C1.903 3.358 0 5.465 0 8c0 1.323.526 2.519 1.368 3.415l7.201 12.337c.09.154.254.248.432.248s.342-.094.432-.248l7.201-12.337c.842-.895 1.368-2.092 1.368-3.415zM4.088 4.128C4.038 4.412 4 4.701 4 5c0 .437.069.878.218 1.39.076.265.351.418.62.34.266-.077.418-.354.341-.62C5.057 5.692 5 5.339 5 5c0-.461.094-.896.238-1.308 0-.001.002-.002.002-.003.068-.194.151-.38.245-.558.007-.013.014-.027.022-.04.095-.174.2-.34.317-.495.006-.008.013-.015.019-.023.324-.425.733-.771 1.19-1.034.09-.051.179-.104.273-.148.102-.049.208-.09.314-.13.13-.048.262-.089.398-.124.088-.023.175-.047.264-.064C8.516 1.03 8.754 1 9 1s.484.03.718.073c.09.017.177.041.264.064.136.035.268.076.398.124.106.04.212.081.314.13.094.044.183.097.273.148.457.263.865.609 1.19 1.033.006.008.014.016.02.024.117.156.222.322.317.495.007.013.015.026.022.04.094.178.177.364.245.558 0 .001.002.002.002.003.144.412.238.848.238 1.308 0 .339-.057.692-.179 1.11-.077.265.075.542.341.62.042.013.09.02.14.02.217 0 .417-.142.48-.36.148-.512.218-.953.218-1.39 0-.299-.038-.587-.088-.872 1.778.414 3.088 1.993 3.088 3.872 0 2.206-1.794 4-4 4h-2.5c-.545 0-.831.24-.977.442-.449.626-.117 1.611.203 2.563.128.381.273.812.273.995 0 .551-.448 1-1 1s-1-.449-1-1c0-.183.146-.614.273-.995.32-.952.652-1.937.203-2.563C8.33 12.24 8.044 12 7.499 12h-2.5c-2.206 0-4-1.794-4-4 0-1.878 1.311-3.458 3.088-3.872zM9 22.508l-5.743-9.839C3.802 12.873 4.385 13 5 13h2.5c.106 0 .156.02.164.025.155.195-.203 1.26-.338 1.66-.175.52-.326.968-.326 1.314 0 1.103.897 2 2 2s2-.897 2-2c0-.347-.151-.795-.326-1.314-.135-.4-.493-1.465-.339-1.659.009-.007.059-.026.165-.026H13c.615 0 1.198-.127 1.743-.331L9 22.508z"/></svg>