<svg xmlns="http://www.w3.org/2000/svg" viewBox="0 0 24 24"><path fill="#5c6671" d="M22 3H2C.897 3 0 3.897 0 5v14c0 1.103.897 2 2 2h20c1.103 0 2-.897 2-2V5c0-1.103-.897-2-2-2zM2 4h20c.552 0 1 .448 1 1v9.293l-4.146-4.146c-.195-.195-.512-.195-.707 0l-3.646 3.646-5.646-5.646c-.195-.195-.512-.195-.707 0l-7.146 7.146V5c0-.552.448-1 1-1zm20 16H2c-.552 0-1-.448-1-1v-2.293l7.5-7.5 7.646 7.646c.098.098.226.146.354.146s.256-.049.354-.146c.195-.195.195-.512 0-.707L15.208 14.5l3.293-3.293 4.5 4.5V19c0 .552-.448 1-1 1zm-8-9c1.654 0 3-1.346 3-3s-1.346-3-3-3-3 1.346-3 3 1.346 3 3 3zm0-5c1.103 0 2 .897 2 2s-.897 2-2 2-2-.897-2-2 .897-2 2-2z"/></svg>