<svg xmlns="http://www.w3.org/2000/svg" viewBox="0 0 24 24"><path fill="#5c6671" d="M12 0C5.383 0 0 5.383 0 12s5.383 12 12 12 12-5.383 12-12S18.617 0 12 0zm0 23C5.935 23 1 18.065 1 12S5.935 1 12 1s11 4.935 11 11-4.935 11-11 11zm1-20c-1.654 0-3 1.346-3 3s1.346 3 3 3 3-1.346 3-3-1.346-3-3-3zm0 5c-1.103 0-2-.897-2-2s.897-2 2-2 2 .897 2 2-.897 2-2 2zm.916 11.007c-.597.103-1.614.096-1.911-.242-.106-.122-.115-.33-.049-.56C12.297 17.448 14 13.613 14 12.5c0-.934-.455-2.5-3.5-2.5-2.503 0-3.326 1.092-3.412 1.217-.113.165-.117.383-.009.553.108.168.304.26.505.224.598-.101 1.614-.094 1.911.242.106.122.115.33.049.56-.341.757-2.044 4.592-2.044 5.705 0 .934.455 2.5 3.5 2.5 2.503 0 3.326-1.092 3.412-1.217.113-.165.117-.383.009-.553-.107-.168-.302-.257-.505-.224zM11 20c-2.5 0-2.5-1.129-2.5-1.5 0-.695 1.199-3.616 1.978-5.353.246-.801.01-1.296-.231-1.571-.209-.238-.494-.392-.804-.489.299-.054.649-.087 1.058-.087 2.5 0 2.5 1.129 2.5 1.5 0 .695-1.199 3.616-1.978 5.353-.246.801-.01 1.296.231 1.571.209.238.494.392.804.489-.299.054-.649.087-1.058.087z"/></svg>