<svg xmlns="http://www.w3.org/2000/svg" viewBox="0 0 24 24"><path fill="#5c6671" d="M22 0h-2.5c-.386 0-.735.15-1.001.391-.249-.224-.569-.371-.925-.389C17.553 0 17.534 0 17.513 0c-.013 0-.026-.001-.039 0-1.353.03-2.443 1.14-2.443 2.499s1.091 2.469 2.443 2.499h.056c.015 0 .029 0 .043-.002.356-.017.676-.164.925-.389.266.24.615.391 1.001.391h1.5v2.5c0 .276.224.5.5.5h.5v10.5c0 2.481-2.019 4.5-4.5 4.5-1.207 0-2.217-.86-2.449-2h.449c1.93 0 3.5-1.57 3.5-3.5v-2.5c.205 0 .388-.124.464-.314l1-2.5c.022-.055.036-.119.036-.186v-2c0-.004-.002-.008-.003-.012.311-.417.503-.928.503-1.488 0-1.378-1.122-2.5-2.5-2.5s-2.5 1.122-2.5 2.5c0 .559.191 1.071.503 1.488 0 .004-.003.008-.003.012v2c0 .067.013.131.037.189l.999 2.497c.076.19.26.314.464.314v2.5c0 1.378-1.122 2.5-2.5 2.5h-2.5v-17.5c0-1.378-1.122-2.5-2.5-2.5h-8c-1.378 0-2.5 1.122-2.5 2.5v19c0 1.378 1.122 2.5 2.5 2.5h8c1.378 0 2.5-1.122 2.5-2.5v-.5h1.051c.245 1.692 1.691 3 3.449 3 3.033 0 5.5-2.467 5.5-5.5v-10.5h.5c.276 0 .5-.224.5-.5v-5.5c0-1.103-.897-2-2-2zm-3.5 7c.827 0 1.5.673 1.5 1.5s-.673 1.5-1.5 1.5S17 9.327 17 8.5 17.673 7 18.5 7zm-1 4.904v-1.116c.307.135.644.212 1 .212s.693-.077 1-.212v1.116L18.662 14h-.323l-.838-2.096zM2.5 1h8c.827 0 1.5.673 1.5 1.5V11H1V2.5C1 1.673 1.673 1 2.5 1zM12 21.5c0 .827-.673 1.5-1.5 1.5h-8c-.827 0-1.5-.673-1.5-1.5V12h11v9.5zM17.511 4c-.818-.011-1.48-.68-1.48-1.5s.662-1.489 1.48-1.5c.271.006.489.228.489.5v2c0 .272-.218.494-.489.5zM23 7h-1V4.5c0-.276-.224-.5-.5-.5h-2c-.276 0-.5-.224-.5-.5v-2c0-.276.224-.5.5-.5H22c.551 0 1 .449 1 1v5zM6.5 13C4.019 13 2 15.019 2 17.5S4.019 22 6.5 22s4.5-2.019 4.5-4.5S8.981 13 6.5 13zm0 8C4.57 21 3 19.43 3 17.5S4.57 14 6.5 14s3.5 1.57 3.5 3.5S8.43 21 6.5 21zm0-6C5.122 15 4 16.122 4 17.5S5.122 20 6.5 20 9 18.878 9 17.5 7.878 15 6.5 15zm0 4c-.827 0-1.5-.673-1.5-1.5S5.673 16 6.5 16s1.5.673 1.5 1.5S7.327 19 6.5 19zM18 8.5c0-.276.224-.5.5-.5s.5.224.5.5-.224.5-.5.5-.5-.224-.5-.5z"/></svg>