<svg xmlns="http://www.w3.org/2000/svg" viewBox="0 0 24 24"><path fill="#5c6671" d="M21.988 3.392C21.937 3.163 21.734 3 21.5 3h-7C8.535 3 4.741 8.796 1.065 15.252c-.002.004-.001.008-.003.012-.003.005-.007.008-.01.012l-1 2c-.078.155-.069.339.022.486s.252.237.425.237h21c.173 0 .334-.09.425-.237s.1-.332.022-.486l-.938-1.876c.049-1.193.955-2.201 2.155-2.364.011-.001.021-.003.032-.005.242-.049.535-.018.694-.218.095-.119.131-.273.098-.421l-2-9zM1.309 17l.5-1h18.382l.5 1H1.309zm18.728-2H2.363C5.755 9.116 9.292 4 14.501 4H21.1l1.792 8.066c-1.492.264-2.64 1.465-2.855 2.934zm-.552-8.621C19.429 6.156 19.23 6 19 6h-4.5c-2.916 0-4.858 2.19-7.422 6.232-.105.166-.104.378.005.542.093.142.251.225.417.225h.001c.027 0 .054-.002.081-.007l12.497-2c.138-.022.261-.101.338-.218.052-.077.082-.172.082-.275 0-.043-.006-.085-.016-.125l-.999-3.997zm-2.996 4.176c.005-.045.013-.09.005-.137-.045-.272-.304-.461-.575-.411l-3 .5c-.272.045-.457.303-.411.575.006.038.023.07.037.105l-4.015.643c2.076-3.14 3.73-4.829 5.971-4.829h4.109l.773 3.092-2.894.463zM3 19.5v1c0 .276-.224.5-.5.5s-.5-.224-.5-.5v-1c0-.276.224-.5.5-.5s.5.224.5.5zm4 0v1c0 .276-.224.5-.5.5s-.5-.224-.5-.5v-1c0-.276.224-.5.5-.5s.5.224.5.5zm4 0v1c0 .276-.224.5-.5.5s-.5-.224-.5-.5v-1c0-.276.224-.5.5-.5s.5.224.5.5zm4 0v1c0 .276-.224.5-.5.5s-.5-.224-.5-.5v-1c0-.276.224-.5.5-.5s.5.224.5.5zm4 0v1c0 .276-.224.5-.5.5s-.5-.224-.5-.5v-1c0-.276.224-.5.5-.5s.5.224.5.5z"/></svg>