<svg xmlns="http://www.w3.org/2000/svg" viewBox="0 0 18 24"><path fill="#5c6671" d="M16 .002H8c-1.103 0-2 .897-2 2v.5c0 .246-.027.486-.075.718l-.718-.718.146-.146c.195-.195.195-.512 0-.707L3.892.188a.35749.35749 0 0 0-.037-.04c-.195-.195-.512-.195-.707 0L.146 3.15c-.195.195-.195.512 0 .707l1.5 1.5c.098.098.226.146.354.146s.256-.049.354-.146l.147-.147.717.717c-.232.049-.472.075-.718.075H2c-1.103 0-2 .897-2 2v13.999c0 1.103.897 2 2 2h14c1.103 0 2-.897 2-2V2.003c0-1.103-.897-2-2-2zm-14.793 3.5L3.5 1.209l.793.793L2 4.295l-.793-.793zm2 1L4.5 3.209l1.023 1.023c-.31.539-.754.983-1.293 1.293L3.206 4.502zM17 22c0 .551-.449 1-1 1H2c-.551 0-1-.449-1-1V8.001c0-.551.449-1 1-1h.5c1.828 0 3.398-1.099 4.101-2.668.001-.002.002-.003.002-.004.25-.56.396-1.175.396-1.827v-.5c0-.551.449-1 1-1h8c.551 0 1 .449 1 1V22zM14.5 2.002h-5c-.827 0-1.5.673-1.5 1.5v1c0 .827.673 1.5 1.5 1.5h5c.827 0 1.5-.673 1.5-1.5v-1c0-.827-.673-1.5-1.5-1.5zm.5 2.5c0 .275-.224.5-.5.5h-5c-.276 0-.5-.224-.5-.5v-1c0-.276.224-.5.5-.5h5c.276 0 .5.224.5.5v1zm-.146 5.353c.195-.195.195-.512 0-.707s-.512-.195-.707 0l-1.853 1.853H5.708L3.855 9.148c-.195-.195-.512-.195-.707 0s-.195.512 0 .707l1.854 1.853v6.585l-1.854 1.854c-.195.195-.195.512 0 .707.098.098.226.146.354.146s.256-.049.354-.146L5.71 19h6.586l1.854 1.854c.098.098.226.146.354.146s.256-.049.354-.146c.195-.195.195-.512 0-.707l-1.854-1.854v-6.585l1.854-1.853zM6 12.001h6v6H6v-6z"/></svg>