<svg xmlns="http://www.w3.org/2000/svg" viewBox="0 0 24 24"><path fill="#5c6671" d="M23.97 9.648c.013-.041.023-.082.025-.124 0-.008.005-.015.005-.024 0-.016-.008-.029-.009-.045-.003-.039-.01-.076-.023-.113a.47496.47496 0 0 0-.032-.073c-.008-.015-.011-.032-.02-.046l-4-6c-.003-.004-.008-.006-.011-.01-.041-.058-.093-.111-.159-.148-.002-.001-.005-.001-.007-.002-.011-.006-.024-.006-.036-.012-.059-.026-.118-.042-.179-.045-.009 0-.016-.006-.025-.006h-15c-.012 0-.023.008-.035.009-.052.004-.102.018-.152.038-.022.009-.044.014-.065.026-.008.005-.018.005-.026.011-.055.037-.099.083-.134.135-.001.002-.003.002-.004.004l-.001.001s-.001.001-.001.002L.083 9.223c-.01.014-.012.031-.02.046-.013.024-.023.047-.032.073-.013.037-.019.074-.023.113-.001.016-.009.029-.009.045 0 .008.004.015.005.024.002.043.012.083.025.124.006.019.008.039.017.057.018.039.045.074.073.108.012.014.019.031.032.044.001.001.002.003.003.005l11.5 11c.01.009.023.013.033.021.014.012.029.019.045.029.074.048.155.079.241.084.005 0 .009.005.015.005H12c.089 0 .174-.032.252-.079.018-.011.033-.019.049-.032.014-.011.031-.016.044-.028l11.5-11c.001-.001.002-.003.003-.005.013-.013.02-.029.032-.044.028-.034.055-.069.073-.108.008-.018.01-.038.017-.057zM4.5 4.401L7.566 9H1.435l3.066-4.599zM9.371 9l2.662-4.565L15.153 9H9.371zm6.009 1l-3.343 8.968L9.184 10h6.196zm-2.433-6h5.695l-2.581 4.556L12.948 4zM8.472 8.556L5.435 4h5.695L8.472 8.556zM8.134 10l2.795 8.784L1.745 10h6.389zm8.314 0h5.807l-9.024 8.631L16.448 10zm.51-1l2.576-4.547L22.565 9h-5.608z"/></svg>