<svg xmlns="http://www.w3.org/2000/svg" viewBox="0 0 24 24"><path fill="#5c6671" d="M22 16h-1.191l-.862-1.724c-.085-.169-.258-.276-.447-.276h-4c-.189 0-.362.107-.447.276L14.191 16H10V8.5c0-.018-.008-.033-.01-.051C11.185 7.757 12 6.478 12 5c0-2.206-1.794-4-4-4S4 2.794 4 5c0 1.478.815 2.757 2.01 3.449-.002.018-.01.033-.01.051V16H2c-1.103 0-2 .897-2 2v3c0 1.103.897 2 2 2h20c1.103 0 2-.897 2-2v-3c0-1.103-.897-2-2-2zm-6.191-1h3.382l.5 1h-4.382l.5-1zM5 5c0-1.654 1.346-3 3-3s3 1.346 3 3-1.346 3-3 3-3-1.346-3-3zm2 3.858c.322.084.653.142 1 .142s.678-.058 1-.142V16H7V8.858zM23 21c0 .551-.449 1-1 1H2c-.551 0-1-.449-1-1v-3c0-.551.449-1 1-1h20c.551 0 1 .449 1 1v3z"/></svg>