<svg xmlns="http://www.w3.org/2000/svg" viewBox="0 0 24 24"><path fill="#5c6671" d="M13.818 7.391c1.271.502 2.289 1.52 2.791 2.791.067.172.225.292.408.313.019.002.038.003.057.003.163 0 .317-.08.412-.216 1.527-2.216 2.697-4.535 3.209-6.361.049-.174 0-.36-.128-.488s-.315-.178-.488-.128c-1.825.511-4.144 1.681-6.361 3.209-.151.104-.233.285-.213.468s.142.341.313.408zm5.616-2.825c-.496 1.346-1.296 2.893-2.292 4.431-.518-.883-1.256-1.622-2.139-2.139 1.538-.997 3.086-1.796 4.431-2.292zm3.749 15.827l-2.697-2.01c-.279-.247-.629-.383-.985-.383-.231 0-.447.057-.643.15l-2.157-2.157c3.602-3.743 7.3-9.772 7.3-13.993 0-1.103-.897-2-2-2-4.221 0-10.25 3.698-13.993 7.3L5.851 5.143c.093-.195.15-.412.15-.642 0-.353-.127-.687-.368-.968L3.612.822c-.384-.521-.971-.82-1.61-.82-1.103 0-2 .897-2 2 0 .631.307 1.233.817 1.607l2.697 2.01c.279.247.629.383.985.383.231 0 .447-.057.643-.15l2.157 2.157c-3.602 3.743-7.3 9.772-7.3 13.993 0 1.103.897 2 2 2 4.221 0 10.25-3.698 13.993-7.3l2.157 2.157c-.093.195-.15.412-.15.642 0 .353.127.687.367.968l2.022 2.712c.384.521.971.82 1.61.82 1.103 0 2-.897 2-2 0-.631-.307-1.233-.817-1.607zM22 1c.552 0 1 .449 1 1 0 3.429-3.052 9.18-7.007 13.286l-.846-.846c.527-.677.853-1.517.853-2.44 0-2.206-1.794-4-4-4-.923 0-1.762.327-2.44.853l-.846-.846C12.877 3.99 18.512 1 22 1zM9.56 10.267l4.173 4.173c-.49.349-1.086.56-1.733.56-1.654 0-3-1.346-3-3 0-.647.211-1.243.56-1.733zm.707-.707C10.757 9.211 11.353 9 12 9c1.654 0 3 1.346 3 3 0 .647-.211 1.243-.56 1.733L10.267 9.56zM4.145 4.842L1.413 2.803c-.262-.192-.412-.485-.412-.803 0-.551.448-1 1-1 .318 0 .611.15.807.415l2.035 2.729c.009.012.017.022.026.032.06.068.132.18.132.323 0 .276-.225.5-.5.5-.144 0-.255-.072-.355-.158zM2 23c-.552 0-1-.449-1-1 0-3.428 3.052-9.179 7.007-13.285l.846.846c-.527.677-.853 1.517-.853 2.44 0 2.206 1.794 4 4 4 .923 0 1.762-.327 2.44-.853l.846.846C11.18 19.949 5.429 23.001 2 23.001zm20 0c-.318 0-.611-.15-.807-.415l-2.036-2.729a.37622.37622 0 0 0-.025-.031c-.06-.069-.133-.182-.133-.325 0-.276.225-.5.5-.5.144 0 .255.072.355.158l2.732 2.039c.262.192.412.485.412.803 0 .551-.448 1-1 1z"/></svg>