<svg xmlns="http://www.w3.org/2000/svg" viewBox="0 0 24 24"><path fill="#5c6671" d="M21.854 20.146c.195.195.195.512 0 .707-.098.098-.226.146-.354.146s-.256-.049-.354-.146l-7-7c-.195-.195-.195-.512 0-.707s.512-.195.707 0l7 7zM24 20.121V22c0 1.103-.897 2-2 2h-1.879c-.526 0-1.042-.214-1.414-.586L18.293 23H16.5c-.276 0-.5-.224-.5-.499l-.003-1.798-.704-.703-1.791.002c-.138 0-.263-.056-.353-.146s-.147-.215-.147-.353L13 17.708l-1.504-1.504-.64.647c-.142.145-.359.189-.545.112-.184-.077-.311-.255-.311-.463v-.76c-.66.173-1.33.26-2 .26-4.411 0-8-3.589-8-8s3.589-8 8-8 8 3.589 8 8c0 .671-.087 1.341-.26 2h.636c.116-.046.191-.013.315.037.22.092.345.326.299.561-.027.134-.105.246-.213.318-.084.074-.294.279-.586.567l7.223 7.224c.373.372.586.888.586 1.414zm-1 0c0-.263-.107-.52-.293-.707l-7.578-7.578c-.094-.094-.146-.222-.146-.354s.053-.26.147-.354c.044-.044.086-.086.128-.127h-.194c-.163 0-.314-.079-.408-.212s-.117-.302-.063-.455c.27-.764.407-1.548.407-2.333 0-3.859-3.14-7-7-7s-7 3.141-7 7 3.14 7 7 7c.783 0 1.568-.137 2.334-.407.153-.053.322-.03.455.063s.211.246.211.408v.218l.138-.14c.094-.095.221-.148.354-.148h.001c.138 0 .263.056.353.146l2.006 2.006c.094.094.146.221.146.353l.001 1.502 1.499-.001c.138 0 .263.056.353.146l.996.996c.094.094.146.221.146.353l.003 1.505h1.501c.138 0 .263.056.353.146l.561.561c.186.187.444.293.707.293h1.879c.551 0 1-.448 1-1v-1.879zM9 6c0 1.654-1.346 3-3 3S3 7.654 3 6s1.346-3 3-3 3 1.346 3 3zM8 6c0-1.103-.897-2-2-2s-2 .897-2 2 .897 2 2 2 2-.897 2-2z"/></svg>