<svg xmlns="http://www.w3.org/2000/svg" viewBox="0 0 24 24"><path fill="#5c6671" d="M22 4H2C.897 4 0 4.897 0 6v12c0 1.103.897 2 2 2h20c1.103 0 2-.897 2-2V6c0-1.103-.897-2-2-2zm1 14c0 .552-.449 1-1 1H2c-.551 0-1-.448-1-1V6c0-.552.449-1 1-1h20c.551 0 1 .448 1 1v12zM20 7c-.551 0-1 .448-1 1s.449 1 1 1 1-.448 1-1-.449-1-1-1zm-.5 1h.5v.001L19.5 8zM16 9c.551 0 1-.448 1-1s-.449-1-1-1-1 .448-1 1 .449 1 1 1zm0-1v.001L15.5 8h.499zm-4 1c.551 0 1-.448 1-1s-.449-1-1-1-1 .448-1 1 .449 1 1 1zm0-1v.001L11.5 8h.499zM8 9c.551 0 1-.448 1-1s-.449-1-1-1-1 .448-1 1 .449 1 1 1zm0-1v.001L7.5 8H8zM4 9c.551 0 1-.448 1-1s-.449-1-1-1-1 .448-1 1 .449 1 1 1zm0-1v.001L3.5 8H4zm16 7c-.551 0-1 .448-1 1s.449 1 1 1 1-.448 1-1-.449-1-1-1zm-.5 1h.5v.001L19.5 16zM4 15c-.551 0-1 .448-1 1s.449 1 1 1 1-.448 1-1-.449-1-1-1zm-.5 1H4v.001L3.5 16zM18 11c-.551 0-1 .448-1 1s.449 1 1 1 1-.448 1-1-.449-1-1-1zm-.5 1h.499v.001l-.5-.001zM14 13c.551 0 1-.448 1-1s-.449-1-1-1-1 .448-1 1 .449 1 1 1zm0-1v.001L13.5 12h.5zm-4 1c.551 0 1-.448 1-1s-.449-1-1-1-1 .448-1 1 .449 1 1 1zm0-1v.001L9.5 12h.499zm-4-1c-.551 0-1 .448-1 1s.449 1 1 1 1-.448 1-1-.449-1-1-1zm-.5 1H6v.001L5.5 12zM17 15.5v1c0 .276-.224.5-.5.5h-9c-.276 0-.5-.224-.5-.5v-1c0-.276.224-.5.5-.5h9c.276 0 .5.224.5.5z"/></svg>