<svg xmlns="http://www.w3.org/2000/svg" viewBox="0 0 18 24"><path fill="#5c6671" d="M7 12.5v8c0 .276-.224.5-.5.5s-.5-.224-.5-.5v-8c0-.276.224-.5.5-.5s.5.224.5.5zm5.197-1.054c-.252.113-.365.409-.251.661l3.273 7.299c.083.186.265.295.457.295.068 0 .138-.014.204-.044.252-.113.365-.409.251-.661l-3.273-7.299c-.112-.251-.407-.364-.661-.251zm5.796 7.019l-.597 3.556c-.029.167-.138.304-.285.372l-.916.41c-.06.028-.13.044-.204.044-.06 0-.121-.011-.178-.033l-2.643-1.006c-.258-.098-.388-.387-.29-.645l.325-.854-.854-.326c-.124-.047-.224-.142-.278-.263-.028-.06-.044-.131-.044-.205 0-.064.012-.125.034-.181l.324-.851-.854-.325c-.258-.098-.388-.387-.29-.645l.325-.854-.854-.325c-.124-.047-.224-.142-.278-.263l-.614-1.369c-.156.071-.339.056-.481-.04s-.228-.257-.223-.429l.007-.265c-.041.011-.08.032-.123.032v6.5c0 .103-.031.199-.085.279l-1.999 2.998c-.091.135-.243.223-.416.223h-1c-.138 0-.263-.056-.353-.146l-2-2c-.195-.195-.195-.512 0-.707l.647-.646-.646-.646c-.195-.195-.195-.512 0-.707l.646-.646-.646-.646c-.195-.195-.195-.512 0-.707l.646-.646-.646-.646c-.091-.09-.146-.215-.146-.353v-1.5c-.177 0-.333-.092-.422-.231-.093-.148-.104-.33-.03-.484l.508-1.061C1.188 11.171.003 9.172.003 7.004c0-3.138 2.422-5.716 5.494-5.974C5.861.403 6.393.004 7.003.004c.655 0 1.242.458 1.609 1.206 2.688-.503 5.409.86 6.559 3.426.888 1.979.625 4.287-.651 6.017l.897.76c.131.111.196.282.172.452s-.134.316-.291.386l2.66 5.931c.041.09.053.19.037.288zM7 1c-.069 0-.139.023-.209.058.187.025.371.057.553.099C7.232 1.065 7.117 1 7 1zm1.241 12.072l-.41-.856c-.027-.056-.045-.121-.049-.19 0-.009-.001-.017-.001-.026 0-.061.011-.12.031-.174.045-.122.139-.225.261-.281C9.851 10.732 11 8.948 11 7c0-.305-.038-.601-.09-.891-.02-.109-.049-.215-.076-.322-.044-.174-.097-.345-.159-.511-.045-.121-.09-.243-.145-.36-.07-.152-.154-.295-.238-.438-.093-.158-.191-.311-.301-.457-.121-.161-.245-.32-.384-.465-.09-.094-.19-.178-.286-.265-.12-.108-.243-.212-.373-.308-.089-.066-.194-.138-.302-.206-.164-.102-.314-.18-.467-.255-.111-.054-.218-.112-.334-.158-.528-.211-1.1-.33-1.699-.348-.089.288-.147.619-.147.985 1.103 0 2 .897 2 2s-.897 2-2 2-2-.897-2-2c0-.744.413-1.387 1.018-1.731-.005-.09-.018-.176-.018-.269 0-.321.041-.622.1-.909-2.328.426-4.1 2.46-4.1 4.909 0 1.948 1.148 3.732 2.926 4.545.122.056.216.158.262.284.019.051.03.109.03.17 0 .078-.018.153-.05.219l-.409.853c.144.088.241.247.241.428v1.793l.854.854c.195.195.195.512 0 .707l-.647.646.646.646c.195.195.195.512 0 .707l-.646.646.646.646c.195.195.195.512 0 .707l-.646.646 1.5 1.5h.525l1.768-2.651v-6.849c0-.181.096-.34.241-.428zM5.23 4.388C5.094 4.559 5 4.766 5 5c0 .551.449 1 1 1 .166 0 .316-.051.454-.123-.539-.223-.975-.763-1.225-1.49zM7 5c0-.494-.367-.887-.839-.967C6.353 4.62 6.687 5 7 5zm9.982 13.449L14.179 12.2c-.074-.166-.051-.35.044-.489l-.725-.613c-.102-.087-.166-.211-.175-.345s.034-.266.123-.367c1.29-1.469 1.608-3.567.811-5.345-.867-1.933-2.812-3.062-4.818-2.951.193.136.377.284.552.442.006.005.011.01.017.016.701.631 1.251 1.423 1.593 2.319.002.006.004.012.007.018.076.2.14.405.195.615.009.036.019.072.028.108.044.184.079.37.105.56.007.047.016.094.022.141.026.227.043.458.043.692 0 .264-.019.526-.053.784-.012.088-.035.172-.05.259-.03.168-.059.337-.103.501-.027.101-.065.197-.098.296-.047.145-.092.291-.15.432-.042.102-.094.2-.142.299-.063.131-.123.262-.195.388-.057.099-.121.193-.184.289-.077.118-.152.237-.237.35-.07.093-.147.181-.223.27-.09.106-.179.211-.276.311-.083.085-.172.165-.26.245-.102.093-.204.184-.312.27-.095.076-.195.146-.295.216-.068.047-.13.102-.2.147.3.035.605-.018.796.18.087.09.141.212.141.348v.013l-.024.949c.167.021.32.126.395.291l.734 1.636 1.128.429c.124.047.224.142.278.263s.059.259.011.382l-.326.855.854.325c.124.047.224.142.278.263.028.06.044.131.044.205 0 .064-.012.125-.034.181l-.324.851.854.325c.258.098.388.387.29.645l-.325.854 1.982.755.479-.215.528-3.143z"/></svg>