<svg xmlns="http://www.w3.org/2000/svg" viewBox="0 0 16 24"><path fill="#5c6671" d="M13.644 2.308C12.101.787 10.028-.072 7.871.004 5.754.037 3.685.959 2.193 2.533S-.074 6.125.006 8.218c.084 2.187 1.1 4.263 2.79 5.696.072.062.164.164.19.306.205 1.096.698 3.706 2.014 4.526v2.257c0 1.103.897 2 2 2h.5c-.276 0-.5.224-.5.5s.224.5.5.5h1c.276 0 .5-.224.5-.5s-.224-.5-.5-.5H9c1.103 0 2-.897 2-2v-2.258c1.315-.82 1.808-3.43 2.014-4.527.021-.113.084-.216.189-.305C14.98 12.406 16 10.22 16 7.914c0-2.12-.837-4.111-2.356-5.607zM9 22.004H7c-.551 0-1-.448-1-1v-2h4v2c0 .552-.449 1-1 1zm-1.61-4L5.301 9.645c.731.421 1.728.859 2.699.859s1.968-.438 2.699-.859L8.61 18.004H7.39zm5.166-4.851c-.28.237-.462.543-.525.884-.614 3.278-1.366 3.967-1.888 3.967h-.502l2.345-9.379c.052-.209-.035-.428-.217-.543-.183-.117-.418-.103-.584.035-.472.386-1.963 1.387-3.184 1.387-1.465 0-3.167-1.373-3.184-1.388-.167-.136-.403-.148-.584-.034s-.269.334-.217.543l2.345 9.379h-.503c-.522 0-1.274-.688-1.888-3.968-.064-.34-.246-.646-.526-.883-1.477-1.253-2.365-3.066-2.438-4.974-.07-1.82.61-3.582 1.914-4.958 1.308-1.38 3.118-2.188 4.967-2.217.038-.001.076-.001.114-.001 1.867 0 3.618.714 4.942 2.018 1.327 1.306 2.058 3.044 2.058 4.895 0 2.011-.891 3.92-2.444 5.237z"/></svg>