<svg xmlns="http://www.w3.org/2000/svg" viewBox="0 0 24 24"><path fill="#5c6671" d="M23.991 18.456c-.003-.034-.01-.065-.02-.098s-.022-.063-.038-.093c-.007-.013-.008-.029-.017-.042L22 15.349V5c0-1.103-.897-2-2-2H4c-1.103 0-2 .897-2 2v10.349L.084 18.223c-.009.013-.01.028-.017.041-.016.03-.028.06-.038.094s-.017.064-.02.098c-.001.015-.009.029-.009.045v.5c0 1.103.897 2 2 2h20c1.103 0 2-.897 2-2v-.5c0-.016-.008-.029-.009-.044zM2.768 16h18.465l1.333 2H14.5c-.138 0-.263.056-.353.146l-.354.354h-3.586l-.354-.354c-.09-.09-.215-.146-.353-.146H1.434l1.333-2zM3 5c0-.551.448-1 1-1h16c.552 0 1 .449 1 1v10H3V5zm19 15H2c-.552 0-1-.449-1-1h8.293l.354.354c.09.09.215.146.353.146h4c.138 0 .263-.056.353-.146l.354-.354H23c0 .551-.448 1-1 1z"/></svg>