<svg xmlns="http://www.w3.org/2000/svg" viewBox="0 0 18 24"><path fill="#5c6671" d="M16 0H2C.897 0 0 .897 0 2v20c0 1.103.897 2 2 2h14c1.103 0 2-.897 2-2V2c0-1.103-.897-2-2-2zM1 6h16v14H1V6zm16-4v3H8V1h8c.551 0 1 .449 1 1zM2 1h5v4H1V2c0-.551.449-1 1-1zm14 22H2c-.551 0-1-.449-1-1v-1h16v1c0 .551-.449 1-1 1zM15 4c.551 0 1-.449 1-1s-.449-1-1-1-1 .449-1 1 .449 1 1 1zm.5-1h-.499v-.001l.5.001zM2 3.5c0-.276.224-.5.5-.5h3c.276 0 .5.224.5.5s-.224.5-.5.5h-3c-.276 0-.5-.224-.5-.5zM9 9c-2.206 0-4 1.794-4 4s1.794 4 4 4 4-1.794 4-4-1.794-4-4-4zm0 7c-1.654 0-3-1.346-3-3s1.346-3 3-3 3 1.346 3 3-1.346 3-3 3zm0-9c-3.309 0-6 2.691-6 6s2.691 6 6 6 6-2.691 6-6-2.691-6-6-6zm0 11c-2.757 0-5-2.243-5-5s2.243-5 5-5 5 2.243 5 5-2.243 5-5 5z"/></svg>