<svg xmlns="http://www.w3.org/2000/svg" viewBox="0 0 16 24"><path fill="#5c6671" d="M8.5 6.5c0 .276-.224.5-.5.5-.551 0-1 .449-1 1v4.5c0 .276-.224.5-.5.5s-.5-.224-.5-.5V8c0-1.103.897-2 2-2 .276 0 .5.224.5.5zm4.5 8c0 .276-.224.5-.5.5H10v4.5c0 .276-.224.5-.5.5s-.5-.224-.5-.5V15H7v8.5c0 .276-.224.5-.5.5s-.5-.224-.5-.5V15H3.5c-.276 0-.5-.224-.5-.5s.224-.5.5-.5H4V8c0-2.206 1.794-4 4-4s4 1.794 4 4v6h.5c.276 0 .5.224.5.5zm-2-.5V8c0-1.654-1.346-3-3-3S5 6.346 5 8v6h6zM8 3c.276 0 .5-.224.5-.5v-2C8.5.224 8.276 0 8 0s-.5.224-.5.5v2c0 .276.224.5.5.5zM2.5 7.5h-2c-.276 0-.5.224-.5.5s.224.5.5.5h2c.276 0 .5-.224.5-.5s-.224-.5-.5-.5zm13 0h-2c-.276 0-.5.224-.5.5s.224.5.5.5h2c.276 0 .5-.224.5-.5s-.224-.5-.5-.5zm-3.611-2.889c.128 0 .256-.049.354-.146l1.414-1.414c.195-.195.195-.512 0-.707s-.512-.195-.707 0l-1.414 1.414c-.195.195-.195.512 0 .707.098.098.226.146.354.146zm-8.132-.147c.098.098.226.146.354.146s.256-.049.354-.146c.195-.195.195-.512 0-.707L3.051 2.343c-.195-.195-.512-.195-.707 0s-.195.512 0 .707l1.414 1.414z"/></svg>