<svg xmlns="http://www.w3.org/2000/svg" viewBox="0 0 18 24"><path fill="#5c6671" d="M15.153 2.432C13.477.861 11.333.021 9.05.01 9.033.008 9.018 0 9 0c-.021 0-.038.009-.058.012-.18.001-.358-.004-.54.008C3.69.325 0 4.398 0 9.292V22c0 1.103.897 2 2 2h4c1.103 0 2-.897 2-2v-1h2v1c0 1.103.897 2 2 2h4c1.103 0 2-.897 2-2V9c0-2.479-1.037-4.872-2.847-6.568zM7 20v-1h4v1H7zm-6-5h5v.5c0 .276.224.5.5.5H7v2h-.5c-.276 0-.5.224-.5.5v.5H1v-4zm5.607-4.813C5.403 9.291 4.82 7.863 5.047 6.37c.245-1.599 1.51-2.946 3.076-3.276 1.216-.257 2.451.035 3.395.799.941.764 1.481 1.897 1.481 3.108 0 1.26-.582 2.418-1.597 3.179-.892.668-1.403 1.639-1.403 2.663v.158h-2v-.16c0-1.026-.508-1.994-1.393-2.654zM11 14v1H7v-1h4zm-3 4v-2h2v2H8zm3.5 0H11v-2h.5c.276 0 .5-.224.5-.5V15h5v4h-5v-.5c0-.276-.224-.5-.5-.5zM17 9v5h-5v-.5c0-.276-.224-.5-.5-.5H11v-.158c0-.707.365-1.385 1.003-1.863C13.273 10.028 14 8.578 14 7c0-1.514-.675-2.93-1.852-3.884-.765-.621-1.684-.986-2.648-1.083V1.022c1.858.111 3.593.849 4.97 2.14C16.102 4.691 17 6.765 17 9zM8.467 1.018c.011-.001.022 0 .033 0v1.009c-.194.018-.389.047-.583.088-1.996.421-3.546 2.07-3.857 4.104-.28 1.838.467 3.666 1.95 4.77.629.469.99 1.145.99 1.852v.16h-.5c-.276 0-.5.224-.5.5v.5H1V9.293C1 4.924 4.28 1.29 8.467 1.019zM7 22c0 .551-.448 1-1 1H2c-.552 0-1-.449-1-1v-2h5v.5c0 .276.224.5.5.5H7v1zm9 1h-4c-.552 0-1-.449-1-1v-1h.5c.276 0 .5-.224.5-.5V20h5v2c0 .551-.448 1-1 1z"/></svg>