<svg xmlns="http://www.w3.org/2000/svg" viewBox="0 0 10 24"><path fill="#5c6671" d="M9.342 7.025l-9 3c-.232.077-.375.312-.335.554s.248.42.493.42c.665 0 1.333.688 1.471 2H1.5c-.276 0-.5.224-.5.5v3.5c0 .737.405 1.375 1 1.722v2.278c0 1.103.897 2 2 2h.5c-.276 0-.5.224-.5.5s.224.5.5.5h1c.276 0 .5-.224.5-.5s-.224-.5-.5-.5H6c1.103 0 2-.897 2-2v-2.278c.595-.347 1-.985 1-1.722v-3.5c0-.276-.224-.5-.5-.5H8v-2.5c0-.276-.224-.5-.5-.5s-.5.224-.5.5v2.5H2.959c-.097-1.147-.496-1.966-1.041-2.445l7.74-2.581c.262-.087.403-.37.316-.632s-.37-.403-.633-.316zM7 21c0 .551-.448 1-1 1H4c-.552 0-1-.449-1-1v-2h4v2zm1-4c0 .551-.448 1-1 1H3c-.552 0-1-.449-1-1v-3h6v3zM9.975 4.341c.087.262-.055.545-.316.632l-9 3c-.053.018-.105.026-.158.026-.209 0-.404-.132-.475-.342-.087-.262.055-.545.316-.632l9-3c.263-.088.545.053.633.316zm-9.949.317c-.087-.262.055-.545.316-.632l9-3c.263-.088.545.054.633.316s-.055.545-.316.632l-9 3C.606 4.992.554 5 .501 5c-.209 0-.404-.132-.475-.342zM.02 1.637c-.076-.265.077-.542.343-.618l3.5-1c.267-.074.543.079.618.344s-.077.542-.343.618l-3.5 1C.592 1.994.545 2 .5 2c-.218 0-.418-.143-.48-.363z"/></svg>