<svg xmlns="http://www.w3.org/2000/svg" viewBox="0 0 24 24"><path fill="#5c6671" d="M22 0H2C.897 0 0 .897 0 2v20c0 1.103.897 2 2 2h17c1.103 0 2-.897 2-2v-1h1c1.103 0 2-.897 2-2V2c0-1.103-.897-2-2-2zM1 17.026c.816.057 1.313.239 1.812.438.657.264 1.338.536 2.684.536s2.027-.272 2.686-.536c.597-.239 1.16-.464 2.313-.464 1.155 0 1.719.226 2.316.464.659.263 1.34.536 2.687.536s2.028-.272 2.688-.536c.5-.2.997-.382 1.815-.439v1.989c-1.025.058-1.615.293-2.187.521-.598.239-1.161.464-2.316.464s-1.718-.226-2.315-.464c-.659-.263-1.34-.536-2.688-.536-1.346 0-2.026.272-2.685.536-.597.239-1.16.464-2.314.464-1.152 0-1.716-.226-2.313-.464-.57-.228-1.159-.463-2.183-.521v-1.989zM2 1h18.269c-.171.294-.269.636-.269 1v14.014c-1.025.058-1.615.293-2.187.521-.598.239-1.161.464-2.316.464s-1.718-.226-2.315-.464c-.659-.263-1.34-.536-2.688-.536-1.346 0-2.026.272-2.685.536-.597.239-1.16.464-2.314.464-1.152 0-1.716-.226-2.313-.464-.57-.228-1.159-.463-2.183-.521V2c0-.551.448-1 1-1zm17 22H2c-.552 0-1-.449-1-1v-1.974c.816.057 1.313.239 1.812.438.657.264 1.338.536 2.684.536s2.027-.272 2.686-.536c.597-.239 1.16-.464 2.313-.464 1.155 0 1.719.226 2.316.464.659.263 1.34.536 2.687.536s2.028-.272 2.688-.536c.5-.2.997-.382 1.815-.439v1.974c0 .551-.448 1-1 1zm4-4c0 .551-.448 1-1 1h-1V2c0-.551.448-1 1-1s1 .449 1 1v17z"/></svg>