<svg xmlns="http://www.w3.org/2000/svg" viewBox="0 0 24 24"><path fill="#5c6671" d="M12 0c-1.103 0-2 .897-2 2s.897 2 2 2 2-.897 2-2-.897-2-2-2zm0 3c-.552 0-1-.448-1-1s.448-1 1-1 1 .448 1 1-.448 1-1 1zm0 17c-1.103 0-2 .897-2 2s.897 2 2 2 2-.897 2-2-.897-2-2-2zm0 3c-.552 0-1-.448-1-1s.448-1 1-1 1 .448 1 1-.448 1-1 1zM3.515 3.515c-.779.779-.779 2.049 0 2.828.39.39.902.585 1.414.585s1.024-.195 1.414-.585c.779-.779.779-2.049 0-2.828s-2.049-.779-2.828 0zm2.121 2.121c-.391.391-1.023.391-1.414 0s-.39-1.024 0-1.414c.195-.195.451-.292.707-.292s.512.097.707.292c.39.39.39 1.024 0 1.414zm12.021 12.021c-.779.779-.779 2.049 0 2.828.39.39.902.585 1.414.585s1.024-.195 1.414-.585c.779-.779.779-2.049 0-2.828s-2.049-.779-2.828 0zm2.121 2.121c-.391.391-1.023.391-1.414 0s-.39-1.024 0-1.414c.195-.195.451-.292.707-.292s.512.097.707.292c.39.39.39 1.024 0 1.414zM4 12c0-1.103-.897-2-2-2s-2 .897-2 2 .897 2 2 2 2-.897 2-2zm-2 1c-.552 0-1-.448-1-1s.448-1 1-1 1 .448 1 1-.448 1-1 1zm20-3c-1.103 0-2 .897-2 2s.897 2 2 2 2-.897 2-2-.897-2-2-2zm0 3c-.552 0-1-.448-1-1s.448-1 1-1 1 .448 1 1-.448 1-1 1zM3.515 17.657c-.779.779-.779 2.049 0 2.828.39.39.902.585 1.414.585s1.024-.195 1.414-.585c.779-.779.779-2.049 0-2.828s-2.049-.779-2.828 0zm2.121 2.121c-.391.391-1.023.391-1.414 0s-.39-1.024 0-1.414c.195-.195.451-.292.707-.292s.512.097.707.292c.39.39.39 1.024 0 1.414zm13.435-12.85c.512 0 1.024-.195 1.414-.585.779-.779.779-2.049 0-2.828s-2.049-.779-2.828 0-.779 2.049 0 2.828c.39.39.902.585 1.414.585zm-.707-2.706c.195-.195.451-.292.707-.292s.512.097.707.292c.39.39.39 1.024 0 1.414s-1.023.391-1.414 0c-.39-.39-.39-1.024 0-1.414z"/></svg>