<svg xmlns="http://www.w3.org/2000/svg" viewBox="0 0 24 24"><path fill="#5c6671" d="M12 0c-1.103 0-2 .897-2 2v3c0 1.103.897 2 2 2s2-.897 2-2V2c0-1.103-.897-2-2-2zm1 5c0 .552-.448 1-1 1s-1-.448-1-1V2c0-.552.448-1 1-1s1 .448 1 1v3zm-1 12c-1.103 0-2 .897-2 2v3c0 1.103.897 2 2 2s2-.897 2-2v-3c0-1.103-.897-2-2-2zm1 5c0 .552-.448 1-1 1s-1-.448-1-1v-3c0-.552.448-1 1-1s1 .448 1 1v3zM6.343 3.515c-.779-.779-2.049-.779-2.828 0s-.779 2.049 0 2.828l2.121 2.122c.391.39.902.584 1.414.584s1.024-.194 1.415-.584c.779-.78.779-2.049 0-2.829L6.343 3.515zm1.415 4.243c-.39.388-1.023.39-1.415 0L4.222 5.636c-.39-.39-.39-1.024 0-1.414.195-.195.451-.292.707-.292s.512.097.707.292l2.122 2.121c.39.39.39 1.024 0 1.415zm10.606 7.777c-.78-.78-2.051-.778-2.829 0-.779.78-.779 2.049 0 2.829l2.122 2.121c.39.39.902.585 1.414.585s1.024-.195 1.414-.585c.779-.779.779-2.049 0-2.828l-2.121-2.122zm1.414 4.243c-.391.391-1.023.391-1.414 0l-2.122-2.121c-.39-.39-.39-1.025 0-1.415.195-.194.451-.292.708-.292s.512.098.707.292l2.121 2.122c.39.39.39 1.024 0 1.414zM7 12c0-1.103-.897-2-2-2H2c-1.103 0-2 .897-2 2s.897 2 2 2h3c1.103 0 2-.897 2-2zm-6 0c0-.552.448-1 1-1h3c.552 0 1 .448 1 1s-.448 1-1 1H2c-.552 0-1-.448-1-1zm21-2h-3c-1.103 0-2 .897-2 2s.897 2 2 2h3c1.103 0 2-.897 2-2s-.897-2-2-2zm0 3h-3c-.552 0-1-.448-1-1s.448-1 1-1h3c.552 0 1 .448 1 1s-.448 1-1 1zM5.636 15.535l-2.121 2.122c-.779.779-.779 2.049 0 2.828.39.39.902.585 1.414.585s1.024-.195 1.414-.585l2.122-2.121c.779-.78.779-2.049 0-2.829-.783-.78-2.052-.778-2.829 0zm2.122 2.122l-2.122 2.121c-.391.391-1.023.391-1.414 0s-.39-1.024 0-1.414l2.121-2.122c.195-.194.451-.292.707-.292s.513.098.708.292c.39.391.39 1.025 0 1.415zm9.191-8.608c.513 0 1.025-.194 1.415-.584l2.121-2.122c.779-.779.779-2.049 0-2.828s-2.049-.779-2.828 0l-2.122 2.121c-.779.78-.779 2.049 0 2.829.391.39.902.584 1.414.584zm-.707-2.706l2.122-2.121c.195-.195.451-.292.707-.292s.512.097.707.292c.39.39.39 1.024 0 1.414l-2.121 2.122c-.39.388-1.023.39-1.415 0-.39-.39-.39-1.025 0-1.415z"/></svg>