<svg xmlns="http://www.w3.org/2000/svg" viewBox="0 0 24 24"><path fill="#5c6671" d="M23.013 6.775c-.551-.499-1.274-.755-2.013-.758V5.5C21 3.57 19.43 2 17.5 2h-11C4.57 2 3 3.57 3 5.5v.518c-.737.004-1.462.259-2.013.758C.36 7.344 0 8.155 0 9.001c0 .86.361 1.657 1 2.227v6.773c0 1.103.897 2 2 2v1.5c0 .276.224.5.5.5h3c.276 0 .5-.224.5-.5v-1.5h10v1.5c0 .276.224.5.5.5h3c.276 0 .5-.224.5-.5v-1.5c1.103 0 2-.897 2-2v-6.773c.639-.57 1-1.366 1-2.227 0-.846-.36-1.657-.987-2.225zM6.5 3h11C18.879 3 20 4.122 20 5.5v.688c-1.161.435-2 1.609-2 2.955V13H6V9.143c0-1.346-.839-2.52-2-2.955V5.5C4 4.122 5.121 3 6.5 3zM6 14h12v1H6v-1zm0 7H4v-1h2v1zm14 0h-2v-1h2v1zm2.18-10.395c-.163.12-.227.321-.18.511V18c0 .551-.448 1-1 1H3c-.552 0-1-.449-1-1v-6.841c.064-.201-.005-.425-.18-.554C1.299 10.221 1 9.636 1 9c0-.564.24-1.104.658-1.483.425-.384.976-.563 1.55-.506C4.213 7.112 5 8.048 5 9.143V15.5c0 .276.224.5.5.5h13c.276 0 .5-.224.5-.5V9.143c0-1.095.787-2.032 1.792-2.132.577-.056 1.125.123 1.55.506.418.379.658.919.658 1.483 0 .636-.299 1.221-.82 1.605z"/></svg>