<svg xmlns="http://www.w3.org/2000/svg" viewBox="0 0 24 24"><path fill="#5c6671" d="M22 5h-4V2c0-1.103-.897-2-2-2H8C6.897 0 6 .897 6 2v3H2C.897 5 0 5.897 0 7v15c0 1.103.897 2 2 2h20c1.103 0 2-.897 2-2V7c0-1.103-.897-2-2-2zM6.5 6H7v6H6V6h.5zM15 5H9V3h6v2zm-7 8v1H5v-1h3zm-1 2v8H6v-8h1zm1 0h.5c.276 0 .5-.224.5-.5v-2c0-.276-.224-.5-.5-.5H8V6h8v6h-.5c-.276 0-.5.224-.5.5v2c0 .276.224.5.5.5h.5v8H8v-8zm9 0h1v8h-1v-8zm-1-1v-1h3v1h-3zm1-2V6h1v6h-1zM7 2c0-.551.449-1 1-1h8c.551 0 1 .449 1 1v3h-1V2.5c0-.276-.224-.5-.5-.5h-7c-.276 0-.5.224-.5.5V5H7V2zM1 22V7c0-.551.449-1 1-1h3v6h-.5c-.276 0-.5.224-.5.5v2c0 .276.224.5.5.5H5v8H2c-.551 0-1-.449-1-1zm22 0c0 .551-.449 1-1 1h-3v-8h.5c.276 0 .5-.224.5-.5v-2c0-.276-.224-.5-.5-.5H19V6h3c.551 0 1 .449 1 1v15z"/></svg>