<svg xmlns="http://www.w3.org/2000/svg" viewBox="0 0 14 24"><path fill="#5c6671" d="M12 4.981h-2V2.889c.58-.203 1-.751 1-1.401C11 .668 10.333 0 9.512 0H4.469c-.821 0-1.488.667-1.488 1.49 0 .655.429 1.207 1.019 1.405v2.086H2c-1.103 0-2 .897-2 2v13.017c0 1.103.897 2 2 2v.502c0 .827.673 1.5 1.5 1.5S5 23.327 5 22.5v-.502h4v.502c0 .827.673 1.5 1.5 1.5s1.5-.673 1.5-1.5v-.502c1.103 0 2-.897 2-2V6.981c0-1.103-.897-2-2-2zM4.469 1h5.043c.269 0 .488.219.488.49 0 .269-.219.488-.488.488H4.469c-.269 0-.488-.219-.488-.49 0-.269.219-.488.488-.488zM5 2.978h4v2.003H5V2.978zM2 5.981h10c.551 0 1 .449 1 1v3.175c-.654.25-2.544.832-6 .832s-5.346-.582-6-.832V6.981c0-.551.449-1 1-1zM4 22.5c0 .276-.224.5-.5.5s-.5-.224-.5-.5v-.502h1v.502zm7 0c0 .276-.224.5-.5.5s-.5-.224-.5-.5v-.502h1v.502zm1-1.502H2c-.551 0-1-.449-1-1v-8.781c.952.314 2.871.77 6 .77s5.048-.456 6-.77v8.781c0 .551-.449 1-1 1zM7 9.985c.551 0 1-.449 1-1.001s-.449-1-1-1-1 .449-1 1 .449 1.001 1 1.001zm.5-1h-.501l.5.001zm3.5 5.506c0 .276-.224.5-.5.5h-7c-.276 0-.5-.224-.5-.5s.224-.5.5-.5h7c.276 0 .5.224.5.5zm0 3.003c0 .276-.224.5-.5.5h-7c-.276 0-.5-.224-.5-.5s.224-.5.5-.5h7c.276 0 .5.224.5.5z"/></svg>