<svg xmlns="http://www.w3.org/2000/svg" viewBox="0 0 24 24"><path fill="#5c6671" d="M23.477 17.514c.01-.366.095-.753.192-1.202.18-.824.403-1.85.307-3.344-.092-1.412-1.355-4.44-2.558-6.702-.924-1.741-3.542-5.074-5.69-5.272-.66-.063-1.227.18-1.636.695-.619.779-.847 2.712-.965 4.867l-.138-.208V.499c0-.276-.224-.5-.5-.5h-.999c-.276 0-.5.224-.5.5v5.882l-.093.185c-.106-2.01-.324-4.01-1.014-4.878-.409-.515-.964-.753-1.636-.696-2.146.198-4.766 3.531-5.69 5.272-1.371 2.582-1.219 3.409-1.049 4.325.045.244-.029.434-.175.775-.174.407-.39.915-.331 1.672.038.507-.207 1.046-.468 1.616-.271.593-.551 1.206-.533 1.859.006.214.004.571.001 1.015-.02 3.468.073 5.608.607 6.282.095.12.239.189.392.189.014 0 .028 0 .042-.002 1.026-.086 2.56-.923 3.68-1.535.412-.225.755-.414.967-.502.251-.105.623-.206 1.055-.321 1.541-.415 3.868-1.04 4.238-3.049.338-1.834.04-4.81.005-5.143-.063-.601-.031-1.723-.004-2.713.024-.843.044-1.628.013-2.129l.94-1.882c.031-.063.049-.131.053-.202.004.091.032.179.083.255l.978 1.469c-.019.552-.034.982-.059 1.194-.144 1.194.249 2.324.596 3.321.229.658.445 1.279.402 1.687-.035.333-.333 3.309.005 5.143.366 1.988 1.827 2.345 2.894 2.605.329.08.64.156.901.266.303.126.811.229 1.454.358 1.132.228 2.683.54 3.438 1.086.081.059.183.095.293.095h.002c.02 0 .04-.001.059-.004.226-.027.425-.142.574-.333.519-.669.344-2.296.041-4.521-.094-.689-.182-1.341-.174-1.629zm-13.479.896c-.255 1.389-2.139 1.895-3.514 2.265-.466.125-.868.233-1.181.364-.232.097-.609.301-1.061.547-.863.471-2.116 1.155-2.961 1.36-.306-1.012-.287-4.268-.28-5.412.003-.459.005-.828-.001-1.048-.012-.422.209-.905.442-1.416.288-.629.614-1.343.555-2.108-.039-.514.104-.849.255-1.203.159-.374.34-.797.23-1.39-.141-.759-.251-1.359.956-3.634C4.547 4.647 6.929 2.119 8.337 1.99c.037-.003.073-.005.108-.005.271 0 .475.104.652.327.668.841.787 3.846.844 5.29.017.417.03.75.049.948.041.42.018 1.265-.008 2.158-.03 1.071-.062 2.179.009 2.846.151 1.436.243 3.569.005 4.857zm12.694-2.311c-.104.477-.202.928-.215 1.388-.01.37.075.997.184 1.791.123.905.394 2.895.235 3.584-.949-.519-2.323-.795-3.455-1.023-.542-.109-1.054-.212-1.266-.3-.334-.14-.698-.229-1.05-.314-1.061-.259-1.898-.463-2.146-1.815-.238-1.288-.146-3.421.005-4.857.066-.629-.174-1.32-.452-2.12-.311-.895-.663-1.908-.548-2.874.027-.228.045-.691.066-1.285.061-1.675.187-5.16.825-5.963.201-.253.437-.351.761-.322 1.409.13 3.791 2.657 4.899 4.745 1.32 2.487 2.371 5.194 2.442 6.298.088 1.354-.11 2.264-.286 3.066z"/></svg>