<svg xmlns="http://www.w3.org/2000/svg" viewBox="0 0 24 24"><path fill="#5c6671" d="M9.676 11.175c-.225 0-.421.029-.725.106l-.08.453.051-.013.087-.022c.13-.035.326-.056.5-.056.283 0 .392.05.392.182 0 .037-.007.064-.022.131-.094-.01-.181-.016-.246-.016-.674 0-1.066.286-1.066.775 0 .325.225.549.551.549.276 0 .486-.078.638-.243l-.015.208h.507l.007-.054.007-.069.015-.102.022-.127.131-.715c.036-.224.044-.299.044-.398 0-.385-.276-.589-.798-.589zm-.305 1.663c-.138 0-.217-.081-.217-.205 0-.203.174-.306.515-.306.044 0 .073.001.138.008-.015.297-.189.503-.436.503zm-.616-2.08l-.479 2.473h-.609l.363-1.902-.834 1.902h-.551l-.102-1.889-.363 1.889h-.551l.472-2.473h.95l.044 1.531.675-1.531h.986zm4.15-1.485h-1.74c.112-.184.235-.372.366-.55h.975c.145.174.278.358.399.55zm.518 1.089h-2.838c.028-.053.127-.267.277-.55h2.34c.084.178.158.361.222.55zm-1.803 2.907c.21 0 .413-.027.617-.081l.101-.504c-.217.088-.413.128-.631.128-.348 0-.529-.119-.529-.352 0-.019 0-.033.007-.063h1.203c.051-.204.073-.348.073-.497 0-.446-.319-.73-.819-.73-.609 0-1.059.508-1.059 1.198 0 .593.355.902 1.037.902zm.014-1.639c.181 0 .283.095.283.259v.103l-.675-.001c.058-.234.196-.361.392-.361zm4.976.175l-.073-.015c-.029-.003-.051-.005-.073-.005-.29 0-.384.216-.602 1.446h-.609l.37-2.011h.551l-.058.305c.188-.238.333-.327.529-.327.023 0 .046.002.068.005-.003.001.019.005.049.012.007.002.015.002.065.022l-.218.568zm-5.137 3.44h1.06c-.16.196-.334.379-.521.55h-.001c-.004.004-.009.007-.013.011-.19-.172-.362-.362-.525-.561zm6.297-4.083c-.725 0-1.197.483-1.197 1.196 0 .51.275.927.965.927.623 0 1.087-.297 1.182-.966.015-.117.015-.125.015-.25 0-.51-.334-.908-.965-.908zm.298 1.14c-.051.313-.333.493-.464.493h-.007c-.213 0-.341-.183-.341-.453 0-.323.188-.689.5-.689.246 0 .333.199.333.409 0 .087-.007.167-.022.24zM22 3H2C.895 3 0 3.895 0 5v14c0 1.105.895 2 2 2h20c1.105 0 2-.895 2-2V5c0-1.105-.895-2-2-2zm1 16c0 .551-.449 1-1 1H2c-.551 0-1-.449-1-1V5c0-.551.449-1 1-1h20c.551 0 1 .449 1 1v14zM15.441 5.866c-1.237 0-2.433.372-3.443 1.058-1.011-.686-2.212-1.057-3.48-1.057C5.158 5.889 2.425 8.64 2.425 12c0 3.382 2.751 6.133 6.133 6.133 1.235 0 2.43-.371 3.44-1.057 1.01.687 2.207 1.058 3.446 1.058 1.638 0 3.178-.639 4.336-1.798 1.149-1.15 1.785-2.675 1.795-4.298 0-.012.001-.026.001-.04v-.001c-.001-3.381-2.752-6.132-6.134-6.131zM20.575 12c.001 2.835-2.296 5.133-5.131 5.134h-.001c-1.325 0-2.534-.502-3.444-1.328-.911.824-2.117 1.326-3.441 1.326-2.833 0-5.133-2.299-5.133-5.133 0-2.822 2.281-5.115 5.1-5.133h.033c1.324 0 2.53.502 3.441 1.326.91-.824 2.118-1.327 3.443-1.327h.001c2.835 0 5.132 2.297 5.133 5.132 0 0-.001.001-.001.003zm-9.787 2.167h2.423c-.088.19-.188.373-.299.55h-1.821c-.111-.177-.214-.359-.303-.55zm4.545-2.948l-.087.489h-.312l-.159.839c-.007.037-.007.065-.007.083 0 .104.066.149.211.149.065 0 .116-.006.159-.019l-.08.446c-.167.046-.297.066-.435.066-.312 0-.479-.157-.479-.442 0-.056.007-.117.015-.18l.036-.198.029-.159.283-1.535h.602l-.087.462h.312zm-1.762-.044c.145 0 .385.018.544.04l-.087.465c-.16-.019-.319-.029-.443-.029-.196 0-.297.055-.297.163 0 .094.029.117.283.219.312.123.435.284.435.56 0 .459-.297.671-.95.671-.08 0-.188-.006-.333-.017-.073-.005-.131-.011-.167-.018l-.138-.025.087-.464c.196.055.363.079.552.079.239 0 .348-.057.348-.181 0-.092-.037-.122-.283-.222-.326-.132-.471-.307-.471-.561 0-.37.24-.68.921-.68z"/></svg>