<svg xmlns="http://www.w3.org/2000/svg" viewBox="0 0 24 24"><path fill="#5c6671" d="M23.854 11.146l-8.491-8.51C13.663.936 11.403-.001 9-.001c-4.962 0-9 4.037-9 9 0 2.403.937 4.663 2.637 6.363l8.51 8.49c.098.098.225.146.353.146s.256-.049.354-.146l3-3c.095-.095.148-.225.146-.359s-.057-.263-.154-.355l-8.674-8.314C5.417 11.078 5.001 10.075 5.001 9c0-2.206 1.794-4 4-4 1.075 0 2.078.416 2.819 1.166l5.877 6.131c.001.001.001.002.002.003s.002.001.003.002l2.438 2.543c.09.094.216.153.355.154.114-.019.264-.052.359-.146l3-3c.195-.195.195-.512 0-.707zM11.5 22.793l-1.795-1.791 2.25-2.249 1.83 1.755-2.285 2.285zM9 4C6.243 4 4 6.243 4 9c0 1.345.521 2.601 1.474 3.54l5.759 5.521-2.236 2.235-5.653-5.64C1.833 13.144 1 11.135 1 9c0-4.411 3.589-8 8-8 2.136 0 4.145.832 5.656 2.344l5.64 5.653-2.236 2.235-5.524-5.763C11.6 4.522 10.345 4 9 4zm11.507 9.785l-1.755-1.831 2.25-2.25 1.791 1.795-2.286 2.285z"/></svg>