<svg xmlns="http://www.w3.org/2000/svg" viewBox="0 0 24 24"><path fill="#5c6671" d="M22 3H2C.897 3 0 3.897 0 5v14c0 1.103.897 2 2 2h20c1.103 0 2-.897 2-2V5c0-1.103-.897-2-2-2zm1 16c0 .551-.449 1-1 1H2c-.551 0-1-.449-1-1V5c0-.551.449-1 1-1h20c.551 0 1 .449 1 1v14zM21.342 6.365L15.329 12l6.013 5.635c.202.189.212.505.023.707-.098.105-.231.158-.365.158-.123 0-.246-.045-.342-.135l-6.061-5.68-.528.494c-.562.529-1.297.821-2.07.821s-1.508-.292-2.071-.821l-.527-.494-6.061 5.68c-.096.09-.219.135-.342.135-.133 0-.267-.053-.365-.158-.189-.201-.179-.518.023-.707L8.669 12 2.656 6.365c-.202-.189-.212-.505-.023-.707s.506-.212.707-.023l7.272 6.814c.755.71 2.019.709 2.771 0l7.273-6.815c.201-.188.52-.178.707.023.189.201.179.518-.023.707z"/></svg>