<svg xmlns="http://www.w3.org/2000/svg" viewBox="0 0 12 24"><path fill="#5c6671" d="M11.528 5.137c.304-.284.472-.671.472-1.091V2.834c0-.712-.504-1.33-1.199-1.469C8.881.98 8.142.601 7.996.436 7.964.19 7.754 0 7.5 0h-3c-.276 0-.48.14-.48.416-.101.153-.819.548-2.82.949-.695.139-1.199.757-1.199 1.469v1.212c0 .419.167.807.472 1.091.459.43 1.528 1.569 1.528 2.863 0 .572-.215 1.037-.512 1.682-.538 1.166-1.274 2.763-1.45 6.234-.027.543.166 1.062.543 1.459S1.491 18 2.038 18h3.463v3.03c-1.222.138-2.356.778-3.1 1.771l-.3.4c-.166.221-.121.534.1.7s.535.122.7-.1l.3-.4c.658-.876 1.704-1.4 2.8-1.4s2.143.523 2.8 1.4l.3.4c.098.131.248.2.4.2.104 0 .209-.033.299-.1.221-.166.266-.479.1-.7l-.3-.4c-.744-.993-1.878-1.632-3.1-1.771V18h3.463c.547 0 1.078-.228 1.456-.625s.57-.916.543-1.459c-.175-3.472-.912-5.068-1.45-6.234C10.215 9.037 10 8.572 10 8c0-1.294 1.069-2.433 1.528-2.863zM11 4.046c0 .139-.055.267-.154.36C10.157 5.051 9 6.374 9 7.999c0 .791.28 1.398.604 2.101.503 1.092 1.193 2.587 1.359 5.866.014.267-.082.522-.269.719-.192.203-.452.314-.731.314H2.037c-.279 0-.539-.111-.731-.314-.187-.197-.283-.452-.269-.719.166-3.279.855-4.774 1.359-5.866C2.72 9.397 3 8.79 3 7.999 3 6.374 1.844 5.05 1.154 4.406c-.1-.093-.154-.221-.154-.36V2.834c0-.237.166-.443.396-.489C3.66 1.891 4.528 1.429 4.839 1h2.322c.312.429 1.179.892 3.443 1.345.229.046.395.251.395.489v1.212z"/></svg>