<svg xmlns="http://www.w3.org/2000/svg" viewBox="0 0 24 24"><path fill="#5c6671" d="M13.999 4.5c0-1.378-1.121-2.5-2.5-2.5s-2.5 1.121-2.5 2.5S10.12 7 11.499 7s2.5-1.121 2.5-2.5zm-4 0c0-.827.673-1.5 1.5-1.5s1.5.673 1.5 1.5-.673 1.5-1.5 1.5-1.5-.673-1.5-1.5zm11.999 2.499c-.138 0-.276.017-.43.052-.036.003-.072.01-.107.021l-5.978 1.907-.898-.229c.773-1.649 1.413-3.298 1.413-4.251 0-2.481-2.018-4.5-4.5-4.5s-4.5 2.018-4.5 4.5c0 .614.269 1.52.665 2.526-.254-.023-.507-.012-.771.074-.029.005-.055.013-.079.022L1.43 9.084c-.015.006-.028.011-.039.017-.822.262-1.392 1.033-1.392 1.898v10.999c0 1.227 1.062 2.221 2.383 1.96.038-.004.076-.014.114-.028.139-.036.275-.088.355-.132l4.677-1.777 7.481 1.916c.019.005.04.008.062.011.15.034.29.05.426.05.271 0 .535-.054.736-.143l6.322-1.936c.029-.009.054-.019.078-.032.806-.27 1.364-1.036 1.364-1.889V8.999c0-1.103-.897-2-2-2zm-6.999 2.888v13.015L8 21.11V8.103l.132.033c1.11 2.485 2.673 5.168 2.937 5.616.089.148.248.246.431.246s.342-.098.429-.244c.211-.359 1.243-2.127 2.214-4.086l.856.218zM11.499 1c1.93 0 3.5 1.57 3.5 3.5 0 1.508-2.232 5.761-3.5 7.998-1.267-2.237-3.5-6.491-3.5-7.998 0-1.93 1.57-3.5 3.5-3.5zM2.447 22.886c-.052.026-.106.048-.207.081l-.015.003c-.084.019-.158.028-.226.028-.551 0-1-.449-1-1V10.999c0-.443.301-.836.732-.957.032-.009.062-.021.092-.037l5.175-1.887v13.035l-4.552 1.732zm20.551-2.888c0 .444-.29.828-.722.954-.027.008-.053.019-.078.031l-6.2 1.902V9.865l5.697-1.817c.02-.003.036-.006.053-.011.096-.025.176-.037.249-.037.551 0 1 .449 1 1v10.999z"/></svg>