<svg xmlns="http://www.w3.org/2000/svg" viewBox="0 0 24 24"><path fill="#5c6671" d="M23.671 5.03l-5.5-2c-.05-.019-.109-.03-.169-.03h-.001c-.004 0-.007.002-.012.002-.049.001-.099.007-.147.024l-5.835 1.945-5.336-1.94c-.055-.02-.113-.03-.17-.03H6.5c-.004 0-.007.002-.012.002-.05.001-.099.007-.147.024l-6 2c-.204.068-.342.259-.342.474v15c0 .166.081.314.207.405.13.094.298.121.452.069l5.835-1.945 5.336 1.94c.055.02.112.03.169.03h.001c.005 0 .008-.002.013-.003.049-.001.098-.007.145-.023l5.835-1.945 5.336 1.94c.051.019.109.03.17.03h.001c.102 0 .201-.031.287-.09.134-.094.213-.247.213-.41v-15c0-.21-.132-.398-.329-.47zM23 12.286l-4.5-1.636V4.214L23 5.85v6.436zm-5.5-1.646l-5 1.666V5.86l5-1.666v6.446zm-6 1.646L7 10.65V4.214l4.5 1.636v6.436zM7 11.714l4.5 1.636v6.436L7 18.15v-6.436zm5.5 1.646l5-1.666v6.446l-5 1.667v-6.446zM6 4.194v6.446l-5 1.667V5.861l5-1.667zM1 13.36l5-1.666v6.446l-5 1.666V13.36zm17.5 4.79v-6.436L23 13.35v6.436l-4.5-1.636zM3.776 16.917c-.085.056-.181.083-.276.083-.162 0-.32-.079-.417-.224-.166-.25-.33-.585-.487-.995-.099-.258.029-.547.287-.646.262-.099.548.03.646.288.129.337.264.614.388.802.152.23.089.54-.141.693zm18.578-2.271c-.195-.195-.512-.195-.707 0l-.204.204c.032-.062.053-.129.057-.202.017-.343.01-.7-.019-1.062-.021-.276-.28-.473-.536-.46-.275.021-.481.262-.46.537.024.32.031.634.017.938-.005.098.026.185.071.264l-.219-.219c-.195-.195-.512-.195-.707 0s-.195.512 0 .707l.646.646-.646.646c-.195.195-.195.512 0 .707.098.098.226.146.354.146s.256-.049.354-.146l.646-.646.646.646c.098.098.226.146.354.146s.256-.049.354-.146c.195-.195.195-.512 0-.707l-.646-.646.646-.646c.195-.195.195-.512 0-.707zm-1.575.426c.06.03.126.049.197.052.006 0 .013.001.021.001h.004c.087 0 .165-.028.236-.068l-.236.236-.221-.221z"/></svg>