<svg xmlns="http://www.w3.org/2000/svg" viewBox="0 0 24 24"><path fill="#5c6671" d="M3.48 4c-.168 0-.325.085-.418.226s-.107.317-.041.473c1.12 2.599 2.244 4.302 7.466 4.302.276 0 .5-.224.5-.5 0-4.5-5.454-4.5-7.507-4.5zm.772 1.011c3.703.107 5.458 1.022 5.704 2.982-3.93-.1-4.937-1.336-5.704-2.982zM20.521 4c-2.053 0-7.507 0-7.507 4.5 0 .276.224.5.5.5 5.222 0 6.346-1.703 7.466-4.302.066-.155.051-.332-.041-.473s-.25-.226-.418-.226zm-6.477 3.993c.246-1.96 2.001-2.875 5.704-2.982-.768 1.646-1.774 2.883-5.704 2.982zm9.953-5.954c.011-.534-.186-1.04-.56-1.426-.382-.395-.893-.612-1.44-.612h-2.978c-.978 0-1.918.426-2.913.876-1.165.526-2.484 1.124-4.095 1.124h-.023c-1.61 0-2.931-.598-4.095-1.124C6.898.427 5.957.001 4.981.001H2.002C1.454.001.943.219.562.613c-.38.393-.579.908-.562 1.451.257 7.656 2.574 8.755 6.334 9.914 1.979.61 3.042 1.118 3.745 1.455.715.342 1.187.567 1.932.567.722 0 1.193-.226 1.908-.567.703-.337 1.766-.845 3.745-1.455 2.448-.755 4.28-1.496 5.334-4.024v15.547c0 .276.224.5.5.5s.5-.224.5-.5V2.048c0-.003-.002-.005-.002-.008zm-6.627 8.983c-2.049.631-3.152 1.159-3.882 1.508-.674.322-.981.47-1.5.47-.495 0-.803-.147-1.477-.47-.729-.349-1.833-.877-3.882-1.508C3.091 9.931 1.234 9.036 1 2.03c-.01-.27.09-.526.28-.723.191-.198.448-.308.722-.308h2.979c.762 0 1.566.364 2.5.787 1.257.568 2.681 1.213 4.507 1.213h.023c1.825 0 3.25-.645 4.507-1.213.934-.423 1.739-.787 2.501-.787h2.978c.273 0 .53.109.722.308.19.196.29.453.28.723-.233 7.006-2.091 7.901-5.629 8.992z"/></svg>