<svg xmlns="http://www.w3.org/2000/svg" viewBox="0 0 24 24"><path fill="#5c6671" d="M7.316 11.138c-.376 0-.664.121-.664.121l-.08.472s.238-.097.597-.097c.204 0 .353.023.353.189 0 .101-.018.138-.018.138s-.161-.013-.235-.013c-.474 0-.972.202-.972.812 0 .481.326.591.529.591.387 0 .554-.251.562-.251l-.018.21h.483l.215-1.509c0-.641-.559-.662-.753-.662zm-.271 1.753c-.17 0-.215-.13-.215-.207 0-.15.081-.33.483-.33.094 0 .104.01.119.013.011.092-.058.525-.388.525zm1.712-1.068c0 .274.653.139.653.82 0 .67-.596.697-.788.697h-.041c-.46 0-.602-.063-.615-.067l.073-.48c.01 0 .236.084.487.084.148 0 .34-.015.34-.191 0-.265-.686-.201-.686-.829 0-.554.411-.716.817-.716.313 0 .506.043.506.043l-.069.484s-.297-.024-.374-.024c-.195 0-.302.043-.302.179zm1.815-.633l-.07.516h-.29l-.154.951c-.012.075.009.177.2.177.049 0 .104-.016.141-.016l-.069.466c-.055.015-.211.071-.411.072h-.007c-.252 0-.43-.144-.43-.465 0-.217.311-2.008.324-2.02h.548l-.056.32h.274zm.879 2.163c.402 0 .579-.09.579-.09l.097-.528s-.306.135-.582.135c-.588 0-.485-.439-.485-.439h1.114s.072-.355.072-.5c0-.361-.18-.802-.781-.802-.551 0-.959.594-.959 1.265 0 .775.511.959.947.959zm.015-1.733c.309 0 .252.348.252.375h-.608c0-.036.058-.375.356-.375zm1.443-2.355h-1.745c.112-.185.235-.374.367-.551h.978c.145.175.279.359.4.551zm-6.415 1.436l-.432 2.61h-.561l.312-1.968-.704 1.968h-.378l-.049-1.968-.333 1.968H3.82l.438-2.61h.8l.028 1.602.54-1.602h.868zm6.934-.344h-2.846c.028-.053.128-.268.277-.552h2.347c.084.178.158.362.222.552zm4.481 2.096c0 .449.223.889.679.889.329 0 .51-.229.51-.229l-.024.196h.533l.419-2.607-.55.001-.118.733s-.206-.285-.529-.285c-.503 0-.921.606-.921 1.301zm1.313-.319c0 .289-.143.676-.44.676-.197 0-.29-.166-.29-.425 0-.425.191-.705.432-.705.197 0 .298.136.298.455zm-3.77-6.283c-1.241 0-2.44.373-3.453 1.062-1.014-.689-2.219-1.061-3.491-1.061C5.14 5.874 2.399 8.632 2.399 12c0 3.39 2.758 6.148 6.148 6.148 1.239 0 2.438-.372 3.451-1.061 1.013.69 2.213 1.062 3.456 1.062 1.642 0 3.186-.64 4.347-1.802 1.152-1.152 1.79-2.681 1.799-4.309.001-.012.001-.026.001-.04v-.002c-.001-3.39-2.759-6.147-6.15-6.147zM20.601 12c.001 2.843-2.303 5.149-5.146 5.149h-.001c-1.329 0-2.541-.504-3.454-1.331-.913.826-2.124 1.33-3.451 1.33-2.842 0-5.148-2.306-5.148-5.148 0-2.831 2.288-5.13 5.115-5.148h.033c1.328 0 2.538.504 3.451 1.33.913-.827 2.124-1.331 3.453-1.331h.001c2.843 0 5.147 2.304 5.148 5.147-.001.001-.001.001-.001.003zm-4.4-.862c-.376 0-.664.121-.664.121l-.08.472s.238-.097.597-.097c.204 0 .354.023.354.189 0 .101-.019.138-.019.138s-.161-.013-.236-.013c-.474 0-.971.202-.971.812 0 .481.327.591.529.591.386 0 .553-.251.562-.251l-.018.21h.482l.215-1.509c.001-.641-.558-.662-.752-.662zm-.27 1.753c-.171 0-.215-.13-.215-.207 0-.15.081-.33.483-.33.093 0 .103.01.119.013.01.092-.058.525-.388.525zm2.034-1.085c-.03-.011-.058-.016-.085-.016-.301 0-.338.69-.485 1.525h-.563l.342-2.125h.511l-.049.308s.182-.335.428-.335c.071 0 .105.007.105.007-.073.148-.137.284-.205.635zM22 3H2C.895 3 0 3.895 0 5v14c0 1.105.895 2 2 2h20c1.105 0 2-.895 2-2V5c0-1.105-.895-2-2-2zm1 16c0 .551-.449 1-1 1H2c-.551 0-1-.449-1-1V5c0-.551.449-1 1-1h20c.551 0 1 .449 1 1v14zm-9.433-7.829c-.073.148-.137.284-.204.636-.03-.011-.059-.016-.085-.016-.301 0-.338.69-.485 1.525h-.563l.342-2.125h.51l-.049.308s.182-.335.427-.335h.01c.065 0 .096.006.096.006zm-2.782 3.003h2.43c-.089.19-.189.374-.3.551h-1.827c-.111-.178-.215-.36-.304-.551zm3.796-1.354c.185 0 .453-.135.453-.135l-.098.598s-.295.075-.479.075c-.654 0-.986-.451-.986-1.135 0-1.031.615-1.58 1.248-1.58.286 0 .617.134.617.134l-.089.581s-.224-.157-.503-.157c-.373 0-.708.356-.708 1.003 0 .319.156.615.545.615zm-3.109 2.436h1.063c-.16.196-.335.38-.523.551h-.001c-.004.004-.009.007-.013.011-.191-.172-.363-.363-.526-.563z"/></svg>