<svg xmlns="http://www.w3.org/2000/svg" viewBox="0 0 18 24"><path fill="#5c6671" d="M12 12.618L17.947.723c.078-.155.069-.339-.022-.486S17.673 0 17.5 0h-5c-.189 0-.362.107-.447.276L9 6.381 5.947.276C5.862.107 5.689 0 5.5 0h-5C.327 0 .166.09.075.237s-.1.332-.022.486L6 12.618V15c0 .008.004.014.004.022C4.794 15.935 4 17.371 4 19c0 2.757 2.243 5 5 5s5-2.243 5-5c0-1.629-.795-3.065-2.004-3.978 0-.008.004-.014.004-.022v-2.382zM12.809 1h3.882L11.5 11.382 9.559 7.5l3.25-6.5zM5.191 1l5.5 11H6.809l-5.5-11h3.882zM13 19c0 2.206-1.794 4-4 4s-4-1.794-4-4 1.794-4 4-4 4 1.794 4 4zm-4-5c-.712 0-1.386.154-2 .424V13h4v1.424C10.386 14.155 9.712 14 9 14zm0 2c-1.654 0-3 1.346-3 3s1.346 3 3 3 3-1.346 3-3-1.346-3-3-3zm0 5c-1.103 0-2-.897-2-2s.897-2 2-2 2 .897 2 2-.897 2-2 2z"/></svg>