<svg xmlns="http://www.w3.org/2000/svg" viewBox="0 0 24 24"><path fill="#5c6671" d="M10.429 21.243c.143.237.065.544-.172.686-.477.286-.731.82-.757 1.588-.01.27-.231.483-.5.483h-.017c-.276-.009-.492-.24-.483-.516.047-1.406.702-2.087 1.243-2.412.235-.141.544-.066.686.171zM24 5.498c.001.147-.063.288-.177.383-.1.085-2.494 2.041-10.354 2.117l-.398 6.361c1.334.464 3.178 1.163 3.36 2.548.127.957-.577 1.94-2.152 3.007-.078.054-.175.086-.28.086-.16 0-.317-.077-.414-.22-.154-.229-.095-.54.134-.694 1.179-.799 1.791-1.526 1.722-2.048-.095-.721-1.439-1.283-2.434-1.641l-.301 4.815c3.153 1.172 2.802 3.286 2.785 3.381-.045.24-.255.408-.49.408-.033 0-.065-.003-.096-.009-.268-.05-.447-.311-.396-.583.007-.05.159-1.282-1.868-2.146l-.142 2.269c-.017.264-.235.469-.499.469s-.482-.205-.499-.469l-.17-2.722c-2.46-.8-3.735-1.74-3.861-2.872-.111-.996.658-1.962 2.286-2.874.239-.134.545-.049.681.192s.049.546-.192.681c-1.191.666-1.841 1.355-1.781 1.89.035.309.397 1.07 2.801 1.91l-.318-5.081c-1.437-.553-4.042-1.756-4.398-3.325-.096-.424-.067-1.062.609-1.696.848-.792 2.258-.75 2.816-.159.312.329.393.885-.129 1.385-.337.324-.334.599-.302.777.09.51.637 1.11 1.315 1.615l-.328-5.255C2.671 7.923.276 5.966.176 5.881c-.113-.095-.178-.236-.177-.383s.066-.287.18-.382l4.668-3.89C5.271.873 5.81.714 6.353.779c.549.064 1.056.358 1.39.805.455.609 1.095 1.275 1.912 1.756-.095-.264-.155-.544-.155-.839 0-1.378 1.121-2.5 2.5-2.5s2.5 1.122 2.5 2.5c0 .296-.061.576-.155.839.817-.481 1.457-1.147 1.912-1.756.334-.447.841-.741 1.39-.805.54-.065 1.081.093 1.506.447l4.668 3.89c.113.095.179.234.18.382zm-14.824 4.62c-.074-.034-.198-.071-.368-.079-.02-.001-.042-.002-.066-.002h-.004c-.344 0-.675.12-.896.328-.359.336-.354.586-.317.745.095.419.576.894 1.26 1.352-.107-.209-.186-.426-.226-.649-.076-.43-.034-1.069.596-1.673l.021-.021zM12 4c.827 0 1.5-.673 1.5-1.5S12.827 1 12 1s-1.5.673-1.5 1.5S11.173 4 12 4zm0 11.484l.027-.437a1.2966 1.2966 0 0 1-.056-.022l.029.459zM22.647 5.44l-4.135-3.446c-.21-.176-.479-.256-.748-.223-.282.033-.533.179-.706.411C16.097 3.468 14.439 5 12 5S7.903 3.468 6.942 2.182c-.173-.231-.424-.377-.706-.411-.268-.036-.538.046-.748.223l-4.13 3.441C2.423 5.971 5.22 7 11 7c.264 0 .482.205.499.469l.402 6.427c.065.033.129.065.193.094l.408-6.521c.017-.264.235-.469.499-.469 5.833 0 8.598-1.023 9.646-1.56zm-5.785 4.206c.719.719.743 1.391.637 1.827-.344 1.41-2.456 2.22-3.348 2.503-.05.016-.101.023-.151.023-.171 0-.335-.088-.427-.24-.12-.197-.09-.45.073-.613 1.061-1.061 1.184-1.618.509-2.293-.22-.219-.341-.457-.359-.706-.021-.26.076-.511.271-.707.288-.288.771-.454 1.321-.42.574.026 1.097.248 1.474.625zm-.707.708c-.226-.225-.562-.347-.94-.333-.186.009-.316.053-.387.091.01.01.021.022.034.036.781.781.815 1.546.578 2.192.605-.354.999-.742 1.087-1.102.024-.102.1-.411-.372-.883z"/></svg>