<svg xmlns="http://www.w3.org/2000/svg" viewBox="0 0 24 24"><path fill="#5c6671" d="M23.565 4.614C20.426 1.638 16.319 0 12 0S3.572 1.639.424 4.624C.151 4.897 0 5.265 0 5.658c0 .397.158.775.424 1.025L2.8 9.06c.546.547 1.539.531 2.044.024.747-.689 1.565-1.26 2.429-1.691.536-.26.728-.894.728-1.399V3.366c1.273-.343 2.724-.374 4-.374 1.351 0 2.763.031 4 .371v2.631c0 .664.268 1.191.711 1.406.904.452 1.726 1.021 2.439 1.689.271.258.641.406 1.014.406.395 0 .762-.151 1.034-.424l2.377-2.377c.273-.273.425-.641.425-1.035s-.15-.76-.435-1.043zm-.697 1.371L20.49 8.363c-.163.165-.469.173-.654-.003-.786-.736-1.688-1.36-2.683-1.858-.062-.03-.153-.212-.153-.509V2.992c0-.215-.138-.406-.342-.475-1.456-.485-3.1-.525-4.658-.525-1.47 0-3.163.041-4.654.524-.206.067-.346.259-.346.476v3.001c0 .274-.095.466-.169.502-.953.477-1.85 1.1-2.681 1.868-.154.156-.473.16-.643-.01L1.119 5.965c-.076-.072-.12-.184-.12-.308 0-.126.047-.243.121-.318C4.073 2.541 7.936.999 11.999.999s7.925 1.542 10.868 4.331c.085.085.132.201.132.327s-.047.242-.132.327zm-1.657 8.52l-4.879-5.798c-.337-.401-.816-.639-1.332-.691V6.493c0-.276-.224-.5-.5-.5s-.5.224-.5.5v1.501h-4V6.493c0-.276-.224-.5-.5-.5s-.5.224-.5.5v1.523c-.516.051-.995.289-1.333.691L2.79 14.503c-.134.157-.239.323-.314.491-.315.709-.476 1.462-.476 2.239v4.766c0 1.103.897 2 2 2h16c1.103 0 2-.897 2-2v-4.766c0-.775-.16-1.529-.477-2.238-.075-.169-.18-.334-.312-.49zM21 22c0 .552-.448 1-1 1H4c-.552 0-1-.449-1-1v-4.766c0-.636.131-1.252.39-1.833.036-.082.091-.166.164-.252l4.879-5.798c.19-.226.469-.356.765-.356h5.604c.296 0 .574.13.765.356l4.879 5.798c.001 0 .001.001.002.002.071.084.126.168.162.251.26.581.391 1.198.391 1.832V22zm-4.5-8.003H14v-2.501c0-.276-.224-.5-.5-.5h-3c-.276 0-.5.224-.5.5v2.501H7.5c-.276 0-.5.224-.5.5v3.001c0 .276.224.5.5.5H10v2.501c0 .276.224.5.5.5h3c.276 0 .5-.224.5-.5v-2.501h2.5c.276 0 .5-.224.5-.5v-3.001c0-.276-.224-.5-.5-.5zm-.5 3.001h-2.5c-.276 0-.5.224-.5.5v2.501h-2v-2.501c0-.276-.224-.5-.5-.5H8v-2.001h2.5c.276 0 .5-.224.5-.5v-2.501h2v2.501c0 .276.224.5.5.5H16v2.001z"/></svg>