<svg xmlns="http://www.w3.org/2000/svg" viewBox="0 0 24 24"><path fill="#5c6671" d="M22.785 7.048l.647-.647c.378-.378.586-.881.586-1.415s-.208-1.037-.586-1.415L21.471 1.61c-.108-.108-.26-.159-.409-.144-.044.005-.086.015-.046.018-.276 0-.5-.224-.51-.414.009-.03.024-.105.027-.136.014-.153-.044-.305-.157-.41-.769-.718-2.041-.689-2.776.046L.587 17.583c-.378.378-.586.881-.586 1.415 0 .504.192.988.54 1.361.106.113.309.151.461.14.276 0 .5.224.509.42-.008.027-.023.099-.026.127-.002.016-.003.036-.003.055 0 .138.056.264.147.354l1.961 1.961c.378.378.881.586 1.415.586s1.037-.208 1.415-.586l.647-.647 1.087 1.087c.098.098.226.147.354.147s.256-.049.354-.147l5.004-5.004c.195-.195.195-.512 0-.708l-1.087-1.087.794-.794 1.087 1.087c.098.098.226.147.354.147s.256-.049.354-.147l8.506-8.506c.195-.195.195-.512 0-.708l-1.087-1.087zM5.711 22.706c-.378.378-1.037.378-1.415 0L2.499 20.91c-.043-.74-.624-1.337-1.357-1.406C1.05 19.35 1 19.176 1 18.997c0-.267.104-.518.293-.708L18.306 1.276c.316-.316.831-.382 1.215-.151.069.732.667 1.314 1.406 1.357l1.796 1.797c.189.189.293.44.293.708s-.104.518-.293.708L5.71 22.708zm7.092-4.21l-4.296 4.296-.733-.733 4.296-4.296.733.733zm2.208-2.209l-.733-.733 7.799-7.799.733.733-7.799 7.799zM8.36 17.642l-2.001-2.001c-.195-.195-.512-.195-.708 0L2.68 18.612c-.069.055-.125.128-.157.211-.136.352-.172.447 2.146 2.546.095.086.215.129.336.129.138 0 .263-.056.354-.147l3.002-3.002c.195-.195.195-.512 0-.708zm-3.372 2.664c-.514-.472-1.029-.962-1.324-1.264l2.341-2.341 1.294 1.294-2.31 2.31zm4.017-3.274c.095.086.215.129.336.129.138 0 .263-.056.354-.147l3.002-3.002c.195-.195.195-.512 0-.708l-2.001-2.001c-.195-.195-.512-.195-.708 0l-2.971 2.971c-.069.055-.125.128-.157.211-.136.352-.173.447 2.146 2.546zm1.336-4.667l1.294 1.294-2.31 2.31c-.514-.472-1.029-.962-1.324-1.264l2.341-2.341zm3 .331c.095.086.215.129.336.129.128 0 .257-.049.354-.147l3.002-3.002c.195-.195.195-.512 0-.708l-2.001-2.001c-.195-.195-.512-.195-.708 0l-2.971 2.971c-.069.055-.125.128-.157.211-.136.352-.172.447 2.146 2.546zm1.337-4.667l1.294 1.294-2.31 2.31c-.513-.472-1.029-.962-1.324-1.264l2.341-2.341zm3 .33c.095.086.215.129.336.129.138 0 .263-.056.354-.147l3.002-3.002c.195-.195.195-.512 0-.708L19.369 2.63c-.195-.195-.512-.195-.708 0L15.69 5.601c-.069.055-.125.128-.157.211-.136.352-.173.447 2.146 2.546zm1.336-4.667l1.294 1.294-2.31 2.31c-.514-.472-1.029-.962-1.324-1.264l2.341-2.341z"/></svg>