<svg xmlns="http://www.w3.org/2000/svg" viewBox="0 0 24 24"><path fill="#5c6671" d="M21.907 8.275c.057-.25.093-.508.093-.775 0-.678-.202-1.305-.537-1.842l.097-.097c.283-.283.439-.66.439-1.061s-.156-.778-.439-1.061l-.099-.099c.335-.363.538-.835.538-1.34 0-1.103-.897-2-2-2-.505 0-.977.203-1.34.538L18.56.439c-.564-.566-1.554-.567-2.122 0l-8 8c-.283.283-.439.66-.439 1.061s.156.776.439 1.061l.146.146-.939.939c-.195.195-.195.512 0 .707l2 2c.098.098.226.146.354.146s.256-.049.354-.146l.939-.939.146.146c.283.283.66.439 1.061.439s.778-.156 1.061-.439l3.098-3.097c.536.335 1.164.537 1.842.537.15 0 .293-.026.439-.044C19.625 11.88 20 12.924 20 14c0 3.309-3.364 6-7.5 6-1.494 0-2.912-.352-4.126-1H11.5c.276 0 .5-.224.5-.5v-2c0-.276-.224-.5-.5-.5H.5c-.276 0-.5.224-.5.5v2c0 .276.224.5.5.5h2.057c.85 1.273 2.029 2.39 3.458 3.241C6.134 23.23 6.979 24 8 24h11c1.103 0 2-.897 2-2v-1.276c1.937-1.848 3-4.228 3-6.724 0-2.062-.727-4.034-2.093-5.725zM20 1c.551 0 1 .449 1 1 0 .237-.087.463-.238.64L19.36 1.238c.177-.151.403-.238.64-.238zM10 13.293L8.707 12l.586-.586 1.293 1.293-.586.586zm2.853-.439c-.188.188-.517.188-.707 0l-3-3c-.095-.095-.147-.221-.147-.354s.052-.259.146-.354l8-8c.19-.188.52-.188.707 0l3 3c.094.094.146.219.146.353s-.052.259-.146.354l-.04.04c-.618-.549-1.423-.894-2.313-.894-1.93 0-3.5 1.57-3.5 3.5 0 .89.345 1.695.894 2.313l-3.041 3.041zM16 7.5C16 6.122 17.122 5 18.5 5S21 6.122 21 7.5c0 .255-.05.496-.121.727-.001.002-.002.003-.003.005-.193.625-.623 1.139-1.177 1.447-.021.012-.042.023-.063.034-.181.094-.373.17-.576.217-.001 0-.002.001-.003.001-.18.041-.365.068-.558.068-1.378 0-2.5-1.122-2.5-2.5zM1 17h10v1H1v-1zm19.162 3.138c-.1.092-.162.223-.162.368v1.493c0 .551-.449 1-1 1H8c-.551 0-1-.449-1-1.055 0-.18-.097-.347-.254-.436-1.184-.669-2.197-1.526-2.972-2.509h2.782c1.599 1.291 3.702 2 5.944 2 4.687 0 8.5-3.14 8.5-7 0-1.173-.352-2.313-1.025-3.333.073-.034.141-.079.211-.119.185-.103.358-.22.521-.354.046-.038.094-.073.137-.113.1-.091.192-.188.281-.29.03-.034.058-.07.087-.105.091-.113.178-.226.255-.35C22.473 10.745 23 12.343 23 13.999c0 2.281-1.008 4.461-2.838 6.138z"/></svg>