<svg xmlns="http://www.w3.org/2000/svg" viewBox="0 0 16 24"><path fill="#5c6671" d="M8 16c2.757 0 5-2.243 5-5V5c0-2.757-2.243-5-5-5S3 2.243 3 5v6c0 2.757 2.243 5 5 5zM4 5c0-2.206 1.794-4 4-4s4 1.794 4 4v6c0 2.206-1.794 4-4 4s-4-1.794-4-4V5zm12 5.5v.5c0 4.242-3.322 7.714-7.5 7.975V23h4c.276 0 .5.224.5.5s-.224.5-.5.5h-9c-.276 0-.5-.224-.5-.5s.224-.5.5-.5h4v-4.025C3.322 18.715 0 15.243 0 11v-.5c0-.276.224-.5.5-.5h1c.276 0 .5.224.5.5s-.224.5-.5.5H1c0 3.86 3.14 7 7 7s7-3.14 7-7h-.5c-.276 0-.5-.224-.5-.5s.224-.5.5-.5h1c.276 0 .5.224.5.5z"/></svg>