<svg xmlns="http://www.w3.org/2000/svg" viewBox="0 0 18 24"><path fill="#5c6671" d="M17.951 7.29c-.002-.004-.001-.009-.003-.014l-1.947-3.895V1.999c0-1.103-.897-2-2-2h-10c-1.103 0-2 .897-2 2v1.25L.215 4.588c-.001.001-.002.002-.003.002l-.011.008c-.011.008-.015.021-.025.029-.036.032-.073.063-.099.105-.005.008-.005.017-.009.025-.013.023-.018.047-.027.072-.016.045-.029.089-.032.135-.001.012-.008.022-.008.033v14.75c0 .626.299 1.224.8 1.6l3 2.25c.148.111.318.205.5.273.026.009.038.013.051.017.208.071.428.109.648.109h11c1.103 0 2-.897 2-2v-14.5c0-.076-.019-.146-.05-.21zM2.321 4.259l.937 1.875-1.875-1.172.938-.703zM4.809 7l-1.5-3h11.882l1.5 3H4.809zM3 2c0-.551.449-1 1-1h10c.551 0 1 .449 1 1v1H3V2zM1.4 20.55c-.251-.188-.4-.487-.4-.8V5.902l3 1.875V22.5l-2.6-1.95zM16 23H5V8h12v14c0 .551-.449 1-1 1z"/></svg>