<svg xmlns="http://www.w3.org/2000/svg" viewBox="0 0 18 24"><path fill="#5c6671" d="M16 0H2C.897 0 0 .897 0 2v20c0 1.103.897 2 2 2h14c1.103 0 2-.897 2-2V2c0-1.103-.897-2-2-2zm1 22c0 .551-.448 1-1 1H2c-.552 0-1-.449-1-1V2c0-.551.448-1 1-1h14c.552 0 1 .449 1 1v20zM14.5 3h-11c-.276 0-.5.224-.5.5v17c0 .276.224.5.5.5h11c.276 0 .5-.224.5-.5v-17c0-.276-.224-.5-.5-.5zM14 20H4V4h10v16zm-8.5-1h7c.276 0 .5-.224.5-.5V18c0-.519-.153-.823-.277-1.068-.119-.236-.223-.44-.223-.932 0-.473.098-1.431.2-2.445.141-1.386.3-2.957.3-4.055 0-.276-.224-.5-.5-.5H8.913c.117-.266.133-.617.131-1.022 0-.078-.019-.154-.053-.224l-.239-.478C8.667 7.107 8.494 7 8.305 7H6.696c-.189 0-.362.107-.447.276l-.239.478c-.034.068-.053.207-.053.284-.003.438.013.853.216 1.127-.061.317-.232.66-.426 1.044-.332.66-.746 1.482-.746 2.552 0 1.038.168 1.632.304 2.11.098.346.175.618.175.999 0 .459-.112.75-.23 1.057-.116.301-.248.641-.248 1.096v.478c0 .276.224.5.5.5zm6.33-1.617c.106.209.17.336.17.617H9.997c-.005-.442-.131-.778-.245-1.074-.118-.307-.23-.598-.23-1.057 0-.381.077-.653.175-.999.136-.478.304-1.072.304-2.11 0-1.07-.414-1.892-.746-2.552-.037-.073-.066-.139-.1-.209h2.837c-.036 1.004-.168 2.294-.285 3.454-.11 1.085-.205 2.023-.205 2.546 0 .73.183 1.092.33 1.383zm-5.564-2.785C6.135 14.137 6 13.66 6 12.761c0-.832.325-1.478.64-2.102.285-.568.556-1.104.556-1.724 0-.172-.087-.324-.219-.414-.013-.084-.02-.221-.021-.425L7.004 8h.992l.048.097c0 .193-.007.335-.02.423-.133.09-.22.242-.22.414 0 .62.271 1.156.556 1.724.314.625.64 1.27.64 2.102 0 .899-.135 1.376-.266 1.837-.109.387-.213.752-.213 1.271 0 .645.165 1.073.298 1.417.099.254.177.456.181.713H6c.004-.257.082-.459.181-.713.133-.344.298-.772.298-1.417 0-.52-.104-.885-.213-1.271z"/></svg>