<svg xmlns="http://www.w3.org/2000/svg" viewBox="0 0 18 24"><path fill="#5c6671" d="M16 0H2C.897 0 0 .897 0 2v20c0 1.103.897 2 2 2h14c1.103 0 2-.897 2-2V2c0-1.103-.897-2-2-2zm1 22c0 .551-.449 1-1 1H2c-.551 0-1-.449-1-1V2c0-.551.449-1 1-1h14c.551 0 1 .449 1 1v20zM15.5 4.5H8.929C8.705 3.64 7.929 3 7 3s-1.705.64-1.929 1.5H3.5c-.276 0-.5.224-.5.5s.224.5.5.5h1.571C5.295 6.36 6.071 7 7 7s1.705-.64 1.929-1.5H15.5c.276 0 .5-.224.5-.5s-.224-.5-.5-.5zM7 6c-.551 0-1-.449-1-1s.449-1 1-1 1 .449 1 1-.449 1-1 1zm8.5 5.5h-4.571c-.224-.86-1-1.5-1.929-1.5s-1.705.64-1.929 1.5H3.5c-.276 0-.5.224-.5.5s.224.5.5.5h3.571c.224.86 1 1.5 1.929 1.5s1.705-.64 1.929-1.5H15.5c.276 0 .5-.224.5-.5s-.224-.5-.5-.5zM9 13c-.551 0-1-.449-1-1s.449-1 1-1 1 .449 1 1-.449 1-1 1zm6.5 5.5h-1.571c-.224-.86-1-1.5-1.929-1.5s-1.705.64-1.929 1.5H3.5c-.276 0-.5.224-.5.5s.224.5.5.5h6.571c.224.86 1 1.5 1.929 1.5s1.705-.64 1.929-1.5H15.5c.276 0 .5-.224.5-.5s-.224-.5-.5-.5zM12 20c-.551 0-1-.449-1-1s.449-1 1-1 1 .449 1 1-.449 1-1 1z"/></svg>