<svg xmlns="http://www.w3.org/2000/svg" viewBox="0 0 18 24"><path fill="#5c6671" d="M16 0H2C.897 0 0 .897 0 2v20c0 1.103.897 2 2 2h14c1.103 0 2-.897 2-2V2c0-1.103-.897-2-2-2zM2 1h14c.552 0 1 .449 1 1v16H1V2c0-.551.448-1 1-1zm14 22H2c-.552 0-1-.449-1-1v-3h16v3c0 .551-.448 1-1 1zm-7-3.5c-.828 0-1.5.672-1.5 1.5s.672 1.5 1.5 1.5 1.5-.672 1.5-1.5-.672-1.5-1.5-1.5zm0 2c-.276 0-.5-.224-.5-.5s.224-.5.5-.5.5.224.5.5-.224.5-.5.5zm-1.5-19c0-.276.224-.5.5-.5h2c.276 0 .5.224.5.5s-.224.5-.5.5H8c-.276 0-.5-.224-.5-.5z"/></svg>