<svg xmlns="http://www.w3.org/2000/svg" viewBox="0 0 20 24"><path fill="#5c6671" d="M18 5h-6V2c0-1.103-.897-2-2-2H2C.897 0 0 .897 0 2v15c0 1.103.897 2 2 2h6v3c0 1.103.897 2 2 2h8c1.103 0 2-.897 2-2V7c0-1.103-.897-2-2-2zm1 2v12H9V7c0-.551.448-1 1-1h8c.552 0 1 .449 1 1zM2 1h8c.552 0 1 .449 1 1v3h-1c-1.103 0-2 .897-2 2v7H1V2c0-.551.448-1 1-1zm0 17c-.552 0-1-.449-1-1v-2h7v3H2zm16 5h-8c-.552 0-1-.449-1-1v-2h10v2c0 .551-.448 1-1 1zm-4-2.5c-.552 0-1 .449-1 1s.448 1 1 1 1-.449 1-1-.448-1-1-1zm0 1zm-8-6c-.552 0-1 .449-1 1s.448 1 1 1 1-.449 1-1-.448-1-1-1zm0 1zm-1-14c0-.276.224-.5.5-.5h1c.276 0 .5.224.5.5s-.224.5-.5.5h-1c-.276 0-.5-.224-.5-.5zm8 5c0-.276.224-.5.5-.5h1c.276 0 .5.224.5.5s-.224.5-.5.5h-1c-.276 0-.5-.224-.5-.5zm.038-5.691a.4766.4766 0 0 1 .109-.163L14.646.147c.195-.195.512-.195.707 0s.195.512 0 .707l-.646.646H16c1.103 0 2 .897 2 2 0 .276-.224.5-.5.5s-.5-.224-.5-.5c0-.551-.448-1-1-1h-1.293l.646.646c.195.195.195.512 0 .707-.098.098-.226.146-.354.146s-.256-.049-.354-.146l-1.499-1.499c-.046-.046-.083-.102-.109-.163-.024-.056-.038-.122-.038-.191s.014-.135.039-.194zM6.962 22.191a.4766.4766 0 0 1-.109.163l-1.499 1.499c-.098.098-.226.146-.354.146s-.256-.049-.354-.146c-.195-.195-.195-.512 0-.707l.646-.646H3.999c-1.103 0-2-.897-2-2 0-.276.224-.5.5-.5s.5.224.5.5c0 .551.448 1 1 1h1.293l-.646-.646c-.195-.195-.195-.512 0-.707s.512-.195.707 0l1.499 1.499c.046.046.083.102.109.163.024.056.038.122.038.191s-.014.134-.039.194z"/></svg>