<svg xmlns="http://www.w3.org/2000/svg" viewBox="0 0 24 24"><path fill="#5c6671" d="M21.032 9.032c-1.465 0-2.678 1.07-2.917 2.468h-1.149c-.188-1.869-1.384-3.442-3.054-4.134l1.034-3.445c.022.001.043.007.065.007 1.083 0 1.964-.881 1.964-1.964S16.094 0 15.011 0s-1.964.881-1.964 1.964c0 .708.379 1.324.942 1.669L12.954 7.08c-.309-.06-.627-.096-.954-.096-1.719 0-3.237.871-4.141 2.193L5.757 8.002c.108-.308.179-.634.179-.978 0-1.636-1.331-2.968-2.968-2.968S0 5.388 0 7.024s1.331 2.968 2.968 2.968c.933 0 1.756-.441 2.301-1.117l2.109 1.179c-.253.599-.393 1.256-.393 1.946 0 1.517.691 2.862 1.758 3.783L5.652 20.2c-.212-.078-.438-.127-.676-.127-1.083 0-1.964.881-1.964 1.964s.881 1.964 1.964 1.964 1.965-.881 1.965-1.964c0-.482-.182-.919-.472-1.262l3.093-4.419c.725.408 1.549.66 2.439.66 2.595 0 4.711-1.987 4.966-4.516h1.149c.239 1.398 1.452 2.468 2.917 2.468 1.637 0 2.968-1.332 2.968-2.968s-1.331-2.968-2.968-2.968zM15.011 1c.531 0 .964.433.964.964s-.433.964-.964.964-.964-.433-.964-.964c0-.531.433-.964.964-.964zM2.968 8.991C1.883 8.991 1 8.108 1 7.023s.883-1.968 1.968-1.968 1.968.883 1.968 1.968c0 .167-.027.327-.067.482l-.635-.355c-.24-.135-.545-.049-.681.192s-.049.546.192.681l.641.358c-.358.374-.86.61-1.418.61zM4.975 23c-.531 0-.964-.433-.964-.964s.433-.964.964-.964c.532 0 .965.433.965.964S5.507 23 4.975 23zM12 16.016c-2.214 0-4.016-1.802-4.016-4.016S9.786 7.984 12 7.984c2.044 0 3.717 1.54 3.966 3.516h-1.457c-.276 0-.5.224-.5.5s.224.5.5.5h1.457c-.249 1.977-1.922 3.516-3.966 3.516zm9.032-2.048c-1.085 0-1.968-.883-1.968-1.968s.883-1.968 1.968-1.968S23 10.915 23 12s-.883 1.968-1.968 1.968z"/></svg>