<svg xmlns="http://www.w3.org/2000/svg" viewBox="0 0 24 24"><path fill="#5c6671" d="M23.846 11.138l-11.5-11c-.193-.185-.498-.185-.691 0l-11.5 11c-.147.141-.194.358-.118.547s.26.314.464.314h1.5v10c0 1.103.897 2 2 2h16c1.103 0 2-.897 2-2v-10h1.5c.204 0 .388-.124.464-.314s.029-.406-.118-.547zM21.5 11c-.276 0-.5.224-.5.5V22c0 .551-.449 1-1 1H4c-.551 0-1-.449-1-1V11.5c0-.276-.224-.5-.5-.5h-.754L12 1.192 22.254 11H21.5zm-11 3c.827 0 1.5-.673 1.5-1.5s-.673-1.5-1.5-1.5-1.5.673-1.5 1.5.673 1.5 1.5 1.5zm0-2c.276 0 .5.224.5.5s-.224.5-.5.5-.5-.224-.5-.5.224-.5.5-.5zm3 4c-.827 0-1.5.673-1.5 1.5s.673 1.5 1.5 1.5 1.5-.673 1.5-1.5-.673-1.5-1.5-1.5zm0 2c-.276 0-.5-.224-.5-.5s.224-.5.5-.5.5.224.5.5-.224.5-.5.5zm-4.407.209l5-7c.161-.225.473-.277.697-.116s.277.473.116.697l-5 7c-.098.137-.251.209-.407.209-.109 0-.209-.035-.291-.094-.223-.159-.275-.472-.115-.696z"/></svg>