<svg xmlns="http://www.w3.org/2000/svg" viewBox="0 0 24 24"><path fill="#5c6671" d="M20.14 12.014l-.121-1.327c.549-.323 1.095-.567 1.61-.705.135-.037.245-.126.31-.243.066-.124.079-.267.035-.398-.657-1.972-4.722-4.919-5.184-5.249-.218-.156-.52-.111-.684.099s-.135.514.068.688c.937.802.974 1.482.946 1.737-.028.263-.142.377-.121.383-.278 0-.541-.233-.616-.32-.06-.071-.137-.125-.226-.155-.069-.022-1.644-.525-3.658-.525-1.61 0-2.258 1.125-2.442 2H5.706l-.853-.854a.49596.49596 0 0 0-.249-.135c-.023-.005-2.334-.502-3.961-.99-.199-.059-.417.011-.543.179s-.134.396-.02.572c.885 1.368 4.591 4.982 7.209 5.686l-.645.565C5.937 12.394 5.017 12 4 12c-2.206 0-4 1.794-4 4s1.794 4 4 4 4-1.794 4-4c0-.074-.018-.143-.022-.215l1.246-.227c-.029.414-.087.848-.209 1.316-.037.142-.01.292.074.412.082.117.211.197.358.212l5.002.5c.017.001.034.002.05.002.246 0 .459-.181.495-.429.339-2.367 2.125-4.763 4.078-6.245l.07.772c-1.794.394-3.143 1.992-3.143 3.902 0 2.206 1.794 4 4 4s4-1.794 4-4c0-2.158-1.721-3.91-3.86-3.986zM6.548 14.435c.106.171.192.354.262.546l-1.118.203.856-.749zM7 16c0 1.654-1.346 3-3 3s-3-1.346-3-3 1.346-3 3-3c.718 0 1.369.264 1.885.686L3.67 15.624c-.169.148-.219.391-.121.594.084.175.261.283.45.283.029 0 .06-.002.089-.008l2.907-.528c0 .013.004.024.004.037zm.315-2.236l.99-.866c.229.165.418.366.565.612.17.286.265.646.323 1.038l-1.396.254c-.117-.369-.269-.723-.481-1.038zm6.774 3.193l-3.976-.398c.216-1.107.263-2.474-.385-3.562-.448-.75-1.157-1.249-2.109-1.482-1.734-.426-4.275-2.565-5.733-4.116 1.035.264 2.004.48 2.365.559l.896.896c.09.09.215.146.353.146h5c.272 0 .494-.218.5-.49.003-.154.072-1.51 1.5-1.51 1.552 0 2.845.332 3.23.441.204.198.659.559 1.27.559.428 0 .826-.327 1.013-.832.081-.22.124-.479.11-.763 1.055.89 2.174 1.954 2.682 2.794-2.785 1.043-5.99 4.326-6.716 7.757zM20 19c-1.654 0-3-1.346-3-3 0-1.388.953-2.548 2.235-2.889l.267 2.934c.024.259.242.455.498.455h.002c.015 0 .031-.001.046-.002.273-.025.476-.268.451-.543l-.266-2.931c1.545.121 2.768 1.402 2.768 2.977 0 1.654-1.346 3-3 3z"/></svg>