<svg xmlns="http://www.w3.org/2000/svg" viewBox="0 0 24 24"><path fill="#5c6671" d="M23.854 10.146c-.121-.121-.297-.17-.461-.135-.758.168-7.456 1.688-9.074 3.306-1.64 1.64-1.726 4.23-.301 5.996-.508.593-.829 1.322-.954 2.222-.519-1.233-1.079-3.033-1.063-5.032.029-3.667-1.396-7.527-2.485-8.703.396-.426.561-.99.452-1.603-.085-.482-.334-.968-.666-1.3-.115-.115-.184-.391-.256-.683-.116-.467-.261-1.047-.709-1.495L6.866 1.156c-.09-.095-.216-.155-.357-.157-.131.01-.265.051-.361.146l-.646.647L3.856.146c-.195-.195-.512-.195-.707 0s-.195.512 0 .707l1.646 1.646-2.293 2.293L.856 3.146c-.195-.195-.512-.195-.707 0s-.195.512 0 .707l1.646 1.646-.647.646c-.098.098-.151.233-.146.372.005.144.071.272.172.359l1.601 1.383c.457.457 1.094.622 1.606.754.305.079.651.168.768.285.332.332.818.581 1.301.666.125.022.248.033.368.033.494 0 .947-.186 1.315-.557l.733-.868c.765.938 2.164 4.391 2.136 7.921-.032 3.983 1.995 7.144 2.081 7.277.091.138.244.227.419.227.065 0 .13-.013.193-.039.223-.093.347-.333.295-.569-.03-.136-.018-.324-.004-.524.008-.125.016-.249.016-.368 0-1.085.244-1.873.736-2.477.812.636 1.782.974 2.764.974 1.152 0 2.305-.438 3.182-1.315 1.619-1.619 3.138-8.316 3.306-9.074.037-.166-.014-.341-.135-.461zM7.396 8.767c-.198.199-.461.272-.774.215-.34-.06-.626-.247-.768-.389-.31-.31-.754-.425-1.224-.546-.435-.113-.885-.229-1.176-.518l-1.22-1.056L6.49 2.217l1.128 1.198c.262.262.356.641.456 1.041.103.412.208.836.52 1.148.29.29.651 1.064.145 1.573L7.396 8.766zm12.579 10.208c-1.266 1.265-3.258 1.341-4.63.261 1.165-1.501 2.65-2.96 4.458-4.339.22-.167.262-.481.094-.701-.167-.218-.481-.263-.701-.094-1.832 1.398-3.348 2.88-4.551 4.407-.961-1.365-.84-3.265.38-4.485 1.064-1.063 5.453-2.289 7.807-2.856-.567 2.354-1.793 6.742-2.856 7.807z"/></svg>