<svg xmlns="http://www.w3.org/2000/svg" viewBox="0 0 24 24"><path fill="#5c6671" d="M22 3H4c-1.103 0-2 .897-2 2-1.103 0-2 .897-2 2v12c0 1.103.897 2 2 2h20c1.103 0 2-.897 2-2V5c0-1.103-.897-2-2-2zm1 16c0 .551-.448 1-1 1H2c-.552 0-1-.449-1-1V7c0-.551.448-1 1-1v12.5c0 .276.224.5.5.5s.5-.224.5-.5V5c0-.551.448-1 1-1h18c.552 0 1 .449 1 1v14zM5.5 14h7c.276 0 .5-.224.5-.5v-6c0-.276-.224-.5-.5-.5h-7c-.276 0-.5.224-.5.5v6c0 .276.224.5.5.5zM6 8h6v5H6V8zm15 8.5c0 .276-.224.5-.5.5h-15c-.276 0-.5-.224-.5-.5s.224-.5.5-.5h15c.276 0 .5.224.5.5zm0-9c0 .276-.224.5-.5.5h-5c-.276 0-.5-.224-.5-.5s.224-.5.5-.5h5c.276 0 .5.224.5.5zm0 3c0 .276-.224.5-.5.5h-5c-.276 0-.5-.224-.5-.5s.224-.5.5-.5h5c.276 0 .5.224.5.5zm0 3c0 .276-.224.5-.5.5h-5c-.276 0-.5-.224-.5-.5s.224-.5.5-.5h5c.276 0 .5.224.5.5z"/></svg>