<svg xmlns="http://www.w3.org/2000/svg" viewBox="0 0 24 24"><path fill="#5c6671" d="M12 0C5.383 0 0 5.383 0 12s5.383 12 12 12 12-5.383 12-12S18.617 0 12 0zm0 23C5.935 23 1 18.065 1 12S5.935 1 12 1s11 4.935 11 11-4.935 11-11 11zm0-21c-2.279 0-4.512.791-6.285 2.227-.11.089-.178.221-.185.362 0 .008-.001.018-.001.028 0 .138.056.262.146.352L19.03 18.324c.094.094.222.146.354.146h.026c.142-.008.273-.075.362-.185 1.436-1.773 2.227-4.005 2.227-6.285 0-5.514-4.486-10-10-10zm2.121 10H17v1h-1.879l-1-1zm5.213 5.212L16.121 14H17.5c.276 0 .5-.224.5-.5v-2c0-.276-.224-.5-.5-.5h-4.379L6.787 4.666C8.315 3.574 10.105 3 12 3c4.963 0 9 4.038 9 9 0 1.895-.574 3.686-1.666 5.212zm-6.894-4.065L4.969 5.676c-.1-.101-.242-.152-.38-.146-.142.008-.273.075-.362.185C2.791 7.488 2 9.72 2 12c0 5.514 4.486 10 10 10 2.279 0 4.512-.791 6.285-2.227.11-.089.178-.221.185-.362s-.045-.28-.146-.38l-5.884-5.884zM5 13v-1h3v1H5zm4-1h.879l1 1H9v-1zm3 9c-4.963 0-9-4.038-9-9 0-1.895.574-3.686 1.666-5.212L8.879 11H4.5c-.276 0-.5.224-.5.5v2c0 .276.224.5.5.5h7.379l5.334 5.334C15.685 20.426 13.895 21 12 21zm8-9.5v2c0 .276-.224.5-.5.5s-.5-.224-.5-.5v-2c0-.276.224-.5.5-.5s.5.224.5.5zm-.854-1.646c-.709-.708-1.01-1.328-1.275-1.874-.205-.42-.381-.783-.725-1.126-.195-.195-.195-.512 0-.707s.512-.195.707 0c.462.462.693.937.916 1.396.243.499.494 1.015 1.084 1.604.195.195.195.512 0 .707-.098.098-.226.146-.354.146s-.256-.049-.354-.146z"/></svg>