<svg xmlns="http://www.w3.org/2000/svg" viewBox="0 0 22 24"><path fill="#5c6671" d="M18.644 19.165c.233-.44.373-.986.356-1.678-.002-.076-.021-.151-.057-.219-.326-.625-.471-1.346-.444-1.735.004-.055.079-.196.14-.309.201-.374.506-.938.354-1.81-.128-.736-.082-1.384-.037-2.01.069-.979.135-1.904-.576-2.73-.232-.271-.457-.689-.695-1.132-.097-.18-.198-.362-.3-.542h.116c.276 0 .5-.224.5-.5V3.607c0-.883-.567-1.651-1.412-1.912L11.149.021c-.096-.029-.197-.029-.295 0L5.413 1.695c-.844.26-1.411 1.028-1.411 1.912V6.5c0 .234.164.421.381.476-.142.197-.264.401-.375.591-.123.212-.247.429-.4.625-.771.991-.528 2.047-.293 3.068.16.693.325 1.409.195 2.153-.086.492-.204.835-.309 1.139-.118.344-.221.642-.198.979.037.57.333 1.712.998 2.633.003.332.039.62.098.876-2.29.208-4.097 2.116-4.097 4.459 0 .276.224.5.5.5h21c.276 0 .5-.224.5-.5 0-2.065-1.417-3.826-3.356-4.335zM16.803 8.014c.265.493.514.959.818 1.312.422.49.404 1.053.336 2.007-.046.654-.1 1.396.051 2.253.092.531-.074.838-.249 1.164-.118.219-.239.445-.258.717-.033.506.109 1.356.5 2.154-.005.723-.239 1.213-.619 1.555-.045.041-.097.073-.145.11-.373.279-.85.451-1.384.566.015-.047.026-.099.04-.148.007-.026.015-.05.022-.077v-.004c.297-1.11.36-2.562.048-3.315-.316-.765-.212-2.805.021-3.68.27-1.013.321-2.598-.031-3.343-.194-.409-.924-1.592-1.634-2.286h1.896c.209.308.4.666.588 1.014zm-5.806 14.541c-.28-.412-.675-.94-1.144-1.409-.537-.537-1.574-1.267-2.216-1.701.438-.684 1.164-2.016 1.343-3.143.675.402 1.389.697 2.019.697s1.344-.295 2.018-.697c.187 1.174.97 2.574 1.398 3.228-.742.46-1.808 1.154-2.27 1.616-.482.482-.875 1.003-1.149 1.409zM8.705 7.456c.061-.028.113-.067.157-.112 1.094.571 3.048 1.073 4.624.244.484.413 1.293 1.559 1.562 2.126.195.412.22 1.719-.031 2.657-.081.304-.147.718-.192 1.17-.084.032-.164.079-.223.156C14.003 14.485 12.07 16 11 16s-3.003-1.514-3.602-2.303c-.048-.063-.11-.107-.176-.141-.002-.004-.003-.009-.005-.014-.091-.237-.178-.461-.233-.672-.173-.647-.085-1.644-.026-2.303.019-.209.035-.395.042-.543.053-1.064 1.224-2.352 1.706-2.568zM11.087 7h.955c-.317.04-.644.035-.955 0zm2.898 8.636c.292-.226.558-.451.784-.664.016.665.094 1.295.27 1.72.169.408.16 1.252.044 2.025-.571-.933-1.255-2.406-1.098-3.08zm-6.52 1.048c.182-.462.238-.9.22-1.312.106.089.216.175.33.264.14.609-.402 1.871-.928 2.797-.011-.454.088-1.016.378-1.749zM5 3.607c0-.442.283-.826.706-.956L11 1.022l5.293 1.629c.423.13.707.514.707.956V6H5V3.607zm-.855 11.27c.111-.321.248-.721.348-1.292.165-.943-.031-1.797-.205-2.55-.237-1.03-.35-1.642.107-2.229.182-.233.33-.487.476-.738.365-.627.602-.986 1.18-1.069h1.595c-.736.659-1.59 1.844-1.644 2.976-.007.138-.022.31-.04.504-.068.773-.162 1.831.056 2.649.064.242.162.5.267.772.292.761.594 1.549.252 2.416-.628 1.592-.513 2.624-.176 3.373.003.006-.001.013.002.019.039.085.069.145.101.204-.422-.08-.757-.181-1-.392-.007-.006-.014-.011-.021-.017-.078-.071-.146-.153-.203-.25-.163-.276-.253-.667-.239-1.241.003-.116-.035-.23-.106-.321-.618-.786-.87-1.837-.895-2.224-.01-.138.056-.327.146-.589zM1.035 23c.244-1.694 1.705-3 3.465-3h.04c.016.02.034.034.05.053.048.056.097.109.149.158.08.076.167.147.26.21.049.033.09.061.134.086.115.067.234.122.356.168.038.015.076.029.115.042.141.047.283.088.426.117.003.001.006.001.01.002.143.029.285.048.424.065.047.006.091.011.137.016.102.011.202.02.298.028.019.002.04.004.058.005.167.014.327.026.475.046.016.002.034.003.053.003h.001c.021 0 .036-.016.056-.019.068-.009.129-.027.186-.063.002-.001.003-.003.005-.004.044-.029.089-.053.124-.095.484.349.987.735 1.288 1.036.371.371.697.794.942 1.146H1.033zm10.871 0c.24-.345.564-.764.947-1.146.307-.307 1.035-.803 1.703-1.229.014.039.031.077.052.113.012.022.041.03.056.049.045.054.093.106.159.138.042.021.085.021.132.031s.089.032.134.032c.022 0 .044-.002.065-.004h.006c.161-.021.353-.048.562-.084.027-.005.053-.01.081-.015.187-.034.386-.076.591-.131.044-.012.085-.023.13-.035.21-.061.424-.137.634-.231.027-.012.053-.022.08-.034.23-.108.452-.242.659-.402.005-.004.01-.005.015-.009 1.579.187 2.827 1.417 3.052 2.958h-9.058zM9.5 3.5c0-.276.224-.5.5-.5h.5v-.5c0-.276.224-.5.5-.5s.5.224.5.5V3h.5c.276 0 .5.224.5.5s-.224.5-.5.5h-.5v.5c0 .276-.224.5-.5.5s-.5-.224-.5-.5V4H10c-.276 0-.5-.224-.5-.5z"/></svg>