<svg xmlns="http://www.w3.org/2000/svg" viewBox="0 0 24 24"><path fill="#5c6671" d="M23.728 3.055C23.484 2.93 17.72 0 15.5 0c-.276 0-.5.224-.5.5 0 1.654-1.346 3-3 3s-3-1.346-3-3c0-.276-.224-.5-.5-.5C6.28 0 .517 2.93.272 3.055c-.199.102-.307.324-.263.543l1 5c.049.245.243.416.52.401.219-.013 1.734-.11 2.814-.311-.361 1.904-.354 3.333-.347 4.722l.002.59c0 1.836.976 5.476 1.018 5.63.059.218.257.37.482.37 1.93 0 3.5 1.57 3.5 3.5 0 .276.224.5.5.5h5c.276 0 .5-.224.5-.5 0-1.93 1.57-3.5 3.5-3.5.226 0 .424-.151.482-.37.042-.154 1.018-3.794 1.018-5.63l.002-.59c.007-1.388.015-2.818-.347-4.722 1.08.201 2.596.298 2.814.311.269.017.472-.156.52-.401l1-5a.4985.4985 0 0 0-.263-.543zm-1.632 4.916c-1.041-.08-2.47-.24-2.893-.428-.175-.078-.375-.049-.52.071s-.212.313-.17.498c.505 2.203.498 3.704.489 5.292L19 14c0 1.39-.646 4.059-.891 5.017-2.134.185-3.847 1.865-4.082 3.983H9.972c-.235-2.119-1.948-3.799-4.082-3.983-.244-.958-.891-3.627-.891-5.017l-.002-.596c-.009-1.588-.016-3.089.489-5.292.042-.185-.023-.377-.17-.498s-.347-.149-.521-.071c-.423.188-1.852.349-2.893.428l-.839-4.196c1.665-.829 5.194-2.454 6.971-2.734C8.3 2.992 9.975 4.5 11.998 4.5s3.698-1.508 3.964-3.459c1.776.28 5.306 1.905 6.971 2.734l-.839 4.196z"/></svg>