<svg xmlns="http://www.w3.org/2000/svg" viewBox="0 0 20 24"><path fill="#5c6671" d="M10.846 4.045c.217-.911.566-1.803 1.133-2.391.423-.438.92-.652 1.52-.652.276 0 .5-.224.5-.5s-.224-.5-.5-.5c-.873 0-1.627.322-2.24.957-.522.541-.887 1.268-1.147 2.039-.137-.126-.444-.432-1.123-1.201C7.363-.044 5.777-.011 5.713.002c-.109.004-.214.044-.298.114-.061.05-.367.33-.411.882-.051.652.287 1.394 1.005 2.208.542.614 1.178.918 1.802 1.044C3.347 5.251-.001 9.239-.001 14.001-.001 19.515 4.484 24 9.998 24s9.999-4.485 9.999-9.999c0-5.228-4.034-9.524-9.152-9.956zM5.999 1.028c.415.075 1.291.357 2.24 1.431.299.338.543.611.747.829-.631.103-1.524.053-2.228-.744-.691-.782-.792-1.281-.76-1.516zm4 21.972C5.037 23 1 18.963 1 14.001 1 9.157 4.85 5.205 9.649 5.02c-.105.752-.141 1.424-.15 1.883-.381-.167-.505-.495-.522-.547-.079-.261-.351-.411-.618-.334-.265.077-.417.355-.34.62.137.47.727 1.359 1.979 1.36h.019c.003 0 .005-.002.008-.002 1.234-.013 1.818-.891 1.954-1.357.077-.265-.075-.543-.34-.62-.27-.078-.543.075-.62.34-.001.005-.113.365-.519.543.011-.454.048-1.129.156-1.869 4.655.339 8.342 4.226 8.342 8.966 0 4.962-4.037 8.999-8.999 8.999z"/></svg>