<svg xmlns="http://www.w3.org/2000/svg" viewBox="0 0 24 24"><path fill="#5c6671" d="M18 12c0-3.309-2.691-6-6-6s-6 2.691-6 6 2.691 6 6 6 6-2.691 6-6zm-6 5c-2.757 0-5-2.243-5-5s2.243-5 5-5 5 2.243 5 5-2.243 5-5 5zm12-5c0-6.617-5.383-12-12-12-2.152 0-4.254.588-6.109 1.69C5.373 1.265 4.72 1 4 1 2.346 1 1 2.346 1 4c0 .72.265 1.373.69 1.891C.588 7.746 0 9.847 0 12c0 6.617 5.383 12 12 12 1.575 0 3.108-.322 4.571-.929.459.562 1.148.929 1.929.929 1.379 0 2.5-1.122 2.5-2.5 0-.448-.128-.862-.335-1.226C22.811 18.029 24 15.113 24 12zM4 2c1.103 0 2 .897 2 2s-.897 2-2 2-2-.897-2-2 .897-2 2-2zm8 21C5.935 23 1 18.065 1 12c0-1.911.523-3.771 1.473-5.432C2.922 6.836 3.44 7 4 7c1.654 0 3-1.346 3-3 0-.56-.164-1.078-.432-1.527C8.23 1.523 10.09 1 12 1c6.065 0 11 4.935 11 11 0 2.823-1.067 5.469-2.995 7.517-.42-.32-.938-.517-1.505-.517-1.379 0-2.5 1.122-2.5 2.5 0 .238.044.463.106.681-1.317.534-2.694.819-4.106.819zm6.5 0c-.55 0-1.026-.301-1.287-.743 0-.001 0-.002-.001-.003s-.003-.003-.003-.005c-.129-.221-.208-.475-.208-.75 0-.827.673-1.5 1.5-1.5s1.5.673 1.5 1.5-.673 1.5-1.5 1.5z"/></svg>