<svg xmlns="http://www.w3.org/2000/svg" viewBox="0 0 24 24"><path fill="#5c6671" d="M8 9c-.552 0-1 .449-1 1s.448 1 1 1 1-.449 1-1-.448-1-1-1zm0 1zm8-1c-.552 0-1 .449-1 1s.448 1 1 1 1-.449 1-1-.448-1-1-1zm0 1zm1.944-5H6.057c-.515 0-.982.25-1.253.671C3.623 7.511 2.999 9.699 2.999 12s.624 4.491 1.806 6.329c.269.42.736.671 1.25.671h11.887c.515 0 .982-.25 1.253-.671C20.376 16.489 21 14.301 21 12s-.624-4.491-1.806-6.329c-.269-.42-.736-.671-1.25-.671zm.41 12.789c-.085.132-.238.211-.411.211H6.056c-.171 0-.323-.079-.408-.211C4.57 16.112 4.001 14.11 4.001 12s.569-4.111 1.646-5.789c.085-.132.238-.211.411-.211h11.887c.171 0 .323.079.408.211C19.431 7.888 20 9.89 20 12s-.569 4.111-1.646 5.789zM13.5 14.5c0 .827-.673 1.5-1.5 1.5s-1.5-.673-1.5-1.5c0-.276.224-.5.5-.5h2c.276 0 .5.224.5.5zM22 0H2C.897 0 0 .897 0 2v20c0 1.103.897 2 2 2h20c1.103 0 2-.897 2-2V2c0-1.103-.897-2-2-2zm1 22c0 .551-.448 1-1 1H2c-.552 0-1-.449-1-1V2c0-.551.448-1 1-1h20c.552 0 1 .449 1 1v20z"/></svg>