<svg xmlns="http://www.w3.org/2000/svg" viewBox="0 0 24 24"><path fill="#5c6671" d="M24 8.5C24 5.467 21.533 3 18.5 3c-1.201 0-2.343.38-3.301 1.1-.003.002-.004.005-.006.007s-.005.002-.007.003c-.718.578-2.177.89-3.187.89-1.012 0-2.472-.312-3.186-.889-.019-.015-.042-.02-.063-.032C7.802 3.38 6.685 3 5.498 3c-3.033 0-5.5 2.467-5.5 5.5 0 2.107 1.229 4.056 3.13 4.965.001 0 .002 0 .003.001 0 0 .001.001.002.001.621.3 1.247.535 1.891.737-.005.1-.026.196-.026.297v1c0 3.033 2.467 5.5 5.5 5.5h3c3.033 0 5.5-2.467 5.5-5.5v-1c0-.101-.021-.197-.026-.296.645-.202 1.271-.437 1.891-.737.001 0 .002-.001.003-.002 1.903-.909 3.132-2.857 3.132-4.965zm-6 7c0 2.481-2.019 4.5-4.5 4.5h-3C8.019 20 6 17.981 6 15.5v-1c0-1.934 1.243-3.622 3.026-4.241.03.342.108.669.243.968-1.234.459-2.099 1.576-2.236 2.909-.005.018-.015.032-.018.05-.005.031.004.061.005.091-.005.075-.02.147-.02.223v1c0 1.93 1.57 3.5 3.5 3.5h3c1.93 0 3.5-1.57 3.5-3.5v-1c0-.077-.015-.15-.02-.226.001-.03.009-.058.005-.088-.003-.017-.013-.031-.017-.048-.136-1.334-1.002-2.452-2.237-2.911.135-.3.213-.626.243-.968C16.757 10.878 18 12.567 18 14.5v1zm-10-.677c1.082.123 2.318.177 4 .177s2.918-.054 4-.177v.677c0 1.378-1.122 2.5-2.5 2.5h-3C9.122 18 8 16.878 8 15.5v-.677zM12 14c-1.65 0-2.854-.053-3.9-.172.233-.844.89-1.506 1.757-1.734.545.558 1.303.907 2.143.907s1.598-.349 2.143-.907c.867.229 1.524.891 1.757 1.734-1.046.12-2.25.172-3.9.172zm2-4c0 1.103-.897 2-2 2s-2-.897-2-2 .897-2 2-2 2 .897 2 2zm6.432 2.565c-.001 0-.001.001-.002.001h-.001c-.527.255-1.06.457-1.605.635-.475-1.938-1.973-3.496-3.949-4.008C14.52 7.932 13.372 7 11.999 7s-2.521.932-2.876 2.193c-1.975.511-3.474 2.069-3.949 4.007-.544-.178-1.077-.379-1.606-.634-.001-.001-.003 0-.004-.001s-.002-.002-.004-.003C2.003 11.818.998 10.224.998 8.5c0-2.481 2.019-4.5 4.5-4.5 1.021 0 1.984.333 2.784.964.013.01.028.012.041.021C9.287 5.678 10.875 6 11.997 6c1.166 0 2.845-.345 3.796-1.098.001-.001.003-.001.004-.002.784-.589 1.717-.9 2.7-.9 2.481 0 4.5 2.019 4.5 4.5 0 1.727-1.008 3.322-2.568 4.065z"/></svg>