<svg xmlns="http://www.w3.org/2000/svg" viewBox="0 0 24 24"><path fill="#5c6671" d="M23.739 13.059l-23-13C.733.056.726.058.72.055.646.017.566-.002.484 0 .466 0 .45.005.432.007.361.016.294.039.232.078.223.084.211.082.202.089.198.092.197.097.194.1.187.105.178.107.171.113c-.06.051-.1.114-.13.182C.034.31.031.326.026.342.002.414-.006.489.004.565.005.574 0 .582.002.59l4 21c.029.153.129.285.27.354s.305.069.445-.001l5.364-2.682c.014.022.021.047.039.067l4 4.5c.017.019.04.027.06.043s.036.028.057.041c.08.049.167.083.258.083h.011c.004 0 .007-.004.011-.004.091-.004.18-.037.259-.091.011-.007.022-.011.032-.019.006-.005.013-.006.019-.012.067-.06.107-.135.134-.214.003-.009.012-.013.015-.022l1.935-6.771 6.782-2.906c.175-.075.292-.243.302-.433s-.088-.369-.253-.463zM1.417 2.67L11.75 17.308l-6.889 3.444L1.417 2.67zm13.039 19.134l-1.488-4.467c-.007-.022-.025-.038-.035-.059-.011-.023-.016-.049-.031-.071L4.272 4.98l11.66 11.66-1.476 5.163zM12.201 18.2l1.047 3.141-2.255-2.537 1.208-.604zm4.406-2.298L3.44 2.735l18.929 10.699-5.761 2.468z"/></svg>