<svg xmlns="http://www.w3.org/2000/svg" viewBox="0 0 18 24"><path fill="#5c6671" d="M9 2c-.552 0-1 .449-1 1s.448 1 1 1 1-.449 1-1-.448-1-1-1zm0 1zm6 9.299V9.5c0-1.391-.822-2.585-2-3.149V2c0-1.103-.897-2-2-2H7C5.897 0 5 .897 5 2v4.351C3.822 6.915 3 8.109 3 9.5v2.799C1.091 14.009 0 16.438 0 19v3c0 1.103.897 2 2 2h14c1.103 0 2-.897 2-2v-3c0-2.562-1.091-4.991-3-6.701zM6 6V2c0-.551.448-1 1-1h4c.552 0 1 .449 1 1v4H6zm11 16c0 .551-.448 1-1 1H2c-.552 0-1-.449-1-1v-3c0-2.346 1.029-4.567 2.824-6.093.111-.095.176-.234.176-.381V9.5C4 8.122 5.121 7 6.5 7h5C12.879 7 14 8.122 14 9.5v3.026c0 .146.064.286.176.381C15.971 14.433 17 16.655 17 19v3zM7 9.5v4.413c0 .146-.064.286-.176.381l-1.057.898c-1.123.955-1.768 2.343-1.768 3.808v1.5c0 .276-.224.5-.5.5s-.5-.224-.5-.5V19c0-1.758.772-3.424 2.119-4.569l.881-.749V9.5c0-.276.224-.5.5-.5s.5.224.5.5z"/></svg>