<svg xmlns="http://www.w3.org/2000/svg" viewBox="0 0 24 24"><path fill="#5c6671" d="M19.437 12.186l-1.168-4.671C18.045 6.623 17.248 6 16.329 6H7.671c-.919 0-1.717.623-1.94 1.515l-1.168 4.671C3.648 12.558 3 13.453 3 14.5v2c0 .815.397 1.532 1.002 1.989 0 .004-.002.007-.002.011v.5c0 1.103.897 2 2 2s2-.897 2-2h8c0 1.103.897 2 2 2s2-.897 2-2v-.5c0-.004-.002-.007-.002-.011C20.603 18.032 21 17.314 21 16.5v-2c0-1.047-.648-1.942-1.563-2.314zM6.701 7.757c.112-.438.503-.757.968-.757H16.329c.466 0 .857.319.967.75L18.358 12H5.639L6.7 7.757zM6 20c-.552 0-1-.449-1-1h2c0 .551-.448 1-1 1zm13-1c0 .551-.448 1-1 1s-1-.449-1-1h2zm1-2.5c0 .827-.673 1.5-1.5 1.5h-13c-.827 0-1.5-.673-1.5-1.5v-2c0-.827.673-1.5 1.5-1.5h13c.827 0 1.5.673 1.5 1.5v2zM6.5 14c-.827 0-1.5.673-1.5 1.5S5.673 17 6.5 17 8 16.327 8 15.5 7.327 14 6.5 14zm0 2c-.275 0-.5-.224-.5-.5s.225-.5.5-.5.5.224.5.5-.225.5-.5.5zm11-2c-.827 0-1.5.673-1.5 1.5s.673 1.5 1.5 1.5 1.5-.673 1.5-1.5-.673-1.5-1.5-1.5zm0 2c-.275 0-.5-.224-.5-.5s.225-.5.5-.5.5.224.5.5-.225.5-.5.5zM15 14.5c0 .276-.224.5-.5.5h-5c-.276 0-.5-.224-.5-.5s.224-.5.5-.5h5c.276 0 .5.224.5.5zm0 2c0 .276-.224.5-.5.5h-5c-.276 0-.5-.224-.5-.5s.224-.5.5-.5h5c.276 0 .5.224.5.5zM24 5v15.5c0 .276-.224.5-.5.5s-.5-.224-.5-.5V5c0-.551-.448-1-1-1H2c-.552 0-1 .449-1 1v15.5c0 .276-.224.5-.5.5s-.5-.224-.5-.5V5c0-1.103.897-2 2-2h20c1.103 0 2 .897 2 2z"/></svg>