<svg xmlns="http://www.w3.org/2000/svg" viewBox="0 0 24 24"><path fill="#5c6671" d="M0 7.5V2C0 .897.897 0 2 0h5.5c.276 0 .5.224.5.5s-.224.5-.5.5H2c-.552 0-1 .449-1 1v5.5c0 .276-.224.5-.5.5S0 7.776 0 7.5zM22 0h-5.5c-.276 0-.5.224-.5.5s.224.5.5.5H22c.552 0 1 .449 1 1v5.5c0 .276.224.5.5.5s.5-.224.5-.5V2c0-1.103-.897-2-2-2zm1.5 16c-.276 0-.5.224-.5.5V22c0 .551-.448 1-1 1h-5.5c-.276 0-.5.224-.5.5s.224.5.5.5H22c1.103 0 2-.897 2-2v-5.5c0-.276-.224-.5-.5-.5zm-16 7H2c-.552 0-1-.449-1-1v-5.5c0-.276-.224-.5-.5-.5s-.5.224-.5.5V22c0 1.103.897 2 2 2h5.5c.276 0 .5-.224.5-.5s-.224-.5-.5-.5zM5.194 10.385c-.063.269.103.538.371.602s.537-.103.602-.371C6.811 7.899 9.209 6.001 12 6.001s5.189 1.898 5.833 4.615c.055.23.26.385.486.385.041 0 .081-.005.119-.014.265-.063.431-.332.368-.601-.751-3.17-3.55-5.385-6.806-5.385s-6.055 2.214-6.806 5.385zm13.612 3.23c.063-.269-.103-.538-.371-.602-.273-.066-.538.103-.602.371-.644 2.717-3.042 4.615-5.833 4.615s-5.189-1.898-5.833-4.615c-.064-.269-.333-.438-.602-.371-.269.063-.435.333-.371.602C5.945 16.785 8.744 19 12 19s6.055-2.214 6.806-5.385z"/></svg>