<svg xmlns="http://www.w3.org/2000/svg" viewBox="0 0 24 24"><path fill="#5c6671" d="M16.23 9.059c.004-.041.015-.078.018-.119.068-.85-.238-1.663-.818-2.174C14.629 6.059 13.54 6 12.493 6H9.388c-.618 0-1.026.342-1.12.938L6.89 15.661c-.037.237-.062.583.163.845.136.16.336.248.563.248l1.524-.002-.036.227c-.02.125-.08.507.156.784.131.153.322.238.539.238l1.99-.002c.351-.031.614-.296.673-.676l.355-2.346c.009-.057.019-.098.027-.127h.744c1.976 0 3.362-1.428 3.534-3.638.062-.778-.122-1.405-.547-1.863-.102-.11-.221-.203-.346-.289zm-6.525 4.104l-.408 2.59h-1.41l1.379-8.738c.001 0 .031-.015.121-.015h3.105c.856 0 1.737.04 2.276.516.303.268.47.692.479 1.156-.252-.049-.519-.083-.818-.083h-3.104c-.569 0-.946.316-1.034.867l-.583 3.691c-.001.006-.003.01-.004.017zm5.417-3.499c-.367 1.538-1.403 2.436-2.883 2.436h-1.374l.384-2.504s.021-.007.077-.007h3.104c.264 0 .489.03.692.075zm-1.533 4.186h-.829c-.235 0-.799.095-.931.978L11.5 17h-1.388l.143-.933c.002-.012.008-.017.01-.029l.428-2.72c.02-.126.044-.194.043-.218h1.502c1.806 0 3.167-1.08 3.734-2.825.114.229.183.501.155.86-.133 1.7-1.081 2.715-2.538 2.715zM22 3H2C.897 3 0 3.897 0 5v14c0 1.103.897 2 2 2h20c1.103 0 2-.897 2-2V5c0-1.103-.897-2-2-2zm1 16c0 .551-.448 1-1 1H2c-.552 0-1-.449-1-1V5c0-.551.448-1 1-1h20c.552 0 1 .449 1 1v14z"/></svg>