<svg xmlns="http://www.w3.org/2000/svg" viewBox="0 0 14 24"><path fill="#5c6671" d="M11.957 12.061c-1.244-1.248-1.958-3.092-1.958-5.06 0-1.483-1.084-2.709-2.5-2.949v-.051c0-1.654 1.346-3 3-3 .276 0 .5-.224.5-.5s-.224-.5-.5-.5c-1.791 0-3.292 1.191-3.8 2.816-.168-.327-.396-.666-.709-1.021C4.364-.045 2.779-.012 2.714.001c-.109.004-.214.044-.298.114-.061.05-.367.33-.411.882-.051.652.287 1.394 1.005 2.208.742.839 1.472 1.283 2.056 1.521C4.419 5.277 4 6.087 4 7.002c0 1.904-.753 3.76-2.12 5.226C.635 13.563-.032 15.306.002 17.136c.072 3.729 3.164 6.807 6.894 6.862.026 0 .057.001.087.001h.018c1.85 0 3.591-.713 4.911-2.014 1.345-1.326 2.086-3.096 2.086-4.985 0-1.864-.725-3.618-2.042-4.939zM3.76 2.545c-.691-.782-.792-1.281-.76-1.516.416.075 1.291.357 2.24 1.431.682.772.789 1.268.752 1.515-.418-.077-1.289-.363-2.232-1.43zm7.451 18.729c-1.153 1.136-2.683 1.761-4.3 1.725-3.143-.046-5.849-2.739-5.909-5.881-.03-1.568.542-3.062 1.61-4.207 1.54-1.652 2.389-3.751 2.389-5.91 0-1.103.897-2 2-2s2 .897 2 2c0 2.23.82 4.332 2.25 5.766 1.128 1.132 1.75 2.635 1.75 4.233 0 1.619-.635 3.137-1.788 4.274zm-3.745.233C7.462 21.78 7.272 22 7 22h-.007l-.067-.001c-2.619-.038-4.874-2.282-4.924-4.9-.025-1.307.452-2.552 1.341-3.506.189-.201.504-.212.707-.024s.213.505.024.707c-.712.763-1.093 1.759-1.073 2.804.04 2.095 1.844 3.889 3.939 3.92.276.004.53.231.526.508z"/></svg>