<svg xmlns="http://www.w3.org/2000/svg" viewBox="0 0 24 24"><path fill="#5c6671" d="M23.173 2.915L21.085.827c-1.101-1.103-3.025-1.103-4.126 0l-14.81 14.81c-.059.059-.094.13-.117.204-.003.008-.01.013-.012.021L.018 23.371c-.046.173.003.357.13.483.091.091.216.147.354.147.043 0 .087-.006.129-.017l7.509-2.002c.008-.002.014-.01.022-.013.074-.023.144-.059.203-.117l14.81-14.81c.551-.551.854-1.285.854-2.063s-.304-1.511-.854-2.063zM8.009 20.789l-1.044-1.044L18.521 8.189l1.044 1.044L8.009 20.789zm-4.313 1.34l-1.825-1.825.892-3.345 4.278 4.278-3.345.892zm2.561-3.092l-1.294-1.294L16.519 6.187l1.294 1.294L6.257 19.037zm-2.002-2.002l-1.044-1.044L14.767 4.435l1.044 1.044L4.255 17.035zm-2.682 4.387l1.006 1.005-1.371.366.366-1.371zM22.465 6.333l-2.192 2.192-4.798-4.798 2.192-2.192c.723-.723 1.987-.723 2.71 0l2.088 2.088c.362.363.561.844.561 1.355s-.199.992-.561 1.355z"/></svg>