<svg xmlns="http://www.w3.org/2000/svg" viewBox="0 0 24 24"><path fill="#5c6671" d="M23.551 6.424l-6-5.999c-.566-.566-1.555-.566-2.121 0l-3 2.999c-.284.283-.44.66-.44 1.062 0 .342.12.663.329.926-.866.721-3.424 2.574-6.829 2.574-.215 0-.406.138-.474.342l-5 15c-.004.011.001.022-.001.033-.018.067-.02.135-.009.203.003.021.006.041.012.061.023.078.058.153.119.214.046.046.101.083.161.108.059.025.124.038.192.038.053 0 .106-.009.158-.025l15-5c.204-.068.342-.26.342-.475 0-3.393 1.854-5.959 2.575-6.828.264.209.584.328.925.328.4 0 .777-.156 1.061-.439l3-2.999c.284-.283.44-.66.44-1.062s-.156-.778-.44-1.062zm-8.553 11.699L2.343 22.341l6.639-6.639c.297.176.64.283 1.01.283 1.103 0 2-.897 2-2s-.897-2-2-2-2 .897-2 2c0 .37.108.712.283 1.01l-6.64 6.64L5.854 8.98c3.638-.125 6.279-2.09 7.165-2.846l4.825 4.825c-.756.887-2.721 3.528-2.846 7.165zm-6.007-4.138c0-.552.449-1 1-1s1 .448 1 1-.449 1-1 1-1-.448-1-1zm13.854-6.146l-3 3c-.189.189-.518.189-.707 0l-6-6.001c-.094-.094-.146-.219-.146-.353s.052-.259.146-.354l3-3c.095-.095.22-.146.354-.146s.259.052.354.146l6 6v.001c.094.094.146.219.146.353s-.052.259-.146.354z"/></svg>