<svg xmlns="http://www.w3.org/2000/svg" viewBox="0 0 24 24"><path fill="#5c6671" d="M21.915 16.946c-.441-.312-.896-.634-1.06-.798-.162-.179-.451-1.138-.662-1.838-.388-1.285-.789-2.613-1.339-3.164-.505-.505-.626-1.012-.565-1.107 0 0 .047-.039.211-.039.275 0 .499-.222.5-.498s-.22-.5-.495-.502c-3.046-.031-8.225-.427-9.152-1.354l-4.5-4.5c-.113-.114-.272-.166-.434-.14-.159.026-.295.126-.367.27l-.44.881-1.39.926c-.135.091-.223.243-.223.416v.75l-1.8 1.35c-.187.14-.252.39-.157.603.239.537.452 1.144.457 1.297 0 .343.361 1.104 1.074 2.262.07.114.183.195.313.225.131.028.267.006.38-.065.074-.047 1.82-1.169 2.218-2.804.111-.456.263-.592.288-.603.053.009.226.178.226.484 0 1.007.708 4.889 1.038 5.69.255.62.462 2.446.462 3.31 0 .145-.048.495-.374 1.199-.182.396-.151.851.083 1.216s.634.584 1.069.584h1.222c.827 0 1.5-.673 1.5-1.5v-3.704c1.705-.917 3.744-1.661 4.245-1.366.389.23.784.772 1.202 1.346.636.873 1.357 1.862 2.399 2.2 1.48.48 2.154 1.127 2.154 1.524 0 1.268.673 1.5 2 1.5 1.103 0 2-.897 2-2 0-.526-.604-1.006-2.085-2.054zM22 20c-.804 0-.943-.097-.962-.116-.011-.017-.038-.088-.038-.384 0-.987-1.037-1.889-2.846-2.476-.733-.238-1.326-1.051-1.899-1.838-.48-.659-.934-1.281-1.5-1.617-.225-.133-.51-.189-.834-.189-1.516 0-3.868 1.237-4.665 1.683-.158.088-.256.255-.256.437v4c0 .276-.224.5-.5.5H7.278c-.133 0-.203-.086-.227-.124s-.073-.137-.017-.258c.313-.679.466-1.209.466-1.618 0-.809-.19-2.845-.538-3.69C6.709 13.694 6 9.935 6 9c0-.754-.486-1.403-1.107-1.478-.236-.028-1.044-.016-1.379 1.359-.199.818-.906 1.51-1.368 1.887-.326-.562-.619-1.123-.647-1.269 0-.324-.211-.907-.386-1.335l1.686-1.265c.122-.092.2-.237.2-.4v-.732l1.277-.852c.072-.049.13-.114.169-.19l.191-.382 4.009 4.009c1.213 1.213 6.239 1.533 8.639 1.617-.068.635.352 1.374.861 1.883.373.373.787 1.744 1.089 2.746.371 1.229.596 1.939.911 2.254.225.225.673.542 1.191.909s1.459 1.033 1.66 1.311c-.038.518-.471.927-.998.927z"/></svg>