<svg xmlns="http://www.w3.org/2000/svg" viewBox="0 0 24 24"><path fill="#5c6671" d="M12 3C5.271 3 0 5.636 0 9v6c0 3.364 5.271 6 12 6s12-2.636 12-6V9c0-3.364-5.271-6-12-6zm11 6c0 2.71-5.037 5-11 5-1.127 0-2.22-.082-3.252-.233l6.171-9.494c.016-.024.019-.051.03-.077C19.532 4.799 23 6.753 23 9zM12 4c.63 0 1.247.031 1.852.08l-6.175 9.5C3.792 12.799 1 11.017 1 9c0-2.71 5.037-5 11-5zm11 7.441V15c0 2.71-5.037 5-11 5S1 17.71 1 15v-3.559c.027.031.066.059.094.09.179.197.379.387.598.571.065.054.127.109.195.162.268.21.557.413.875.603.048.029.102.055.151.083.286.165.591.321.911.468.094.043.186.086.282.128.377.163.769.317 1.186.455.047.016.098.028.146.044.382.123.781.233 1.192.333.118.029.235.057.355.084.465.104.94.199 1.436.274.032.005.066.008.099.012.469.069.954.12 1.447.161.135.011.27.021.407.03.533.035 1.073.059 1.628.059s1.095-.024 1.628-.059c.214-.014.355-.024.495-.036.404-.034.889-.086 1.358-.155.033-.005.067-.008.099-.012.496-.075.972-.17 1.436-.274.12-.027.237-.055.354-.084.411-.101.81-.211 1.192-.333.048-.015.099-.028.146-.044.417-.138.809-.292 1.186-.455.096-.042.189-.085.282-.128.32-.148.625-.303.91-.468.049-.029.104-.055.152-.084.318-.191.606-.393.874-.603.068-.053.13-.108.195-.162.219-.184.419-.375.598-.572.028-.031.066-.058.093-.089z"/></svg>