<svg xmlns="http://www.w3.org/2000/svg" viewBox="0 0 24 24"><path fill="#5c6671" d="M17.5 0c-1.736 0-3.369.676-4.596 1.904l-11 11C.676 14.132 0 15.764 0 17.5 0 21.084 2.916 24 6.5 24c1.737 0 3.369-.676 4.597-1.904l10.999-10.999C23.324 9.869 24 8.237 24 6.5 24 2.916 21.084 0 17.5 0zm-7.11 21.389C9.351 22.428 7.97 23 6.5 23 3.467 23 1 20.533 1 17.5c0-1.469.572-2.85 1.611-3.889l5.146-5.146 7.778 7.778-5.146 5.146zM21.389 10.39l-5.146 5.146-7.778-7.778 5.146-5.146c1.039-1.039 2.42-1.611 3.889-1.611 3.033 0 5.5 2.467 5.5 5.5 0 1.469-.572 2.851-1.611 3.89zm-1.876-6.752c.226.159.28.471.121.697s-.471.279-.697.121c-.966-.681-2.366-.561-3.204.276l-3.094 3.094c-.098.098-.226.146-.354.146s-.256-.049-.354-.146c-.195-.195-.195-.512 0-.707l3.094-3.094c1.174-1.172 3.133-1.341 4.487-.387z"/></svg>