<svg xmlns="http://www.w3.org/2000/svg" viewBox="0 0 24 24"><path fill="#5c6671" d="M23.118 4.411L19.589.882C19.021.314 18.264 0 17.46 0c-1.383 0-2.584.938-2.92 2.28l-.491 1.964-4.581 4.581c-.515-.367-1.303-.737-2.255-.86-.961-.122-2.365-.02-3.566 1.182-.805.805-.813 2.164-.025 3.933.572 1.283 1.565 2.706 2.687 3.905L.147 23.147c-.195.195-.195.512 0 .707.098.098.226.146.354.146s.256-.049.354-.146l6.158-6.158c1.769 1.656 4.315 3.274 6.207 3.274.64 0 1.204-.185 1.635-.616 1.861-1.861 1.272-4.504.323-5.823l4.579-4.579 1.964-.49c1.343-.336 2.28-1.537 2.28-2.921 0-.805-.313-1.561-.882-2.129zm-1.64 4.079l-2.099.524c-.088.022-.168.067-.232.132l-5 5c-.195.195-.195.512 0 .707.682.683 1.683 3.109 0 4.793-.972.976-4.275-.482-6.793-3-1.182-1.182-2.236-2.668-2.819-3.976-.588-1.317-.654-2.345-.181-2.817.732-.732 1.567-.928 2.251-.928.17 0 .332.012.479.031.919.118 1.713.548 2.062.896.094.094.221.146.354.146s.26-.053.354-.146l5-5c.064-.064.109-.145.131-.232l.524-2.099c.225-.896 1.027-1.522 1.951-1.522.537 0 1.042.209 1.422.589l3.529 3.529c.38.38.589.885.589 1.422 0 .924-.626 1.727-1.522 1.95z"/></svg>