<svg xmlns="http://www.w3.org/2000/svg" viewBox="0 0 24 24"><path fill="#5c6671" d="M22.563 13.451c2.208-3.654 1.858-8.335-.911-11.103C20.012.707 17.709-.119 15.174.014c-2.426.129-4.768 1.154-6.425 2.812-2.911 2.911-4.77 8.801-3.102 12.605L.175 20.122c-.174.149-.225.398-.122.603.693 1.386 1.838 2.531 3.224 3.224.065.033.142.053.223.053.142 0 .282-.061.379-.175l4.692-5.475c1.008.445 2.126.652 3.286.652 2.219 0 4.558-.709 6.449-1.706.486 1.004 1.505 1.704 2.693 1.704 1.654 0 3-1.346 3-3 0-1.08-.579-2.02-1.437-2.549zm-19.18 9.418c-.929-.541-1.711-1.323-2.251-2.251l6.342-5.436 1.345 1.345-5.436 6.342zm5.865-5.307l.631-.737c.17-.198.159-.494-.026-.679l-2-2c-.186-.185-.481-.196-.679-.026l-.734.629c-.523-1.395-.54-3.099-.201-4.804l7.814 7.814c-1.665.335-3.373.342-4.805-.198zm5.939-.082L6.521 8.814c.596-2.056 1.662-4.007 2.936-5.281 1.485-1.485 3.588-2.403 5.771-2.52 2.252-.114 4.281.606 5.718 2.043 2.48 2.48 2.745 6.725.679 10.012-.202-.043-.41-.067-.624-.067-1.654 0-3 1.346-3 3 0 .106.021.207.031.311-.849.464-1.822.87-2.845 1.168zM21 18c-1.103 0-2-.897-2-2s.897-2 2-2 2 .897 2 2-.897 2-2 2z"/></svg>