<svg xmlns="http://www.w3.org/2000/svg" viewBox="0 0 24 24"><path fill="#5c6671" d="M24 4.5c0-.688-.361-1.33-.949-1.694-.025-.02-.052-.039-.081-.055C19.55.874 16.065 0 12 0 8.112 0 4.584.873 1.264 2.644c-.105.042-.205.094-.275.138l.218.45-.306-.4c-.563.373-.9.997-.9 1.669 0 1.103.897 2 2 2 .199 0 .395-.034.581-.091l8.974 17.321c.085.163.251.266.434.27h.011c.179 0 .345-.096.435-.252L22.31 6.47c.956-.15 1.692-.971 1.692-1.969zM12.021 22.455L3.484 5.978C6.112 4.619 8.761 4 11.999 4c3.366 0 6.253.724 9.087 2.279.03.017.063.03.097.04.016.007.032.009.048.016l-9.21 16.119zm9.535-17.066c-.016-.008-.035-.017-.055-.024C18.534 3.752 15.513 3 12 3c-3.572 0-6.469.71-9.411 2.313-.004.002-.007.001-.011.003s-.005.005-.008.007c-.01.006-.021.01-.032.016-.163.105-.35.161-.538.161-.552 0-1-.449-1-1 0-.336.169-.648.481-.849.048-.029.097-.057.201-.101C4.905 1.834 8.28 1 11.999 1c3.861 0 7.175.823 10.419 2.589.02.016.041.03.063.042.319.178.518.511.518.868-.001.7-.754 1.237-1.444.889zM10 8c0-1.103-.897-2-2-2s-2 .897-2 2 .897 2 2 2 2-.897 2-2zM8 9c-.552 0-1-.449-1-1s.448-1 1-1 1 .449 1 1-.448 1-1 1zm8-1c-1.103 0-2 .897-2 2s.897 2 2 2 2-.897 2-2-.897-2-2-2zm0 3c-.552 0-1-.449-1-1s.448-1 1-1 1 .449 1 1-.448 1-1 1zm-4 3c-1.103 0-2 .897-2 2s.897 2 2 2 2-.897 2-2-.897-2-2-2zm0 3c-.552 0-1-.449-1-1s.448-1 1-1 1 .449 1 1-.448 1-1 1zm-.9-8.7c-.165-.221-.12-.534.101-.7l2-1.5c.22-.166.533-.122.7.1.165.221.12.534-.101.7l-2 1.5c-.082.062-.187.1-.3.1-.151 0-.302-.069-.4-.2zm2.847 4.976c.123.247.023.547-.224.671-.072.036-.148.053-.224.053-.183 0-.359-.101-.447-.276l-1-2c-.123-.247-.023-.547.224-.671.248-.122.547-.023.671.224l1 2zM10 14c0 .276-.224.5-.5.5S9 14.276 9 14v-2.5c0-.276.224-.5.5-.5s.5.224.5.5V14zm8.947-6.276c-.088.175-.265.276-.447.276-.075 0-.151-.017-.224-.053l-2-1c-.247-.124-.347-.424-.224-.671s.424-.345.671-.224l2 1c.247.124.347.424.224.671z"/></svg>