<svg xmlns="http://www.w3.org/2000/svg" viewBox="0 0 24 24"><path fill="#5c6671" d="M11.5 6.5c0-.276.224-.5.5-.5 3.309 0 6 2.691 6 6 0 .276-.224.5-.5.5s-.5-.224-.5-.5c0-2.757-2.243-5-5-5-.276 0-.5-.224-.5-.5zm12.5 11c0 1.045-.424 1.85-1.227 2.327-.611.363-1.431.516-2.37.516-1.161 0-2.504-.233-3.862-.585-1.375.806-2.937 1.243-4.542 1.243-4.807 0-8.788-3.853-8.984-8.631C1.338 10.787-.001 9.037-.001 7.501c0-.817.329-1.519.952-2.029 1.137-.932 3.286-1.199 5.772-.736 1.508-1.094 3.337-1.735 5.276-1.735 4.962 0 9 4.038 9 9 0 .269-.035.533-.059.799 1.44 1.204 3.059 2.944 3.059 4.701zM12 4C8.934 4 6.159 5.763 4.822 8.503c1.325 1.478 3.949 3.617 6.35 4.922 2.307 1.254 5.5 2.321 7.636 2.746C19.579 14.916 20 13.486 20 12c0-4.411-3.589-8-8-8zm3.139 15.354c-2.425-.759-4.711-1.781-5.878-2.414-.892-.485-3.099-1.872-5.135-3.583.652 3.757 3.952 6.644 7.874 6.644 1.087 0 2.152-.225 3.139-.646zM23 17.5c0-.972-.807-2.237-2.24-3.538-.185.83-.486 1.625-.899 2.373.085.009.189.027.267.032.276.016.486.253.469.529-.016.266-.236.47-.499.47-.01 0-.02 0-.03-.001-2.238-.133-6.619-1.564-9.375-3.062-2.45-1.332-5.408-3.684-6.833-5.377-.009-.009-.014-.019-.022-.028-.168-.201-.326-.398-.446-.577-.154-.229-.093-.54.136-.694.193-.131.437-.099.604.047.429-.778.96-1.476 1.58-2.084-1.813-.215-3.345.014-4.127.654C1.191 6.567 1 6.977 1 7.499c0 2.539 5.603 6.856 8.739 8.561 2.678 1.455 10.083 4.356 12.523 2.907.503-.299.738-.766.738-1.467z"/></svg>