<svg xmlns="http://www.w3.org/2000/svg" viewBox="0 0 24 24"><path fill="#5c6671" d="M23.854 2.146l-2-2c-.152-.153-.384-.189-.577-.094L16.26 2.56c-.74.37-1.327.993-1.652 1.753l-.776 1.813c-.195-.174-.497-.169-.685.019l-1.908 1.908-1.146.325C6.284 9.469 2.979 11.885.79 15.173l-.351.506c-.287.449-.438.96-.438 1.479 0 1.017.566 1.932 1.476 2.387l.275.137c.261.134.555.203.854.203.201 0 .404-.031.603-.093.772-.258 1.292-.979 1.292-1.794v-.1c0-.171.047-.338.133-.474 1.456-2.32 3.514-4.19 5.951-5.409l1.59-.799c.174.229.386.421.614.595l-.806 1.605c-1.218 2.437-3.089 4.494-5.412 5.952-.133.084-.3.131-.471.131H6c-.816 0-1.537.52-1.797 1.3-.153.485-.112 1.013.109 1.444l.14.279c.456.911 1.37 1.477 2.387 1.477.519 0 1.03-.152 1.495-.449l.482-.335c3.296-2.194 5.713-5.5 6.804-9.31l.325-1.145 1.908-1.908c.188-.188.191-.487.016-.683l1.817-.778c.76-.325 1.383-.912 1.753-1.652l2.508-5.017c.096-.192.059-.425-.094-.577zm-8.327 2.561c.233-.543.652-.988 1.18-1.252l4.694-2.347.392.392-1.396 1.396c-.649-.229-1.544.044-2.258.758s-.987 1.609-.758 2.258l-.718.718c-.031-.022-.059-.048-.091-.069-.056-.038-.118-.066-.177-.1-.116-.069-.232-.137-.356-.19-.074-.032-.151-.053-.226-.079-.116-.04-.231-.079-.351-.106-.083-.019-.168-.028-.253-.04-.08-.011-.157-.032-.239-.037l.556-1.3zm4.112.447c-.534.535-1.126.652-1.286.493-.158-.158-.042-.751.493-1.286.391-.391.813-.558 1.073-.558.096 0 .17.022.212.065.157.158.042.751-.493 1.286zm-7.514 4.969l-1.989 1c-2.601 1.301-4.796 3.296-6.348 5.769-.189.296-.289.645-.289 1.009v.1c0 .385-.245.724-.601.843-.236.075-.487.058-.695-.05l-.28-.14c-.57-.285-.924-.857-.924-1.493 0-.328.097-.653.271-.925l.346-.499c2.063-3.099 5.171-5.371 8.75-6.396l1.27-.36c.082-.023.157-.067.217-.127l1.677-1.677c.125.047.266.044.391-.014.111-.051.23-.088.377-.115.702-.155 1.508.076 2.043.61.425.425.659.99.659 1.591 0 .156-.016.308-.053.474-.022.125-.059.245-.12.376-.305.741-.972 1.254-1.735 1.369-.417.063-.863-.005-1.296-.207-.042-.02-.085-.03-.127-.052-.373-.202-.677-.506-.879-.879-.128-.236-.42-.33-.664-.208zm2.535 3.509c-1.026 3.581-3.298 6.689-6.405 8.757l-.474.33c-.847.541-2.002.221-2.434-.643l-.143-.285c-.104-.203-.122-.455-.049-.683.121-.364.46-.608.845-.608h.1c.364 0 .713-.1 1.005-.287 2.476-1.553 4.471-3.749 5.771-6.349l.785-1.563c.045.016.091.02.136.034.067.021.133.034.2.05.172.043.344.074.517.088.033.002.065.002.098.003.123.006.247.022.369.013l-.323 1.141zm5.884-6.339c-.264.528-.709.947-1.252 1.18l-1.3.556c-.005-.081-.026-.159-.037-.239-.012-.085-.021-.17-.04-.253-.027-.12-.066-.235-.106-.351-.026-.076-.047-.153-.079-.226-.053-.123-.122-.24-.19-.356-.035-.059-.062-.12-.1-.177-.021-.031-.047-.06-.069-.091l.714-.714c.149.053.309.083.479.083.571 0 1.232-.294 1.784-.845.714-.714.987-1.609.758-2.258l1.396-1.396.392.392-2.347 4.694zM14.75 10c.414 0 .75-.336.75-.75s-.336-.75-.75-.75-.75.336-.75.75.336.75.75.75zm0-1c.138 0 .25.112.25.25 0 .275-.5.275-.5 0 0-.138.112-.25.25-.25z"/></svg>