<svg xmlns="http://www.w3.org/2000/svg" viewBox="0 0 24 24"><path fill="#5c6671" d="M23.853.146c-.195-.195-.512-.195-.707 0L19.5 3.792l-.068-.068c-.501-.501-1.297-.582-1.89-.187l-1.978 1.319-.2-.2c-.458-.459-1.153-.572-1.731-.281L4.759 8.812c-.728.364-1.219 1.033-1.35 1.835-.125.773.114 1.53.646 2.099L.441 16.439c-.585.585-.585 1.536 0 2.121.293.293.678.439 1.062.439s.766-.145 1.056-.435l3.69-3.611 2.801 2.801-3.607 3.686c-.585.585-.585 1.536 0 2.121.293.293.678.439 1.062.439s.766-.145 1.056-.435l3.696-3.617c.468.437 1.062.677 1.689.677.136 0 .272-.011.41-.033.803-.13 1.473-.622 1.837-1.35l4.437-8.874c.289-.578.176-1.274-.281-1.731l-.2-.2 1.319-1.978c.395-.592.316-1.387-.187-1.89l-.068-.068L23.859.855c.195-.195.195-.512 0-.707zm-22 17.708c-.195.195-.512.195-.707 0s-.195-.512.004-.711l3.603-3.682.785.785-3.686 3.607zm5 5c-.195.195-.512.195-.707 0s-.195-.512.004-.711l3.603-3.682.785.785-3.686 3.607zM18.73 9.921l-4.437 8.874c-.219.437-.62.732-1.103.81-.477.074-.954-.075-1.3-.42l-7.076-7.076c-.345-.345-.498-.819-.42-1.301s.373-.883.81-1.101l8.874-4.437c.065-.033.142-.053.223-.053h.001c.13 0 .257.05.353.146l3.98 3.98c.152.152.19.384.094.577zm.899-4.018l-1.208 1.812-2.138-2.137 1.812-1.208c.197-.131.461-.105.628.062l.844.844c.167.167.192.431.062.628zm-3.776 5.243c.195.195.195.512 0 .707-.098.098-.226.146-.354.146s-.256-.049-.354-.146l-3-3c-.195-.195-.195-.512 0-.707s.512-.195.707 0l3 3zm-2 2c.195.195.195.512 0 .707-.098.098-.226.146-.354.146s-.256-.049-.354-.146l-3-3c-.195-.195-.195-.512 0-.707s.512-.195.707 0l3 3z"/></svg>