<svg xmlns="http://www.w3.org/2000/svg" viewBox="0 0 24 24"><path fill="#5c6671" d="M12 0C5.383 0 0 5.383 0 12s5.383 12 12 12 12-5.383 12-12S18.617 0 12 0zm0 23C5.935 23 1 18.065 1 12S5.935 1 12 1s11 4.935 11 11-4.935 11-11 11zm7.5-13H14V4.5c0-.827-.673-1.5-1.5-1.5h-1c-.827 0-1.5.673-1.5 1.5V10H4.5c-.827 0-1.5.673-1.5 1.5v1c0 .827.673 1.5 1.5 1.5H10v5.5c0 .827.673 1.5 1.5 1.5h1c.827 0 1.5-.673 1.5-1.5V14h5.5c.827 0 1.5-.673 1.5-1.5v-1c0-.827-.673-1.5-1.5-1.5zm.5 2.5c0 .275-.225.5-.5.5h-6c-.276 0-.5.224-.5.5v6c0 .275-.225.5-.5.5h-1c-.275 0-.5-.225-.5-.5v-6c0-.276-.224-.5-.5-.5h-6c-.275 0-.5-.225-.5-.5v-1c0-.275.225-.5.5-.5h6c.276 0 .5-.224.5-.5v-6c0-.275.225-.5.5-.5h1c.275 0 .5.225.5.5v6c0 .276.224.5.5.5h6c.275 0 .5.225.5.5v1z"/></svg>