<svg xmlns="http://www.w3.org/2000/svg" viewBox="0 0 24 24"><path fill="#5c6671" d="M22 9h-7V2c0-1.103-.897-2-2-2h-2C9.897 0 9 .897 9 2v7H2c-1.103 0-2 .897-2 2v2c0 1.103.897 2 2 2h7v7c0 1.103.897 2 2 2h2c1.103 0 2-.897 2-2v-7h7c1.103 0 2-.897 2-2v-2c0-1.103-.897-2-2-2zm1 4c0 .552-.448 1-1 1h-7.5c-.276 0-.5.224-.5.5V22c0 .552-.448 1-1 1h-2c-.552 0-1-.448-1-1v-7.5c0-.276-.224-.5-.5-.5H2c-.552 0-1-.448-1-1v-2c0-.552.448-1 1-1h7.5c.276 0 .5-.224.5-.5V2c0-.552.448-1 1-1h2c.552 0 1 .448 1 1v7.5c0 .276.224.5.5.5H22c.552 0 1 .448 1 1v2z"/></svg>