<svg xmlns="http://www.w3.org/2000/svg" viewBox="0 0 20 24"><path fill="#5c6671" d="M9.447 4.776c.123.247.023.547-.224.671l-2 1c-.072.036-.148.053-.224.053-.183 0-.359-.101-.447-.276-.123-.247-.023-.547.224-.671l2-1c.248-.123.547-.024.671.224zM16.5 19H16v-.5c0-.276-.224-.5-.5-.5s-.5.224-.5.5v.5h-.5c-.276 0-.5.224-.5.5s.224.5.5.5h.5v.5c0 .276.224.5.5.5s.5-.224.5-.5V20h.5c.276 0 .5-.224.5-.5s-.224-.5-.5-.5zM17 4.5c0 .827-.673 1.5-1.5 1.5S14 5.327 14 4.5 14.673 3 15.5 3s1.5.673 1.5 1.5zm-1 0c0-.276-.225-.5-.5-.5s-.5.224-.5.5.225.5.5.5.5-.224.5-.5zm3.777 2.083l-1.712 1.141 1.658.829c.247.124.347.424.224.671-.088.175-.265.276-.447.276-.075 0-.151-.017-.224-.053L18 8.809v.882l1.724.862c.247.124.347.424.224.671-.088.175-.265.276-.447.276-.075 0-.151-.017-.224-.053l-1.276-.638v.882l1.724.862c.247.124.347.424.224.671-.088.175-.265.276-.447.276-.075 0-.151-.017-.224-.053l-1.276-.638v.882l1.724.862c.247.124.347.424.224.671-.088.175-.265.276-.447.276-.075 0-.151-.017-.224-.053l-1.276-.638v1.09l1.777 1.185c.139.093.223.249.223.416v3c0 1.93-1.57 3.5-3.5 3.5h-2c-1.93 0-3.5-1.57-3.5-3.5V8.327c-1.9.987-7.036 3.591-10.348 4.649C.61 12.991.557 13 .503 13c-.151 0-.286-.067-.378-.173-.131-.153-.159-.369-.07-.549l.182-.367c.711-1.435 1.184-2.999 1.645-4.608.233-.818.676-1.374 1.391-1.747L12.669.52c.017-.009.035-.009.052-.016.524-.314 1.13-.505 1.784-.505h2c1.93 0 3.5 1.57 3.5 3.5v2.667c0 .167-.084.323-.223.416zM11 7.198V3.5c0-.367.073-.715.178-1.047L3.736 6.441c-.479.25-.737.579-.897 1.138-.399 1.395-.809 2.758-1.374 4.056C4.984 10.321 9.829 7.814 11 7.199zM19 3.5C19 2.122 17.879 1 16.5 1h-2C13.121 1 12 2.122 12 3.5v17c0 1.378 1.121 2.5 2.5 2.5h2c1.379 0 2.5-1.122 2.5-2.5v-2.732l-1.777-1.185c-.139-.093-.223-.249-.223-.416V7.5c0-.167.084-.323.223-.416L19 5.899V3.5z"/></svg>