<svg xmlns="http://www.w3.org/2000/svg" viewBox="0 0 24 24"><path fill="#5c6671" d="M19.755 3.07c-.153-.092-.347-.093-.502-.005S19 3.32 19 3.5v7.722L9.389 1.611C8.351.572 6.97 0 5.5 0 2.468 0 0 2.467 0 5.5v13c0 4.627 5.371 5.486 5.426 5.495.022.003.048.005.074.005.119 0 .235-.042.326-.121.11-.095.174-.233.174-.379v-9.722l8.611 8.611C15.649 23.428 17.03 24 18.5 24c3.032 0 5.5-2.467 5.5-5.5v-10c0-2.876-4.071-5.327-4.245-5.43zM5 13v9.88c-1.233-.326-4-1.392-4-4.38V8.646c.183.261.381.513.611.743l3.426 3.426C5.014 12.872 5 12.934 5 13zm13.5 10c-1.202 0-2.332-.468-3.182-1.318l-13-13C1.467 7.832 1 6.702 1 5.5 1 3.019 3.019 1 5.5 1c1.202 0 2.332.468 3.182 1.318l13 13c.851.85 1.318 1.98 1.318 3.182 0 2.481-2.019 4.5-4.5 4.5zm3.889-8.389l-2.426-2.426c.023-.057.037-.119.037-.185V4.433c1.23.893 3 2.516 3 4.067v6.854c-.183-.261-.381-.513-.611-.743zM6.854 4.854l-.647.646.646.646c.195.195.195.512 0 .707-.098.098-.226.146-.354.146s-.256-.049-.354-.146l-.646-.647-.646.647c-.098.098-.226.146-.354.146s-.256-.049-.354-.146c-.195-.195-.195-.512 0-.707l.647-.646-.647-.646c-.195-.195-.195-.512 0-.707s.512-.195.707 0l.646.646.646-.646c.195-.195.512-.195.707 0s.195.512 0 .707zM2 15.5v-2c0-.276.224-.5.5-.5s.5.224.5.5v2c0 .276-.224.5-.5.5s-.5-.224-.5-.5z"/></svg>