<svg xmlns="http://www.w3.org/2000/svg" viewBox="0 0 16 24"><path fill="#5c6671" d="M15.836 13.627L.835.126C.688-.006.478-.036.297.041.116.122 0 .301 0 .498v20.001c0 .191.108.365.28.449.17.084.377.063.526-.055l4.033-3.137 3.22 5.98c.09.167.263.263.44.263.075 0 .152-.017.224-.053l4-2c.121-.061.212-.167.253-.296s.027-.27-.036-.389l-3.164-5.876 5.8-.893c.19-.029.348-.166.403-.352.013-.043.021-.092.021-.143 0-.147-.064-.28-.165-.372zm-6.912.878c-.16.024-.299.126-.371.271s-.07.316.007.46l3.256 6.046-3.106 1.553-3.27-6.074c-.07-.129-.193-.222-.337-.252-.034-.007-.069-.011-.104-.011-.11 0-.219.036-.307.105L.998 19.475V1.62L14.38 13.664l-5.458.84z"/></svg>