<svg xmlns="http://www.w3.org/2000/svg" viewBox="0 0 24 24"><path fill="#5c6671" d="M23.962 17.309a.4766.4766 0 0 0-.109-.163L21 14.293V2c0-1.103-.897-2-2-2H5C3.897 0 3 .897 3 2v12.293L.147 17.146c-.046.046-.083.102-.109.163S0 17.435 0 17.5V22c0 1.103.897 2 2 2h20c1.103 0 2-.897 2-2v-4.5c0-.065-.013-.13-.038-.191zM3.707 15h16.586l2 2H1.707l2-2zM4 2c0-.551.449-1 1-1h14c.551 0 1 .449 1 1v12H4V2zm19 20c0 .551-.449 1-1 1H2c-.551 0-1-.449-1-1v-4h22v4zM3.5 22h17c.276 0 .5-.224.5-.5v-2c0-.276-.224-.5-.5-.5h-17c-.276 0-.5.224-.5.5v2c0 .276.224.5.5.5zm.5-2h16v1H4v-1zm8-17C9.243 3 7 5.243 7 8s2.243 5 5 5 5-2.243 5-5-2.243-5-5-5zm0 9c-2.206 0-4-1.794-4-4s1.794-4 4-4 4 1.794 4 4-1.794 4-4 4zm7-9.5v1c0 .276-.224.5-.5.5h-1c-.276 0-.5-.224-.5-.5v-1c0-.276.224-.5.5-.5h1c.276 0 .5.224.5.5zM6 2c-.551 0-1 .449-1 1s.449 1 1 1 1-.449 1-1-.449-1-1-1zm0 1v-.001L6.5 3H6zm6.5 2.5c0 .276-.224.5-.5.5-1.103 0-2 .897-2 2 0 .276-.224.5-.5.5S9 8.276 9 8c0-1.654 1.346-3 3-3 .276 0 .5.224.5.5z"/></svg>