<svg xmlns="http://www.w3.org/2000/svg" viewBox="0 0 24 24"><path fill="#5c6671" d="M20.5 0c-.276 0-.5.224-.5.5v1c0 .078.019.154.053.224l.389.776-.389.779c-.002.004-.001.009-.003.013-.03.064-.05.134-.05.21v.56c0 .586-.42 1.077-.999 1.168H19V3.499c0-.078-.019-.154-.053-.224l-.389-.776.389-.779c.035-.069.053-.146.053-.223V.499c0-.276-.224-.5-.5-.5-1.379 0-2.5 1.122-2.5 2.5v3.204l-3.75.592c-.974.154-1.857.604-2.555 1.301L8.5 8.792l-.646-.646c-.143-.143-.358-.186-.545-.108S7 8.298 7 8.5v1.793l-6.439 6.44c-.356.356-.561.85-.561 1.353C0 19.142.858 20 1.914 20c.505 0 .998-.205 1.354-.561l7.586-7.586c.195-.195.195-.512 0-.707L10.708 11l.592-.591c.293-.293.662-.491 1.068-.572l3.504-.701c-.099.279-.251.537-.464.749l-3.407 3.408-.146-.146c-.195-.195-.512-.195-.707 0l-7.586 7.586c-.356.356-.561.85-.561 1.353 0 1.056.858 1.914 1.914 1.914.505 0 .998-.205 1.354-.561L12.708 17h1.793c.202 0 .385-.122.462-.309s.034-.402-.108-.545l-.646-.646 3.415-3.415c.889-.889 1.378-2.07 1.378-3.327V8.51l1.427-.285c.863-.173 1.648-.593 2.271-1.216.84-.84 1.302-1.956 1.302-3.143V3.5c0-1.93-1.57-3.5-3.5-3.5zm-8 16c-.138 0-.263.056-.353.146l-6.586 6.586c-.17.169-.405.267-.646.267-.504 0-.914-.41-.914-.914 0-.24.098-.476.268-.646l7.232-7.232L13.294 16h-.793zM18 8.758c0 .989-.386 1.919-1.085 2.62L13.5 14.793 12.707 14l3.407-3.408c.457-.457.75-1.04.847-1.674L18 8.71v.048zm3-5.138l.447-.896c.033-.065.053-.142.053-.223s-.019-.158-.054-.226L21 1.383v-.296c.582.207 1 .763 1 1.415s-.418 1.208-1 1.415v-.295zM17.5 7zM17 2.5c0-.652.418-1.208 1-1.415v.295l-.447.896c-.033.065-.053.142-.053.223s.019.158.054.226l.446.892v1.77l-1 .158V2.499zM2.561 18.733c-.17.169-.405.267-.647.267C1.41 19 1 18.59 1 18.086c0-.24.098-.476.268-.646l6.586-6.586c.09-.09.146-.215.146-.353v-.793l1.793 1.793-7.232 7.233zm9.611-9.877c-.601.12-1.147.412-1.58.846l-.592.591-.793-.793 1.195-1.196c.547-.546 1.24-.899 2.004-1.021l4.169-.658c-.047.116-.076.242-.076.374 0 .387.227.714.55.88l-4.878.976zM23 3.866c0 .906-.368 1.794-1.009 2.436-.482.482-1.092.809-1.76.942l-1.98.396c.149-.175.248-.393.248-.64s-.099-.464-.247-.639l.905-.143c.747-.118 1.343-.601 1.639-1.248 1.072-.129 1.941-.926 2.153-1.97.032.15.051.323.051.5v.366z"/></svg>