<svg xmlns="http://www.w3.org/2000/svg" viewBox="0 0 24 24"><path fill="#5c6671" d="M12 0C5.383 0 0 5.383 0 12s5.383 12 12 12 12-5.383 12-12S18.617 0 12 0zm0 23C5.935 23 1 18.065 1 12S5.935 1 12 1s11 4.935 11 11-4.935 11-11 11zm0-16.771c-3.182 0-5.77 2.589-5.77 5.771s2.589 5.771 5.77 5.771c3.183 0 5.771-2.589 5.771-5.771S15.182 6.229 12 6.229zm0 10.542c-2.631 0-4.771-2.14-4.771-4.771S9.369 7.229 12 7.229s4.771 2.14 4.771 4.771S14.63 16.771 12 16.771zm1.17-5.346c.179-.242.289-.539.289-.862 0-.804-.654-1.458-1.459-1.458s-1.458.654-1.458 1.458c0 .323.109.62.288.862-.463.354-.768.907-.768 1.534 0 1.068.869 1.938 1.938 1.938s1.938-.869 1.938-1.938c0-.627-.304-1.179-.767-1.534zm-1.628-.862c0-.253.205-.459.458-.459s.459.206.459.459-.206.459-.459.459-.458-.206-.458-.459zM12 13.896c-.517 0-.938-.42-.938-.938s.421-.938.938-.938.938.42.938.938-.421.938-.938.938z"/></svg>