<svg xmlns="http://www.w3.org/2000/svg" viewBox="0 0 24 24"><path fill="#5c6671" d="M7.5 19c.276 0 .5-.224.5-.5V16h4v2.5c0 .276.224.5.5.5s.5-.224.5-.5v-13c0-.827.673-1.5 1.5-1.5.276 0 .5-.224.5-.5s-.224-.5-.5-.5C13.122 3 12 4.122 12 5.5V6H8v-.5C8 4.673 8.673 4 9.5 4c.276 0 .5-.224.5-.5S9.776 3 9.5 3C8.122 3 7 4.122 7 5.5v13c0 .276.224.5.5.5zm4.5-7H8v-2h4v2zm-4 3v-2h4v2H8zm4-8v2H8V7h4zM.116 13.82c-.177-.212-.148-.528.064-.705s.525-.148.702.062c.034.04.731.823 2.118.823 1.393 0 2.089-.79 2.119-.823.179-.207.494-.234.703-.057s.238.489.063.7C5.844 13.868 4.88 15 3.001 15S.157 13.868.117 13.82zm23.706-.7c.209.178.238.489.063.7-.041.048-1.005 1.18-2.884 1.18-1.19 0-2.011-.453-2.465-.798-.385.353-1.06.798-2.035.798-1.583 0-2.383-1.173-2.416-1.223-.153-.23-.091-.54.139-.693.23-.152.538-.091.691.136.023.034.552.78 1.586.78 1.036 0 1.564-.749 1.586-.781.013-.018.032-.029.047-.045.017-.019.027-.042.047-.058.01-.008.022-.01.032-.017.021-.015.044-.025.067-.036.037-.019.073-.036.112-.045.02-.004.039-.004.059-.006.044-.004.086-.007.129 0 .021.003.04.011.06.017.042.012.082.027.12.05.007.004.015.004.021.009.015.01.023.025.036.037.022.018.047.03.066.053.034.04.731.823 2.118.823 1.393 0 2.089-.79 2.119-.823.178-.207.494-.234.703-.057zM.116 10.82c-.177-.212-.148-.528.064-.705s.525-.147.702.062c.034.04.731.823 2.118.823 1.393 0 2.089-.79 2.119-.823.179-.208.494-.234.703-.057s.238.489.063.7C5.844 10.868 4.88 12 3.001 12S.157 10.868.117 10.82zm14.798-.6c.023.034.552.78 1.586.78 1.036 0 1.564-.749 1.586-.781.013-.018.032-.029.047-.045.017-.019.027-.042.047-.058.01-.008.022-.01.032-.017.021-.015.044-.025.067-.036.037-.019.073-.036.113-.045.019-.004.038-.004.058-.006.044-.004.086-.007.129 0 .021.003.04.011.061.017.042.012.081.027.119.05.007.004.015.004.022.009.015.01.023.026.037.037.022.018.047.03.066.052.034.04.731.823 2.118.823 1.393 0 2.089-.79 2.119-.823.178-.209.494-.234.703-.057s.238.489.063.7c-.041.048-1.005 1.18-2.884 1.18-1.19 0-2.011-.453-2.465-.798-.385.353-1.06.798-2.035.798-1.583 0-2.383-1.173-2.416-1.223-.153-.23-.091-.54.139-.693.23-.151.538-.09.691.136zM.116 16.82c-.177-.212-.148-.528.064-.705s.525-.148.702.062c.034.04.731.823 2.118.823 1.393 0 2.089-.79 2.119-.823.179-.208.494-.234.703-.057s.238.489.063.7C5.844 16.868 4.88 18 3.001 18S.157 16.868.117 16.82zm23.706-.7c.209.178.238.489.063.7-.041.048-1.005 1.18-2.884 1.18-1.19 0-2.011-.453-2.465-.798-.385.353-1.06.798-2.035.798-1.583 0-2.383-1.173-2.416-1.223-.153-.23-.091-.54.139-.693.23-.151.538-.091.691.136.023.034.552.78 1.586.78 1.036 0 1.564-.749 1.586-.781.013-.019.032-.029.047-.045.017-.019.027-.042.047-.058.009-.008.021-.01.031-.017.022-.016.046-.026.07-.038.036-.018.07-.035.109-.043.021-.005.042-.005.064-.007.042-.004.083-.006.124 0 .021.003.041.012.062.018.041.012.081.026.118.049.007.004.015.004.021.009.015.01.023.026.036.037.022.018.047.03.066.052.034.04.731.823 2.118.823 1.393 0 2.089-.79 2.119-.823.178-.208.494-.234.703-.057zm0 3c.209.178.238.489.063.7-.041.048-1.005 1.18-2.884 1.18-1.19 0-2.011-.453-2.465-.798-.385.353-1.06.798-2.035.798s-1.651-.445-2.035-.798c-.454.345-1.275.798-2.465.798s-2.011-.453-2.465-.798c-.385.353-1.06.798-2.035.798s-1.651-.445-2.035-.798c-.454.345-1.275.798-2.465.798-1.879 0-2.844-1.132-2.884-1.18-.177-.212-.148-.528.064-.705s.525-.148.702.062c.034.04.731.823 2.118.823 1.393 0 2.089-.79 2.119-.823.015-.017.035-.026.052-.04.018-.017.031-.038.052-.052.01-.006.021-.007.031-.013.026-.015.053-.023.081-.033.034-.012.067-.024.103-.029.025-.003.05 0 .076 0 .039.001.076.003.113.013.023.006.043.017.065.026.039.016.075.034.109.06.006.005.014.006.021.011.014.012.02.028.032.041.02.02.044.035.06.059.023.034.552.78 1.586.78 1.036 0 1.564-.749 1.586-.781.013-.018.032-.029.047-.045.017-.019.027-.042.047-.059.01-.008.022-.01.032-.017.021-.015.043-.024.065-.036.038-.019.075-.037.115-.045.018-.004.036-.004.054-.006.045-.005.089-.007.134 0 .019.003.036.011.055.016.043.012.084.027.123.051.007.004.014.004.021.009.015.01.023.025.036.036.022.018.048.03.067.053.034.04.731.823 2.118.823 1.393 0 2.089-.79 2.119-.823.015-.017.036-.026.052-.041.018-.017.031-.038.052-.052.01-.006.021-.007.031-.013.027-.015.054-.024.083-.034.034-.012.067-.024.102-.028.025-.003.05 0 .076 0 .039.001.077.003.114.013.022.006.042.017.063.026.039.016.076.034.11.061.006.005.014.006.02.011.014.012.02.028.032.04.02.02.044.035.06.059.023.034.552.78 1.586.78 1.036 0 1.564-.749 1.586-.781.013-.019.032-.029.047-.045.017-.019.027-.042.047-.058.01-.008.021-.01.031-.017.021-.015.044-.025.067-.036.037-.019.074-.036.113-.045.018-.004.036-.004.055-.006.045-.005.089-.007.134 0 .019.003.036.01.055.016.043.012.085.028.124.052.007.004.014.004.021.009.015.01.023.025.036.036.022.018.048.03.067.053.034.04.731.823 2.118.823 1.393 0 2.089-.79 2.119-.823.178-.208.494-.234.703-.057z"/></svg>