<svg xmlns="http://www.w3.org/2000/svg" viewBox="0 0 18 24"><path fill="#5c6671" d="M17.637 20.019l-2.961-.842c-.129-.036-.27-.02-.387.048s-.202.18-.235.311c-.027.109-.137.464-.387.464-.431 0-1.142-.372-1.83-.731C10.7 18.674 9.413 18 7.833 18c-.181 0-.355.003-.522.01.901-1.641 1.356-2.987 1.356-4.01H12.5c.215 0 .406-.138.474-.342l1-3c.051-.152.025-.32-.068-.451-.092-.126-.239-.207-.406-.208H7.342c-.511-1.018-1.009-2.061-1.009-3 0-1.266 0-3 3.834-3 3.572 0 3.82 1.706 3.834 2.048.01.272.203.485.509.48l2.991-.028c.276 0 .5-.224.5-.5 0-2.075-1.637-6-7.833-6-4.979 0-7.834 2.551-7.834 7 0 1.144.289 2.162.615 3H.501c-.276 0-.5.224-.5.5v3c0 .276.224.5.5.5h4.167c0 .958-2.737 4.84-4.523 6.649-.178.18-.193.465-.035.664l2 2.5c.098.122.243.188.391.188.084 0 .168-.021.245-.064l1.171-.66C6.109 22.17 6.446 22 7.834 22c.595 0 1.35.395 2.157.817 1.062.555 2.266 1.183 3.677 1.183 2.83 0 4.064-2.219 4.321-3.393.057-.258-.097-.516-.352-.588zM13.667 23c-1.166 0-2.254-.568-3.221-1.073C9.534 21.45 8.674 21 7.833 21c-1.625 0-2.098.238-4.389 1.395l-.819.461-1.462-1.828C2.744 19.315 5.667 15.442 5.667 14c0-.181-.035-.385-.111-.642-.063-.212-.258-.358-.479-.358H1v-2h2.702c.17 0 .328-.086.42-.229s.105-.322.036-.477C3.774 9.442 3.333 8.297 3.333 7c0-4.959 3.716-6 6.834-6 4.919 0 6.544 2.709 6.796 4.5l-2.039.02C14.694 4.625 13.779 3 10.166 3 5.332 3 5.332 5.702 5.332 7c0 1.232.613 2.452 1.207 3.631l.447-.225-.401.317c.085.169.258.276.447.276h5.774l-.666 2H8.112c-.143 0-.28.062-.375.169-.078.088-.125.204-.125.331 0 .022.001.043.004.064l.022.157c.014.093.03.185.03.279 0 .993-.586 2.491-1.696 4.331-.045.074-.072.163-.072.258 0 .103.031.198.084.278.105.159.293.246.486.217.4-.057.846-.084 1.364-.084 1.334 0 2.506.614 3.541 1.155.831.434 1.617.845 2.293.845.561 0 .943-.331 1.168-.738l2.036.579c-.369.923-1.337 2.159-3.204 2.159z"/></svg>