<svg xmlns="http://www.w3.org/2000/svg" viewBox="0 0 20 24"><path fill="#5c6671" d="M10 14c1.103 0 2-.897 2-2V2c0-1.103-.897-2-2-2S8 .897 8 2v10c0 1.103.897 2 2 2zM9 2c0-.552.449-1 1-1s1 .448 1 1v10c0 .552-.449 1-1 1s-1-.448-1-1V2zm4.685 2.709c-.153-.061-.328-.042-.465.051s-.219.248-.219.414v3.354c0 .17.087.329.23.421 1.734 1.111 2.77 3 2.77 5.051 0 3.309-2.691 6-6 6s-6-2.691-6-6c0-2.051 1.036-3.939 2.77-5.051.143-.092.23-.251.23-.421V5.174c0-.166-.082-.32-.219-.414s-.312-.112-.465-.051C2.481 6.232.002 9.879.002 14c0 5.514 4.486 10 10 10s10-4.486 10-10c0-4.121-2.479-7.768-6.315-9.291zM10 23c-4.962 0-9-4.037-9-9 0-3.457 1.939-6.544 5-8.057v2.318c-1.884 1.313-3 3.438-3 5.738 0 3.859 3.14 7 7 7s7-3.141 7-7c0-2.301-1.116-4.426-3-5.738V5.943c3.061 1.513 5 4.6 5 8.057 0 4.963-4.038 9-9 9z"/></svg>