<svg xmlns="http://www.w3.org/2000/svg" viewBox="0 0 24 24"><path fill="#5c6671" d="M22 2h-8V.5c0-.276-.224-.5-.5-.5h-3c-.276 0-.5.224-.5.5V2H2C.897 2 0 2.897 0 4v14c0 1.103.897 2 2 2h5.691l-1.638 3.276c-.123.247-.023.547.224.671.072.036.148.053.224.053.183 0 .359-.101.447-.276L8.81 20h6.382l1.862 3.724c.088.175.265.276.447.276.075 0 .151-.017.224-.053.247-.124.347-.424.224-.671L16.311 20h5.691c1.103 0 2-.897 2-2V4c0-1.103-.897-2-2-2zM11 1h2v1h-2V1zm12 17c0 .551-.448 1-1 1H2c-.552 0-1-.449-1-1V4c0-.551.448-1 1-1h20c.552 0 1 .449 1 1v14z"/></svg>