<svg xmlns="http://www.w3.org/2000/svg" viewBox="0 0 24 24"><path fill="#5c6671" d="M23.5 10c.276 0 .5-.224.5-.5s-.224-.5-.5-.5H21V6h2.5c.276 0 .5-.224.5-.5s-.224-.5-.5-.5h-2.501c-.008-1.096-.901-1.985-1.999-1.985V.5c0-.276-.224-.5-.5-.5s-.5.224-.5.5v2.515h-3V.5c0-.276-.224-.5-.5-.5s-.5.224-.5.5v2.515h-4V.5c0-.276-.224-.5-.5-.5S9 .224 9 .5v2.515H6V.5c0-.276-.224-.5-.5-.5S5 .224 5 .5v2.516C3.909 3.024 3.024 3.909 3.016 5H.5c-.276 0-.5.224-.5.5s.224.5.5.5h2.515v3H.5c-.276 0-.5.224-.5.5s.224.5.5.5h2.515v4H.5c-.276 0-.5.224-.5.5s.224.5.5.5h2.515v3H.5c-.276 0-.5.224-.5.5s.224.5.5.5h2.515c0 1.098.889 1.99 1.985 1.999V23.5c0 .276.224.5.5.5s.5-.224.5-.5V21h3v2.5c0 .276.224.5.5.5s.5-.224.5-.5V21h4v2.5c0 .276.224.5.5.5s.5-.224.5-.5V21h3v2.5c0 .276.224.5.5.5s.5-.224.5-.5V21c1.103 0 2-.897 2-2h2.5c.276 0 .5-.224.5-.5s-.224-.5-.5-.5H21v-3h2.5c.276 0 .5-.224.5-.5s-.224-.5-.5-.5H21v-4h2.5zM20 19c0 .551-.449 1-1 1H5.015c-.551 0-1-.449-1-1V5.015c0-.551.449-1 1-1H19c.551 0 1 .449 1 1V19zM16.854 5.146c-.09-.09-.215-.146-.353-.146h-11c-.276 0-.5.224-.5.5v13c0 .276.224.5.5.5h13c.276 0 .5-.224.5-.5v-11c0-.138-.056-.263-.146-.353l-2-2zM18 18H6V6h10.293L18 7.707V18zm-2.146-2.854c.195.195.195.512 0 .707-.098.098-.226.146-.354.146s-.256-.049-.354-.146l-7-7c-.195-.195-.195-.512 0-.707s.512-.195.707 0l7 7zm-5 0c.195.195.195.512 0 .707-.098.098-.226.146-.354.146s-.256-.049-.354-.146l-2-2c-.195-.195-.195-.512 0-.707s.512-.195.707 0l2 2zm5-5c.195.195.195.512 0 .707-.098.098-.226.146-.354.146s-.256-.049-.354-.146l-2-2c-.195-.195-.195-.512 0-.707s.512-.195.707 0l2 2z"/></svg>