<svg xmlns="http://www.w3.org/2000/svg" viewBox="0 0 24 24"><path fill="#5c6671" d="M22 6h-3c-.009 0-.016.005-.025.005C18.141 5.382 17.118 5 16 5s-2.141.382-2.975 1.005C13.016 6.005 13.009 6 13 6H2C.897 6 0 6.897 0 8v7c0 1.103.897 2 2 2v1.5c0 .276.224.5.5.5h4c.276 0 .5-.224.5-.5V17h10v1.5c0 .276.224.5.5.5h4c.276 0 .5-.224.5-.5V17c1.103 0 2-.897 2-2V8c0-1.103-.897-2-2-2zm-2 4c0 2.206-1.794 4-4 4s-4-1.794-4-4 1.794-4 4-4 4 1.794 4 4zM6 18H3v-1h3v1zm15 0h-3v-1h3v1zm2-3c0 .551-.449 1-1 1H2c-.551 0-1-.449-1-1V8c0-.551.449-1 1-1h10.026C11.391 7.838 11 8.87 11 10c0 2.757 2.243 5 5 5s5-2.243 5-5c0-1.13-.391-2.162-1.026-3H22c.551 0 1 .449 1 1v7zm-10-5c0-1.654 1.346-3 3-3 .276 0 .5.224.5.5s-.224.5-.5.5c-1.103 0-2 .897-2 2 0 .276-.224.5-.5.5s-.5-.224-.5-.5zM3 9.5c0-.276.224-.5.5-.5h5c.276 0 .5.224.5.5s-.224.5-.5.5h-5c-.276 0-.5-.224-.5-.5zm0 2c0-.276.224-.5.5-.5h5c.276 0 .5.224.5.5s-.224.5-.5.5h-5c-.276 0-.5-.224-.5-.5zm7 2c0 .276-.224.5-.5.5h-6c-.276 0-.5-.224-.5-.5s.224-.5.5-.5h6c.276 0 .5.224.5.5z"/></svg>