<svg xmlns="http://www.w3.org/2000/svg" viewBox="0 0 24 24"><path fill="#5c6671" d="M24 12.5c0 .276-.224.5-.5.5h-3.633l-2.39 7.649c-.065.209-.26.351-.478.351-.008 0-.017 0-.025-.001-.228-.011-.418-.175-.464-.398L13.471 5.845l-2.484 10.768c-.051.22-.242.378-.467.388-.221.02-.429-.134-.497-.349L6.972 7.064 4.97 12.668c-.071.199-.26.332-.471.332h-4c-.276 0-.5-.224-.5-.5s.224-.5.5-.5h3.647l2.382-6.668c.072-.202.283-.325.479-.332.215.004.402.144.468.349l2.946 9.261 2.59-11.222c.053-.228.255-.388.487-.388h.006c.235.003.437.169.483.399l3.11 15.105 1.923-6.154c.065-.208.259-.351.478-.351h4c.276 0 .5.224.5.5z"/></svg>