<svg xmlns="http://www.w3.org/2000/svg" viewBox="0 0 24 24"><path fill="#5c6671" d="M24 7V6c0-1.103-.897-2-2-2h-7c-.676 0-1.409-.244-2.065-.566.294-.231.539-.467.722-.695.24.164.531.261.843.261.827 0 1.5-.673 1.5-1.5S15.327 0 14.5 0 13 .673 13 1.5c0 .108.012.212.034.313-.014.046-.029.091-.029.143-.059.186-.453.557-1.006.933-.542-.369-.93-.733-1-.922-.003-.051-.02-.097-.037-.142.023-.105.038-.213.038-.326 0-.827-.673-1.5-1.5-1.5S8 .672 8 1.499s.673 1.5 1.5 1.5c.312 0 .603-.096.843-.261.183.228.428.464.722.695-.655.322-1.389.566-2.065.566H2c-1.103 0-2 .897-2 2v1c0 1.034.792 1.878 1.8 1.98-.534 1.554-1.8 5.556-1.8 8.52 0 3.706 3.01 6.5 7 6.5h10c3.99 0 7-2.794 7-6.5 0-2.964-1.266-6.966-1.8-8.52 1.008-.102 1.8-.945 1.8-1.98zm-9.5-6c.275 0 .5.224.5.5s-.225.5-.5.5-.5-.224-.5-.5.225-.5.5-.5zm-5 1c-.275 0-.5-.224-.5-.5s.225-.5.5-.5.5.224.5.5-.225.5-.5.5zM17 23H7c-2.908 0-6-1.928-6-5.5 0-3.492 1.949-8.773 1.969-8.826S3 8.562 3 8.5v-1c0-.276.225-.5.5-.5h17c.275 0 .5.224.5.5v1c0 .063.012.123.032.178C21.05 8.727 23 14.006 23 17.5c0 3.572-3.092 5.5-6 5.5zm6-16c0 .551-.448 1-1 1v-.5c0-.827-.673-1.5-1.5-1.5h-17C2.673 6 2 6.673 2 7.5V8c-.552 0-1-.449-1-1V6c0-.551.448-1 1-1h20c.552 0 1 .449 1 1v1z"/></svg>