<svg xmlns="http://www.w3.org/2000/svg" viewBox="0 0 24 24"><path fill="#5c6671" d="M21.5 9c-.967 0-1.476.396-1.848.685-.191.149-.318.244-.459.288-.079-.564.141-2.271.752-4.696.037-.144.055-.288.055-.443 0-1.011-.822-1.833-1.833-1.833H14.5c-.57 0-1.188.063-1.452.53-.277.493.04 1.016.376 1.569.27.446.576.951.576 1.4 0 .827-.897 1.5-2 1.5s-2-.673-2-1.5c0-.449.307-.954.576-1.4.336-.554.653-1.076.376-1.569-.264-.467-.882-.53-1.452-.53H5.833C4.822 3.001 4 3.823 4 4.834c0 .155.018.3.055.441.611 2.428.831 4.134.752 4.698-.141-.044-.268-.139-.459-.288C3.976 9.396 3.467 9 2.5 9 1.121 9 0 10.346 0 12s1.121 3 2.5 3c.967 0 1.476-.396 1.848-.685.191-.149.318-.244.459-.287.079.563-.141 2.269-.752 4.695-.037.144-.055.288-.055.443 0 1.011.822 1.833 1.833 1.833H9.5c.57 0 1.188-.063 1.452-.53.277-.493-.04-1.016-.376-1.569-.27-.446-.576-.951-.576-1.4 0-.827.897-1.5 2-1.5s2 .673 2 1.5c0 .449-.307.954-.576 1.4-.336.554-.653 1.076-.376 1.569.264.467.882.53 1.452.53h3.667c1.011 0 1.833-.822 1.833-1.833 0-.155-.018-.3-.055-.441-.611-2.428-.831-4.135-.752-4.697.141.043.268.138.459.287.372.289.881.685 1.848.685 1.379 0 2.5-1.346 2.5-3s-1.121-3-2.5-3zm0 5c-.624 0-.906-.22-1.233-.475C19.95 13.279 19.591 13 19 13c-.225 0-.426.101-.568.282-.166.213-.671.862.545 5.689.016.063.023.124.023.195 0 .459-.374.833-.833.833H14.5c-.271 0-.432-.021-.522-.042.063-.146.202-.375.302-.539.321-.53.721-1.19.721-1.919 0-1.379-1.346-2.5-3-2.5s-3 1.121-3 2.5c0 .729.399 1.389.721 1.919.1.164.238.393.302.539-.091.021-.251.042-.522.042H5.835c-.459 0-.833-.374-.833-.833 0-.071.008-.133.023-.197 1.216-4.825.711-5.475.545-5.688-.143-.182-.344-.282-.568-.282-.591 0-.949.279-1.267.525-.327.255-.609.475-1.233.475-.827 0-1.5-.897-1.5-2s.673-2 1.5-2c.624 0 .906.22 1.233.475.317.246.676.525 1.267.525.225 0 .426-.101.568-.282.166-.214.672-.863-.545-5.689-.016-.063-.023-.124-.023-.195 0-.459.374-.833.833-.833h3.667c.271 0 .432.021.522.042-.063.146-.202.375-.302.539-.321.53-.721 1.19-.721 1.919 0 1.379 1.346 2.5 3 2.5s3-1.121 3-2.5c0-.729-.399-1.389-.721-1.919-.1-.164-.238-.393-.302-.539.091-.021.251-.042.522-.042h3.667c.459 0 .833.374.833.833 0 .071-.008.133-.023.197-1.217 4.824-.711 5.474-.545 5.688.143.182.344.282.568.282.591 0 .949-.279 1.267-.525.327-.255.609-.475 1.233-.475.827 0 1.5.897 1.5 2s-.673 2-1.5 2z"/></svg>