<svg xmlns="http://www.w3.org/2000/svg" viewBox="0 0 16 24"><path fill="#5c6671" d="M8 19c-1.379 0-2.5 1.121-2.5 2.5S6.621 24 8 24s2.5-1.121 2.5-2.5S9.379 19 8 19zm0 4c-.827 0-1.5-.673-1.5-1.5S7.173 20 8 20s1.5.673 1.5 1.5S8.827 23 8 23zM8 0C3.589 0 0 2.804 0 6.25V7c0 1.103.897 2 2 2h1.5c1.103 0 2-.897 2-2v-.354c0-.458.175-.867.469-1.094.468-.361 1.17-.553 2.031-.553 1.091 0 2.323.292 2.513 1.112.231 1.003-.366 1.566-1.532 2.557-1.469 1.248-3.48 2.957-3.48 6.831v.5c0 1.103.897 2 2 2h1c1.103 0 2-.897 2-2v-.5c0-1.573 1.209-2.754 2.488-4.003 1.412-1.378 3.012-2.94 3.012-5.247 0-3.446-3.589-6.25-8-6.25zm4.29 10.781C10.918 12.12 9.5 13.505 9.5 15.5v.5c0 .552-.448 1-1 1h-1c-.552 0-1-.448-1-1v-.5c0-3.411 1.662-4.823 3.128-6.069 1.151-.978 2.238-1.901 1.859-3.543C11.215 4.706 9.911 4 8 4c-1.085 0-1.999.264-2.643.762-.545.42-.857 1.107-.857 1.885v.354c0 .552-.448 1-1 1H2c-.552 0-1-.448-1-1v-.75c0-2.895 3.141-5.25 7-5.25s7 2.355 7 5.25c0 1.886-1.316 3.171-2.71 4.531z"/></svg>