<svg xmlns="http://www.w3.org/2000/svg" viewBox="0 0 22 24"><path fill="#5c6671" d="M20.896 23.195c.168.219.127.533-.092.701-.091.07-.198.104-.305.104-.149 0-.298-.067-.396-.195-.267-.346-2.604-3.438-2.604-5.305 0-.755.463-1.458 1.05-2.348 1.034-1.568 2.45-3.715 2.45-7.652 0-2.615-2.64-7.5-9-7.5-6.194 0-9 4.986-9 6.5 0 1.53.202 2.372.204 2.38.031.125.012.26-.053.372C2.143 11.981 1.035 14.1.999 14.509c.05.137.606.398 1.102.502.141.029.261.116.332.24s.086.272.041.407l-.342 1.025 1.025.342c.232.077.375.312.335.554s-.248.42-.493.42h-.003c-.051 0-.102.001-.152.003.105.145.156.313.156.497 0 .4-.168.65-.29.833-.122.181-.21.312-.21.667 0 .39.149.69 2.081 1.006C5.902 21.221 9 22.331 9 23.499c0 .276-.224.5-.5.5-.256 0-.467-.192-.496-.44-.227-.371-1.97-1.302-3.585-1.566-1.231-.202-2.919-.478-2.919-1.994 0-.659.229-.999.379-1.224.102-.151.121-.188.121-.276-.025.025-.221-.003-.396-.003-.034 0-.068.003-.102.003-.183 0-.342-.098-.43-.243-.096-.163-.095-.363.005-.522.027-.043.102-.149.249-.267-.251-.093-.385-.37-.3-.626l.334-1.002C.786 15.64.001 15.234.001 14.5c0-.709 1.461-3.324 2.19-4.585-.068-.36-.19-1.182-.19-2.415 0-2.243 3.402-7.5 10-7.5 7.066 0 10 5.536 10 8.5 0 4.237-1.574 6.624-2.615 8.203-.494.75-.885 1.341-.885 1.797 0 1.296 1.73 3.829 2.396 4.695zM12 7c0 1.103-.897 2-2 2s-2-.897-2-2 .897-2 2-2 2 .897 2 2zm-1 0c0-.551-.448-1-1-1s-1 .449-1 1 .448 1 1 1 1-.449 1-1zm5 5c0 .551-.448 1-1 1s-1-.449-1-1 .448-1 1-1 1 .449 1 1zm-.999 0H15v.499l.001-.5zm2.416 2.906l-.64-.255c-.063.039-.128.077-.196.113l-.096.661c-.054.332-.342.575-.67.575h-1.399c-.33 0-.611-.236-.668-.561l-.097-.669c-.083-.044-.15-.083-.214-.125l-.606.255c-.345.116-.687-.017-.843-.302l-.693-1.2c-.158-.29-.098-.633.141-.847l.557-.437c-.001-.038-.002-.076-.002-.115s.001-.077.002-.115l-.432-.338c-.115.267-.369.453-.661.453H9.1c-.358 0-.661-.256-.718-.608l-.133-.924c-.127-.063-.253-.136-.378-.219l-.861.347c-.373.124-.738-.017-.905-.323l-.894-1.546c-.17-.313-.104-.684.156-.913l.763-.599c-.003-.07-.005-.142-.005-.214s.002-.144.005-.214l-.74-.581c-.282-.225-.357-.602-.186-.92l.907-1.569c.197-.312.557-.436.883-.318l.88.355c.103-.068.225-.139.351-.203l.155-.932C8.439 2.262 8.747 2 9.1 2h1.8c.368 0 .682.283.715.644l.128.888c.148.074.271.147.389.227l.85-.355c.368-.124.735.017.903.32l.895 1.55c.171.309.105.68-.153.911l-.758.594c.005.072.007.146.007.221 0 .074-.004.146-.009.217l.742.576c.009.007.017.014.024.021.062.055.111.119.151.187h1.032c.346 0 .639.267.666.606l.091.624c.068.036.137.076.204.119l.617-.249c.343-.117.686.017.843.302l.693 1.2c.158.289.098.632-.141.847l-.551.432c.001.04.002.079.002.12s-.001.078-.003.117l.531.412c.01.007.019.015.027.023.238.214.299.557.147.835l-.707 1.222c-.184.291-.517.406-.819.297zm-6.32-5.241c.257-.112.474-.237.643-.373.141-.112.332-.139.498-.074l.904.361.661-1.146-.771-.598a.49844.49844 0 0 1-.189-.456c.017-.138.032-.256.032-.38 0-.121-.006-.234-.027-.348-.035-.184.036-.372.183-.487l.765-.598-.663-1.146-.894.361c-.16.065-.351.041-.491-.068-.216-.166-.426-.288-.641-.371-.168-.065-.288-.216-.314-.395l-.136-.948H9.336l-.136.948c-.025.172-.137.318-.296.388-.254.109-.476.237-.66.379-.141.107-.33.132-.491.067l-.894-.36-.662 1.146.764.599c.117.092.191.234.191.393 0 .022-.001.043-.004.064-.014.122-.022.246-.022.378s.008.256.022.38c.002.018.004.04.004.061 0 .159-.074.301-.19.392l-.765.599.663 1.146.893-.361c.161-.066.351-.04.491.067.218.167.428.289.642.372.168.065.288.216.314.395l.136.948h1.33l.136-.948c.024-.171.137-.318.296-.387zm6.414 4.202l.418-.724-.522-.406a.49844.49844 0 0 1-.189-.456c.011-.092.023-.184.023-.282 0-.088-.004-.17-.02-.253-.033-.183.038-.369.185-.484l.518-.405-.419-.725-.605.245c-.162.066-.351.041-.491-.067-.161-.124-.315-.213-.471-.273-.169-.065-.289-.216-.315-.395L15.531 9h-.834l-.093.642c-.025.171-.137.318-.296.387-.145.063-.277.136-.396.217l-.005.008-.017.029c-.095.148-.226.249-.37.307-.129.052-.268.058-.407.031-.035-.007-.071-.006-.106-.018l-.452-.181-.252.437.518.405c.139.108.21.281.188.455-.011.092-.018.185-.018.283s.007.19.018.282c.002.018.004.04.004.061 0 .159-.074.301-.19.392l-.52.407.419.725.605-.245c.161-.066.351-.041.492.068.158.122.312.211.47.272.168.065.288.216.314.395l.092.643h.842l.093-.643c.025-.171.138-.318.297-.387.189-.082.35-.174.474-.274.141-.112.333-.14.498-.074l.613.246z"/></svg>