<svg xmlns="http://www.w3.org/2000/svg" viewBox="0 0 24 24"><path fill="#5c6671" d="M2 3C.897 3 0 3.897 0 5s.897 2 2 2c1.859 0 3.228 1.021 4.076 3.037C5.88 10.012 5.689 10 5.5 10 2.467 10 0 12.467 0 15.5S2.467 21 5.5 21s5.5-2.467 5.5-5.5C11 8.023 7.383 3 2 3zm3.5 17C3.019 20 1 17.981 1 15.5S3.019 11 5.5 11c.372 0 .759.061 1.217.19.177.05.367 0 .495-.133.087-.09.141-.213.141-.348 0-.054-.008-.105-.024-.154C6.391 7.576 4.547 6 2 6c-.551 0-1-.449-1-1s.449-1 1-1c4.86 0 8 4.514 8 11.5 0 2.481-2.019 4.5-4.5 4.5zM15 3c-1.103 0-2 .897-2 2s.897 2 2 2c1.859 0 3.228 1.021 4.076 3.037-.196-.025-.387-.037-.576-.037-3.033 0-5.5 2.467-5.5 5.5s2.467 5.5 5.5 5.5 5.5-2.467 5.5-5.5C24 8.023 20.383 3 15 3zm3.5 17c-2.481 0-4.5-2.019-4.5-4.5s2.019-4.5 4.5-4.5c.372 0 .759.061 1.217.19.177.05.367 0 .495-.133.087-.09.141-.213.141-.348 0-.054-.008-.105-.024-.154C19.391 7.576 17.547 6 15 6c-.551 0-1-.449-1-1s.449-1 1-1c4.86 0 8 4.514 8 11.5 0 2.481-2.019 4.5-4.5 4.5z"/></svg>