<svg xmlns="http://www.w3.org/2000/svg" viewBox="0 0 24 24"><path fill="#5c6671" d="M15.004 12.669c0-1.631-1.346-2.958-3-2.958s-3 1.327-3 2.958 1.346 2.959 3 2.959 3-1.328 3-2.959zm-3 1.959c-1.103 0-2-.879-2-1.959s.897-1.959 2-1.959 2 .878 2 1.959-.897 1.959-2 1.959zM9.093 9.199c.063.126.179.219.315.256.043.011.086.017.13.017.096 0 .189-.027.271-.08 1.312-.848 3.066-.85 4.384-.002.118.076.265.099.401.062s.251-.13.314-.256l3.094-6.087c.123-.241.031-.537-.206-.666-3.537-1.925-8.057-1.925-11.594 0-.237.129-.329.424-.206.666l3.096 6.09zm7.794-6.1l-2.631 5.177c-1.4-.701-3.111-.699-4.51.002l-2.633-5.18c3.027-1.477 6.748-1.477 9.773 0zm-6.671 13.062c-1.357-.672-2.203-2-2.212-3.47.004-.029.008-.079.008-.101 0-.138-.057-.27-.157-.364s-.23-.14-.372-.135l-7.012.414c-.268.016-.476.24-.471.508.037 1.99.592 3.955 1.606 5.683 1.014 1.726 2.465 3.18 4.196 4.206.073.044.161.07.255.07.161 0 .319-.078.415-.221l3.937-5.863c.08-.12.105-.268.068-.407s-.133-.256-.262-.32zm-4.305 5.632c-1.409-.919-2.594-2.157-3.442-3.603-.846-1.441-1.343-3.063-1.449-4.716l6.005-.354c.14 1.496.967 2.835 2.254 3.658l-3.367 5.015zm17.618-9.287l-7.004-.414c-.133-.004-.268.08-.368.174s-.153.265-.153.403c0 1.481-.85 2.821-2.217 3.495-.13.063-.226.18-.263.319s-.012.288.068.408l3.935 5.86c.096.143.254.221.415.221.094 0 .182-.026.257-.071 1.729-1.024 3.18-2.478 4.195-4.205 1.014-1.728 1.568-3.693 1.605-5.683.005-.268-.203-.493-.471-.508zm-1.998 5.684c-.849 1.446-2.033 2.684-3.442 3.603l-3.365-5.011c1.291-.823 2.12-2.164 2.26-3.662l5.997.354c-.106 1.653-.604 3.274-1.449 4.715z"/></svg>