<svg xmlns="http://www.w3.org/2000/svg" viewBox="0 0 24 24"><path fill="#5c6671" d="M22 9H3.754L12.343.863c.201-.19.209-.506.019-.707-.189-.201-.506-.209-.707-.019L2.3 9h-.301c-1.103 0-2 .897-2 2v11c0 1.103.897 2 2 2h20c1.103 0 2-.897 2-2V11c0-1.103-.897-2-2-2zm1 13c0 .551-.449 1-1 1H2c-.551 0-1-.449-1-1V11c0-.551.449-1 1-1h20c.551 0 1 .449 1 1v11zM7.5 14C6.122 14 5 15.122 5 16.5S6.122 19 7.5 19s2.5-1.122 2.5-2.5S8.878 14 7.5 14zm0 4c-.827 0-1.5-.673-1.5-1.5S6.673 15 7.5 15s1.5.673 1.5 1.5S8.327 18 7.5 18zm0-7C4.467 11 2 13.467 2 16.5S4.467 22 7.5 22s5.5-2.467 5.5-5.5S10.533 11 7.5 11zm0 10C5.019 21 3 18.981 3 16.5S5.019 12 7.5 12s4.5 2.019 4.5 4.5S9.981 21 7.5 21zM22 13.5c0 .276-.224.5-.5.5h-7c-.276 0-.5-.224-.5-.5s.224-.5.5-.5h7c.276 0 .5.224.5.5zm0 6c0 .276-.224.5-.5.5h-7c-.276 0-.5-.224-.5-.5s.224-.5.5-.5h7c.276 0 .5.224.5.5zm0-3c0 .276-.224.5-.5.5h-7c-.276 0-.5-.224-.5-.5s.224-.5.5-.5h7c.276 0 .5.224.5.5z"/></svg>