<svg xmlns="http://www.w3.org/2000/svg" viewBox="0 0 24 24"><path fill="#5c6671" d="M22.718 4.014c.184-.307.281-.656.281-1.014 0-1.103-.897-2-2-2-.357 0-.706.098-1.014.281C18.638.442 17.094 0 15.499 0c-4.687 0-8.5 3.813-8.5 8.5 0 1.563.423 3.075 1.227 4.4L.632 20.31c-.843.843-.843 2.214 0 3.057.408.408.951.633 1.528.633s1.12-.225 1.532-.638l7.406-7.588c1.325.803 2.838 1.226 4.4 1.226 4.687 0 8.5-3.813 8.5-8.5 0-1.597-.441-3.14-1.281-4.486zM19.72 2.301c.189.129.443.113.615-.041.187-.167.423-.26.664-.26.552 0 1 .449 1 1 0 .31-.142.533-.26.665-.154.171-.171.426-.041.616.851 1.247 1.301 2.706 1.301 4.22 0 1.666-.552 3.201-1.474 4.447-.558-.273-1.166-.15-1.678-.042-.644.137-.95.169-1.2-.08s-.217-.558-.08-1.201c.138-.648.309-1.455-.352-2.115-.658-.658-1.464-.488-2.113-.349-.641.136-.949.171-1.199-.079-.248-.249-.214-.555-.077-1.196.139-.647.312-1.454-.347-2.112-.66-.66-1.465-.488-2.114-.349-.641.136-.949.17-1.197-.078s-.214-.555-.076-1.196c.109-.51.233-1.118-.039-1.675 1.246-.922 2.781-1.474 4.447-1.474 1.513 0 2.973.45 4.221 1.301zM2.982 22.66c-.438.438-1.202.44-1.643 0-.452-.453-.452-1.189-.004-1.638l7.527-7.345 1.461 1.461-7.341 7.522zM15.499 16c-1.492 0-2.931-.439-4.165-1.265l-2.072-2.072C8.437 11.429 7.998 9.991 7.998 8.5c0-2.077.849-3.958 2.218-5.318.008.19-.033.429-.103.758-.139.647-.312 1.454.347 2.113.661.66 1.466.487 2.113.349.642-.138.948-.172 1.198.078.248.248.214.555.076 1.196-.139.647-.312 1.454.348 2.113s1.467.487 2.114.349c.643-.137.949-.172 1.198.079s.217.558.08 1.2c-.138.648-.31 1.456.352 2.116s1.466.488 2.115.351c.332-.071.572-.111.764-.102-1.36 1.369-3.242 2.219-5.319 2.219z"/></svg>