<svg xmlns="http://www.w3.org/2000/svg" viewBox="0 0 24 24"><path fill="#5c6671" d="M9.503 15H6.811l.915-1.829 1.553.776c.186.094.412.062.565-.082.153-.142.201-.365.12-.558l-2.501-6c-.078-.186-.26-.308-.461-.308H.501c-.202 0-.385.122-.462.309s-.035.402.108.545l1.746 1.745-1.659 3.317c-.333.665-.298 1.44.093 2.073.104.168.228.319.369.449l3.5 5.055C4.85 21.436 5.926 22 7.074 22h2.429c.276 0 .5-.224.5-.5v-6c0-.276-.224-.5-.5-.5zm-8.06-.239l-.032-.046c-.043-.061-.097-.112-.161-.149-.026-.031-.049-.064-.071-.099-.21-.341-.229-.752-.052-1.105l1.82-3.64c.096-.192.059-.425-.094-.577L1.707 7.999h4.96l1.856 4.452-.798-.399c-.248-.123-.547-.023-.671.224L5.692 15H2.139c-.258 0-.501-.085-.697-.239zM9.003 21H7.074c-.82 0-1.589-.403-2.056-1.077L2.301 16h6.702v5zm14.759-8.105l-2.32-4.14c-.134-.24-.439-.327-.679-.192l-4.501 2.5c-.12.066-.207.179-.242.312-.01.037-.016.08-.016.125 0 .098.028.19.078.268l2.021 3.233h-2.099v-1.5c0-.217-.14-.409-.345-.476s-.432.006-.559.182l-4.001 5.5c-.138.19-.125.451.031.626l4.001 4.5c.092.103.225.168.374.168.064 0 .125-.012.181-.034.19-.073.319-.259.319-.466v-1.5h.928c1.148 0 2.225-.563 2.878-1.508l3.508-5.065c.137-.128.259-.273.361-.438.391-.633.426-1.408.082-2.094zm-6.555-1.213l3.606-2.003 2.065 3.685c.177.353.158.764-.049 1.1-.027.044-.063.079-.095.118-.053.034-.101.079-.139.134l-.017.025c-.198.163-.445.26-.711.26h-2.584l-2.075-3.318zm1.781 8.241c-.467.674-1.236 1.077-2.056 1.077h-1.428c-.276 0-.5.224-.5.5v.685l-2.86-3.216 2.86-3.932v.463c0 .276.224.5.5.5h6.201l-2.717 3.923zM13.766 6.31l-1.486.743c-.192.096-.302.305-.271.518s.194.383.406.421l5.501 1c.03.006.06.008.09.008.199 0 .382-.119.461-.308l2.501-6a.4996.4996 0 0 0 .039-.193c0-.144-.061-.274-.158-.365-.153-.143-.378-.177-.565-.082l-1.606.803-1.162-1.742C17.051.416 16.273 0 15.435 0H9.504c-.07 0-.137.015-.198.041-.095-.014-.211-.022-.329-.025C7.898.002 6.895.478 6.245 1.345L4.103 4.2c-.087.116-.12.264-.089.406.032.145.124.264.247.332l5.504 3.001c.223.123.499.058.646-.148l2.229-3.12 1.127 1.639zM15.434 1c.503 0 .97.25 1.249.668l1.406 2.109c.14.209.413.283.64.17l.799-.399-1.829 4.388-3.629-.66.659-.329c.129-.065.225-.182.261-.322s.01-.289-.072-.408l-3.273-4.76c-.118-.17-.241-.319-.376-.457l4.168.001zM9.853 6.849L5.248 4.338l1.795-2.393c.455-.606 1.136-.952 1.908-.929.757.016 1.438.383 1.867 1.007l1.218 1.771-2.183 3.055z"/></svg>