<svg xmlns="http://www.w3.org/2000/svg" viewBox="0 0 20 24"><path fill="#5c6671" d="M18 2h-5c0-1.103-.897-2-2-2H9C7.897 0 7 .897 7 2H2C.897 2 0 2.897 0 4v1.5c0 .276.224.5.5.5H1v16c0 1.103.897 2 2 2h14c1.103 0 2-.897 2-2V6h.5c.276 0 .5-.224.5-.5V4c0-1.103-.897-2-2-2zM9 1h2c.551 0 1 .449 1 1H8c0-.551.449-1 1-1zm9 21c0 .551-.449 1-1 1H3c-.551 0-1-.449-1-1V6h16v16zm1-17H1V4c0-.551.449-1 1-1h16c.551 0 1 .449 1 1v1zM7 15.026c.411 0 .82-.09 1.203-.258.639 1.486 1.297 3.488 1.297 4.759 0 .276.224.5.5.5s.5-.224.5-.5c0-.763.235-1.689.661-2.693.266.123.552.192.839.192.512 0 1.024-.195 1.414-.585.271-.27.411-.744.619-1.496.081-.292.165-.597.261-.872.258-.737.614-1.257.618-1.262.12-.174.118-.405-.005-.576s-.34-.249-.543-.189c-.518.148-3.132.922-3.776 1.566-.695.695-.766 1.775-.224 2.555-.115.254-.231.509-.323.756-.268-.934-.625-1.893-.989-2.717.022-.021.049-.036.071-.058 1.17-1.17 1.17-3.073 0-4.243-1.106-1.105-4.295-.903-4.658-.877-.247.018-.443.214-.461.461-.027.36-.229 3.552.877 4.658.585.585 1.353.877 2.121.877zm4.293-.706c.223-.223 1.172-.61 2.203-.956-.05.119-.099.246-.146.379-.104.295-.194.623-.281.937-.103.372-.258.934-.363 1.056-.39.388-1.023.388-1.413-.001s-.39-1.024 0-1.415zm-6.317-4.317c1.207-.037 2.914.085 3.438.609.715.715.766 1.838.169 2.621-.261-.492-.508-.878-.706-1.068-.201-.192-.517-.184-.707.016s-.184.516.016.707c.141.135.356.488.6.974-.729.311-1.606.172-2.199-.421-.524-.524-.649-2.231-.61-3.438z"/></svg>