<svg xmlns="http://www.w3.org/2000/svg" viewBox="0 0 18 24"><path fill="#5c6671" d="M16 0H2C.897 0 0 .897 0 2v20c0 1.103.897 2 2 2h14c1.103 0 2-.897 2-2V2c0-1.103-.897-2-2-2zM2 1h14c.551 0 1 .449 1 1v7H1V2c0-.551.449-1 1-1zm14 22H2c-.551 0-1-.449-1-1V10h16v12c0 .551-.449 1-1 1zM2 6.5v-2C2 3.673 2.673 3 3.5 3c.276 0 .5.224.5.5s-.224.5-.5.5-.5.224-.5.5v2c0 .276-.224.5-.5.5S2 6.776 2 6.5zm2 6c0 .276-.224.5-.5.5s-.5.224-.5.5v2c0 .276-.224.5-.5.5s-.5-.224-.5-.5v-2c0-.827.673-1.5 1.5-1.5.276 0 .5.224.5.5z"/></svg>