<svg xmlns="http://www.w3.org/2000/svg" viewBox="0 0 18 24"><path fill="#5c6671" d="M16 4h-3.859l.561-2.243c.112-.438.503-.757.968-.757h3.83c.276 0 .5-.224.5-.5s-.224-.5-.5-.5h-3.829c-.919 0-1.717.623-1.94 1.515L11.11 4H2.001c-1.103 0-2 .897-2 2v2.5c0 .276.224.5.5.5h1.562l1.769 13.265c.132.989.984 1.735 1.982 1.735h6.373c.998 0 1.851-.746 1.983-1.736L15.938 9H17.5c.276 0 .5-.224.5-.5V6c0-1.103-.897-2-2-2zm-2.821 18.132c-.066.495-.493.868-.992.868H5.814c-.499 0-.926-.373-.991-.868L3.072 9h11.857l-1.75 13.132zM17 8H1V6c0-.551.448-1 1-1h14c.552 0 1 .449 1 1v2z"/></svg>