<svg xmlns="http://www.w3.org/2000/svg" viewBox="0 0 24 24"><path fill="#5c6671" d="M23.846 11.138l-11.5-11c-.193-.185-.498-.185-.691 0l-11.5 11c-.147.141-.194.358-.118.547s.26.314.464.314h1.5v10c0 1.103.897 2 2 2h16c1.103 0 2-.897 2-2v-10h1.5c.204 0 .388-.124.464-.314s.029-.406-.118-.547zM21.5 11c-.276 0-.5.224-.5.5V22c0 .551-.449 1-1 1H4c-.551 0-1-.449-1-1V11.5c0-.276-.224-.5-.5-.5h-.754L12 1.192 22.254 11H21.5zM8 10.5h-.5c-.827 0-1.5.673-1.5 1.5v.719c0 .689.467 1.288 1.136 1.455l4.48 1.12c-.372.273-.616.71-.616 1.206v3c0 .827.673 1.5 1.5 1.5s1.5-.673 1.5-1.5v-3c0-.682-.46-1.252-1.083-1.434-.204-.52-.755-.666-1.053-.741l-4.485-1.121c-.223-.056-.379-.255-.379-.485V12c0-.276.224-.5.5-.5H8c0 .827.673 1.5 1.5 1.5h6c.827 0 1.5-.673 1.5-1.5h.5c.276 0 .5-.224.5-.5s-.224-.5-.5-.5H17c0-.827-.673-1.5-1.5-1.5h-6C8.673 9 8 9.673 8 10.5zm5 9c0 .276-.224.5-.5.5s-.5-.224-.5-.5v-3c0-.276.224-.5.5-.5s.5.224.5.5v3zm3-9v1c0 .276-.224.5-.5.5h-6c-.276 0-.5-.224-.5-.5v-1c0-.276.224-.5.5-.5h6c.276 0 .5.224.5.5z"/></svg>