<svg xmlns="http://www.w3.org/2000/svg" viewBox="0 0 24 24"><path fill="#5c6671" d="M23.091 19.507c-1.944-1.626-6.463-5.418-8.68-7.389C15.508 11.411 16.575 11 17 11c.711 0 3.029-2.417 6.889-7.185.161-.199.146-.487-.035-.668l-3-3c-.182-.182-.471-.196-.668-.035-4.768 3.86-7.185 6.177-7.185 6.889 0 .371-.316 1.237-.866 2.181-.12-.449-.134-.845-.134-1.181 0-1.141-7.367-6.431-9.209-7.574C2.221.073 1.531.056.943.383c-.59.328-.942.928-.942 1.605 0 .541.235 1.05.646 1.396.81.684 2.598 2.425 4.49 4.268 1.651 1.608 3.348 3.261 4.56 4.372C7.456 14.023 2.57 18.12.908 19.51.331 19.992 0 20.703 0 21.458c0 1.403 1.141 2.544 2.544 2.544.755 0 1.465-.331 1.948-.908 1.394-1.668 5.517-6.585 7.507-8.814 1.929 2.159 5.836 6.815 7.506 8.812.483.578 1.194.91 1.95.91 1.403 0 2.544-1.141 2.544-2.544 0-.756-.331-1.466-.909-1.949zM5.834 6.934C3.928 5.078 2.128 3.325 1.291 2.618 1.106 2.462 1 2.232 1 1.987c0-.309.16-.582.428-.731.126-.07.264-.105.4-.105.15 0 .3.042.435.125C5.311 3.167 10.474 7.267 11 8.088c.001.521.025 1.254.446 2.124-.022.03-.045.059-.068.089-.236.306-.48.594-.731.846-.055.055-.133.128-.208.2-1.203-1.099-2.929-2.781-4.604-4.412zM3.725 22.451c-.292.349-.723.549-1.181.549C1.692 23 1 22.308 1 21.456c0-.458.2-.889.549-1.181 2.398-2.005 7.914-6.637 9.553-8.181.098-.092.184-.174.251-.241.091-.091.177-.195.266-.292.095-.104.193-.203.285-.312.054-.064.104-.136.156-.202.123-.155.247-.309.361-.469l.021-.027c.002-.003.001-.006.003-.008.933-1.314 1.55-2.751 1.541-3.458.229-.589 3.412-3.413 6.477-5.912l.328.328-4.646 4.646c-.195.195-.195.512 0 .707.098.098.226.146.354.146s.256-.049.354-.146l4.646-4.646.293.293-4.646 4.646c-.195.195-.195.512 0 .707.098.098.226.146.354.146s.256-.049.354-.146L22.5 3.208l.328.328c-2.499 3.066-5.32 6.248-5.828 6.465-.798 0-2.332.667-3.687 1.66-.002.001-.003.001-.005.003-.045.033-.083.066-.127.1-.16.121-.32.242-.472.371-.201.169-.389.34-.562.513-.066.066-.146.149-.235.245-1.537 1.631-6.179 7.158-8.186 9.56zM21.456 23c-.458 0-.89-.201-1.183-.551-1.692-2.024-5.677-6.771-7.595-8.912.061-.064.127-.134.175-.183.21-.21.443-.415.703-.621.007-.006.015-.011.022-.017 2.166 1.936 6.875 5.889 8.872 7.559.35.292.55.723.55 1.182 0 .852-.692 1.544-1.544 1.544z"/></svg>