<svg xmlns="http://www.w3.org/2000/svg" viewBox="0 0 18 24"><path fill="#5c6671" d="M18 9c0-.593-.418-1.038-.787-1.431-.205-.219-.437-.466-.483-.641-.052-.191.024-.519.098-.835.119-.515.255-1.099-.032-1.596-.291-.502-.869-.677-1.38-.831-.307-.093-.623-.189-.758-.323s-.23-.452-.323-.759c-.154-.511-.329-1.089-.833-1.38-.499-.29-1.081-.15-1.595-.032-.316.073-.643.149-.835.098-.175-.046-.422-.278-.64-.483C10.039.418 9.594 0 9 0S7.962.418 7.569.787c-.219.205-.466.437-.641.483-.192.053-.519-.024-.835-.098-.515-.118-1.1-.254-1.596.032-.502.291-.677.869-.831 1.38-.093.307-.189.623-.323.758s-.452.23-.759.323c-.511.154-1.089.329-1.38.833-.287.496-.151 1.08-.032 1.595.073.316.149.644.098.835-.046.175-.278.422-.483.64C.418 7.961 0 8.406 0 9s.418 1.038.787 1.431c.205.219.437.466.483.641.052.191-.024.519-.098.835-.119.515-.255 1.099.032 1.596.291.502.869.677 1.38.831.307.093.623.189.758.323s.23.452.323.759c.154.511.329 1.089.833 1.38.161.093.331.131.504.151l-.997 6.478c-.004.023-.006.05-.006.077 0 .124.045.238.121.325.095.111.234.174.379.174h7c.276 0 .5-.224.5-.5v-1.5h1.5c.146 0 .284-.063.38-.175.075-.087.12-.2.12-.325 0-.027-.002-.054-.006-.08l-.7-4.55c.07-.024.141-.038.208-.076.502-.291.677-.869.831-1.38.093-.307.189-.623.323-.758s.452-.23.759-.323c.511-.154 1.089-.329 1.38-.833.287-.496.151-1.08.032-1.595-.073-.316-.149-.644-.098-.835.046-.175.278-.422.483-.64.369-.393.787-.838.787-1.432zm-7 14H5.083l.947-6.159c.021-.005.043-.009.063-.014.041-.01.08-.016.121-.025.276-.062.548-.117.714-.073.175.046.422.278.64.483.393.369.838.787 1.432.787s1.039-.418 1.432-.787c.083-.078.17-.158.256-.232.016-.014.031-.028.047-.041.083-.069.163-.125.236-.164.01-.005.02-.009.029-.014v6.237zm1-2v-4.151c.047.013.145.035.242.054L12.917 21H12zm4.484-11.253c-.3.318-.609.648-.722 1.066-.115.433-.011.883.09 1.318.074.318.166.715.077.869-.094.161-.471.275-.805.376-.425.128-.863.261-1.176.573s-.444.751-.573 1.176c-.101.333-.215.71-.375.804-.064.038-.176.039-.301.028-.065-.006-.132-.015-.201-.027-.033-.006-.066-.011-.1-.018a8.3594 8.3594 0 0 1-.216-.048c-.017-.004-.035-.008-.051-.012-.164-.038-.33-.072-.496-.099-.021-.003-.044-.01-.064-.013h-.001c-.009-.001-.016 0-.025-.002-.124-.017-.247-.026-.37-.023-.005 0-.011-.001-.016-.001-.116.004-.232.017-.346.048-.418.112-.748.422-1.067.722-.193.181-.405.38-.582.469C9.105 16.982 9.05 17 9 17c-.197 0-.489-.274-.747-.516-.318-.3-.648-.609-1.066-.722-.124-.033-.25-.045-.377-.047-.011 0-.021-.004-.032-.004-.03 0-.059.007-.089.009-.103.005-.205.014-.308.03-.043.007-.085.012-.128.021-.129.024-.257.052-.385.081-.12.027-.239.055-.357.077-.212.039-.41.059-.511 0-.161-.094-.275-.471-.376-.805-.128-.425-.261-.863-.573-1.176s-.751-.444-1.176-.573c-.333-.101-.71-.215-.804-.375-.089-.154.003-.551.077-.869.101-.436.205-.886.09-1.318-.112-.418-.422-.748-.722-1.067C1.275 9.489 1 9.197 1 9s.274-.489.516-.747c.3-.318.609-.648.722-1.066.115-.433.011-.883-.09-1.318-.074-.318-.166-.715-.077-.869.094-.161.471-.275.805-.376.425-.128.863-.261 1.176-.573s.444-.751.573-1.176c.101-.333.215-.71.375-.804.157-.089.551.003.869.077.436.101.888.206 1.318.09.418-.112.748-.422 1.067-.722C8.511 1.275 8.803 1 9 1s.489.274.747.516c.318.3.648.609 1.066.722.431.116.882.011 1.318-.09.316-.074.713-.166.869-.077.161.094.275.471.376.805.128.425.261.863.573 1.176s.751.444 1.176.573c.333.101.71.215.804.375.089.154-.003.551-.077.869-.101.436-.205.886-.09 1.318.112.418.422.748.722 1.067.241.257.516.549.516.746s-.274.489-.516.747zM9 4C6.243 4 4 6.243 4 9s2.243 5 5 5 5-2.243 5-5-2.243-5-5-5zm0 9c-2.206 0-4-1.794-4-4s1.794-4 4-4 4 1.794 4 4-1.794 4-4 4z"/></svg>