<svg xmlns="http://www.w3.org/2000/svg" viewBox="0 0 18 24"><path fill="#5c6671" d="M17.589 19.471l-4.884-5.792 3.149-3.825c1.108-1.108 1.404-3.372.702-5.383-.859-2.466-2.995-4.069-5.86-4.397-.007-.001-.014.002-.021.002V.072S9.67 0 8.999 0 7.323.072 7.323.072v.004c-.007 0-.014-.003-.021-.002-2.864.328-5 1.931-5.86 4.397-.702 2.011-.406 4.275.67 5.348l3.181 3.86-4.856 5.762c-.585.585-.585 1.536 0 2.121l2 2c.288.288.665.435 1.048.435.394 0 .793-.155 1.106-.47l4.408-5.351 4.439 5.386c.292.292.677.438 1.061.438s.769-.146 1.061-.438l2-2c.585-.585.585-1.536.028-2.09zM3.853 22.854c-.195.195-.512.195-.707 0l-2-2c-.195-.195-.195-.512.028-.738l4.766-5.653 2.412 2.927-4.499 5.464zm2.886-16.25C7.188 6.346 7.979 6 9 6s1.811.345 2.26.603L8.999 9.284l-2.26-2.681zM15.612 4.8c.651 1.869.246 3.635-.498 4.382l-3.065 3.719-2.396-2.842 2.715-3.221c.767-.778 1.925-2.815 1.523-4.488.986.787 1.48 1.76 1.721 2.45zM5.124 2.43c.254-.742 1.026-1.2 2.29-1.361C7.509 1.062 8.392 1 8.999 1s1.486.061 1.585.069c1.265.161 2.036.618 2.291 1.361.362 1.058-.342 2.592-.959 3.402C11.387 5.499 10.373 5 9 5s-2.387.499-2.916.832c-.618-.811-1.322-2.345-.959-3.402zm11.729 18.424l-2 2c-.195.195-.511.196-.675.035l-4.79-5.813c-.001-.001-.002-.003-.003-.005L6.33 13.363c-.002-.002-.005-.003-.007-.005L2.852 9.146c-.712-.712-1.117-2.478-.466-4.347.241-.69.734-1.663 1.721-2.45-.405 1.686.771 3.736 1.51 4.473l2.999 3.556c.001.001.001.002.002.003l3.055 3.623c.001.001.002.001.003.002l5.178 6.141c.195.195.195.512 0 .707z"/></svg>