<svg xmlns="http://www.w3.org/2000/svg" viewBox="0 0 24 24"><path fill="#5c6671" d="M2.998 6c0 .276-.224.5-.5.5s-.5-.224-.5-.5.224-.5.5-.5.5.224.5.5zm20.887 10.541c-2.569 3.105-7.016 4.959-11.893 4.959-4.864 0-9.304-1.846-11.876-4.939-.176-.212-.147-.528.065-.704.21-.176.526-.147.704.064.419.504.91.958 1.431 1.388l3.614-6.328c-.338-.692-.903-1.843-1.33-2.693-.406 1.131-.978 2.211-2.102 2.211-1.843 0-2.377-4.174-2.497-5.453-.006-.068.002-.138.023-.203.031-.096.811-2.344 4.472-2.344 2.964 0 5.55 2.003 6.29 4.87.172.665.766 1.13 1.444 1.13h4.788c.111-.866.511-1.614 1.133-2.159.738-.646 1.725-.94 2.709-.809 1.269.17 2.369 1.125 2.805 2.431l.293.879c.063.192.006.403-.147.536s-.368.159-.551.069l-1.474-.737c-.855-.431-1.995-.127-2.498.69-.003.007-.007.013-.011.02-.341.568-.384 1.271-.115 1.877l2.554 5.972c.508-.424.988-.871 1.398-1.367.175-.213.491-.243.703-.066s.243.491.066.704zM3.116 17.929c.145.1.303.188.455.283 1.822-2.91 5.004-4.712 8.453-4.712 3.434 0 6.609 1.791 8.435 4.684.147-.093.302-.179.444-.277l-2.655-6.21c-.395-.892-.335-1.928.163-2.771.004-.008.008-.016.013-.023.52-.865 1.468-1.402 2.477-1.402.462 0 .925.109 1.336.316l.374.187c-.364-.803-1.077-1.372-1.88-1.48-.708-.096-1.389.107-1.917.571-.523.457-.823 1.118-.823 1.812 0 .276-.224.594-.5.594h-5.257c-1.135 0-2.127-.773-2.413-1.88-.626-2.426-2.813-4.12-5.321-4.12-2.551 0-3.322 1.233-3.487 1.576.216 2.114.887 4.424 1.489 4.424.68 0 1.115-1.374 1.434-2.376l.089-.277c.061-.186.223-.321.42-.344.195-.02.389.075.488.245.298.51 1.946 3.889 2.017 4.033.072.149.067.324-.015.467L3.12 17.93zm8.876 2.571c2.799 0 5.434-.648 7.608-1.803-1.644-2.593-4.494-4.197-7.577-4.197-3.095 0-5.95 1.613-7.594 4.219 2.166 1.14 4.784 1.781 7.562 1.781z"/></svg>