<svg xmlns="http://www.w3.org/2000/svg" viewBox="0 0 14 24"><path fill="#5c6671" d="M11.13 14.362c.238-1.27.374-2.661.374-4.116C11.504 4.729 7.54.339 7.371.155c-.188-.206-.549-.206-.737 0-.169.184-4.133 4.574-4.133 10.091 0 1.455.136 2.846.374 4.116C1.075 15.681 0 17.758 0 19.999c0 1.533.336 2.701 1.089 3.786.092.131.242.215.411.215.033 0 .064-.003.095-.009.19-.036.345-.182.391-.374.372-1.536 1.586-2.76 3.216-3.302.412 1.975 1.333 3.388 1.384 3.463.093.139.248.222.415.222s.322-.083.415-.222c.051-.075.972-1.488 1.384-3.463 1.63.542 2.844 1.766 3.216 3.302.047.191.201.338.395.374.028.005.059.008.092.008.17 0 .319-.084.41-.213.754-1.087 1.09-2.255 1.09-3.788 0-2.241-1.074-4.318-2.875-5.637zm-2.171 3.427c-.216-2.538-1.481-4.482-1.541-4.571-.186-.277-.645-.277-.83 0-.06.089-1.326 2.033-1.541 4.571-.947-1.727-1.545-4.518-1.545-7.543 0-1.14.194-2.234.489-3.251h6.025c.295 1.016.488 2.11.488 3.251 0 3.025-.598 5.817-1.545 7.543zM7.002 1.272c.614.772 1.857 2.498 2.684 4.722H4.319c.828-2.222 2.07-3.95 2.682-4.722zm-5.596 21.03c-.28-.665-.405-1.399-.405-2.303 0-1.773.779-3.432 2.112-4.566.419 1.666 1.038 3.031 1.804 3.92-1.578.516-2.838 1.578-3.51 2.95zm5.595.174c-.323-.652-.741-1.684-.916-2.886-.002-.009.001-.017-.001-.026-.001-.003-.003-.005-.003-.007-.011-.077-.02-.155-.028-.233 0-.007-.002-.014-.003-.022-.028-.262-.049-.529-.049-.803 0-1.657.583-3.132 1.001-3.977.417.843.999 2.315.999 3.977 0 .275-.021.543-.05.806 0 .006-.002.011-.002.017-.009.079-.018.158-.029.236l-.003.006c-.002.007.001.014-.001.021-.174 1.202-.594 2.236-.918 2.891zm5.598-.174c-.673-1.372-1.932-2.434-3.51-2.95.766-.889 1.385-2.253 1.804-3.92 1.333 1.134 2.112 2.793 2.112 4.566 0 .905-.125 1.638-.405 2.303zM7.002 7.995c-1.103 0-2.001.897-2.001 2.001s.898 2.001 2.001 2.001 2.001-.897 2.001-2.001-.898-2.001-2.001-2.001zm0 3.001c-.552 0-1-.449-1-1s.448-1 1-1 1 .449 1 1-.448 1-1 1z"/></svg>