<svg xmlns="http://www.w3.org/2000/svg" viewBox="0 0 18 24"><path fill="#5c6671" d="M6.635 21c.273 0 .494.224.494.5s-.221.5-.494.5-.494-.224-.494-.5.221-.5.494-.5zm-4.445.5c0 .276.221.5.494.5s.494-.224.494-.5-.221-.5-.494-.5-.494.224-.494.5zm7.902 0c0 .276.221.5.494.5s.494-.224.494-.5-.221-.5-.494-.5-.494.224-.494.5zm3.951 0c0 .276.221.5.494.5s.494-.224.494-.5-.221-.5-.494-.5-.494.224-.494.5zm2.004-3.693l.933 2.519c.057.153.035.325-.059.459-.005.007-.014.01-.02.017.068.227.109.459.109.697 0 1.378-1.11 2.5-2.476 2.5-.809 0-1.523-.4-1.975-1.009-.452.609-1.166 1.009-1.976 1.009s-1.524-.4-1.976-1.009c-.452.609-1.166 1.009-1.976 1.009s-1.524-.4-1.976-1.009c-.452.609-1.165 1.009-1.975 1.009-1.365 0-2.476-1.122-2.476-2.5 0-.9.494-1.702 1.255-2.144l.458-1.853c-1.02-.61-1.713-1.721-1.713-3.003v-9c0-.529.166-1.019.445-1.423L.2 3.394c-.375-.569-.222-1.342.342-1.723.334-.225.754-.273 1.13-.129s.661.467.759.862l.149.605c.034-.001.066-.01.1-.01h3.589l.639-1.938c.208-.635.794-1.062 1.458-1.062.453 0 .879.198 1.171.542.297.349.424.809.349 1.262l-.759 4.61c.015.223.04.424.074.622l.393-.036c.276 0 .5.224.5.5s-.224.5-.5.5h-.142c.247.704.617 1.348 1.089 1.904l.305-.281c.205-.186.521-.173.707.03s.174.52-.029.706l-.277.255c1.026.865 2.344 1.386 3.78 1.386 1.638 0 2.97 1.346 2.97 3 0 1.292-.817 2.386-1.953 2.807zM7.861 1.374l-.569 1.727c.492.138.919.424 1.238.81l.373-2.269c.026-.163-.019-.328-.124-.453-.259-.305-.794-.189-.918.185zm-6.82 1.471l.351.533c.072-.045.147-.085.224-.123l-.15-.61c-.027-.108-.104-.152-.147-.169-.04-.015-.121-.035-.211.024-.111.075-.142.23-.065.344zM4.159 21.5c0-.171-.041-.337-.101-.5H1.696c-.125 0-.238-.057-.329-.14-.093.198-.158.411-.158.64 0 .827.662 1.5 1.476 1.5s1.475-.673 1.475-1.5zm3.952 0c0-.17-.042-.337-.102-.5H5.262c-.06.163-.102.33-.102.5 0 .827.662 1.5 1.476 1.5s1.476-.673 1.476-1.5zm3.951 0c0-.17-.042-.337-.102-.5H9.213c-.06.163-.102.33-.102.5 0 .827.662 1.5 1.476 1.5s1.476-.673 1.476-1.5zm3.95 0c0-.17-.041-.336-.101-.5h-2.748c-.06.163-.101.329-.101.5 0 .827.661 1.5 1.475 1.5s1.476-.673 1.476-1.5zm-.96-3.502c-.007 0-.014.002-.021.002H3.673c-.283 0-.553-.044-.816-.109L2.337 20h13.458l-.742-2.002zM17 15c0-1.103-.884-2-1.97-2-1.726 0-3.303-.647-4.516-1.708l-1.179 1.085c-.097.088-.218.132-.339.132-.135 0-.27-.054-.368-.162-.187-.203-.174-.52.029-.706l1.152-1.061C9.173 9.839 8.686 8.964 8.401 8H6.634c-.276 0-.5-.224-.5-.5s.224-.5.5-.5h1.555c-.016-.114-.035-.226-.046-.341-.026-.076-.04-.156-.026-.24l.011-.066C8.122 6.235 8.11 6.119 8.11 6v-.5c0-.827-.662-1.5-1.476-1.5h-3.95c-.813 0-1.476.673-1.476 1.5v9c0 1.378 1.104 2.5 2.463 2.5h11.358c1.086 0 1.97-.897 1.97-2z"/></svg>