<svg xmlns="http://www.w3.org/2000/svg" viewBox="0 0 24 24"><path fill="#5c6671" d="M24 4.5c0-.722-.52-1.412-1.005-1.748-.396-.275-.813-.354-1.17-.221-.067.025-.128.064-.179.115l-2.558 2.558c-.096-.101-.191-.197-.289-.29l2.554-2.561c.051-.051.09-.112.115-.179.133-.357.054-.773-.222-1.17C20.91.521 20.22 0 19.499 0c-.138 0-.263.056-.353.146l-3.168 3.168c-.643-.196-1.303-.315-1.978-.315-2.894 0-5.473 1.8-6.508 4.491C4.801 8.525 3 11.104 3 13.999c0 .675.119 1.336.315 1.978L.147 19.145c-.091.09-.146.215-.146.353 0 .721.52 1.411 1.004 1.747.271.188.551.285.815.285.122 0 .242-.021.355-.063.07-.027.129-.066.179-.115l2.558-2.558c.096.101.191.197.289.29l-2.554 2.561c-.051.051-.09.112-.115.179-.133.357-.054.773.222 1.17.336.483 1.026 1.004 1.747 1.004.138 0 .263-.056.353-.146l3.168-3.168c.643.196 1.303.315 1.978.315 2.894 0 5.473-1.8 6.508-4.491C19.199 15.473 21 12.894 21 9.999c0-.675-.119-1.336-.315-1.978l3.168-3.168c.091-.09.146-.215.146-.353zm-4.321-3.472c.241.069.521.259.704.488.089.112.126.199.141.252L18.023 4.27c-.109-.076-.229-.128-.341-.197-.159-.098-.317-.195-.483-.28-.062-.032-.118-.075-.181-.105l2.661-2.661zM14 4c.671 0 1.33.115 1.97.344.643.217 1.244.546 1.787.976.225.182.433.376.63.586l-.719.719c-.223-.244-.469-.461-.74-.656-.688-.511-1.527-.828-2.411-.915l-.105-.016c-.134-.02-.266-.039-.411-.039-1.579 0-3.055.743-3.998 2h-.002c-.371 0-.739.035-1.102.094-.031.005-.062.007-.092.013-.019.003-.038.004-.057.008 1.039-1.896 3.042-3.115 5.251-3.115zm0 8.57V14h-1.43c-.935 0-1.878.258-2.73.748-.471.272-.848.553-1.153.859l-1.345 1.345c-.104-.093-.2-.189-.29-.289l1.342-1.349c.31-.31.582-.676.86-1.155.488-.852.746-1.795.746-2.729V10h1.43c.935 0 1.878-.258 2.73-.748.471-.272.848-.553 1.153-.859l1.345-1.345c.104.093.2.189.29.289l-1.342 1.349c-.31.31-.582.676-.86 1.155-.488.852-.746 1.795-.746 2.728zm-.794-6.483l-.18.18c-.439.439-1.036.693-1.652.722.521-.455 1.152-.764 1.832-.902zm-9.087 9.086C4.04 14.788 4 14.396 4 14c0-2.548 1.621-4.822 4.039-5.659C8.67 8.115 9.329 8 10 8l.25.01c.033 0 .065-.003.098-.01h.912c.92 0 1.822-.374 2.474-1.026l.89-.89c.042.006.083.013.124.02.128.024.254.054.378.089.069.02.138.039.206.062.125.043.245.095.363.15.044.021.09.039.134.061l-1.221 1.221c-.247.247-.548.47-.945.7-.7.401-1.472.614-2.231.614h-1.43c-.146 0-.277.019-.411.039l-.086.013c-.827.078-1.59.34-2.266.779l-.002.002c-.001.001-.003.001-.004.002-1.397.936-2.231 2.493-2.231 4.166 0 .096.008.186.02.273l-.9.9zm2.87-3.8c-.029.617-.283 1.214-.722 1.654l-.18.18c.138-.681.447-1.312.902-1.834zm-5.219 9.15c-.054-.014-.141-.052-.253-.141-.23-.182-.419-.463-.488-.703l5.945-5.946C7.626 13.08 8 12.179 8 11.259v-.696c.194-.109.389-.217.6-.292.039-.014.079-.025.119-.037.089-.028.189-.037.281-.059v1.255c0 .759-.212 1.531-.612 2.229-.231.399-.455.7-.701.947l-3.11 3.11s-.001.001-.001.002L1.77 20.524zm2.551 2.449c-.241-.069-.521-.259-.704-.488-.089-.112-.126-.199-.141-.252l2.502-2.502c.107.074.225.126.334.194.162.1.323.199.492.285.061.031.116.074.178.103l-2.661 2.662zM10 20c-.671 0-1.33-.115-1.97-.344-.642-.217-1.243-.546-1.787-.976-.225-.182-.433-.376-.63-.586l.719-.719c.223.244.469.461.74.656.688.511 1.527.828 2.413.915l.109.016c.132.02.262.038.405.038 1.579 0 3.055-.743 3.998-2h.002c.371 0 .739-.035 1.102-.094.031-.005.062-.007.092-.013.019-.003.038-.004.057-.008C14.211 18.781 12.208 20 9.999 20zm.794-2.087l.18-.18c.439-.439 1.036-.693 1.652-.722-.522.455-1.152.764-1.833.902zm9.087-9.086c.079.385.119.777.119 1.173 0 2.548-1.621 4.822-4.039 5.659-.631.226-1.29.341-1.961.341l-.25-.01h-.001c-.035 0-.069.004-.102.011L12.74 16c-.92 0-1.822.374-2.474 1.026l-.89.89c-.042-.006-.083-.013-.124-.02-.128-.024-.254-.054-.378-.089-.069-.02-.138-.039-.205-.062-.125-.043-.245-.095-.363-.15-.044-.021-.09-.039-.134-.061l1.221-1.221c.247-.247.548-.47.945-.7.7-.401 1.472-.614 2.231-.614h1.43c.144 0 .273-.018.405-.038l.092-.014c.827-.078 1.59-.34 2.266-.779.003-.002.005-.005.008-.007s.007-.004.011-.006c.011-.008.021-.016.031-.025C18.183 13.196 19 11.655 19 9.998c0-.096-.008-.186-.02-.273l.9-.9zm-2.869 3.798c.029-.615.283-1.213.722-1.652l.18-.18c-.138.68-.447 1.311-.902 1.832zm.014-2.358C16.374 10.92 16 11.821 16 12.74v.7c-.197.111-.398.216-.613.292-.043.015-.087.027-.131.041-.082.025-.172.033-.256.053v-1.257c0-.759.212-1.531.612-2.229.231-.399.455-.7.701-.947l3.11-3.11c.001-.001.001-.002.002-.002l2.805-2.805c.054.015.141.052.253.142.23.182.419.463.488.703l-5.945 5.946z"/></svg>