<svg xmlns="http://www.w3.org/2000/svg" viewBox="0 0 24 24"><path fill="#5c6671" d="M23.322 7.494c.006-.005.011-.011.017-.017C23.76 7.097 24 6.561 24 6c0-1.103-.897-2-2-2h-1.398c-.108-.111-.306-.398-.467-.634C19.33 2.19 17.832 0 15 0c-3.915 0-6 3.194-6 5.5 0 1.586 1.068 3.352 1.687 4.241-.478.123-1.222.259-2.187.259-1.872 0-3.238-.194-5.093-2.791-.086-.12-.22-.196-.366-.208-.142-.007-.291.041-.395.145l-.229.228C1.284 8.491 0 9.756 0 13c0 3.308 1.267 11 13 11 9.994 0 10.5-6.664 10.5-8 0-2.449-2.263-5.292-3.223-6.389.844-.521 2.466-1.552 3.045-2.118zM22.5 16c0 1.642-.686 7-9.5 7C2.169 23 1 16.007 1 13c0-2.672.921-3.725 1.942-4.74C4.91 10.789 6.565 11 8.5 11c1.992 0 3.159-.523 3.208-.545.141-.064.243-.19.278-.34s-.001-.309-.098-.429c-.019-.023-1.889-2.358-1.889-4.186 0-1.887 1.737-4.5 5-4.5 2.305 0 3.511 1.764 4.31 2.931.456.667.731 1.069 1.19 1.069h1.5c.552 0 1 .449 1 1 0 .291-.126.559-.354.754-.02.017-.038.035-.054.054-.616.579-2.618 1.824-3.35 2.263-.128.078-.218.208-.238.361s.029.305.135.415c.033.035 3.359 3.515 3.359 6.153zM16 4c-.552 0-1 .449-1 1s.448 1 1 1 1-.449 1-1-.448-1-1-1zm0 1z"/></svg>