<svg xmlns="http://www.w3.org/2000/svg" viewBox="0 0 24 24"><path fill="#5c6671" d="M23.8 1.931c-.13-.906-.827-1.602-1.732-1.732-1.755-.254-3.55-.265-5.331-.032C8.106 1.292 1.292 8.106.167 16.737c-.232 1.782-.222 3.576.032 5.332.131.905.827 1.601 1.732 1.731.917.133 1.844.199 2.774.199.852 0 1.706-.055 2.558-.167 8.631-1.125 15.445-7.939 16.57-16.57.232-1.782.222-3.575-.032-5.331zm-.959 5.202c-1.05 8.052-7.656 14.658-15.708 15.708-1.691.22-3.393.21-5.06-.03-.463-.067-.819-.423-.886-.885-.24-1.666-.251-3.368-.03-5.06C2.207 8.814 8.813 2.208 16.865 1.158c1.691-.219 3.393-.209 5.06.03.463.067.819.423.886.886.24 1.666.251 3.368.03 5.06zm-6.954-3.437c.144.236.068.543-.167.687-.922.561-1.837 1.204-2.736 1.894l.369.369c.195.195.195.512 0 .707-.098.098-.226.146-.354.146s-.256-.049-.354-.146l-.452-.452c-.472.384-.937.78-1.394 1.192l.552.552c.195.195.195.512 0 .707-.098.098-.226.146-.354.146s-.256-.049-.354-.146l-.577-.577c-.442.421-.871.852-1.292 1.294l.576.576c.195.195.195.512 0 .707-.098.098-.226.146-.354.146s-.256-.049-.354-.146l-.554-.554c-.411.456-.813.918-1.196 1.39l.457.457c.195.195.195.512 0 .707-.098.098-.226.146-.354.146s-.256-.049-.354-.146l-.366-.366c-.578.753-1.129 1.516-1.619 2.289-.095.15-.257.232-.423.232-.099 0-.191-.029-.269-.079-.231-.147-.301-.456-.153-.689.528-.833 1.125-1.655 1.752-2.466l-.422-.422c-.195-.195-.195-.512 0-.707s.512-.195.707 0l.332.332c.385-.47.787-.932 1.199-1.387l-.738-.738c-.195-.195-.195-.512 0-.707s.512-.195.707 0l.718.718c.421-.442.85-.873 1.292-1.294l-.717-.717c-.195-.195-.195-.512 0-.707s.512-.195.707 0l.741.741c.456-.413.92-.809 1.391-1.195l-.339-.339c-.195-.195-.195-.512 0-.707s.512-.195.707 0l.417.417c.962-.744 1.942-1.433 2.93-2.034.237-.144.543-.068.687.167z"/></svg>