<svg xmlns="http://www.w3.org/2000/svg" viewBox="0 0 24 24"><path fill="#5c6671" d="M23.174 16.431L7.57.827C6.467-.275 4.547-.275 3.444.827L.855 3.416C.304 3.966 0 4.699 0 5.479s.303 1.513.855 2.063l15.604 15.604c.551.551 1.285.855 2.063.855s1.512-.304 2.063-.855l2.589-2.589c.551-.55.855-1.283.855-2.063s-.303-1.513-.855-2.063zm-.708 3.418l-2.589 2.589c-.725.724-1.985.724-2.71 0L1.563 6.834c-.362-.362-.561-.843-.561-1.355s.199-.993.561-1.355l2.589-2.589c.363-.362.844-.561 1.355-.561s.992.199 1.355.561l1.441 1.441-1.148 1.148c-.196.196-.196.512 0 .708.098.098.226.147.354.147s.256-.049.354-.147l1.148-1.148 2.296 2.296-1.148 1.148c-.196.196-.196.512 0 .708.098.098.226.147.354.147s.256-.049.354-.147l1.148-1.148 2.296 2.296-1.148 1.148c-.196.196-.196.512 0 .708.098.098.226.147.354.147s.256-.049.354-.147l1.148-1.148 2.296 2.296-1.148 1.148c-.196.196-.196.512 0 .708.098.098.226.147.354.147s.256-.049.354-.147l1.148-1.148 2.296 2.296-1.148 1.148c-.196.196-.196.512 0 .708.098.098.226.147.354.147s.256-.049.354-.147l1.148-1.148 1.441 1.441c.362.362.561.843.561 1.355s-.199.993-.561 1.355zM4.505 3.977c-.828 0-1.502.674-1.502 1.502s.674 1.502 1.502 1.502 1.502-.674 1.502-1.502-.674-1.502-1.502-1.502zm0 2.002c-.276 0-.501-.224-.501-.501s.225-.501.501-.501.501.224.501.501-.225.501-.501.501z"/></svg>