<svg xmlns="http://www.w3.org/2000/svg" viewBox="0 0 18 24"><path fill="#5c6671" d="M17.5 5h-4.797c-.102-.34-.228-.671-.379-.99l5.161.004c.275 0 .499-.222.5-.498L18 .501c.001-.133-.052-.261-.145-.355s-.222-.147-.354-.147h-16c-.234 0-.431.223-.485.459L.029 3.336c-.053.152-.028.321.065.453s.246.209.407.209l5.535.004c.854.01 1.639.377 2.189.996H1.5c-.215 0-.406.138-.475.342l-1 3c-.051.152-.025.32.069.451s.244.208.405.208h7.727c-.559.631-1.357 1-2.227 1h-5.5c-.276 0-.5.224-.5.5v3c0 .276.224.5.5.5h2.293l9.854 9.854c.09.09.215.146.353.146h4.5c.202 0 .385-.122.462-.309s.034-.402-.108-.545l-9.54-9.541c2.098-.737 3.748-2.456 4.39-4.606H17.5c.276 0 .5-.224.5-.5v-3c0-.276-.224-.5-.5-.5zM17 8h-4.681c-.231 0-.434.159-.486.385-.531 2.245-2.329 4.004-4.58 4.482-.18.038-.324.171-.376.347s-.004.366.126.496l9.29 9.291h-3.086l-9.854-9.854c-.09-.09-.215-.146-.353-.146H1v-2h5c1.548 0 2.928-.875 3.602-2.284.074-.155.063-.337-.028-.482s-.251-.233-.423-.233H1.194l.667-2h7.29c.172 0 .331-.088.423-.233a.4999.4999 0 0 0 .077-.267c0-.078-.018-.152-.05-.218-.662-1.386-2.024-2.259-3.559-2.277l-4.841-.004.687-2h15.111l-.011 2.014-5.511-.005c-.183 0-.351.1-.438.26s-.081.355.018.51c.36.564.622 1.182.777 1.836.053.226.255.385.486.385h4.681v2z"/></svg>