<svg xmlns="http://www.w3.org/2000/svg" viewBox="0 0 24 24"><path fill="#5c6671" d="M12 0C5.383 0 0 5.383 0 12s5.383 12 12 12 12-5.383 12-12S18.617 0 12 0zm0 23C5.935 23 1 18.065 1 12S5.935 1 12 1s11 4.935 11 11-4.935 11-11 11zM8 11c1.103 0 2-.897 2-2s-.897-2-2-2-2 .897-2 2 .897 2 2 2zm0-3c.551 0 1 .448 1 1s-.449 1-1 1-1-.448-1-1 .449-1 1-1zm8-1c-1.103 0-2 .897-2 2s.897 2 2 2 2-.897 2-2-.897-2-2-2zm0 3c-.551 0-1-.448-1-1s.449-1 1-1 1 .448 1 1-.449 1-1 1zm1.892 8.23c.149.232.082.542-.151.69-.084.054-.177.079-.27.079-.165 0-.326-.081-.421-.23-1.111-1.734-3-2.77-5.05-2.77s-3.939 1.035-5.051 2.77c-.148.232-.459.301-.691.151s-.3-.458-.151-.69C7.404 16.208 9.606 15 12 15s4.596 1.208 5.892 3.23z"/></svg>