<svg xmlns="http://www.w3.org/2000/svg" viewBox="0 0 24 24"><path fill="#5c6671" d="M10 16c2.206 0 4-1.794 4-4 0-1.098-.446-2.094-1.165-2.817-.003-.003-.004-.008-.007-.011s-.008-.004-.011-.007C12.093 8.446 11.098 8 10 8c-2.206 0-4 1.794-4 4s1.794 4 4 4zm0-7c.647 0 1.243.211 1.733.56l-.723.724C10.712 10.108 10.37 10 10 10c-1.103 0-2 .897-2 2s.897 2 2 2 2-.897 2-2c0-.37-.108-.712-.283-1.009l.723-.724c.349.49.56 1.086.56 1.733 0 1.654-1.346 3-3 3s-3-1.346-3-3 1.346-3 3-3zm1 3c0 .551-.448 1-1 1s-1-.449-1-1 .448-1 1-1c.272 0 .518.111.698.287.003.003.003.006.006.009s.006.003.009.006c.177.18.287.426.287.698zm4-1.5c0-.276.224-.5.5-.5h2c.276 0 .5.224.5.5s-.224.5-.5.5h-2c-.276 0-.5-.224-.5-.5zm0 3c0-.276.224-.5.5-.5h2c.276 0 .5.224.5.5s-.224.5-.5.5h-2c-.276 0-.5-.224-.5-.5zM22 0H2C.897 0 0 .897 0 2v20c0 1.103.897 2 2 2h20c1.103 0 2-.897 2-2V2c0-1.103-.897-2-2-2zm1 22c0 .551-.448 1-1 1H2c-.552 0-1-.449-1-1V2c0-.551.448-1 1-1h20c.552 0 1 .449 1 1v20zM20.5 3h-17c-.276 0-.5.224-.5.5v3c0-.276-.224-.5-.5-.5s-.5.224-.5.5v2c0 .276.224.5.5.5s.5-.224.5-.5v7c0-.276-.224-.5-.5-.5s-.5.224-.5.5v2c0 .276.224.5.5.5s.5-.224.5-.5v3c0 .276.224.5.5.5h17c.276 0 .5-.224.5-.5v-17c0-.276-.224-.5-.5-.5zM20 20H4V4h16v16z"/></svg>