<svg xmlns="http://www.w3.org/2000/svg" viewBox="0 0 24 24"><path fill="#5c6671" d="M22.684 1.316c-1.755-1.755-4.609-1.755-6.365 0l-3.535 3.536c-.195.195-.195.512 0 .707l1.768 1.768c.01.01.023.014.034.022s.017.023.029.031c.017.013.038.015.056.025.028.015.055.029.085.038.034.011.067.017.103.02.028.003.055.004.083.002.036-.003.069-.01.104-.02.027-.008.053-.017.079-.03.032-.016.061-.036.089-.059.015-.012.032-.017.046-.031.01-.01.013-.023.022-.033s.022-.017.031-.029l1.714-2.412c.585-.585 1.536-.585 2.122 0s.585 1.537.063 2.069l-2.475 1.768c-.012.009-.018.022-.029.031s-.024.012-.034.022c-.014.014-.019.032-.031.047-.022.027-.041.054-.057.085-.014.028-.024.057-.033.087s-.015.061-.018.093c-.003.032-.001.063.003.096.003.031.008.06.018.09.01.033.025.063.042.094.009.017.012.035.023.051.007.01.018.013.026.022.011.013.015.029.027.041l1.169 1.168L5.999 21.026c0-.01.003-.019.003-.028 0-1.654-1.346-3-3-3-.198 0-.39.022-.577.058l8.507-14.304c.141-.237.063-.544-.174-.685s-.544-.063-.685.174L.428 19.458c-.013.021-.014.045-.024.067-.249.437-.402.935-.402 1.472 0 1.654 1.346 3 3 3 .716 0 1.366-.263 1.882-.683.027-.016.056-.027.08-.048l13.611-11.964c.07.035.144.058.22.058.128 0 .256-.049.354-.146l3.536-3.535c1.755-1.755 1.755-4.61 0-6.365zM1 21c0-1.103.897-2 2-2s2 .897 2 2-.897 2-2 2-2-.897-2-2zM21.977 6.974l-3.182 3.182-.998-.998 2.059-1.477c.975-.975.975-2.561 0-3.536s-2.561-.975-3.589.063l-1.424 1.995-.997-.997 3.182-3.182c1.365-1.364 3.586-1.364 4.951 0s1.364 3.586 0 4.951z"/></svg>