<svg xmlns="http://www.w3.org/2000/svg" viewBox="0 0 24 24"><path fill="#5c6671" d="M16.929 7.071c-2.198-2.199-4.544-3.997-6.604-5.063C8.068.84 6.416.68 5.55 1.548c-.16.16-.273.355-.363.567C3.759 4.147 3.001 6.525 3.001 9c0 2.434.733 4.698 1.983 6.591-2.826.493-4.983 3.106-4.983 6.145V22c0 1.103.897 2 2 2h8c1.103 0 2-.897 2-2v-.5c0-.305-.025-.61-.072-.914.983.261 2.009.414 3.072.414 2.456 0 4.818-.748 6.841-2.157.233-.091.438-.219.61-.391.867-.867.708-2.519-.46-4.776-1.066-2.061-2.864-4.406-5.063-6.604zm-6.092 13.175c.108.413.163.834.163 1.254v.5c0 .551-.448 1-1 1H2c-.552 0-1-.449-1-1v-.264c0-2.682 1.979-4.972 4.508-5.213.051-.005.1-.008.15-.01.326.404.679.784 1.053 1.142.048.046.098.088.147.134.327.303.67.587 1.029.853.06.045.119.091.18.134.83.59 1.737 1.073 2.704 1.439.023.009.044.021.067.03zM15 20c-1.272 0-2.489-.228-3.626-.627-.491-.172-.967-.375-1.425-.612-.005-.002-.01-.004-.014-.007-.453-.235-.886-.505-1.301-.8-.043-.031-.084-.064-.127-.095-.391-.287-.766-.597-1.117-.935-.012-.012-.025-.022-.038-.034-.368-.358-.712-.744-1.03-1.154C4.872 13.872 3.999 11.539 3.999 9c0-1.706.392-3.363 1.144-4.872.066.271.16.56.272.861.015.04.032.081.047.122.09.232.193.471.309.72.054.117.109.233.168.352.024.048.042.093.068.142.07.135.151.274.227.411.159.289.334.584.522.884.071.113.138.225.212.339.131.202.272.406.415.612.085.122.172.244.261.367.144.2.288.399.443.601.204.267.417.535.637.804.132.161.27.322.408.484.197.231.397.461.605.692.109.121.217.241.329.362.325.352.657.702 1.003 1.048.347.348.699.681 1.052 1.007.118.109.235.215.353.321.234.21.467.414.702.613.155.132.31.265.464.392.273.224.545.44.817.648.206.158.409.305.613.452.116.084.232.166.347.247.212.148.423.293.631.428.087.057.172.107.258.162.339.214.671.41.995.587.124.068.251.143.373.206.04.021.076.034.115.054.157.079.309.149.461.218.209.096.414.185.611.262.072.028.143.053.214.079.271.098.529.178.775.238.009.002.02.007.029.009-1.512.755-3.172 1.148-4.882 1.148zm6.744-2.255c-.061.061-.136.11-.222.149-.017.004-.034.003-.05.009-.248.096-.58.111-.974.055-.032-.005-.059-.005-.091-.011-.021-.004-.046-.011-.067-.015-.453-.087-.982-.26-1.567-.521-.01-.004-.02-.01-.03-.014-.194-.087-.393-.183-.597-.288-.011-.006-.022-.012-.033-.017-.234-.122-.471-.253-.713-.394-.012-.007-.025-.015-.037-.022-.243-.143-.489-.295-.739-.457-.009-.006-.017-.011-.026-.017-1.563-1.017-3.228-2.388-4.821-3.98-1.327-1.327-2.5-2.704-3.443-4.031-.008-.011-.014-.021-.022-.031-.178-.251-.347-.5-.507-.746-.012-.019-.024-.038-.036-.056-.154-.237-.299-.472-.436-.704-.013-.023-.027-.046-.04-.068-.088-.142-.212-.364-.331-.589-.054-.11-.066-.132-.077-.153-.065-.117-.157-.306-.245-.496-.039-.092-.047-.108-.053-.124-.27-.605-.449-1.153-.532-1.616 0-.003-.001-.006-.002-.008-.011-.064-.013-.12-.021-.181-.042-.356-.025-.66.065-.889.007-.017.005-.034.01-.052.039-.086.088-.161.148-.221.171-.171.445-.254.802-.254.685 0 1.671.308 2.808.895 1.971 1.02 4.229 2.753 6.356 4.881s3.861 4.385 4.882 6.356c.894 1.728 1.14 3.111.641 3.61zm-7.33-8.159c.378.377.586.88.586 1.414s-.208 1.037-.586 1.414c-.098.098-.226.146-.354.146s-.256-.049-.354-.146c-.195-.195-.195-.512 0-.707.189-.189.293-.44.293-.707s-.104-.518-.293-.707c-.391-.39-1.023-.39-1.414 0-.195.195-.512.195-.707 0s-.195-.512 0-.707c.779-.78 2.049-.78 2.828 0zM24 9.5c0 .276-.224.5-.5.5s-.5-.224-.5-.5C23 4.813 19.187 1 14.5 1c-.276 0-.5-.224-.5-.5s.224-.5.5-.5C19.738 0 24 4.262 24 9.5zM14.5 4c-.276 0-.5-.224-.5-.5s.224-.5.5-.5C18.084 3 21 5.916 21 9.5c0 .276-.224.5-.5.5s-.5-.224-.5-.5C20 6.467 17.532 4 14.5 4z"/></svg>