<svg xmlns="http://www.w3.org/2000/svg" viewBox="0 0 24 24"><path fill="#5c6671" d="M24 14.98c0-.1-.001-.211-.01-.261C23.845 8.257 18.466 3 12 3 5.383 3 0 8.383 0 15c0 1.392.957 2.555 2.245 2.892l-1.192 2.384c-.077.155-.069.339.021.486s.253.237.426.237h3c.173 0 .334-.09.426-.237s.099-.332.021-.486l-1.192-2.384C5.043 17.555 6 16.392 6 15c0-3.309 2.691-6 6-6s6 2.687 6 6.01c0 1.387.957 2.546 2.245 2.882l-1.192 2.384c-.077.155-.069.339.021.486s.253.237.426.237h3c.173 0 .334-.09.426-.237s.099-.332.021-.486l-1.193-2.385c1.279-.337 2.235-1.495 2.245-2.911zM2.309 20L3 18.618 3.691 20H2.308zm18 0L21 18.618 21.691 20h-1.383zM21 17c-1.103 0-2-.893-2-2.01C19 11.136 15.859 8 12 8s-7 3.14-7 7c0 1.103-.897 2-2 2s-2-.897-2-2C1 8.935 5.935 4 12 4c5.927 0 10.856 4.818 10.994 10.791.007.061.006.129.006.226-.008 1.094-.905 1.983-2 1.983zM12.5 5.5c0 .276-.224.5-.5.5-4.963 0-9 4.038-9 9 0 .276-.224.5-.5.5S2 15.276 2 15C2 9.486 6.486 5 12 5c.276 0 .5.224.5.5z"/></svg>