<svg xmlns="http://www.w3.org/2000/svg" viewBox="0 0 24 24"><path fill="#5c6671" d="M23.414 1.707L22.293.586C21.921.213 21.405 0 20.879 0H2C.897 0 0 .897 0 2v20c0 1.103.897 2 2 2h20c1.103 0 2-.897 2-2V3.121c0-.526-.214-1.042-.586-1.414zM18 1v6.5c0 .276-.225.5-.5.5H17V1h1zm-2 0v7h-3V1h3zm-4 0v7H8.5c-.275 0-.5-.224-.5-.5V1h4zm8 22H4V12.5c0-.276.225-.5.5-.5h15c.275 0 .5.224.5.5V23zm2 0h-1V12.5c0-.827-.673-1.5-1.5-1.5h-15c-.827 0-1.5.673-1.5 1.5V23H2c-.552 0-1-.449-1-1V2c0-.551.448-1 1-1h5v6.5C7 8.327 7.673 9 8.5 9h9c.827 0 1.5-.673 1.5-1.5V1h1.879c.263 0 .52.107.707.293l1.121 1.121c.187.186.293.444.293.707v18.282c-.046-.228-.238-.403-.48-.403h-.01c-.276 0-.495.224-.495.5s.23.5.505.5c.242 0 .434-.175.48-.403V22c0 .551-.448 1-1 1z"/></svg>