<svg xmlns="http://www.w3.org/2000/svg" viewBox="0 0 24 24"><path fill="#5c6671" d="M5.943 14.247c-.076-.137-.213-.231-.368-.253-.153-.021-.312.031-.423.142L3.65 15.638c-.158.158-.192.402-.084.597l2.503 4.505c.076.137.213.231.368.253.02.003.044.005.068.005h.002c.138 0 .263-.056.354-.147l1.502-1.502c.158-.158.192-.402.084-.597l-2.503-4.505zm.679 5.426l-1.997-3.595.765-.765 1.997 3.595-.765.765zm17.376-16.06c.009-.033.023-.065.025-.099.002-.025-.006-.051-.008-.077-.003-.04-.005-.079-.017-.117-.001-.004 0-.008-.002-.012-.01-.027-.029-.046-.042-.069-.015-.027-.023-.057-.044-.082L21.935.787c-.791-.949-2.336-1.058-3.252-.229L6.818 11.295c-.256-.191-.563-.31-.892-.31h-.54c-.368 0-.722.134-.998.379L.84 14.518c-.534.474-.84 1.156-.84 1.871v1.604c0 .552.449 1.001 1.001 1.001.469 0 .865-.325.972-.762.064-.05.156-.106.258-.11.131.003.265.07.418.224.645.646 2.69 4.117 3.423 5.4.071.123.189.211.33.241.034.007.069.011.105.011.113 0 .217-.038.301-.101l2.958-2.218c.754-.566 1.205-1.458 1.234-2.399.001-.005.004-.008.005-.013l.27-1.663 1.583-.574c.171-.062.295-.212.324-.391l.269-1.66 1.578-.57c.17-.062.294-.209.324-.388l.268-1.661 1.578-.57c.171-.062.295-.212.324-.392l.265-1.655 1.578-.57c.17-.063.294-.21.324-.389l.264-1.655 1.574-.566c.171-.062.296-.212.325-.392l.265-1.656 1.576-.568c.026-.009.045-.028.069-.042.027-.015.057-.024.082-.044.004-.003.005-.008.009-.011.026-.023.044-.053.065-.08.018-.025.041-.047.054-.074s.016-.056.024-.084zM9.166 20.88l-2.508 1.88c-.735-1.268-2.581-4.4-3.301-5.12-.42-.42-.828-.518-1.116-.518-.024 0-.048.001-.07.002-.625.035-1.017.503-1.06.557-.068.085-.109.194-.109.313V16.39c0-.429.184-.838.504-1.122l3.548-3.154c.088-.079.205-.127.333-.127h.54c.179 0 .346.097.435.252l3.372 5.901c.182.319.278.681.278 1.049 0 .661-.316 1.293-.845 1.69zM21.502 3.676c-.172.062-.296.212-.325.392l-.265 1.655-1.574.566c-.17.063-.295.21-.324.39l-.264 1.655-1.578.57c-.171.062-.295.212-.324.392l-.265 1.655-1.578.57c-.171.062-.295.212-.324.391l-.268 1.658-1.578.57c-.171.062-.295.211-.324.391l-.269 1.66-1.583.574c-.171.062-.294.212-.324.391l-.003.016-2.902-5.079L19.354 1.302c.512-.461 1.373-.4 1.812.128l1.518 1.821-1.182.426z"/></svg>