<svg xmlns="http://www.w3.org/2000/svg" viewBox="0 0 18 24"><path fill="#5c6671" d="M16 0H2C.897 0 0 .897 0 2v20c0 1.103.897 2 2 2h11c1.103 0 2-.897 2-2v-3h1c1.103 0 2-.897 2-2V2c0-1.103-.897-2-2-2zm-2 2v20c0 .551-.449 1-1 1v-3.5c0-.276-.224-.5-.5-.5s-.5.224-.5.5V23h-1v-3.5c0-.276-.224-.5-.5-.5s-.5.224-.5.5V23H9v-3.5c0-.276-.224-.5-.5-.5s-.5.224-.5.5V23H7v-3.5c0-.276-.224-.5-.5-.5s-.5.224-.5.5V23H5v-3.5c0-.276-.224-.5-.5-.5s-.5.224-.5.5V23H3v-3.5c0-.276-.224-.5-.5-.5s-.5.224-.5.5V23c-.551 0-1-.449-1-1V2c0-.551.449-1 1-1h12.269c-.171.294-.269.636-.269 1zm3 15c0 .551-.449 1-1 1h-1V2c0-.551.449-1 1-1s1 .449 1 1v15z"/></svg>