<svg xmlns="http://www.w3.org/2000/svg" viewBox="0 0 24 24"><path fill="#5c6671" d="M23.854 1.146l-1-1c-.152-.153-.385-.189-.577-.094l-3.446 1.723c-.511.256-.829.77-.829 1.342v.674l-5.756 5.756-.396-.396c-.189-.19-.494-.195-.691-.015l-1.014.929c-.111.102-.17.248-.161.398.001.02.006.051.012.08-.02.257-.234.46-.458.462-.018-.005-.093-.022-.111-.025-.152-.025-.305.022-.418.125L.817 18.614c-.526.599-.816 1.358-.816 2.137 0 1.792 1.458 3.25 3.249 3.25.779 0 1.538-.29 2.176-.854l7.47-8.155c.104-.113.149-.267.125-.418-.001-.009-.015-.064-.023-.099.014-.249.211-.449.459-.469.029.006.06.011.081.012.151.009.296-.05.398-.161l.929-1.014c.181-.197.174-.502-.015-.691l-.396-.396L20.21 6h.675c.571 0 1.085-.317 1.341-.829l1.723-3.446c.096-.192.059-.425-.094-.577zM13.353 13.01c-.756.071-1.352.708-1.357 1.482l-7.27 7.94c-.423.372-.934.568-1.477.568C2.009 23 1 21.991 1 20.75c0-.543.196-1.054.53-1.438l7.979-7.309c.773-.006 1.41-.601 1.481-1.357l.491-.45 2.322 2.322-.45.491zm7.977-8.288c-.085.17-.256.276-.447.276h-.882c-.138 0-.263.056-.353.146l-5.902 5.902-.792-.792 5.902-5.902c.09-.09.146-.215.146-.353v-.881c0-.191.106-.362.276-.447l3.124-1.562.49.49-1.562 3.124z"/></svg>