<svg xmlns="http://www.w3.org/2000/svg" viewBox="0 0 18 24"><path fill="#5c6671" d="M17.5 8c.276 0 .5-.224.5-.5V5.328c0-.667-.26-1.295-.732-1.768L14.44.732C13.968.26 13.34 0 12.672 0H2C.897 0 0 .897 0 2v5.5c0 .276.224.5.5.5H1v5H.5c-.276 0-.5.224-.5.5V22c0 1.103.897 2 2 2h4.5c.276 0 .5-.224.5-.5V23h4v.5c0 .276.224.5.5.5H16c1.103 0 2-.897 2-2V10.5c0-.276-.224-.5-.5-.5H17V8h.5zM8 3V1h1v2H8zM6 3V1h1v2H6zM4 3V1h1v2H4zm6-2h1v2h-1V1zm6.5 10h.5v11c0 .551-.448 1-1 1h-4v-.5c0-.276-.224-.5-.5-.5h-5c-.276 0-.5.224-.5.5v.5H2c-.552 0-1-.449-1-1v-8h.5c.276 0 .5-.224.5-.5v-6c0-.276-.224-.5-.5-.5H1V2c0-.551.448-1 1-1h1v2.5c0 .276.224.5.5.5h8c.276 0 .5-.224.5-.5V1h.672c.4 0 .777.156 1.061.439l2.828 2.828c.279.279.439.666.439 1.061V7h-.5c-.276 0-.5.224-.5.5v3c0 .276.224.5.5.5zM13 8H5c-1.103 0-2 .897-2 2v8c0 1.103.897 2 2 2h8c1.103 0 2-.897 2-2v-8c0-1.103-.897-2-2-2zm1 10c0 .551-.448 1-1 1H5c-.552 0-1-.449-1-1v-8c0-.551.448-1 1-1h8c.552 0 1 .449 1 1v8z"/></svg>