<svg xmlns="http://www.w3.org/2000/svg" viewBox="0 0 24 24"><path fill="#5c6671" d="M23.276 20.115l-.001-.001-5.874-5.349c1.008-1.508 1.598-3.318 1.598-5.264 0-5.238-4.262-9.5-9.5-9.5s-9.5 4.262-9.5 9.5 4.262 9.5 9.5 9.5c1.916 0 3.697-.575 5.191-1.554l5.424 5.831c.423.459 1.022.723 1.646.723 1.234 0 2.238-1.004 2.238-2.238 0-.625-.264-1.226-.724-1.647zM1 9.5C1 4.813 4.813 1 9.5 1S18 4.813 18 9.5c0 1.902-.636 3.654-1.695 5.072-.509.681-1.111 1.278-1.791 1.776C13.106 17.381 11.376 18 9.5 18 4.813 18 1 14.187 1 9.5zM21.762 23c-.345 0-.677-.146-.912-.402l-5.344-5.745c.476-.392.9-.812 1.283-1.269l5.812 5.267c.254.233.399.565.399.911 0 .683-.556 1.238-1.238 1.238zM10 3.5c0 .276-.224.5-.5.5C6.468 4 4 6.467 4 9.5c0 .276-.224.5-.5.5S3 9.776 3 9.5C3 5.916 5.916 3 9.5 3c.276 0 .5.224.5.5z"/></svg>