<svg xmlns="http://www.w3.org/2000/svg" viewBox="0 0 24 24"><path fill="#5c6671" d="M22.818 15.602c.299-.945.237-2.137.19-2.984l-.009-.146C22.85 9.684 19.325 3 11.493 3 3.554 3 0 7.771 0 12.499c0 4.12 2.937 8.499 8.38 8.499 1.63 0 2.926-.401 3.965-1.035 1.184.958 2.573 1.037 4.271 1.037.138 0 .278 0 .42-.001l.465-.001c2.273 0 6.5-2.056 6.5-4 0-.42-.361-1.122-1.182-1.397zM17.5 19.998l-.468.001c-1.69.006-2.879.006-3.848-.648 2.127-1.831 2.815-4.8 2.815-6.852 0-2.649-2.034-5.5-6.5-5.5-3.572 0-5.5 2.576-5.5 5 0 2.953 2.154 4 4 4 2.759 0 3.993-1.704 3.993-3.393 0-1.791-1.292-2.607-2.493-2.607-2.257 0-2.5 1.398-2.5 2 0 .276.224.5.5.5s.5-.224.5-.5c0-.299 0-1 1.5-1 .688 0 1.493.421 1.493 1.607 0 1.104-.784 2.393-2.993 2.393-.704 0-3-.216-3-3 0-1.987 1.546-4 4.5-4 3.779 0 5.5 2.333 5.5 4.5 0 .573-.106 4.466-2.834 6.405-.033.016-.064.039-.093.063-.916.623-2.114 1.031-3.693 1.031-4.793 0-7.38-3.864-7.38-7.499C.999 8.269 4.243 4 11.492 4 19.134 4 21.898 10.646 22 12.526l.008.148c.055.977.168 3.01-.697 3.361-.256.104-.379.396-.274.651.103.256.394.377.651.275.252-.102.444-.263.614-.446.51.085.689.416.698.483 0 1.033-3.288 3-5.5 3z"/></svg>