<svg xmlns="http://www.w3.org/2000/svg" viewBox="0 0 24 24"><path fill="#5c6671" d="M23.846 11.138l-11.5-11c-.193-.185-.498-.185-.691 0l-11.5 11c-.147.141-.194.358-.118.547s.26.314.464.314h1.5v10c0 1.103.897 2 2 2h16c1.103 0 2-.897 2-2v-10h1.5c.204 0 .388-.124.464-.314s.029-.406-.118-.547zM21.5 11c-.276 0-.5.224-.5.5V22c0 .551-.448 1-1 1H4c-.552 0-1-.449-1-1V11.5c0-.276-.224-.5-.5-.5h-.754L12 1.192 22.254 11H21.5zM9 12v1.092c-.581.207-1 .757-1 1.408v4c0 .827.673 1.5 1.5 1.5h5c.827 0 1.5-.673 1.5-1.5v-4c0-.651-.419-1.201-1-1.408V12c0-1.654-1.346-3-3-3s-3 1.346-3 3zm6 6.5c0 .276-.225.5-.5.5h-5c-.275 0-.5-.224-.5-.5v-4c0-.276.225-.5.5-.5h5c.275 0 .5.224.5.5v4zM14 12v1h-4v-1c0-1.103.897-2 2-2s2 .897 2 2zm-1 4c0-.551-.448-1-1-1s-1 .449-1 1c0 .29.128.546.326.729l-.274.547c-.077.155-.069.339.021.486s.253.237.426.237h1c.173 0 .334-.09.426-.237s.099-.332.021-.486l-.274-.547c.198-.183.326-.439.326-.729zm-1-.001z"/></svg>