<svg xmlns="http://www.w3.org/2000/svg" viewBox="0 0 18 24"><path fill="#5c6671" d="M16.5 9H16V7c0-3.86-3.14-7-7-7S2 3.14 2 7v2h-.5C.673 9 0 9.673 0 10.5V22c0 1.103.897 2 2 2h13.5c1.378 0 2.5-1.122 2.5-2.5v-11c0-.827-.673-1.5-1.5-1.5zM3 7c0-3.309 2.691-6 6-6s6 2.691 6 6v2h-2V7c0-2.206-1.794-4-4-4S5 4.794 5 7v2H3V7zm3 2V7c0-1.654 1.346-3 3-3s3 1.346 3 3v2H6zm11 12.5c0 .827-.673 1.5-1.5 1.5H2c-.551 0-1-.449-1-1V10.5c0-.276.224-.5.5-.5h15c.276 0 .5.224.5.5v11zM9 13c-1.103 0-2 .897-2 2 0 .582.248 1.118.677 1.494l-.665 2.894c-.034.148.001.304.096.423s.239.188.391.188h3c.152 0 .296-.069.391-.188s.13-.275.096-.423l-.665-2.894c.429-.375.677-.912.677-1.494 0-1.103-.897-2-2-2zm.872 6H8.128l.598-2.603c.049-.211-.045-.431-.231-.542-.31-.184-.494-.504-.494-.856 0-.551.449-1 1-1s1 .449 1 1c0 .352-.185.672-.494.856-.187.111-.281.33-.232.542L9.873 19z"/></svg>