<svg xmlns="http://www.w3.org/2000/svg" viewBox="0 0 24 24"><path fill="#5c6671" d="M22 8c1.103 0 2-.897 2-2V2c0-1.103-.897-2-2-2H2C.897 0 0 .897 0 2v4c0 1.103.897 2 2 2h9.5v2H2c-1.103 0-2 .897-2 2v4c0 1.103.897 2 2 2h9.5v1h-1c-.276 0-.5.224-.5.5V21H8.5c-.276 0-.5.224-.5.5v.5H.5c-.276 0-.5.224-.5.5s.224.5.5.5H8v.5c0 .276.224.5.5.5h7c.276 0 .5-.224.5-.5V23h7.5c.276 0 .5-.224.5-.5s-.224-.5-.5-.5H16v-.5c0-.276-.224-.5-.5-.5H14v-1.5c0-.276-.224-.5-.5-.5h-1v-1H22c1.103 0 2-.897 2-2v-4c0-1.103-.897-2-2-2h-9.5V8H22zm-8.5 14H15v1H9v-1h1.5c.276 0 .5-.224.5-.5V20h2v1.5c0 .276.224.5.5.5zM23 12v4c0 .551-.448 1-1 1H2c-.552 0-1-.449-1-1v-4c0-.551.448-1 1-1h20c.552 0 1 .449 1 1zM1 6V2c0-.551.448-1 1-1h20c.552 0 1 .449 1 1v4c0 .551-.448 1-1 1H2c-.552 0-1-.449-1-1zm19 0c1.103 0 2-.897 2-2s-.897-2-2-2-2 .897-2 2 .897 2 2 2zm0-3c.552 0 1 .449 1 1s-.448 1-1 1-1-.449-1-1 .448-1 1-1zM9 3c0 .276-.224.5-.5.5h-6c-.276 0-.5-.224-.5-.5s.224-.5.5-.5h6c.276 0 .5.224.5.5zm0 2c0 .276-.224.5-.5.5h-6c-.276 0-.5-.224-.5-.5s.224-.5.5-.5h6c.276 0 .5.224.5.5zm6 0c.552 0 1-.449 1-1s-.448-1-1-1-1 .449-1 1 .448 1 1 1zm0-1.001zM13 4c0-.551-.448-1-1-1s-1 .449-1 1 .448 1 1 1 1-.449 1-1zm-1-.001zM20 16c1.103 0 2-.897 2-2s-.897-2-2-2-2 .897-2 2 .897 2 2 2zm0-3c.552 0 1 .449 1 1s-.448 1-1 1-1-.449-1-1 .448-1 1-1zM9 13c0 .276-.224.5-.5.5h-6c-.276 0-.5-.224-.5-.5s.224-.5.5-.5h6c.276 0 .5.224.5.5zm0 2c0 .276-.224.5-.5.5h-6c-.276 0-.5-.224-.5-.5s.224-.5.5-.5h6c.276 0 .5.224.5.5zm6 0c.552 0 1-.449 1-1s-.448-1-1-1-1 .449-1 1 .448 1 1 1zm0-1.001zM11 14c0 .551.448 1 1 1s1-.449 1-1-.448-1-1-1-1 .449-1 1zm1 0z"/></svg>