<svg xmlns="http://www.w3.org/2000/svg" viewBox="0 0 24 24"><path fill="#5c6671" d="M19 14c-1.389 0-2.699.582-3.648 1.61l-5.54-2.285c.125-.44.188-.885.188-1.325s-.063-.885-.188-1.325l5.54-2.285C16.301 9.418 17.611 10 19 10c2.757 0 5-2.243 5-5s-2.243-5-5-5-5 2.243-5 5c0 .223.017.448.051.681l-5.917 2.44C7.241 7.396 6.14 7 5 7c-2.757 0-5 2.243-5 5s2.243 5 5 5c1.14 0 2.241-.396 3.134-1.121l5.917 2.44c-.034.232-.051.457-.051.681 0 2.757 2.243 5 5 5s5-2.243 5-5-2.243-5-5-5zm0 9c-2.206 0-4-1.794-4-4 0-.279.034-.566.104-.878.054-.238-.072-.479-.297-.572L8.23 14.837c-.062-.025-.126-.038-.19-.038-.123 0-.245.046-.339.133C6.953 15.621 5.994 16 5 16c-2.206 0-4-1.794-4-4s1.794-4 4-4c.994 0 1.954.38 2.701 1.068.143.132.349.168.529.095l6.577-2.713c.225-.093.351-.334.297-.571C15.034 5.566 15 5.278 15 5c0-2.206 1.794-4 4-4s4 1.794 4 4-1.794 4-4 4c-1.208 0-2.343-.555-3.114-1.521-.138-.174-.375-.234-.582-.15L8.999 9.93c-.251.104-.374.388-.276.642.184.476.276.957.276 1.43s-.093.954-.276 1.43c-.097.254.025.538.276.642l6.305 2.601c.205.084.442.023.582-.15.771-.967 1.906-1.521 3.114-1.521 2.206 0 4 1.794 4 4s-1.794 4-4 4z"/></svg>