<svg xmlns="http://www.w3.org/2000/svg" viewBox="0 0 24 24"><path fill="#5c6671" d="M22.783 4.518l-1.845-1.319c.075-.168.07-.363-.047-.511L18.895.194c-.009-.012-.019-.023-.029-.034 0-.001 0 0 0 0-.01-.01-.019-.02-.029-.028-.096-.087-.216-.131-.337-.131H5.501c-.102.003-.243.043-.339.131-.01.009-.019.019-.028.028-.01.011-.02.022-.029.034L3.109 2.688c-.118.148-.122.343-.047.511L1.26 4.491C.483 4.935 0 5.766 0 6.661V22c0 1.103.897 2 2 2h20c1.103 0 2-.897 2-2V6.661c0-.895-.483-1.727-1.217-2.143zm-2.902-1.491l-4.459 6.688L12.707 7l5.751-5.751 1.423 1.778zM10.96 12h2.099l1.375 11h-4.39l.917-11zm2.272-1h-2.423l-.701-1.401L12 7.707l2.057 2.057L13.233 11zm4.061-10L12 6.293 6.707 1h10.586zm-11.752.249L11.292 7 8.577 9.715 4.118 3.027l1.423-1.778zM1 22V6.661c0-.537.29-1.036.799-1.33l1.798-1.285 4.488 6.731c.083.125.218.206.367.22.154.014.297-.038.403-.144l.509-.509.627 1.255L9.041 23h-7.04c-.551 0-1-.449-1-1zm22 0c0 .551-.449 1-1 1h-6.559l-1.422-11.377.759-1.138.369.369c.09.09.215.146.354.146.016 0 .033-.001.049-.002.149-.015.284-.096.367-.22l4.488-6.732 1.84 1.313c.466.267.756.766.756 1.302V22z"/></svg>