<svg xmlns="http://www.w3.org/2000/svg" viewBox="0 0 24 24"><path fill="#5c6671" d="M23.585 4.419L19.581.415c-.566-.568-1.604-.527-2.078-.041l-1.168.919c-1.458 1.458-1.687 3.669-.723 5.385l-5.825 5.825c-.092-.013-.184-.02-.277-.017-.341.019-.661.158-.912.382L5.86 10.13c-.096-.095-.216-.139-.362-.147-.135.002-.264.059-.357.158L1.76 13.744C.626 14.878.001 16.387.001 17.991c0 3.312 2.694 6.006 6.006 6.006 1.604 0 3.112-.625 4.236-1.748l3.615-3.393c.099-.093.155-.222.158-.357v-.007c0-.138-.056-.264-.147-.354L11.131 15.4c.224-.252.364-.571.382-.912.005-.094-.002-.187-.014-.28l5.822-5.822c.677.379 1.424.589 2.182.589 1.166 0 2.339-.451 3.243-1.357l.839-1.077c.283-.283.44-.661.44-1.062s-.156-.779-.44-1.062zM18.519.976c.134 0 .26.052.354.147l4.005 4.005c.094.094.146.219.146.353s-.052.259-.187.399l-.273.35-4.795-4.795.397-.312c.094-.094.219-.146.353-.146zM9.202 13.674c.09-.112.219-.179.363-.187.01 0 .02-.001.029-.001.133 0 .257.051.352.147l.42.42c.102.102.153.238.146.382s-.074.273-.187.363l-3.579 2.863c-.115.093-.282.083-.387-.021s-.114-.271-.021-.387l2.863-3.579zm.343 7.859c-.946.945-2.203 1.466-3.539 1.466-2.76 0-5.005-2.245-5.005-5.005 0-1.337.521-2.594 1.477-3.55l3.039-3.238 2.433 2.433-2.392 2.99c-.412.515-.37 1.254.095 1.72.251.251.581.379.913.379.284 0 .569-.094.807-.284l2.99-2.392 2.433 2.433-3.249 3.05zm1.466-8.251l-.293-.293 5.485-5.485c.047.052.082.111.132.161s.11.084.161.132l-5.485 5.485zm6.031-6.324c-1.359-1.36-1.364-3.567-.061-4.895l4.95 4.95c-1.371 1.305-3.543 1.291-4.889-.054z"/></svg>