<svg xmlns="http://www.w3.org/2000/svg" viewBox="0 0 24 24"><path fill="#5c6671" d="M19.854 5.146l-.396-.396c-.411-.409-1.016-.491-1.515-.265C16.851 3.528 15.468 3 14 3c-1.067 0-2.105.284-3.024.823C10.289 3.289 9.455 3 8.586 3H6.827c-1.635 0-3.171.637-4.326 1.792l-.095.095C.854 6.438 0 8.501 0 10.695V20.5c0 .276.224.5.5.5h2c.276 0 .5-.224.5-.5v-9.362c0-1.567.61-3.041 1.719-4.149.638-.637 1.485-.988 2.387-.988h1.202c.154 0 .306.032.446.091C8.26 6.981 8 7.977 8 9.001c0 1.466.527 2.848 1.484 3.941-.08.174-.129.362-.129.559 0 .362.141.702.396.958l.396.396c.094.094.221.146.354.146s.26-.053.354-.146l9-9c.195-.195.195-.512 0-.707zM9.77 5.574C9.367 5.204 8.847 5 8.308 5H7.106c-1.169 0-2.268.455-3.094 1.281C2.715 7.578 2 9.303 2 11.137v8.862H1v-9.305c0-1.927.751-3.739 2.113-5.101l.095-.095c.967-.967 2.252-1.5 3.619-1.5h1.759c.741 0 1.452.286 2 .805.172.162.431.182.623.052 1.807-1.219 4.308-1.082 5.955.271l-7.035 7.036C9.398 11.271 9 10.165 9 8.998c0-.993.293-1.954.847-2.779.138-.205.105-.48-.077-.647zm.73 8.218l-.042-.042c-.067-.066-.104-.155-.104-.25s.036-.184.104-.25l7.791-7.792c.069-.069.16-.104.251-.104s.182.035.251.104l.042.042-8.293 8.292zm5.475 2.55c.087.262-.055.545-.316.632-.053.018-.105.026-.158.026-.209 0-.404-.132-.475-.342l-1-3c-.087-.262.055-.545.316-.632s.545.054.633.316l1 3zm2.171-2.488l-2-2c-.195-.195-.195-.512 0-.707s.512-.195.707 0l2 2c.195.195.195.512 0 .707-.098.098-.226.146-.354.146s-.256-.049-.354-.146zm.512-4.828l3 1c.262.087.403.37.316.632-.07.209-.266.342-.475.342-.053 0-.105-.008-.158-.026l-3-1c-.262-.087-.403-.37-.316-.632.089-.262.372-.401.633-.316zm1.258 9.197c.153.23.091.54-.139.693-.078.053-.174.084-.277.084-.161 0-.319-.078-.416-.223l-2-3c-.153-.23-.091-.54.139-.693.228-.152.539-.092.693.139l2 3zm4-3.446c-.097.145-.255.223-.416.223-.103 0-.199-.031-.279-.085l-2.998-1.999c-.23-.153-.292-.463-.139-.693s.466-.291.693-.139l3 2c.229.153.292.463.139.693z"/></svg>