<svg xmlns="http://www.w3.org/2000/svg" viewBox="0 0 24 24"><path fill="#5c6671" d="M12 3C6.444 3 1.405 6.73.018 11.87.007 11.909 0 11.954 0 12s.006.091.018.133C1.405 17.269 6.444 21 12 21s10.595-3.73 11.982-8.87c.011-.039.018-.084.018-.13s-.006-.091-.018-.133C22.595 6.731 17.556 3 12 3zm0 17c-5.064 0-9.66-3.356-10.981-8C2.34 7.356 6.936 4 12 4s9.66 3.356 10.981 8C21.66 16.644 17.064 20 12 20zm0-14c-3.309 0-6 2.691-6 6s2.691 6 6 6 6-2.691 6-6-2.691-6-6-6zm0 11c-2.757 0-5-2.243-5-5s2.243-5 5-5 5 2.243 5 5-2.243 5-5 5z"/></svg>