<svg xmlns="http://www.w3.org/2000/svg" viewBox="0 0 24 24"><path fill="#5c6671" d="M22.321 11.152c-.482-.167-.956-.493-1.489-1.027l-5.514-5.514C14.278 3.572 12.897 3 11.428 3H1.999c-1.103 0-2 .897-2 2v12.5c0 .827.673 1.5 1.5 1.5h1.184c.414 1.161 1.514 2 2.816 2s2.402-.838 2.816-2h7.369c.414 1.161 1.514 2 2.816 2s2.402-.838 2.816-2H22c1.103 0 2-.897 2-2v-3.496c0-1.06-.675-2.005-1.679-2.353zM5.5 20c-1.103 0-2-.897-2-2s.897-2 2-2 2 .897 2 2-.897 2-2 2zm13 0c-1.103 0-2-.897-2-2s.897-2 2-2 2 .897 2 2-.897 2-2 2zm4.5-3c0 .551-.448 1-1 1h-.5c0-1.654-1.346-3-3-3s-3 1.346-3 3h-7c0-1.654-1.346-3-3-3s-3 1.346-3 3h-1c-.275 0-.5-.224-.5-.5V5c0-.551.448-1 1-1h9.429c1.201 0 2.332.468 3.183 1.318l5.514 5.514c.645.645 1.238 1.047 1.87 1.266.601.208 1.005.773 1.005 1.407v3.496zm-4-5.5c0 .276-.224.5-.5.5h-5c-.276 0-.5-.224-.5-.5v-5c0-.276.224-.5.5-.5s.5.224.5.5V11h4.5c.276 0 .5.224.5.5zM6.5 6h-3c-.276 0-.5.224-.5.5v5c0 .276.224.5.5.5h3c.276 0 .5-.224.5-.5v-5c0-.276-.224-.5-.5-.5zM6 11H4V7h2v4zm5.5-5h-3c-.276 0-.5.224-.5.5v5c0 .276.224.5.5.5h3c.276 0 .5-.224.5-.5v-5c0-.276-.224-.5-.5-.5zm-.5 5H9V7h2v4z"/></svg>