<svg xmlns="http://www.w3.org/2000/svg" viewBox="0 0 18 24"><path fill="#5c6671" d="M12.863 18H5.651c-.276 0-.5.224-.5.5v1.606C5.151 22.253 6.898 24 9.046 24h.424c2.146 0 3.894-1.747 3.894-3.894V18.5c0-.276-.224-.5-.5-.5zm-.5 2.106c0 1.596-1.298 2.894-2.894 2.894h-.424c-1.596 0-2.895-1.298-2.895-2.894V19h6.212v1.106zm-5.033.566c-.095-.259.039-.546.298-.642.261-.093.547.039.642.298.146.402.544.672.988.672.276 0 .5.224.5.5s-.224.5-.5.5c-.862 0-1.637-.534-1.928-1.328zM5.651 17h7.212c.21 0 .398-.132.47-.33C18 3.807 18 3.614 18 3.5 18 1.928 15.781.857 12.969.345c-.014-.003-.026-.012-.041-.014-.011-.001-.021.003-.031.002C11.663.113 10.32-.001 9-.001c-1.137 0-2.291.085-3.378.249-.012.001-.023-.004-.035-.003-.017.002-.03.012-.047.016C2.492.732 0 1.833 0 3.499c0 .126 0 .337 5.187 13.187.076.189.26.313.464.313zM16.998 3.449c-.226.757-2.737 7.731-4.485 12.551h-1.14L13.29 1.423c2.301.497 3.644 1.341 3.708 2.026zm-4.693-2.211L10.364 16H8.151L6.212 1.17C7.057 1.064 7.985 1 9 1c1.224 0 2.331.089 3.305.238zm-7.083.082l1.92 14.679H5.988c-1.937-4.8-4.727-11.768-4.985-12.556.075-.734 1.61-1.649 4.22-2.124z"/></svg>