<svg xmlns="http://www.w3.org/2000/svg" viewBox="0 0 24 24"><path fill="#5c6671" d="M23.499 19.913c-.276 0-.5.224-.5.5 0 1.427-1.121 2.587-2.5 2.587H1.683l1.028-1.058h16.788c.276 0 .5-.224.5-.5v-2.609c.944-.158 3-.707 3-2.495 0-2.035-2.59-4.616-5.5-4.616-1.309 0-2.303-.271-3.07-.66.223-.136.31-.421.186-.656-.128-.246-.433-.336-.675-.21l-.46.241c-.386-.327-.676-.676-.89-1.005l.544-.153c.267-.075.421-.351.347-.617s-.352-.42-.616-.346l-.737.207c-.089-.242-.125-.404-.129-.417V7.023h.5c.276 0 .5-.224.5-.5s-.224-.5-.5-.5h-.5V4.45h.5c.276 0 .5-.224.5-.5s-.224-.5-.5-.5h-.5V2.046c0-.681-.33-1.315-.883-1.695-.542-.373-1.204-.454-1.82-.218-.745.285-1.52.587-1.99.784-.452.189-2.292.393-3.346.477-.232.019-.422.196-.455.427L1.73 14.096c-.208 1.216.124 2.45.912 3.384.612.726 1.45 1.185 2.358 1.342v2.12H2.5c-.135 0-.265.055-.358.151l-2 2.058c-.141.144-.181.358-.103.543s.26.305.461.305h19.998c1.93 0 3.5-1.609 3.5-3.587 0-.276-.224-.5-.5-.5zm-10.5 1.029v-2.048l6-.001v2.048h-6zM2.718 14.253L4.439 2.357c.864-.078 2.648-.264 3.255-.518.464-.194 1.227-.491 1.961-.772.303-.117.629-.076.895.108.286.196.45.514.45.871l.002 1.404H9.5c-.276 0-.5.224-.5.5s.224.5.5.5h1.503l.002 1.573H9.5c-.276 0-.5.224-.5.5s.224.5.5.5h1.506l.001 1.169c.002.01.05.246.177.595l-1.214.341c-.267.075-.421.351-.347.617.062.221.263.365.481.365h.001c.048 0 .094-.007.137-.019l1.372-.385c.226.391.53.814.937 1.218l-1.286.675c-.244.128-.339.431-.21.675.089.17.263.268.442.268.079 0 .158-.019.232-.057l1.667-.874c.955.639 2.273 1.113 4.101 1.113 2.317 0 4.5 2.037 4.5 3.616 0 1.325-2.512 1.557-2.5 1.558h-6.804c-.06-.026-.126-.04-.196-.04s-.136.014-.196.04H5.693c-.058-.025-.125-.04-.196-.04-.025 0-.047.011-.071.014-.777-.063-1.506-.421-2.022-1.034-.598-.708-.85-1.645-.688-2.583zM6 18.895l6-.001v2.047H6v-2.047z"/></svg>