<svg xmlns="http://www.w3.org/2000/svg" viewBox="0 0 24 24"><path fill="#5c6671" d="M22.5 19c-.827 0-1.5.673-1.5 1.5v.5h-5.333l1.275-3.061c.395-.948.013-2.033-.889-2.525l-3.044-1.66c-.475-.259-.657-.841-.415-1.325l.215-.429H17.5c.827 0 1.5-.673 1.5-1.5S18.327 9 17.5 9h-1.661l-.629-1.572c-.209-.521-.63-.933-1.154-1.129l-.899-.337c.124.016.246.038.374.038 1.654 0 3-1.346 3-3s-1.346-3-3-3-3 1.346-3 3c0 1.038.53 1.953 1.333 2.492-.955-.282-1.986.175-2.395 1.097l-1.961 4.412h-3.6c-.207-.581-.757-1-1.408-1-.276 0-.5.224-.5.5v.5h-.5c-.276 0-.5.224-.5.5s.224.5.5.5H2v.5c0 .276.224.5.5.5.651 0 1.201-.419 1.408-1h3.156l-.42.945c-.441.994.003 2.173.99 2.628l3.975 1.835c.449.207.681.721.539 1.195L11.429 21H1.501c-.827 0-1.5.673-1.5 1.5s.673 1.5 1.5 1.5h20.5c1.103 0 2-.897 2-2v-1.5c0-.827-.673-1.5-1.5-1.5zM13.531 1c1.103 0 2 .897 2 2s-.897 2-2 2-2-.897-2-2 .897-2 2-2zm-.222 10l.191-.382.191.382h-.382zm-2.926-4.005c.214-.482.768-.716 1.265-.53l2.058.771c.262.098.473.304.577.564l.754 1.885c.075.19.26.314.464.314h2c.275 0 .5.224.5.5s-.225.5-.5.5H14.81l-.861-1.724c-.17-.339-.725-.339-.895 0l-.862 1.724H8.604l1.78-4.005zm1.644 9.505l-3.976-1.835c-.493-.228-.715-.817-.494-1.314l.601-1.352h3.535c-.471.964-.106 2.117.838 2.632l3.044 1.66c.45.246.641.789.443 1.263l-1.435 3.445h-2.112l.633-2.109c.285-.948-.179-1.976-1.077-2.391zM23 22c0 .551-.448 1-1 1H1.5c-.275 0-.5-.224-.5-.5s.225-.5.5-.5h20c.276 0 .5-.224.5-.5v-1c0-.276.225-.5.5-.5s.5.224.5.5V22z"/></svg>