<svg xmlns="http://www.w3.org/2000/svg" viewBox="0 0 22 24"><path fill="#5c6671" d="M21.697.04c-.188-.079-.405-.038-.549.105L6.069 15.135c-.001.001-.002.001-.003.002s-.001.002-.002.003L.587 20.584v.001c-.378.378-.586.88-.586 1.414 0 1.103.897 2 2 2 .534 0 1.036-.208 1.418-.59l5.086-5.199 1.643 1.643c.17.17.437.196.635.06.065-.044 1.646-1.134 5.572-5.06C21.748 9.46 21.994.873 22.001.51c.004-.204-.116-.39-.303-.471zM2.707 22.707c-.189.188-.44.293-.707.293-.551 0-1-.448-1-1 0-.267.104-.518.293-.707l5.136-5.106 1.363 1.322-5.085 5.198zm12.939-8.561c-2.857 2.857-4.461 4.193-5.1 4.693l-1.693-1.693c-.001-.001-.003-.001-.004-.003s-.001-.002-.002-.002l-1.71-1.659L20.895 1.805c-.288 2.593-1.355 8.446-5.25 12.341z"/></svg>