<svg xmlns="http://www.w3.org/2000/svg" viewBox="0 0 24 24"><path fill="#5c6671" d="M23.479 17l-9.979.434c-.066 0-.109-.019-.158-.069-.451-.467-.389-2.315-.358-3.204.009-.255.017-.481.017-.662 0-.276-.224-.5-.5-.5-1.879 0-12.5 2.487-12.5 5.5v.5c0 1.103.897 2 2 2l9.595-.009c.025-.005 2.552-.491 3.905-.491 1.32 0 2.834.472 2.85.477.045.014.097.023.15.023h3.5c1.103 0 2-.897 2-2v-1.5c0-.136-.056-.267-.154-.361s-.226-.143-.367-.138zm-11.492-2.968c.003-.128.002-.095.001-.061-.048 1.466-.049 2.7.285 3.517l-11.009.479c.527-.608 1.895-1.458 4.534-2.385 2.336-.821 4.866-1.409 6.188-1.549zM23 19c0 .551-.448 1-1 1h-3.426c-.344-.103-1.76-.5-3.074-.5-1.448 0-3.987.488-4 .5H2c-.552 0-1-.449-1-1l22-.978V19zm.846-11.861c-.098-.094-.226-.149-.367-.138l-9.979.434c-.066 0-.109-.019-.158-.069-.451-.467-.389-2.315-.358-3.204.009-.255.017-.481.017-.662 0-.276-.224-.5-.5-.5-1.879 0-12.5 2.487-12.5 5.5V9c0 1.103.897 2 2 2l9.595-.009c.025-.005 2.552-.491 3.905-.491 1.32 0 2.834.472 2.85.477.045.014.097.023.15.023h3.5c1.103 0 2-.897 2-2V7.5c0-.136-.056-.267-.154-.361zM11.987 4.032c.003-.128.002-.095.001-.061-.048 1.466-.049 2.7.285 3.517l-11.009.479c.527-.608 1.895-1.458 4.534-2.385 2.336-.821 4.866-1.409 6.188-1.549zM23 9c0 .551-.448 1-1 1h-3.426c-.344-.103-1.76-.5-3.074-.5-1.448 0-3.987.488-4 .5H2c-.552 0-1-.449-1-1l22-.978V9z"/></svg>