<svg xmlns="http://www.w3.org/2000/svg" viewBox="0 0 18 24"><path fill="#5c6671" d="M16 2v-.5c0-.276-.224-.5-.5-.5h-4c-.276 0-.5.224-.5.5V2H7V.5c0-.276-.224-.5-.5-.5h-4c-.276 0-.5.224-.5.5V2C.897 2 0 2.897 0 4v18c0 1.103.897 2 2 2h14c1.103 0 2-.897 2-2V4c0-1.103-.897-2-2-2zM3 1h3v1H3V1zM2 3h14c.552 0 1 .449 1 1v4H1V4c0-.551.448-1 1-1zm14 20H2c-.552 0-1-.449-1-1V9h16v13c0 .551-.448 1-1 1zM3 5.5c0-.276.224-.5.5-.5h2c.276 0 .5.224.5.5s-.224.5-.5.5h-2c-.276 0-.5-.224-.5-.5zm9 0c0-.276.224-.5.5-.5h.5v-.5c0-.276.224-.5.5-.5s.5.224.5.5V5h.5c.276 0 .5.224.5.5s-.224.5-.5.5H14v.5c0 .276-.224.5-.5.5s-.5-.224-.5-.5V6h-.5c-.276 0-.5-.224-.5-.5z"/></svg>