<svg xmlns="http://www.w3.org/2000/svg" viewBox="0 0 14 24"><path fill="#5c6671" d="M13.5 10c.276 0 .5-.224.5-.5v-1c0-.276-.224-.5-.5-.5s-.5.224-.5.5v-1c0-1.222-.883-2.238-2.043-2.454l-.324-3.245C10.53.775 9.674 0 8.643 0H4.358C3.326 0 2.47.774 2.368 1.801l-.324 3.245C.884 5.262.001 6.278.001 7.5v9c0 1.222.883 2.238 2.043 2.454l.324 3.245C2.471 23.225 3.326 24 4.358 24h4.285c1.032 0 1.888-.774 1.99-1.801l.324-3.245C12.117 18.738 13 17.722 13 16.5v-1c0 .276.224.5.5.5s.5-.224.5-.5v-1c0-.276-.224-.5-.5-.5s-.5.224-.5.5v-5c0 .276.224.5.5.5zM4.357 1h4.285c.516 0 .944.387.995.9l.31 3.1H3.052l.31-3.1c.051-.513.479-.9.995-.9zm4.286 22H4.358c-.516 0-.944-.387-.995-.9l-.31-3.1h6.895l-.31 3.1c-.051.513-.479.9-.995.9zM12 16.5c0 .827-.673 1.5-1.5 1.5h-8c-.827 0-1.5-.673-1.5-1.5v-9C1 6.673 1.673 6 2.5 6h8c.827 0 1.5.673 1.5 1.5v9zm-3.646-2.854c.195.195.195.512 0 .707-.098.098-.226.146-.354.146s-.256-.049-.354-.146l-1.5-1.5c-.09-.09-.146-.215-.146-.353v-4c0-.276.224-.5.5-.5s.5.224.5.5v3.793l1.354 1.354z"/></svg>