<svg xmlns="http://www.w3.org/2000/svg" viewBox="0 0 24 24"><path fill="#5c6671" d="M12 2C6.486 2 2 6.486 2 12s4.486 10 10 10 10-4.486 10-10S17.514 2 12 2zm0 19c-4.963 0-9-4.038-9-9s4.037-9 9-9 9 4.038 9 9-4.037 9-9 9zm0-21C5.383 0 0 5.383 0 12s5.383 12 12 12 12-5.383 12-12S18.617 0 12 0zm0 23C5.935 23 1 18.065 1 12S5.935 1 12 1s11 4.935 11 11-4.935 11-11 11zm5.5-12h-13c-.276 0-.5.224-.5.5v2c0 .276.224.5.5.5h13c.276 0 .5-.224.5-.5v-2c0-.276-.224-.5-.5-.5zM5 12h3v1H5v-1zm12 1H9v-1h8v1zm3-1.5v2c0 .276-.224.5-.5.5s-.5-.224-.5-.5v-2c0-.276.224-.5.5-.5s.5.224.5.5zm-.854-1.646c-.709-.708-1.01-1.328-1.275-1.874-.205-.42-.381-.783-.725-1.126-.195-.195-.195-.512 0-.707s.512-.195.707 0c.462.462.693.937.916 1.396.243.499.494 1.015 1.084 1.604.195.195.195.512 0 .707-.098.098-.226.146-.354.146s-.256-.049-.354-.146z"/></svg>