<svg xmlns="http://www.w3.org/2000/svg" viewBox="0 0 18 24"><path fill="#5c6671" d="M14.779 16.585c-1.158-.777-4.643-3.482-4.685-3.515-.685-.514-1.093-1.331-1.093-2.187V2c0-1.103-.897-2-2-2h-5c-1.103 0-2 .897-2 2v12.997c0 1.734.964 3.293 2.515 4.069l6.631 3.315c2.112 1.056 4.477 1.616 6.839 1.618h.002c.536 0 1.04-.209 1.418-.59.387-.39.598-.91.594-1.464-.016-2.164-1.069-3.917-3.221-5.361zM1 14.997v-.947c2.244.252 4 2.139 4 4.449 0 .211-.024.43-.064.659l-1.974-.987C1.752 17.566 1 16.349 1 14.996zm15.696 7.708c-.189.19-.441.295-.709.295h-.001c-2.208-.002-4.418-.525-6.393-1.513l-3.739-1.87c.088-.391.146-.761.146-1.118 0-2.864-2.201-5.221-5-5.475V1.999c0-.551.449-1 1-1v3.5c0 .276.224.5.5.5s.5-.224.5-.5v-3.5h1v3.5c0 .276.224.5.5.5s.5-.224.5-.5v-3.5h1v3.5c0 .276.224.5.5.5s.5-.224.5-.5v-3.5c.551 0 1 .449 1 1v8.883c0 1.169.558 2.286 1.487 2.982.144.112 3.547 2.753 4.735 3.55 1.882 1.263 2.765 2.705 2.778 4.538.002.286-.105.553-.303.752z"/></svg>