<svg xmlns="http://www.w3.org/2000/svg" viewBox="0 0 10 24"><path fill="#5c6671" d="M9 18c0-.872.179-1.504.387-2.237.287-1.016.613-2.168.613-4.263 0-2.127-.962-3.719-1.811-5.124-.567-.938-1.065-1.763-1.17-2.572.017-.014.032-.028.048-.044.41-.413.438-1.242.434-2.128L7.5 1.5c0-.078-.019-.154-.053-.224l-.5-1C6.862.107 6.689 0 6.5 0h-3c-.189 0-.362.107-.447.276l-.5 1c-.034.069-.053.146-.053.224l-.001.132c-.005.886.023 1.716.434 2.128.016.016.031.03.048.044-.104.809-.603 1.634-1.17 2.572C.962 7.781 0 9.373 0 11.5c0 2.095.326 3.247.613 4.263C.821 16.496 1 17.129 1 18c0 1.01-.231 1.378-.477 1.768S0 20.601 0 21.5v.5c0 1.103.897 2 2 2h6c1.103 0 2-.897 2-2v-.5c0-.899-.278-1.342-.523-1.732S9 19.011 9 18zm0 4c0 .551-.448 1-1 1H2c-.552 0-1-.449-1-1v-.5c0-.611.155-.858.37-1.2.281-.446.63-1.001.63-2.3 0-1.011-.206-1.739-.424-2.509C1.305 14.537 1 13.456 1 11.5c0-1.849.848-3.251 1.667-4.607C3.353 5.758 4 4.686 4 3.5c0-.235-.162-.432-.38-.485-.063-.138-.126-.495-.121-1.376l.31-.638h2.383l.31.619v.019c.005.882-.058 1.239-.121 1.376-.218.054-.38.25-.38.485 0 1.187.647 2.258 1.333 3.393.819 1.356 1.667 2.758 1.667 4.607 0 1.956-.306 3.037-.576 3.991-.218.771-.424 1.499-.424 2.509 0 1.298.349 1.854.63 2.3.215.342.37.589.37 1.2v.5zM4.378 7.927C3.638 9.155 3 10.21 3 11.5c0 1.682.255 2.579.501 3.445.075.266-.079.542-.345.618-.041.012-.087.019-.136.019h-.001c-.218 0-.419-.144-.481-.363C2.273 14.286 2 13.322 2 11.5c0-1.568.772-2.847 1.519-4.084.143-.236.451-.316.688-.172s.313.447.171.684zM4 18c0 1.73-.483 2.643-.937 3.364l-.084.129c0 .276-.214.503-.489.503s-.49-.22-.49-.497c0-.14.012-.25.034-.329.059-.155.115-.238.156-.298.439-.697.81-1.408.81-2.873 0-.276.224-.5.5-.5s.5.224.5.5z"/></svg>