<svg xmlns="http://www.w3.org/2000/svg" viewBox="0 0 24 24"><path fill="#5c6671" d="M23.984 17.759l-1.97-16C21.891.756 21.027 0 20.004 0H3.994c-1.022 0-1.887.756-2.01 1.759l-.941 7.64c-.007.034-.02.065-.02.101 0 .009.004.016.005.024L.014 17.758c-.069.563.107 1.13.484 1.557.385.435.94.685 1.525.685h7.949v1h-.034c-1.103 0-2 .897-2 2v.5c0 .276.224.5.5.5h7.119c.276 0 .5-.224.5-.5V23c0-1.103-.897-2-2-2h-.034v-1h7.949c.585 0 1.141-.25 1.525-.685.377-.427.554-.995.484-1.557zM13.525 19H12.5v-4h5.126l.428 4h-4.529zm-3.051 0H5.945l.428-4h5.126v4h-1.025zm-8.497-9h3.926l-.428 4h-3.99l.492-4zm.616-5h3.846l-.428 4h-3.91l.492-4zm19.305 4h-3.91l-.428-4h3.846l.492 4zm-4.915 0H12.5V5h4.055l.428 4zm-4.484-5V1h3.627l.321 3h-3.948zm-1 0H7.551l.321-3h3.627v3zm0 1v4H7.016l.428-4h4.055zm-4.59 5H11.5v4H6.481l.428-4zm5.59 4v-4h4.591l.428 4h-5.019zm5.596-4h3.926l.492 4h-3.99l-.428-4zm2.927-8.119L21.283 4h-3.83l-.321-3h2.872c.519 0 .956.379 1.018.881zM3.994 1h2.872l-.321 3h-3.83l.261-2.119C3.038 1.379 3.475 1 3.994 1zM1.248 18.653c-.19-.215-.276-.489-.241-.772L1.362 15h4.006l-.428 4H2.025c-.299 0-.581-.126-.776-.347zM15.059 23H8.94c0-.551.448-1 1-1h4.119c.552 0 1 .449 1 1zm-2.034-2h-2.051v-1h2.051v1zm9.725-2.347c-.195.221-.478.347-.776.347h-2.915l-.428-4h4.006l.355 2.881c.035.282-.051.556-.241.771z"/></svg>