<svg xmlns="http://www.w3.org/2000/svg" viewBox="0 0 24 24"><path fill="#5c6671" d="M10.831 17.106c-.178 0-.338.035-.478.103s-.257.163-.349.281c-.092.118-.161.258-.206.418-.034.119-.051.234-.051.341 0 .117.025.232.076.346s.138.211.261.288c.122.078.274.116.455.116.208 0 .395-.049.559-.145s.296-.236.392-.418c.095-.181.143-.367.143-.56 0-.231-.073-.417-.222-.558s-.341-.211-.581-.213zm.308 1.175c-.064.136-.146.237-.246.305s-.203.101-.31.101c-.133 0-.239-.043-.32-.128s-.122-.19-.122-.316c0-.204.062-.392.183-.564s.281-.257.476-.257c.127 0 .231.041.313.123s.123.194.123.338c0 .13-.032.262-.097.397zm1.067.382h.985l-.067.305h-1.385l.406-1.829h.397l-.337 1.524zm2.129-1.557c-.179 0-.339.035-.479.103s-.256.163-.348.281c-.092.118-.161.258-.206.418-.034.119-.051.234-.051.341 0 .117.025.232.076.346s.138.211.259.288c.123.078.274.116.455.116.207 0 .394-.049.559-.145s.295-.236.391-.418c.096-.181.144-.367.144-.56 0-.231-.075-.417-.222-.558s-.34-.211-.581-.213zm.307 1.175c-.065.136-.147.238-.246.304s-.203.101-.31.101c-.133 0-.24-.043-.321-.128s-.121-.19-.121-.316c0-.204.061-.392.183-.564s.28-.257.475-.257c.127 0 .23.041.313.123s.123.194.123.338c0 .13-.033.262-.097.398zm-6.077-.823c-.047.037-.07.084-.07.139 0 .053.021.096.064.13s.139.083.287.144c.223.09.365.164.425.22.091.084.136.19.136.321 0 .162-.067.3-.203.413-.136.115-.324.172-.566.172-.167 0-.31-.026-.433-.078-.122-.053-.207-.127-.258-.22-.05-.095-.074-.203-.07-.325l.38-.019c.005.113.026.19.062.23.058.064.166.098.323.098.13 0 .224-.022.283-.066s.087-.097.087-.159c0-.054-.024-.1-.071-.137-.033-.027-.126-.071-.275-.134s-.261-.113-.33-.154c-.069-.041-.123-.095-.163-.16s-.06-.142-.06-.23c0-.154.06-.281.178-.383s.288-.152.512-.152c.227 0 .404.05.528.151s.193.235.206.401l-.382.016c-.01-.087-.043-.154-.1-.2s-.142-.07-.254-.07c-.11 0-.189.018-.236.051zM22 3H2C.897 3 0 3.897 0 5v14c0 1.103.897 2 2 2h20c1.103 0 2-.897 2-2V5c0-1.103-.897-2-2-2zm1 16c0 .551-.449 1-1 1H2c-.551 0-1-.449-1-1V5c0-.551.449-1 1-1h20c.551 0 1 .449 1 1v14zM12 5c-3.033 0-5.5 2.467-5.5 5.5S8.967 16 12 16s5.5-2.467 5.5-5.5S15.033 5 12 5zm0 10c-2.481 0-4.5-2.019-4.5-4.5S9.519 6 12 6s4.5 2.019 4.5 4.5S14.481 15 12 15zm2.768-6.768l-.707.707c-.566-.566-1.555-.566-2.121 0-.283.283-.439.66-.439 1.061s.156.777.439 1.061l-.707.707c-.472-.472-.732-1.1-.732-1.768s.26-1.296.732-1.768c.943-.944 2.592-.944 3.535 0zm-1.5 1.5c.472.472.732 1.1.732 1.768s-.26 1.296-.732 1.768-1.1.732-1.768.732-1.296-.26-1.768-.732l.707-.707c.566.566 1.555.566 2.121 0 .283-.283.439-.66.439-1.061s-.156-.777-.439-1.061l.707-.707z"/></svg>