<svg xmlns="http://www.w3.org/2000/svg" viewBox="0 0 24 24"><path fill="#5c6671" d="M21.955 0H18.35c-.276 0-.5.224-.5.5 0 .16-.428.358-.741.503-.557.259-1.319.613-1.319 1.411s.762 1.152 1.319 1.411c.312.146.741.345.741.505s-.428.359-.741.504c-.557.259-1.319.613-1.319 1.411s.762 1.152 1.319 1.412c.312.145.74.344.74.504s-.428.359-.741.505c-.557.259-1.319.613-1.319 1.411s.763 1.151 1.319 1.41c.312.145.74.344.74.502 0 .16-.428.359-.741.504-.557.259-1.319.613-1.319 1.411s.762 1.153 1.319 1.412c.312.146.741.345.741.505s-.428.359-.741.504c-.557.259-1.319.613-1.319 1.411s.762 1.153 1.318 1.413c.313.146.741.345.741.507s-.428.362-.741.508c-.556.26-1.318.615-1.318 1.414s.762 1.155 1.318 1.415c.313.146.741.346.741.508 0 .276.224.5.5.5h3.605c1.127 0 2.045-.897 2.045-2v-20c0-1.103-.917-2-2.045-2zM23 22c0 .551-.469 1-1.045 1h-3.221c-.234-.463-.778-.716-1.202-.914-.312-.146-.741-.346-.741-.508s.428-.362.741-.508c.556-.26 1.318-.615 1.318-1.414s-.762-1.154-1.319-1.413c-.312-.146-.741-.345-.741-.506 0-.16.428-.358.74-.503.557-.259 1.319-.613 1.319-1.411s-.762-1.153-1.318-1.412c-.313-.145-.741-.345-.741-.506s.428-.359.741-.504c.557-.259 1.319-.613 1.319-1.411s-.762-1.151-1.319-1.41c-.312-.145-.741-.344-.741-.503s.428-.359.741-.505c.557-.259 1.319-.613 1.319-1.411s-.762-1.152-1.319-1.411c-.312-.146-.741-.345-.741-.505s.428-.359.741-.504c.557-.259 1.319-.613 1.319-1.411s-.762-1.152-1.319-1.411c-.312-.145-.741-.345-.741-.505s.428-.358.741-.503c.424-.197.967-.449 1.202-.911h3.222C22.531 1 23 1.449 23 2v20zM10.292.331c5.943 6.762 5.943 16.576 0 23.337-.099.112-.237.17-.375.17-.117 0-.235-.041-.33-.124-.208-.182-.228-.498-.045-.706 5.606-6.378 5.606-15.638 0-22.017-.183-.208-.162-.523.045-.706s.523-.162.706.045zM7.159 21.077c-.099.112-.237.17-.375.17-.117 0-.235-.041-.33-.125-.208-.182-.228-.498-.045-.706 4.287-4.877 4.287-11.957 0-16.834-.182-.208-.162-.523.045-.706s.523-.162.706.045c4.623 5.26 4.623 12.895 0 18.154zm-3.133-2.592c-.099.112-.237.17-.375.17-.117 0-.235-.041-.33-.124-.208-.182-.228-.498-.045-.706 2.966-3.375 2.966-8.275 0-11.65-.183-.208-.162-.523.045-.706s.524-.163.706.045c3.303 3.758 3.303 9.213 0 12.971zM.876 8.121c1.972 2.248 1.972 5.51 0 7.758-.099.113-.237.17-.376.17-.117 0-.235-.041-.33-.124-.208-.182-.229-.498-.046-.706 1.637-1.866 1.637-4.574 0-6.439-.182-.208-.161-.523.046-.706.207-.181.522-.162.706.046z"/></svg>