<svg xmlns="http://www.w3.org/2000/svg" viewBox="0 0 24 24"><path fill="#5c6671" d="M21.007 17.582c-2.399-.691-4.54-2.041-5.087-2.402l-.366-1.099c.762-.922 1.322-2.079 1.6-3.249.093.097.208.168.346.168h.027c.217-.012.402-.163.457-.374.711-2.734.716-5.008.036-6.781.618-.406.98-.829.98-1.345C19 0 15.121 0 12.003 0 9.839 0 7.942.848 6.798 2.327c-1.46 1.888-1.723 4.68-.783 8.299.055.21.24.362.457.374h.027c.139 0 .254-.071.346-.168.278 1.17.838 2.327 1.6 3.249l-.366 1.099c-.546.361-2.683 1.709-5.087 2.402-1.762.508-2.993 2.127-2.993 3.938V22c0 1.103.897 2 2 2h20c1.103 0 2-.897 2-2v-.48c0-1.811-1.231-3.43-2.993-3.938zM17.299 9.11c-.978-1.329-2.567-2.319-4.106-3.09.533-.228 1.062-.445 1.569-.652.911-.372 1.705-.699 2.358-1.018.455 1.281.53 2.863.178 4.76zM7.59 2.939C8.944 1.189 11.128 1 12.004 1c3.16 0 5.997.115 5.997 1.5 0 .179-.327.422-.807.686-.001 0-.002 0-.002.001s-.002.002-.003.002c-.765.42-1.92.893-2.803 1.254-.821.335-1.691.696-2.553 1.089-.007.002-.012.006-.019.009l-.006.003c-.005.002-.01.001-.015.003-.068.031-.128.062-.194.093-.223.104-.444.209-.664.318-.079.039-.153.079-.23.118-.739.376-1.443.787-2.084 1.24-.023.017-.048.033-.071.05-.559.402-1.057.84-1.478 1.317-.04.045-.081.091-.119.137-.082.098-.178.189-.252.291-.503-2.684-.205-4.756.89-6.172zm.038 6.63c.828-1.05 2.231-2.017 4.369-3.016.056.026.114.054.172.081.182.086.361.173.531.259.061.031.123.063.184.095.197.102.391.203.574.304.018.01.037.021.055.032.397.223.758.445 1.088.669.028.019.057.037.085.056.135.094.26.188.384.282.076.058.151.117.225.176.41.332.754.668 1.033 1.013.015.018.027.036.042.054-.021.049-.036.1-.04.154-.225 2.488-2.125 5.271-4.33 5.271s-4.105-2.783-4.33-5.271c-.005-.059-.02-.113-.043-.162zm1.158 6.341c.087-.061.153-.148.187-.248l.259-.778c.804.686 1.749 1.117 2.768 1.117s1.963-.431 2.768-1.117l.258.775c.035.104.101.191.186.251.047.032.559.381 1.344.827l-4.557 4.557-4.557-4.557c.785-.446 1.298-.795 1.343-.826zM1 22v-.48c0-1.389.912-2.585 2.27-2.977 1.211-.349 2.332-.844 3.253-1.313l5.77 5.77H2c-.551 0-1-.449-1-1zm22 0c0 .551-.449 1-1 1h-8.293l-1-1 4.77-4.77c.921.469 2.042.964 3.253 1.313 1.358.391 2.27 1.587 2.27 2.977V22z"/></svg>