<svg xmlns="http://www.w3.org/2000/svg" viewBox="0 0 23 24"><path fill="#5c6671" d="M20.59 19.439l-.344-.179C22.02 17.25 23 14.702 23 12c0-3.745-1.951-7.235-5.101-9.249l.256-.494c.123-.237.037-.53-.195-.663C16.144.552 14.084.001 12.001.001c-6.617 0-12 5.383-12 12 0 2.13.565 4.186 1.633 6.015l-.052-.008c-.146-.025-.292.018-.404.113s-.176.234-.176.381v2c0 .244.175.452.416.493l17.5 3c.025.005.055.007.084.007.195 0 .363-.111.446-.274l1.001-2.003c.071-.142.07-.31-.002-.452s-.208-.24-.365-.266l-.145-.024c.278-.244.541-.497.787-.757.107-.114.155-.272.129-.426s-.123-.288-.262-.36zM22 12c0 2.538-.941 4.934-2.658 6.788l-5.048-2.633c.137-.377.206-.763.206-1.154 0-1.136-.553-2.184-1.47-2.836l4.417-8.54C20.268 5.464 22 8.626 22 12.001zm-3.281 10.944L2 20.078v-.991l.576.093h.001l16.672 2.704-.53 1.06zm-12.64-4.208l-3.134-.508C1.672 16.383 1.001 14.234 1.001 12c0-6.065 4.935-11 11-11 1.749 0 3.482.424 5.041 1.231l-5.113 9.886c-.126.245-.031.546.214.673.838.435 1.358 1.281 1.358 2.209 0 .389-.099.775-.295 1.149-.029.054-.049.118-.055.186-.001.015-.002.031-.002.047 0 .053.008.105.024.153.039.123.127.228.245.29l6.104 3.185c-.283.264-.586.518-.905.759L6.08 18.735zM17.59 6.291c-.197-.193-.2-.51-.007-.707s.51-.201.707-.007c1.722 1.688 2.709 4.029 2.709 6.422 0 1.872-.567 3.664-1.64 5.181-.097.138-.252.211-.409.211-.108 0-.208-.034-.289-.093-.224-.158-.278-.47-.118-.696.953-1.348 1.457-2.94 1.457-4.604 0-2.126-.878-4.207-2.41-5.709zM11 13c-1.103 0-2 .897-2 2s.897 2 2 2 2-.897 2-2-.897-2-2-2zm0 3c-.551 0-1-.449-1-1s.449-1 1-1 1 .449 1 1-.449 1-1 1z"/></svg>