<svg xmlns="http://www.w3.org/2000/svg" viewBox="0 0 22 24"><path fill="#5c6671" d="M20.608 10.148l-.003-.006L12.416.577c-.758-.76-2.048-.788-2.858.027l-8.166 9.544C.495 11.222 0 12.586 0 13.988c0 3.309 2.691 6 6 6 .766 0 1.521-.148 2.229-.436l-.499 2.659c-.083.439.034.89.32 1.234s.707.542 1.154.542h3.59c.447 0 .868-.197 1.154-.542s.403-.795.32-1.234l-.499-2.659c.708.287 1.464.436 2.229.436 3.309 0 6-2.691 6-6 0-1.401-.494-2.766-1.392-3.84zM16 18.988c-.931 0-1.845-.265-2.643-.766-.169-.105-.383-.101-.547.011s-.247.311-.21.505l.687 3.657c.037.201-.051.344-.107.412s-.181.181-.385.181h-3.59c-.204 0-.329-.113-.385-.181s-.145-.211-.107-.412l.687-3.657c.037-.194-.046-.394-.21-.505-.085-.058-.183-.087-.281-.087-.092 0-.185.025-.266.076-.798.501-1.712.766-2.643.766-2.757 0-5-2.243-5-5 0-1.167.411-2.304 1.154-3.195l8.139-9.511c.377-.379 1.062-.352 1.39-.027l8.16 9.536c.746.896 1.157 2.03 1.157 3.197 0 2.757-2.243 5-5 5z"/></svg>