<svg xmlns="http://www.w3.org/2000/svg" viewBox="0 0 24 24"><path fill="#5c6671" d="M23.502 10.54c.455-.412.615-1.057.408-1.644-.204-.575-.7-.953-1.294-.985l-6.125-.336c-.191-.011-.357-.127-.433-.304L13.338.884C13.106.339 12.593 0 12 0s-1.105.339-1.338.884l-2.72 6.387c-.075.177-.241.293-.433.304l-6.125.336c-.595.032-1.091.41-1.294.985-.208.586-.047 1.231.408 1.644l4.958 4.483c.138.124.195.313.149.493l-1.661 6.586c-.153.607.069 1.236.566 1.601.477.351 1.089.377 1.596.067l5.632-3.457c.162-.099.362-.099.523 0l5.632 3.457c.235.145.494.216.751.216.295 0 .59-.095.846-.283.497-.365.719-.993.565-1.6l-1.661-6.586c-.045-.18.012-.369.149-.493l4.958-4.483zm-6.077 5.22l1.661 6.586c.064.256-.055.453-.188.55-.07.052-.26.158-.481.021l-5.633-3.457c-.242-.148-.513-.223-.784-.223s-.542.074-.785.223l-5.632 3.457c-.221.138-.41.032-.481-.021-.133-.098-.253-.294-.188-.55l1.661-6.585c.136-.54-.035-1.106-.448-1.48L1.169 9.798c-.188-.17-.193-.405-.136-.568.032-.092.137-.306.406-.321l6.125-.336c.575-.032 1.072-.38 1.298-.91l2.72-6.387C11.691 1.02 11.93 1 12 1s.309.02.418.276l2.72 6.387c.226.53.723.878 1.298.91l6.125.336c.27.015.374.229.406.321.058.163.052.397-.136.567l-4.958 4.483c-.412.373-.584.94-.448 1.479z"/></svg>