<svg xmlns="http://www.w3.org/2000/svg" viewBox="0 0 18 24"><path fill="#5c6671" d="M18 15.5c0-1.93-1.57-3.5-3.5-3.5S11 13.57 11 15.5c0 1.758 1.308 3.204 3 3.449v.551c0 1.93-1.57 3.5-3.5 3.5h-1C7.57 23 6 21.43 6 19.5v-4.546c3.44-.468 5-5.688 5-9.454 0-2.715-.703-4.199-2.076-4.448C8.732.445 8.17.001 7.5.001c-.827 0-1.5.673-1.5 1.5s.673 1.5 1.5 1.5c.624 0 1.159-.383 1.385-.926C9.624 2.357 10 3.502 10 5.501c0 1.171-.172 2.489-.503 3.732-.413.373-2.085 1.768-3.997 1.768S1.919 9.612 1.505 9.239C1.173 7.994 1 6.674 1 5.501c0-1.999.376-3.144 1.115-3.426.226.543.761.926 1.385.926.827 0 1.5-.673 1.5-1.5s-.673-1.5-1.5-1.5c-.67 0-1.232.444-1.424 1.051C.703 1.302 0 2.786 0 5.5c0 3.765 1.56 8.986 5 9.454V19.5C5 21.981 7.019 24 9.5 24h1c2.481 0 4.5-2.019 4.5-4.5v-.551c1.692-.245 3-1.691 3-3.449zM7.5 2c-.276 0-.5-.224-.5-.5s.224-.5.5-.5.5.224.5.5-.224.5-.5.5zm-4-1c.276 0 .5.224.5.5s-.224.5-.5.5-.5-.224-.5-.5.224-.5.5-.5zm-1.424 9.909C2.945 11.452 4.15 12 5.5 12s2.556-.55 3.425-1.094C8.167 12.675 7.019 14 5.5 14s-2.666-1.323-3.424-3.091zM14.5 18c-1.378 0-2.5-1.122-2.5-2.5s1.122-2.5 2.5-2.5 2.5 1.122 2.5 2.5-1.122 2.5-2.5 2.5zm0-4c-.827 0-1.5.673-1.5 1.5s.673 1.5 1.5 1.5 1.5-.673 1.5-1.5-.673-1.5-1.5-1.5zm0 2c-.276 0-.5-.224-.5-.5s.224-.5.5-.5.5.224.5.5-.224.5-.5.5z"/></svg>