<svg xmlns="http://www.w3.org/2000/svg" viewBox="0 0 24 24"><path fill="#5c6671" d="M23.745 11.064c-.278-.154-.786-1.039-1.234-1.819-.982-1.71-2.289-3.954-4.013-4.278 1.404-2.213 1.5-4.329 1.504-4.45.009-.276-.207-.507-.483-.516-.251-.013-.506.207-.516.483-.001.025-.086 1.87-1.283 3.83-.796-1.669-3.183-2.604-5.025-3.317-.793-.307-1.613-.624-1.839-.851-.166-.166-.425-.193-.622-.068s-.282.373-.201.593c.041.112.097.226.148.339-4.136.059-7.671 3.196-8.128 7.325-.015.13-.03.3-.039.471-.088 1.717-.487 3.254-1.187 4.587-.732 1.396-.984 2.974-.727 4.562.24 1.481.974 2.889 2.067 3.965 1.073 1.056 2.408 1.74 3.862 1.979.403.066.808.1 1.211.1 1.366 0 2.703-.378 3.857-1.105 1.603-1.008 3.312-1.691 5.079-2.028.717-.137 1.433-.383 2.127-.729 2.634-1.314 4.423-3.859 4.668-6.642.046-.523.023-1.05-.031-1.575.176.036.352.066.528.079.226.019.448-.131.515-.355s-.031-.466-.236-.58zM12.333 1.93c1.908.739 4.491 1.744 4.653 3.408-.364.439-.787.87-1.295 1.271-.217.171-.253.485-.082.702.099.125.245.19.393.19.117 0 .225-.041.31-.109.574-.453 1.051-.939 1.461-1.434 1.532-.277 2.878 2.057 3.87 3.784.182.317.35.609.509.872-1.707-.777-3.265-2.433-3.285-2.454-.153-.165-.399-.207-.596-.103-.199.104-.305.328-.259.547.007.031.551 2.645.279 4.652-.203-.168-.417-.284-.611-.389-.488-.263-.909-.49-1.197-1.504-.57-2.001-.492-2.75-.487-2.783.023-.143-.017-.289-.109-.4s-.23-.18-.384-.18h-2.5c-1.088 0-1.697-.493-2.341-1.014-.261-.211-.526-.426-.82-.601 1.876-.622 4.584-.391 4.617-.387.212.024.419-.103.504-.302s.032-.431-.132-.573c-.024-.021-1.95-1.706-3.13-3.441.197.079.408.161.633.248zm9.64 11.478c-.214 2.44-1.793 4.676-4.118 5.835-.612.305-1.241.521-1.868.641-1.89.361-3.716 1.089-5.425 2.164-1.305.822-2.816 1.12-4.373.866-1.248-.206-2.397-.795-3.322-1.706-.943-.928-1.576-2.139-1.781-3.412-.222-1.373-.006-2.735.626-3.937.768-1.463 1.205-3.138 1.299-4.98.007-.144.019-.288.035-.433C3.45 4.789 6.8 1.904 10.46 2.003c.094.002.186.014.278.024.718 1.112 1.712 2.193 2.451 2.925-1.447.003-3.698.182-4.987 1.148-.172.129-.243.354-.174.558S8.287 7 8.502 7c.586 0 1.002.337 1.529.763C10.712 8.314 11.56 9 13.002 9h1.997c.031.495.15 1.332.522 2.637.404 1.42 1.114 1.802 1.684 2.11.415.224.665.358.816.89.059.207.244.353.459.363.005 0 .012.001.018.001h.004c.206 0 .392-.127.467-.321.54-1.407.427-3.444.258-4.815.689.584 1.641 1.278 2.662 1.715.1.608.137 1.221.084 1.828zM6.854 11.854l-1 1c-.098.098-.226.146-.354.146s-.256-.049-.354-.146c-.195-.195-.195-.512 0-.707l1-1c.195-.195.512-.195.707 0s.195.512 0 .707zm-1.707-3c-.195-.195-.195-.512 0-.707l1-1c.195-.195.512-.195.707 0s.195.512 0 .707l-1 1C5.756 8.952 5.628 9 5.5 9s-.256-.049-.354-.146zm6.707 4l-1 1c-.098.098-.226.146-.354.146s-.256-.049-.354-.146c-.195-.195-.195-.512 0-.707l1-1c.195-.195.512-.195.707 0s.195.512 0 .707zm2 3.294c.195.195.195.512 0 .707l-1 1c-.098.098-.226.146-.354.146s-.256-.049-.354-.146c-.195-.195-.195-.512 0-.707l1-1c.195-.195.512-.195.707 0zm-9-.293l-1 1c-.098.098-.226.146-.354.146s-.256-.049-.354-.146c-.195-.195-.195-.512 0-.707l1-1c.195-.195.512-.195.707 0s.195.512 0 .707zm4 0l-1 1c-.098.098-.226.146-.354.146s-.256-.049-.354-.146c-.195-.195-.195-.512 0-.707l1-1c.195-.195.512-.195.707 0s.195.512 0 .707zm-3 2.293c.195.195.195.512 0 .707l-1 1c-.098.098-.226.146-.354.146s-.256-.049-.354-.146c-.195-.195-.195-.512 0-.707l1-1c.195-.195.512-.195.707 0zm4 1c.195.195.195.512 0 .707l-1 1c-.098.098-.226.146-.354.146s-.256-.049-.354-.146c-.195-.195-.195-.512 0-.707l1-1c.195-.195.512-.195.707 0zm9.001-3c.195.195.195.512 0 .707l-1 1c-.098.098-.226.146-.354.146s-.256-.049-.354-.146c-.195-.195-.195-.512 0-.707l1-1c.195-.195.512-.195.707 0z"/></svg>