<svg xmlns="http://www.w3.org/2000/svg" viewBox="0 0 14 24"><path fill="#5c6671" d="M12 0h-.5c-.065 0-.13.013-.191.038s-.117.062-.163.109L7.293 4H2.5C1.673 4 1 4.673 1 5.5S1.673 7 2.5 7H5v7h-.5c-.276 0-.5.224-.5.5s.224.5.5.5H5v1.339l-4.907 6.87c-.16.225-.108.537.116.697.227.161.537.109.698-.116L5 18.06v3.44c0 .276.224.5.5.5s.5-.224.5-.5v-3.44l4.093 5.73c.098.137.252.209.407.209.101 0 .202-.03.291-.093.225-.16.276-.473.116-.697L6 16.339V15h.5c.276 0 .5-.224.5-.5s-.224-.5-.5-.5H6V7h1.293l3.853 3.853c.046.046.102.083.163.109s.126.038.191.038h.5c1.103 0 2-.897 2-2V2c0-1.103-.897-2-2-2zM8 4.707l3-3v7.586l-3-3V4.707zM2 5.5c0-.276.225-.5.5-.5H7v1H2.5c-.275 0-.5-.224-.5-.5zM13 9c0 .551-.448 1-1 1V1c.552 0 1 .449 1 1v7z"/></svg>