<svg xmlns="http://www.w3.org/2000/svg" viewBox="0 0 24 24"><path fill="#5c6671" d="M23.501 18.999H7.94l5.393-8.523c.632.408 1.144.918 1.453 1.477.333.604.389 1.176.158 1.611-.002.003-.001.007-.003.01-.033.066-.049.135-.051.205 0 .006-.005.013-.005.019 0 .014.01.026.011.039.005.062.021.12.048.176.01.02.018.039.031.058.044.067.099.127.174.167h.001l.001.001c.07.037.144.052.218.054.006 0 .011.004.017.004.013 0 .024-.009.036-.01.064-.005.124-.021.181-.049.019-.01.037-.018.055-.03.067-.044.126-.099.167-.174 0-.001.001-.001.002-.002v-.001l.001-.001c.509-.958 2.288-1.048 3.882-.201s2.511 2.371 2.006 3.328l-.001.003c-.13.244-.037.547.207.676.075.04.155.059.234.059.179 0 .352-.096.442-.265 3.011-5.663 1.002-12.664-4.443-15.919l.735-.899c.175-.213.143-.529-.071-.704s-.528-.143-.704.071l-.855 1.045C11.484-1.597 4.451.642 1.409 6.358c0 .001-.001.002-.002.004-.13.244-.037.547.207.676.244.131.547.037.676-.207.508-.957 2.285-1.049 3.881-.201s2.513 2.374 2.005 3.331l-.001.002c-.036.069-.051.142-.053.215 0 .006-.004.011-.004.017 0 .013.009.024.01.038.005.063.021.122.049.179.01.02.018.039.031.058.043.065.098.123.171.164.002.001.002.003.004.004h.001c.024.013.05.014.074.022.166.057.345.03.476-.077.008-.007.013-.018.02-.025.04-.037.078-.077.104-.127.231-.436.737-.71 1.424-.771.611-.056 1.294.07 1.963.345L6.85 18.847.737 15.555c-.243-.13-.547-.04-.677.204s-.04.546.204.677l6.051 3.258-2.236 3.534c-.148.233-.078.543.155.69.075.049.168.078.267.078.166 0 .328-.082.423-.232l2.384-3.768h11.884l1.862 3.724c.088.175.264.276.448.276.075 0 .151-.017.223-.053.247-.124.347-.424.224-.671l-1.638-3.277h3.191c.276 0 .5-.224.5-.5s-.224-.5-.5-.5zm-.982-3.775c-.427-.865-1.242-1.689-2.34-2.274-.894-.475-1.813-.705-2.64-.705-.311 0-.603.041-.881.105 1.059-2.275 2.692-6.318 2.3-8.864 3.446 2.815 4.868 7.48 3.561 11.737zM6.64 5.752c-1.1-.585-2.24-.797-3.194-.669C6.245 1.619 10.909.189 15.169 1.472c-2.33 1.098-4.768 4.712-6.062 6.862-.374-.975-1.239-1.929-2.467-2.582zm3.752 2.916c-.125.011-.239.038-.357.06 1.487-2.441 3.951-5.9 5.932-6.51.453-.14.846-.118 1.197.069s.588.499.727.954c.602 1.982-.888 5.96-2.08 8.558-.048-.11-.089-.219-.15-.329-.458-.83-1.246-1.572-2.217-2.097l-.003-.003c-.001-.001-.003-.001-.005-.002-.01-.005-.018-.012-.028-.017-.989-.526-2.062-.768-3.016-.683z"/></svg>