<svg xmlns="http://www.w3.org/2000/svg" viewBox="0 0 24 24"><path fill="#5c6671" d="M23.947 19.277c-.694-1.389-2.232-2.096-3.738-1.719l-3.24.81c-.143-1.249-.88-1.985-2.333-2.348-.472-.134-4.654-1.3-6.229-1.011-.927.173-1.734.223-2.434.236-.122-.705-.735-1.244-1.474-1.244h-.592c-.207-.581-.757-1-1.408-1h-2c-.276 0-.5.224-.5.5v10c0 .276.224.5.5.5h2c.651 0 1.201-.419 1.408-1h.592c.609 0 1.132-.366 1.367-.888 1.204.312 4.264 1.099 5.526 1.377l.396.089c.679.154 1.194.259 1.748.259 1.01 0 2.153-.348 4.67-1.381l5.5-2.5c.124-.056.219-.16.264-.288.018-.05.029-.107.029-.167 0-.081-.019-.158-.054-.226zM2.5 23H1v-9h1.5c.276 0 .5.224.5.5v8c0 .276-.224.5-.5.5zM5 21.5c0 .276-.224.5-.5.5H4v-7h.5c.276 0 .5.224.5.5v6zm12.81.038c-3.736 1.532-4.173 1.434-5.8 1.064l-.402-.09c-1.274-.28-4.513-1.115-5.607-1.398v-4.87c.741-.014 1.598-.067 2.592-.252 1.131-.213 4.551.642 5.787.993 1.107.277 1.553.714 1.614 1.626l-.96.24c-.355.089-.734.099-1.096.026L9.6 18.009c-.273-.059-.535.121-.588.392s.122.534.392.588l4.339.868c.225.045.456.067.686.067.286 0 .573-.035.849-.104l5.176-1.294c.874-.217 1.764.088 2.315.756l-4.957 2.254zM8 7c.636 0 1.237-.204 1.744-.568 2.155 3.266 3.254 8.112 3.268 8.177.051.229.254.392.488.392h.008c.237-.004.439-.174.483-.407.005-.026.298-1.493 1.21-3.456.843.57 1.82.861 2.799.861 1.28 0 2.561-.488 3.536-1.462 1.834-1.834 2.404-8.268 2.463-8.995.001-.012.002-.026.002-.04 0-.138-.056-.263-.147-.354-.104-.104-.245-.159-.394-.145-.728.059-7.161.628-8.995 2.463-1.928 1.928-1.942 5.047-.057 7.002-.384.799-.681 1.536-.891 2.144-.539-1.825-1.549-4.687-3.06-6.896.35-.5.544-1.091.544-1.714 0-.801-.312-1.555-.879-2.121C9.065.823 5.043.09 4.588.01c-.163-.029-.325.023-.44.139s-.167.28-.139.44c.08.455.813 4.477 1.871 5.534.566.567 1.32.879 2.121.879zm7.171-2.828c1.211-1.211 5.578-1.889 7.775-2.118-.228 2.196-.905 6.563-2.118 7.775-1.409 1.409-3.61 1.532-5.174.395.736-1.391 1.767-2.938 3.198-4.37.195-.195.195-.512 0-.707s-.512-.195-.707 0c-1.434 1.434-2.476 2.959-3.242 4.355-1.268-1.569-1.191-3.873.267-5.331zM9.414 2.586c.378.378.586.88.586 1.414 0 .297-.07.58-.192.842C9.19 4.094 8.5 3.469 7.736 3.06c-.244-.129-.546-.038-.677.205s-.039.546.205.677c.694.372 1.324.965 1.893 1.681-.771.535-1.894.469-2.571-.208-.543-.543-1.125-2.68-1.456-4.284 1.604.331 3.741.913 4.284 1.456z"/></svg>