<svg xmlns="http://www.w3.org/2000/svg" viewBox="0 0 18 24"><path fill="#5c6671" d="M11.5 6h-5c-.276 0-.5.224-.5.5v4.919l-.975 2.923c-.006.017 0 .035-.004.053-.008.035-.021.068-.021.105 0 .016.008.03.009.046.003.027.009.052.016.078.013.049.031.093.057.134.008.013.008.029.018.042l1.5 2c.095.126.243.2.4.2h4.5c.102 0 .191-.038.27-.09.009-.006.021-.003.029-.01s.014-.018.022-.025c.027-.024.049-.05.071-.079.018-.024.036-.047.049-.073.014-.028.023-.059.031-.09.009-.033.017-.064.02-.098.001-.012.007-.022.007-.035v-10c0-.276-.224-.5-.5-.5zm-5.306 8l.667-2h3.831l-1 2H6.195zm4.391.447l.415-.83V15l-.415-.553zM11 7v4H7V7h4zm-4.5 8h3.25l.75 1H7.25l-.75-1zM16 0H2C.897 0 0 .897 0 2v20c0 1.103.897 2 2 2h14c1.103 0 2-.897 2-2V2c0-1.103-.897-2-2-2zm1 22c0 .551-.448 1-1 1H2c-.552 0-1-.449-1-1V2c0-.551.448-1 1-1h14c.552 0 1 .449 1 1v20z"/></svg>