<svg xmlns="http://www.w3.org/2000/svg" viewBox="0 0 24 24"><path fill="#5c6671" d="M22 2H11c-1.103 0-2 .897-2 2v4.111C8.653 8.046 8.299 8 7.935 8c-2.977 0-5.417 2.291-5.574 5.247-1.463.846-2.36 2.371-2.36 4.047C.001 19.889 2.156 22 4.805 22h10.174c2.218 0 4.022-1.768 4.022-3.941 0-.747-.221-1.453-.604-2.059h1.104c.276 0 .5-.224.5-.5s-.224-.5-.5-.5c-.138 0-.192-.042-.23-.089-.142-.173-.174-.561-.156-.911h2.886c1.103 0 2-.897 2-2V4c0-1.103-.897-2-2-2zM10 4c0-.551.449-1 1-1h11c.551 0 1 .449 1 1v6H12.5c-.079 0-.151.022-.217.054-.604-.743-1.388-1.312-2.283-1.659V4zm4.978 17H4.804C2.706 21 1 19.337 1 17.294c0-1.396.795-2.659 2.075-3.297.169-.084.272-.336.272-.526C3.347 11.006 5.405 9 7.934 9c.474 0 .934.07 1.369.201.003.001.007.002.01.003 1.305.397 2.377 1.352 2.895 2.651.094.237.351.365.597.297.232-.064.425-.094.608-.094 1.018 0 1.87.668 2.141 1.573.001.003 0 .007.001.01.066.226.098.415.098.594 0 .149-.018.301-.054.463-.007.03-.002.059-.003.089-.001.027-.006.053-.003.079.005.038.018.073.031.109.008.023.012.047.024.068.02.037.048.068.077.099.014.015.023.033.039.046.048.041.104.074.168.095.003.001.005.003.008.003.18.059.354.137.522.232.011.006.02.013.03.018.168.097.33.21.484.342.002.002.005.003.008.005.63.544 1.017 1.324 1.017 2.174 0 1.622-1.355 2.941-3.022 2.941zm3.25-6h-.745c-.171-.133-.354-.251-.547-.357-.039-.022-.078-.042-.117-.062-.06-.03-.116-.067-.178-.095.007-.084.011-.168.011-.251 0-.077-.012-.157-.019-.235h1.476c-.012.298.015.662.118 1zM22 13h-5.603c-.492-1.14-1.645-1.941-2.984-1.941-.147 0-.294.012-.449.036-.016-.033-.038-.062-.055-.095H23v1c0 .551-.449 1-1 1zm-4.5-1c0 .276-.224.5-.5.5s-.5-.224-.5-.5.224-.5.5-.5.5.224.5.5zM0 4.5v-3c0-.276.224-.5.5-.5s.5.224.5.5v1.564C3.189 1.108 6.045 0 9 0c.276 0 .5.224.5.5S9.276 1 9 1C6.199 1 3.501 2.091 1.47 4H3.5c.276 0 .5.224.5.5s-.224.5-.5.5h-3C.224 5 0 4.776 0 4.5zm24 15v3c0 .276-.224.5-.5.5s-.5-.224-.5-.5v-1.564C20.811 22.892 17.955 24 15 24c-.276 0-.5-.224-.5-.5s.224-.5.5-.5c2.801 0 5.499-1.091 7.53-3H20.5c-.276 0-.5-.224-.5-.5s.224-.5.5-.5h3c.276 0 .5.224.5.5z"/></svg>