<svg xmlns="http://www.w3.org/2000/svg" viewBox="0 0 24 24"><path fill="#5c6671" d="M23.854 5.146l-5-5c-.195-.195-.512-.195-.707 0s-.195.512 0 .707l.646.647L15.5 4.793l-1.646-1.646c-.195-.195-.512-.195-.707 0s-.195.512 0 .707l.646.646L3.147 15.146c-.09.09-.146.215-.146.353 0 1.337.48 2.563 1.276 3.517l-4.13 4.13c-.195.195-.195.512 0 .707.098.098.226.146.354.146s.256-.049.354-.146l4.13-4.13c.954.796 2.18 1.276 3.517 1.276.138 0 .263-.056.353-.146l10.646-10.646.646.646c.098.098.226.146.354.146s.256-.049.354-.146c.195-.195.195-.512 0-.707L19.209 8.5l3.293-3.293.646.646c.098.098.226.146.354.146s.256-.049.354-.146c.195-.195.195-.512 0-.707zM8.297 19.996c-2.321-.104-4.189-1.972-4.293-4.293l1.246-1.246 1.396 1.396c.098.098.226.146.354.146s.256-.049.354-.146c.195-.195.195-.512 0-.707L5.958 13.75l1.043-1.043.646.646c.098.098.226.146.354.146s.256-.049.354-.146c.195-.195.195-.512 0-.707L7.709 12l1.043-1.043 1.396 1.396c.098.098.226.146.354.146s.256-.049.354-.146c.195-.195.195-.512 0-.707L9.46 10.25l1.043-1.043.646.646c.098.098.226.146.354.146s.256-.049.354-.146c.195-.195.195-.512 0-.707L11.21 8.5l1.051-1.051 1.396 1.396c.098.098.226.146.354.146s.256-.049.354-.146c.195-.195.195-.512 0-.707l-1.396-1.396 1.535-1.535L18.797 9.5 8.301 19.996zM18.5 7.793L16.207 5.5 19.5 2.207 21.793 4.5 18.5 7.793z"/></svg>