<svg xmlns="http://www.w3.org/2000/svg" viewBox="0 0 24 24"><path fill="#5c6671" d="M21.813 2.102C20.192.831 15.778.036 15.59.003c-.023-.004-.045.004-.068.003-.038-.002-.075-.009-.114-.002-.717.137-2.728.491-3.407.491S9.311.14 8.594.004c-.042-.008-.081-.001-.121.001-.02.001-.04-.006-.06-.002-.002 0-.013.002-.017.003-.002 0-.003.001-.005.001-.323.058-4.606.845-6.2 2.095C.555 3.384.079 9.711-.001 10.997c0 1.103.897 2 2 2h2v9.002c0 1.103.897 2 2 2h12.003c1.103 0 2-.897 2-2v-9.002h2c1.103 0 2-.897 1.999-2.032-.079-1.255-.555-7.582-2.191-8.864zm-7.021-.97c-.451.829-1.585 1.864-2.79 1.864s-2.339-1.034-2.79-1.864c.863.151 2.187.363 2.79.363s1.926-.213 2.79-.363zm7.213 10.865h-2V8.496c0-1.073.343-2.136.854-2.647.195-.195.195-.512 0-.707s-.512-.195-.707 0c-.707.707-1.147 1.993-1.147 3.354v13.503c0 .551-.449 1-1 1H6.002c-.551 0-1-.449-1-1V8.496c0-1.362-.44-2.647-1.147-3.354-.195-.195-.512-.195-.707 0s-.195.512 0 .707c.51.511.854 1.575.854 2.647v3.501h-2c-.551 0-1-.449-1.001-.969.172-2.733.815-7.359 1.81-8.139 1.05-.823 3.836-1.513 5.295-1.809.418 1.293 2.061 2.916 3.899 2.916s3.482-1.623 3.899-2.916c1.458.295 4.244.985 5.295 1.809.994.779 1.638 5.406 1.809 8.108 0 .551-.449 1-1 1z"/></svg>