<svg xmlns="http://www.w3.org/2000/svg" viewBox="0 0 24 24"><path fill="#5c6671" d="M21.079 0h-6.97c-1.103 0-2.141.43-2.921 1.21L1.001 11.398C.355 12.043 0 12.901 0 13.818c0 .913.355 1.771 1.001 2.417L7.766 23c.645.646 1.503 1.001 2.421 1.001.913 0 1.771-.355 2.416-1.001l10.188-10.187c.78-.781 1.21-1.818 1.21-2.921v-6.97c0-1.61-1.311-2.921-2.921-2.921zM23 9.891c0 .836-.326 1.623-.917 2.214L11.895 22.292c-.909.91-2.507.916-3.423 0l-6.765-6.765c-.457-.457-.708-1.063-.708-1.714 0-.646.251-1.253.708-1.709L11.894 1.916c.592-.591 1.378-.917 2.214-.917h6.97c1.059 0 1.921.862 1.921 1.921v6.97zM18.5 3C17.122 3 16 4.122 16 5.5S17.122 8 18.5 8 21 6.878 21 5.5 19.878 3 18.5 3zm0 4c-.827 0-1.5-.673-1.5-1.5S17.673 4 18.5 4s1.5.673 1.5 1.5S19.327 7 18.5 7z"/></svg>