<svg xmlns="http://www.w3.org/2000/svg" viewBox="0 0 24 24"><path fill="#5c6671" d="M18.5 7h-3.551c-.232-1.14-1.242-2-2.449-2H12V2.989c1.088-.043 3-.259 3-1.239S13.088.554 12 .511V.5c0-.276-.224-.5-.5-.5s-.5.224-.5.5v.011C9.912.554 8 .77 8 1.75s1.912 1.196 3 1.239V5h-.5c-1.207 0-2.217.86-2.449 2H2C.897 7 0 7.897 0 9v1c0 1.103.897 2 2 2h6.051c.232 1.14 1.242 2 2.449 2h2c1.207 0 2.217-.86 2.449-2H17.5c.827 0 1.5.673 1.5 1.5v.5c0 1.103.897 2 2 2h1c1.103 0 2-.897 2-2v-1.5C24 9.467 21.533 7 18.5 7zm-4.829-5.25c-.348.104-.921.202-1.671.235v-.47c.75.033 1.324.131 1.671.235zm-4.342 0c.348-.104.921-.202 1.671-.235v.47c-.75-.033-1.324-.131-1.671-.235zM1 10V9c0-.551.449-1 1-1h6v3H2c-.551 0-1-.449-1-1zm11.5 3h-2c-.827 0-1.5-.673-1.5-1.5v-4c0-.827.673-1.5 1.5-1.5h2c.827 0 1.5.673 1.5 1.5v4c0 .827-.673 1.5-1.5 1.5zM23 14c0 .551-.449 1-1 1h-1c-.551 0-1-.449-1-1v-.5c0-1.378-1.122-2.5-2.5-2.5H15V8h3.5c2.481 0 4.5 2.019 4.5 4.5V14zm-1.912 3.216C20.739 17.721 19 20.3 19 21.5c0 1.378 1.122 2.5 2.5 2.5s2.5-1.122 2.5-2.5c0-1.2-1.74-3.779-2.088-4.284-.188-.271-.636-.271-.823 0zM21.5 23c-.827 0-1.5-.673-1.5-1.5 0-.546.78-1.971 1.5-3.096.72 1.125 1.5 2.549 1.5 3.096 0 .827-.673 1.5-1.5 1.5z"/></svg>