<svg xmlns="http://www.w3.org/2000/svg" viewBox="0 0 24 24"><path fill="#5c6671" d="M22 12h-.099L20.51 5.741C20.151 4.127 18.746 3 17.093 3h-.233l-.658-1.975C15.997.412 15.426 0 14.779 0H9.22c-.646 0-1.218.412-1.423 1.025L7.139 3h-.233C5.253 3 3.848 4.127 3.489 5.741L2.098 12h-.099c-1.103 0-2 .897-2 2v5c0 1.103.897 2 2 2v1c0 1.103.897 2 2 2h1c1.103 0 2-.897 2-2v-1h10v1c0 1.103.897 2 2 2h1c1.103 0 2-.897 2-2v-1c1.103 0 2-.897 2-2v-5c0-1.103-.897-2-2-2zM8.746 1.342c.068-.2.255-.342.474-.342h5.559c.22 0 .406.142.473.338L15.806 3H8.193l.553-1.658zm-4.28 4.616C4.722 4.806 5.726 4 6.906 4h10.187c1.181 0 2.185.805 2.44 1.958L20.876 12H3.123l1.343-6.042zM6 22c0 .551-.449 1-1 1H4c-.551 0-1-.449-1-1v-1h3v1zm15 0c0 .551-.449 1-1 1h-1c-.551 0-1-.449-1-1v-1h3v1zm2-3c0 .551-.449 1-1 1H2c-.551 0-1-.449-1-1v-5c0-.551.449-1 1-1h20c.551 0 1 .449 1 1v5zM4.5 14C3.122 14 2 15.122 2 16.5S3.122 19 4.5 19 7 17.878 7 16.5 5.878 14 4.5 14zm0 4c-.827 0-1.5-.673-1.5-1.5S3.673 15 4.5 15s1.5.673 1.5 1.5S5.327 18 4.5 18zm15-4c-1.378 0-2.5 1.122-2.5 2.5s1.122 2.5 2.5 2.5 2.5-1.122 2.5-2.5-1.122-2.5-2.5-2.5zm0 4c-.827 0-1.5-.673-1.5-1.5s.673-1.5 1.5-1.5 1.5.673 1.5 1.5-.673 1.5-1.5 1.5zM16 15.5c0 .276-.224.5-.5.5h-7c-.276 0-.5-.224-.5-.5s.224-.5.5-.5h7c.276 0 .5.224.5.5zm0 2c0 .276-.224.5-.5.5h-7c-.276 0-.5-.224-.5-.5s.224-.5.5-.5h7c.276 0 .5.224.5.5z"/></svg>