<svg xmlns="http://www.w3.org/2000/svg" viewBox="0 0 24 24"><path fill="#5c6671" d="M21.979 12.489c-1.5-.421-2.855-1.255-3.276-1.528l-.205-.614c.608-.746 1.023-1.701 1.135-2.623.296-.484.454-1.291.454-1.551 0-.322-.099-.62-.272-.844.068-1.163-.332-2.3-1.103-3.128-.722-.775-1.684-1.202-2.714-1.202-1.025 0-1.987.427-2.709 1.202-.702.754-1.075 1.766-1.089 2.819-.068-.003-.133-.021-.202-.021-.067 0-.131.017-.198.021-.013-1.052-.386-2.065-1.088-2.819C9.99 1.426 9.028.999 7.998.999c-1.025 0-1.987.427-2.709 1.202-.771.828-1.171 1.965-1.103 3.128-.174.224-.272.521-.272.844 0 .26.158 1.066.454 1.551.112.921.527 1.876 1.135 2.623l-.205.615c-.42.272-1.772 1.105-3.276 1.527-1.19.334-2.021 1.452-2.021 2.719C.001 16.196.805 17 1.792 17h5.94c-.686.36-1.559.757-2.49 1.019C3.922 18.39 3 19.63 3 21.037c0 1.083.881 1.964 1.964 1.964h14.072c1.083 0 1.964-.881 1.964-1.964 0-1.406-.922-2.646-2.242-3.018-.928-.261-1.801-.658-2.488-1.019h5.939c.988 0 1.792-.804 1.792-1.792 0-1.267-.831-2.385-2.021-2.719zM14.02 2.884c1.058-1.138 2.895-1.144 3.96 0 .594.638.898 1.524.834 2.431l-.012.172c-.013.174.067.343.21.443.037.026.076.13.076.243-.002.173-.17.859-.333 1.068-.059.075-.095.166-.104.262-.118 1.305-1.004 2.742-2.115 3.109-.033-.286-.119-.551-.282-.75.084-1.309-.363-2.59-1.23-3.521-.516-.555-1.149-.929-1.835-1.141-.032-.866.261-1.706.83-2.317zM12.002 6c.189 0 .375.025.558.059.031.005.061.014.093.013.615.135 1.183.46 1.639.95.687.737 1.037 1.76.962 2.805l-.014.196c-.012.176.068.344.212.444.064.045.112.187.112.329 0 .198-.196.999-.392 1.251-.059.076-.094.166-.103.262-.158 1.742-1.505 3.69-3.071 3.69s-2.913-1.948-3.071-3.69c-.009-.096-.044-.186-.103-.262-.195-.252-.391-1.053-.392-1.251 0-.143.048-.284.112-.329.144-.101.224-.269.212-.444l-.014-.197c-.075-1.044.276-2.066.962-2.804C10.318 6.363 11.131 6 11.999 6zM5.246 7.241c-.162-.209-.33-.896-.333-1.067 0-.114.039-.218.076-.244.143-.101.223-.27.21-.443l-.012-.172c-.064-.906.239-1.793.834-2.431 1.058-1.138 2.895-1.144 3.96 0 .569.611.862 1.451.83 2.316-.685.212-1.318.587-1.835 1.142-.867.931-1.314 2.213-1.23 3.52-.162.198-.249.464-.282.75-1.11-.367-1.997-1.804-2.115-3.109-.009-.096-.044-.187-.103-.262zM1 15.208c0-.82.531-1.542 1.291-1.756 1.968-.553 3.642-1.711 3.712-1.76.088-.062.154-.15.188-.252l.113-.34c.392.283.824.474 1.287.549.087.311.205.638.355.881.124 1.051.599 2.144 1.296 2.988l-.166.497C9.05 16.011 9.027 16 8.999 16H1.79c-.437 0-.792-.355-.792-.792zm19 5.828c0 .531-.433.964-.964.964H4.964C4.433 22 4 21.567 4 21.036c0-.96.622-1.805 1.513-2.055 2.219-.623 4.107-1.929 4.187-1.984.088-.062.154-.15.188-.252l.156-.467c.58.439 1.241.722 1.957.722s1.377-.283 1.957-.722l.156.467c.034.102.1.19.188.252.08.056 1.967 1.361 4.187 1.984.891.25 1.513 1.095 1.513 2.055zM22.209 16H15c-.027 0-.051.011-.077.015l-.166-.497c.697-.844 1.171-1.937 1.296-2.988.15-.243.268-.57.355-.881.463-.075.895-.266 1.287-.549l.113.34c.034.102.1.19.188.252.07.049 1.744 1.207 3.712 1.76.76.214 1.292.936 1.292 1.756 0 .437-.355.792-.792.792z"/></svg>