<svg xmlns="http://www.w3.org/2000/svg" viewBox="0 0 24 24"><path fill="#5c6671" d="M23.174 17.432l-2.589-2.589c-1.103-1.102-3.023-1.102-4.126 0l-.377.377c-.825.823-2.173.994-3.165.426-.577-.331-1.487-.948-2.551-2.012-1.066-1.066-1.682-1.975-2.011-2.551-.226-.393-.345-.844-.345-1.305 0-.703.274-1.363.77-1.86l.377-.377c.551-.55.855-1.283.855-2.063s-.303-1.513-.855-2.063L6.568.826C5.465-.276 3.545-.276 2.442.826l-.715.715C.613 2.655-.001 4.136-.001 5.711c0 .653.109 1.302.324 1.928.656 1.917 2.352 5.728 6.331 9.706s7.788 5.674 9.707 6.332c.625.214 1.273.323 1.928.323 1.575 0 3.056-.614 4.17-1.727l.715-.715c.551-.55.855-1.283.855-2.063s-.303-1.513-.855-2.063zm-.708 3.418l-.715.715c-1.309 1.31-3.295 1.773-5.066 1.165-1.836-.629-5.489-2.258-9.323-6.092S1.899 9.151 1.27 7.315c-.178-.522-.269-1.061-.269-1.603 0-1.308.509-2.537 1.434-3.462l.715-.715c.363-.362.844-.561 1.355-.561s.992.199 1.355.561l2.589 2.589c.362.362.561.843.561 1.355s-.199.993-.561 1.355l-.377.377c-.686.685-1.064 1.598-1.064 2.568 0 .636.165 1.259.478 1.803.359.628 1.028 1.617 2.171 2.761 1.141 1.141 2.131 1.811 2.76 2.172 1.375.788 3.234.55 4.371-.586l.377-.377c.725-.724 1.985-.724 2.71 0l2.589 2.589c.362.362.561.843.561 1.355s-.199.993-.561 1.355z"/></svg>