<svg xmlns="http://www.w3.org/2000/svg" viewBox="0 0 24 24"><path fill="#5c6671" d="M22.452 3.7c-.01-.032-.022-.063-.039-.093C22.257 3.241 21.898 3 21.5 3c-.125 0-.25.024-.343.063l-1.494.497c-.031.01-.058.022-.083.037-.3.138-.5.414-.555.735L1.832 11.085c-.102-.05-.213-.084-.331-.084-.05 0-.192.024-.24.039l-.771.239c-.292.106-.488.381-.488.684 0 .091 0 .091.779 2.494.088.32.384.544.721.544.092 0 .092 0 .986-.27.011-.003.02-.006.028-.009.137-.05.252-.14.337-.252l8.295-1.98c.086.149.206.269.354.357v.535l-3.447 6.895c-.123.247-.023.547.224.671.072.036.148.053.224.053.183 0 .359-.101.447-.276l2.553-5.105v3.882c0 .276.224.5.5.5s.5-.224.5-.5V15.62l2.553 5.105c.088.175.265.276.447.276.075 0 .151-.017.224-.053.247-.124.347-.424.224-.671l-3.447-6.895v-.535c.279-.166.472-.454.49-.797l7.808-1.864c.182.19.426.315.702.315.104 0 .116 0 1.839-.562.015-.005.025-.009.034-.012.379-.151.627-.515.627-.926 0-.102 0-.102-1.548-5.3zm-7.827 6.931l-.946-3.126 5.542-2.177c.186.633.533 1.793 1.172 3.927l-5.768 1.377zm-2.142.511C12.338 11.06 12.179 11 12 11c-.344 0-.634.186-.814.451l-2.878.687-.752-2.229 5.188-2.038.906 2.992-1.168.279zm-10.127.81l4.269-1.677.707 2.096-4.496 1.073c-.095-.298-.243-.76-.48-1.493zm-.695 1.982c-.138-.425-.428-1.32-.581-1.798l.258-.084c.139.429.427 1.324.581 1.805-.083.025-.175.052-.258.077zm19.841-4.455l.001-.005c-.532-1.777-1.312-4.387-1.484-4.979.002 0 .003-.001.005-.002l1.471-.491c.005.014.011.027.017.041.532 1.789 1.3 4.371 1.471 4.96-.219.071-1.136.37-1.479.476z"/></svg>