<svg xmlns="http://www.w3.org/2000/svg" viewBox="0 0 24 24"><path fill="#5c6671" d="M23.991 11.831v-.001-.002C23.898 5.349 18.651.102 12.172.009h-.004C12.111.008 12.056 0 11.999 0c-6.617 0-12 5.383-12 12 0 .057.008.112.009.169v.003c.093 6.475 5.335 11.721 11.809 11.819.002 0 .003.001.005.001H11.831c.057.001.112.009.169.009 6.617 0 12-5.383 12-12 0-.057-.008-.112-.009-.169zM11.661 1.017c-.081 2.818-1.196 5.448-3.196 7.447s-4.629 3.118-7.447 3.199C1.195 5.868 5.867 1.195 11.662 1.017zM1.034 12.663c3.079-.085 5.953-1.306 8.138-3.491s3.403-5.059 3.488-8.138c5.538.331 9.976 4.768 10.307 10.307-3.094.084-5.953 1.302-8.138 3.489-2.185 2.185-3.403 5.059-3.488 8.138-5.537-.331-9.974-4.767-10.307-10.304zm11.305 10.32c.081-2.818 1.196-5.448 3.196-7.447s4.628-3.116 7.447-3.197c-.178 5.794-4.85 10.466-10.644 10.644z"/></svg>