<svg xmlns="http://www.w3.org/2000/svg" viewBox="0 0 8 24"><path fill="#5c6671" d="M8 1.969c0-2.626-8-2.626-8 0 0 .584.411 1.036 1.027 1.367-.012.043-.027.086-.027.133v17.5c0 1.654 1.346 3 3 3s3-1.346 3-3v-17.5c0-.047-.015-.09-.027-.133C7.589 3.005 8 2.553 8 1.969zM2 10.49c.081-.153.772-.521 2-.521 1.174 0 1.858.336 1.987.5-.129.164-.813.5-1.987.5-1.228 0-1.919-.368-2-.469v-.01zm2 12.479c-1.103 0-2-.897-2-2V11.62c.564.235 1.294.349 2 .349s1.436-.114 2-.349v9.349c0 1.103-.897 2-2 2zM6 9.318c-.564-.235-1.294-.349-2-.349s-1.436.114-2 .349V3.715c.613.165 1.306.254 2 .254s1.387-.089 2-.254v5.603zM4 2.969c-1.861 0-3-.647-3-1s1.139-1 3-1 3 .647 3 1-1.139 1-3 1z"/></svg>