<svg xmlns="http://www.w3.org/2000/svg" viewBox="0 0 24 24"><path fill="#5c6671" d="M20 0c-1.069 0-2.073.416-2.828 1.171l-12 12C4.416 13.927 4 14.931 4 16c0 .338.048.677.146 1.026l-3.56 3.56C.208 20.964 0 21.466 0 22c0 1.103.897 2 2 2 .534 0 1.036-.208 1.414-.586l3.56-3.56c1.454.406 2.861-.031 3.854-1.026l12-12C23.584 6.073 24 5.069 24 4c0-2.206-1.794-4-4-4zm2.121 6.121l-12 12c-.793.793-1.889 1.129-3.119.694a.49631.49631 0 0 0-.52.118l-3.774 3.774c-.189.189-.44.293-.707.293-.552 0-1-.449-1-1 0-.267.104-.518.293-.707l3.774-3.774c.091-.09.147-.215.147-.354 0-.06-.011-.117-.03-.17-.124-.348-.184-.674-.184-.995 0-.631.201-1.229.56-1.733l.587.587c.098.098.226.146.354.146s.256-.049.354-.146c.195-.195.195-.512 0-.707l-.621-.622.793-.793 1.121 1.122c.098.098.226.146.354.146s.256-.049.354-.146c.195-.195.195-.512 0-.707l-1.121-1.122.793-.793.621.622c.098.098.226.146.354.146s.256-.049.354-.146c.195-.195.195-.512 0-.707l-.621-.622.793-.793 1.121 1.122c.098.098.226.146.354.146s.256-.049.354-.146c.195-.195.195-.512 0-.707l-1.121-1.122.793-.793.621.622c.098.098.226.146.354.146s.256-.049.354-.146c.195-.195.195-.512 0-.707l-.621-.622.793-.793 1.121 1.122c.098.098.226.146.354.146s.256-.049.354-.146c.195-.195.195-.512 0-.707L13.74 6.025l.793-.793.621.622c.098.098.226.146.354.146s.256-.049.354-.146c.195-.195.195-.512 0-.707l-.621-.622.793-.793 1.121 1.122c.098.098.226.146.354.146s.256-.049.354-.146c.195-.195.195-.512 0-.707l-1.121-1.122 1.147-1.147C18.455 1.312 19.208 1 20.01 1c1.654 0 3 1.346 3 3 0 .801-.313 1.555-.879 2.121zm-2.267-1.975c.195.195.195.512 0 .707l-12 12c-.098.098-.226.146-.354.146s-.256-.049-.354-.146c-.195-.195-.195-.512 0-.707l12-12c.195-.195.512-.195.707 0z"/></svg>