<svg xmlns="http://www.w3.org/2000/svg" viewBox="0 0 14 24"><path fill="#5c6671" d="M14 5.5v-1C14 3.122 12.878 2 11.5 2h-.891C10.064.858 9.362 0 8.5 0h-5C1.175 0 0 6.233 0 7.5V22c0 1.103.897 2 2 2h8c1.103 0 2-.897 2-2v-7.051c1.14-.232 2-1.242 2-2.449v-3c0-.827-.673-1.5-1.5-1.5H12v-.5c0-.121-.014-.298-.035-.5h.535c.827 0 1.5-.673 1.5-1.5zM3.5 1h5c.413 0 .888.706 1.313 1.677.006.015.01.026.016.036.488 1.126.906 2.601 1.081 3.773 0 .005-.003.009-.003.013 0 .038.014.071.021.107.019.137.033.267.044.393H4.051c.138-.907.554-2.444.952-3.287.118-.25.011-.547-.239-.666-.25-.12-.547-.01-.666.239-.435.921-.918 2.664-1.057 3.713H1.025c.195-2.154 1.505-6 2.473-6zM11 22c0 .551-.449 1-1 1H2c-.551 0-1-.449-1-1V8h2v12.5c0 .276.224.5.5.5s.5-.224.5-.5V8h7v14zm1.5-13c.276 0 .5.224.5.5v3c0 .651-.419 1.201-1 1.408V9h.5zm-1.479-6h.479c.827 0 1.5.673 1.5 1.5v1c0 .276-.224.5-.5.5h-.683c-.16-.885-.425-1.98-.796-3z"/></svg>