<svg xmlns="http://www.w3.org/2000/svg" viewBox="0 0 24 24"><path fill="#5c6671" d="M24 10.25c0-.867-.497-1.629-1.235-2.001.154-.306.235-.645.235-.999 0-.867-.497-1.629-1.235-2.001.154-.306.235-.645.235-.999C22 3.01 20.991 2 19.75 2H10.5c-.656 0-1.687.204-2.5.587V2c0-1.103-.897-2-2-2H2C.897 0 0 .897 0 2v11c0 1.103.897 2 2 2h4c1.002 0 1.826-.743 1.97-1.706l.149.075 2.88 6.24V23c0 .152.069.296.188.391.031.024.774.609 1.812.609 1.157 0 3-1.831 3-4 0-1.368-.49-3.071-.795-4h6.295c1.378 0 2.5-1.121 2.5-2.5 0-.631-.235-1.223-.65-1.676.411-.413.65-.974.65-1.574zM7 13c0 .552-.449 1-1 1H2c-.551 0-1-.448-1-1V2c0-.552.449-1 1-1h4c.551 0 1 .448 1 1v11zm15.281-.773c.45.277.719.754.719 1.273 0 .827-.673 1.5-1.5 1.5h-7c-.17 0-.32.085-.411.214-.094.137-.115.31-.057.464.01.025.967 2.562.967 4.322 0 1.638-1.452 3-2 3-.431 0-.793-.157-1-.271V19.5c0-.072-.016-.144-.046-.21l-3-6.5c-.048-.103-.129-.187-.23-.237l-.724-.362V3.737C8.56 3.32 9.755 3 10.499 3h9.25c.689 0 1.25.561 1.25 1.25 0 .344-.14.666-.395.905-.142.134-.193.337-.132.522s.225.316.418.339c.632.072 1.108.603 1.108 1.233 0 .344-.14.666-.395.905-.142.134-.193.337-.132.522s.225.316.418.339c.632.072 1.108.603 1.108 1.233 0 .466-.262.89-.684 1.105-.161.083-.265.245-.271.426s.083.351.237.445z"/></svg>