<svg xmlns="http://www.w3.org/2000/svg" viewBox="0 0 24 24"><path fill="#5c6671" d="M24 10.5C24 9.121 22.878 8 21.5 8h-6.295c.305-.929.795-2.632.795-4 0-2.169-1.843-4-3-4-1.039 0-1.781.585-1.812.609C11.069.704 11 .847 11 1v3.391l-2.88 6.24-.149.075C7.827 9.744 7.003 9 6.001 9h-4c-1.103 0-2 .897-2 2v11c0 1.103.897 2 2 2h4c1.103 0 2-.897 2-2v-.587c.813.383 1.844.587 2.5.587h9.25c1.241 0 2.25-1.01 2.25-2.25 0-.354-.081-.693-.235-.999.738-.372 1.235-1.134 1.235-2.001 0-.354-.081-.693-.235-.999.738-.372 1.235-1.134 1.235-2.001 0-.601-.239-1.161-.65-1.574.415-.453.65-1.045.65-1.676zM7 22c0 .552-.449 1-1 1H2c-.551 0-1-.448-1-1V11c0-.552.449-1 1-1h4c.551 0 1 .448 1 1v11zm15.316-9.355c.422.216.684.64.684 1.105 0 .631-.477 1.161-1.108 1.233-.193.022-.356.154-.418.339s-.01.389.132.522c.254.239.395.562.395.905 0 .631-.477 1.161-1.108 1.233-.193.022-.356.154-.418.339s-.01.389.132.522c.254.239.395.562.395.905 0 .689-.561 1.25-1.25 1.25h-9.25c-.744 0-1.939-.32-2.5-.737v-8.454l.724-.362c.102-.051.183-.135.23-.237l3-6.5c.03-.066.046-.138.046-.21V1.269c.208-.115.569-.271 1-.271.548 0 2 1.362 2 3 0 1.76-.958 4.297-.967 4.322-.059.153-.038.326.056.462s.247.216.412.216h7c.827 0 1.5.673 1.5 1.5 0 .52-.269.996-.719 1.273-.153.095-.244.266-.237.445s.111.343.271.426z"/></svg>