<svg xmlns="http://www.w3.org/2000/svg" viewBox="0 0 18 24"><path fill="#5c6671" d="M16 9h-5.033l1.917-6.337c.003-.01.006-.02.008-.029.072-.212.108-.425.108-.634 0-1.103-.897-2-2-2-.54 0-1.059.224-1.437.617-.027.021-.052.046-.075.074L.521 11.657C.185 12.027 0 12.502 0 13c0 1.103.897 2 2 2h5.033l-1.917 6.337c-.002.005-.004.015-.007.025-.073.214-.109.427-.109.638 0 1.103.897 2 2 2 .54 0 1.059-.224 1.437-.617.027-.021.052-.046.075-.074l8.967-10.966c.336-.37.521-.845.521-1.343 0-1.103-.897-2-2-2zm.719 2.691c-.02.021-.039.044-.055.069L7.785 22.618c-.014.013-.027.025-.04.04-.195.221-.46.342-.746.342-.551 0-1-.448-1-1 0-.111.021-.224.066-.342.008-.022.016-.05.022-.077l2.097-6.936c.046-.151.017-.315-.077-.442s-.243-.202-.401-.202H2c-.551 0-1-.448-1-1 0-.258.1-.503.281-.691.02-.021.039-.044.055-.069l8.879-10.858c.014-.013.027-.025.04-.04.195-.221.46-.342.746-.342.551 0 1 .448 1 1 0 .11-.021.223-.066.343-.01.026-.017.054-.022.08L9.817 9.357c-.046.151-.017.315.077.442s.243.202.401.202h5.706c.551 0 1 .448 1 1 0 .258-.1.503-.281.691z"/></svg>