<svg xmlns="http://www.w3.org/2000/svg" viewBox="0 0 23 24"><path fill="#5c6671" d="M13.502 1.682C13.346.731 12.511 0 11.5 0c-1.122 0-2.035.897-2.035 2s.913 2 2.035 2c.878 0 1.621-.553 1.906-1.32C18.334 3.565 22 7.812 22 12.75 22 18.402 17.29 23 11.5 23S1 18.402 1 12.75c0-2.548.964-4.99 2.667-6.834l.145-.121c1.302 1.736 5.697 7.584 6.247 8.122.396.387.916.58 1.435.58s1.04-.193 1.435-.58c.387-.378.6-.882.6-1.418s-.213-1.04-.6-1.417c-.61-.596-7.911-5.82-8.741-6.414-.011-.008-.023-.01-.035-.016-.025-.015-.051-.026-.078-.037-.03-.012-.06-.021-.091-.027-.029-.005-.057-.007-.086-.007-.032 0-.063.004-.095.01-.028.005-.054.011-.081.022-.034.013-.065.031-.096.052-.016.01-.034.014-.049.026l-.597.502C1.058 7.266-.001 9.95-.001 12.751c0 6.203 5.159 11.25 11.5 11.25s11.5-5.047 11.5-11.25c0-5.448-4.057-10.131-9.498-11.068zM11.5 3c-.57 0-1.035-.449-1.035-1s.464-1 1.035-1 1.035.449 1.035 1-.464 1-1.035 1zm.73 8.796c.193.188.299.438.299.703s-.106.515-.299.704c-.405.396-1.066.396-1.472 0-.314-.307-2.45-3.103-4.498-5.816 2.782 2.005 5.655 4.102 5.97 4.41z"/></svg>