<svg xmlns="http://www.w3.org/2000/svg" viewBox="0 0 24 24"><path fill="#5c6671" d="M22 11c0-1.103-.897-2-2-2h-2.609l-.251-1.005C18.178 7.923 19 7.056 19 6c0-1.103-.897-2-2-2H6c-1.103 0-2 .897-2 2 0 1.056.822 1.923 1.86 1.995L5.609 9H3c-1.103 0-2 .897-2 2v9H.5c-.276 0-.5.224-.5.5V22c0 1.103.897 2 2 2h19c1.103 0 2-.897 2-2v-1.5c0-.276-.224-.5-.5-.5H22v-4c1.103 0 2-.897 2-2v-1c0-1.103-.897-2-2-2zM6.895 7.192C6.8 7.07 6.655 7 6.5 7H6c-.552 0-1-.449-1-1s.448-1 1-1h11c.552 0 1 .449 1 1s-.448 1-1 1h-.5c-.154 0-.3.071-.395.192s-.128.279-.091.429L16.359 9H6.64l.345-1.379c.037-.149.004-.308-.091-.429zM22 22c0 .551-.448 1-1 1H2c-.552 0-1-.449-1-1v-1h21v1zM2 20v-9c0-.551.448-1 1-1h17c.552 0 1 .449 1 1v9H2zm21-6c0 .551-.448 1-1 1v-3c.552 0 1 .449 1 1v1zm-3-2.5c0 .276-.224.5-.5.5h-3c-.276 0-.5-.224-.5-.5s.224-.5.5-.5h3c.276 0 .5.224.5.5zM8.146 2.854c-.352-.352-.694-.771-.569-1.217.111-.396.494-.516.758-.582C8.287 1 8.227.933 8.147.854c-.195-.195-.195-.512 0-.707s.512-.195.707 0c.369.369.729.807.601 1.263-.11.392-.481.516-.746.583.039.044.087.095.146.154.195.195.195.512 0 .707-.098.098-.226.146-.354.146s-.256-.049-.354-.146zm3.02 0c-.352-.352-.694-.771-.569-1.217.111-.396.494-.516.758-.582-.048-.055-.108-.122-.188-.201-.195-.195-.195-.512 0-.707s.512-.195.707 0c.369.369.729.807.601 1.263-.11.392-.481.516-.746.583.039.044.087.095.146.154.195.195.195.512 0 .707-.098.098-.226.146-.354.146s-.256-.049-.354-.146zm3.02 0c-.352-.352-.694-.771-.569-1.217.111-.396.494-.516.758-.582-.048-.055-.108-.122-.188-.201-.195-.195-.195-.512 0-.707s.512-.195.707 0c.369.369.729.807.601 1.263-.11.392-.481.516-.746.583.039.044.087.095.145.154.195.195.195.512 0 .707-.098.098-.226.146-.354.146s-.256-.049-.354-.146z"/></svg>