<svg xmlns="http://www.w3.org/2000/svg" viewBox="0 0 18 24"><path fill="#5c6671" d="M17.485 9.879c0-.002-.002-.003-.002-.004-.05-.52-.4-.971-.973-1.353l1.354-5.416C17.951 2.774 18 2.393 18 2c0-1.103-.897-2-2-2H2C.897 0 0 .897 0 2c0 .374.046.746.136 1.106L1.49 8.522c-.573.381-.923.833-.973 1.353 0 .002-.002.003-.002.004l-.5 2c-.01.04-.015.08-.015.121 0 2.707 1.99 5.055 4.888 6.219l-1.126 3.097c-.223.613-.133 1.297.241 1.831S4.989 24 5.641 24h6.717c.652 0 1.264-.319 1.638-.853s.464-1.218.241-1.831l-1.126-3.097c2.898-1.164 4.888-3.512 4.888-6.219 0-.041-.005-.082-.015-.121l-.5-2zM1.008 12.032l.191-.765C2.578 12.409 5.802 13 9 13s6.422-.592 7.801-1.733l.191.765C16.913 12.737 14.175 14 9 14s-7.914-1.263-7.992-1.968zm1.25-2.823c.015-.006.031-.005.045-.013.505-.275 1.179-.511 1.968-.699l.039-.009c.776-.183 1.662-.318 2.609-.4-.028.001.013-.002.055-.006.331-.026.602-.042.876-.055.06-.003.119-.006.18-.009.32-.012.643-.02.971-.02s.651.008.971.02c.061.002.119.006.18.009.274.013.545.029.811.05.04.003.08.006.12.01.948.082 1.834.217 2.609.4l.039.009c.789.188 1.463.424 1.968.699.013.007.028.005.042.011.493.269.762.548.762.793 0 .815-2.922 2-7.5 2s-7.5-1.185-7.5-2c0-.244.267-.522.758-.791zm.143-1.165L1.106 2.863C1.036 2.582 1 2.291 1 2c0-.551.449-1 1-1h14c.551 0 1 .449 1 1 0 .291-.036.582-.106.864l-1.295 5.18c-.003-.001-.007-.002-.01-.004-.78-.326-1.746-.578-2.816-.752-.115-.019-.235-.035-.353-.052-.142-.02-.284-.041-.429-.058-.14-.017-.282-.032-.425-.047-.038-.006-.179-.02-.321-.032-.23-.018-.37-.03-.513-.039-.165-.011-.331-.02-.497-.028-.118-.006-.235-.012-.354-.016C9.588 7.006 9.294 7 9 7s-.588.006-.881.016c-.119.004-.236.011-.354.016-.166.008-.332.017-.497.028-.143.01-.283.021-.423.033-.231.019-.372.033-.513.048-.04.006-.182.021-.322.038-.145.018-.287.038-.429.058-.118.017-.238.033-.353.052-1.07.173-2.036.425-2.816.752-.003.001-.007.002-.01.004zm10.897 13.614c.113.311.069.645-.121.916s-.488.426-.819.426H5.641c-.331 0-.629-.155-.819-.426s-.233-.605-.121-.916l1.132-3.114c.987.29 2.051.456 3.166.456s2.179-.166 3.166-.456l1.132 3.114zM9 18c-3.656 0-6.74-1.852-7.69-4.368C2.975 14.534 5.997 15 9 15s6.025-.467 7.69-1.368C15.739 16.149 12.656 18 9 18zM5 3c0 .551-.449 1-1 1s-1-.449-1-1c0-.482.35-.867.805-.961C3.862 2.014 3.929 2 4 2h1.501c.276 0 .5.224.5.5s-.224.5-.5.5h-.5z"/></svg>