<svg xmlns="http://www.w3.org/2000/svg" viewBox="0 0 24 24"><path fill="#5c6671" d="M23.232 19.525l-8.275-8.275L20.207 6h.675c.572 0 1.086-.317 1.342-.829l1.724-3.447c.096-.192.059-.425-.094-.577l-1-1c-.152-.152-.385-.188-.577-.094L18.83 1.777c-.512.255-.83.77-.83 1.342v.675l-5.25 5.25-1.918-1.918c-.56-.561-.865-1.271-.836-1.95.053-1.226-.457-2.395-1.558-3.577C7.491.583 6.237.001 4.997.001h-.006c-1.033.002-2.03.324-2.882.932-.137.098-.216.259-.209.427.006.169.098.322.242.409l3.345 2.008c-.091.918-.634 1.725-1.465 2.154L.815 4.007C.67 3.919.492 3.912.339 3.986s-.256.219-.278.387l-.016.115C.022 4.657 0 4.827 0 5.002c0 2.757 2.243 5 5.016 5 .861-.027 1.543.266 2.037.76l1.086 1.086c-.055.026-.106.058-.164.077-.62.208-1.198.594-1.819 1.215L.853 18.443C.311 18.985 0 19.735 0 20.505c0 .766.311 1.516.853 2.058l.588.588c.55.55 1.28.853 2.061.853.777 0 1.508-.303 2.058-.853l5.303-5.303c.622-.621 1.008-1.199 1.214-1.819.019-.058.051-.11.078-.165l7.372 7.372c.495.495 1.153.768 1.854.768 1.445 0 2.621-1.176 2.621-2.621 0-.69-.28-1.366-.768-1.854zM18.854 4.354c.09-.09.146-.215.146-.353v-.882c0-.191.105-.362.276-.447l3.125-1.563.49.49-1.563 3.125c-.085.171-.256.276-.447.276h-.882c-.138 0-.263.056-.353.146l-5.896 5.896-.793-.793 5.896-5.896zM5.021 9H5C2.892 9 1.159 7.36 1.01 5.289l2.732 1.64c.146.089.327.094.481.019l.211-.105c1.274-.637 2.065-1.917 2.065-3.342 0-.176-.092-.338-.243-.429L3.382 1.347C3.887 1.12 4.433 1.001 4.991 1h.005c.964 0 1.951.466 2.709 1.279.921.989 1.331 1.896 1.29 2.853s.37 1.941 1.127 2.7l.956.956c-.026-.002-.048.002-.079-.003h-.001c-.318 0-.618.125-.861.369-.624.623-1.01 1.202-1.216 1.82-.001.002-.002.005-.003.007-.019.055-.049.105-.074.157l-1.087-1.086c-.679-.68-1.647-1.053-2.739-1.053zm6.106 6.709c-.155.468-.464.921-.972 1.429l-5.303 5.303c-.719.719-1.981.723-2.705 0l-.588-.588c-.355-.355-.56-.848-.56-1.354 0-.503.204-.995.56-1.351l5.303-5.303c.508-.508.962-.816 1.428-.973.371-.123.705-.333.976-.604.011-.011.018-.025.029-.036.123-.128.236-.265.33-.417.102-.165.185-.341.246-.524.155-.466.464-.92.991-1.447.032-.031.084-.048.136-.049s.103.014.135.046l3.025 3.025c.074.073.074.194-.021.289-.508.508-.962.816-1.428.973-.743.247-1.334.838-1.582 1.581zM21.379 23c-.433 0-.84-.169-1.146-.475l-7.371-7.371c.055-.026.106-.058.164-.077.62-.208 1.198-.594 1.841-1.236.257-.258.356-.602.328-.94l7.331 7.331c.302.302.475.72.475 1.146 0 .894-.727 1.621-1.621 1.621zM9.354 14.646c.195.195.195.512 0 .707l-6 6c-.098.098-.226.146-.354.146s-.256-.049-.354-.146c-.195-.195-.195-.512 0-.707l6-6c.195-.195.512-.195.707 0z"/></svg>