<svg xmlns="http://www.w3.org/2000/svg" viewBox="0 0 18 24"><path fill="#5c6671" d="M18 4.5C18 2.372 16.357 0 14 0c-1.089 0-1.862.132-2.61.259C10.661.383 9.974.5 9 .5S7.339.383 6.61.259C5.862.132 5.089 0 4 0 1.643 0 0 2.372 0 4.5c0 1.437 1.118 4.634 2.144 6.705-.408 2.364-.214 10.76 1.112 12.399.265.327.55.396.743.396 1.687 0 1.943-2.101 2.215-4.325.371-3.03.788-5.175 2.785-5.175s2.414 2.145 2.785 5.175c.271 2.224.528 4.325 2.215 4.325.193 0 .479-.069.743-.396 1.327-1.639 1.521-10.036 1.112-12.399 1.026-2.071 2.144-5.268 2.144-6.705zM14 23c-.801 0-1.016-1.752-1.223-3.446-.33-2.697-.74-6.054-3.777-6.054s-3.447 3.356-3.777 6.054c-.207 1.694-.422 3.446-1.147 3.464-.81-.55-1.311-6.945-1.09-10.37.045.061.092.127.135.177.182.211.497.235.705.054.21-.18.234-.495.055-.705-.967-1.127-2.88-5.982-2.88-7.675 0-1.655 1.232-3.5 3-3.5 1.005 0 1.703.119 2.442.245.737.125 1.499.255 2.558.255s1.82-.13 2.558-.255c.739-.125 1.437-.245 2.442-.245 1.768 0 3 1.845 3 3.5 0 1.693-1.913 6.547-2.88 7.675-.18.209-.155.525.055.705.094.081.21.121.325.121.141 0 .28-.059.38-.175.043-.05.089-.116.135-.177.222 3.424-.269 9.818-1.015 10.352z"/></svg>