<svg xmlns="http://www.w3.org/2000/svg" viewBox="0 0 24 24"><path fill="#5c6671" d="M22.5 5h-.551c-.232-1.14-1.242-2-2.449-2h-14c-1.391 0-2.585.822-3.149 2H1.5C.673 5 0 5.673 0 6.5S.673 8 1.5 8H2v11c0 1.103.897 2 2 2h12c1.103 0 2-.897 2-2v-6h2c1.103 0 2-.897 2-2V8h.5c.827 0 1.5-.673 1.5-1.5S23.327 5 22.5 5zm-3-1c.651 0 1.201.419 1.408 1h-2.816c.207-.581.757-1 1.408-1zM3 16h14v1H3v-1zM5.5 4h12.001c-.314.418-.501.938-.501 1.5V15H3V6.5C3 5.122 4.122 4 5.5 4zm-4 3c-.276 0-.5-.224-.5-.5s.224-.5.5-.5h.551c-.024.165-.051.329-.051.5V7h-.5zM16 20H4c-.551 0-1-.449-1-1v-1h14v1c0 .551-.449 1-1 1zm5-9c0 .551-.449 1-1 1h-2V8h3v3zm1.5-4H18V6h4.5c.276 0 .5.224.5.5s-.224.5-.5.5z"/></svg>