<svg xmlns="http://www.w3.org/2000/svg" viewBox="0 0 24 24"><path fill="#5c6671" d="M23.5 18H21V5c0-1.103-.897-2-2-2H4.5C2.019 3 0 5.019 0 7.5v10c0 .827.673 1.5 1.5 1.5h2.684c.414 1.161 1.514 2 2.816 2s2.402-.838 2.816-2H21v1.5c0 .276.224.5.5.5s.5-.224.5-.5V19h1.5c.276 0 .5-.224.5-.5s-.224-.5-.5-.5zM18 10h2v8h-2v-8zM4.5 4H19c.552 0 1 .449 1 1v4h-2V7.5c0-.276-.224-.5-.5-.5h-5c-.276 0-.5.224-.5.5V9h-2V7.5c0-.276-.224-.5-.5-.5h-6c-.276 0-.5.224-.5.5V9H1V7.5C1 5.57 2.57 4 4.5 4zM4 8h5v3H4V8zm3 12c-1.103 0-2-.897-2-2s.897-2 2-2 2 .897 2 2-.897 2-2 2zm0-5c-1.654 0-3 1.346-3 3H1.5c-.275 0-.5-.224-.5-.5V10h2v1.5c0 .276.224.5.5.5h6c.276 0 .5-.224.5-.5V10h2v8h-2c0-1.654-1.346-3-3-3zm6 3V8h4v10h-4z"/></svg>