<svg xmlns="http://www.w3.org/2000/svg" viewBox="0 0 18 24"><path fill="#5c6671" d="M4.5 13c-.827 0-1.5.673-1.5 1.5S3.673 16 4.5 16 6 15.327 6 14.5 5.327 13 4.5 13zm0 2c-.276 0-.5-.224-.5-.5s.224-.5.5-.5.5.224.5.5-.224.5-.5.5zm9-2c-.827 0-1.5.673-1.5 1.5s.673 1.5 1.5 1.5 1.5-.673 1.5-1.5-.673-1.5-1.5-1.5zm0 2c-.276 0-.5-.224-.5-.5s.224-.5.5-.5.5.224.5.5-.224.5-.5.5zm-2.5-.5c0 .276-.224.5-.5.5h-3c-.276 0-.5-.224-.5-.5s.224-.5.5-.5h3c.276 0 .5.224.5.5zm7 1v-12C18 1.57 16.43 0 14.5 0h-11C1.57 0 0 1.57 0 3.5v12c0 1.646 1.147 3.022 2.681 3.393l-2.61 4.35c-.142.237-.065.544.171.686.073.045.162.071.257.071.17 0 .335-.086.429-.243l.467-.778c.035.008.067.021.104.021h15c.037 0 .07-.013.104-.021l.467.778c.094.156.259.243.429.243.095 0 .184-.027.259-.073.235-.141.311-.448.169-.685l-2.61-4.35c1.534-.371 2.681-1.747 2.681-3.393zM14.217 19l.6 1H3.183l.6-1h10.434zM1.983 22l.6-1h12.834l.6 1H1.983zM14.5 18h-11C2.122 18 1 16.878 1 15.5v-12C1 2.122 2.122 1 3.5 1h11C15.878 1 17 2.122 17 3.5v12c0 1.378-1.122 2.5-2.5 2.5zM4 4c.551 0 1-.449 1-1s-.449-1-1-1-1 .449-1 1 .449 1 1 1zm.5-1H4v-.001L4.5 3zM14 2c-.551 0-1 .449-1 1s.449 1 1 1 1-.449 1-1-.449-1-1-1zm.001 1v-.001l.5.001h-.499zm.499 2h-11c-.276 0-.5.224-.5.5v5C3 11.854 7.196 12 9 12s6-.146 6-1.5v-5c0-.276-.224-.5-.5-.5zm-.5 5.37c-.39.242-2.092.63-5 .63s-4.61-.389-5-.63V6h10v4.37z"/></svg>