<svg xmlns="http://www.w3.org/2000/svg" viewBox="0 0 24 24"><path fill="#5c6671" d="M22.331 11.155c-.485-.166-.961-.493-1.499-1.031l-3.807-3.807c-.85-.85-1.98-1.318-3.183-1.318h-1.843v-1.5c0-.276-.224-.5-.5-.5h-9.5c-1.103 0-2 .897-2 2v12.5c0 .827.673 1.5 1.5 1.5h1.184c.414 1.161 1.514 2 2.816 2s2.402-.838 2.816-2h7.369c.414 1.161 1.514 2 2.816 2s2.402-.838 2.816-2H22c1.103 0 2-.897 2-2v-3.496c0-1.064-.671-2.008-1.669-2.349zM5.5 20c-1.103 0-2-.897-2-2s.897-2 2-2 2 .897 2 2-.897 2-2 2zm13 0c-1.103 0-2-.897-2-2s.897-2 2-2 2 .897 2 2-.897 2-2 2zm4.5-3c0 .551-.448 1-1 1h-.5c0-1.654-1.346-3-3-3s-3 1.346-3 3h-7c0-1.654-1.346-3-3-3s-3 1.346-3 3h-1c-.275 0-.5-.224-.5-.5V5c0-.551.448-1 1-1h9v1.5c0 .276.224.5.5.5h2.343c.936 0 1.814.364 2.476 1.025l3.807 3.807c.649.65 1.248 1.053 1.883 1.27.594.203.992.766.992 1.402V17zm-4-5.5c0 .276-.224.5-.5.5h-7c-.276 0-.5-.224-.5-.5v-4c0-.276.224-.5.5-.5s.5.224.5.5V11h6.5c.276 0 .5.224.5.5z"/></svg>