<svg xmlns="http://www.w3.org/2000/svg" viewBox="0 0 18 24"><path fill="#5c6671" d="M16 2h-4c0-1.103-.897-2-2-2H8C6.897 0 6 .897 6 2H2C.897 2 0 2.897 0 4v1.5c0 .276.224.5.5.5H1v16c0 1.103.897 2 2 2h12c1.103 0 2-.897 2-2V6h.5c.276 0 .5-.224.5-.5V4c0-1.103-.897-2-2-2zM8 1h2c.551 0 1 .448 1 1H7c0-.552.449-1 1-1zm8 21c0 .552-.449 1-1 1H3c-.551 0-1-.448-1-1V6h14v16zm1-17H1V4c0-.552.449-1 1-1h14c.551 0 1 .448 1 1v1zM7 20.5v-12c0-.276.224-.5.5-.5s.5.224.5.5v12c0 .276-.224.5-.5.5s-.5-.224-.5-.5zm3 0v-12c0-.276.224-.5.5-.5s.5.224.5.5v12c0 .276-.224.5-.5.5s-.5-.224-.5-.5zm3 0v-12c0-.276.224-.5.5-.5s.5.224.5.5v12c0 .276-.224.5-.5.5s-.5-.224-.5-.5zm-9 0v-12c0-.276.224-.5.5-.5s.5.224.5.5v12c0 .276-.224.5-.5.5s-.5-.224-.5-.5z"/></svg>