<svg xmlns="http://www.w3.org/2000/svg" viewBox="0 0 18 24"><path fill="#5c6671" d="M17.636 19c-2.317-.656-4.932-4.704-6.088-6.675 1.06.294 2.63.656 3.952.656.234 0 .438-.163.488-.392s-.065-.462-.277-.561c-1.818-.846-3.759-3.747-4.697-5.293.659.125 1.539.247 2.486.247.253 0 .467-.19.497-.442s-.134-.486-.381-.544c-.679-.162-2.698-3.115-4.18-5.758-.177-.315-.695-.315-.872 0-1.482 2.644-3.501 5.597-4.18 5.758-.247.059-.411.293-.381.544s.243.442.497.442c.947 0 1.828-.121 2.486-.247-.938 1.547-2.877 4.447-4.697 5.293-.212.099-.328.332-.277.561s.254.392.488.392c1.325 0 2.898-.363 3.958-.658C5.11 14.622 2.521 18.389.363 19c-.24.068-.394.302-.359.55s.246.431.495.431c1.583 0 5.09-.629 6.5-.895v4.395c0 .276.224.5.5.5h3c.276 0 .5-.224.5-.5v-4.395c1.41.266 4.917.895 6.5.895.25 0 .461-.184.495-.431s-.119-.482-.359-.55zm-7.039-1.01c-.145-.028-.298.009-.414.104s-.183.237-.183.386v4.5H8v-4.5c0-.149-.067-.291-.183-.386s-.27-.133-.414-.104c-.036.007-2.587.509-4.723.795 2.742-2.288 5.139-6.835 5.263-7.073.095-.182.069-.403-.065-.558s-.351-.213-.542-.146c-.02.007-1.45.5-3 .781 2.175-2 4.01-5.396 4.105-5.573.096-.179.074-.397-.055-.554s-.339-.22-.533-.161c-.011.003-.779.235-1.845.375C7.083 4.661 8.28 2.72 9 1.486c.72 1.234 1.917 3.175 2.992 4.39-1.066-.14-1.834-.372-1.845-.375-.193-.059-.404.004-.533.161s-.15.375-.055.554c.095.177 1.93 3.572 4.104 5.572-1.549-.281-2.979-.774-3-.781-.193-.067-.409-.011-.542.146s-.16.376-.065.558c.125.238 2.521 4.786 5.263 7.073-2.136-.287-4.687-.788-4.723-.795z"/></svg>