<svg xmlns="http://www.w3.org/2000/svg" viewBox="0 0 18 24"><path fill="#5c6671" d="M17 6c0-1.126-.792-3.1-1-3.601V1.5c0-.827-.673-1.5-1.5-1.5h-11C2.673 0 2 .673 2 1.5v.899C1.792 2.9 1 4.874 1 6S.011 21.818 0 22c0 1.103.897 2 2 2h4c.958 0 1.771-.673 1.957-1.608.008-.025.013-.052.017-.078L9 14.393l1.026 7.921c.004.029.01.054.017.079.184.933.999 1.608 1.957 1.608h4c1.103 0 2-.897 1.999-2.034-.01-.148-.999-14.84-.999-15.966zm-1.835-3c.229.573.567 1.509.734 2.266-.623-.427-1.228-1.39-1.639-2.266h.905zM15 1.5V2h-2V1h1.5c.276 0 .5.224.5.5zM9 2V1h3v1H9zM8 2H6V1h2v1zM3.5 1H5v1H3v-.5c0-.276.224-.5.5-.5zm-.665 2h.902c-.392.825-1.001 1.818-1.635 2.26.167-.756.505-1.689.733-2.26zM16 23h-4c-.487 0-.899-.35-.982-.832-.001-.011-.004-.022-.007-.034L9.496 10.435c-.033-.249-.245-.436-.496-.436s-.463.187-.496.436L6.989 22.133c-.002.009-.005.02-.007.032-.082.484-.495.834-.982.834H2c-.551 0-1-.449-1.001-.966.038-.565.873-12.969.988-15.611C3.437 6.006 4.475 3.861 4.838 3H8v4.5C8 8.327 8.673 9 9.5 9c.276 0 .5-.224.5-.5S9.776 8 9.5 8 9 7.776 9 7.5V3h4.162c.363.862 1.402 3.007 2.851 3.422.115 2.642.95 15.044.987 15.578 0 .551-.449 1-1 1z"/></svg>