<svg xmlns="http://www.w3.org/2000/svg" viewBox="0 0 24 24"><path fill="#5c6671" d="M23.893 2.364c-.169-1.18-1.076-2.086-2.256-2.257C21.141.036 20.591 0 20.001 0c-2.319 0-5.604 1.174-7.322 2.617-1.705 1.433-7.005 6.004-7.005 6.004-.105.091-.168.221-.173.36s.048.274.146.372l3.646 3.646-.793.793-.146-.146c-.178-.179-.46-.196-.659-.042l-6.623 5.102c-.032.024-.061.053-.085.084C.359 19.362 0 20.162 0 21c0 1.654 1.346 3 3 3 .829 0 1.622-.351 2.192-.967.038-.028.071-.061.099-.097l5.105-6.631c.153-.199.135-.481-.042-.659l-.146-.146.793-.793 3.646 3.646c.09.09.215.146.354.146h.019c.139-.005.269-.068.36-.173 0 0 4.572-5.3 6.004-7.005 1.443-1.718 2.617-5.003 2.617-7.322 0-.59-.036-1.14-.107-1.636zM4.563 22.242c-.02.017-.037.035-.054.054C4.124 22.744 3.574 23 3 23c-1.103 0-2-.897-2-2 0-.576.258-1.127.708-1.513.016-.014.031-.029.045-.044l6.203-4.779 1.379 1.379-4.773 6.199zM9.207 14.5l5.146-5.146c.069-.069.224-.069.293 0s.069.224 0 .293L9.5 14.793l-.293-.293zm11.41-3.822c-1.19 1.416-4.547 5.315-5.645 6.587l-3.266-3.266 3.646-3.646c.115-.115.203-.25.263-.397.04-.098.047-.202.06-.306.007-.051.03-.098.03-.151s-.023-.099-.03-.151c-.013-.103-.021-.208-.06-.306-.06-.147-.148-.282-.263-.397-.471-.471-1.236-.471-1.707 0l-3.646 3.647-3.266-3.266c1.272-1.097 5.171-4.455 6.587-5.645C14.858 2.089 17.916.998 19.998.998c.542 0 1.045.033 1.494.098.737.106 1.303.672 1.409 1.408.065.449.098.951.098 1.494 0 2.083-1.091 5.141-2.383 6.678z"/></svg>