<svg xmlns="http://www.w3.org/2000/svg" viewBox="0 0 18 24"><path fill="#5c6671" d="M17.507 11.995c-3.542 0-6.524 3.021-8.003 6.654v-5.704c2.52-.255 4.502-2.365 4.502-4.951V1.492c0-.202-.122-.385-.309-.462-.187-.079-.402-.035-.545.108l-1.613 1.613-2.15-2.58c-.19-.228-.578-.228-.769 0l-2.15 2.58-1.613-1.613c-.143-.143-.358-.186-.545-.108s-.309.26-.309.462v6.502c0 2.587 1.981 4.696 4.502 4.951v5.704c-1.479-3.634-4.461-6.654-8.003-6.654-.276 0-.5.224-.5.5 0 5.556 3.618 11.504 9.003 11.504s9.003-5.949 9.003-11.504c0-.276-.224-.5-.5-.5zm-4.502-4.001c0 .393-.057.772-.163 1.131L9.71 5.993l3.294-3.294v5.295zM9.003 1.273l1.824 2.189-1.824 1.824-1.824-1.824 1.824-2.189zM5.002 7.994V2.699l7.402 7.402c-.707 1.136-1.967 1.894-3.401 1.894-2.206 0-4.002-1.795-4.002-4.002zm-3.989 5.027c4.034.403 7.24 5.498 7.476 9.956-4.277-.37-7.264-5.315-7.476-9.956zm8.505 9.957c.236-4.459 3.442-9.553 7.476-9.956-.212 4.641-3.199 9.586-7.476 9.956z"/></svg>