<svg xmlns="http://www.w3.org/2000/svg" viewBox="0 0 24 24"><path fill="#5c6671" d="M22 3H2C.897 3 0 3.897 0 5v11c0 1.103.897 2 2 2h6.996c-.033.505-.165 1.209-.555 1.626-.234.252-.543.374-.941.374-.276 0-.5.224-.5.5s.224.5.5.5h9c.276 0 .5-.224.5-.5s-.224-.5-.5-.5c-.397 0-.705-.122-.939-.372-.388-.414-.521-1.121-.555-1.628h6.995c1.103 0 2-.897 2-2V5c0-1.103-.897-2-2-2zm-7.415 17h-5.17c.432-.651.552-1.471.581-2h4.007c.029.529.149 1.349.581 2zM23 16c0 .551-.448 1-1 1H2c-.552 0-1-.449-1-1V5c0-.551.448-1 1-1h20c.552 0 1 .449 1 1v11z"/></svg>