<svg xmlns="http://www.w3.org/2000/svg" viewBox="0 0 24 24"><path fill="#5c6671" d="M12 0C5.383 0 0 5.384 0 12.001c0 .276.224.5.5.5s.5-.224.5-.5c0-1.084 1.526-2 3.333-2s3.334.916 3.334 2v.002c0 .039.014.073.022.11.007.028.006.058.017.084.012.028.033.049.05.073.019.029.033.061.058.085.015.014.035.022.051.034.034.027.067.055.108.073.057.025.124.039.193.039h.003c.036 0 .067-.014.101-.021.031-.007.064-.007.092-.019.032-.014.057-.038.086-.058.024-.017.052-.029.073-.05.022-.022.035-.052.053-.078s.041-.05.054-.081c.012-.03.013-.064.019-.096s.02-.063.02-.098c0-.982 1.255-1.818 2.833-1.969V21.88c0 .617-.502 1.118-1.118 1.118h-.265c-.616 0-1.118-.501-1.118-1.118 0-.172.041-.346.118-.5.123-.247.023-.547-.224-.671-.246-.121-.547-.024-.671.224-.146.292-.224.62-.224.947 0 1.168.95 2.118 2.118 2.118h.265c1.168 0 2.118-.95 2.118-2.118V10.031c1.578.151 2.833.987 2.833 1.969 0 .038.014.071.021.106.006.029.006.06.018.087.014.032.038.057.057.086.017.024.029.052.049.073s.051.034.076.052c.027.019.051.042.082.055.029.012.063.013.094.019.033.007.064.02.1.02h.003c.07 0 .136-.014.197-.04.037-.016.07-.045.105-.071.016-.013.036-.02.051-.034.024-.024.039-.056.058-.085.016-.025.038-.046.05-.073.011-.026.011-.056.017-.084.009-.036.022-.071.022-.11v-.002c0-1.084 1.526-2 3.334-2s3.333.916 3.333 2c0 .276.224.5.5.5s.5-.224.5-.5c0-6.617-5.383-12.001-12-12.001zM4.333 9.001c-1.244 0-2.351.346-3.134.909.845-4.373 4.291-7.825 8.655-8.693-1.541 2.064-1.997 6.399-2.131 8.905-.788-.685-2-1.121-3.391-1.121zm7.667 0c-1.321 0-2.481.393-3.269 1.019.168-2.854.721-7.055 2.181-8.519.316-.317.669-.48 1.024-.498.022 0 .043-.003.065-.003s.043.003.065.003c.355.018.707.181 1.024.498 1.46 1.465 2.013 5.666 2.181 8.519-.789-.626-1.948-1.019-3.269-1.019zm7.667 0c-1.391 0-2.603.436-3.391 1.121-.133-2.506-.589-6.842-2.131-8.905 4.365.867 7.81 4.32 8.655 8.693-.783-.563-1.89-.909-3.134-.909z"/></svg>