<svg xmlns="http://www.w3.org/2000/svg" viewBox="0 0 24 24"><path fill="#5c6671" d="M23.911 17.925L22 6.459V5c0-1.103-.897-2-2-2H4c-1.103 0-2 .897-2 2v1.459L.089 17.925C.03 18.279 0 18.64 0 19c0 1.103.897 2 2 2h7.307c.937 0 1.738-.637 1.946-1.539L12 16.526l.744 2.923c.211.913 1.013 1.55 1.949 1.55H22c1.103 0 2-.897 2-2 0-.36-.03-.722-.089-1.075zM3 5c0-.551.448-1 1-1h16c.552 0 1 .449 1 1v1H3V5zm19 15h-7.307c-.469 0-.869-.319-.978-.786l-1.09-4.282c1.355-.289 2.374-1.493 2.374-2.932 0-.276-.224-.5-.5-.5s-.5.224-.5.5c0 1.103-.897 2-2 2s-2-.897-2-2c0-.276-.224-.5-.5-.5s-.5.224-.5.5c0 1.439 1.02 2.643 2.374 2.932l-1.093 4.293c-.105.456-.506.775-.975.775H1.998c-.552 0-1-.449-1-1 0-.305.025-.611.075-.911L2.921 7h18.153l1.848 11.089c.05.3.075.606.075.911 0 .551-.448 1-1 1z"/></svg>