<svg xmlns="http://www.w3.org/2000/svg" viewBox="0 0 24 24"><path fill="#5c6671" d="M22.032 3H1.968C.883 3 0 3.897 0 5s.883 2 1.968 2c4.359 0 7.039 7.463 7.704 12.168C9.822 20.23 10.698 21 11.755 21s1.934-.771 2.084-1.832C14.504 14.463 17.184 7 21.543 7h.489C23.117 7 24 6.103 24 5s-.883-2-1.968-2zm0 3h-.489c-5.622 0-8.183 9.404-8.694 13.028-.079.563-.54.972-1.094.972s-1.014-.409-1.093-.972C10.15 15.404 7.59 6 1.968 6 1.435 6 1 5.551 1 5s.435-1 .968-1h20.064c.533 0 .968.449.968 1s-.435 1-.968 1zm-8.808-1c-.46 0-1.053.21-1.469.563C11.339 5.211 10.747 5 10.287 5c-.815 0-1.479.673-1.479 1.5S9.471 8 10.287 8c.06 0 .126-.01.19-.017-.251.664-.208 1.441-.2 1.553.02.263.238.464.498.464h.001c.012 0 .025-.001.037-.002.274-.019.482-.259.462-.534-.022-.314.016-1.099.277-1.379.113-.123.29-.123.405 0 .238.255.306.96.277 1.38-.019.275.189.514.464.533.288.01.514-.188.534-.463.007-.112.05-.889-.201-1.553.064.007.13.017.191.017.815 0 1.479-.673 1.479-1.5s-.663-1.5-1.479-1.5zM9.809 6.5c0-.276.215-.5.479-.5.4 0 .956.343.968.5-.012.157-.567.5-.968.5-.264 0-.479-.224-.479-.5zm3.415.5c-.399 0-.957-.343-.969-.5.012-.157.569-.5.969-.5.264 0 .479.224.479.5s-.215.5-.479.5z"/></svg>