<svg xmlns="http://www.w3.org/2000/svg" viewBox="0 0 14 24"><path fill="#5c6671" d="M13.512 5.984H9.508c-.277 0-.5.224-.5.5v4.004c0 .277.224.5.5.5h1.501v1.351c0 .198-.116.377-.297.457l-3.206 1.425V4.982h1.501c.552 0 1.001-.449 1.001-1.001 0-.251-.093-.487-.262-.672L7.837.431c-.015-.022-.031-.043-.05-.063-.381-.493-1.183-.492-1.564 0-.019.02-.034.041-.05.063L4.266 3.306c-.17.186-.264.423-.264.675 0 .552.449 1.001 1.001 1.001h1.501v11.741l-3.206-1.425c-.181-.08-.297-.26-.297-.457v-1.902c1.141-.232 2.002-1.243 2.002-2.452 0-1.38-1.122-2.502-2.502-2.502S-.001 9.108-.001 10.487c0 1.208.861 2.219 2.002 2.452v1.902c0 .593.35 1.131.891 1.372l3.613 1.605v1.227c-1.141.232-2.002 1.243-2.002 2.452 0 1.38 1.122 2.502 2.502 2.502s2.502-1.123 2.502-2.502c0-1.208-.861-2.219-2.002-2.452v-1.542-2.187l3.613-1.605c.541-.241.891-.78.891-1.372v-1.351h1.501c.277 0 .5-.224.5-.5V6.484c0-.277-.224-.5-.5-.5zM5.077 3.897L7.005.992c.01.015.021.029.033.043l1.898 2.863c.021.03.046.058.072.084l-4-.003c.025-.024.049-.052.068-.082zm-4.076 6.591c0-.828.673-1.501 1.501-1.501s1.501.673 1.501 1.501-.673 1.501-1.501 1.501-1.501-.673-1.501-1.501zm7.507 11.01c0 .828-.673 1.501-1.501 1.501s-1.501-.673-1.501-1.501.673-1.501 1.501-1.501 1.501.673 1.501 1.501zm4.504-11.511h-3.003V6.984h3.003v3.003z"/></svg>