<svg xmlns="http://www.w3.org/2000/svg" viewBox="0 0 24 24"><path fill="#5c6671" d="M23.5 14H17v-.5c0-.276-.224-.5-.5-.5H9V.5c0-.276-.224-.5-.5-.5h-6c-.276 0-.5.224-.5.5V13c-1.103 0-2 .897-2 2v7c0 1.103.897 2 2 2h14.5c.276 0 .5-.224.5-.5V23h6.5c.276 0 .5-.224.5-.5v-8c0-.276-.224-.5-.5-.5zM3 1h5v17.5C8 19.878 6.879 21 5.5 21S3 19.878 3 18.5V1zm13 22H2c-.552 0-1-.449-1-1v-7c0-.551.448-1 1-1v4.5C2 20.43 3.57 22 5.5 22S9 20.43 9 18.5V14h7v9zm7-1h-6v-7h6v7zm-3-4.5v-1c0-.276.224-.5.5-.5h1c.276 0 .5.224.5.5v1c0 .276-.224.5-.5.5h-1c-.276 0-.5-.224-.5-.5zm0 3v-1c0-.276.224-.5.5-.5h1c.276 0 .5.224.5.5v1c0 .276-.224.5-.5.5h-1c-.276 0-.5-.224-.5-.5zM5.5 20c.827 0 1.5-.673 1.5-1.5S6.327 17 5.5 17 4 17.673 4 18.5 4.673 20 5.5 20zm0-2c.275 0 .5.224.5.5s-.225.5-.5.5-.5-.224-.5-.5.225-.5.5-.5zM4 14.5v-12c0-.276.224-.5.5-.5s.5.224.5.5v12c0 .276-.224.5-.5.5s-.5-.224-.5-.5zm2 0v-12c0-.276.224-.5.5-.5s.5.224.5.5v12c0 .276-.224.5-.5.5s-.5-.224-.5-.5z"/></svg>