<svg xmlns="http://www.w3.org/2000/svg" viewBox="0 0 24 24"><path fill="#5c6671" d="M23.854 6.146l-6-6c-.195-.195-.512-.195-.707 0l-4.646 4.646-.646-.646c-.195-.195-.512-.195-.707 0L6.562 8.732C5.555 9.738 5.001 11.077 5.001 12.5c0 .109.025.212.031.319l-3.478 6.957c-.097.192-.059.425.094.577l.146.146-1.646 1.646c-.195.195-.195.512 0 .707.098.098.226.146.354.146s.256-.049.354-.146l1.646-1.646.293.293-1.646 1.646c-.195.195-.195.512 0 .707.098.098.226.146.354.146s.256-.049.354-.146l1.646-1.646.146.146c.096.096.224.146.354.146h.001c.081 0 .158-.019.226-.054l6.954-3.477c.107.006.211.031.319.031 1.423 0 2.761-.554 3.768-1.561l4.586-4.586c.195-.195.195-.512 0-.707l-.646-.646 4.646-4.646c.195-.195.195-.512 0-.707zM6.099 20.392l-2.49-2.49.529-1.057 3.019 3.019-1.057.529zm-2 1l-1.49-1.49.529-1.057 2.019 2.019-1.057.529zm4-2l-3.49-3.49.751-1.503c.264.692.661 1.33 1.201 1.869l1.172 1.172c.539.539 1.178.937 1.869 1.201l-1.503.752zm6.462-2.66C13.744 17.549 12.657 18 11.5 18s-2.243-.45-3.061-1.268L7.267 15.56c-.817-.817-1.268-1.904-1.268-3.061s.45-2.243 1.268-3.061l4.232-4.232 7.293 7.293-4.232 4.232zm3.939-5.939L13.207 5.5 17.5 1.207 22.793 6.5 18.5 10.793zm-2.358-6.642c-.195.195-.195.512 0 .707l1 1c.098.098.226.146.354.146s.256-.049.354-.146l1-1c.195-.195.195-.512 0-.707l-.917-.917c-.022-.035-.046-.065-.073-.092-.195-.195-.512-.195-.707 0l-1.01 1.01zm1.353.061l.293.293-.293.293-.293-.293.293-.293zm.651 2.642l1 1c.098.098.226.146.354.146s.256-.049.354-.146l1-1c.195-.195.195-.512 0-.707l-1-1c-.195-.195-.512-.195-.707 0l-1 1c-.195.195-.195.512 0 .707zm1.354-.647l.293.293-.293.293-.293-.293.293-.293zm-8.086 2.48c-.933-.232-1.738-.069-2.268.46-1.039 1.04-.6 3.107 1 4.707.73.731 1.598 1.25 2.439 1.46.277.069.543.104.794.104.594 0 1.102-.191 1.474-.563 1.039-1.04.6-3.107-1-4.707-.73-.731-1.598-1.25-2.439-1.46zm2.732 5.459c-.365.366-.982.281-1.318.197-.669-.167-1.37-.592-1.975-1.197-1.265-1.265-1.542-2.75-1-3.293.207-.208.495-.27.767-.27.208 0 .406.037.552.073.669.167 1.37.592 1.975 1.197 1.265 1.265 1.542 2.75 1 3.293z"/></svg>