<svg xmlns="http://www.w3.org/2000/svg" viewBox="0 0 24 24"><path fill="#5c6671" d="M21.007 17.582c-2.399-.691-4.539-2.041-5.086-2.402l-.367-1.099c.952-1.153 1.597-2.674 1.758-4.128.43-.664.688-1.882.688-2.286 0-.19-.034-.775-.425-1.207l.002-.022c.124-1.738-.465-3.444-1.614-4.68C14.907.624 13.501 0 11.997 0c-1.498 0-2.904.624-3.96 1.758-1.149 1.235-1.738 2.941-1.614 4.68l.002.022C6.034 6.892 6 7.477 6 7.667c0 .404.258 1.622.687 2.286.161 1.454.806 2.975 1.758 4.128l-.367 1.1c-.546.36-2.682 1.708-5.086 2.401-1.762.507-2.993 2.126-2.993 3.938v.98c0 .827.673 1.5 1.5 1.5h21c.827 0 1.5-.673 1.5-1.5v-.98c0-1.812-1.231-3.431-2.993-3.938zM7.567 9.467C7.255 9.065 7 7.929 7 7.667c0-.215.07-.48.228-.591.144-.101.224-.27.212-.444l-.019-.265c-.104-1.463.387-2.895 1.349-3.928C9.634 1.511 10.781 1 12.004 1c1.217 0 2.362.511 3.227 1.439.962 1.033 1.453 2.464 1.349 3.928l-.019.265c-.012.175.068.344.212.444.157.11.228.376.228.591 0 .262-.255 1.397-.567 1.8-.059.076-.094.166-.103.262-.226 2.488-2.125 5.271-4.33 5.271s-4.104-2.783-4.33-5.271c-.009-.096-.044-.186-.103-.262zM23 22.5c0 .275-.225.5-.5.5h-21c-.275 0-.5-.225-.5-.5v-.98c0-1.39.912-2.586 2.271-2.977 2.935-.847 5.411-2.561 5.516-2.633.087-.062.153-.148.187-.248l.259-.778C10.037 15.57 10.982 16 12 16s1.963-.431 2.767-1.116l.258.775c.036.104.102.19.187.251.106.073 2.583 1.787 5.517 2.634 1.358.391 2.271 1.587 2.271 2.977v.98z"/></svg>