<svg xmlns="http://www.w3.org/2000/svg" viewBox="0 0 24 24"><path fill="#5c6671" d="M21.693 16c-1.819-.524-3.438-1.568-3.763-1.784l-.065-.082c.907-.135 1.629-.326 2.152-.573.178-.083.306-.255.303-.451s-.104-.365-.284-.443c-.004-.003-.471-.316-.471-1.774 0-.165.005-.358.01-.573.053-2.236.162-6.889-4.017-7.276-.359-.05-.771-.049-1.093-.003-1.059.098-1.911.51-2.566 1.192-.79-.788-1.809-1.231-2.903-1.231-1.144 0-2.217.477-3.021 1.341-.867.931-1.314 2.212-1.23 3.522-.198.242-.311.573-.311.934 0 .291.179 1.2.513 1.735.125 1.062.594 2.166 1.282 3.023l-.236.711c-.452.295-1.981 1.242-3.687 1.734-1.358.391-2.307 1.64-2.307 3.035v.725c0 .684.556 1.239 1.239 1.239h21.521c.684 0 1.239-.556 1.239-1.239v-.725c0-1.418-.927-2.638-2.307-3.036zM5.826 10.048c-.195-.252-.391-1.053-.392-1.251 0-.143.049-.283.112-.328.145-.102.226-.271.213-.447l-.015-.194c-.075-1.046.276-2.067.962-2.805.614-.659 1.428-1.022 2.296-1.022.862 0 1.676.363 2.29 1.022.087.093.152.202.227.304.112.148.218.315.311.49.028.056.043.094.061.131.078.162.146.328.199.5.026.087.042.177.063.267.031.132.064.263.081.398.027.235.038.473.02.713l-.015.195v.001c-.003.041.015.077.022.116.008.045.006.093.025.134.037.078.093.146.166.197.032.022.06.069.08.127s.032.13.032.201c-.001.198-.196.999-.392 1.251-.057.072-.094.162-.103.26-.021.237-.067.479-.132.721-.009.032-.022.064-.032.097-.064.219-.139.438-.233.651-.004.008-.008.016-.012.025-.214.477-.5.928-.836 1.302-.003.003-.003.007-.005.01-.52.578-1.151.974-1.82.974-1.537 0-2.912-2.03-3.07-3.777-.009-.1-.047-.19-.104-.263zm6.243 4.167c-.016.011-.044.029-.065.043l-.055-.165c.061.01.128.028.188.037l-.067.085zM1 19.761v-.725c0-.968.637-1.802 1.584-2.074 2.189-.632 4.037-1.911 4.115-1.965.087-.062.153-.148.187-.248l.137-.413c.585.457 1.253.751 1.976.751s1.391-.294 1.976-.751l.136.409c.036.104.102.19.187.251.035.024.409.278.982.605.048.028.095.054.146.083.088.049.178.097.274.149.088.047.181.095.275.143.084.043.163.084.251.127.18.088.368.175.564.262.068.03.139.059.21.088.153.065.309.127.469.188.079.03.156.059.237.088.204.073.411.142.623.205.029.009.057.02.086.028.71.204 1.246.725 1.47 1.38.074.219.114.452.114.694v.725c0 .132-.107.239-.239.239H1.239C1.107 20 1 19.893 1 19.761zm22 0c0 .132-.107.239-.239.239h-4.784c.016-.077.023-.157.023-.239v-.725c0-1.418-.927-2.638-2.307-3.036-.25-.072-.495-.156-.735-.244-.074-.027-.145-.056-.217-.084-.159-.062-.316-.125-.467-.191-.084-.036-.167-.073-.248-.11-.227-.101-.36-.166-.493-.233.019.006-.051-.027-.114-.059-.183-.094-.358-.187-.516-.275a.15054.15054 0 0 1-.017-.01l.586-.74c.114-.144.14-.338.068-.506-.071-.169-.23-.284-.411-.303-.361-.035-.711-.082-1.042-.137.121-.184.228-.374.328-.572-.003.009.009-.015.022-.039.101-.207.18-.379.248-.557.038-.096.069-.193.102-.29.043-.13.088-.258.122-.389.064-.243.114-.487.143-.729.334-.535.513-1.444.513-1.735 0-.36-.112-.691-.311-.935.018-.291.003-.579-.031-.864-.013-.115-.038-.226-.06-.34-.03-.157-.065-.311-.112-.464-.043-.148-.092-.292-.15-.434-.037-.09-.081-.176-.123-.264-.08-.168-.158-.336-.257-.493.5-.571 1.171-.889 2.06-.972.266-.038.534-.043.86.003 3.273.304 3.182 4.179 3.133 6.26-.005.224-.01.425-.01.597 0 .967.181 1.593.395 1.995-.547.157-1.254.279-2.088.359-.183.018-.341.134-.412.302-.025.058-.04.125-.04.196 0 .118.041.226.109.312l.666.842c.03.038.065.071.104.099.08.055 1.927 1.334 4.117 1.965.947.273 1.584 1.107 1.584 2.075v.725z"/></svg>