<svg xmlns="http://www.w3.org/2000/svg" viewBox="0 0 24 24"><path fill="#5c6671" d="M23.846 11.138l-11.5-11c-.193-.185-.498-.185-.691 0l-11.5 11c-.147.141-.194.358-.118.547s.26.314.464.314h1.5v10c0 1.103.897 2 2 2h16c1.103 0 2-.897 2-2v-10h1.5c.204 0 .388-.124.464-.314s.029-.406-.118-.547zM21.5 11c-.276 0-.5.224-.5.5V22c0 .551-.449 1-1 1H4c-.551 0-1-.449-1-1V11.5c0-.276-.224-.5-.5-.5h-.754L12 1.192 22.254 11H21.5zm-15 3.5c0 3.033 2.467 5.5 5.5 5.5s5.5-2.467 5.5-5.5S15.033 9 12 9s-5.5 2.467-5.5 5.5zm10 0c0 2.481-2.019 4.5-4.5 4.5s-4.5-2.019-4.5-4.5S9.519 10 12 10s4.5 2.019 4.5 4.5zM11 15.793l3.146-3.146c.195-.195.512-.195.707 0s.195.512 0 .707l-3.5 3.5c-.098.098-.226.146-.354.146s-.256-.049-.354-.146l-2-2c-.195-.195-.195-.512 0-.707s.512-.195.707 0l1.647 1.646z"/></svg>