<svg xmlns="http://www.w3.org/2000/svg" viewBox="0 0 24 24"><path fill="#5c6671" d="M19 17.5c0 .827.673 1.5 1.5 1.5s1.5-.673 1.5-1.5-.673-1.5-1.5-1.5-1.5.673-1.5 1.5zm2 0c0 .276-.225.5-.5.5s-.5-.225-.5-.5.225-.5.5-.5.5.224.5.5zm2.782-2.006c.141-.137.218-.314.218-.499 0-1.03-1.972-2-3.5-2-.856 0-1.392-1.557-1.542-2.196L17.3 6.998h.7c.23 0 .43-.156.485-.379l.5-2c.041-.166-.005-.342-.123-.466s-.292-.176-.46-.145l-1.557.311c-.22.044-.419.147-.589.287l-.285-.654c-.306-.71-1.074-1.09-1.82-.903-.422.105-.784.384-.994.766-.081.148-.129.309-.159.474l-1.4-.28c-.258-.055-.533.121-.588.392s.121.534.393.588l1.738.348 1.825 5.149-2.298 5.516H9.544c.127-.762.465-2.269 1.293-4.029.663-.13 1.164-.713 1.164-1.413v-.118c0-.795-.646-1.441-1.441-1.441H3.443c-.795 0-1.441.646-1.441 1.441v.118c0 .382.152.728.396.987-.533.291-1.024.684-1.446 1.204-.612.752-.95 1.73-.95 2.751 0 .67.445 1.233 1.052 1.425-.035.194-.052.385-.052.576 0 1.93 1.57 3.5 3.5 3.5s3.5-1.57 3.5-3.5c0-.166-.019-.332-.046-.5h5.046c.202 0 .384-.122.462-.308l2.146-5.152.377.549c.458.668.47 1.638.027 2.304-.278.421-.503.854-.668 1.288-.209.552-.134 1.19.195 1.667.286.414.72.651 1.191.651h.32c.245 1.692 1.691 3 3.449 3 1.93 0 3.5-1.57 3.5-3.5 0-.652-.184-1.276-.518-1.82.12-.054.226-.113.3-.185zM16.808 5.467c.03-.051.1-.141.234-.168l.781-.156-.214.855h-.497c-.15 0-.283-.096-.333-.246-.044-.13-.001-.235.028-.286zM3.441 10.999c-.243 0-.441-.198-.441-.441v-.118c0-.243.198-.441.441-.441h7.117c.243 0 .441.198.441.441v.118c0 .243-.198.441-.441.441H3.441zm-1.715 2.379c.744-.915 1.677-1.379 2.774-1.379h5.225c-.782 1.79-1.09 3.283-1.198 4.001H1.5c-.275 0-.5-.225-.5-.5 0-.792.258-1.545.726-2.121zM5 17.5c0 .276-.225.5-.5.5s-.5-.225-.5-.5.225-.5.5-.5.5.224.5.5zm2 0C7 18.879 5.879 20 4.5 20S2 18.878 2 17.5c0-.163.019-.329.058-.5h1.034c-.056.157-.092.324-.092.5 0 .827.673 1.5 1.5 1.5S6 18.327 6 17.5c0-.176-.036-.343-.092-.5h1.034c.039.171.058.337.058.5zm9.361-.72c-.113-.165-.195-.447-.082-.745.138-.364.328-.731.566-1.089.669-1.008.653-2.416-.037-3.422l-.859-1.254-1.714-4.839c.126-.068.225-.184.255-.335.055-.271-.121-.534-.393-.588l-.121-.024c.01-.065.025-.129.058-.188.077-.14.204-.238.359-.277.269-.066.55.07.661.33l2.957 6.757c.025.118.648 2.89 2.488 2.89 1.043 0 2.046.526 2.385.849-.447.11-1.433.18-2.385.151-1.659 0-3.093.876-3.427 2.004h-.343c-.188 0-.312-.138-.369-.22zM23 17.5c0 1.379-1.121 2.5-2.5 2.5S18 18.878 18 17.5c0-.71 1.069-1.504 2.486-1.504.533.014 1.28.01 1.943-.068.363.445.571.992.571 1.573z"/></svg>