<svg xmlns="http://www.w3.org/2000/svg" viewBox="0 0 24 24"><path fill="#5c6671" d="M23.792 6.094c-.131-.094-.299-.121-.451-.068l-6 2c-.204.068-.342.259-.342.474V9H.499c-.276 0-.5.224-.5.5v1c0 .138.056.263.146.353l.854.854V13.5c0 .276.224.5.5.5h1.5v1c0 .827.673 1.5 1.5 1.5h2.5v.577c-.6.159-1.102.582-1.341 1.18l-1.623 4.057c-.022.055-.036.119-.036.186v1c0 .276.224.5.5.5s.5-.224.5-.5v-.904l1.587-3.968c.152-.382.517-.628.928-.628h1.484v5.5c0 .276.224.5.5.5s.5-.224.5-.5V18h1.484c.411 0 .776.247.928.628l1.587 3.968v.904c0 .276.224.5.5.5s.5-.224.5-.5v-1c0-.067-.013-.131-.037-.189l-1.622-4.054c-.239-.598-.741-1.021-1.341-1.18V16.5h2.5c.827 0 1.5-.673 1.5-1.5v-.5h1c0 .215.138.406.342.474l6 2c.052.018.105.026.158.026.11 0 .211-.035.294-.095.125-.091.206-.238.206-.405v-10c0-.166-.081-.314-.206-.405zM2 13v-1.5c0-.138-.056-.263-.146-.353L1 10.293V10h2v3H2zm9 4H8v-.5h3v.5zm4-2c0 .276-.224.5-.5.5h-10c-.276 0-.5-.224-.5-.5v-5h11v5zm1-1.5V10h1v3.5h-1zm7 2.306l-5-1.667V8.86l5-1.666v8.612zM9.5 6.518C10.243 7.983 11.748 9 13.5 9 15.981 9 18 6.981 18 4.5S15.981 0 13.5 0c-1.752 0-3.257 1.016-4 2.482C8.757 1.017 7.252 0 5.5 0 3.019 0 1 2.019 1 4.5S3.019 9 5.5 9c1.752 0 3.257-1.016 4-2.482zM13.5 1C15.43 1 17 2.57 17 4.5S15.43 8 13.5 8 10 6.43 10 4.5 11.57 1 13.5 1zm-8 7C3.57 8 2 6.43 2 4.5S3.57 1 5.5 1 9 2.57 9 4.5 7.43 8 5.5 8zm0-5C4.673 3 4 3.673 4 4.5S4.673 6 5.5 6 7 5.327 7 4.5 6.327 3 5.5 3zm0 2c-.276 0-.5-.224-.5-.5s.224-.5.5-.5.5.224.5.5-.224.5-.5.5zm8 1c.827 0 1.5-.673 1.5-1.5S14.327 3 13.5 3 12 3.673 12 4.5 12.673 6 13.5 6zm0-2c.276 0 .5.224.5.5s-.224.5-.5.5-.5-.224-.5-.5.224-.5.5-.5z"/></svg>