<svg xmlns="http://www.w3.org/2000/svg" viewBox="0 0 24 24"><path fill="#5c6671" d="M23.747 11.065c-.157-.089-.349-.086-.504.006L19 13.616v-.617c0-1.103-.897-2-2-2H2c-1.103 0-2 .897-2 2v9c0 1.103.897 2 2 2h15c1.103 0 2-.897 2-2v-.617l4.243 2.545c.073.045.162.071.257.071.276 0 .5-.224.5-.5v-12c0-.185-.101-.347-.251-.434zM23 22.617l-4.243-2.545c-.155-.093-.347-.095-.504-.006s-.253.255-.253.435v1.5c0 .551-.449 1-1 1H2c-.551 0-1-.449-1-1v-9c0-.551.449-1 1-1h15c.551 0 1 .449 1 1v1.5c0 .185.101.347.251.434.159.091.352.088.506-.005L23 12.385v10.233zM4.5 9C6.981 9 9 6.981 9 4.5S6.981 0 4.5 0 0 2.019 0 4.5 2.019 9 4.5 9zm0-8C6.43 1 8 2.57 8 4.5S6.43 8 4.5 8 1 6.43 1 4.5 2.57 1 4.5 1zm10 8C16.981 9 19 6.981 19 4.5S16.981 0 14.5 0 10 2.019 10 4.5 12.019 9 14.5 9zm0-8C16.43 1 18 2.57 18 4.5S16.43 8 14.5 8 11 6.43 11 4.5 12.57 1 14.5 1z"/></svg>