<svg xmlns="http://www.w3.org/2000/svg" viewBox="0 0 24 24"><path fill="#5c6671" d="M23.5 5H21c0-1.103-.897-2-2-2H6.121c-.526 0-1.042.213-1.414.586L3.586 4.707C3.213 5.079 3 5.595 3 6.121v.685L.658 6.025c-.153-.052-.32-.026-.451.068s-.208.245-.208.406v5c0 .166.081.314.206.405.083.06.184.095.294.095.053 0 .106-.008.158-.026l2.342-.781v1.806c0 1.103.897 2 2 2h2v4c0 1.103.897 2 2 2h2.5c.276 0 .5-.224.5-.5v-1c0-.276-.224-.5-.5-.5-.138 0-.25-.112-.25-.25s.112-.25.25-.25c.276 0 .5-.224.5-.5s-.224-.5-.5-.5c-.138 0-.25-.112-.25-.25s.112-.25.25-.25c.276 0 .5-.224.5-.5s-.224-.5-.5-.5c-.138 0-.25-.112-.25-.25s.112-.25.25-.25c.276 0 .5-.224.5-.5h7c1.103 0 2-.897 2-2v-2h2.5c.276 0 .5-.224.5-.5v-5c0-.276-.224-.5-.5-.5zM1 10.806V7.194l2 .666v2.279l-2 .666zm9.5 5.694c-.157.209-.251.469-.251.75s.093.541.251.75c-.157.209-.251.469-.251.75 0 .512.309.952.75 1.146V20h-2c-.551 0-1-.449-1-1v-4h2.5c-.157.209-.251.469-.251.75s.093.541.251.75zM20 13c0 .551-.449 1-1 1H5c-.551 0-1-.449-1-1V6.121c0-.263.107-.521.293-.707l1.121-1.121C5.6 4.107 5.858 4 6.121 4H19c.551 0 1 .449 1 1v8zm3-3h-2V6h2v4zm-7-5c-1.103 0-2 .897-2 2s.897 2 2 2 2-.897 2-2-.897-2-2-2zm0 3c-.551 0-1-.449-1-1s.449-1 1-1 1 .449 1 1-.449 1-1 1zm2 2.5c0 .276-.224.5-.5.5h-6c-.276 0-.5-.224-.5-.5s.224-.5.5-.5h6c.276 0 .5.224.5.5zm0 2c0 .276-.224.5-.5.5h-5c-.276 0-.5-.224-.5-.5s.224-.5.5-.5h5c.276 0 .5.224.5.5zM7.854 5.146c.195.195.195.512 0 .707l-2 2c-.098.098-.226.146-.354.146s-.256-.049-.354-.146c-.195-.195-.195-.512 0-.707l2-2c.195-.195.512-.195.707 0z"/></svg>