<svg xmlns="http://www.w3.org/2000/svg" viewBox="0 0 24 24"><path fill="#5c6671" d="M9 5.407c0-1.938-1.57-3.516-3.5-3.516S2 3.468 2 5.407s1.57 3.515 3.5 3.515S9 7.345 9 5.407zM5.5 7.922C4.122 7.922 3 6.794 3 5.407s1.122-2.516 2.5-2.516S8 4.019 8 5.407c0 1.387-1.122 2.515-2.5 2.515zm11.946 1c1.93 0 3.5-1.577 3.5-3.515s-1.57-3.516-3.5-3.516-3.5 1.577-3.5 3.516 1.57 3.515 3.5 3.515zm0-6.03c1.378 0 2.5 1.128 2.5 2.516s-1.122 2.515-2.5 2.515-2.5-1.128-2.5-2.515c0-1.387 1.122-2.516 2.5-2.516zM23.5 14.944H21v-1.001c0-1.103-.897-2-2-2h-2.281l.97-.957c2.917-.115 5.256-2.529 5.256-5.488 0-3.032-2.455-5.499-5.473-5.499-1.644 0-3.117.735-4.121 1.892H9.647C8.643.735 7.17-.001 5.526-.001 2.508-.001.053 2.466.053 5.498c0 2.958 2.339 5.372 5.256 5.488l.97.957H3.998c-1.103 0-2 .897-2 2v.704l-1.275-.641c-.065-.033-.143-.053-.224-.053-.097 0-.188.028-.264.075-.146.09-.236.251-.236.425v5.026c0 .173.09.334.238.426.075.047.165.074.262.074.082 0 .159-.02.227-.055l1.273-.64v2.715c0 1.103.897 2 2 2h15c1.103 0 2-.897 2-2v-1.03h2.5c.276 0 .5-.224.5-.5v-5.026c0-.276-.224-.5-.5-.5zM17.473 1c2.466 0 4.473 2.018 4.473 4.499s-2.006 4.499-4.473 4.499S13 7.98 13 5.499 15.007 1 17.473 1zM1.054 5.499C1.054 3.019 3.06 1 5.527 1S10 3.018 10 5.499 7.993 9.998 5.527 9.998 1.054 7.98 1.054 5.499zm5.577 5.385C9.121 10.369 11 8.15 11 5.498c0-.943-.238-1.831-.656-2.607h2.312C12.238 3.667 12 4.555 12 5.498c0 2.652 1.878 4.871 4.369 5.386l-1.074 1.059h-7.59l-1.074-1.059zM1 18.668v-3.404l1 .503v2.399l-1 .503zM20 22c0 .551-.449 1-1 1H4c-.551 0-1-.449-1-1v-8.057c0-.551.449-1 1-1h15c.551 0 1 .449 1 1V22zm3-2.03h-2v-4.026h2v4.026zm-11.5-5.012h-6c-.276 0-.5.224-.5.5v5.026c0 .276.224.5.5.5h6c.276 0 .5-.224.5-.5v-5.026c0-.276-.224-.5-.5-.5zm-.5 5.026H6v-4.026h5v4.026zm2-4.023c0-.553.449-1.003 1-1.003s1 .45 1 1.003c0 .553-.449 1.002-1 1.002s-1-.45-1-1.002zm5 0c0 .553-.449 1.002-1 1.002s-1-.45-1-1.002c0-.553.449-1.003 1-1.003s1 .45 1 1.003zm-2 3.518c0 .276-.224.5-.5.5h-2c-.276 0-.5-.224-.5-.5s.224-.5.5-.5h2c.276 0 .5.224.5.5z"/></svg>