<svg xmlns="http://www.w3.org/2000/svg" viewBox="0 0 24 24"><path fill="#5c6671" d="M22 5H3V2.5c0-.276-.224-.5-.5-.5h-2c-.276 0-.5.224-.5.5s.224.5.5.5H2v2H.5c-.276 0-.5.224-.5.5v4c0 .276.224.5.5.5H2v4H.5c-.276 0-.5.224-.5.5v4c0 .276.224.5.5.5H2v2.5c0 .276.224.5.5.5s.5-.224.5-.5V19h2v1.5c0 .276.224.5.5.5h9c.276 0 .5-.224.5-.5V19h1v1.5c0 .276.224.5.5.5h5c.276 0 .5-.224.5-.5V19c1.103 0 2-.897 2-2V7c0-1.103-.897-2-2-2zM1 9V6h1v3H1zm0 6h1v3H1v-3zm13 5H6v-1h8v1zm7 0h-4v-1h4v1zm2-3c0 .551-.448 1-1 1H3V6h19c.552 0 1 .449 1 1v10zM17 7c-2.757 0-5 2.243-5 5s2.243 5 5 5 5-2.243 5-5-2.243-5-5-5zm0 9c-2.206 0-4-1.794-4-4s1.794-4 4-4 4 1.794 4 4-1.794 4-4 4zm-7.5-6H9v-.5c0-.276-.224-.5-.5-.5s-.5.224-.5.5v.5H7v-.5c0-.276-.224-.5-.5-.5s-.5.224-.5.5v.5h-.5c-.276 0-.5.224-.5.5v4c0 .276.224.5.5.5H6v.5c0 .276.224.5.5.5s.5-.224.5-.5V15h1v.5c0 .276.224.5.5.5s.5-.224.5-.5V15h.5c.276 0 .5-.224.5-.5v-4c0-.276-.224-.5-.5-.5zM9 14H6v-3h3v3z"/></svg>