<svg xmlns="http://www.w3.org/2000/svg" viewBox="0 0 24 24"><path fill="#5c6671" d="M23.612 6.012l-13-3c-.147-.032-.305.001-.424.096S10 3.347 10 3.499v2c0 .233.161.435.388.487l.612.141v1.954L.411 10.006c-.238.043-.411.25-.411.492v2c0 .154.07.291.179.383.091.076.205.117.321.117.03 0 .06-.002.089-.008L1 12.915v6.083c0 1.103.897 2 2 2h18c1.103 0 2-.897 2-2V8.896l.388.089c.037.008.075.013.112.013.118 0 .227-.041.312-.11.118-.094.188-.238.188-.39v-2c0-.233-.161-.435-.388-.487zM1 10.917l10-1.819v.984L1 11.9v-.983zm1 8.082v-6.265l9-1.636v8.901h-1v-5.5c0-.276-.224-.5-.5-.5h-6c-.276 0-.5.224-.5.5v5.5c-.551 0-1-.449-1-1zm2-2h5v.992c-2.896-.044-4.304-.043-5-.02v-.972zm5-1H4v-1h5v1zm-5 2.968c.87-.019 2.976-.005 5 .025V20H4v-1.033zm14 1.032h-2v-4h2v4zm4-1c0 .551-.449 1-1 1h-2v-4.5c0-.276-.224-.5-.5-.5h-3c-.276 0-.5.224-.5.5v4.5h-3V6.358l10 2.308v10.333zm1-11.128l-12-2.77v-.974l12 2.77v.974zm-7.5 5.128h3c.276 0 .5-.224.5-.5v-3c0-.276-.224-.5-.5-.5h-3c-.276 0-.5.224-.5.5v3c0 .276.224.5.5.5zm.5-3h2v2h-2v-2z"/></svg>