<svg xmlns="http://www.w3.org/2000/svg" viewBox="0 0 24 24"><path fill="#5c6671" d="M5.087 10.236c-.06-.02-.096-.077-.085-.135s.066-.101.13-.101l1.237.002h.005c.181.007.431.047.51.321 0 .001.001.003.001.006l.22.958c.013.056-.018.112-.074.136-.016.007-.035.011-.054.011h-.001c-.04 0-.079-.017-.105-.048-.413-.502-1.03-.899-1.785-1.15zm4.682-.171c-.024-.034-.066-.055-.11-.055H8.7c-.054 0-.103.031-.123.077l-1.122 2.644-.121-.403c-.002-.006-.004-.011-.006-.016-.177-.379-.653-.972-1.317-1.443-.045-.032-.108-.034-.155-.004s-.068.084-.052.134l.922 2.907c.016.052.068.087.126.087l1.062-.001c.053 0 .1-.029.121-.073l1.743-3.741c.018-.038.013-.081-.011-.115zm1.59-.058h-.912c-.064 0-.119.043-.13.101l-.692 3.748c-.007.035.004.072.029.099s.062.043.101.043h.912c.064 0 .119-.043.13-.101l.693-3.748c.006-.035-.004-.071-.029-.099s-.062-.043-.101-.043zm2.526.809h.035c.357 0 .609.075.768.131.037.013.078.01.112-.008s.058-.049.065-.085l.107-.578c.011-.06-.027-.118-.09-.136-.196-.058-.513-.127-.91-.127-1.125 0-1.915.522-1.921 1.269-.007.553.565.862.996 1.046.442.188.591.309.589.477-.003.258-.354.376-.68.376-.463 0-.712-.064-1.065-.2-.037-.014-.079-.012-.114.006s-.06.049-.066.086l-.113.609c-.011.058.026.116.086.135.311.101.745.163 1.161.167h.001c1.194 0 1.97-.516 1.979-1.315.005-.439-.299-.771-.952-1.044-.399-.179-.644-.298-.642-.48 0-.164.224-.329.654-.329zm4.216-.709l.896 3.746c.009.036-.001.074-.026.102s-.063.045-.103.045h-.824c-.062 0-.115-.04-.129-.096-.027-.116-.094-.396-.121-.502-.091 0-.471 0-.828-.001h-.018c-.15 0-.383-.001-.617-.001-.072.058-.147.238-.263.521-.019.047-.068.078-.123.078H15c-.045 0-.086-.021-.11-.055s-.028-.078-.01-.116l1.669-3.487c.111-.232.296-.331.618-.331h.805c.062 0 .115.04.129.095zm-.497 2.477l-.273-1.152-.08-.345-.627 1.497h.98zM24 5v14c0 1.103-.897 2-2 2H2c-1.103 0-2-.897-2-2V5c0-1.103.897-2 2-2h20c1.103 0 2 .897 2 2zm-1 0c0-.551-.448-1-1-1H2c-.552 0-1 .449-1 1v14c0 .551.448 1 1 1h20c.552 0 1-.449 1-1V5z"/></svg>