<svg xmlns="http://www.w3.org/2000/svg" viewBox="0 0 24 24"><path fill="#5c6671" d="M5.002 7.735c.011-.058.066-.101.13-.101l1.237.002h.005c.181.007.431.047.51.321.001.002.001.004.002.006l.22.958c.013.056-.018.112-.074.136-.016.007-.035.011-.054.011-.04 0-.079-.017-.105-.048-.413-.502-1.03-.899-1.785-1.15-.06-.02-.096-.077-.085-.135zm1.01.77c-.045-.032-.108-.034-.155-.004s-.068.084-.052.134l.922 2.907c.016.052.068.087.126.087l1.062-.001c.053 0 .1-.029.121-.073l1.743-3.741c.018-.038.013-.081-.011-.115s-.066-.055-.11-.055h-.959c-.054 0-.103.031-.123.077l-1.122 2.644-.121-.403c-.002-.006-.004-.011-.006-.016-.177-.379-.653-.972-1.317-1.443zm8.869 2.958l1.669-3.487c.111-.232.296-.331.618-.331h.805c.062 0 .115.04.129.095l.896 3.746c.009.036-.001.074-.026.102s-.063.045-.103.045h-.824c-.062 0-.115-.04-.129-.096-.027-.116-.094-.396-.121-.502-.091 0-.471 0-.828-.001h-.018c-.163 0-.397-.001-.63-.001-.058.058-.133.238-.249.521-.019.047-.068.078-.123.078h-.945c-.045 0-.086-.021-.11-.055s-.028-.078-.01-.116zm1.743-1.245h.98l-.273-1.152-.08-.345-.627 1.497zm-6.97 1.371c.025.027.062.043.101.043h.912c.064 0 .119-.043.13-.101l.693-3.748c.006-.035-.004-.071-.029-.099s-.062-.043-.101-.043h-.912c-.064 0-.119.043-.13.101l-.692 3.748c-.007.035.004.072.029.099zm2.03-.138c.311.101.745.163 1.161.167h.001c1.194 0 1.97-.516 1.979-1.315.005-.439-.299-.771-.952-1.044-.399-.179-.644-.298-.642-.48 0-.164.224-.329.654-.329h.035c.357 0 .609.075.768.131.037.013.078.01.112-.008s.058-.049.065-.085l.107-.578c.011-.06-.027-.118-.09-.136-.196-.058-.513-.127-.91-.127-1.125 0-1.915.522-1.921 1.269-.007.553.565.862.996 1.046.442.188.591.309.589.477-.003.258-.354.376-.68.376-.463 0-.712-.064-1.065-.2-.037-.014-.079-.012-.114.006s-.06.049-.066.086l-.113.609c-.011.058.026.116.086.135zM24 5v14c0 1.103-.897 2-2 2H2c-1.103 0-2-.897-2-2V5c0-1.103.897-2 2-2h20c1.103 0 2 .897 2 2zM1 5v9h22V5c0-.551-.448-1-1-1H2c-.552 0-1 .449-1 1zm22 14v-4H1v4c0 .551.448 1 1 1h20c.552 0 1-.449 1-1zm-18.321-.09H6.44v-.537H5.347l-.004-.496h1.108v-.515H5.346l.007-.496h1.108v-.537H4.677l.001 2.582zm2.231-2.798l.002 2.799h.649l-.002-2.799H6.91zm2.988 2.004H8.596c0 .146.093.392.451.392.228 0 .354-.067.53-.187l.216.377c-.22.187-.556.28-.855.28-.683 0-.993-.485-.993-.966 0-.567.425-1.049 1.011-1.049.716 0 .94.507.94 1.153zm-.582-.381c0-.194-.093-.369-.31-.369-.205 0-.362.183-.403.369h.713zm1.97.728c-.276 0-.485-.213-.485-.481 0-.31.216-.504.541-.504.104 0 .209.034.306.075l.209-.425c-.146-.093-.414-.164-.638-.164-.642 0-1.067.418-1.067 1.052 0 .619.429.963 1.026.963.216 0 .511-.082.69-.194l-.231-.429c-.105.052-.228.108-.351.108zm1.882-.023c-.145 0-.187-.078-.187-.243 0-.16.019-.437.019-.698h.534l.011-.47h-.534l.015-.638h-.627l.002.638h-.293l-.015.47h.28c0 .25-.019.481-.019.713 0 .433.026.765.552.765.22 0 .451-.071.642-.187l-.142-.44c-.075.045-.149.09-.239.09zm1.366-1.145h-.007v-.265h-.649l-.015 1.881h.649l.011-1.086c0-.037.168-.22.384-.22.097 0 .168.019.231.037l.086-.642c-.067-.015-.142-.022-.213-.022-.254 0-.381.157-.478.317zm2.919.675c0 .567-.358 1.008-1.052 1.008s-1.052-.44-1.052-1.008c0-.567.358-1.007 1.052-1.007s1.052.44 1.052 1.007zm-.65 0c0-.246-.093-.515-.403-.515s-.403.269-.403.515.093.515.403.515.403-.269.403-.515zm2.26-1.007c-.231 0-.459.127-.608.272v-.205h-.649l-.015 1.881h.661l.003-1.216c.086-.082.235-.172.34-.172.194 0 .235.119.235.272 0 .388-.004.754-.008 1.116h.649c.004-.414.008-.828.008-1.213 0-.515-.216-.735-.616-.735z"/></svg>