<svg xmlns="http://www.w3.org/2000/svg" viewBox="0 0 24 24"><path fill="#5c6671" d="M12 0C5.383 0 0 5.383 0 12c0 6.396 5.034 11.625 11.347 11.967.044.012.085.033.13.033.027 0 .052-.018.079-.022.148.005.294.022.444.022 6.617 0 12-5.383 12-12S18.617 0 12 0zm10.688 13.684c-1.152.821-4.447 2.892-6.319 3.02-.215-.221-.624-.654-1.126-1.218 1.918-.681 6.168-3.627 7.663-4.852.056.449.094.903.094 1.367 0 .546-.053 1.078-.13 1.603-.069.015-.13.043-.184.082zm-9.669 9.264c2.033-1.843 3.167-4.374 3.516-5.246.518-.051 1.093-.205 1.686-.423-.293 1.387-1.392 3.793-1.909 4.839-1.027.439-2.134.724-3.293.831zm-1.344-.43C5.74 19.963 4.243 11.555 4.146 9.592c.741-.11 1.486-.169 2.193-.186.564 2.806 4.741 10.418 7.326 11.347-.511.674-1.128 1.323-1.835 1.871-.043-.043-.094-.081-.154-.107zM3.422 5.132c.056.027.118.045.185.049 3.814.229 8.061.782 8.967 1.338-.741.856-1.378 1.734-1.788 2.54-.051-.029-.096-.059-.152-.085-.778-.366-2.139-.564-3.676-.572-.057-.023-.119-.037-.185-.037-.07 0-.136.015-.197.041-1.747.026-3.67.293-5.212.838.395-1.522 1.101-2.918 2.058-4.111zm5.311-3.637c.03.008.056.023.088.026 1.545.132 4.269 1.022 6.378 2.415-.651.547-1.322 1.178-1.955 1.846-1.347-.955-6.914-1.42-9.01-1.562 1.244-1.242 2.782-2.188 4.5-2.724zm13.97 8.008c-.026.018-.056.029-.079.053-1.009 1.009-6.964 5.045-8.027 5.081-.025.001-.047.012-.071.017-.43-.512-.878-1.076-1.305-1.663.059-.022.115-.055.164-.101.265-.244 6.188-5.713 7.657-7.138.775 1.118 1.343 2.387 1.661 3.751zm-7.104 7.844c-.193.472-.64 1.473-1.339 2.556-.039-.014-.077-.033-.121-.037-1.713-.165-6.192-7.625-6.795-10.456 1.666.05 2.95.321 3.131.642.803 2.699 4.196 6.336 5.124 7.295zm4.834-12.398c-1.268 1.243-7.66 7.145-7.726 7.206-.015.014-.021.032-.034.047-.517-.784-.946-1.569-1.183-2.278 1.117-2.836 5.891-6.765 6.819-6.835.03-.002.055-.016.083-.023.755.542 1.444 1.172 2.04 1.883zm-3.067-2.542c-.399.208-.86.508-1.36.883-.022-.022-.038-.048-.064-.066-1.43-.98-3.127-1.728-4.627-2.189.228-.014.455-.035.686-.035 1.948 0 3.777.514 5.366 1.407zM1 12c0-.549.054-1.085.132-1.613.029-.006.058-.006.086-.017.6-.255 1.259-.448 1.937-.595.173 2.236 1.669 9.859 6.935 13.048C4.933 21.915 1 17.413 1 12zm16.787 9.337c.615-1.356 1.443-3.374 1.5-4.506 1.307-.608 2.554-1.38 3.296-1.868-.751 2.677-2.487 4.938-4.796 6.375z"/></svg>