<svg xmlns="http://www.w3.org/2000/svg" viewBox="0 0 18 24"><path fill="#5c6671" d="M14.833.386L6.969 6.01H1.998c-1.102 0-1.999.897-1.999 1.999v7.996c0 1.102.897 1.999 1.999 1.999h4.971l7.938 5.674c.326.211.701.323 1.084.323 1.102 0 1.999-.897 1.999-1.999V2.012c0-1.484-1.595-2.646-3.158-1.626zM1.999 17.004c-.551 0-.999-.449-.999-.999V8.009c0-.551.449-.999.999-.999h4.997v9.995H1.999zm14.992 4.997c0 .741-.802 1.322-1.577.812l-7.419-5.305c0-.002.001-.003.001-.004V6.51c0-.002-.001-.003-.001-.004l7.455-5.331c.164-.106.351-.162.541-.162.551 0 .999.448.999.999v19.99z"/></svg>