<svg xmlns="http://www.w3.org/2000/svg" viewBox="0 0 24 24"><path fill="#5c6671" d="M23.5 11H23V5c0-1.103-.897-2-2-2h-2.162l-.506-1.031C17.736.756 16.536.002 15.201 0h-.004c-.576 0-1.15.148-1.66.427L8.844 3H2C.897 3 0 3.897 0 5v17c0 1.103.897 2 2 2h19c1.103 0 2-.897 2-2v-3h.5c.276 0 .5-.224.5-.5v-7c0-.276-.224-.5-.5-.5zM21 4c.552 0 1 .449 1 1v1.278C21.705 6.106 21.366 6 21 6h-.688l-.982-2H21zm-3.218-.882L19.198 6h-6.674l5.258-2.882zm-3.764-1.814c.363-.199.771-.304 1.18-.304h.002c.881.001 1.664.477 2.116 1.233L10.444 6H5.453l8.565-4.696zM2 4h5.02L3.372 6H2c-.552 0-1-.449-1-1s.448-1 1-1zm20 18c0 .551-.448 1-1 1H2c-.552 0-1-.449-1-1V6.722c.295.172.634.278 1 .278h19c.552 0 1 .449 1 1v3h-5c-1.103 0-2 .897-2 2v4c0 1.103.897 2 2 2h5v3zm1-4h-6c-.552 0-1-.449-1-1v-4c0-.551.448-1 1-1h6v6zm-4-5c-1.103 0-2 .897-2 2s.897 2 2 2 2-.897 2-2-.897-2-2-2zm0 3c-.552 0-1-.449-1-1s.448-1 1-1 1 .449 1 1-.448 1-1 1z"/></svg>