<svg xmlns="http://www.w3.org/2000/svg" viewBox="0 0 24 24"><path fill="#5c6671" d="M23.9 21.8c-.095.126-.243.201-.4.201h-7c-.276 0-.5-.224-.5-.5s.224-.5.5-.5h6.332L18.02 4.642c-.013-.042-.021-.091-.021-.142 0-.113.037-.217.101-.3.094-.125.242-.199.399-.199h.349l-4.349-2.899-4.349 2.899h.349c.157 0 .306.074.4.201.062.082.1.186.1.299 0 .051-.008.099-.022.145l-.767 2.605c-.077.265-.355.418-.62.338-.266-.078-.417-.355-.339-.621l.579-1.967H8.498c-.221 0-.415-.144-.479-.355s.018-.439.201-.561l6-4c.078-.053.174-.084.277-.084s.199.031.279.085l5.998 3.999c.184.122.265.35.201.561s-.258.355-.479.355h-1.332l4.812 16.359c.045.151.016.314-.079.44zm-9.389-.997c.195.195.195.512 0 .707-.098.098-.226.146-.354.146s-.256-.049-.354-.146l-.373-.373c-1.202 1.053-2.739 1.725-4.431 1.837v.525c0 .276-.224.5-.5.5s-.5-.224-.5-.5v-.525c-1.692-.112-3.229-.785-4.431-1.837l-.373.373c-.098.098-.226.146-.354.146s-.256-.049-.354-.146c-.195-.195-.195-.512 0-.707l.373-.373C1.808 19.228 1.135 17.691 1.023 16H.498c-.276 0-.5-.224-.5-.5s.224-.5.5-.5h.525c.112-1.691.784-3.228 1.837-4.43l-.373-.373c-.195-.195-.195-.512 0-.707s.512-.195.707 0l.373.373C4.769 8.81 6.306 8.138 7.998 8.026v-.525c0-.276.224-.5.5-.5s.5.224.5.5v.525c1.692.112 3.229.785 4.431 1.837l.373-.373c.195-.195.512-.195.707 0s.195.512 0 .707l-.373.373c1.052 1.202 1.725 2.739 1.837 4.43h.525c.276 0 .5.224.5.5s-.224.5-.5.5h-.525c-.112 1.691-.784 3.228-1.837 4.43l.373.373zM14.975 16H12.95c-.097.864-.433 1.648-.949 2.293l1.43 1.43c.873-1.018 1.435-2.307 1.544-3.723zm-5.268-1h2.242c-.086-.59-.314-1.129-.656-1.586L9.707 15zm.879-2.293c-.457-.342-.996-.571-1.586-.656v2.242l1.586-1.586zM8 12.051c-.59.086-1.13.314-1.586.656L8 14.293V12.05zm-2.293 1.363c-.342.457-.57.996-.656 1.586h2.242l-1.586-1.586zM5.051 16c.085.59.314 1.129.656 1.586L7.293 16H5.051zm1.363 2.294c.457.342.996.571 1.586.656v-2.243l-1.586 1.586zM9 18.95c.59-.086 1.13-.314 1.586-.656L9 16.708v2.242zm2.293-1.364c.342-.457.57-.996.656-1.586H9.707l1.586 1.586zm2.138-6.309l-1.43 1.43c.516.646.852 1.43.949 2.293h2.025c-.109-1.416-.67-2.705-1.544-3.723zM9 9.026v2.025c.864.097 1.648.433 2.293.949l1.43-1.43c-1.018-.874-2.307-1.436-3.724-1.544zM4.276 10.57L5.706 12c.646-.516 1.43-.852 2.293-.949V9.026c-1.416.109-2.706.671-3.724 1.544zM2.025 15H4.05c.097-.864.433-1.648.949-2.293l-1.43-1.43C2.696 12.295 2.134 13.584 2.025 15zm1.544 4.724l1.43-1.43c-.516-.646-.852-1.43-.949-2.293H2.025c.109 1.416.67 2.705 1.544 3.723zM8 21.975V19.95c-.864-.097-1.648-.433-2.293-.949l-1.43 1.43c1.018.874 2.307 1.436 3.724 1.544zm4.724-1.544l-1.43-1.43c-.646.516-1.43.852-2.293.949v2.025c1.416-.109 2.706-.671 3.724-1.544z"/></svg>