<svg xmlns="http://www.w3.org/2000/svg" viewBox="0 0 24 24"><path fill="#5c6671" d="M23.846 11.138l-11.5-11c-.193-.185-.498-.185-.691 0l-11.5 11c-.147.141-.194.358-.118.547s.26.314.464.314h1.5v10c0 1.103.897 2 2 2h16c1.103 0 2-.897 2-2v-10h1.5c.204 0 .388-.124.464-.314s.029-.406-.118-.547zM21.5 11c-.276 0-.5.224-.5.5V22c0 .551-.449 1-1 1H4c-.551 0-1-.449-1-1V11.5c0-.276-.224-.5-.5-.5h-.754L12 1.192 22.254 11H21.5zm-10-1h-1c-.276 0-.5.224-.5.5s.224.5.5.5h1v.5h-1c-.276 0-.5.224-.5.5H6.5c-.276 0-.5.224-.5.5v2c0 .276.224.5.5.5H10c0 .276.224.5.5.5h3c.276 0 .5-.224.5-.5h.5c.276 0 .5.224.5.5V17c0 .276.224.5.5.5h.198c-.319.677-.698 1.571-.698 2 0 .827.673 1.5 1.5 1.5s1.5-.673 1.5-1.5c0-.429-.379-1.323-.698-2h.198c.276 0 .5-.224.5-.5v-1.5c0-1.93-1.57-3.5-3.5-3.5H14c0-.276-.224-.5-.5-.5h-1V11h1c.276 0 .5-.224.5-.5s-.224-.5-.5-.5h-1c0-.276-.224-.5-.5-.5s-.5.224-.5.5zm5 10c-.275 0-.5-.224-.5-.5.003-.179.221-.737.5-1.351.279.614.497 1.172.5 1.351 0 .276-.224.5-.5.5zM7 14v-1h3v1H7zm7.5-1c1.378 0 2.5 1.122 2.5 2.5v1h-1v-1c0-.827-.673-1.5-1.5-1.5H14v-1h.5zM13 14.5h-2v-2h2v2z"/></svg>