<svg xmlns="http://www.w3.org/2000/svg" viewBox="0 0 22 24"><path fill="#5c6671" d="M11 18c3.86 0 7-3.14 7-7s-3.14-7-7-7-7 3.14-7 7 3.14 7 7 7zm0-13c3.309 0 6 2.691 6 6s-2.691 6-6 6-6-2.691-6-6 2.691-6 6-6zm0 11c2.757 0 5-2.243 5-5s-2.243-5-5-5-5 2.243-5 5 2.243 5 5 5zm0-9c2.206 0 4 1.794 4 4s-1.794 4-4 4-4-1.794-4-4 1.794-4 4-4zm-2.5 4.5c-.276 0-.5-.224-.5-.5 0-1.654 1.346-3 3-3 .276 0 .5.224.5.5s-.224.5-.5.5c-1.103 0-2 .897-2 2 0 .276-.224.5-.5.5zm12.004 8.591c-.445-.515-1.153-.84-2.089-.99C20.612 17.089 22 14.207 22 11c0-6.065-4.935-11-11-11S0 4.935 0 11c0 3.207 1.388 6.089 3.585 8.101-.936.15-1.643.476-2.089.99-.587.679-.502 1.4-.496 1.409v.5c0 1.103.897 2 2 2h16c1.103 0 2-.897 2-2l-.005-.428c.012-.08.097-.802-.491-1.48zM1 11C1 5.486 5.486 1 11 1s10 4.486 10 10-4.486 10-10 10S1 16.514 1 11zm19 10.5v.5c0 .551-.449 1-1 1H3c-.551 0-1-.449-1-1l-.004-.563c-.001-.015-.035-.369.272-.709.29-.322.953-.701 2.433-.723 1.786 1.253 3.956 1.996 6.299 1.996s4.513-.742 6.299-1.996c1.48.023 2.143.401 2.433.723.307.341.273.695.268.772z"/></svg>