<svg xmlns="http://www.w3.org/2000/svg" viewBox="0 0 24 24"><path fill="#5c6671" d="M23.5 4c-2.011 0-3.787 1.282-4.418 3.19L19 7.437V5.499c0-.148-.064-.281-.167-.372-.107-.096-.249-.143-.389-.125l-18 2c-.196.022-.361.158-.421.346s-.003.395.146.526l4.267 3.765-.423 1.412c-.169-.025-.337-.052-.513-.052-1.93 0-3.5 1.57-3.5 3.5s1.57 3.5 3.5 3.5 3.5-1.57 3.5-3.5c0-.283-.043-.555-.107-.819l1.6-.64c.313.133.648.21.988.21.251 0 .503-.038.747-.115l.844-.266 1.022 4.426c.095.414.455.699.878.699h.013c.429-.006.787-.304.871-.724l1.127-5.636 2.27-.717c1.011-.319 1.694-1.227 1.739-2.278l1.04-3.136c.496-1.499 1.89-2.505 3.469-2.505.276 0 .5-.224.5-.5s-.224-.5-.5-.5zM6 16.5C6 17.878 4.879 19 3.5 19S1 17.878 1 16.5 2.121 14 3.5 14c.076 0 .147.016.222.022l-.7 2.334c-.056.184-.001.383.141.513.095.085.215.131.338.131.062 0 .126-.012.186-.036l2.27-.908c.026.144.045.292.045.443zm-1.321-2.191c.365.197.679.474.907.818l-1.309.524.403-1.342zm.292-.974l.29-.967 2.253 1.988-.998.399c-.359-.618-.894-1.116-1.545-1.42zm7.994 5.29l-.936-4.057 1.866-.589-.93 4.646zM18 10.534c0 .658-.421 1.232-1.048 1.431l-7.024 2.218c-.498.159-1.053.04-1.444-.306L1.678 7.872 18 6.059v4.476z"/></svg>