<svg xmlns="http://www.w3.org/2000/svg" viewBox="0 0 24 24"><path fill="#5c6671" d="M9.869 15.878c-.567.567-.88 1.32-.88 2.122s.312 1.555.88 2.121c.586.585 1.355.877 2.123.877s1.538-.292 2.123-.877c.567-.567.88-1.32.88-2.122s-.312-1.555-.88-2.121c-1.172-1.17-3.076-1.169-4.246 0zm3.539 3.536c-.781.779-2.051.78-2.832 0-.378-.377-.587-.879-.587-1.414s.209-1.036.587-1.414c.391-.39.903-.585 1.416-.585s1.025.195 1.416.585c.378.377.587.879.587 1.414s-.209 1.036-.587 1.414zm10.397-9.836c-.091.07-.198.104-.305.104-.149 0-.298-.067-.396-.195-.428-.556-.809-.996-1.199-1.387-2.647-2.644-6.168-4.101-9.912-4.101S4.728 5.456 2.081 8.1c-.387.386-.763.82-1.185 1.365-.169.219-.483.258-.701.09s-.259-.483-.09-.701c.448-.58.852-1.044 1.269-1.461C4.211 4.56 7.981 2.999 11.993 2.999s7.782 1.56 10.619 4.393c.422.422.83.893 1.285 1.484.168.219.127.533-.092.701zm-3.083 1.732c.168.219.127.533-.092.701-.091.07-.198.104-.305.104-.149 0-.298-.067-.396-.195-.304-.395-.575-.709-.856-.991C17.181 9.04 14.667 8 11.993 8s-5.189 1.04-7.08 2.929c-.276.275-.545.585-.847.976-.169.22-.482.259-.701.09s-.259-.482-.09-.701c.328-.425.624-.766.931-1.072 2.08-2.077 4.846-3.221 7.787-3.221s5.707 1.144 7.787 3.221c.312.313.612.659.942 1.089zm-3.175 2.432c.169.219.129.533-.09.702-.083.065-.19.104-.305.104h-.001c-.149 0-.297-.067-.395-.194-.159-.206-.326-.407-.516-.595-1.135-1.134-2.643-1.758-4.247-1.758s-3.115.624-4.249 1.757c-.186.186-.352.383-.507.585-.169.219-.481.26-.702.091-.219-.168-.259-.482-.091-.701.183-.236.376-.466.593-.683C8.36 11.728 10.12 11 11.993 11c1.871 0 3.631.728 4.954 2.05.219.219.415.453.6.692z"/></svg>