<svg xmlns="http://www.w3.org/2000/svg" viewBox="0 0 18 24"><path fill="#5c6671" d="M17.713 14.717c-1.797-1.519-6.263-5.092-6.454-5.207-.103-.061-.212-.111-.325-.151.023-.121.035-.244.035-.369 0-.228-.774-5.875-1.18-8.316C9.723.277 9.403-.023 9 .001c-.397 0-.721.278-.785.673-.391 2.365-1.182 8.103-1.182 8.315 0 .125.012.248.035.37-.126.045-.234.096-.336.156-.186.111-4.582 3.622-6.444 5.2-.307.259-.378.683-.174 1.029.202.342.602.484.969.341 1.386-.528 3.984-1.584 5.763-2.321l-.657 8.069c-.046.562.146 1.122.525 1.534.37.402.894.632 1.435.632H9.85c.542 0 1.065-.23 1.435-.632.38-.412.571-.971.525-1.534l-.657-8.066c1.763.731 4.336 1.778 5.762 2.319.096.037.193.054.289.054.273 0 .53-.143.68-.395.203-.346.132-.769-.174-1.028zm-8.71-12.62c.417 2.716.946 6.64.967 6.893 0 .174-.048.345-.141.508-.083.145-.08.318-.007.466-.176-.278-.469-.474-.82-.474s-.644.195-.82.474c.073-.148.075-.322-.007-.466-.093-.163-.141-.334-.142-.475.021-.242.554-4.194.97-6.926zM7.25 10.373c.143-.083.304-.126.478-.126h.013c.158 0 .298-.083.392-.208-.07.138-.12.287-.12.452 0 .543.432.982.967.995-.172.008-.33.099-.414.251-.091.162-.21.288-.323.357-.067.031-.455.195-1.023.432-.001 0-.001.001-.002.001-1.312.547-3.613 1.494-5.366 2.187 2.088-1.725 5.194-4.196 5.398-4.342zm3.302 12.317c-.185.2-.433.311-.7.311H8.151c-.268 0-.517-.11-.7-.31-.191-.207-.287-.49-.265-.775l.699-8.583c.686-.267.806-.319.926-.371-.152.044-.119.026-.092.01.107-.064.199-.131.284-.206.085.078.179.146.278.205.037.022.077.045.836.364l.699 8.58c.022.285-.073.567-.265.774zm.238-10.156c-.002-.001-.003-.003-.005-.004-.526-.22-.895-.376-.998-.423-.006-.004-.011-.01-.017-.013-.134-.086-.248-.203-.331-.354s-.242-.244-.415-.252c.535-.013.966-.452.966-.995 0-.165-.05-.315-.12-.452.094.125.233.208.392.208h.004c.184.01.342.041.455.105.2.145 3.333 2.636 5.428 4.365-1.756-.693-4.059-1.64-5.36-2.183z"/></svg>