<svg xmlns="http://www.w3.org/2000/svg" viewBox="0 0 14 24"><path fill="#5c6671" d="M5.477 9.156c-.131-.416-.822-.416-.953 0l-4.5 14.192c-.084.263.063.544.325.627.046.015.098.024.153.024.222 0 .41-.145.474-.346l.445-1.402 3.58-4.949 3.58 4.949.444 1.399c.067.213.265.349.477.349.054 0 .106-.009.155-.024.259-.082.406-.363.322-.626l-4.5-14.192zM5 10.962l.924 2.914H4.076L5 10.962zm-2.616 8.252l1.219-3.843.781 1.079-1.999 2.764zM5 15.597l-.521-.721h1.043l-.521.721zm.617.853l.781-1.079 1.219 3.843-1.999-2.764zm8.362-13.22c-.001-.147-.067-.287-.181-.381s-.262-.135-.407-.108l-4.736.845c-.294-.963-.934-1.762-1.8-2.244L7.111.68c.101-.257-.027-.547-.285-.647-.257-.099-.548.027-.646.286l-.26.67c-.653-.165-1.327-.152-1.975.037l-.284-.66c-.108-.254-.405-.37-.656-.262-.254.109-.371.403-.262.657l.287.667c-.581.352-1.051.845-1.377 1.447l-.657-.262c-.256-.103-.547.023-.649.279s.023.547.28.649l.665.265c-.169.682-.15 1.371.036 2.015l-.655.289c-.253.112-.367.407-.255.66.082.187.266.298.457.298.073 0 .143-.016.205-.044l.643-.284c.339.573.823 1.053 1.428 1.391l-.263.679c-.101.257.027.547.285.647.053.021.115.034.18.034.2 0 .39-.121.466-.319l.259-.668c.304.077.612.13.922.13.356 0 .707-.069 1.054-.17l.284.661c.081.189.266.303.459.303.066 0 .133-.013.197-.041.254-.109.371-.403.262-.657l-.287-.667c.724-.438 1.292-1.089 1.605-1.899.032-.082.045-.173.072-.259l4.765.852c.026.005.056.008.087.008h.001c.123 0 .236-.045.323-.118.113-.095.178-.237.177-.385l-.021-3.033zm-6.318.533l-1.874.334.698-1.802c.543.34.959.85 1.176 1.468zM4.999 1.858c.188 0 .375.022.561.061l-.584 1.507-.636-1.479c.217-.053.437-.088.659-.088zm-1.574.489l.64 1.488-1.485-.591c.215-.359.5-.664.845-.897zm-1.203 1.83l1.488.593-1.467.648c-.095-.4-.104-.822-.021-1.241zm.414 2.16l1.461-.646-.584 1.507c-.358-.224-.654-.518-.877-.861zm1.805 1.234l.583-1.505.637 1.481c-.401.099-.815.107-1.22.024zm3.203-1.768c-.216.556-.589 1.017-1.069 1.341l-.749-1.743 1.844.33c-.035.105-.044.129-.053.153zm.2-1.057l.523-.093 4.615-.823.014 1.838-5.152-.922z"/></svg>