<svg xmlns="http://www.w3.org/2000/svg" viewBox="0 0 24 24"><path fill="#5c6671" d="M23.8 17.383c-.188-.795-.765-1.443-1.542-1.733-.078-.029-.181-.063-.267-.094-.075-4.477-2.705-8.287-6.389-9.823C15.863 5.194 16 4.605 16 4c0-2.206-1.794-4-4-4S8 1.794 8 4c0 .605.137 1.194.398 1.733-3.683 1.536-6.314 5.346-6.388 9.823-.086.031-.189.064-.267.094-.777.29-1.354.938-1.542 1.733-.133.56-.2 1.104-.2 1.617 0 .531.072 1.163.215 1.877.186.941.905 1.699 1.834 1.931 1.776.445 5.432 1.191 9.951 1.191s8.175-.747 9.951-1.191c.929-.232 1.648-.99 1.834-1.931.143-.715.215-1.347.215-1.878 0-.513-.067-1.057-.2-1.617zM9.342 5.387C9.117 4.959 9 4.486 9 4c0-1.654 1.346-3 3-3s3 1.346 3 3c0 .486-.117.959-.342 1.387-.063-.019-.128-.025-.191-.042-.302-.083-.609-.15-.921-.203-.109-.018-.217-.039-.327-.054C12.819 5.035 12.414 5 12 5s-.818.036-1.219.088c-.11.014-.218.035-.327.054-.312.052-.619.12-.921.203-.063.017-.128.023-.191.042zm-.054 1.067c.4-.137.809-.234 1.221-.309.03-.007.112-.021.194-.034.422-.066.855-.1 1.296-.1s.874.034 1.297.1c.082.013.163.027.245.042.361.067.77.164 1.17.301 3.493 1.199 6.06 4.65 6.264 8.771C19.061 14.649 16.028 14 12 14s-7.061.649-8.975 1.225c.204-4.121 2.771-7.572 6.264-8.771zm12.421 15.385C19.977 22.273 16.412 23 12 23s-7.977-.728-9.709-1.161c-.097-.024-.184-.069-.272-.112 1.35-.951 6.757-1.562 9.955-1.728 3.246.166 8.655.777 10.006 1.728-.088.042-.175.088-.272.112zm1.096-1.156c-.023.118-.068.228-.118.335-1.93-1.524-9.752-1.971-10.712-2.018-.911.047-8.732.494-10.661 2.018-.05-.107-.095-.217-.118-.336-.13-.651-.195-1.217-.195-1.683 0-.436.059-.902.173-1.386.111-.47.455-.854.919-1.027C3.681 15.994 7.079 15 12.001 15s8.32.994 9.908 1.586c.464.173.808.558.919 1.027.114.484.173.951.173 1.386 0 .465-.065 1.031-.195 1.683z"/></svg>