<svg xmlns="http://www.w3.org/2000/svg" viewBox="0 0 24 24"><path fill="#5c6671" d="M23.739 4.294c-.006-.004-.022-.013-.028-.016-.154-.085-.344-.082-.496.01L20.479 5.93c-.831-.43-1.374-1.237-1.465-2.154l3.056-1.834c.141-.084.23-.231.242-.395s-.058-.32-.185-.423C21.234.403 20.174.015 19.062 0c-1.232.012-2.524.56-3.479 1.575-1.116 1.191-1.632 2.37-1.578 3.603.029.677-.274 1.386-.824 1.936L.88 18.88c-.566.566-.879 1.32-.879 2.121 0 1.654 1.346 3 3 3 .801 0 1.555-.312 2.128-.886L17.865 9.851c.404.102.771.149 1.136.149 1.371 0 2.697-.572 3.639-1.57.954-1.012 1.435-2.337 1.353-3.73-.01-.165-.11-.32-.252-.405zm-1.828 3.449C21.147 8.554 20.113 9 19 9c-.352 0-.716-.06-1.146-.189-.182-.053-.374-.002-.504.133L4.414 22.415c-.378.378-.88.586-1.414.586-1.103 0-2-.897-2-2 0-.534.208-1.036.578-1.406L13.879 7.829c.756-.756 1.165-1.737 1.124-2.694-.042-.963.374-1.876 1.309-2.875.753-.802 1.735-1.259 2.7-1.259h.037c.644.009 1.267.175 1.834.487l-2.64 1.584c-.151.09-.243.253-.243.429 0 1.424.791 2.704 2.065 3.342l.211.105c.152.076.334.069.48-.019l2.198-1.318c-.121.796-.479 1.533-1.044 2.133z"/></svg>