<svg xmlns="http://www.w3.org/2000/svg" viewBox="0 0 18 24"><path fill="#5c6671" d="M17.934.251C17.845.096 17.679 0 17.5 0H14c-.182 0-.349.099-.438.257L9 8.47 4.437.257C4.348.098 4.181 0 4 0H.5C.321 0 .155.096.066.251s-.089.346.002.501L5.463 10H1.5c-.276 0-.5.224-.5.5v3c0 .276.224.5.5.5H7v2H1.5c-.276 0-.5.224-.5.5v3c0 .276.224.5.5.5H7v3.5c0 .276.224.5.5.5h3c.276 0 .5-.224.5-.5V20h5.5c.276 0 .5-.224.5-.5v-3c0-.276-.224-.5-.5-.5H11v-2h5.5c.276 0 .5-.224.5-.5v-3c0-.276-.224-.5-.5-.5h-3.963L17.932.752c.091-.155.091-.346.002-.501zm-6.699 9.997c-.091.155-.091.346-.002.501s.255.251.434.251H16v2h-5.5c-.276 0-.5.224-.5.5v3c0 .276.224.5.5.5H16v2h-5.5c-.276 0-.5.224-.5.5V23H8v-3.5c0-.276-.224-.5-.5-.5H2v-2h5.5c.276 0 .5-.224.5-.5v-3c0-.276-.224-.5-.5-.5H2v-2h4.333c.179 0 .345-.096.434-.251s.089-.346-.002-.501L1.37 1h2.336l4.856 8.743c.178.317.697.317.875 0L14.293 1h2.336l-5.395 9.248z"/></svg>