<svg xmlns="http://www.w3.org/2000/svg" viewBox="0 0 24 24"><path fill="#5c6671" d="M23.276 20.115c0-.001-.001-.001-.001-.002l-5.873-5.349C18.41 13.256 19 11.446 19 9.5 19 4.262 14.738 0 9.5 0S0 4.262 0 9.5 4.262 19 9.5 19c1.916 0 3.697-.575 5.191-1.554l5.424 5.83c.422.46 1.022.724 1.646.724 1.234 0 2.238-1.004 2.238-2.238 0-.624-.264-1.225-.724-1.646zM1 9.5C1 4.813 4.813 1 9.5 1S18 4.813 18 9.5c0 1.902-.636 3.655-1.696 5.073-.509.681-1.11 1.276-1.789 1.774C13.107 17.381 11.377 18 9.5 18 4.813 18 1 14.187 1 9.5zM21.762 23c-.345 0-.677-.145-.912-.402l-5.344-5.744c.476-.392.9-.812 1.283-1.269l5.812 5.268c.254.232.399.564.399.909 0 .683-.556 1.238-1.238 1.238zM9.5 4C6.468 4 4 6.468 4 9.5c0 .276-.224.5-.5.5S3 9.776 3 9.5C3 5.916 5.916 3 9.5 3c.276 0 .5.224.5.5s-.224.5-.5.5zM13 9.5c0 .276-.224.5-.5.5h-6c-.276 0-.5-.224-.5-.5s.224-.5.5-.5h6c.276 0 .5.224.5.5z"/></svg>